<svg width="43" height="48" viewBox="0 0 43 48" fill="none" xmlns="http://www.w3.org/2000/svg">
<g id="account_circle">
<mask id="mask0_15057_10287" style="mask-type:alpha" maskUnits="userSpaceOnUse" x="0" y="0" width="43" height="48">
<rect id="Bounding box" x="0.484375" width="42" height="48" fill="#D9D9D9"/>
</mask>
<g mask="url(#mask0_15057_10287)">
<path id="account_circle_2" d="M8.55312 35.25C10.6531 33.7833 12.7365 32.6583 14.8031 31.875C16.8698 31.0917 19.0865 30.7 21.4531 30.7C23.8198 30.7 26.0448 31.0917 28.1281 31.875C30.2115 32.6583 32.3031 33.7833 34.4031 35.25C35.8698 33.45 36.9115 31.6333 37.5281 29.8C38.1448 27.9667 38.4531 26.0333 38.4531 24C38.4531 19.1667 36.8281 15.125 33.5781 11.875C30.3281 8.625 26.2865 7 21.4531 7C16.6198 7 12.5781 8.625 9.32812 11.875C6.07812 15.125 4.45312 19.1667 4.45312 24C4.45312 26.0333 4.76979 27.9667 5.40313 29.8C6.03646 31.6333 7.08646 33.45 8.55312 35.25ZM21.4436 25.5C19.5166 25.5 17.8948 24.8385 16.5781 23.5155C15.2615 22.1928 14.6031 20.5678 14.6031 18.6405C14.6031 16.7135 15.2646 15.0917 16.5876 13.775C17.9103 12.4583 19.5353 11.8 21.4626 11.8C23.3896 11.8 25.0115 12.4615 26.3281 13.7845C27.6448 15.1072 28.3031 16.7322 28.3031 18.6595C28.3031 20.5865 27.6416 22.2083 26.3186 23.525C24.996 24.8417 23.371 25.5 21.4436 25.5ZM21.4766 44C18.7276 44 16.1365 43.475 13.7031 42.425C11.2698 41.375 9.14479 39.9417 7.32812 38.125C5.51146 36.3083 4.07812 34.1872 3.02813 31.7615C1.97812 29.3362 1.45312 26.7445 1.45312 23.9865C1.45312 21.2288 1.97812 18.6417 3.02813 16.225C4.07812 13.8083 5.51146 11.6917 7.32812 9.875C9.14479 8.05833 11.266 6.625 13.6916 5.575C16.117 4.525 18.7086 4 21.4666 4C24.2243 4 26.8115 4.525 29.2281 5.575C31.6448 6.625 33.7615 8.05833 35.5781 9.875C37.3948 11.6917 38.8281 13.8088 39.8781 16.2265C40.9281 18.6442 41.4531 21.2275 41.4531 23.9765C41.4531 26.7255 40.9281 29.3167 39.8781 31.75C38.8281 34.1833 37.3948 36.3083 35.5781 38.125C33.7615 39.9417 31.6443 41.375 29.2266 42.425C26.809 43.475 24.2256 44 21.4766 44ZM21.4531 41C23.2865 41 25.0781 40.7333 26.8281 40.2C28.5781 39.6667 30.3031 38.7333 32.0031 37.4C30.3031 36.2 28.5698 35.2833 26.8031 34.65C25.0365 34.0167 23.2531 33.7 21.4531 33.7C19.6531 33.7 17.8698 34.0167 16.1031 34.65C14.3365 35.2833 12.6031 36.2 10.9031 37.4C12.6031 38.7333 14.3281 39.6667 16.0781 40.2C17.8281 40.7333 19.6198 41 21.4531 41ZM21.4531 22.5C22.5865 22.5 23.5115 22.1417 24.2281 21.425C24.9448 20.7083 25.3031 19.7833 25.3031 18.65C25.3031 17.5167 24.9448 16.5917 24.2281 15.875C23.5115 15.1583 22.5865 14.8 21.4531 14.8C20.3198 14.8 19.3948 15.1583 18.6781 15.875C17.9615 16.5917 17.6031 17.5167 17.6031 18.65C17.6031 19.7833 17.9615 20.7083 18.6781 21.425C19.3948 22.1417 20.3198 22.5 21.4531 22.5Z" fill="white"/>
</g>
</g>
</svg>
