<svg width="25" height="24" viewBox="0 0 25 24" fill="none" xmlns="http://www.w3.org/2000/svg">
<g id="account_circle">
<mask id="mask0_14858_9333" style="mask-type:alpha" maskUnits="userSpaceOnUse" x="0" y="0" width="25" height="24">
<rect id="Bounding box" x="0.515625" width="24" height="24" fill="#D9D9D9"/>
</mask>
<g mask="url(#mask0_14858_9333)">
<path id="account_circle_2" d="M4.55 17.625C5.6 16.8917 6.64167 16.3292 7.675 15.9375C8.70833 15.5458 9.81667 15.35 11 15.35C12.1833 15.35 13.2958 15.5458 14.3375 15.9375C15.3792 16.3292 16.425 16.8917 17.475 17.625C18.2083 16.725 18.7292 15.8167 19.0375 14.9C19.3458 13.9833 19.5 13.0167 19.5 12C19.5 9.58333 18.6875 7.5625 17.0625 5.9375C15.4375 4.3125 13.4167 3.5 11 3.5C8.58333 3.5 6.5625 4.3125 4.9375 5.9375C3.3125 7.5625 2.5 9.58333 2.5 12C2.5 13.0167 2.65833 13.9833 2.975 14.9C3.29167 15.8167 3.81667 16.725 4.55 17.625ZM10.9952 12.75C10.0317 12.75 9.22083 12.4193 8.5625 11.7578C7.90417 11.0964 7.575 10.2839 7.575 9.32025C7.575 8.35675 7.90575 7.54583 8.56725 6.8875C9.22858 6.22917 10.0411 5.9 11.0048 5.9C11.9683 5.9 12.7792 6.23075 13.4375 6.89225C14.0958 7.55358 14.425 8.36608 14.425 9.32975C14.425 10.2933 14.0942 11.1042 13.4327 11.7625C12.7714 12.4208 11.9589 12.75 10.9952 12.75ZM11.0118 22C9.63725 22 8.34167 21.7375 7.125 21.2125C5.90833 20.6875 4.84583 19.9708 3.9375 19.0625C3.02917 18.1542 2.3125 17.0936 1.7875 15.8807C1.2625 14.6681 1 13.3723 1 11.9933C1 10.6144 1.2625 9.32083 1.7875 8.1125C2.3125 6.90417 3.02917 5.84583 3.9375 4.9375C4.84583 4.02917 5.90642 3.3125 7.11925 2.7875C8.33192 2.2625 9.62775 2 11.0068 2C12.3856 2 13.6792 2.2625 14.8875 2.7875C16.0958 3.3125 17.1542 4.02917 18.0625 4.9375C18.9708 5.84583 19.6875 6.90442 20.2125 8.11325C20.7375 9.32208 21 10.6137 21 11.9882C21 13.3628 20.7375 14.6583 20.2125 15.875C19.6875 17.0917 18.9708 18.1542 18.0625 19.0625C17.1542 19.9708 16.0956 20.6875 14.8867 21.2125C13.6779 21.7375 12.3863 22 11.0118 22ZM11 20.5C11.9167 20.5 12.8125 20.3667 13.6875 20.1C14.5625 19.8333 15.425 19.3667 16.275 18.7C15.425 18.1 14.5583 17.6417 13.675 17.325C12.7917 17.0083 11.9 16.85 11 16.85C10.1 16.85 9.20833 17.0083 8.325 17.325C7.44167 17.6417 6.575 18.1 5.725 18.7C6.575 19.3667 7.4375 19.8333 8.3125 20.1C9.1875 20.3667 10.0833 20.5 11 20.5ZM11 11.25C11.5667 11.25 12.0292 11.0708 12.3875 10.7125C12.7458 10.3542 12.925 9.89167 12.925 9.325C12.925 8.75833 12.7458 8.29583 12.3875 7.9375C12.0292 7.57917 11.5667 7.4 11 7.4C10.4333 7.4 9.97083 7.57917 9.6125 7.9375C9.25417 8.29583 9.075 8.75833 9.075 9.325C9.075 9.89167 9.25417 10.3542 9.6125 10.7125C9.97083 11.0708 10.4333 11.25 11 11.25Z" fill="#053749"/>
</g>
</g>
</svg>
