<svg width="18" height="20" viewBox="0 0 18 20" fill="none" xmlns="http://www.w3.org/2000/svg">
<g id="account_box">
<mask id="mask0_15089_6057" style="mask-type:alpha" maskUnits="userSpaceOnUse" x="0" y="0" width="18" height="20">
<rect id="Bounding box" x="0.515625" width="17" height="20" fill="#D9D9D9"/>
</mask>
<g mask="url(#mask0_15089_6057)">
<path id="account_box_2" d="M2.3125 14.9167C3.14583 14.1389 4.08958 13.5104 5.14375 13.0312C6.19778 12.5521 7.33667 12.3125 8.56042 12.3125C9.78403 12.3125 10.9236 12.5521 11.9792 13.0312C13.0347 13.5104 13.9792 14.1389 14.8125 14.9167V3.1875H2.3125V14.9167ZM8.60417 10.6667C9.40972 10.6667 10.0903 10.3889 10.6458 9.83333C11.2014 9.27778 11.4792 8.59722 11.4792 7.79167C11.4792 6.98611 11.2014 6.30556 10.6458 5.75C10.0903 5.19444 9.40972 4.91667 8.60417 4.91667C7.79861 4.91667 7.11806 5.19444 6.5625 5.75C6.00694 6.30556 5.72917 6.98611 5.72917 7.79167C5.72917 8.59722 6.00694 9.27778 6.5625 9.83333C7.11806 10.3889 7.79861 10.6667 8.60417 10.6667ZM2.3125 16.9375C1.97917 16.9375 1.6875 16.8125 1.4375 16.5625C1.1875 16.3125 1.0625 16.0208 1.0625 15.6875V3.1875C1.0625 2.85417 1.1875 2.5625 1.4375 2.3125C1.6875 2.0625 1.97917 1.9375 2.3125 1.9375H14.8125C15.1458 1.9375 15.4375 2.0625 15.6875 2.3125C15.9375 2.5625 16.0625 2.85417 16.0625 3.1875V15.6875C16.0625 16.0208 15.9375 16.3125 15.6875 16.5625C15.4375 16.8125 15.1458 16.9375 14.8125 16.9375H2.3125ZM3.20833 15.6875H13.8958C13.0347 14.9514 12.1632 14.4132 11.2812 14.0729C10.3993 13.7326 9.49306 13.5625 8.5625 13.5625C7.63194 13.5625 6.72569 13.7326 5.84375 14.0729C4.96181 14.4132 4.08333 14.9514 3.20833 15.6875ZM8.60417 9.41667C8.15278 9.41667 7.7691 9.25868 7.45312 8.94271C7.13715 8.62674 6.97917 8.24306 6.97917 7.79167C6.97917 7.34028 7.13715 6.9566 7.45312 6.64062C7.7691 6.32465 8.15278 6.16667 8.60417 6.16667C9.05556 6.16667 9.43924 6.32465 9.75521 6.64062C10.0712 6.9566 10.2292 7.34028 10.2292 7.79167C10.2292 8.24306 10.0712 8.62674 9.75521 8.94271C9.43924 9.25868 9.05556 9.41667 8.60417 9.41667Z" fill="#053749"/>
</g>
</g>
</svg>
