<svg width="16" height="16" viewBox="0 0 16 16" fill="none" xmlns="http://www.w3.org/2000/svg">
<g id="add_link">
<mask id="mask0_14927_12281" style="mask-type:alpha" maskUnits="userSpaceOnUse" x="0" y="0" width="16" height="16">
<rect id="Bounding box" width="16" height="16" fill="#D9D9D9"/>
</mask>
<g mask="url(#mask0_14927_12281)">
<path id="add_link_2" d="M11.333 13.3327V11.3327H9.33301V9.99935H11.333V7.99935H12.6663V9.99935H14.6663V11.3327H12.6663V13.3327H11.333ZM7.33301 11.3327H4.66634C3.74412 11.3327 2.95801 11.0077 2.30801 10.3577C1.65801 9.70768 1.33301 8.92157 1.33301 7.99935C1.33301 7.07713 1.65801 6.29102 2.30801 5.64102C2.95801 4.99102 3.74412 4.66602 4.66634 4.66602H7.33301V5.99935H4.66634C4.11079 5.99935 3.63856 6.19379 3.24967 6.58268C2.86079 6.97157 2.66634 7.44379 2.66634 7.99935C2.66634 8.5549 2.86079 9.02713 3.24967 9.41602C3.63856 9.8049 4.11079 9.99935 4.66634 9.99935H7.33301V11.3327ZM5.33301 8.66602V7.33268H10.6663V8.66602H5.33301ZM14.6663 7.99935H13.333C13.333 7.44379 13.1386 6.97157 12.7497 6.58268C12.3608 6.19379 11.8886 5.99935 11.333 5.99935H8.66634V4.66602H11.333C12.2552 4.66602 13.0413 4.99102 13.6913 5.64102C14.3413 6.29102 14.6663 7.07713 14.6663 7.99935Z" fill="#829BA4"/>
</g>
</g>
</svg>
