<svg width="17" height="20" viewBox="0 0 17 20" fill="none" xmlns="http://www.w3.org/2000/svg">
<g id="language">
<mask id="mask0_14858_9216" style="mask-type:alpha" maskUnits="userSpaceOnUse" x="0" y="0" width="18" height="20">
<rect id="Bounding box" x="0.0078125" width="17" height="20" fill="#D9D9D9"/>
</mask>
<g mask="url(#mask0_14858_9216)">
<path id="language_2" d="M8.34115 18.3332C7.17448 18.3332 6.0842 18.1144 5.07031 17.6769C4.05642 17.2394 3.17448 16.6457 2.42448 15.8957C1.67448 15.1457 1.0842 14.2603 0.653646 13.2394C0.22309 12.2186 0.0078125 11.1248 0.0078125 9.95817C0.0078125 8.7915 0.22309 7.7047 0.653646 6.69775C1.0842 5.69081 1.67448 4.81234 2.42448 4.06234C3.17448 3.31234 4.05642 2.72553 5.07031 2.30192C6.0842 1.87831 7.17448 1.6665 8.34115 1.6665C9.50781 1.6665 10.5981 1.87831 11.612 2.30192C12.6259 2.72553 13.5078 3.31234 14.2578 4.06234C15.0078 4.81234 15.5981 5.69081 16.0286 6.69775C16.4592 7.7047 16.6745 8.7915 16.6745 9.95817C16.6745 11.1248 16.4592 12.2186 16.0286 13.2394C15.5981 14.2603 15.0078 15.1457 14.2578 15.8957C13.5078 16.6457 12.6259 17.2394 11.612 17.6769C10.5981 18.1144 9.50781 18.3332 8.34115 18.3332ZM8.34115 17.1248C8.82726 16.6248 9.23351 16.0519 9.5599 15.4061C9.88628 14.7603 10.1536 13.9929 10.362 13.104H6.34115C6.53559 13.9373 6.79601 14.6873 7.1224 15.354C7.44878 16.0207 7.85503 16.6109 8.34115 17.1248ZM6.57031 16.8748C6.22309 16.3471 5.92448 15.7776 5.67448 15.1665C5.42448 14.5554 5.21615 13.8679 5.04948 13.104H1.92448C2.45226 14.0901 3.06337 14.8644 3.75781 15.4269C4.45226 15.9894 5.38976 16.4721 6.57031 16.8748ZM10.1328 16.854C11.1328 16.5346 12.0321 16.0554 12.8307 15.4165C13.6293 14.7776 14.2717 14.0068 14.7578 13.104H11.6536C11.4731 13.854 11.2613 14.5346 11.0182 15.1457C10.7752 15.7568 10.48 16.3262 10.1328 16.854ZM1.50781 11.854H4.82031C4.77865 11.479 4.75434 11.1422 4.7474 10.8436C4.74045 10.545 4.73698 10.2498 4.73698 9.95817C4.73698 9.61095 4.74392 9.30192 4.75781 9.03109C4.7717 8.76025 4.79948 8.45817 4.84115 8.12484H1.50781C1.41059 8.45817 1.34462 8.75678 1.3099 9.02067C1.27517 9.28456 1.25781 9.59706 1.25781 9.95817C1.25781 10.3193 1.27517 10.6422 1.3099 10.9269C1.34462 11.2116 1.41059 11.5207 1.50781 11.854ZM6.11198 11.854H10.5911C10.6467 11.4234 10.6814 11.0728 10.6953 10.8019C10.7092 10.5311 10.7161 10.2498 10.7161 9.95817C10.7161 9.68039 10.7092 9.41303 10.6953 9.15609C10.6814 8.89914 10.6467 8.55539 10.5911 8.12484H6.11198C6.05642 8.55539 6.0217 8.89914 6.00781 9.15609C5.99392 9.41303 5.98698 9.68039 5.98698 9.95817C5.98698 10.2498 5.99392 10.5311 6.00781 10.8019C6.0217 11.0728 6.05642 11.4234 6.11198 11.854ZM11.8411 11.854H15.1745C15.2717 11.5207 15.3377 11.2116 15.3724 10.9269C15.4071 10.6422 15.4245 10.3193 15.4245 9.95817C15.4245 9.59706 15.4071 9.28456 15.3724 9.02067C15.3377 8.75678 15.2717 8.45817 15.1745 8.12484H11.862C11.9036 8.61095 11.9314 8.98248 11.9453 9.23942C11.9592 9.49637 11.9661 9.73595 11.9661 9.95817C11.9661 10.2637 11.9557 10.5519 11.9349 10.8228C11.9141 11.0936 11.8828 11.4373 11.8411 11.854ZM11.6328 6.87484H14.7578C14.2995 5.9165 13.671 5.11789 12.8724 4.479C12.0738 3.84012 11.1536 3.38873 10.112 3.12484C10.4592 3.63873 10.7543 4.19428 10.9974 4.7915C11.2405 5.38873 11.4523 6.08317 11.6328 6.87484ZM6.34115 6.87484H10.3828C10.23 6.13873 9.97309 5.42692 9.61198 4.73942C9.25087 4.05192 8.82726 3.44428 8.34115 2.9165C7.8967 3.2915 7.5217 3.78456 7.21615 4.39567C6.91059 5.00678 6.61892 5.83317 6.34115 6.87484ZM1.92448 6.87484H5.07031C5.22309 6.12484 5.41753 5.4547 5.65365 4.86442C5.88976 4.27414 6.18837 3.70123 6.54948 3.14567C5.50781 3.40956 4.59809 3.854 3.82031 4.479C3.04253 5.104 2.41059 5.90262 1.92448 6.87484Z" fill="#003649"/>
</g>
</g>
</svg>
