<svg width="17" height="21" viewBox="0 0 17 21" fill="none" xmlns="http://www.w3.org/2000/svg">
<g id="language">
<mask id="mask0_15066_15189" style="mask-type:alpha" maskUnits="userSpaceOnUse" x="0" y="0" width="18" height="21">
<rect id="Bounding box" x="0.00683594" y="0.96875" width="17" height="20" fill="#D9D9D9"/>
</mask>
<g mask="url(#mask0_15066_15189)">
<path id="language_2" d="M8.34017 19.3014C7.1735 19.3014 6.08322 19.0827 5.06934 18.6452C4.05545 18.2077 3.1735 17.6139 2.4235 16.8639C1.6735 16.1139 1.08322 15.2285 0.652669 14.2077C0.222114 13.1868 0.00683594 12.0931 0.00683594 10.9264C0.00683594 9.75977 0.222114 8.67296 0.652669 7.66602C1.08322 6.65907 1.6735 5.7806 2.4235 5.0306C3.1735 4.2806 4.05545 3.69379 5.06934 3.27018C6.08322 2.84657 7.1735 2.63477 8.34017 2.63477C9.50684 2.63477 10.5971 2.84657 11.611 3.27018C12.6249 3.69379 13.5068 4.2806 14.2568 5.0306C15.0068 5.7806 15.5971 6.65907 16.0277 7.66602C16.4582 8.67296 16.6735 9.75977 16.6735 10.9264C16.6735 12.0931 16.4582 13.1868 16.0277 14.2077C15.5971 15.2285 15.0068 16.1139 14.2568 16.8639C13.5068 17.6139 12.6249 18.2077 11.611 18.6452C10.5971 19.0827 9.50684 19.3014 8.34017 19.3014ZM8.34017 18.0931C8.82628 17.5931 9.23253 17.0202 9.55892 16.3743C9.88531 15.7285 10.1527 14.9612 10.361 14.0723H6.34017C6.53461 14.9056 6.79503 15.6556 7.12142 16.3223C7.44781 16.9889 7.85406 17.5792 8.34017 18.0931ZM6.56934 17.8431C6.22211 17.3153 5.9235 16.7459 5.6735 16.1348C5.4235 15.5237 5.21517 14.8362 5.0485 14.0723H1.9235C2.45128 15.0584 3.06239 15.8327 3.75684 16.3952C4.45128 16.9577 5.38878 17.4403 6.56934 17.8431ZM10.1318 17.8223C11.1318 17.5028 12.0311 17.0237 12.8298 16.3848C13.6284 15.7459 14.2707 14.975 14.7568 14.0723H11.6527C11.4721 14.8223 11.2603 15.5028 11.0173 16.1139C10.7742 16.725 10.4791 17.2945 10.1318 17.8223ZM1.50684 12.8223H4.81934C4.77767 12.4473 4.75336 12.1105 4.74642 11.8118C4.73947 11.5132 4.736 11.2181 4.736 10.9264C4.736 10.5792 4.74295 10.2702 4.75684 9.99935C4.77072 9.72852 4.7985 9.42643 4.84017 9.0931H1.50684C1.40961 9.42643 1.34364 9.72504 1.30892 9.98893C1.2742 10.2528 1.25684 10.5653 1.25684 10.9264C1.25684 11.2875 1.2742 11.6105 1.30892 11.8952C1.34364 12.1799 1.40961 12.4889 1.50684 12.8223ZM6.111 12.8223H10.5902C10.6457 12.3917 10.6804 12.041 10.6943 11.7702C10.7082 11.4993 10.7152 11.2181 10.7152 10.9264C10.7152 10.6487 10.7082 10.3813 10.6943 10.1243C10.6804 9.8674 10.6457 9.52365 10.5902 9.0931H6.111C6.05545 9.52365 6.02072 9.8674 6.00684 10.1243C5.99295 10.3813 5.986 10.6487 5.986 10.9264C5.986 11.2181 5.99295 11.4993 6.00684 11.7702C6.02072 12.041 6.05545 12.3917 6.111 12.8223ZM11.8402 12.8223H15.1735C15.2707 12.4889 15.3367 12.1799 15.3714 11.8952C15.4061 11.6105 15.4235 11.2875 15.4235 10.9264C15.4235 10.5653 15.4061 10.2528 15.3714 9.98893C15.3367 9.72504 15.2707 9.42643 15.1735 9.0931H11.861C11.9027 9.57921 11.9304 9.95074 11.9443 10.2077C11.9582 10.4646 11.9652 10.7042 11.9652 10.9264C11.9652 11.232 11.9548 11.5202 11.9339 11.791C11.9131 12.0618 11.8818 12.4056 11.8402 12.8223ZM11.6318 7.8431H14.7568C14.2985 6.88477 13.67 6.08615 12.8714 5.44727C12.0728 4.80838 11.1527 4.35699 10.111 4.0931C10.4582 4.60699 10.7534 5.16254 10.9964 5.75977C11.2395 6.35699 11.4513 7.05143 11.6318 7.8431ZM6.34017 7.8431H10.3818C10.2291 7.10699 9.97211 6.39518 9.611 5.70768C9.24989 5.02018 8.82628 4.41254 8.34017 3.88477C7.89572 4.25977 7.52073 4.75282 7.21517 5.36393C6.90961 5.97504 6.61795 6.80143 6.34017 7.8431ZM1.9235 7.8431H5.06934C5.22211 7.0931 5.41656 6.42296 5.65267 5.83268C5.88878 5.2424 6.18739 4.66949 6.5485 4.11393C5.50684 4.37782 4.59711 4.82227 3.81934 5.44727C3.04156 6.07227 2.40961 6.87088 1.9235 7.8431Z" fill="white"/>
</g>
</g>
</svg>
