<svg width="53" height="54" viewBox="0 0 53 54" fill="none" xmlns="http://www.w3.org/2000/svg">
<g id="Camada_1">
<g id="Group">
<path id="Vector" d="M26.5006 13.4818C29.9474 13.4818 32.7415 10.6876 32.7415 7.24088C32.7415 3.79414 29.9474 1 26.5006 1C23.0539 1 20.2598 3.79414 20.2598 7.24088C20.2598 10.6876 23.0539 13.4818 26.5006 13.4818Z" fill="#F7C400" stroke="black" stroke-width="0.7" stroke-miterlimit="10"/>
<path id="Vector_2" d="M42.1022 33.4151C39.9779 32.6373 37.6371 32.2007 35.1716 32.2007H17.8321C15.3666 32.2007 13.0258 32.6373 10.9015 33.4151C4.77799 35.6605 0.5 40.786 0.5 46.7554V52.9999H52.5V46.7554C52.5 40.786 48.222 35.6605 42.0985 33.4114L42.1022 33.4151Z" fill="white" stroke="#E30518" stroke-width="0.7" stroke-miterlimit="10" stroke-linecap="round"/>
<path id="Vector_3" d="M18.7025 11.4014H34.3029C38.6066 11.4014 42.1031 14.8979 42.1031 19.2016V27.0017C42.1031 35.6128 35.1137 42.6021 26.5027 42.6021C17.8917 42.6021 10.9023 35.6128 10.9023 27.0017V19.2016C10.9023 14.8979 14.3989 11.4014 18.7025 11.4014Z" fill="#F6B1B4" stroke="black" stroke-width="0.7" stroke-miterlimit="10"/>
<g id="Group_2">
<path id="Vector_4" d="M25.5924 32.0617C25.8376 32.0617 26.0363 31.863 26.0363 31.6178C26.0363 31.3726 25.8376 31.1738 25.5924 31.1738C25.3472 31.1738 25.1484 31.3726 25.1484 31.6178C25.1484 31.863 25.3472 32.0617 25.5924 32.0617Z" fill="#E30518"/>
<path id="Vector_5" d="M27.4049 32.0617C27.6501 32.0617 27.8488 31.863 27.8488 31.6178C27.8488 31.3726 27.6501 31.1738 27.4049 31.1738C27.1597 31.1738 26.9609 31.3726 26.9609 31.6178C26.9609 31.863 27.1597 32.0617 27.4049 32.0617Z" fill="#E30518"/>
</g>
<path id="Vector_6" d="M10.9023 52.9998V42.6021" stroke="#E30518" stroke-width="0.7" stroke-miterlimit="10" stroke-linecap="round"/>
<path id="Vector_7" d="M42.1035 52.9998V42.6021" stroke="#E30518" stroke-width="0.7" stroke-miterlimit="10" stroke-linecap="round"/>
<g id="Group_3">
<path id="Vector_8" d="M20.0125 29.3941C22.8412 29.3941 25.1343 27.101 25.1343 24.2722C25.1343 21.4435 22.8412 19.1504 20.0125 19.1504C17.1838 19.1504 14.8906 21.4435 14.8906 24.2722C14.8906 27.101 17.1838 29.3941 20.0125 29.3941Z" stroke="#E30518" stroke-width="0.7" stroke-miterlimit="10" stroke-linecap="round"/>
<path id="Vector_9" d="M32.989 29.3941C35.8178 29.3941 38.1109 27.101 38.1109 24.2722C38.1109 21.4435 35.8178 19.1504 32.989 19.1504C30.1603 19.1504 27.8672 21.4435 27.8672 24.2722C27.8672 27.101 30.1603 29.3941 32.989 29.3941Z" stroke="#E30518" stroke-width="0.7" stroke-miterlimit="10" stroke-linecap="round"/>
<path id="Vector_10" d="M27.8752 24.1694C27.6697 23.5934 27.0533 23.1935 26.4406 23.2412C25.8316 23.2852 25.2812 23.7732 25.1602 24.3712" stroke="#E30518" stroke-width="0.7" stroke-miterlimit="10" stroke-linecap="round"/>
</g>
<path id="Vector_11" d="M34.3029 10.3594H18.7025C14.3952 10.3594 10.9023 13.8522 10.9023 18.1596C11.6692 15.6096 14.0173 13.8632 16.6809 13.8632H36.3208C38.9845 13.8632 41.3326 15.6096 42.0994 18.1596C42.0994 13.8522 38.6066 10.3594 34.2992 10.3594H34.3029Z" fill="#F7C400" stroke="black" stroke-width="0.7" stroke-miterlimit="10"/>
</g>
</g>
</svg>
