<svg width="84" height="80" viewBox="0 0 84 80" fill="none" xmlns="http://www.w3.org/2000/svg">
<path d="M42.0001 -0.00195312C19.0128 -0.00195312 0.337402 17.9264 0.337402 39.994C0.337402 62.0617 19.0128 80.002 42.0001 80.002C64.9872 80.002 83.6626 62.0617 83.6626 39.994C83.6626 17.9264 64.9872 -0.00195312 42.0001 -0.00195312ZM42.0001 3.99788C62.7353 3.99788 79.4959 20.0881 79.4959 39.994C79.4959 59.9 62.7353 76.002 42.0001 76.002C21.2646 76.002 4.49197 59.9 4.49197 39.994C4.49197 20.0881 21.2646 3.99788 42.0001 3.99788ZM27.3597 20.0175C27.0852 20.0165 26.8132 20.0677 26.5593 20.1679C26.3054 20.2681 26.0747 20.4154 25.8802 20.6014C25.6858 20.7874 25.5315 21.0083 25.4262 21.2517C25.3209 21.495 25.2667 21.7561 25.2667 22.0196C25.2667 22.2831 25.3209 22.544 25.4262 22.7873C25.5315 23.0307 25.6858 23.2516 25.8802 23.4376C26.0747 23.6236 26.3054 23.7709 26.5593 23.8711C26.8132 23.9713 27.0852 24.0224 27.3597 24.0215H56.5182C56.7927 24.0224 57.0647 23.9713 57.3186 23.8711C57.5724 23.7709 57.8032 23.6236 57.9977 23.4376C58.1921 23.2516 58.3464 23.0307 58.4517 22.7873C58.5569 22.544 58.6111 22.2831 58.6111 22.0196C58.6111 21.7561 58.5569 21.495 58.4517 21.2517C58.3464 21.0083 58.1921 20.7874 57.9977 20.6014C57.8032 20.4154 57.5724 20.2681 57.3186 20.1679C57.0647 20.0677 56.7927 20.0165 56.5182 20.0175H27.3597ZM41.9228 28.0215C41.3796 28.0298 40.8612 28.2413 40.4782 28.6112L25.8828 42.6072C25.6865 42.7929 25.5303 43.0139 25.4234 43.2578C25.3165 43.5017 25.261 43.7636 25.2599 44.0282C25.2589 44.2929 25.3124 44.555 25.4174 44.7997C25.5224 45.0443 25.6768 45.2665 25.8717 45.4536C26.0666 45.6408 26.2981 45.7891 26.5529 45.8899C26.8078 45.9907 27.0809 46.042 27.3565 46.041C27.6321 46.04 27.9048 45.9867 28.1589 45.8841C28.4129 45.7815 28.6433 45.6315 28.8368 45.443L39.8639 34.8572V58.0213C39.8757 58.5442 40.1005 59.0417 40.4899 59.4075C40.8793 59.7733 41.4024 59.9782 41.9472 59.9782C42.492 59.9782 43.0151 59.7733 43.4045 59.4075C43.794 59.0417 44.0187 58.5442 44.0305 58.0213V34.8415L55.0576 45.4276C55.2444 45.637 55.4743 45.8069 55.7328 45.927C55.9913 46.0471 56.2729 46.1147 56.5598 46.1254C56.8468 46.1361 57.133 46.0896 57.4004 45.9891C57.6678 45.8885 57.9106 45.7358 58.1137 45.5408C58.3168 45.3459 58.4756 45.1129 58.5804 44.8562C58.6851 44.5995 58.7334 44.3247 58.7223 44.0492C58.7112 43.7738 58.6409 43.5034 58.5158 43.2552C58.3907 43.0071 58.2134 42.7865 57.9953 42.6072L43.4324 28.6112C43.2349 28.4206 42.9995 28.27 42.7401 28.1687C42.4808 28.0674 42.2028 28.0174 41.9228 28.0215Z" fill="white"/>
</svg>
