<svg width="15" height="16" viewBox="0 0 15 16" fill="none" xmlns="http://www.w3.org/2000/svg">
<path d="M1.2768 16C1.05643 16 0.871709 15.9233 0.722635 15.77C0.57356 15.6167 0.499023 15.4267 0.499023 15.2V10.82C0.499023 10.49 0.613292 10.2075 0.841829 9.9724C1.07024 9.73747 1.34486 9.62 1.66569 9.62H2.19069V5.98C2.19069 5.65 2.30496 5.36747 2.5335 5.1324C2.7619 4.89747 3.03652 4.78 3.35736 4.78H6.91569V3.5C6.65643 3.31333 6.45875 3.1098 6.32263 2.8894C6.18652 2.66887 6.11847 2.403 6.11847 2.0918C6.11847 1.89727 6.15412 1.71 6.22541 1.53C6.29671 1.35 6.39717 1.19333 6.5268 1.06L7.49902 0L8.47125 1.06C8.60088 1.19333 8.70458 1.35 8.78236 1.53C8.86014 1.71 8.89902 1.89727 8.89902 2.0918C8.89902 2.403 8.82773 2.66887 8.68513 2.8894C8.54254 3.1098 8.34162 3.31333 8.08236 3.5V4.78H11.6407C11.9615 4.78 12.2362 4.89747 12.4647 5.1324C12.6932 5.36747 12.8074 5.65 12.8074 5.98V9.62H13.3324C13.6532 9.62 13.9279 9.73747 14.1564 9.9724C14.3848 10.2075 14.499 10.49 14.499 10.82V15.2C14.499 15.4267 14.4245 15.6167 14.2754 15.77C14.1263 15.9233 13.9416 16 13.7212 16H1.2768ZM3.35736 9.62H11.6407V5.98H3.35736V9.62ZM1.66569 14.8H13.3324V10.82H1.66569V14.8Z" fill="#053749"/>
</svg>
