<svg width="14" height="20" viewBox="0 0 14 20" fill="none" xmlns="http://www.w3.org/2000/svg">
<mask id="mask0_16574_13589" style="mask-type:alpha" maskUnits="userSpaceOnUse" x="0" y="0" width="14" height="20">
<rect width="14" height="20" fill="#D9D9D9"/>
</mask>
<g mask="url(#mask0_16574_13589)">
<path d="M0.777778 18C0.557407 18 0.372685 17.9233 0.223611 17.77C0.074537 17.6167 0 17.4267 0 17.2V12.82C0 12.49 0.114269 12.2075 0.342806 11.9724C0.571213 11.7375 0.845833 11.62 1.16667 11.62H1.69167V7.98C1.69167 7.65 1.80594 7.36747 2.03447 7.1324C2.26288 6.89747 2.5375 6.78 2.85833 6.78H6.41667V5.5C6.15741 5.31333 5.95972 5.1098 5.82361 4.8894C5.6875 4.66887 5.61944 4.403 5.61944 4.0918C5.61944 3.89727 5.65509 3.71 5.72639 3.53C5.79769 3.35 5.89815 3.19333 6.02778 3.06L7 2L7.97222 3.06C8.10185 3.19333 8.20556 3.35 8.28333 3.53C8.36111 3.71 8.4 3.89727 8.4 4.0918C8.4 4.403 8.3287 4.66887 8.18611 4.8894C8.04352 5.1098 7.84259 5.31333 7.58333 5.5V6.78H11.1417C11.4625 6.78 11.7372 6.89747 11.9657 7.1324C12.1941 7.36747 12.3083 7.65 12.3083 7.98V11.62H12.8333C13.1542 11.62 13.4289 11.7375 13.6574 11.9724C13.8858 12.2075 14 12.49 14 12.82V17.2C14 17.4267 13.9255 17.6167 13.7764 17.77C13.6273 17.9233 13.4426 18 13.2222 18H0.777778ZM2.85833 11.62H11.1417V7.98H2.85833V11.62ZM1.16667 16.8H12.8333V12.82H1.16667V16.8Z" fill="white"/>
</g>
</svg>
