<svg width="21" height="20" viewBox="0 0 21 20" fill="none" xmlns="http://www.w3.org/2000/svg">
<g id="cancel">
<mask id="mask0_14858_8875" style="mask-type:alpha" maskUnits="userSpaceOnUse" x="0" y="0" width="21" height="20">
<rect id="Bounding box" x="0.53125" width="20" height="20" fill="#D9D9D9"/>
</mask>
<g mask="url(#mask0_14858_8875)">
<path id="cancel_2" d="M7.44727 14.0555L10.5306 10.9721L13.6139 14.0555L14.5862 13.0832L11.5029 9.99984L14.5862 6.9165L13.6139 5.94421L10.5306 9.02755L7.44727 5.94421L6.47497 6.9165L9.55831 9.99984L6.47497 13.0832L7.44727 14.0555ZM10.5306 18.3332C9.38713 18.3332 8.30845 18.1144 7.29456 17.6769C6.28067 17.2394 5.39636 16.6434 4.64164 15.8888C3.88706 15.1341 3.29102 14.2498 2.85352 13.2359C2.41602 12.222 2.19727 11.1433 2.19727 9.99984C2.19727 8.84706 2.41602 7.76373 2.85352 6.74984C3.29102 5.73595 3.88706 4.854 4.64164 4.104C5.39636 3.354 6.28067 2.76025 7.29456 2.32275C8.30845 1.88525 9.38713 1.6665 10.5306 1.6665C11.6834 1.6665 12.7667 1.88525 13.7806 2.32275C14.7945 2.76025 15.6764 3.354 16.4264 4.104C17.1764 4.854 17.7702 5.73595 18.2077 6.74984C18.6452 7.76373 18.8639 8.84706 18.8639 9.99984C18.8639 11.1433 18.6452 12.222 18.2077 13.2359C17.7702 14.2498 17.1764 15.1341 16.4264 15.8888C15.6764 16.6434 14.7945 17.2394 13.7806 17.6769C12.7667 18.1144 11.6834 18.3332 10.5306 18.3332ZM10.5306 16.9442C12.4657 16.9442 14.1069 16.2683 15.4541 14.9165C16.8014 13.5647 17.475 11.9258 17.475 9.99984C17.475 8.0647 16.8014 6.42352 15.4541 5.0763C14.1069 3.72907 12.4657 3.05546 10.5306 3.05546C8.60463 3.05546 6.96574 3.72907 5.61393 5.0763C4.26213 6.42352 3.58622 8.0647 3.58622 9.99984C3.58622 11.9258 4.26213 13.5647 5.61393 14.9165C6.96574 16.2683 8.60463 16.9442 10.5306 16.9442Z" fill="#053749"/>
</g>
</g>
</svg>
