<svg width="21" height="21" viewBox="0 0 21 21" fill="none" xmlns="http://www.w3.org/2000/svg">
<g id="cancel">
<mask id="mask0_15066_15086" style="mask-type:alpha" maskUnits="userSpaceOnUse" x="0" y="0" width="21" height="21">
<rect id="Bounding box" x="0.515625" y="0.96875" width="20" height="20" fill="#D9D9D9"/>
</mask>
<g mask="url(#mask0_15066_15086)">
<path id="cancel_2" d="M7.43262 15.0237L10.516 11.9404L13.5993 15.0237L14.5716 14.0514L11.4882 10.9681L14.5716 7.88477L13.5993 6.91247L10.516 9.99581L7.43262 6.91247L6.46033 7.88477L9.54366 10.9681L6.46033 14.0514L7.43262 15.0237ZM10.516 19.3014C9.37248 19.3014 8.2938 19.0827 7.27991 18.6452C6.26602 18.2077 5.38171 17.6116 4.62699 16.8571C3.87241 16.1023 3.27637 15.218 2.83887 14.2041C2.40137 13.1903 2.18262 12.1116 2.18262 10.9681C2.18262 9.81532 2.40137 8.73199 2.83887 7.7181C3.27637 6.70421 3.87241 5.82227 4.62699 5.07227C5.38171 4.32227 6.26602 3.72852 7.27991 3.29102C8.2938 2.85352 9.37248 2.63477 10.516 2.63477C11.6687 2.63477 12.7521 2.85352 13.766 3.29102C14.7798 3.72852 15.6618 4.32227 16.4118 5.07227C17.1618 5.82227 17.7555 6.70421 18.193 7.7181C18.6305 8.73199 18.8493 9.81532 18.8493 10.9681C18.8493 12.1116 18.6305 13.1903 18.193 14.2041C17.7555 15.218 17.1618 16.1023 16.4118 16.8571C15.6618 17.6116 14.7798 18.2077 13.766 18.6452C12.7521 19.0827 11.6687 19.3014 10.516 19.3014ZM10.516 17.9125C12.4511 17.9125 14.0923 17.2366 15.4395 15.8848C16.7867 14.533 17.4603 12.8941 17.4603 10.9681C17.4603 9.03296 16.7867 7.39178 15.4395 6.04456C14.0923 4.69734 12.4511 4.02372 10.516 4.02372C8.58998 4.02372 6.95109 4.69734 5.59928 6.04456C4.24748 7.39178 3.57158 9.03296 3.57158 10.9681C3.57158 12.8941 4.24748 14.533 5.59928 15.8848C6.95109 17.2366 8.58998 17.9125 10.516 17.9125Z" fill="white"/>
</g>
</g>
</svg>
