<svg width="63" height="64" viewBox="0 0 63 64" fill="none" xmlns="http://www.w3.org/2000/svg">
<path fill-rule="evenodd" clip-rule="evenodd" d="M51.2828 16.3198C51.6544 17.7128 51.8531 19.1778 51.8531 20.6889C51.8531 24.6944 50.4604 28.3753 48.1349 31.2683H48.157C49.5828 31.2683 50.7364 32.427 50.7364 33.855C50.7364 35.2849 49.581 36.4417 48.157 36.4417C46.7312 36.4417 45.5777 35.2831 45.5777 33.855V33.8329C42.6911 36.165 39.0226 37.5617 35.0284 37.5617C33.5217 37.5617 32.0627 37.3624 30.6719 36.9897L32.2927 30.9233C33.1648 31.1576 34.081 31.2812 35.0284 31.2812C37.9463 31.2812 40.5882 30.0948 42.4997 28.1778C44.4113 26.2609 45.5942 23.6114 45.5942 20.6852C45.5942 19.7368 45.4691 18.818 45.2373 17.9416L51.2828 16.3198Z" fill="#02AE8C"/>
<path fill-rule="evenodd" clip-rule="evenodd" d="M35.0276 3.81396C36.5343 3.81396 37.9933 4.01323 39.3841 4.38592L37.7633 10.4524C36.8912 10.2181 35.975 10.0945 35.0276 10.0945C32.1097 10.0945 29.4678 11.2808 27.5563 13.1978C25.6448 15.1148 24.4618 17.7643 24.4618 20.6905C24.4618 21.6388 24.5869 22.5577 24.8187 23.434L18.7695 25.0595C18.3979 23.6665 18.1992 22.2016 18.1992 20.6905C18.1992 16.6849 19.5919 13.0041 21.9174 10.1111H21.8953C20.4695 10.1111 19.316 8.95238 19.316 7.52432C19.316 6.09442 20.4713 4.93759 21.8953 4.93759C23.3211 4.93759 24.4747 6.09627 24.4747 7.52432V7.54647C27.3631 5.21065 31.0334 3.81396 35.0276 3.81396Z" fill="#D43831"/>
<path fill-rule="evenodd" clip-rule="evenodd" d="M43.2313 9.56712C40.9389 7.86416 38.1002 6.85677 35.0278 6.85677C33.7933 6.85677 32.5956 7.01913 31.4568 7.32541L29.8359 1.25894C31.4917 0.814289 33.2321 0.578125 35.0278 0.578125C40.5655 0.578125 45.5788 2.82906 49.2068 6.46931C52.8349 10.1096 55.0812 15.1354 55.0812 20.689C55.0812 22.4897 54.8457 24.2351 54.4023 25.8957L48.3532 24.2702C48.6568 23.1281 48.8205 21.927 48.8205 20.689C48.8205 17.6078 47.816 14.7627 46.1179 12.462C45.956 13.7369 44.8724 14.7203 43.5588 14.7203C42.1329 14.7203 40.9794 13.5616 40.9794 12.1336C40.9776 10.8162 41.96 9.72949 43.2313 9.56712Z" fill="#0070B9"/>
<path fill-rule="evenodd" clip-rule="evenodd" d="M38.5994 7.32506C37.4606 7.02063 36.2629 6.85642 35.0284 6.85642C33.794 6.85642 32.5963 7.01879 31.4575 7.32506L30.6719 4.38592C32.0609 4.01323 33.5217 3.81396 35.0284 3.81396C36.5352 3.81396 37.9941 4.01323 39.385 4.38592L38.5994 7.32506Z" fill="#053749"/>
<path fill-rule="evenodd" clip-rule="evenodd" d="M51.2843 25.0579L48.3535 24.2701C48.6571 23.128 48.8208 21.9269 48.8208 20.6889C48.8208 19.4508 48.6589 18.2497 48.3535 17.1077L51.2843 16.3198C51.6559 17.7128 51.8546 19.1778 51.8546 20.6889C51.8546 22.1999 51.6559 23.6649 51.2843 25.0579Z" fill="#05A300"/>
<path fill-rule="evenodd" clip-rule="evenodd" d="M21.2352 20.6886C21.2352 23.0705 21.835 25.3123 22.8928 27.268V32.8584H28.4913C30.5187 33.9655 32.7853 34.5208 35.028 34.5208C36.2624 34.5208 37.4601 34.3585 38.5989 34.0522L40.2198 40.1187C38.564 40.5615 36.8236 40.7995 35.028 40.7995C31.1847 40.7995 28.3478 40.0172 25.0196 38.1205H17.747V30.899C15.9845 27.9064 14.9727 24.4156 14.9727 20.6886C14.9727 18.8879 15.2081 17.1425 15.6515 15.4819L21.7007 17.1074C21.399 18.2495 21.2352 19.4506 21.2352 20.6886ZM28.4618 29.8621C29.8876 29.8621 31.0412 28.7034 31.0412 27.2754C31.0412 25.8455 29.8858 24.6886 28.4618 24.6886C27.036 24.6886 25.8825 25.8473 25.8825 27.2754C25.8806 28.7034 27.036 29.8621 28.4618 29.8621Z" fill="#F0C626"/>
<path fill-rule="evenodd" clip-rule="evenodd" d="M31.4593 34.0469C32.6294 34.3624 33.8326 34.521 35.0284 34.521C36.2629 34.521 37.4606 34.3587 38.5994 34.0524L39.385 36.9915C37.996 37.3642 36.5352 37.5635 35.0284 37.5635C33.5217 37.5635 32.0627 37.3642 30.6719 36.9915L31.4593 34.0469Z" fill="#F53800"/>
<path fill-rule="evenodd" clip-rule="evenodd" d="M21.235 20.6889C21.235 21.9269 21.3969 23.128 21.7023 24.2701L18.7715 25.0579C18.3999 23.6649 18.2012 22.1999 18.2012 20.6889C18.2012 19.1778 18.3999 17.7128 18.7715 16.3198L21.7022 17.1077C21.3987 18.2497 21.235 19.4508 21.235 20.6889Z" fill="#851D6A"/>
<path d="M15.3205 55.5216C13.7567 57.2522 11.365 58.7725 8.35143 58.7725C3.47604 58.7725 0.234375 55.636 0.234375 50.492C0.234375 45.1876 4.21195 42.0049 7.22549 42.0049C9.5252 42.0049 10.5591 43.2964 10.767 43.5732L11.2969 42.2816H14.9065V48.8315H10.7891C10.7192 47.3333 9.9833 45.9256 8.35143 45.9256C6.69564 45.9256 5.61386 47.9772 5.61386 50.492C5.61386 52.7762 6.78763 54.8279 8.97143 54.8279C10.9032 54.8279 12.421 52.7983 12.6289 52.5677L15.3205 55.5216Z" fill="black"/>
<path d="M16.4918 47.8405C17.4117 47.287 19.3894 46.2021 21.5051 46.2021C24.2648 46.2021 27.7383 47.2391 27.7383 50.9531V55.4513H29.1181V58.4033H24.1967L23.6448 57.3664C22.7948 58.5436 21.3672 58.8425 20.5393 58.8425C18.3536 58.8425 16.0098 57.6653 16.0098 54.99C16.0098 52.3849 18.1954 50.7465 20.7932 50.7465C22.1509 50.7465 22.9549 51.4144 23.0708 51.5546V50.7465C23.0708 49.7096 22.1288 49.4549 20.8851 49.4549C19.5274 49.4549 18.3316 50.0306 17.4595 50.5158L16.4918 47.8405ZM23.069 55.0823V54.2059C22.999 54.0915 22.6789 53.538 21.7112 53.538C20.7913 53.538 20.3774 54.0454 20.3774 54.7594C20.3774 55.4052 20.9072 55.8443 21.5953 55.8443C22.2834 55.8443 22.8611 55.4292 23.069 55.0823Z" fill="black"/>
<path d="M30.0369 60.0881H31.0028V49.9404H30.0369V46.874H35.3023L35.6923 47.6821C36.1302 47.3592 37.0942 46.6895 38.4741 46.6895C42.0616 46.6895 43.9014 49.457 43.9014 52.7319C43.9014 56.3999 41.6237 58.6582 38.658 58.6582C36.7484 58.6582 35.8285 57.898 35.6684 57.7578V60.0862H36.9103V63.1084H30.0332V60.0881H30.0369ZM37.304 49.9404C36.4062 49.9404 35.5783 51.0696 35.6703 52.8924C35.6703 54.4607 36.4522 55.66 37.326 55.66C38.2919 55.66 38.9598 54.5308 38.9598 52.7781C38.9598 51.3924 38.3158 49.9404 37.304 49.9404Z" fill="black"/>
<path d="M52.344 58.4037H44.709V55.4295H46.7107L50.0921 51.0236L45.9306 45.2819H44.7347V42.2837H53.8416V45.2819H52.5078L54.7615 48.3483L57.1072 45.2819H55.0834V42.2837H62.7185V45.2819H60.7646L57.2912 49.7321L61.4306 55.4056H62.7645V58.4037H53.5877V55.4056H54.8976L52.6678 52.4074L50.2982 55.4295H52.344V58.4037Z" fill="black"/>
</svg>
