<svg width="63" height="64" viewBox="0 0 63 64" fill="none" xmlns="http://www.w3.org/2000/svg">
<g id="Group">
<g id="Group_2">
<path id="Vector" fill-rule="evenodd" clip-rule="evenodd" d="M51.2828 16.4766C51.6544 17.8696 51.8531 19.3345 51.8531 20.8456C51.8531 24.8512 50.4604 28.532 48.1349 31.425H48.157C49.5828 31.425 50.7364 32.5837 50.7364 34.0118C50.7364 35.4417 49.581 36.5985 48.157 36.5985C46.7312 36.5985 45.5777 35.4398 45.5777 34.0118V33.9896C42.6911 36.3217 39.0226 37.7184 35.0284 37.7184C33.5217 37.7184 32.0627 37.5192 30.6719 37.1465L32.2927 31.08C33.1648 31.3143 34.081 31.4379 35.0284 31.4379C37.9463 31.4379 40.5882 30.2516 42.4997 28.3346C44.4113 26.4176 45.5942 23.7681 45.5942 20.8419C45.5942 19.8936 45.4691 18.9747 45.2373 18.0983L51.2828 16.4766Z" fill="#02AE8C"/>
<path id="Vector_2" fill-rule="evenodd" clip-rule="evenodd" d="M35.0276 3.9707C36.5343 3.9707 37.9933 4.16997 39.3841 4.54266L37.7633 10.6091C36.8912 10.3748 35.975 10.2512 35.0276 10.2512C32.1097 10.2512 29.4678 11.4375 27.5563 13.3545C25.6448 15.2715 24.4618 17.921 24.4618 20.8472C24.4618 21.7956 24.5869 22.7144 24.8187 23.5908L18.7695 25.2163C18.3979 23.8233 18.1992 22.3583 18.1992 20.8472C18.1992 16.8417 19.5919 13.1608 21.9174 10.2678H21.8953C20.4695 10.2678 19.316 9.10912 19.316 7.68106C19.316 6.25116 20.4713 5.09433 21.8953 5.09433C23.3211 5.09433 24.4747 6.25301 24.4747 7.68106V7.7032C27.3631 5.36739 31.0334 3.9707 35.0276 3.9707Z" fill="#D43831"/>
<path id="Vector_3" fill-rule="evenodd" clip-rule="evenodd" d="M43.2313 9.72337C40.9389 8.02041 38.1002 7.01302 35.0278 7.01302C33.7933 7.01302 32.5956 7.17538 31.4568 7.48166L29.8359 1.41519C31.4917 0.970539 33.2321 0.734375 35.0278 0.734375C40.5655 0.734375 45.5788 2.98531 49.2068 6.62556C52.8349 10.2658 55.0812 15.2917 55.0812 20.8452C55.0812 22.646 54.8457 24.3914 54.4023 26.0519L48.3532 24.4264C48.6568 23.2844 48.8205 22.0833 48.8205 20.8452C48.8205 17.764 47.816 14.919 46.1179 12.6182C45.956 13.8931 44.8724 14.8766 43.5588 14.8766C42.1329 14.8766 40.9794 13.7179 40.9794 12.2898C40.9776 10.9725 41.96 9.88574 43.2313 9.72337Z" fill="#0070B9"/>
<path id="Vector_4" fill-rule="evenodd" clip-rule="evenodd" d="M38.5994 7.4818C37.4606 7.17737 36.2629 7.01316 35.0284 7.01316C33.794 7.01316 32.5963 7.17552 31.4575 7.4818L30.6719 4.54266C32.0609 4.16997 33.5217 3.9707 35.0284 3.9707C36.5352 3.9707 37.9941 4.16997 39.385 4.54266L38.5994 7.4818Z" fill="#053749"/>
<path id="Vector_5" fill-rule="evenodd" clip-rule="evenodd" d="M51.2843 25.2146L48.3535 24.4268C48.6571 23.2847 48.8208 22.0836 48.8208 20.8456C48.8208 19.6076 48.6589 18.4065 48.3535 17.2644L51.2843 16.4766C51.6559 17.8696 51.8546 19.3345 51.8546 20.8456C51.8546 22.3567 51.6559 23.8216 51.2843 25.2146Z" fill="#05A300"/>
<path id="Vector_6" fill-rule="evenodd" clip-rule="evenodd" d="M21.2352 20.8453C21.2352 23.2273 21.835 25.469 22.8928 27.4247V33.0152H28.4913C30.5187 34.1222 32.7853 34.6776 35.028 34.6776C36.2624 34.6776 37.4601 34.5152 38.5989 34.2089L40.2198 40.2754C38.564 40.7182 36.8236 40.9562 35.028 40.9562C31.1847 40.9562 28.3478 40.1739 25.0196 38.2772H17.747V31.0558C15.9845 28.0631 14.9727 24.5723 14.9727 20.8454C14.9727 19.0446 15.2081 17.2992 15.6515 15.6387L21.7007 17.2641C21.399 18.4062 21.2352 19.6073 21.2352 20.8453ZM28.4618 30.0189C29.8876 30.0189 31.0412 28.8602 31.0412 27.4321C31.0412 26.0022 29.8858 24.8454 28.4618 24.8454C27.036 24.8454 25.8825 26.0041 25.8825 27.4321C25.8806 28.8602 27.036 30.0189 28.4618 30.0189Z" fill="#F0C626"/>
<path id="Vector_7" fill-rule="evenodd" clip-rule="evenodd" d="M31.4593 34.2031C32.6294 34.5186 33.8326 34.6773 35.0284 34.6773C36.2629 34.6773 37.4606 34.5149 38.5994 34.2087L39.385 37.1478C37.996 37.5205 36.5352 37.7198 35.0284 37.7198C33.5217 37.7198 32.0627 37.5205 30.6719 37.1478L31.4593 34.2031Z" fill="#F53800"/>
<path id="Vector_8" fill-rule="evenodd" clip-rule="evenodd" d="M21.235 20.8456C21.235 22.0836 21.3969 23.2847 21.7023 24.4268L18.7715 25.2146C18.3999 23.8216 18.2012 22.3567 18.2012 20.8456C18.2012 19.3345 18.3999 17.8696 18.7715 16.4766L21.7022 17.2644C21.3987 18.4065 21.235 19.6076 21.235 20.8456Z" fill="#851D6A"/>
</g>
<g id="Group_3">
<path id="Vector_9" d="M15.3205 55.6769C13.7567 57.4075 11.365 58.9278 8.35143 58.9278C3.47604 58.9278 0.234375 55.7913 0.234375 50.6473C0.234375 45.3428 4.21195 42.1602 7.22549 42.1602C9.5252 42.1602 10.5591 43.4517 10.767 43.7284L11.2969 42.4369H14.9065V48.9868H10.7891C10.7192 47.4886 9.9833 46.0809 8.35143 46.0809C6.69564 46.0809 5.61386 48.1325 5.61386 50.6473C5.61386 52.9315 6.78763 54.9831 8.97143 54.9831C10.9032 54.9831 12.421 52.9536 12.6289 52.723L15.3205 55.6769Z" fill="white"/>
<path id="Vector_10" d="M16.4918 47.9958C17.4117 47.4423 19.3894 46.3574 21.5051 46.3574C24.2648 46.3574 27.7383 47.3943 27.7383 51.1084V55.6066H29.1181V58.5586H24.1967L23.6448 57.5217C22.7948 58.6988 21.3672 58.9977 20.5393 58.9977C18.3536 58.9977 16.0098 57.8206 16.0098 55.1453C16.0098 52.5401 18.1954 50.9017 20.7932 50.9017C22.1509 50.9017 22.9549 51.5696 23.0708 51.7099V50.9017C23.0708 49.8648 22.1288 49.6102 20.8851 49.6102C19.5274 49.6102 18.3316 50.1859 17.4595 50.6711L16.4918 47.9958ZM23.069 55.2376V54.3612C22.999 54.2468 22.6789 53.6933 21.7112 53.6933C20.7913 53.6933 20.3774 54.2007 20.3774 54.9147C20.3774 55.5604 20.9072 55.9996 21.5953 55.9996C22.2834 55.9996 22.8611 55.5844 23.069 55.2376Z" fill="white"/>
<path id="Vector_11" d="M30.0369 60.2424H31.0028V50.0947H30.0369V47.0283H35.3023L35.6923 47.8364C36.1302 47.5135 37.0942 46.8438 38.4741 46.8438C42.0616 46.8438 43.9014 49.6113 43.9014 52.8862C43.9014 56.5542 41.6237 58.8125 38.658 58.8125C36.7484 58.8125 35.8285 58.0523 35.6684 57.9121V60.2405H36.9103V63.2627H30.0332V60.2424H30.0369ZM37.304 50.0947C36.4062 50.0947 35.5783 51.2239 35.6703 53.0467C35.6703 54.615 36.4522 55.8143 37.326 55.8143C38.2919 55.8143 38.9598 54.6851 38.9598 52.9324C38.9598 51.5467 38.3158 50.0947 37.304 50.0947Z" fill="white"/>
<path id="Vector_12" d="M52.344 58.5595H44.709V55.5853H46.7107L50.0921 51.1794L45.9306 45.4376H44.7347V42.4395H53.8416V45.4376H52.5078L54.7615 48.5041L57.1072 45.4376H55.0834V42.4395H62.7185V45.4376H60.7646L57.2912 49.8878L61.4306 55.5613H62.7645V58.5595H53.5877V55.5613H54.8976L52.6678 52.5631L50.2982 55.5853H52.344V58.5595Z" fill="white"/>
</g>
</g>
</svg>
