<svg width="305" height="238" viewBox="0 0 305 238" fill="none" xmlns="http://www.w3.org/2000/svg">
<g clip-path="url(#clip0_13414_3461)">
<path d="M118.68 200.292H264.586C274.97 200.292 283.4 208.74 283.4 219.146C283.4 229.552 274.97 238 264.586 238H118.68V200.292Z" fill="#00384A"/>
<path d="M135.649 237.55L10.4527 236.677L10.7187 198.349L135.915 199.222C146.469 199.295 154.978 207.942 154.905 218.519C154.831 229.096 146.203 237.623 135.649 237.55Z" fill="#00384A"/>
<mask id="mask0_13414_3461" style="mask-type:luminance" maskUnits="userSpaceOnUse" x="10" y="198" width="145" height="40">
<path d="M135.649 237.55L10.4527 236.677L10.7187 198.349L135.915 199.222C146.469 199.295 154.978 207.942 154.905 218.519C154.831 229.096 146.203 237.623 135.649 237.55Z" fill="white"/>
</mask>
<g mask="url(#mask0_13414_3461)">
<path d="M144.925 201.755C143.807 201.767 143.807 201.732 142.689 201.743C141.571 201.755 141.569 201.546 140.451 201.557C139.332 201.569 139.335 201.895 138.217 201.907C137.099 201.918 137.098 201.867 135.98 201.878C134.861 201.89 134.859 201.609 133.74 201.621C132.622 201.632 132.621 201.47 131.503 201.482C130.384 201.494 130.385 201.589 129.267 201.601C128.149 201.612 128.147 201.459 127.029 201.471C125.91 201.482 125.912 201.664 124.794 201.676C123.675 201.687 123.679 202.065 122.561 202.077C121.443 202.088 121.442 201.979 120.324 201.99C119.205 202.002 119.205 201.994 118.087 202.006C116.968 202.017 116.968 201.949 115.849 201.961C114.731 201.972 114.729 201.823 113.611 201.835C112.493 201.846 112.495 201.991 111.377 202.002C110.26 202.014 110.261 202.051 109.144 202.062C108.027 202.074 108.026 201.992 106.909 202.004C105.792 202.016 105.79 201.845 104.673 201.856C103.555 201.868 103.554 201.765 102.437 201.777C101.318 201.788 101.319 201.836 100.2 201.848C99.0819 201.859 99.0859 202.248 97.9674 202.26C96.8496 202.271 96.8478 202.094 95.73 202.105C94.6125 202.117 94.6132 202.187 93.4958 202.199C92.3783 202.21 92.3789 202.271 91.2614 202.282C90.1435 202.294 90.1437 202.309 89.0257 202.321C87.907 202.332 87.904 202.034 86.7853 202.046C85.6668 202.057 85.669 202.269 84.5505 202.28C83.4326 202.292 83.4307 202.107 82.3127 202.118C81.1949 202.13 81.1961 202.25 80.0783 202.261C78.96 202.273 78.9591 202.193 77.8408 202.204C76.7217 202.216 76.72 202.056 75.6009 202.067C74.4826 202.079 74.4837 202.187 73.3653 202.199C72.2472 202.21 72.2506 202.536 71.1324 202.547C70.0138 202.559 70.0113 202.317 68.8927 202.329C67.7738 202.34 67.7758 202.539 66.6569 202.55C65.5385 202.562 65.539 202.617 64.4206 202.629C63.302 202.64 63.2994 202.384 62.1807 202.396C61.0616 202.408 61.0647 202.71 59.9457 202.722C58.8271 202.733 58.8254 202.571 57.7068 202.582C56.5877 202.594 56.5871 202.531 55.4679 202.542C54.3491 202.554 54.3499 202.628 53.2311 202.639C52.112 202.651 52.1119 202.64 50.9929 202.651C49.8739 202.663 49.8728 202.557 48.7539 202.569C47.6346 202.58 47.6327 202.401 46.5134 202.412C45.3944 202.424 45.3935 202.337 44.2745 202.348C43.1552 202.36 43.1557 202.403 42.0363 202.414C40.9186 202.426 40.9198 202.542 39.8021 202.553C38.683 202.565 38.6838 202.64 37.5648 202.651C36.4464 202.663 36.4493 202.947 35.3309 202.959C34.2114 202.97 34.2112 202.946 33.0917 202.957C31.973 202.969 31.9699 202.669 30.8511 202.681C29.7318 202.692 29.7304 202.562 28.6111 202.574C27.4913 202.586 27.4917 202.632 26.3719 202.643C25.2521 202.655 25.2509 202.537 24.1311 202.549C23.0112 202.56 23.0168 203.099 21.8969 203.11C20.7774 203.122 20.7752 202.908 19.6557 202.919C18.536 202.931 18.5361 202.937 17.4164 202.949C16.2958 202.96 16.293 202.688 15.1723 202.7C14.0509 202.712 14.0548 203.087 12.9333 203.099C11.8119 203.11 11.8109 203.008 10.6895 203.019" stroke="#F6B1B4" stroke-width="1.1253" stroke-miterlimit="10"/>
<path d="M149.934 208.114C148.811 208.126 148.808 207.812 147.685 207.824C146.563 207.835 146.564 207.994 145.442 208.005C144.319 208.017 144.318 207.908 143.195 207.919C142.072 207.931 142.071 207.756 140.948 207.767C139.825 207.779 139.825 207.85 138.702 207.862C137.579 207.873 137.581 208.03 136.458 208.041C135.335 208.053 135.335 208.049 134.212 208.061C133.089 208.072 133.091 208.262 131.968 208.274C130.846 208.285 130.843 207.998 129.72 208.01C128.597 208.021 128.597 207.994 127.473 208.005C126.35 208.017 126.351 208.064 125.228 208.076C124.105 208.087 124.103 207.924 122.98 207.935C121.857 207.947 121.859 208.155 120.737 208.167C119.614 208.178 119.611 207.914 118.488 207.926C117.365 207.938 117.365 207.987 116.242 207.998C115.119 208.01 115.123 208.411 114 208.422C112.878 208.434 112.875 208.174 111.753 208.186C110.631 208.197 110.635 208.524 109.513 208.535C108.391 208.547 108.39 208.369 107.268 208.38C106.146 208.392 106.147 208.516 105.026 208.527C103.903 208.539 103.898 208.011 102.776 208.023C101.653 208.034 101.655 208.266 100.532 208.277C99.4088 208.289 99.4098 208.382 98.2866 208.393C97.1642 208.405 97.1656 208.55 96.0432 208.562C94.921 208.574 94.9194 208.417 93.7973 208.429C92.6751 208.44 92.6755 208.476 91.5533 208.488C90.4308 208.499 90.4273 208.162 89.3047 208.174C88.1814 208.186 88.1868 208.715 87.0634 208.727C85.9403 208.738 85.9401 208.719 84.817 208.73C83.6944 208.742 83.6914 208.454 82.5688 208.465C81.4463 208.477 81.447 208.548 80.3245 208.559C79.2015 208.571 79.2029 208.699 78.0799 208.71C76.9561 208.722 76.9546 208.574 75.8307 208.586C74.7077 208.597 74.7062 208.449 73.5832 208.461C72.4604 208.472 72.4632 208.745 71.3404 208.756C70.2171 208.768 70.2131 208.377 69.0899 208.389C67.9662 208.4 67.967 208.477 66.8434 208.488C65.7203 208.5 65.7232 208.779 64.6002 208.79C63.4768 208.802 63.4754 208.663 62.3521 208.674C61.2283 208.686 61.2274 208.595 60.1036 208.606C58.9804 208.618 58.9824 208.81 57.8591 208.822C56.7353 208.833 56.7363 208.922 55.6125 208.934C54.489 208.945 54.4872 208.771 53.3637 208.783C52.24 208.794 52.2416 208.951 51.1179 208.962C49.9943 208.974 49.9917 208.722 48.868 208.734C47.7441 208.746 47.7465 208.982 46.6226 208.993C45.4989 209.005 45.4978 208.898 44.3741 208.91C43.2501 208.921 43.2474 208.659 42.1234 208.671C41.0011 208.682 41.0018 208.752 39.8794 208.763C38.7557 208.775 38.759 209.096 37.6353 209.107C36.5122 209.119 36.5097 208.878 35.3867 208.89C34.2625 208.901 34.2653 209.167 33.1411 209.178C32.0177 209.19 32.0161 209.032 30.8926 209.043C29.7686 209.055 29.77 209.186 28.646 209.197C27.5215 209.209 27.5184 208.911 26.3939 208.923C25.2694 208.934 25.2728 209.262 24.1483 209.274C23.0238 209.285 23.0246 209.362 21.9001 209.374C20.7759 209.385 20.7755 209.348 19.6513 209.36C18.527 209.371 18.5232 209.001 17.3988 209.013C16.2735 209.024 16.2739 209.06 15.1485 209.072C14.0224 209.084 14.0265 209.475 12.9004 209.487C11.7743 209.498 11.7706 209.144 10.6445 209.155" stroke="#F6B1B4" stroke-width="1.1253" stroke-miterlimit="10"/>
<path d="M153.029 212.855C151.917 212.881 151.921 213.056 150.808 213.082C149.696 213.108 149.694 213.049 148.582 213.075C147.469 213.102 147.47 213.119 146.358 213.145C145.245 213.171 145.247 213.24 144.135 213.266C143.023 213.293 143.026 213.439 141.914 213.465C140.802 213.491 140.792 213.09 139.68 213.116C138.567 213.142 138.569 213.209 137.456 213.235C136.344 213.261 136.344 213.295 135.232 213.321C134.12 213.347 134.117 213.239 133.005 213.266C131.892 213.292 131.895 213.387 130.782 213.413C129.67 213.439 129.668 213.346 128.556 213.372C127.443 213.398 127.451 213.755 126.339 213.781C125.226 213.807 125.214 213.308 124.102 213.334C122.989 213.36 123.001 213.862 121.889 213.888C120.776 213.914 120.773 213.792 119.661 213.818C118.549 213.845 118.545 213.695 117.433 213.721C116.32 213.747 116.321 213.784 115.208 213.81C114.095 213.836 114.095 213.804 112.982 213.83C111.87 213.856 111.877 214.122 110.765 214.148C109.654 214.174 109.642 213.658 108.531 213.684C107.419 213.71 107.42 213.738 106.309 213.764C105.198 213.79 105.206 214.137 104.094 214.163C103.353 214.181 102.612 214.199 101.871 214.217C100.758 214.244 100.752 213.965 99.6394 213.991C98.5267 214.017 98.5279 214.069 97.4153 214.095C96.3033 214.121 96.3014 214.042 95.1894 214.068C94.0778 214.094 94.0788 214.137 92.9671 214.163C91.8555 214.19 91.8652 214.605 90.7535 214.631C89.6414 214.657 89.642 214.681 88.5299 214.707C87.417 214.733 87.409 214.392 86.2962 214.418C85.1835 214.444 85.1871 214.596 84.0744 214.622C82.9623 214.648 82.9608 214.583 81.8487 214.609C80.7367 214.635 80.7301 214.356 79.6181 214.382C78.5056 214.408 78.5159 214.849 77.4035 214.875C76.2902 214.901 76.2809 214.506 75.1676 214.532C74.0551 214.558 74.061 214.809 72.9485 214.835C71.8361 214.862 71.8388 214.974 70.7265 215C69.6137 215.026 69.6064 214.713 68.4936 214.739C67.3805 214.765 67.3808 214.78 66.2677 214.806C65.1551 214.832 65.1528 214.733 64.0402 214.759C62.9274 214.785 62.9302 214.903 61.8174 214.93C60.7041 214.956 60.7048 214.986 59.5915 215.012C58.4788 215.038 58.4819 215.171 57.3692 215.197C56.2559 215.223 56.252 215.058 55.1387 215.084C54.0257 215.11 54.0238 215.028 52.9108 215.054C51.7976 215.08 51.8012 215.234 50.688 215.26C49.5749 215.286 49.5814 215.563 48.4682 215.59C47.3548 215.616 47.3536 215.565 46.2401 215.591C45.127 215.618 45.1301 215.75 44.0169 215.776C42.9034 215.803 42.9005 215.68 41.787 215.706C40.6752 215.733 40.6701 215.518 39.5582 215.544C38.445 215.57 38.4473 215.666 37.3341 215.693C36.2215 215.719 36.2156 215.467 35.103 215.493C33.9894 215.519 33.995 215.758 32.8814 215.785C31.7684 215.811 31.764 215.621 30.651 215.647C29.5375 215.673 29.5348 215.558 28.4213 215.584C27.3074 215.61 27.316 215.979 26.202 216.005C25.088 216.031 25.0876 216.012 23.9736 216.038C22.8596 216.064 22.8636 216.237 21.7496 216.264C20.6359 216.29 20.6328 216.157 19.5191 216.183C18.4053 216.209 18.3967 215.842 17.2829 215.868C16.1681 215.894 16.1786 216.345 15.0638 216.372C13.9482 216.398 13.9399 216.042 12.8243 216.068C11.7088 216.094 11.7132 216.285 10.5977 216.311" stroke="#F6B1B4" stroke-width="1.1253" stroke-miterlimit="10"/>
<path d="M153.953 218.889C152.84 218.915 152.838 218.829 151.726 218.855C150.613 218.881 150.606 218.568 149.493 218.595C148.381 218.621 148.381 218.607 147.268 218.634C146.156 218.66 146.158 218.716 145.045 218.743C143.933 218.769 143.932 218.72 142.82 218.746C141.708 218.773 141.711 218.908 140.598 218.934C139.486 218.96 139.486 218.952 138.373 218.979C137.26 219.005 137.262 219.058 136.149 219.084C135.037 219.11 135.032 218.908 133.92 218.934C132.807 218.96 132.807 218.955 131.695 218.981C130.583 219.007 130.581 218.932 129.469 218.958C128.356 218.985 128.356 218.977 127.243 219.003C126.131 219.029 126.143 219.569 125.031 219.595C123.918 219.621 123.911 219.324 122.799 219.35C121.686 219.376 121.689 219.468 120.576 219.494C119.464 219.52 119.458 219.283 118.346 219.309C117.233 219.335 117.233 219.351 116.12 219.377C115.008 219.403 115.014 219.674 113.902 219.701C112.79 219.727 112.782 219.375 111.67 219.401C110.559 219.427 110.563 219.59 109.452 219.616C108.341 219.642 108.34 219.621 107.229 219.647C106.118 219.673 106.114 219.52 105.003 219.546C103.891 219.572 103.895 219.756 102.784 219.782C101.671 219.808 101.669 219.71 100.556 219.736C99.4435 219.762 99.4496 220.023 98.3369 220.049C97.2249 220.075 97.2283 220.22 96.1163 220.246C95.0047 220.272 95.0002 220.08 93.8885 220.106C92.7769 220.132 92.7686 219.78 91.6569 219.806C90.5449 219.833 90.5499 220.047 89.4378 220.073C88.3249 220.099 88.3312 220.366 87.2183 220.392C86.1057 220.418 86.1007 220.207 84.9881 220.233C83.876 220.259 83.8773 220.316 82.7652 220.342C81.6532 220.368 81.6528 220.351 80.5407 220.377C79.4283 220.403 79.4341 220.654 78.3217 220.681C77.2084 220.707 77.2031 220.483 76.0898 220.509C74.9773 220.535 74.982 220.734 73.8694 220.76C72.7571 220.786 72.7446 220.249 71.6322 220.275C70.5195 220.301 70.5222 220.416 69.4094 220.442C68.2963 220.469 68.2989 220.583 67.1858 220.609C66.0733 220.635 66.07 220.497 64.9575 220.523C63.8446 220.549 63.856 221.035 62.7432 221.061C61.6299 221.087 61.6214 220.724 60.5082 220.75C59.3954 220.777 59.4016 221.039 58.2888 221.065C57.1755 221.091 57.1694 220.827 56.0561 220.854C54.9431 220.88 54.9444 220.935 53.8314 220.961C52.7182 220.987 52.7176 220.961 51.6044 220.988C50.4912 221.014 50.4919 221.042 49.3788 221.068C48.2653 221.094 48.2659 221.117 47.1524 221.143C46.0392 221.17 46.0446 221.399 44.9314 221.425C43.8179 221.451 43.817 221.413 42.7035 221.439C41.5916 221.465 41.585 221.183 40.4731 221.209C39.3599 221.235 39.3672 221.547 38.2541 221.573C37.1415 221.599 37.1428 221.655 36.0302 221.682C34.9166 221.708 34.9168 221.718 33.8032 221.744C32.6902 221.77 32.6901 221.763 31.5771 221.789C30.4636 221.815 30.4521 221.322 29.3386 221.348C28.2246 221.374 28.2355 221.842 27.1216 221.868C26.0076 221.895 26.0064 221.843 24.8924 221.869C23.7784 221.895 23.7761 221.8 22.6621 221.826C21.5485 221.852 21.5445 221.683 20.4308 221.709C19.317 221.736 19.3154 221.668 18.2016 221.694C17.0868 221.72 17.0909 221.899 15.9761 221.925C14.8605 221.951 14.8561 221.76 13.7405 221.786C12.6249 221.812 12.6273 221.913 11.5117 221.94" stroke="#F6B1B4" stroke-width="1.1253" stroke-miterlimit="10"/>
<path d="M153.905 225.33C152.793 225.356 152.787 225.113 151.674 225.139C150.562 225.165 150.569 225.487 149.457 225.513C148.345 225.54 148.343 225.48 147.231 225.507C146.119 225.533 146.115 225.38 145.003 225.406C143.891 225.432 143.887 225.27 142.775 225.296C141.663 225.322 141.667 225.511 140.555 225.537C139.442 225.564 139.438 225.396 138.325 225.423C137.213 225.449 137.224 225.913 136.111 225.939C134.999 225.966 134.993 225.717 133.881 225.743C132.768 225.769 132.762 225.486 131.65 225.512C130.537 225.538 130.538 225.561 129.425 225.588C128.313 225.614 128.312 225.576 127.199 225.602C126.087 225.628 126.099 226.158 124.986 226.184C123.874 226.21 123.865 225.832 122.753 225.858C121.64 225.884 121.641 225.926 120.529 225.953C119.417 225.979 119.419 226.086 118.307 226.112C117.194 226.138 117.188 225.903 116.075 225.929C114.963 225.956 114.962 225.897 113.849 225.923C112.737 225.949 112.742 226.135 111.63 226.161C110.519 226.187 110.526 226.468 109.414 226.495C108.303 226.521 108.3 226.395 107.189 226.421C106.078 226.447 106.075 226.338 104.964 226.365C103.852 226.391 103.85 226.308 102.739 226.335C101.626 226.361 101.632 226.619 100.519 226.645C99.4068 226.671 99.4036 226.535 98.2909 226.561C97.179 226.587 97.1807 226.66 96.0687 226.686C94.957 226.712 94.949 226.367 93.8373 226.393C92.7256 226.42 92.725 226.39 91.6133 226.417C90.5012 226.443 90.502 226.478 89.39 226.504C88.2771 226.53 88.2806 226.681 87.1677 226.707C86.0551 226.734 86.0545 226.707 84.9418 226.733C83.8297 226.76 83.8303 226.785 82.7182 226.811C81.6062 226.837 81.6084 226.933 80.4964 226.959C79.3839 226.985 79.3817 226.89 78.2692 226.917C77.1559 226.943 77.154 226.859 76.0407 226.886C74.9282 226.912 74.9338 227.155 73.8213 227.181C72.709 227.207 72.7094 227.223 71.5971 227.249C70.4843 227.275 70.4782 227.012 69.3654 227.038C68.2523 227.064 68.2581 227.312 67.1449 227.339C66.0324 227.365 66.032 227.347 64.9194 227.373C63.8066 227.399 63.8076 227.443 62.6948 227.47C61.5815 227.496 61.5741 227.179 60.4609 227.205C59.3481 227.231 59.3564 227.584 58.2436 227.61C57.1303 227.636 57.1275 227.515 56.0142 227.541C54.9012 227.568 54.8963 227.357 53.7833 227.383C52.6701 227.409 52.6725 227.513 51.5593 227.539C50.4462 227.565 50.4445 227.492 49.3313 227.518C48.2179 227.544 48.2158 227.455 47.1024 227.481C45.9892 227.508 45.9994 227.944 44.8862 227.97C43.7727 227.996 43.7619 227.535 42.6484 227.561C41.5365 227.587 41.5383 227.664 40.4264 227.69C39.3133 227.716 39.3249 228.215 38.2117 228.241C37.0992 228.268 37.0988 228.254 35.9863 228.28C34.8726 228.306 34.8725 228.301 33.7589 228.327C32.6459 228.353 32.637 227.971 31.524 227.997C30.4105 228.023 30.4194 228.402 29.3059 228.428C28.1919 228.454 28.1858 228.195 27.0719 228.221C25.9579 228.248 25.9536 228.063 24.8396 228.089C23.7256 228.116 23.7272 228.183 22.6131 228.209C21.4995 228.235 21.5068 228.55 20.3931 228.576C19.2793 228.602 19.2683 228.133 18.1545 228.16C17.0397 228.186 17.0474 228.513 15.9325 228.54C14.817 228.566 14.8122 228.364 13.6967 228.39C12.5811 228.416 12.5785 228.304 11.4629 228.33" stroke="#F6B1B4" stroke-width="1.1253" stroke-miterlimit="10"/>
<path d="M150.49 230.536C149.379 230.562 149.372 230.263 148.261 230.289C147.15 230.316 147.157 230.604 146.046 230.63C144.936 230.656 144.929 230.381 143.819 230.407C142.708 230.433 142.711 230.568 141.601 230.594C140.49 230.62 140.492 230.723 139.382 230.749C138.271 230.775 138.263 230.437 137.152 230.463C136.041 230.489 136.038 230.36 134.927 230.386C133.816 230.412 133.821 230.639 132.711 230.665C131.6 230.691 131.599 230.669 130.489 230.695C129.378 230.721 129.383 230.94 128.272 230.966C127.161 230.993 127.164 231.084 126.053 231.11C124.942 231.137 124.937 230.925 123.825 230.952C122.715 230.978 122.716 231.025 121.605 231.051C120.494 231.077 120.498 231.249 119.387 231.275C118.277 231.301 118.266 230.828 117.155 230.854C116.043 230.881 116.055 231.378 114.944 231.404C113.833 231.431 113.825 231.098 112.714 231.124C111.604 231.15 111.609 231.354 110.499 231.38C109.389 231.406 109.39 231.45 108.281 231.476C107.171 231.502 107.167 231.326 106.058 231.352C104.948 231.378 104.944 231.226 103.835 231.252C102.724 231.278 102.728 231.444 101.618 231.471C100.507 231.497 100.507 231.484 99.396 231.51C98.2849 231.536 98.2867 231.614 97.1757 231.64C96.0653 231.666 96.061 231.482 94.9506 231.508C93.8405 231.534 93.8378 231.417 92.7277 231.443C91.6176 231.469 91.6217 231.642 90.5116 231.669C89.4011 231.695 89.4078 231.981 88.2974 232.007C87.1861 232.033 87.1867 232.061 86.0755 232.087C84.9644 232.113 84.9539 231.663 83.8428 231.689C82.7323 231.715 82.7374 231.932 81.6269 231.959C80.5165 231.985 80.517 232.007 79.4066 232.033C78.2957 232.059 78.29 231.817 77.1791 231.843C76.0674 231.869 76.067 231.852 74.9553 231.878C73.8444 231.905 73.8551 232.36 72.7442 232.386C71.6334 232.413 71.6218 231.915 70.5111 231.941C69.3999 231.967 69.409 232.357 68.2979 232.383C67.1863 232.409 67.1852 232.362 66.0737 232.388C64.9627 232.414 64.9619 232.377 63.8509 232.403C62.7397 232.43 62.7322 232.111 61.621 232.137C60.5093 232.163 60.514 232.363 59.4024 232.389C58.2912 232.415 58.2978 232.698 57.1867 232.724C56.075 232.75 56.0754 232.768 54.9637 232.794C53.8523 232.82 53.844 232.462 52.7326 232.489C51.9915 232.506 51.2504 232.524 50.5094 232.541C49.3978 232.567 49.4023 232.757 48.2907 232.783C47.1789 232.809 47.178 232.771 46.0661 232.798C44.9546 232.824 44.9487 232.575 43.8372 232.602C42.7253 232.628 42.7281 232.748 41.6162 232.774C40.5059 232.8 40.5112 233.025 39.4009 233.051C38.2893 233.077 38.279 232.639 37.1674 232.665C36.0564 232.691 36.0606 232.869 34.9496 232.895C33.8376 232.921 33.834 232.768 32.722 232.794C31.6106 232.82 31.6168 233.086 30.5055 233.112C29.3936 233.138 29.3956 233.226 28.2837 233.252C27.1714 233.279 27.1649 233.002 26.0525 233.029C24.9401 233.055 24.9505 233.499 23.8381 233.525C22.7257 233.551 22.7218 233.382 21.6094 233.409C20.4973 233.435 20.4963 233.391 19.3842 233.417C18.272 233.444 18.2697 233.349 17.1575 233.375C16.0443 233.401 16.0412 233.269 14.928 233.296C13.814 233.322 13.8228 233.697 12.7088 233.723C11.5949 233.749 11.5847 233.314 10.4707 233.34" stroke="#F6B1B4" stroke-width="1.1253" stroke-miterlimit="10"/>
<path d="M150.359 235.502C149.248 235.529 149.258 235.947 148.147 235.973C147.036 235.999 147.024 235.504 145.914 235.531C144.803 235.557 144.808 235.742 143.697 235.768C142.586 235.794 142.593 236.077 141.482 236.103C140.372 236.129 140.368 235.954 139.257 235.98C138.146 236.006 138.15 236.205 137.039 236.231C135.928 236.257 135.921 235.959 134.81 235.985C133.7 236.011 133.706 236.271 132.595 236.297C131.484 236.323 131.479 236.1 130.369 236.126C129.258 236.152 129.257 236.117 128.146 236.143C127.035 236.169 127.043 236.486 125.932 236.512C124.821 236.538 124.811 236.112 123.7 236.138C122.589 236.164 122.589 236.19 121.479 236.216C120.368 236.242 120.369 236.279 119.258 236.305C118.147 236.331 118.15 236.449 117.039 236.475C115.928 236.501 115.928 236.533 114.817 236.559C113.706 236.585 113.703 236.428 112.592 236.454C111.482 236.48 111.486 236.679 110.376 236.705C109.267 236.731 109.269 236.839 108.16 236.865C107.05 236.891 107.045 236.666 105.935 236.692C104.826 236.718 104.824 236.658 103.714 236.684C102.604 236.71 102.604 236.69 101.494 236.716C100.383 236.743 100.392 237.133 99.2809 237.16C98.1699 237.186 98.1638 236.925 97.0527 236.952C95.9423 236.978 95.9351 236.669 94.8247 236.695C93.7146 236.721 93.7243 237.135 92.6143 237.161C91.5042 237.187 91.4983 236.936 90.3882 236.962C89.2778 236.988 89.2786 237.026 88.1682 237.052C87.0569 237.078 87.0621 237.301 85.9508 237.327C84.8398 237.353 84.8419 237.445 83.7309 237.471C82.6204 237.497 82.6136 237.209 81.5031 237.235C80.3927 237.261 80.3933 237.286 79.2828 237.312C78.172 237.338 78.179 237.638 77.0681 237.664C75.9564 237.69 75.9542 237.598 74.8425 237.625C73.7316 237.651 73.7331 237.716 72.6222 237.742C71.5115 237.768 71.5101 237.708 70.3994 237.734C69.2882 237.76 69.2812 237.46 68.17 237.486C67.0585 237.512 67.0625 237.683 65.951 237.709C64.84 237.735 64.8375 237.628 63.7265 237.654C62.6153 237.68 62.6199 237.874 61.5086 237.9C60.397 237.927 60.3961 237.889 59.2844 237.915C58.1733 237.941 58.1678 237.705 57.0566 237.731C55.9449 237.757 55.9432 237.686 54.8315 237.712C53.7202 237.738 53.7275 238.05 52.6161 238.076C51.5045 238.102 51.5063 238.182 50.3947 238.208C49.2832 238.234 49.2815 238.162 48.17 238.189C47.0581 238.215 47.0507 237.896 45.9388 237.923C44.8272 237.949 44.8293 238.038 43.7178 238.064C42.6059 238.09 42.6068 238.129 41.4949 238.155C40.3846 238.181 40.3825 238.094 39.2722 238.12C38.1606 238.146 38.1711 238.595 37.0595 238.621C35.9486 238.647 35.9407 238.311 34.8297 238.337C33.7177 238.363 33.7256 238.703 32.6136 238.729C31.5023 238.755 31.4895 238.209 30.3781 238.236C29.2662 238.262 29.2659 238.249 28.154 238.276C27.0417 238.302 27.053 238.787 25.9406 238.813C24.8282 238.839 24.823 238.616 23.7106 238.642C22.5982 238.668 22.5996 238.727 21.4872 238.753C20.3751 238.779 20.3757 238.805 19.2636 238.831C18.1514 238.857 18.1451 238.59 17.0329 238.616C15.9197 238.642 15.9257 238.899 14.8125 238.926C13.6985 238.952 13.6982 238.939 12.5843 238.965C11.4703 238.992 11.4694 238.955 10.3555 238.981" stroke="#F6B1B4" stroke-width="1.1253" stroke-miterlimit="10"/>
</g>
<path d="M176.564 200.422L17.8433 199.644C7.91994 199.575 -0.0685906 191.457 0.000444083 181.512C0.0694788 171.567 8.16994 163.561 18.0933 163.63L176.814 164.408L176.564 200.422Z" fill="#E40524"/>
<path d="M176.814 201.089L17.9738 199.525C8.04716 199.525 3.14011e-07 191.46 0 181.512C-3.14011e-07 171.564 8.04716 163.499 17.9738 163.499L176.814 165.063V201.089Z" fill="url(#paint0_linear_13414_3461)"/>
<path d="M274.812 165.968L169.319 164.222C160.42 164.075 153.106 172.535 152.982 183.118C152.858 193.701 160.484 200.605 169.383 200.752L274.363 201.932L274.812 165.968Z" fill="#851970"/>
<mask id="mask1_13414_3461" style="mask-type:luminance" maskUnits="userSpaceOnUse" x="152" y="164" width="123" height="38">
<path d="M274.812 165.968L169.319 164.222C160.42 164.075 153.106 172.535 152.982 183.118C152.858 193.701 160.484 200.605 169.383 200.752L274.363 201.932L274.812 165.968Z" fill="white"/>
</mask>
<g mask="url(#mask1_13414_3461)">
<path d="M161.297 200.335C162.405 200.331 162.405 200.157 163.513 200.153C164.622 200.148 164.622 200.134 165.73 200.13C166.839 200.125 166.838 199.893 167.947 199.889C169.056 199.884 169.056 200.044 170.165 200.04C171.274 200.035 171.274 199.96 172.383 199.956C173.49 199.951 173.491 200.038 174.598 200.034C175.706 200.029 175.706 199.979 176.813 199.974C177.92 199.97 177.921 200.109 179.028 200.104C180.136 200.1 180.136 200.092 181.243 200.088C182.351 200.083 182.35 199.807 183.458 199.802C184.567 199.798 184.568 200.102 185.677 200.098C186.786 200.093 186.786 200.163 187.895 200.159C189.003 200.154 189.003 200.144 190.111 200.139C191.219 200.135 191.219 200.106 192.327 200.102C193.434 200.098 193.435 200.125 194.542 200.121C195.651 200.116 195.65 199.834 196.758 199.829C197.867 199.825 197.867 199.792 198.976 199.787C200.085 199.783 200.085 199.863 201.194 199.858C202.302 199.854 202.302 199.733 203.41 199.729C204.518 199.724 204.519 200.038 205.628 200.034C206.736 200.029 206.736 199.998 207.845 199.994C208.954 199.989 208.954 200.028 210.064 200.023C211.173 200.019 211.173 200.125 212.282 200.12C213.39 200.116 213.389 199.721 214.497 199.716C215.606 199.712 215.607 199.842 216.716 199.837C217.825 199.833 217.825 199.971 218.935 199.967C220.043 199.962 220.043 199.885 221.152 199.881C222.261 199.876 222.26 199.735 223.369 199.73C224.479 199.726 224.481 200.167 225.59 200.162C226.699 200.158 226.698 199.834 227.807 199.83C228.916 199.825 228.915 199.625 230.025 199.62C231.134 199.616 231.135 199.917 232.244 199.913C233.354 199.909 233.352 199.582 234.462 199.577C235.571 199.573 235.573 200.045 236.682 200.04C237.792 200.036 237.79 199.583 238.9 199.578C240.009 199.574 240.01 199.881 241.12 199.876C242.229 199.872 242.229 199.897 243.339 199.893C244.447 199.889 244.448 200.119 245.556 200.115C246.666 200.11 246.665 200.06 247.775 200.056C248.884 200.051 248.882 199.597 249.99 199.593C251.1 199.588 251.102 200.036 252.212 200.032C253.321 200.027 253.32 199.751 254.429 199.746C255.539 199.742 255.538 199.499 256.647 199.495C257.758 199.49 257.758 199.682 258.869 199.677C259.979 199.673 259.979 199.642 261.089 199.638C262.199 199.634 262.199 199.592 263.309 199.588C264.419 199.584 264.418 199.488 265.528 199.484C266.638 199.48 266.64 199.806 267.75 199.802C268.861 199.798 268.86 199.686 269.971 199.682C271.083 199.678 271.084 200.01 272.196 200.006C273.308 200.001 273.307 199.704 274.418 199.7" stroke="#F6B1B4" stroke-width="1.1253" stroke-miterlimit="10"/>
<path d="M157.113 194.035C158.22 194.031 158.22 194.022 159.327 194.018C160.435 194.013 160.434 193.857 161.541 193.853C162.648 193.848 162.648 193.734 163.755 193.73C164.861 193.726 164.861 193.683 165.968 193.679C167.075 193.674 167.075 193.6 168.182 193.596C169.289 193.592 169.29 193.876 170.397 193.872C171.504 193.867 171.504 193.813 172.611 193.809C173.717 193.804 173.716 193.678 174.822 193.673C175.928 193.669 175.927 193.51 177.033 193.505C178.139 193.501 178.139 193.66 179.245 193.656C180.351 193.651 180.352 194.031 181.458 194.027C182.564 194.022 182.563 193.598 183.669 193.593C184.776 193.589 184.776 193.68 185.883 193.676C186.991 193.671 186.992 193.957 188.099 193.953C189.205 193.949 189.204 193.486 190.31 193.481C191.416 193.477 191.418 193.803 192.524 193.798C193.63 193.794 193.63 193.826 194.736 193.822C195.843 193.817 195.843 193.901 196.95 193.897C198.057 193.892 198.056 193.496 199.163 193.491C200.27 193.487 200.27 193.455 201.377 193.451C202.484 193.446 202.485 193.678 203.591 193.674C204.698 193.669 204.699 193.927 205.805 193.922C206.912 193.918 206.911 193.467 208.018 193.462C209.125 193.458 209.126 193.671 210.234 193.667C211.341 193.662 211.341 193.557 212.448 193.552C213.554 193.548 213.556 193.855 214.662 193.851C215.77 193.847 215.769 193.545 216.876 193.54C217.983 193.536 217.984 193.755 219.092 193.751C220.199 193.746 220.197 193.347 221.305 193.343C222.412 193.338 222.412 193.422 223.519 193.417C224.627 193.413 224.628 193.71 225.736 193.706C226.843 193.702 226.843 193.566 227.95 193.561C229.058 193.557 229.058 193.547 230.166 193.543C231.273 193.539 231.273 193.386 232.38 193.382C233.488 193.377 233.488 193.422 234.596 193.418C235.703 193.413 235.704 193.501 236.811 193.496C237.919 193.492 237.919 193.507 239.027 193.502C240.135 193.498 240.134 193.306 241.242 193.302C242.35 193.298 242.35 193.271 243.458 193.267C244.564 193.262 244.564 193.346 245.671 193.341C246.779 193.337 246.779 193.467 247.887 193.462C248.994 193.458 248.994 193.541 250.101 193.536C251.209 193.532 251.209 193.315 252.317 193.311C253.424 193.306 253.424 193.283 254.532 193.279C255.64 193.275 255.639 193.164 256.747 193.159C257.856 193.155 257.857 193.43 258.965 193.425C260.074 193.421 260.075 193.677 261.183 193.672C262.292 193.668 262.291 193.578 263.4 193.573C264.508 193.569 264.508 193.614 265.616 193.609C266.725 193.605 266.723 193.237 267.832 193.233C268.941 193.229 268.941 193.263 270.05 193.259C271.16 193.254 271.16 193.283 272.271 193.278C273.381 193.274 273.382 193.642 274.492 193.638" stroke="#F6B1B4" stroke-width="1.1253" stroke-miterlimit="10"/>
<path d="M154.527 188.65C155.638 188.628 155.636 188.484 156.747 188.462C157.858 188.44 157.863 188.705 158.974 188.683C160.086 188.661 160.089 188.854 161.201 188.832C162.312 188.811 162.31 188.733 163.421 188.711C164.532 188.689 164.527 188.41 165.638 188.389C166.749 188.367 166.752 188.508 167.863 188.486C168.975 188.464 168.969 188.205 170.081 188.183C171.192 188.162 171.2 188.554 172.311 188.533C173.421 188.511 173.423 188.601 174.533 188.58C175.643 188.558 175.637 188.219 176.746 188.197C177.856 188.175 177.858 188.269 178.968 188.247C180.078 188.226 180.079 188.298 181.189 188.276C182.3 188.254 182.299 188.229 183.41 188.208C184.521 188.186 184.518 188.023 185.629 188.001C186.74 187.979 186.746 188.248 187.857 188.226C188.968 188.205 188.967 188.197 190.078 188.175C191.188 188.153 191.188 188.116 192.298 188.094C193.408 188.073 193.404 187.859 194.514 187.837C195.625 187.815 195.627 187.883 196.737 187.861C197.849 187.839 197.849 187.85 198.961 187.829C200.072 187.807 200.069 187.667 201.181 187.645C202.291 187.623 202.29 187.567 203.401 187.545C204.512 187.523 204.512 187.545 205.623 187.523C206.734 187.502 206.741 187.877 207.852 187.855C208.964 187.833 208.956 187.401 210.068 187.379C211.179 187.357 211.189 187.875 212.3 187.853C213.411 187.831 213.404 187.434 214.515 187.412C215.626 187.39 215.624 187.285 216.735 187.263C217.847 187.241 217.848 187.258 218.959 187.236C220.071 187.214 220.07 187.208 221.182 187.186C222.293 187.164 222.292 187.105 223.404 187.084C224.515 187.062 224.52 187.305 225.632 187.283C226.744 187.261 226.74 187.072 227.851 187.05C228.963 187.028 228.968 187.264 230.08 187.243C231.191 187.221 231.196 187.458 232.308 187.436C233.42 187.414 233.418 187.355 234.53 187.333C235.642 187.312 235.637 187.057 236.749 187.036C237.861 187.014 237.861 186.999 238.973 186.977C240.085 186.955 240.085 186.969 241.197 186.947C242.309 186.925 242.307 186.841 243.42 186.819C244.53 186.798 244.535 187.038 245.645 187.016C246.757 186.994 246.754 186.815 247.866 186.793C248.977 186.771 248.975 186.693 250.087 186.671C251.199 186.65 251.2 186.726 252.313 186.704C253.424 186.682 253.43 186.977 254.542 186.955C255.654 186.934 255.65 186.732 256.762 186.71C257.875 186.688 257.88 186.968 258.993 186.946C260.106 186.924 260.104 186.864 261.217 186.843C262.33 186.821 262.321 186.36 263.433 186.338C264.546 186.316 264.554 186.758 265.667 186.736C266.779 186.714 266.781 186.791 267.893 186.77C269.007 186.748 269.004 186.613 270.118 186.591C271.232 186.57 271.224 186.168 272.338 186.146C273.452 186.124 273.454 186.215 274.568 186.193" stroke="#F6B1B4" stroke-width="1.1253" stroke-miterlimit="10"/>
<path d="M153.791 183.072C154.902 183.05 154.898 182.848 156.009 182.826C157.12 182.804 157.125 183.018 158.236 182.996C159.347 182.974 159.343 182.77 160.455 182.748C161.566 182.726 161.563 182.601 162.674 182.579C163.785 182.557 163.79 182.797 164.901 182.775C166.012 182.753 166.009 182.594 167.12 182.572C168.232 182.55 168.236 182.791 169.348 182.769C170.459 182.748 170.457 182.662 171.569 182.64C172.679 182.618 172.677 182.536 173.787 182.514C174.897 182.492 174.905 182.871 176.015 182.849C177.124 182.827 177.119 182.565 178.229 182.544C179.339 182.522 179.334 182.26 180.444 182.238C181.554 182.216 181.557 182.334 182.667 182.313C183.778 182.291 183.775 182.133 184.886 182.112C185.998 182.09 186.009 182.665 187.12 182.643C188.231 182.621 188.228 182.466 189.339 182.444C190.449 182.422 190.443 182.109 191.553 182.088C192.664 182.066 192.666 182.208 193.777 182.186C194.887 182.165 194.894 182.477 196.004 182.455C197.116 182.434 197.114 182.33 198.225 182.308C199.337 182.286 199.336 182.23 200.447 182.208C201.558 182.186 201.558 182.181 202.668 182.159C203.779 182.137 203.782 182.286 204.893 182.264C206.004 182.243 205.998 181.954 207.109 181.932C208.221 181.91 208.227 182.181 209.339 182.16C210.45 182.138 210.446 181.951 211.557 181.929C212.298 181.915 213.039 181.901 213.779 181.888C214.891 181.866 214.888 181.743 216 181.721C217.112 181.7 217.108 181.502 218.22 181.48C219.331 181.458 219.332 181.511 220.443 181.489C221.555 181.468 221.564 181.929 222.675 181.907C223.787 181.885 223.787 181.876 224.899 181.854C226.01 181.832 226.009 181.778 227.12 181.756C228.232 181.734 228.23 181.611 229.342 181.589C230.454 181.567 230.451 181.44 231.563 181.418C232.675 181.396 232.679 181.595 233.79 181.574C234.902 181.552 234.894 181.143 236.006 181.121C237.118 181.099 237.119 181.145 238.231 181.123C239.343 181.101 239.347 181.312 240.459 181.29C241.571 181.268 241.57 181.194 242.682 181.172C243.792 181.151 243.796 181.306 244.906 181.285C246.018 181.263 246.014 181.049 247.126 181.027C248.237 181.005 248.236 180.973 249.348 180.951C250.46 180.929 250.461 180.984 251.573 180.962C252.685 180.94 252.683 180.85 253.795 180.828C254.907 180.806 254.915 181.2 256.027 181.178C257.139 181.156 257.141 181.26 258.254 181.238C259.367 181.217 259.357 180.703 260.469 180.681C261.582 180.659 261.583 180.726 262.696 180.704C263.438 180.69 264.179 180.676 264.921 180.663C266.033 180.641 266.036 180.767 267.148 180.745C268.262 180.723 268.262 180.741 269.375 180.719C270.49 180.697 270.496 180.997 271.61 180.976C272.724 180.954 272.723 180.92 273.838 180.898" stroke="#F6B1B4" stroke-width="1.1253" stroke-miterlimit="10"/>
<path d="M153.869 176.532C154.98 176.51 154.98 176.497 156.091 176.475C157.202 176.453 157.196 176.153 158.308 176.131C159.419 176.109 159.419 176.099 160.53 176.077C161.641 176.055 161.648 176.43 162.76 176.408C163.871 176.386 163.862 175.947 164.973 175.925C166.084 175.903 166.089 176.156 167.2 176.134C168.312 176.112 168.312 176.104 169.423 176.082C170.534 176.061 170.534 176.044 171.645 176.022C172.755 176 172.752 175.802 173.862 175.78C174.972 175.758 174.977 176.028 176.087 176.006C177.197 175.984 177.2 176.145 178.31 176.123C179.42 176.102 179.416 175.92 180.526 175.899C181.636 175.877 181.631 175.618 182.742 175.597C183.853 175.575 183.864 176.118 184.975 176.097C186.086 176.075 186.077 175.614 187.189 175.592C188.299 175.571 188.307 175.971 189.418 175.95C190.528 175.928 190.52 175.533 191.631 175.511C192.741 175.489 192.743 175.594 193.853 175.572C194.964 175.551 194.965 175.606 196.076 175.585C197.188 175.563 197.19 175.708 198.302 175.686C199.413 175.664 199.413 175.632 200.524 175.61C201.635 175.589 201.632 175.456 202.743 175.435C203.854 175.413 203.859 175.675 204.969 175.653C206.081 175.632 206.073 175.225 207.184 175.204C208.296 175.182 208.297 175.236 209.409 175.214C210.52 175.193 210.525 175.425 211.636 175.403C212.747 175.382 212.748 175.433 213.859 175.411C214.97 175.389 214.972 175.474 216.083 175.452C217.195 175.43 217.189 175.097 218.3 175.076C219.412 175.054 219.408 174.854 220.519 174.832C221.63 174.81 221.634 175.002 222.746 174.981C223.858 174.959 223.855 174.831 224.967 174.809C226.078 174.787 226.086 175.195 227.198 175.174C228.31 175.152 228.31 175.144 229.422 175.122C230.533 175.1 230.533 175.112 231.645 175.091C232.757 175.069 232.749 174.66 233.861 174.638C234.973 174.616 234.974 174.675 236.086 174.654C237.198 174.632 237.204 174.938 238.316 174.916C239.428 174.895 239.429 174.974 240.541 174.952C241.653 174.93 241.654 174.943 242.766 174.921C243.876 174.899 243.876 174.87 244.986 174.848C246.098 174.826 246.091 174.453 247.203 174.432C248.314 174.41 248.318 174.631 249.43 174.61C250.542 174.588 250.539 174.432 251.651 174.411C252.763 174.389 252.76 174.244 253.871 174.222C254.984 174.2 254.986 174.322 256.098 174.3C257.211 174.278 257.218 174.619 258.33 174.597C259.443 174.576 259.434 174.121 260.547 174.099C261.659 174.077 261.668 174.506 262.78 174.484C263.893 174.462 263.885 174.093 264.998 174.072C266.11 174.05 266.115 174.298 267.228 174.276C268.341 174.254 268.342 174.273 269.455 174.251C270.569 174.229 270.571 174.323 271.685 174.302C272.8 174.28 272.795 174.063 273.91 174.042" stroke="#F6B1B4" stroke-width="1.1253" stroke-miterlimit="10"/>
<path d="M156.781 171.592C157.894 171.57 157.889 171.326 159.002 171.304C160.115 171.282 160.119 171.487 161.232 171.465C162.345 171.444 162.342 171.302 163.455 171.281C164.568 171.259 164.563 171.021 165.676 170.999C166.789 170.978 166.793 171.21 167.906 171.188C169.019 171.166 169.018 171.122 170.132 171.1C171.244 171.078 171.243 170.999 172.356 170.977C173.468 170.955 173.473 171.237 174.585 171.215C175.697 171.194 175.69 170.862 176.802 170.84C177.913 170.818 177.918 171.089 179.03 171.067C180.142 171.045 180.136 170.744 181.247 170.722C182.359 170.701 182.368 171.156 183.48 171.134C184.593 171.112 184.583 170.595 185.696 170.574C186.809 170.552 186.815 170.861 187.928 170.839C189.041 170.818 189.041 170.844 190.153 170.822C191.265 170.8 191.263 170.66 192.375 170.639C193.487 170.617 193.492 170.889 194.604 170.867C195.716 170.845 195.712 170.645 196.825 170.623C197.938 170.601 197.94 170.718 199.054 170.696C200.167 170.674 200.161 170.374 201.274 170.352C202.386 170.33 202.394 170.718 203.506 170.696C204.619 170.674 204.615 170.483 205.727 170.461C206.84 170.439 206.844 170.625 207.956 170.603C209.07 170.581 209.064 170.258 210.177 170.236C211.29 170.215 211.297 170.545 212.41 170.524C213.522 170.502 213.52 170.37 214.632 170.348C215.745 170.326 215.749 170.509 216.862 170.487C217.976 170.465 217.969 170.137 219.083 170.115C220.196 170.093 220.191 169.849 221.304 169.827C222.417 169.805 222.424 170.187 223.537 170.165C224.651 170.143 224.646 169.873 225.759 169.851C226.872 169.829 226.88 170.209 227.993 170.187C229.107 170.166 229.103 170.006 230.217 169.984C231.33 169.962 231.326 169.717 232.439 169.695C233.552 169.674 233.557 169.892 234.67 169.87C235.784 169.849 235.785 169.911 236.898 169.889C238.012 169.868 238.016 170.057 239.13 170.035C240.243 170.013 240.242 169.927 241.355 169.905C242.098 169.891 242.84 169.877 243.583 169.863C244.695 169.841 244.692 169.682 245.804 169.66C246.918 169.638 246.919 169.711 248.033 169.689C249.146 169.667 249.138 169.275 250.251 169.253C251.365 169.231 251.368 169.377 252.482 169.356C253.595 169.334 253.594 169.267 254.707 169.245C255.821 169.224 255.825 169.464 256.939 169.443C258.054 169.421 258.049 169.207 259.164 169.185C260.278 169.163 260.276 169.062 261.39 169.041C262.505 169.019 262.514 169.486 263.628 169.465C264.742 169.443 264.738 169.228 265.852 169.206C266.966 169.184 266.964 169.049 268.078 169.027C269.193 169.005 269.191 168.908 270.306 168.886C271.422 168.864 271.431 169.316 272.547 169.294C273.663 169.272 273.655 168.894 274.771 168.872" stroke="#F6B1B4" stroke-width="1.1253" stroke-miterlimit="10"/>
<path d="M156.914 166.122C158.027 166.1 158.023 165.876 159.136 165.854C160.249 165.832 160.245 165.654 161.358 165.632C162.471 165.61 162.475 165.822 163.588 165.8C164.7 165.778 164.702 165.875 165.815 165.853C166.928 165.831 166.927 165.784 168.04 165.763C169.153 165.741 169.149 165.562 170.263 165.54C171.375 165.518 171.377 165.618 172.49 165.596C173.602 165.574 173.606 165.781 174.718 165.759C175.83 165.738 175.83 165.745 176.941 165.723C178.053 165.701 178.047 165.421 179.159 165.399C180.271 165.377 180.27 165.35 181.382 165.328C182.494 165.306 182.497 165.488 183.609 165.466C184.722 165.444 184.717 165.168 185.83 165.146C186.943 165.124 186.953 165.654 188.066 165.633C189.178 165.611 189.169 165.124 190.281 165.102C191.393 165.08 191.399 165.374 192.511 165.352C193.623 165.331 193.619 165.15 194.731 165.128C195.844 165.106 195.848 165.329 196.961 165.307C198.074 165.285 198.078 165.476 199.191 165.454C200.304 165.432 200.294 164.903 201.407 164.882C202.519 164.86 202.525 165.186 203.638 165.164C204.75 165.142 204.754 165.346 205.866 165.324C206.979 165.302 206.971 164.892 208.084 164.87C209.198 164.848 209.198 164.874 210.312 164.852C211.425 164.83 211.424 164.794 212.537 164.773C213.65 164.751 213.654 164.96 214.766 164.938C215.879 164.916 215.874 164.663 216.988 164.642C218.101 164.62 218.103 164.731 219.217 164.709C220.33 164.687 220.326 164.497 221.439 164.475C222.552 164.453 222.552 164.446 223.665 164.424C224.779 164.402 224.785 164.755 225.899 164.733C227.012 164.711 227.011 164.648 228.124 164.627C229.238 164.605 229.234 164.441 230.348 164.419C231.461 164.397 231.465 164.608 232.579 164.586C233.692 164.564 233.696 164.755 234.81 164.733C235.923 164.711 235.923 164.703 237.036 164.681C238.15 164.659 238.148 164.562 239.262 164.54C240.376 164.518 240.368 164.13 241.482 164.109C242.595 164.087 242.598 164.213 243.712 164.191C244.824 164.169 244.828 164.354 245.94 164.332C247.053 164.31 247.047 163.966 248.16 163.944C249.273 163.922 249.282 164.357 250.394 164.335C251.508 164.314 251.503 164.041 252.617 164.019C253.73 163.997 253.73 163.989 254.843 163.967C255.957 163.945 255.959 164.03 257.073 164.008C258.187 163.986 258.192 164.21 259.306 164.188C260.42 164.166 260.414 163.872 261.529 163.85C262.643 163.828 262.648 164.094 263.763 164.072C264.505 164.058 265.248 164.043 265.991 164.029C267.105 164.007 267.098 163.671 268.212 163.649C269.328 163.627 269.326 163.539 270.441 163.517C271.557 163.495 271.563 163.789 272.679 163.767C273.795 163.745 273.799 163.963 274.915 163.941" stroke="#F6B1B4" stroke-width="1.1253" stroke-miterlimit="10"/>
</g>
<path d="M137.823 126.104L287.165 128.147C297.088 128.217 305.073 136.847 305 147.423C304.926 157.999 296.822 166.517 286.899 166.448L137.557 164.404L137.823 126.104Z" fill="white"/>
<path d="M285.891 166.448L167.198 166.448V128.148H285.891C296.438 128.148 305 136.729 305 147.298C305 157.867 296.438 166.448 285.891 166.448Z" fill="white"/>
<path d="M285.891 166.448L167.198 166.448V128.148H285.891C296.438 128.148 305 136.729 305 147.298C305 157.867 296.438 166.448 285.891 166.448Z" fill="url(#paint1_radial_13414_3461)"/>
<path d="M171.713 166.448L46.5171 165.575L46.7832 127.247L171.979 128.12C182.534 128.194 191.042 136.841 190.969 147.418C190.896 157.994 182.267 166.522 171.713 166.448Z" fill="#E40524"/>
<mask id="mask2_13414_3461" style="mask-type:luminance" maskUnits="userSpaceOnUse" x="46" y="127" width="145" height="40">
<path d="M171.713 166.448L46.5171 165.575L46.7832 127.247L171.979 128.12C182.534 128.194 191.042 136.841 190.969 147.418C190.896 157.994 182.267 166.522 171.713 166.448Z" fill="white"/>
</mask>
<g mask="url(#mask2_13414_3461)">
<path d="M180.989 130.597C179.871 130.608 179.872 130.7 178.754 130.711C178.009 130.719 177.263 130.728 176.518 130.737C175.772 130.745 175.027 130.753 174.281 130.761C173.163 130.773 173.163 130.818 172.045 130.829C170.926 130.841 170.922 130.424 169.804 130.436C168.686 130.447 168.689 130.727 167.571 130.738C166.453 130.75 166.45 130.487 165.332 130.499C164.213 130.51 164.211 130.332 163.093 130.343C161.974 130.355 161.98 130.918 160.862 130.929C159.744 130.941 159.741 130.726 158.623 130.737C157.505 130.749 157.506 130.821 156.388 130.832C155.269 130.844 155.267 130.652 154.149 130.664C153.03 130.675 153.032 130.844 151.913 130.856C150.795 130.867 150.791 130.484 149.673 130.496C148.555 130.507 148.557 130.653 147.439 130.664C146.322 130.676 146.321 130.571 145.204 130.582C144.087 130.594 144.09 130.88 142.973 130.892C141.856 130.904 141.858 131.048 140.741 131.06C139.623 131.071 139.618 130.613 138.501 130.624C137.382 130.636 137.386 131.044 136.268 131.056C135.15 131.067 135.149 131.003 134.03 131.015C132.913 131.026 132.909 130.667 131.791 130.679C130.674 130.69 130.679 131.204 129.561 131.216C128.444 131.227 128.444 131.277 127.327 131.288C126.209 131.3 126.208 131.241 125.091 131.253C123.972 131.264 123.97 131.101 122.851 131.113C121.733 131.124 121.732 131.004 120.613 131.015C119.495 131.027 119.496 131.142 118.379 131.154C117.261 131.165 117.258 130.901 116.14 130.913C115.022 130.924 115.025 131.23 113.907 131.242C112.788 131.253 112.788 131.269 111.669 131.281C110.55 131.292 110.549 131.168 109.431 131.179C108.312 131.191 108.311 131.003 107.192 131.014C106.074 131.026 106.076 131.232 104.957 131.243C103.838 131.255 103.838 131.19 102.719 131.201C101.6 131.213 101.599 131.076 100.481 131.088C99.3619 131.1 99.3648 131.381 98.2462 131.392C97.1271 131.404 97.1263 131.33 96.0072 131.341C95.2615 131.349 94.5158 131.356 93.77 131.362C92.6509 131.373 92.648 131.093 91.5289 131.104C90.4101 131.116 90.4124 131.337 89.2935 131.349C88.1745 131.36 88.1735 131.262 87.0545 131.274C85.9355 131.285 85.9369 131.42 84.8179 131.432C83.6986 131.443 83.7012 131.694 82.5819 131.705C81.4629 131.717 81.4575 131.192 80.3385 131.204C79.2192 131.215 79.223 131.586 78.1037 131.598C76.986 131.609 76.9835 131.37 75.8658 131.381C74.7468 131.393 74.7457 131.294 73.6267 131.306C72.5083 131.317 72.5134 131.809 71.3949 131.82C70.2755 131.832 70.2747 131.756 69.1553 131.767C68.0365 131.779 68.0353 131.67 66.9166 131.681C65.7972 131.693 65.7974 131.708 64.6781 131.72C63.5582 131.732 63.5591 131.814 62.4393 131.825C61.3194 131.837 61.315 131.402 60.1951 131.414C59.0753 131.425 59.0786 131.743 57.9587 131.755C56.8392 131.766 56.8415 131.992 55.722 132.004C54.6023 132.015 54.602 131.977 53.4823 131.989C52.3616 132 52.3567 131.521 51.2361 131.532C50.1146 131.544 50.1149 131.569 48.9935 131.58C47.8721 131.592 47.8734 131.719 46.752 131.731" stroke="#F6B1B4" stroke-width="1.1253" stroke-miterlimit="10"/>
<path d="M185.992 136.567C184.87 136.579 184.872 136.849 183.75 136.861C182.627 136.873 182.624 136.593 181.502 136.605C180.379 136.617 180.382 136.95 179.26 136.961C178.137 136.973 178.136 136.845 177.013 136.856C175.89 136.868 175.887 136.638 174.764 136.65C173.641 136.661 173.641 136.703 172.518 136.715C171.396 136.726 171.397 136.85 170.274 136.862C169.151 136.873 169.15 136.721 168.027 136.733C166.904 136.744 166.905 136.839 165.782 136.851C164.659 136.862 164.66 136.894 163.536 136.906C162.413 136.917 162.416 137.23 161.293 137.242C160.17 137.254 160.166 136.861 159.043 136.873C157.921 136.884 157.923 137.135 156.8 137.146C156.052 137.154 155.303 137.162 154.554 137.17C153.431 137.182 153.431 137.188 152.308 137.2C151.185 137.211 151.185 137.215 150.062 137.227C148.94 137.238 148.94 137.284 147.818 137.295C146.696 137.307 146.695 137.164 145.573 137.175C144.452 137.187 144.452 137.214 143.33 137.225C142.209 137.237 142.21 137.373 141.088 137.385C139.966 137.396 139.963 137.086 138.84 137.097C137.717 137.109 137.72 137.338 136.597 137.35C135.474 137.361 135.474 137.397 134.351 137.409C133.228 137.421 133.226 137.151 132.103 137.163C130.981 137.175 130.985 137.574 129.863 137.586C128.741 137.598 128.738 137.343 127.616 137.354C126.493 137.366 126.495 137.54 125.373 137.552C124.249 137.563 124.245 137.127 123.121 137.139C121.998 137.151 122.002 137.49 120.879 137.501C119.756 137.513 119.752 137.121 118.629 137.133C117.507 137.144 117.511 137.494 116.388 137.506C115.265 137.517 115.263 137.367 114.141 137.379C113.017 137.39 113.019 137.655 111.896 137.666C110.773 137.678 110.773 137.738 109.65 137.75C108.527 137.761 108.525 137.525 107.402 137.537C106.279 137.548 106.28 137.61 105.156 137.622C104.033 137.633 104.035 137.864 102.911 137.876C101.788 137.888 101.787 137.742 100.664 137.754C99.5405 137.766 99.5389 137.613 98.4156 137.625C97.2919 137.637 97.2931 137.752 96.1693 137.764C95.0461 137.775 95.0457 137.735 93.9224 137.747C92.7986 137.759 92.7972 137.625 91.6735 137.637C90.55 137.649 90.552 137.846 89.4285 137.858C88.3048 137.869 88.3036 137.756 87.1799 137.768C86.0563 137.779 86.0577 137.919 84.9341 137.931C83.8102 137.942 83.8114 138.068 82.6875 138.079C81.5638 138.091 81.5591 137.636 80.4355 137.647C79.3115 137.659 79.3109 137.602 78.1869 137.613C77.0645 137.625 77.0662 137.792 75.9438 137.803C74.8201 137.815 74.8226 138.054 73.6989 138.065C72.5758 138.077 72.5719 137.695 71.4488 137.706C70.3247 137.718 70.3294 138.176 69.2053 138.187C68.0818 138.199 68.078 137.823 66.9545 137.835C65.8305 137.847 65.8324 138.028 64.7084 138.04C63.5839 138.051 63.581 137.769 62.4565 137.781C61.332 137.793 61.3322 137.813 60.2077 137.825C59.0832 137.836 59.0851 138.016 57.9606 138.028C56.8364 138.04 56.8383 138.233 55.7142 138.244C54.5898 138.256 54.5893 138.202 53.4649 138.213C52.3396 138.225 52.3411 138.372 51.2158 138.383C50.0897 138.395 50.0883 138.257 48.9622 138.268C47.8361 138.28 47.8331 137.994 46.707 138.005" stroke="#F6B1B4" stroke-width="1.1253" stroke-miterlimit="10"/>
<path d="M189.089 141.642C187.976 141.668 187.979 141.782 186.866 141.808C185.754 141.834 185.756 141.933 184.644 141.959C183.531 141.986 183.532 142.029 182.42 142.055C181.308 142.081 181.302 141.837 180.19 141.863C179.078 141.889 179.087 142.256 177.974 142.282C176.862 142.308 176.859 142.161 175.746 142.187C174.634 142.213 174.638 142.416 173.526 142.442C172.413 142.468 172.406 142.172 171.294 142.198C170.181 142.224 170.177 142.04 169.065 142.067C167.953 142.093 167.953 142.106 166.841 142.132C165.728 142.159 165.733 142.361 164.621 142.387C163.508 142.414 163.507 142.371 162.395 142.397C161.282 142.423 161.287 142.662 160.175 142.689C159.062 142.715 159.064 142.79 157.952 142.817C156.839 142.843 156.832 142.522 155.72 142.548C154.607 142.574 154.613 142.815 153.5 142.841C152.387 142.867 152.378 142.479 151.265 142.505C150.153 142.532 150.155 142.632 149.043 142.658C147.931 142.684 147.93 142.656 146.819 142.682C145.708 142.708 145.715 143.031 144.604 143.057C143.493 143.083 143.493 143.072 142.382 143.098C141.27 143.125 141.272 143.217 140.161 143.244C139.049 143.27 139.05 143.281 137.938 143.307C136.825 143.334 136.822 143.2 135.71 143.226C134.597 143.252 134.595 143.179 133.483 143.205C132.371 143.231 132.366 143.031 131.254 143.057C130.142 143.083 130.146 143.245 129.034 143.271C127.923 143.297 127.919 143.144 126.807 143.17C125.695 143.196 125.702 143.485 124.59 143.511C123.477 143.538 123.471 143.271 122.358 143.297C121.245 143.324 121.254 143.702 120.142 143.728C119.03 143.754 119.026 143.607 117.914 143.633C116.802 143.659 116.796 143.418 115.684 143.444C114.572 143.471 114.574 143.582 113.462 143.608C112.349 143.634 112.355 143.922 111.242 143.949C110.13 143.975 110.124 143.72 109.011 143.746C107.899 143.773 107.9 143.82 106.788 143.846C105.675 143.872 105.668 143.569 104.555 143.595C103.442 143.621 103.454 144.127 102.341 144.154C101.228 144.18 101.215 143.606 100.102 143.632C98.9892 143.659 98.9907 143.723 97.8779 143.749C96.7646 143.775 96.7664 143.852 95.6531 143.878C94.5404 143.904 94.5501 144.32 93.4374 144.346C92.3241 144.372 92.3209 144.235 91.2076 144.261C90.0946 144.287 90.0863 143.932 88.9733 143.958C87.8601 143.985 87.866 144.236 86.7528 144.262C86.0107 144.279 85.2686 144.296 84.5265 144.312C83.413 144.338 83.4061 144.044 82.2927 144.07C81.1795 144.096 81.1877 144.448 80.0745 144.474C78.9611 144.5 78.9623 144.554 77.8488 144.581C76.7369 144.607 76.7308 144.345 75.6189 144.372C74.5057 144.398 74.5082 144.505 73.395 144.531C72.2825 144.557 72.2765 144.303 71.164 144.33C70.0503 144.356 70.0557 144.586 68.9421 144.612C67.8291 144.638 67.8365 144.95 66.7235 144.977C65.61 145.003 65.6023 144.673 64.4888 144.699C63.3748 144.725 63.3818 145.024 62.2678 145.05C61.1538 145.076 61.1533 145.055 60.0393 145.081C58.9253 145.107 58.916 144.707 57.802 144.734C56.6883 144.76 56.6976 145.159 55.5839 145.185C54.4701 145.211 54.4657 145.025 53.3519 145.051C52.2371 145.078 52.2339 144.941 51.1191 144.967C50.0035 144.993 50.0027 144.957 48.8871 144.983C47.7715 145.009 47.7738 145.106 46.6582 145.132" stroke="#F6B1B4" stroke-width="1.1253" stroke-miterlimit="10"/>
<path d="M190.013 147.629C188.9 147.655 188.892 147.321 187.779 147.347C186.667 147.373 186.676 147.773 185.564 147.8C184.452 147.826 184.45 147.742 183.337 147.769C182.225 147.795 182.223 147.699 181.111 147.725C179.999 147.751 180.005 148.004 178.892 148.03C177.78 148.056 177.771 147.655 176.658 147.681C175.546 147.707 175.549 147.851 174.436 147.877C173.324 147.903 173.32 147.721 172.207 147.747C171.095 147.773 171.101 148.055 169.989 148.081C168.877 148.107 168.869 147.769 167.756 147.795C166.644 147.821 166.647 147.938 165.535 147.964C164.422 147.99 164.428 148.247 163.315 148.273C162.203 148.299 162.194 147.95 161.082 147.976C159.969 148.002 159.973 148.152 158.861 148.179C157.748 148.205 157.749 148.243 156.637 148.269C155.524 148.295 155.527 148.402 154.414 148.428C153.301 148.454 153.304 148.56 152.191 148.586C151.079 148.612 151.07 148.243 149.957 148.269C148.846 148.295 148.856 148.738 147.745 148.764C146.633 148.79 146.627 148.497 145.515 148.523C144.404 148.55 144.404 148.541 143.293 148.567C142.182 148.593 142.184 148.682 141.072 148.708C139.961 148.735 139.965 148.909 138.853 148.935C137.74 148.961 137.735 148.716 136.622 148.742C135.509 148.768 135.504 148.552 134.392 148.579C133.28 148.605 133.28 148.622 132.168 148.648C131.056 148.674 131.059 148.763 129.947 148.789C128.835 148.815 128.833 148.73 127.722 148.757C126.609 148.783 126.617 149.12 125.505 149.146C124.392 149.173 124.385 148.875 123.273 148.901C122.16 148.927 122.167 149.247 121.055 149.273C119.943 149.299 119.943 149.306 118.831 149.332C117.719 149.358 117.718 149.315 116.606 149.341C115.493 149.368 115.488 149.132 114.375 149.159C113.262 149.185 113.266 149.361 112.153 149.387C111.04 149.413 111.044 149.557 109.931 149.583C108.819 149.61 108.818 149.588 107.706 149.615C106.593 149.641 106.592 149.588 105.479 149.614C104.366 149.64 104.359 149.35 103.246 149.376C102.134 149.402 102.142 149.773 101.03 149.799C99.9168 149.825 99.9071 149.411 98.7943 149.437C97.6811 149.463 97.6914 149.904 96.5781 149.93C95.4654 149.956 95.4571 149.603 94.3444 149.629C93.2311 149.655 93.2375 149.929 92.1242 149.955C91.0112 149.982 91.0149 150.138 89.9019 150.164C88.7887 150.19 88.7837 149.977 87.6705 150.003C86.5573 150.029 86.5545 149.908 85.4414 149.934C84.3279 149.96 84.335 150.264 83.2216 150.29C82.1084 150.317 82.1059 150.207 80.9927 150.234C79.8792 150.26 79.8764 150.138 78.7629 150.164C77.651 150.191 77.6444 149.911 76.5325 149.937C75.4193 149.963 75.4189 149.944 74.3057 149.97C73.1931 149.997 73.1973 150.175 72.0847 150.201C70.9711 150.227 70.9784 150.54 69.8648 150.566C68.7518 150.592 68.7407 150.117 67.6277 150.143C66.5142 150.169 66.5146 150.184 65.4011 150.21C64.2871 150.236 64.2947 150.561 63.1807 150.587C62.0667 150.613 62.0596 150.307 60.9456 150.333C59.8316 150.36 59.8404 150.738 58.7264 150.764C57.6128 150.79 57.6124 150.775 56.4987 150.801C55.3849 150.827 55.3788 150.567 54.2649 150.593C53.1501 150.619 53.1573 150.926 52.0425 150.952C50.9269 150.979 50.9199 150.678 49.8043 150.704C48.6887 150.73 48.6976 151.109 47.582 151.135" stroke="#F6B1B4" stroke-width="1.1253" stroke-miterlimit="10"/>
<path d="M189.962 153.948C188.85 153.974 188.852 154.074 187.74 154.1C186.627 154.127 186.632 154.354 185.52 154.38C184.408 154.406 184.403 154.2 183.291 154.227C182.178 154.253 182.182 154.405 181.07 154.431C179.958 154.457 179.958 154.466 178.846 154.492C177.733 154.518 177.725 154.153 176.612 154.179C175.5 154.205 175.505 154.432 174.392 154.458C173.28 154.484 173.286 154.746 172.173 154.772C171.061 154.798 171.053 154.465 169.941 154.491C168.829 154.517 168.83 154.553 167.717 154.579C166.605 154.605 166.613 154.953 165.501 154.979C164.388 155.005 164.384 154.806 163.271 154.832C162.158 154.858 162.155 154.725 161.042 154.751C159.93 154.777 159.937 155.077 158.825 155.103C157.712 155.13 157.707 154.918 156.595 154.944C155.483 154.971 155.48 154.873 154.368 154.899C153.255 154.925 153.251 154.776 152.139 154.802C151.026 154.829 151.033 155.115 149.92 155.141C148.809 155.167 148.809 155.16 147.697 155.186C146.586 155.212 146.586 155.239 145.475 155.265C144.364 155.291 144.365 155.353 143.254 155.379C142.143 155.405 142.145 155.493 141.034 155.519C139.922 155.545 139.919 155.397 138.807 155.423C137.694 155.449 137.691 155.295 136.578 155.321C135.465 155.347 135.464 155.29 134.351 155.316C133.239 155.342 133.24 155.377 132.128 155.403C131.017 155.429 131.018 155.509 129.907 155.535C128.795 155.561 128.79 155.339 127.678 155.365C126.566 155.391 126.57 155.547 125.458 155.573C124.345 155.599 124.342 155.497 123.23 155.523C122.117 155.549 122.124 155.865 121.012 155.891C119.9 155.918 119.895 155.715 118.783 155.741C117.671 155.767 117.678 156.072 116.566 156.098C115.453 156.124 115.45 155.999 114.338 156.025C113.225 156.052 113.227 156.145 112.114 156.171C111.001 156.197 110.994 155.904 109.882 155.93C108.769 155.956 108.777 156.29 107.665 156.316C106.552 156.342 106.539 155.797 105.427 155.823C104.313 155.849 104.315 155.909 103.202 155.935C102.089 155.962 102.1 156.441 100.988 156.467C99.875 156.493 99.8665 156.13 98.7536 156.156C97.6404 156.182 97.6468 156.456 96.5335 156.482C95.4208 156.508 95.4173 156.357 94.3045 156.383C93.1912 156.409 93.1874 156.246 92.0741 156.272C90.9611 156.298 90.968 156.593 89.855 156.619C88.7418 156.645 88.733 156.269 87.6198 156.295C86.5067 156.321 86.5106 156.491 85.3975 156.517C84.2841 156.543 84.2833 156.512 83.1699 156.539C82.0567 156.565 82.0614 156.765 80.9482 156.791C79.8347 156.817 79.8255 156.424 78.712 156.45C77.6001 156.476 77.6054 156.701 76.4935 156.727C75.3803 156.753 75.3777 156.641 74.2645 156.667C73.1519 156.693 73.1565 156.89 72.0439 156.916C70.9303 156.942 70.9235 156.65 69.8098 156.676C68.6969 156.702 68.706 157.093 67.5931 157.119C66.4796 157.145 66.4744 156.926 65.3609 156.952C64.247 156.978 64.2554 157.34 63.1414 157.367C62.0275 157.393 62.0173 156.96 60.9033 156.986C59.7893 157.012 59.7907 157.068 58.6766 157.094C57.563 157.121 57.5604 157.01 56.4467 157.036C55.3329 157.062 55.336 157.196 54.2221 157.222C53.1073 157.248 53.1156 157.6 52.0008 157.626C50.8852 157.653 50.8853 157.659 49.7698 157.685C48.6542 157.712 48.6546 157.73 47.5391 157.756" stroke="#F6B1B4" stroke-width="1.1253" stroke-miterlimit="10"/>
<path d="M186.545 159.066C185.434 159.092 185.436 159.172 184.325 159.198C183.214 159.225 183.211 159.086 182.1 159.112C180.99 159.138 180.997 159.431 179.886 159.457C178.776 159.483 178.777 159.537 177.666 159.564C176.556 159.59 176.553 159.471 175.442 159.497C174.331 159.523 174.327 159.366 173.216 159.392C172.105 159.418 172.11 159.608 170.999 159.634C169.888 159.66 169.884 159.484 168.773 159.51C167.662 159.536 167.661 159.475 166.55 159.501C165.44 159.527 165.442 159.622 164.331 159.648C163.22 159.675 163.218 159.562 162.107 159.588C160.995 159.615 161.001 159.846 159.89 159.873C158.779 159.899 158.776 159.784 157.665 159.81C156.555 159.836 156.552 159.701 155.441 159.727C154.33 159.753 154.334 159.944 153.224 159.97C152.112 159.996 152.113 160.02 151.002 160.046C149.891 160.072 149.887 159.91 148.776 159.936C147.666 159.962 147.673 160.253 146.563 160.279C145.453 160.305 145.454 160.341 144.344 160.367C143.235 160.394 143.225 159.969 142.115 159.995C141.006 160.021 141.012 160.289 139.902 160.315C138.792 160.342 138.79 160.24 137.68 160.266C136.569 160.292 136.566 160.162 135.455 160.188C134.344 160.214 134.348 160.414 133.237 160.441C132.127 160.467 132.124 160.346 131.014 160.372C129.904 160.398 129.91 160.669 128.8 160.695C127.69 160.722 127.68 160.326 126.57 160.352C125.46 160.378 125.468 160.705 124.357 160.731C123.246 160.757 123.238 160.427 122.127 160.453C121.016 160.479 121.023 160.8 119.912 160.826C118.802 160.852 118.8 160.776 117.689 160.802C116.579 160.828 116.579 160.825 115.468 160.851C114.358 160.877 114.361 161.011 113.25 161.038C112.509 161.055 111.768 161.072 111.026 161.087C109.915 161.113 109.911 160.903 108.8 160.929C107.689 160.955 107.696 161.267 106.586 161.293C105.474 161.32 105.469 161.111 104.358 161.137C103.247 161.163 103.249 161.277 102.138 161.303C101.027 161.329 101.029 161.426 99.9182 161.452C98.807 161.479 98.8035 161.329 97.6923 161.355C96.5806 161.381 96.573 161.055 95.4613 161.081C94.3502 161.107 94.3563 161.368 93.2451 161.394C92.1335 161.42 92.1297 161.261 91.0181 161.287C89.9067 161.314 89.9077 161.357 88.7963 161.383C87.6847 161.41 87.6882 161.559 86.5766 161.585C85.4651 161.611 85.4595 161.376 84.348 161.402C83.2361 161.428 83.2376 161.488 82.1257 161.515C81.0141 161.541 81.0208 161.827 79.9093 161.854C78.7974 161.88 78.7979 161.903 77.686 161.929C76.5757 161.955 76.5649 161.495 75.4546 161.521C74.3431 161.547 74.3464 161.688 73.2348 161.715C72.1238 161.741 72.1262 161.842 71.0152 161.868C69.9032 161.894 69.9079 162.099 68.7959 162.125C67.6846 162.151 67.6787 161.902 66.5674 161.928C65.4555 161.954 65.4551 161.939 64.3432 161.965C63.2308 161.991 63.2383 162.312 62.126 162.339C61.0136 162.365 61.0152 162.433 59.9028 162.46C58.7904 162.486 58.7766 161.897 57.6642 161.923C56.5521 161.949 56.5587 162.232 55.4467 162.258C54.3344 162.284 54.3338 162.257 53.2216 162.283C52.1083 162.31 52.1087 162.324 50.9955 162.35C49.8815 162.377 49.8791 162.275 48.7652 162.301C47.6512 162.327 47.6569 162.573 46.543 162.599" stroke="#F6B1B4" stroke-width="1.1253" stroke-miterlimit="10"/>
<path d="M186.421 164.342C185.31 164.368 185.319 164.76 184.208 164.786C183.097 164.812 183.087 164.363 181.976 164.389C180.866 164.415 180.874 164.765 179.763 164.791C178.653 164.818 178.654 164.87 177.543 164.896C176.433 164.922 176.424 164.56 175.313 164.586C174.202 164.612 174.213 165.069 173.102 165.095C171.991 165.121 171.986 164.91 170.875 164.936C169.764 164.963 169.769 165.179 168.659 165.205C167.548 165.232 167.54 164.874 166.429 164.901C165.318 164.927 165.328 165.336 164.217 165.362C163.106 165.388 163.102 165.223 161.991 165.249C160.88 165.275 160.871 164.901 159.76 164.928C158.65 164.954 158.649 164.939 157.538 164.965C156.428 164.992 156.438 165.423 155.327 165.449C154.216 165.475 154.217 165.51 153.106 165.536C151.995 165.562 151.985 165.139 150.874 165.165C149.763 165.191 149.772 165.594 148.661 165.62C147.551 165.646 147.543 165.272 146.433 165.298C145.323 165.324 145.33 165.608 144.22 165.635C143.11 165.661 143.106 165.474 141.997 165.5C140.887 165.526 140.89 165.67 139.781 165.697C138.67 165.723 138.668 165.61 137.558 165.636C136.447 165.663 136.45 165.812 135.339 165.838C134.228 165.864 134.227 165.834 133.116 165.86C132.006 165.887 132.007 165.935 130.897 165.961C129.787 165.987 129.79 166.136 128.68 166.162C127.57 166.189 127.566 166.036 126.456 166.062C125.346 166.088 125.338 165.748 124.227 165.774C123.116 165.8 123.121 165.995 122.009 166.021C120.898 166.047 120.895 165.908 119.784 165.934C118.674 165.96 118.684 166.406 117.573 166.432C116.463 166.458 116.458 166.254 115.348 166.281C114.237 166.307 114.24 166.434 113.129 166.46C112.017 166.486 112.02 166.613 110.909 166.639C109.798 166.665 109.79 166.336 108.679 166.362C107.568 166.388 107.57 166.449 106.459 166.475C105.348 166.501 105.344 166.314 104.232 166.34C103.121 166.366 103.129 166.722 102.018 166.748C100.907 166.774 100.901 166.542 99.7902 166.568C98.679 166.594 98.6744 166.396 97.5632 166.422C96.4515 166.448 96.4534 166.529 95.3417 166.555C94.2306 166.581 94.2326 166.666 93.1214 166.692C92.0097 166.719 92.0145 166.92 90.9028 166.947C89.7914 166.973 89.7835 166.636 88.6721 166.662C87.5605 166.688 87.5629 166.79 86.4513 166.817C85.3397 166.843 85.3469 167.149 84.2354 167.176C83.1235 167.202 83.1213 167.108 82.0095 167.134C80.8979 167.16 80.898 167.166 79.7865 167.192C78.6746 167.218 78.6771 167.328 77.5653 167.354C76.455 167.38 76.45 167.167 75.3397 167.193C74.2281 167.219 74.2315 167.368 73.1199 167.394C72.009 167.42 72.0067 167.324 70.8958 167.351C69.7837 167.377 69.7796 167.202 68.6676 167.228C67.5563 167.254 67.5605 167.437 66.4492 167.463C65.3373 167.489 65.33 167.18 64.2181 167.206C63.1057 167.232 63.1167 167.7 62.0043 167.726C60.8919 167.753 60.883 167.371 59.7706 167.397C58.6582 167.424 58.6606 167.525 57.5482 167.551C56.4361 167.577 56.4329 167.439 55.3208 167.465C54.2085 167.491 54.2161 167.813 53.1038 167.839C51.9906 167.865 51.9812 167.461 50.868 167.487C49.754 167.513 49.758 167.685 48.644 167.712C47.5301 167.738 47.53 167.734 46.416 167.76" stroke="#F6B1B4" stroke-width="1.1253" stroke-miterlimit="10"/>
</g>
<path d="M276.935 0H55.9311C49.195 0 43.7344 5.4725 43.7344 12.2232V115.809C43.7344 122.56 49.195 128.032 55.9311 128.032H276.935C283.671 128.032 289.131 122.56 289.131 115.809V12.2232C289.131 5.4725 283.671 0 276.935 0Z" fill="#00384A"/>
<path d="M269.488 15.1191H63.375V112.913H269.488V15.1191Z" fill="white"/>
<path d="M142.574 25.7443C142.052 25.3243 142.699 26.1698 142.733 26.9646C142.749 27.3557 142.579 27.7603 142.498 28.2499C142.43 28.6616 142.84 29.2444 142.658 29.6853C142.498 30.0743 142.067 30.3852 141.788 30.77C141.542 31.1089 141.304 31.5188 140.945 31.8359C140.633 32.1119 140.314 32.4882 139.903 32.7355C139.546 32.9504 138.951 32.7689 138.509 32.954C138.123 33.1159 137.745 33.332 137.288 33.4657C136.883 33.5843 136.515 33.9666 136.05 34.0593C135.554 34.1584 135.163 34.3755 134.749 34.532C134.277 34.7102 133.871 34.84 133.497 35.0821C133.081 35.3516 132.405 35.2948 132.097 35.6286C131.768 35.9841 131.673 36.5462 131.452 36.9563C131.227 37.3743 130.815 37.7543 130.683 38.2092C130.553 38.6632 130.953 39.2333 130.899 39.704C130.846 40.1767 130.537 40.6286 130.544 41.098C130.551 41.5813 130.412 42.0845 130.465 42.5426C130.522 43.0359 131.112 43.4259 131.199 43.8634C131.303 44.3798 131.144 44.9031 131.254 45.2997C131.484 46.1285 131.045 46.2594 131.74 46.3887C132.421 46.5157 132.359 46.4255 133.043 46.3129C133.726 46.2004 133.769 46.4623 134.453 46.3498C135.137 46.2372 135.126 46.1738 135.81 46.0612C136.495 45.9485 136.501 45.9864 137.186 45.8738C137.87 45.7612 137.874 45.7893 138.558 45.6767C139.243 45.564 139.255 45.6393 139.94 45.5266C140.625 45.414 140.568 45.0667 141.252 44.9541C141.937 44.8413 141.944 44.8805 142.629 44.7678C143.313 44.6551 143.321 44.7035 144.006 44.5908C144.691 44.4781 144.712 44.6099 145.397 44.4972C146.082 44.3845 146.036 44.1011 146.721 43.9884C147.405 43.8759 147.481 44.3361 148.164 44.2236C148.849 44.1109 148.776 43.6658 149.461 43.5531C150.146 43.4403 150.174 43.6122 150.86 43.4994C151.545 43.3866 151.578 43.5864 152.264 43.4736C152.949 43.3607 152.925 43.2084 153.61 43.0956C154.297 42.9826 154.286 42.912 154.972 42.799C155.659 42.6859 155.915 43.1763 156.14 42.5161C156.374 41.8286 155.833 42.071 155.377 41.5063C154.921 40.9422 154.784 41.0539 154.328 40.4898C153.872 39.9251 153.856 39.9379 153.4 39.3731C152.945 38.8087 153.356 38.4748 152.901 37.9104C152.444 37.3455 152.22 37.5272 151.764 36.9622C151.308 36.3976 151.228 36.4625 150.772 35.8979C150.316 35.3331 150.212 35.417 149.756 34.8521C149.3 34.2872 149.691 33.97 149.235 33.4051C148.78 32.8412 148.692 32.9119 148.237 32.3479C147.781 31.7832 147.741 31.8157 147.285 31.251C146.828 30.6856 146.801 30.7077 146.344 30.1424C145.888 29.577 145.869 29.5926 145.412 29.0272C144.955 28.4616 144.943 28.4716 144.486 27.906C144.029 27.3395 144.023 27.3442 143.571 26.7734C143.124 26.2095 143.141 26.2005 142.574 25.7443Z" fill="#C25528"/>
<path d="M187.028 12.6351C187.229 11.9357 187.442 13.0216 187.936 13.7868C188.159 14.1321 188.309 14.6012 188.664 15.025C188.948 15.3641 189.343 15.6362 189.724 15.998C190.052 16.3109 190.229 16.842 190.637 17.1547C191.002 17.4343 191.408 17.7122 191.841 17.9795C192.234 18.2225 192.595 18.6022 193.048 18.8261C193.464 19.0314 193.933 19.2131 194.402 19.3955C194.835 19.564 195.296 19.7692 195.777 19.9128C196.224 20.0462 196.81 19.7142 197.3 19.8218C197.757 19.922 198.162 20.3865 198.657 20.4607C199.12 20.5302 199.621 20.4757 200.119 20.5196C200.585 20.5607 201.072 20.56 201.571 20.5764C202.041 20.5918 202.529 20.7874 203.028 20.7789C203.498 20.7709 203.976 20.4991 204.473 20.4681C204.944 20.4387 205.403 20.181 205.898 20.1296C206.383 20.0794 206.876 20.1843 207.332 20.1709C207.819 20.1567 208.286 20.4055 208.743 20.4313C209.229 20.4587 209.727 20.2339 210.179 20.3044C210.659 20.3791 211.033 20.8585 211.476 20.9788C211.943 21.1053 212.493 20.9211 212.92 21.0948C213.365 21.2758 213.71 21.6496 214.115 21.878C214.53 22.1123 214.959 22.307 215.334 22.5874C215.713 22.8711 216.104 23.1421 216.444 23.4687C216.783 23.795 216.866 24.3444 217.168 24.7094C217.467 25.0709 218.1 25.1805 218.364 25.5757C218.624 25.9649 218.916 26.3605 219.145 26.7785C219.369 27.1892 219.296 27.7585 219.491 28.1932C219.683 28.6204 220.042 28.9836 220.207 29.4304C220.37 29.8701 220.4 30.3609 220.539 30.8162C220.675 31.2651 220.636 31.7602 220.751 32.2211C220.865 32.6773 221.048 33.1131 221.142 33.578C221.235 34.0399 221.287 34.5057 221.362 34.9731C221.437 35.4395 221.801 35.8654 221.859 36.3342C221.917 36.8041 221.912 37.2845 221.955 37.7538C221.999 38.2266 221.87 38.7114 221.899 39.1805C221.928 39.6557 222.118 40.1205 222.135 40.5887C222.152 41.0664 222.06 41.5431 222.065 42.0101C222.07 42.4901 222.282 42.966 222.276 43.431C222.27 43.9132 222.194 44.3887 222.178 44.8508C222.162 45.3363 222.08 45.8091 222.055 46.2676C222.029 46.7569 221.958 47.2282 221.924 47.6812C221.887 48.1779 221.754 48.6429 221.712 49.0884C221.664 49.5959 221.942 50.1044 221.893 50.5346C221.832 51.0707 221.537 51.5164 221.483 51.9123C221.361 52.8018 221.94 53.2993 221.245 53.4185C220.555 53.5369 220.551 53.0972 219.863 52.9692C219.175 52.8413 219.201 52.7002 218.513 52.5722C217.825 52.4443 217.731 52.9503 217.043 52.8223C216.354 52.6943 216.458 52.1347 215.769 52.0067C215.081 51.8787 214.988 52.3806 214.3 52.2527C213.613 52.125 213.698 51.6667 213.011 51.539C212.324 51.4113 212.285 51.6179 211.598 51.4901C210.91 51.3622 210.877 51.5374 210.189 51.4094C209.501 51.2814 209.571 50.9001 208.883 50.7721C208.196 50.6443 208.141 50.9379 207.454 50.81C206.766 50.6821 206.787 50.5672 206.099 50.4393C205.41 50.3113 205.367 50.5459 204.678 50.4179C203.99 50.2899 204.048 49.9778 203.36 49.8499C202.671 49.7218 202.6 50.101 201.912 49.9729C201.223 49.8449 201.239 49.7613 200.55 49.6333C199.861 49.5052 199.896 49.3184 199.206 49.1903C198.518 49.0622 198.477 49.2838 197.788 49.1558C197.099 49.0276 197.102 49.0084 196.413 48.8803C195.724 48.7521 195.718 48.7853 195.029 48.6571C194.341 48.5292 194.417 48.1183 193.729 47.9904C193.04 47.8623 192.981 48.1828 192.292 48.0548C191.602 47.9265 191.589 47.9973 190.9 47.8691C190.21 47.7408 190.272 47.4054 189.582 47.2772C188.892 47.149 188.882 47.2066 188.192 47.0784C187.501 46.9499 187.53 46.7949 186.839 46.6664C186.148 46.5379 185.911 47.1486 185.476 46.5952C185.039 46.0382 185.534 45.9412 185.568 45.2332C185.602 44.525 185.465 44.5184 185.5 43.8101C185.533 43.1022 185.588 43.1048 185.622 42.3969C185.656 41.6886 185.611 41.6864 185.645 40.9781C185.679 40.2714 185.858 40.28 185.892 39.5733C185.926 38.8654 185.742 38.8565 185.776 38.1486C185.81 37.4408 186.121 37.4558 186.155 36.748C186.189 36.0409 185.849 36.0245 185.883 35.3173C185.917 34.6097 185.932 34.6104 185.966 33.9027C186 33.1943 185.91 33.19 185.944 32.4815C185.978 31.7739 185.936 31.7718 185.97 31.0641C186.004 30.3557 186.182 30.3643 186.216 29.6558C186.25 28.9477 185.997 28.9355 186.031 28.2274C186.066 27.5186 186.17 27.5237 186.204 26.8149C186.238 26.1066 186.55 26.1216 186.584 25.4133C186.618 24.7046 186.425 24.6953 186.459 23.9866C186.493 23.2776 186.51 23.2784 186.544 22.5694C186.578 21.8604 186.594 21.8612 186.628 21.1522C186.662 20.4441 186.784 20.4499 186.818 19.7418C186.852 19.0328 186.938 19.037 186.972 18.328C187.006 17.6189 186.539 17.5964 186.573 16.8873C186.607 16.1781 187.048 16.1994 187.082 15.4901C187.116 14.7797 186.838 14.7777 186.813 14.067C186.787 13.348 186.831 13.3185 187.028 12.6351Z" fill="#C25528"/>
<path d="M156.668 86.5264H111.848V113.024H156.668V86.5264Z" fill="#E40524"/>
<path d="M156.668 86.5264H111.848V113.024H156.668V86.5264Z" fill="url(#paint2_radial_13414_3461)"/>
<path d="M103.612 35.9717L123.218 47.4995C124.554 48.285 126.208 48.2884 127.548 47.5085L147.356 35.9717L160.075 58.2186L141.608 67.6273C132.955 72.036 122.629 71.5712 114.405 66.4028L85.5078 48.2425L103.612 35.9717Z" fill="#F6B1B4"/>
<path d="M160.074 58.4561L163.961 67.9137C167.908 77.5186 167.686 88.3641 163.35 97.7949L156.348 113.024H236.406C237.322 92.418 231.476 72.0856 219.783 55.206L210.231 41.4163L189.007 37.8711L160.074 58.4561Z" fill="#0072BA"/>
<path d="M158.054 102.395C157.812 101.819 152.507 97.5901 153.713 95.0527C154.919 92.5152 157.451 92.9986 160.224 95.8985C162.997 98.7984 166.614 102.395 166.614 102.395H158.054Z" fill="#F6B1B4"/>
<path d="M165.549 3.19056C152.481 -0.388917 139.661 12.5452 142.659 25.6368C142.952 27.1128 145.409 32.5707 144.665 33.8914C141.505 39.4996 135.203 45.8941 143.818 50.0809C145.154 50.7303 145.872 50.6261 146.052 51.5315C146.306 52.8149 146.726 54.0668 147.499 55.1211C151.911 61.1377 162.933 63.2037 168.984 59.6399C172.939 59.2393 188.106 39.3848 189.007 37.8712C189.548 36.9632 197.516 22.1229 195.056 14.9716C191.934 6.97834 181.85 6.44557 178.869 15.5451C176.774 10.7164 171.506 4.21293 165.549 3.19056Z" fill="#F6B1B4"/>
<path d="M144.665 33.8911C141.505 39.4993 135.203 45.8938 143.818 50.0806C145.154 50.7301 145.872 50.6258 146.052 51.5313C146.306 52.8146 146.726 54.0666 147.499 55.1208C149.153 57.3771 151.737 59.0778 154.64 60.1343" stroke="#851970" stroke-width="1.1253" stroke-linecap="round" stroke-linejoin="round"/>
<path d="M187.549 31.9874C190.877 26.989 192.631 22.7743 191.927 18.3811C191.267 14.2674 187.549 12.2631 184.068 14.3727" stroke="#851970" stroke-width="1.1253" stroke-linecap="round" stroke-linejoin="round"/>
<path d="M208.669 41.291C200.503 41.291 193.883 47.9248 193.883 56.1081V85.2698C193.883 93.2937 187.786 99.9973 179.813 100.738L169.115 101.732C167.667 101.866 166.214 101.844 164.771 101.663C160.466 101.125 150.488 100.236 143.452 100.236C135.152 100.236 136.046 106.981 142.627 106.922C137.224 106.533 136.76 112.463 140.451 112.611C142.579 112.697 145.178 112.834 148.248 113.024C156.913 113.024 218.977 113.024 218.977 113.024L222.014 99.1082C224.348 88.4141 225.114 77.436 224.286 66.5206L223.411 54.9852C222.825 47.2598 216.399 41.291 208.669 41.291Z" fill="#F6B1B4"/>
<path d="M141.496 105.476C142.686 105.476 143.65 104.509 143.65 103.317C143.65 102.125 142.686 101.158 141.496 101.158C140.306 101.158 139.342 102.125 139.342 103.317C139.342 104.509 140.306 105.476 141.496 105.476Z" stroke="#851970" stroke-width="1.1253" stroke-linecap="round" stroke-linejoin="round"/>
<path d="M141.496 112.156C142.686 112.156 143.65 111.19 143.65 109.998C143.65 108.805 142.686 107.839 141.496 107.839C140.306 107.839 139.342 108.805 139.342 109.998C139.342 111.19 140.306 112.156 141.496 112.156Z" stroke="#851970" stroke-width="1.1253" stroke-linecap="round" stroke-linejoin="round"/>
<path d="M142.627 106.921H156.668" stroke="#851970" stroke-width="1.1253" stroke-linecap="round" stroke-linejoin="round"/>
<path d="M161.465 97.4853C160.518 98.4726 158.952 98.5038 157.967 97.555C156.982 96.6062 156.95 95.0366 157.897 94.0493" stroke="#851970" stroke-width="1.1253" stroke-linecap="round" stroke-linejoin="round"/>
<path d="M163.307 102.118L156.348 100.841" stroke="#851970" stroke-width="1.1253" stroke-linecap="round" stroke-linejoin="round"/>
<path d="M142.874 47.2423C143.395 47.2423 143.818 46.8187 143.818 46.2962C143.818 45.7737 143.395 45.3501 142.874 45.3501C142.352 45.3501 141.93 45.7737 141.93 46.2962C141.93 46.8187 142.352 47.2423 142.874 47.2423Z" fill="#851970"/>
<path d="M145.45 47.2423C145.971 47.2423 146.394 46.8187 146.394 46.2962C146.394 45.7737 145.971 45.3501 145.45 45.3501C144.929 45.3501 144.506 45.7737 144.506 46.2962C144.506 46.8187 144.929 47.2423 145.45 47.2423Z" fill="#851970"/>
<path d="M146.395 52.8752L150.83 48.7705" stroke="#851970" stroke-width="1.1253" stroke-linecap="round" stroke-linejoin="round"/>
<path d="M115.381 40.5146L110.274 44.5736C110.022 44.1169 109.74 43.6711 109.406 43.2489C106.134 39.1147 100.138 38.4207 96.0126 41.6993C91.8873 44.9778 91.1952 50.9872 94.4666 55.1215C94.8007 55.5437 95.1696 55.9206 95.5558 56.2707L95.36 56.4263C90.755 60.086 89.9822 66.7936 93.634 71.4086C97.2859 76.0236 103.979 76.798 108.584 73.1383L128.606 57.2266L115.381 40.5146ZM96.5042 53.5021C94.1252 50.4956 94.6285 46.1257 97.6285 43.7415C100.629 41.3573 104.989 41.8616 107.368 44.8681C107.706 45.2944 107.978 45.7497 108.201 46.2213L97.6292 54.6229C97.2217 54.2981 96.8415 53.9284 96.5042 53.5021Z" fill="#0072BA"/>
<path d="M98.5627 27.2407L98.5627 27.2407C96.6986 27.9942 95.797 30.1194 96.5488 31.9875L101.393 44.0254C102.145 45.8935 104.266 46.7971 106.13 46.0437C107.994 45.2902 108.896 43.165 108.144 41.2969L103.299 29.259C102.547 27.3909 100.427 26.4873 98.5627 27.2407Z" fill="#F6B1B4"/>
<path d="M103.299 29.2593L108.143 41.2972C108.895 43.1653 107.994 45.2905 106.13 46.044" stroke="#851970" stroke-width="1.1253" stroke-linecap="round" stroke-linejoin="round"/>
<path d="M93.8155 31.4426L93.8155 31.4426C91.8873 32.0115 90.7844 34.0391 91.352 35.9715L95.0099 48.4232C95.5775 50.3555 97.6008 51.4609 99.529 50.892C101.457 50.3231 102.56 48.2955 101.992 46.3631L98.3346 33.9114C97.7669 31.979 95.7437 30.8737 93.8155 31.4426Z" fill="#F6B1B4"/>
<path d="M101.993 46.3633C102.56 48.2956 101.457 50.3233 99.5293 50.8922" stroke="#851970" stroke-width="1.1253" stroke-linecap="round" stroke-linejoin="round"/>
<path d="M87.9874 33.8786L87.9874 33.8786C86.0592 34.4475 84.9563 36.4752 85.5239 38.4075L87.9672 46.7248C88.5348 48.6571 90.5581 49.7624 92.4863 49.1935L92.4863 49.1935C94.4145 48.6247 95.5174 46.597 94.9497 44.6647L92.5064 36.3474C91.9388 34.4151 89.9155 33.3098 87.9874 33.8786Z" fill="#F6B1B4"/>
<path d="M92.5065 36.3477L94.9498 44.6649C95.5174 46.5973 94.4145 48.6249 92.4863 49.1938" stroke="#851970" stroke-width="1.1253" stroke-linecap="round" stroke-linejoin="round"/>
<path d="M87.2856 39.675C86.8378 37.7113 84.8863 36.4832 82.9268 36.932C80.9674 37.3808 79.7419 39.3365 80.1898 41.3003L81.1474 45.4995C81.5952 47.4632 83.5467 48.6913 85.5062 48.2425C87.4656 47.7937 88.6911 45.838 88.2433 43.8743L87.2856 39.675Z" fill="#F6B1B4"/>
<path d="M104.58 44.3518C105.77 44.3518 106.734 43.3853 106.734 42.193C106.734 41.0007 105.77 40.0342 104.58 40.0342C103.39 40.0342 102.426 41.0007 102.426 42.193C102.426 43.3853 103.39 44.3518 104.58 44.3518Z" stroke="#851970" stroke-width="1.1253" stroke-linecap="round" stroke-linejoin="round"/>
<path d="M98.1991 48.5232C99.3888 48.5232 100.353 47.5567 100.353 46.3644C100.353 45.1721 99.3888 44.2056 98.1991 44.2056C97.0094 44.2056 96.0449 45.1721 96.0449 46.3644C96.0449 47.5567 97.0094 48.5232 98.1991 48.5232Z" stroke="#851970" stroke-width="1.1253" stroke-linecap="round" stroke-linejoin="round"/>
<path d="M91.6268 47.616C92.8165 47.616 93.7809 46.6494 93.7809 45.4571C93.7809 44.2649 92.8165 43.2983 91.6268 43.2983C90.4371 43.2983 89.4727 44.2649 89.4727 45.4571C89.4727 46.6494 90.4371 47.616 91.6268 47.616Z" stroke="#851970" stroke-width="1.1253" stroke-linecap="round" stroke-linejoin="round"/>
<path d="M84.2166 47.0007C85.4063 47.0007 86.3708 46.0342 86.3708 44.8419C86.3708 43.6496 85.4063 42.6831 84.2166 42.6831C83.0269 42.6831 82.0625 43.6496 82.0625 44.8419C82.0625 46.0342 83.0269 47.0007 84.2166 47.0007Z" stroke="#851970" stroke-width="1.1253" stroke-linecap="round" stroke-linejoin="round"/>
<path d="M101.392 44.0252L96.5469 31.9873" stroke="#851970" stroke-width="1.1253" stroke-linecap="round" stroke-linejoin="round"/>
<path d="M87.8152 46.0644L85.334 37.8511" stroke="#851970" stroke-width="1.1253" stroke-linecap="round" stroke-linejoin="round"/>
<path d="M133.401 68.4225C129.986 67.5055 126.873 65.704 124.373 63.199L115.656 54.4634L113.238 56.8868L121.955 65.6222C124.455 68.1273 126.252 71.2477 127.167 74.6698L133.401 68.4225Z" fill="#0072BA"/>
<path d="M134.257 86.5263C134.257 86.5263 133.803 76.2744 144.486 76.2744" stroke="#009D3D" stroke-width="11.253" stroke-miterlimit="10"/>
<path d="M147.926 81.9092C150.604 81.9092 152.774 79.7339 152.774 77.0505C152.774 74.3672 150.604 72.1919 147.926 72.1919C145.249 72.1919 143.078 74.3672 143.078 77.0505C143.078 79.7339 145.249 81.9092 147.926 81.9092Z" fill="#851970"/>
<path d="M167.435 2.82504C166.983 2.69529 166.557 2.54879 166.123 2.44608C165.663 2.33748 165.282 1.92233 164.842 1.84254C164.378 1.75836 163.919 1.66672 163.476 1.61296C163.008 1.55616 162.523 1.85198 162.078 1.82718C161.607 1.80095 161.154 1.40105 160.708 1.4083C160.237 1.41595 159.79 1.72757 159.345 1.7698C158.877 1.81423 158.368 1.53502 157.928 1.61456C157.467 1.69803 157.06 2.04042 156.628 2.15888C156.177 2.28254 155.798 2.58637 155.378 2.74395C154.94 2.90765 154.522 3.06573 154.116 3.2613C153.697 3.46318 153.095 3.32415 152.706 3.55478C152.307 3.79208 151.971 4.15211 151.603 4.41416C151.224 4.68312 151.065 5.23118 150.717 5.52005C150.359 5.8163 149.818 5.89466 149.489 6.2052C149.151 6.52464 149.106 7.13909 148.795 7.46643C148.426 7.80224 147.837 7.89593 147.506 8.23395C147.157 8.59072 147.01 9.11253 146.702 9.47038C146.375 9.8483 145.971 10.1369 145.688 10.5144C145.387 10.9139 145.207 11.3725 144.951 11.7695C144.681 12.1899 144.439 12.5979 144.214 13.0132C143.976 13.4534 143.576 13.794 143.385 14.2258C143.183 14.6845 142.964 15.1285 142.81 15.5745C142.647 16.0493 142.791 16.5965 142.676 17.0529C142.553 17.5413 142.502 18.0092 142.427 18.4717C142.347 18.9717 141.99 19.413 141.956 19.8766C141.918 20.3885 142.265 20.8781 142.272 21.3374C142.279 21.8612 142.032 22.3516 142.077 22.7951C142.134 23.3456 142.297 23.8121 142.378 24.2172C142.556 25.1085 142.124 25.1325 142.726 25.5351C142.987 25.3268 143.434 25.3481 143.986 25.0667C144.366 24.8726 144.651 24.3454 145.133 24.1206C145.543 23.9297 146.006 23.7743 146.47 23.5634C146.892 23.3709 147.26 23.0102 147.713 22.8027C148.142 22.6058 148.767 22.803 149.211 22.5938C149.616 22.4029 149.98 22.1423 150.399 22.0013C150.823 21.8588 151.225 21.6328 151.659 21.5404C152.095 21.4476 152.524 21.1919 152.967 21.1488C153.409 21.1056 153.881 21.1681 154.327 21.1737C154.771 21.1794 155.18 21.6579 155.623 21.7112C156.063 21.7642 156.514 21.6573 156.95 21.7566C157.382 21.8551 157.787 22.0173 158.211 22.1606C158.655 22.3108 159.127 22.4913 159.618 22.5981C160.075 22.6976 160.57 22.7955 161.07 22.8535C161.535 22.9074 162.042 22.7455 162.546 22.7603C162.95 22.7722 163.435 22.6387 163.933 22.7201C164.351 22.7886 164.815 22.8657 165.285 22.974C165.71 23.0718 166.148 23.2316 166.604 23.3551C167.031 23.4709 167.391 23.8771 167.836 24.01C168.266 24.1381 168.659 24.403 169.099 24.5422C169.531 24.6792 170 24.7081 170.434 24.8512C170.869 24.9946 171.332 25.0499 171.762 25.1949C172.2 25.3428 172.68 25.3523 173.104 25.4971C173.547 25.6481 174.009 25.7118 174.428 25.8542C174.879 26.0069 175.277 26.2577 175.691 26.394C176.155 26.547 176.529 26.8882 176.932 27.0114C177.428 27.1629 177.902 27.1977 178.28 27.2882C178.989 27.4582 179.428 27.3956 179.576 27.2605C179.74 27.111 180.059 26.6141 180.01 25.8488C179.982 25.4204 179.688 24.9357 179.618 24.3903C179.559 23.9277 179.288 23.4633 179.211 22.9527C179.138 22.4729 179.343 21.9356 179.264 21.4419C179.185 20.9486 179.037 20.4663 178.961 19.9867C178.88 19.4762 179.021 18.9494 178.953 18.4866C178.874 17.9424 178.57 17.4773 178.526 17.049C178.446 16.2727 178.558 15.8226 178.676 15.6764C179.027 15.2406 179.429 14.8687 179.701 14.4737C180.036 13.9859 180.172 13.4343 180.393 13.0496C180.878 12.2047 180.79 12.4155 180.756 11.6371C180.726 10.948 180.766 11.2036 180.205 10.5251C179.958 10.2256 179.831 9.70575 179.465 9.32262C179.175 9.01969 178.621 8.91824 178.253 8.57965C177.936 8.28723 177.822 7.70359 177.444 7.39477C177.104 7.11782 176.562 7.05542 176.173 6.77251C175.815 6.5125 175.279 6.49379 174.878 6.23428C174.504 5.99245 174.336 5.38875 173.923 5.1518C173.535 4.92923 173.169 4.61829 172.746 4.4037C172.347 4.20073 171.879 4.08885 171.448 3.89612C171.038 3.71287 170.661 3.39169 170.222 3.22034C169.802 3.05683 169.31 3.03228 168.863 2.8819C168.436 2.73803 167.888 2.95488 167.435 2.82504Z" fill="#C25528"/>
</g>
<defs>
<linearGradient id="paint0_linear_13414_3461" x1="233.982" y1="151.793" x2="43.8315" y2="193.767" gradientUnits="userSpaceOnUse">
<stop stop-color="#ED6FA7" stop-opacity="0.5"/>
<stop offset="0.787709" stop-color="#ED6FA7" stop-opacity="0"/>
</linearGradient>
<radialGradient id="paint1_radial_13414_3461" cx="0" cy="0" r="1" gradientUnits="userSpaceOnUse" gradientTransform="translate(309.807 128.698) rotate(164.913) scale(146.811 106.691)">
<stop offset="0.296089" stop-color="#E30518"/>
<stop offset="0.339708" stop-color="#E30518" stop-opacity="0.819194"/>
<stop offset="0.474925" stop-color="#E30518" stop-opacity="0.400985"/>
<stop offset="0.60459" stop-color="#E30518" stop-opacity="0.16562"/>
<stop offset="0.725298" stop-color="#E30518" stop-opacity="0.053203"/>
<stop offset="0.835058" stop-color="#E30518" stop-opacity="0.010846"/>
<stop offset="0.930208" stop-color="#E30518" stop-opacity="0.01"/>
<stop offset="1" stop-color="#E30518" stop-opacity="0"/>
</radialGradient>
<radialGradient id="paint2_radial_13414_3461" cx="0" cy="0" r="1" gradientUnits="userSpaceOnUse" gradientTransform="translate(161.583 80.3382) scale(57.7661 57.8913)">
<stop offset="0.418994" stop-color="#ED6FA7" stop-opacity="0"/>
<stop offset="0.448339" stop-color="#ED6FA7" stop-opacity="0.01"/>
<stop offset="0.53181" stop-color="#ED6FA7" stop-opacity="0.10841"/>
<stop offset="0.615674" stop-color="#ED6FA7" stop-opacity="0.285623"/>
<stop offset="0.698059" stop-color="#ED6FA7" stop-opacity="0.492869"/>
<stop offset="0.778626" stop-color="#ED6FA7" stop-opacity="0.692557"/>
<stop offset="0.856904" stop-color="#ED6FA7" stop-opacity="0.855889"/>
<stop offset="0.931884" stop-color="#ED6FA7" stop-opacity="0.962438"/>
<stop offset="1" stop-color="#ED6FA7"/>
</radialGradient>
<clipPath id="clip0_13414_3461">
<rect width="305" height="238" fill="white"/>
</clipPath>
</defs>
</svg>
