<svg width="97" height="96" viewBox="0 0 97 96" fill="none" xmlns="http://www.w3.org/2000/svg">
<g id="CapX_-_Avatar_-_5 1">
<g clip-path="url(#clip0_14858_9831)">
<g id="Camada_1">
<g id="Group">
<path id="Vector" d="M48.4622 0.336426C32.6628 0.336426 19.8633 13.1427 19.8633 28.9353V48.0035H77.0611V28.9353C77.0611 13.1427 64.2548 0.336426 48.4622 0.336426Z" fill="#010101" stroke="black" stroke-miterlimit="10"/>
<path id="Vector_2" d="M77.0628 59.7605C73.1685 58.3346 68.8773 57.5342 64.3574 57.5342H32.5704C28.0506 57.5342 23.7594 58.3346 19.865 59.7605C8.63938 63.8768 0.796875 73.273 0.796875 84.2162V95.6638H96.1243V84.2162C96.1243 73.273 88.2818 63.8768 77.0561 59.7538L77.0628 59.7605Z" fill="white" stroke="#00384A" stroke-linecap="round" stroke-linejoin="round"/>
<path id="Vector_3" d="M34.1627 19.4048H62.7616C70.6512 19.4048 77.0611 25.8147 77.0611 33.7042V48.0037C77.0611 63.7896 64.2481 76.6026 48.4622 76.6026C32.6763 76.6026 19.8633 63.7896 19.8633 48.0037V33.7042C19.8633 25.8147 26.2731 19.4048 34.1627 19.4048Z" fill="#C25528" stroke="black" stroke-miterlimit="10"/>
<g id="Group_2">
<path id="Vector_4" d="M46.8021 57.2786C47.2516 57.2786 47.616 56.9142 47.616 56.4647C47.616 56.0152 47.2516 55.6509 46.8021 55.6509C46.3527 55.6509 45.9883 56.0152 45.9883 56.4647C45.9883 56.9142 46.3527 57.2786 46.8021 57.2786Z" fill="#010101"/>
<path id="Vector_5" d="M50.1263 57.2786C50.5758 57.2786 50.9402 56.9142 50.9402 56.4647C50.9402 56.0152 50.5758 55.6509 50.1263 55.6509C49.6769 55.6509 49.3125 56.0152 49.3125 56.4647C49.3125 56.9142 49.6769 57.2786 50.1263 57.2786Z" fill="#010101"/>
</g>
<path id="Vector_6" d="M19.8633 95.664V76.6025" stroke="#00384A" stroke-linecap="round" stroke-linejoin="round"/>
<path id="Vector_7" d="M77.0625 95.664V76.6025" stroke="#00384A" stroke-linecap="round" stroke-linejoin="round"/>
</g>
</g>
</g>
<rect x="0.960938" y="0.5" width="95" height="95" stroke="#053749"/>
</g>
<defs>
<clipPath id="clip0_14858_9831">
<rect x="0.460938" width="96" height="96" fill="white"/>
</clipPath>
</defs>
</svg>
