<svg width="96" height="96" viewBox="0 0 96 96" fill="none" xmlns="http://www.w3.org/2000/svg">
<g id="CapX_-_Avatar_-_17 1">
<g clip-path="url(#clip0_14858_9842)">
<g id="Camada_1">
<g id="Group">
<g id="Group_2">
<g id="Group_3">
<path id="Vector" d="M76.7866 59.7605C72.899 58.3346 68.6011 57.5342 64.0812 57.5342H32.2942C27.7743 57.5342 23.4831 58.3346 19.5888 59.7605C8.36984 63.8768 0.527344 73.2797 0.527344 84.2229V95.6638H95.8548V84.2229C95.8548 73.2797 88.0055 63.8768 76.7866 59.7605Z" fill="#00384A" stroke="black" stroke-miterlimit="10"/>
<g id="Group_4">
<path id="Vector_2" d="M33.8893 19.4048H62.4882C70.3778 19.4048 76.7876 25.8147 76.7876 33.7042V48.0037C76.7876 63.7896 63.9746 76.6026 48.1887 76.6026C32.4028 76.6026 19.5898 63.7896 19.5898 48.0037V33.7042C19.5898 25.8147 25.9997 19.4048 33.8893 19.4048Z" fill="#F39353" stroke="black" stroke-miterlimit="10"/>
<g id="Group_5">
<path id="Vector_3" d="M46.5287 57.2854C46.9782 57.2854 47.3425 56.921 47.3425 56.4716C47.3425 56.0221 46.9782 55.6577 46.5287 55.6577C46.0792 55.6577 45.7148 56.0221 45.7148 56.4716C45.7148 56.921 46.0792 57.2854 46.5287 57.2854Z" fill="#E30518"/>
<path id="Vector_4" d="M49.8529 57.2854C50.3024 57.2854 50.6668 56.921 50.6668 56.4716C50.6668 56.0221 50.3024 55.6577 49.8529 55.6577C49.4034 55.6577 49.0391 56.0221 49.0391 56.4716C49.0391 56.921 49.4034 57.2854 49.8529 57.2854Z" fill="#E30518"/>
</g>
</g>
<path id="Vector_5" d="M19.5898 84.2231V95.664" stroke="#E30518" stroke-miterlimit="10" stroke-linecap="round"/>
<path id="Vector_6" d="M76.7852 84.2231V95.664" stroke="#E30518" stroke-miterlimit="10" stroke-linecap="round"/>
</g>
<path id="Vector_7" d="M38.6562 63.0229H57.7244" stroke="#E30518" stroke-miterlimit="10" stroke-linecap="round"/>
</g>
<path id="Vector_8" d="M64.8866 5.72394C60.1851 2.34077 54.4209 0.336426 48.1926 0.336426C41.9644 0.336426 36.3078 2.30041 31.64 5.62305C24.3557 10.8088 19.5938 19.3104 19.5938 28.9353V31.8275C19.7552 32.0293 19.8897 32.1907 20.0511 32.3925C28.2366 34.0269 37.0477 31.4643 43.054 24.8257C43.0809 24.7988 43.1011 24.7719 43.128 24.745C45.852 21.7049 50.5333 21.7049 53.264 24.745C53.291 24.7719 53.3111 24.7988 53.338 24.8257C59.3443 31.4643 68.1554 34.0336 76.3409 32.3925L76.7983 31.8275V28.9353C76.7983 19.3777 72.1035 10.9164 64.8933 5.72394H64.8866Z" fill="#C25528" stroke="black" stroke-miterlimit="10"/>
</g>
</g>
</g>
<rect x="0.691406" y="0.5" width="95" height="95" stroke="#053749"/>
</g>
<defs>
<clipPath id="clip0_14858_9842">
<rect x="0.191406" width="96" height="96" fill="white"/>
</clipPath>
</defs>
</svg>
