<svg width="96" height="96" viewBox="0 0 96 96" fill="none" xmlns="http://www.w3.org/2000/svg">
<g id="CapX_-_Avatar_-_4 3">
<g clip-path="url(#clip0_14858_9923)">
<g id="Group 163">
<rect id="Rectangle 43" x="1" y="1" width="95" height="95" fill="#EFEFEF"/>
</g>
<g id="Camada_1">
<g id="Group">
<path id="Vector" d="M48.0034 23.2182C54.322 23.2182 59.4443 18.096 59.4443 11.7773C59.4443 5.45869 54.322 0.336426 48.0034 0.336426C41.6848 0.336426 36.5625 5.45869 36.5625 11.7773C36.5625 18.096 41.6848 23.2182 48.0034 23.2182Z" fill="#F7C400" stroke="black" stroke-miterlimit="10"/>
<path id="Vector_2" d="M76.6019 59.7605C72.7076 58.3346 68.4164 57.5342 63.8965 57.5342H32.1095C27.5896 57.5342 23.2985 58.3346 19.4041 59.7605C8.17844 63.8768 0.335938 73.273 0.335938 84.2162V95.6638H95.6633V84.2162C95.6633 73.273 87.8208 63.8768 76.5952 59.7538L76.6019 59.7605Z" fill="white" stroke="#E30518" stroke-miterlimit="10" stroke-linecap="round"/>
<path id="Vector_3" d="M33.7018 19.4048H62.3007C70.1903 19.4048 76.6001 25.8147 76.6001 33.7042V48.0037C76.6001 63.7896 63.7871 76.6026 48.0012 76.6026C32.2154 76.6026 19.4023 63.7896 19.4023 48.0037V33.7042C19.4023 25.8147 25.8122 19.4048 33.7018 19.4048Z" fill="#F6B1B4" stroke="black" stroke-miterlimit="10"/>
<g id="Group_2">
<path id="Vector_4" d="M46.3412 57.2786C46.7907 57.2786 47.155 56.9142 47.155 56.4647C47.155 56.0152 46.7907 55.6509 46.3412 55.6509C45.8917 55.6509 45.5273 56.0152 45.5273 56.4647C45.5273 56.9142 45.8917 57.2786 46.3412 57.2786Z" fill="#E30518"/>
<path id="Vector_5" d="M49.6654 57.2786C50.1149 57.2786 50.4793 56.9142 50.4793 56.4647C50.4793 56.0152 50.1149 55.6509 49.6654 55.6509C49.2159 55.6509 48.8516 56.0152 48.8516 56.4647C48.8516 56.9142 49.2159 57.2786 49.6654 57.2786Z" fill="#E30518"/>
</g>
<path id="Vector_6" d="M19.4023 95.664V76.6025" stroke="#E30518" stroke-miterlimit="10" stroke-linecap="round"/>
<path id="Vector_7" d="M76.6016 95.664V76.6025" stroke="#E30518" stroke-miterlimit="10" stroke-linecap="round"/>
<g id="Group_3">
<path id="Vector_8" d="M36.1043 52.3888C41.29 52.3888 45.4938 48.185 45.4938 42.9993C45.4938 37.8137 41.29 33.6099 36.1043 33.6099C30.9187 33.6099 26.7148 37.8137 26.7148 42.9993C26.7148 48.185 30.9187 52.3888 36.1043 52.3888Z" stroke="#E30518" stroke-miterlimit="10" stroke-linecap="round"/>
<path id="Vector_9" d="M59.8934 52.3888C65.0791 52.3888 69.2829 48.185 69.2829 42.9993C69.2829 37.8137 65.0791 33.6099 59.8934 33.6099C54.7077 33.6099 50.5039 37.8137 50.5039 42.9993C50.5039 48.185 54.7077 52.3888 59.8934 52.3888Z" stroke="#E30518" stroke-miterlimit="10" stroke-linecap="round"/>
<path id="Vector_10" d="M50.5163 42.8108C50.1396 41.7548 49.0097 41.0217 47.8864 41.1091C46.7699 41.1898 45.761 42.0844 45.5391 43.1807" stroke="#E30518" stroke-miterlimit="10" stroke-linecap="round"/>
</g>
<path id="Vector_11" d="M62.3007 17.4946H33.7018C25.8055 17.4946 19.4023 23.8978 19.4023 31.7941C20.8081 27.1195 25.1127 23.9179 29.9958 23.9179H66C70.883 23.9179 75.1877 27.1195 76.5934 31.7941C76.5934 23.8978 70.1903 17.4946 62.294 17.4946H62.3007Z" fill="#F7C400" stroke="black" stroke-miterlimit="10"/>
</g>
</g>
</g>
<rect x="0.5" y="0.5" width="95" height="95" stroke="#851D6A"/>
</g>
<defs>
<clipPath id="clip0_14858_9923">
<rect width="96" height="96" fill="white"/>
</clipPath>
</defs>
</svg>
