<svg width="212" height="200" viewBox="0 0 212 200" fill="none" xmlns="http://www.w3.org/2000/svg">
<g clip-path="url(#clip0_14264_4196)">
<path d="M211.25 0.650391H0.25V199.838H211.25V0.650391Z" fill="#ED6FA7"/>
<path d="M143.174 37.0469C164.012 48.9999 177.93 70.6348 177.921 95.3378C177.906 132.874 145.12 163.641 105.359 163.441C65.6814 163.241 33.582 132.816 33.582 95.3126C33.582 71.0271 46.1453 50.2531 66.4076 38.1892L69.255 39.2742C70.6432 39.8032 71.4014 41.2214 71.0277 42.5899L68.8794 50.4558L66.091 49.4372C64.4525 48.8386 62.6192 49.6715 62.0924 51.2537C61.6055 52.7162 62.4219 54.2818 63.9466 54.8096L66.248 55.6062L61.6682 68.8287L62.4597 68.9735L64.2262 69.1993L96.15 64.8617L100.457 63.31C102.051 62.7359 103.008 61.1931 102.758 59.6002L102.181 55.9225L99.6645 56.5263C96.6793 57.2426 93.6995 55.3428 93.2886 52.461C92.9213 49.8849 94.7643 47.4914 97.4734 47.0264L103.603 45.9743L102.681 43.8469C101.739 41.6718 102.983 39.2027 105.365 38.5204C107.621 37.8743 110.001 39.0962 110.652 41.2352L111.112 42.7475L120.923 40.0733L133.417 37.5979C135.068 37.2708 136.75 38.0043 137.557 39.4026L138.446 40.9434C139.08 42.0424 140.411 42.6097 141.703 42.3324C143.465 41.9543 144.461 40.1879 143.809 38.5971L143.174 37.0469Z" fill="white" stroke="#010101" stroke-linejoin="round"/>
<path d="M163.018 53.8511L160.65 54.7787C158.686 55.548 157.848 57.7451 158.842 59.5198C159.658 60.9768 158.95 62.78 157.325 63.3826L156.529 63.6777C154.729 64.3451 152.689 63.5882 151.852 61.9426L151.67 61.5847C150.895 60.0606 149.054 59.3032 147.344 59.8049L137.399 62.7224L133.413 54.4809C132.973 53.5727 133.481 52.507 134.492 52.2141C136.081 51.7536 136.868 50.069 136.156 48.6505C135.621 47.5828 134.384 46.9963 133.157 47.228L128.202 48.1634C126.436 48.4967 124.658 47.6467 123.898 46.1059L120.922 40.0732" stroke="#010101" stroke-linecap="round" stroke-linejoin="round"/>
<path d="M120.922 40.0732L111.111 42.7474" stroke="#010101" stroke-linecap="round" stroke-linejoin="round"/>
<path d="M96.7971 74.2158L97.0195 77.423L97.1741 83.4952C97.2105 84.923 96.1487 86.1667 94.6629 86.4364C91.243 87.0572 88.9633 90.1294 89.5135 93.3757C90.0778 96.7049 93.401 98.967 96.9253 98.4207L98.4896 98.1783C100.259 97.9041 101.904 99.1011 102.074 100.786L102.765 107.634L119.523 103.422C121.918 102.82 123.275 100.433 122.483 98.2161C121.625 95.8155 123.015 93.2165 125.571 92.4436C127.913 91.7356 130.443 92.8099 131.435 94.9336L131.48 95.029C132.48 97.1697 135.189 98.0663 137.386 96.9839L150.791 90.3811L153.338 99.7326C153.708 101.091 155.23 101.861 156.633 101.399C158.869 100.663 161.288 101.912 161.839 104.085C162.305 105.925 161.257 107.806 159.387 108.486L158.296 108.883C157.142 109.302 156.476 110.445 156.719 111.59L158.477 119.888L169.14 114.727C171.062 113.797 173.386 114.901 173.741 116.911L173.878 117.691" stroke="#010101" stroke-linecap="round" stroke-linejoin="round"/>
<path d="M62.4592 68.9736C64.0523 69.2651 65.1136 70.6966 64.8581 72.2093C64.6006 73.734 63.1002 74.7853 61.4798 74.5765L58.0292 74.1318L55.6838 82.2801L50.3455 82.3132C48.7958 82.3228 47.6387 80.9701 47.975 79.5421L48.0794 79.0988C48.5105 77.2684 47.0351 75.5319 45.0488 75.5319C43.6694 75.5319 42.4554 76.3911 42.0687 77.6411L41.1243 80.6933C40.8238 81.6644 39.8807 82.332 38.809 82.332H34.8203" stroke="#010101" stroke-linecap="round" stroke-linejoin="round"/>
<path d="M97.0204 77.4229L84.327 78.4631C82.3544 78.6248 81.0963 80.5264 81.808 82.2707L81.8526 82.3798C82.0475 82.8576 82.1243 83.3771 82.0426 83.8832C81.6392 86.3816 79.438 88.3432 76.6842 88.5057C73.7079 88.6813 71.0777 86.6924 70.6096 83.912C70.3684 82.479 69.0105 81.4554 67.4768 81.5503L55.6834 82.2798L54.5209 91.8771L53.844 91.8501C51.4071 91.7533 49.363 93.5681 49.3161 95.8701C49.2706 98.1059 51.1302 99.9643 53.4973 100.049L54.5209 100.085V110.481H48.771C47.0905 110.481 45.6838 109.278 45.5183 107.699L45.2938 105.558C45.1538 104.223 43.9643 103.206 42.5433 103.206C41.0168 103.206 39.7793 104.374 39.7793 105.815C39.7793 106.551 39.148 107.146 38.3692 107.146H34.666" stroke="#010101" stroke-linecap="round" stroke-linejoin="round"/>
<path d="M59.5795 147.678L64.3193 147.457C65.6441 147.395 66.4845 146.09 65.9333 144.951L63.733 140.405L60.5519 133.833C60.0783 132.854 60.7706 131.727 61.9054 131.629C64.5556 131.401 66.3829 129.017 65.7845 126.569C65.2835 124.519 63.2356 123.149 61.021 123.381L59.8011 123.509C58.4233 123.654 57.1566 122.781 56.8816 121.499L54.5195 110.481L68.4728 110.5C69.5647 110.501 70.4664 111.305 70.5302 112.334L70.5865 113.24C70.7144 115.301 72.6423 116.841 74.8164 116.621C77.1766 116.381 78.7385 114.191 78.0865 112.036C77.7306 110.86 78.5971 109.669 79.8876 109.561L102.765 107.634L103.46 117.086C103.537 118.13 104.538 118.891 105.635 118.74L109.178 118.251C111.933 117.872 114.469 119.734 114.755 122.349C115.024 124.8 113.207 127.02 110.625 127.392C109.606 127.539 108.896 128.425 109.023 129.39L109.968 136.574L92.3994 138.092C90.3613 138.269 88.9678 140.117 89.4586 141.992C90.1253 144.54 88.2211 147.047 85.4509 147.268L84.4191 147.35C81.996 147.544 79.7344 146.186 78.893 144.032L77.8933 141.473C77.3887 140.181 76.0557 139.348 74.5991 139.412L63.4917 139.895" stroke="#010101" stroke-linecap="round" stroke-linejoin="round"/>
<path d="M114.982 162.879L115.225 155.436C115.28 153.749 113.731 152.411 111.955 152.612L110.216 152.809C107.841 153.078 105.75 151.327 105.75 149.069C105.75 147.374 106.949 145.887 108.681 145.437C110.09 145.07 110.996 143.777 110.801 142.409L109.969 136.574L129.716 132.605C131.98 132.149 133.457 130.085 133.058 127.932L132.665 125.808C132.325 123.974 133.398 122.167 135.233 121.484C137.526 120.631 140.097 121.839 140.758 124.08C141.526 126.682 144.718 127.865 147.155 126.452L158.477 119.888L159.383 127.436C159.598 129.229 158.528 130.938 156.761 131.625L156.433 131.752C155.178 132.24 154.47 133.504 154.75 134.757C155.134 136.478 157.15 137.379 158.803 136.569C159.701 136.128 160.781 136.715 160.828 137.669L160.898 139.079" stroke="#010101" stroke-linecap="round" stroke-linejoin="round"/>
<path d="M63.778 62.7309L54.5196 60.9829L55.9033 57.1647C56.3377 55.9658 55.6356 54.6652 54.3527 54.2925C53.2045 53.959 51.9732 54.4862 51.4827 55.5214L49.494 59.7178L44.7832 58.3766" stroke="#010101" stroke-linecap="round" stroke-linejoin="round"/>
<path d="M70.6098 83.9123C71.0779 86.6927 73.708 88.6816 76.6844 88.506C79.4382 88.3435 81.6394 86.3818 82.0428 83.8835C82.1245 83.3774 82.0477 82.8579 81.8527 82.3801L81.8082 82.271C81.0965 80.5267 82.3546 78.6251 84.3273 78.4634L97.0206 77.4231L96.7981 74.2159L96.1493 64.8618L64.2255 69.1994L62.459 68.9736C64.0521 69.2651 65.1133 70.6966 64.8578 72.2093C64.6004 73.7339 63.1 74.7853 61.4796 74.5764L58.029 74.1318L55.6836 82.2801L67.477 81.5506C69.0108 81.4557 70.3685 82.4793 70.6098 83.9123Z" fill="#010101"/>
<path d="M96.7969 74.216L112.265 71.1041L112.026 69.3571C111.683 66.8464 113.501 64.528 116.145 64.1055C118.34 63.7549 120.516 64.818 121.48 66.7121L121.81 67.3615L137.399 62.7227L139.691 68.1849C140.504 70.1215 139.491 72.3124 137.434 73.067C135.662 73.717 134.801 75.6142 135.525 77.2736C136.229 78.8869 138.171 79.672 139.893 79.04L140.847 78.69C142.792 77.9763 144.991 78.8033 145.883 80.5843L150.791 90.3813L160.535 84.8485C161.488 84.3074 162.728 84.7142 163.12 85.6968C163.936 87.742 166.46 88.6559 168.515 87.6499L168.667 87.5757C170.283 86.7845 171.095 85.0356 170.617 83.3774L170.215 81.9885C169.981 81.178 170.417 80.3288 171.236 79.9996L175.632 78.232L174.913 78.5208" stroke="#010101" stroke-linecap="round" stroke-linejoin="round"/>
</g>
<defs>
<clipPath id="clip0_14264_4196">
<rect width="211" height="199.188" fill="white" transform="translate(0.25 0.650391)"/>
</clipPath>
</defs>
</svg>
