<svg width="17" height="17" viewBox="0 0 17 17" fill="none" xmlns="http://www.w3.org/2000/svg">
<g id="Logo ">
<path id="Vector" fill-rule="evenodd" clip-rule="evenodd" d="M15.392 6.65381C15.5498 7.2425 15.6336 7.86139 15.6336 8.49948C15.6336 10.1928 15.0434 11.7476 14.058 12.9703H14.0676C14.6715 12.9703 15.1614 13.4602 15.1614 14.0639C15.1614 14.6677 14.6715 15.1576 14.0676 15.1576C13.4637 15.1576 12.9737 14.6677 12.9737 14.0639V14.0543C11.7509 15.0396 10.1945 15.6297 8.50222 15.6297C7.86403 15.6297 7.24504 15.546 6.65625 15.3882L7.34386 12.8248C7.71305 12.9236 8.10283 12.9757 8.5036 12.9757C9.74019 12.9757 10.8601 12.4749 11.6699 11.6639C12.4796 10.8543 12.982 9.7345 12.982 8.49811C12.982 8.09741 12.9298 7.70906 12.831 7.33856L15.392 6.65381Z" fill="#053749"/>
<path id="Vector_2" fill-rule="evenodd" clip-rule="evenodd" d="M8.49933 1.36816C9.13753 1.36816 9.75651 1.45187 10.3453 1.60968L9.65769 4.17304C9.2885 4.07423 8.89872 4.02209 8.49795 4.02209C7.26136 4.02209 6.14142 4.52296 5.33167 5.33396C4.52191 6.14358 4.01959 7.26333 4.01959 8.49973C4.01959 8.90043 4.07174 9.28877 4.17056 9.65928L1.60679 10.3468C1.44896 9.75808 1.36523 9.1392 1.36523 8.5011C1.36523 6.80775 1.95539 5.25299 2.94083 4.03032H2.93122C2.32734 4.03032 1.83736 3.54043 1.83736 2.93664C1.83736 2.33285 2.32734 1.84296 2.93122 1.84296C3.53511 1.84296 4.02508 2.33285 4.02508 2.93664V2.94625C5.2507 1.95823 6.80708 1.36816 8.49933 1.36816Z" fill="#053749"/>
<path id="Vector_3" fill-rule="evenodd" clip-rule="evenodd" d="M11.9781 3.79975C11.3967 3.36867 10.7322 3.04322 10.0132 2.85134C9.53055 2.72254 9.26432 2.41299 8.74121 2.41299C8.2183 2.41299 7.71048 2.4816 7.22737 2.61059L6.65341 1.61002L6.29883 0.288173C7.00016 0.100176 7.73855 0 8.4989 0C10.8458 0 12.9718 0.950966 14.5103 2.48926C16.0488 4.02754 17 6.15178 17 8.4997C17 9.26129 16.8998 9.99819 16.7118 10.7008L15.3909 10.3466L14.3889 9.77235C14.5179 9.28932 14.5866 8.78159 14.5866 8.25876C14.5866 7.7349 14.2768 7.46818 14.1476 6.98523C13.9556 6.26761 13.6303 5.60452 13.1996 5.0238C13.131 5.56172 12.6712 5.97888 12.114 5.97888C11.5101 5.97888 11.0201 5.48899 11.0201 4.8852C11.0229 4.32669 11.4387 3.86699 11.9781 3.79975Z" fill="#053749"/>
<path id="Vector_4" fill-rule="evenodd" clip-rule="evenodd" d="M2.41204 8.74036C2.41204 9.2635 2.72166 9.53011 2.85072 10.013C2.96981 10.4586 3.1403 10.8831 3.35568 11.2796V13.6426H5.72868C6.13008 13.8612 6.55365 14.0289 6.98804 14.1456C7.48345 14.2786 7.752 14.5861 8.25876 14.5861C8.78167 14.5861 9.28949 14.5175 9.7726 14.3885L10.346 15.387L10.7011 16.7109C9.99981 16.8989 9.26142 16.9991 8.50107 16.9991C6.87195 16.9991 5.6683 16.6684 4.25877 15.867H1.17621V12.8151C0.429583 11.5499 0 10.0748 0 8.49942C0 7.73783 0.100192 7.00093 0.288219 6.29834L1.60783 6.6522L2.61105 7.22677C2.48067 7.7098 2.41204 7.97523 2.41204 8.49942V8.74036ZM5.71633 12.376C6.32022 12.376 6.81019 11.8861 6.81019 11.2823C6.81019 10.6786 6.32022 10.1887 5.71633 10.1887C5.11245 10.1887 4.62247 10.6786 4.62247 11.2823C4.62247 11.8861 5.11245 12.376 5.71633 12.376Z" fill="#053749"/>
<path id="Vector_5" d="M15.3895 6.65381L14.1445 6.98668C14.2738 7.46968 14.3437 7.97694 14.3437 8.50085C14.3437 9.02368 14.2751 9.53141 14.1461 10.0144L15.3889 10.3477C15.5467 9.75831 15.6311 9.13882 15.6311 8.49948C15.6311 7.86138 15.5474 7.2425 15.3895 6.65381Z" fill="white"/>
<path id="Vector_6" d="M8.4992 2.65396C9.02237 2.65396 9.52915 2.72365 10.0118 2.85247L10.3452 1.60968C9.75638 1.45187 9.1374 1.36816 8.4992 1.36816C7.86072 1.36816 7.24167 1.45238 6.65234 1.61006L6.98537 2.85156C7.46848 2.72257 7.97629 2.65396 8.4992 2.65396Z" fill="white"/>
<path id="Vector_7" d="M8.50085 14.3463C7.99409 14.3463 7.48476 14.279 6.98937 14.146L6.65625 15.3878C7.24504 15.5456 7.86402 15.6294 8.50222 15.6294C9.14005 15.6294 9.75851 15.5453 10.3471 15.3881L10.0147 14.1487C9.53157 14.2777 9.02376 14.3463 8.50085 14.3463Z" fill="white"/>
<path id="Vector_8" d="M1.60679 10.3466L2.85094 10.013C2.72187 9.53008 2.65261 9.02273 2.65261 8.49956C2.65261 7.97536 2.72123 7.46901 2.85162 6.98598L1.60746 6.65234C1.44963 7.24186 1.36523 7.86147 1.36523 8.50093C1.36523 9.13903 1.44896 9.75791 1.60679 10.3466Z" fill="white"/>
</g>
</svg>
