<svg width="145" height="120" viewBox="0 0 145 120" fill="none" xmlns="http://www.w3.org/2000/svg">
<g clip-path="url(#clip0_14264_6890)">
<path d="M144.999 37.4007C144.996 37.3393 144.994 37.3051 144.994 37.3051L124.043 23.5625C124.043 23.5625 101.641 74.9765 61.7031 86.2553C67.4517 98.8243 74.3206 110.724 77.7763 116.498C110.586 101.77 135.617 72.7774 144.999 37.4007Z" fill="#005B3F"/>
<path d="M143.214 21.4703L139.193 35.3365L128.027 27.225L128.798 25.5432C130.377 22.1016 130.005 18.0776 127.816 14.9893C124.44 10.228 120.457 3.12687 124.005 0L143.214 21.4703Z" fill="#010101"/>
<path d="M97.904 67.2422L80.2207 64.9679L87.9879 49.762L90.1868 50.3852C94.6865 51.6605 99.5249 50.4385 102.875 47.1715C108.04 42.1349 115.944 35.9082 120.436 39.6528L97.904 67.2422Z" fill="#010101"/>
<path d="M118.627 38.8623L96.2402 67.028" stroke="#E30518" stroke-width="1.29667" stroke-miterlimit="10" stroke-linecap="round"/>
<path d="M123.305 0.809082L142.858 22.7022" stroke="#E30518" stroke-width="1.04875" stroke-miterlimit="10" stroke-linecap="round"/>
<path d="M95.2185 46.1096C95.0811 46.4339 83.0434 69.323 83.0434 69.323L67.9361 61.4549L69.7934 91.4967L42.6484 76.4758C42.6484 76.4758 43.7976 31.4175 55.6495 26.263C69.7934 20.1116 95.2185 46.1096 95.2185 46.1096Z" fill="#005B3F"/>
<path d="M69.7941 91.4966C62.1848 74.7151 43.9107 74.5839 24.4126 76.9456C4.91447 79.3074 1.74141 86.1637 0.511695 90.3289C-0.913803 95.1571 1.04188 118.59 1.51386 123.952C10.202 125.946 19.248 127 28.5401 127C46.6045 127 63.7397 123.018 79.12 115.885C79.1112 115.85 78.307 112.671 77.7918 111.085C76.8604 108.218 74.6838 102.28 69.7941 91.4966Z" fill="#ED6FA7"/>
<path d="M69.7941 91.4966C62.1848 74.7151 43.9107 74.5839 24.4126 76.9456C4.91447 79.3074 1.74141 86.1637 0.511695 90.3289C-0.913803 95.1571 1.04188 118.59 1.51386 123.952C10.202 125.946 19.248 127 28.5401 127C46.6045 127 63.7397 123.018 79.12 115.885C79.1112 115.85 78.307 112.671 77.7918 111.085C76.8604 108.218 74.6838 102.28 69.7941 91.4966Z" fill="url(#paint0_linear_14264_6890)"/>
<path d="M60.4895 61.8207L65.3751 44.5018C65.757 43.1481 64.9776 41.7392 63.6289 41.3454L55.8348 39.0693C54.5358 38.69 53.1664 39.3888 52.7096 40.6641L45.3894 61.0986C44.891 62.4899 45.6684 64.0138 47.0862 64.425L56.2109 67.0714C57.5446 67.4583 58.9431 66.7094 59.3624 65.3839L60.4895 61.8207Z" fill="#00384A" stroke="white" stroke-width="0.98552" stroke-miterlimit="10"/>
<path d="M59.5535 60.2262L64.0494 45.0168C64.3617 43.9097 63.7243 42.7575 62.6213 42.4354L56.2472 40.574C55.1849 40.2638 54.065 40.8352 53.6914 41.8782L47.5181 58.7725C47.1106 59.9103 47.7463 61.1566 48.9058 61.4929L56.368 63.6571C57.4588 63.9735 58.6025 63.3611 58.9454 62.2771L59.5535 60.2262Z" fill="white"/>
<path d="M61.2738 49.9502L61.2277 50.1148C61.0707 50.0706 60.9357 50.0631 60.8222 50.0918C60.7087 50.1207 60.5859 50.1998 60.454 50.3289C60.3657 50.416 60.203 50.6373 59.9661 50.9927L56.9251 55.3802L56.7474 55.3303L56.4564 51.09L54.0123 54.5613L53.8526 54.5164L53.467 49.0072C53.4384 48.5963 53.416 48.3518 53.3996 48.2735C53.372 48.1443 53.3148 48.0379 53.2281 47.9544C53.1413 47.8709 53.0107 47.8045 52.8359 47.7554L52.8821 47.5908L55.1111 48.2175L55.0649 48.3821L54.9584 48.3521C54.8014 48.308 54.6716 48.3099 54.5688 48.3577C54.466 48.4055 54.4004 48.4799 54.3722 48.5805C54.343 48.6844 54.3413 48.9412 54.3668 49.3512L54.6035 53.068L56.4092 50.4724L56.3737 49.9155L56.345 49.471C56.3244 49.3053 56.2914 49.1554 56.2461 49.0212C56.2234 48.954 56.1892 48.8933 56.1439 48.839C56.0848 48.7647 56.0215 48.7055 55.9543 48.6609C55.903 48.6272 55.8167 48.5935 55.6953 48.5593L55.7415 48.3948L58.0858 49.0539L58.0397 49.2185L57.8799 49.1735C57.714 49.1269 57.5828 49.1284 57.4859 49.1778C57.3889 49.2273 57.3235 49.3129 57.2895 49.4343C57.2471 49.5856 57.2396 49.8681 57.2673 50.282L57.5028 53.8831L59.5798 50.8841C59.813 50.5532 59.9496 50.3165 59.9895 50.1744C60.0086 50.1061 60.0051 50.0365 59.9787 49.9651C59.9525 49.8937 59.9101 49.837 59.8516 49.795C59.7507 49.7219 59.6099 49.6599 59.4295 49.6092L59.4756 49.4446L61.2738 49.9502Z" fill="#010101"/>
<path d="M63.0108 62.0322C63.1659 62.4944 59.034 61.3008 56.2746 61.4633C53.5152 61.6258 50.7558 65.039 57.3297 67.3957C63.9036 69.7524 66.7442 71.5403 67.4746 74.4659C68.205 77.3914 69.8362 91.4968 69.8362 91.4968L77.8298 111.073C77.8298 111.073 88.3325 104.453 91.1731 100.877C94.0136 97.3016 92.7962 90.719 89.5499 85.9244C86.3035 81.1297 77.4572 63.9013 75.1847 60.8944C72.9123 57.8876 70.0159 53.4154 63.1406 52.8755C62.6379 54.5798 62.3909 55.2669 62.3909 55.2669C62.3909 55.2669 58.7065 52.5971 55.2913 53.722C51.8761 54.8469 50.0983 55.8283 50.278 57.5381C50.4578 59.2479 53.6736 58.8965 55.6059 58.1316C57.5381 57.3666 62.3721 60.1283 63.0108 62.0322Z" fill="#F39353"/>
<path d="M24.7417 52.7824C25.9444 53.46 26.827 54.5725 27.7827 55.5693C28.7384 56.5661 29.8834 57.5093 31.2541 57.669C32.1467 57.773 33.0642 57.5325 33.9428 57.7212C34.8791 57.9223 35.6882 58.6373 36.004 59.5424C36.3198 60.4476 36.1313 61.5115 35.5238 62.2527C35.3638 62.4479 35.1721 62.6307 35.0976 62.872C34.9466 63.361 35.2459 63.9106 35.635 64.2427C41.5946 69.3289 36.4739 76.07 36.4739 76.07C36.4739 76.07 17.903 78.3912 17.5381 78.3034C16.916 78.1536 16.214 76.8639 15.7208 76.4557C14.5985 75.5268 13.3267 74.7973 12.1556 73.9309C10.9845 73.0644 9.88652 72.0215 9.30143 70.6863C8.71634 69.3512 8.73809 67.6754 9.65678 66.5442C10.0766 66.0273 10.6512 65.6548 11.2581 65.3815C13.0155 64.59 15.1184 64.61 16.8605 65.4346C17.3509 65.6667 17.8931 65.9664 18.4028 65.7805C18.7859 65.6408 19.0235 65.2639 19.2171 64.9046C20.1222 63.2251 20.7049 61.3722 20.924 59.4764C21.0258 58.5958 21.0489 57.695 20.8512 56.8309C20.6348 55.8849 20.1613 55.0298 19.6082 54.2418C19.253 53.7357 18.3224 52.8597 18.9908 52.2268C19.5047 51.7402 21.0987 51.9462 21.7533 51.9853C22.7917 52.0474 23.828 52.2677 24.7417 52.7824Z" fill="#F39353"/>
<path d="M21.1143 57.0382C21.1593 57.238 21.2266 57.4347 21.253 57.6336C21.2799 57.8358 21.2171 58.0455 21.2262 58.2467C21.2355 58.4499 21.3286 58.6532 21.3211 58.855C21.3137 59.0577 21.328 59.2677 21.3051 59.4689C21.2823 59.6699 21.1509 59.8579 21.1141 60.0574C21.0774 60.256 21.046 60.4562 20.9969 60.6531C20.9481 60.8491 21.0027 61.0779 20.9429 61.272C20.8835 61.465 20.7735 61.6464 20.7046 61.8374C20.6361 62.0275 20.5362 62.2086 20.4596 62.3966C20.3833 62.5838 20.161 62.7076 20.0781 62.8925C19.9953 63.0773 20.0749 63.3374 19.9869 63.5197C19.8987 63.7022 19.7178 63.8388 19.6257 64.0188C19.5331 64.1996 19.5089 64.416 19.4137 64.594C19.3177 64.7733 19.0919 64.8805 18.9947 65.0568C18.8962 65.2352 18.9952 65.5133 18.8969 65.6885C18.8227 65.8749 18.6645 66.047 18.5361 66.1397C18.3882 66.2464 18.1731 66.0829 17.9939 66.0549C17.8375 66.0305 17.604 66.1347 17.4546 65.9998C17.3059 65.8606 17.2563 65.5822 17.0808 65.4713C16.9099 65.3634 16.674 65.3489 16.4822 65.2671C16.2966 65.1879 16.1087 65.0896 15.9076 65.0343C15.7127 64.9806 15.4885 65.0513 15.2828 65.0195C15.0824 64.9884 14.8853 64.9554 14.6781 64.9445C14.4748 64.9339 14.2749 64.9509 14.0683 64.9592C13.8641 64.9674 13.6558 64.9083 13.4515 64.9345C13.248 64.9605 13.0336 64.9429 12.8331 64.9864C12.6317 65.03 12.4275 65.0821 12.2323 65.1428C12.0347 65.2042 11.8666 65.3496 11.6786 65.4279C11.487 65.5077 11.2968 65.5833 11.1185 65.6802C10.9355 65.7796 10.7928 65.9321 10.6274 66.0489C10.457 66.1693 10.3383 66.3305 10.1905 66.4687C10.0384 66.6111 9.91568 66.7521 9.79196 66.9126C9.66553 67.0767 9.45838 67.1763 9.36628 67.3587C9.29571 67.5555 9.31275 67.7674 9.27284 67.9638C9.23154 68.1669 9.1514 68.3562 9.1406 68.5577C9.12959 68.7631 9.18523 68.9606 9.20345 69.163C9.22178 69.3666 9.12873 69.5879 9.17409 69.7871C9.21928 69.9856 9.25133 70.199 9.32084 70.3918C9.38973 70.5829 9.58444 70.7257 9.67475 70.91C9.76414 71.0924 9.84522 71.2786 9.95322 71.453C10.0603 71.6259 10.1755 71.7934 10.2985 71.9572C10.4208 72.1201 10.5043 72.3179 10.6401 72.4707C10.7757 72.6233 10.9521 72.74 11.099 72.8813C11.2466 73.0233 11.4108 73.1455 11.5674 73.2749C11.7258 73.4058 11.9194 73.4937 12.0847 73.6104C12.2321 73.7603 12.3668 73.9115 12.5156 74.0354C12.6766 74.1695 12.7963 74.3443 12.9585 74.4509C13.1325 74.5653 13.3514 74.5821 13.5261 74.6687C13.7114 74.7605 13.8252 75.0176 14.0105 75.0827C14.2042 75.1507 14.4164 75.1866 14.6091 75.2306C14.808 75.276 15.0166 75.3052 15.2135 75.3308C15.4153 75.357 15.6219 75.3862 15.8205 75.3979C16.0239 75.4098 16.2307 75.3637 16.4297 75.367C16.634 75.3705 16.8357 75.4358 17.0341 75.4374C17.2393 75.4391 17.4388 75.4038 17.6362 75.4115C17.8415 75.4194 18.0336 75.4506 18.229 75.474C18.4325 75.4983 18.6563 75.3811 18.8474 75.4322C19.0425 75.4843 19.2436 75.5522 19.4239 75.643C19.5989 75.7311 19.6747 75.9707 19.8341 76.1054C19.9794 76.2282 20.1474 76.3231 20.2783 76.4927C20.393 76.6412 20.6418 76.725 20.7445 76.9148C20.8338 77.0798 20.9016 77.2832 20.9813 77.4831C21.0512 77.6587 21.1225 77.8553 21.1846 78.0602C21.2397 78.242 21.0946 78.4886 21.1431 78.6952C21.187 78.8818 21.4477 79.0329 21.4861 79.2409C21.521 79.4304 21.3196 79.6676 21.3498 79.8758C21.3776 80.0676 21.3972 80.2618 21.4209 80.4703C21.4345 80.6697 21.4937 80.8416 21.4314 81.0331C21.3726 81.2138 21.3612 81.4305 21.2451 81.6033C21.1399 81.76 20.9593 81.873 20.8148 82.0225C20.6827 82.1593 20.5113 82.2595 20.3524 82.3898C20.2037 82.5116 20.0993 82.7012 19.932 82.817C19.7724 82.9274 19.5811 82.9983 19.4086 83.1029C19.2413 83.2044 19.062 83.2889 18.8864 83.3845C18.713 83.4789 18.5742 83.6438 18.3964 83.7321C18.218 83.8207 18.0567 83.9503 17.8774 84.0325C17.695 84.1162 17.4397 84.031 17.2602 84.1077C17.0735 84.1875 16.9432 84.3931 16.764 84.4649C16.573 84.5415 16.401 84.6525 16.2234 84.7197C16.0265 84.7942 15.7682 84.6687 15.5945 84.7311C15.3864 84.8059 15.2252 84.948 15.0616 85.0044C14.8034 85.0935 14.656 85.2682 14.5484 85.3081C14.363 85.4031 14.1827 85.5038 14.0013 85.5805C13.8095 85.6617 13.6012 85.7051 13.4138 85.7665C13.2163 85.8311 12.981 85.7384 12.7882 85.7816C12.5862 85.8268 12.4036 85.9374 12.2067 85.9598C12.0021 85.983 11.8 85.9312 11.6007 85.9305C11.3962 85.9298 11.1804 86.0867 10.9813 86.0617C10.7799 86.0364 10.5708 85.9849 10.3747 85.9356C10.1793 85.8864 9.97303 85.8283 9.78275 85.7561C9.59539 85.685 9.40027 85.598 9.21777 85.5054C9.03984 85.4151 8.85695 85.3074 8.68348 85.1975C8.5154 85.0909 8.3474 84.9637 8.18336 84.8395C8.02494 84.7195 7.9005 84.5443 7.74572 84.4084C7.59642 84.2773 7.38453 84.2004 7.2385 84.0551C7.09761 83.9149 6.95636 83.7606 6.81841 83.6077C6.68517 83.46 6.71568 83.1654 6.58509 83.0063C6.45875 82.8523 6.24517 82.7648 6.12123 82.6006C6.00129 82.4417 5.96168 82.2216 5.84391 82.0534C5.72953 81.8902 5.52426 81.7858 5.41185 81.6142C5.30247 81.4471 5.31174 81.2024 5.20417 81.0277C5.09929 80.8575 4.95106 80.7125 4.84785 80.5354C4.74704 80.3623 4.67004 80.1746 4.57076 79.9952C4.47373 79.8199 4.36143 79.6519 4.26581 79.4708C4.17222 79.2936 4.12985 79.0891 4.03756 78.9066C3.94705 78.7276 3.7553 78.5977 3.666 78.4139C3.57825 78.2332 3.48643 78.0524 3.39981 77.8672C3.31458 77.685 3.29399 77.4716 3.20981 77.2853C3.127 77.102 3.07122 76.906 2.98939 76.719C2.90864 76.5344 2.70866 76.4 2.62883 76.2119C2.55006 76.0263 2.40336 75.8669 2.32545 75.6781C2.24791 75.4901 2.24364 75.271 2.17003 75.0813C2.09647 74.8916 1.96839 74.721 1.89889 74.5298C1.82937 74.3386 1.8683 74.1083 1.80298 73.9158C1.73759 73.723 1.56881 73.5633 1.50777 73.3695C1.44661 73.1752 1.45076 72.9599 1.3941 72.7648C1.33729 72.5691 1.35434 72.3535 1.30219 72.1572C1.24987 71.9602 1.21585 71.7603 1.16835 71.5629C1.12065 71.3646 0.929883 71.1992 0.887197 71.0008C0.844295 70.8013 0.813514 70.5979 0.775818 70.3985C0.737903 70.198 0.680988 69.9991 0.648483 69.7988C0.615767 69.5973 0.706893 69.377 0.679802 69.176C0.652519 68.9735 0.578435 68.7775 0.557006 68.5759C0.535411 68.3727 0.497376 68.1708 0.48188 67.9686C0.466255 67.7648 0.421346 67.5618 0.412079 67.3594C0.402729 67.1551 0.594755 66.9465 0.592037 66.744C0.589293 66.5395 0.39628 66.3361 0.400457 66.1336C0.404675 65.9291 0.568542 65.7321 0.579985 65.5299C0.591541 65.3257 0.567442 65.1223 0.586542 64.9208C0.605835 64.7172 0.568527 64.5087 0.595697 64.3081C0.623138 64.1056 0.59832 63.8939 0.633983 63.6946C0.670003 63.4934 0.756759 63.3012 0.801358 63.1038C0.846382 62.9044 0.898637 62.7067 0.952602 62.5115C1.00704 62.3146 0.998718 62.0964 1.06245 61.9041C1.12667 61.7103 1.21331 61.5206 1.28718 61.3318C1.36152 61.1419 1.57231 61.0102 1.65662 60.8256C1.7413 60.6403 1.79658 60.4439 1.89154 60.2645C1.98668 60.0846 2.0442 59.8837 2.14989 59.7101C2.25553 59.5366 2.36352 59.3627 2.47991 59.1957C2.5959 59.0293 2.75378 58.8935 2.88065 58.734C3.00671 58.5755 3.11262 58.3992 3.24963 58.2479C3.38526 58.0981 3.45972 57.8821 3.6063 57.7397C3.75105 57.5991 4.05584 57.6328 4.21146 57.4997C4.36456 57.3687 4.42795 57.1276 4.59175 57.0042C4.7525 56.8832 4.9556 56.8192 5.12684 56.7058C5.29439 56.5948 5.41975 56.4128 5.59751 56.3094C5.76284 56.2024 5.91291 56.0683 6.08286 55.9611C6.24973 55.8559 6.4802 55.8491 6.65123 55.7442C6.81969 55.6408 6.9587 55.4858 7.13091 55.3833C7.30101 55.2821 7.4992 55.2265 7.67269 55.1266C7.84436 55.0278 7.97355 54.851 8.14827 54.754C8.32175 54.6577 8.51804 54.6004 8.69426 54.5064C8.86959 54.413 9.02024 54.2689 9.19803 54.1782C9.37524 54.0879 9.6011 54.0936 9.78051 54.0065C9.95965 53.9196 10.1235 53.8001 10.3045 53.7169C10.4856 53.6337 10.6362 53.4791 10.819 53.4001C11.0021 53.321 11.2631 53.4299 11.4476 53.3556C11.6328 53.281 11.8163 53.2112 12.0027 53.1419C12.1899 53.0723 12.32 52.8449 12.5082 52.7811C12.6975 52.7169 12.9055 52.7096 13.0955 52.6519C13.2869 52.5937 13.5061 52.6425 13.6979 52.5913C13.8912 52.5398 14.0457 52.338 14.2392 52.2941C14.4343 52.2499 14.6219 52.1569 14.8169 52.121C15.0137 52.0848 15.245 52.2694 15.4414 52.2422C15.6396 52.2148 15.8318 52.1897 16.0293 52.1721C16.2285 52.1544 16.4188 52.0636 16.6171 52.0564C16.8168 52.0492 17.0146 52.0275 17.2129 52.0316C17.4126 52.0358 17.6142 52.004 17.8122 52.0203C18.0109 52.0366 18.2141 52.0366 18.4108 52.0658C18.6078 52.0949 18.7763 52.2685 18.9709 52.3112C19.1335 52.351 19.2331 52.4557 19.3855 52.6402C19.4982 52.7766 19.5967 52.9302 19.7021 53.1228C19.792 53.2873 19.8846 53.456 19.968 53.6481C20.0451 53.8256 20.1404 53.9991 20.2111 54.1903C20.2799 54.3763 20.4489 54.5299 20.511 54.7199C20.574 54.9127 20.6133 55.1125 20.6686 55.3002C20.7274 55.4995 20.6533 55.7284 20.7025 55.9111C20.7593 56.1219 20.8618 56.3027 20.9046 56.4757C20.9667 56.7262 21.085 56.9108 21.1143 57.0382Z" fill="#F7C400"/>
<path d="M34.1816 62.2458C34.4544 62.2458 34.6756 62.0243 34.6756 61.7511C34.6756 61.4778 34.4544 61.2563 34.1816 61.2563C33.9087 61.2563 33.6875 61.4778 33.6875 61.7511C33.6875 62.0243 33.9087 62.2458 34.1816 62.2458Z" fill="#E40524"/>
<path d="M35.1699 61.2565C35.4427 61.2565 35.6639 61.035 35.6639 60.7618C35.6639 60.4886 35.4427 60.2671 35.1699 60.2671C34.897 60.2671 34.6758 60.4886 34.6758 60.7618C34.6758 61.035 34.897 61.2565 35.1699 61.2565Z" fill="#E40524"/>
<path d="M11.1432 67.2476C10.4706 68.1387 10.5828 69.4158 11.0249 70.4413C11.9222 72.5225 14.107 73.9791 16.3706 74.0055" stroke="#E30518" stroke-width="0.98552" stroke-miterlimit="10" stroke-linecap="round"/>
<path d="M29.5478 62.6885C30.7519 61.1784 30.1578 58.699 28.221 57.1505C26.2841 55.6021 23.7378 55.571 22.5337 57.0811C21.3296 58.5912 21.9237 61.0707 23.8606 62.6191C25.7974 64.1676 28.3437 64.1986 29.5478 62.6885Z" stroke="#E30518" stroke-width="0.98552" stroke-miterlimit="10"/>
<path d="M34.5458 56.4209C35.7499 54.9108 35.1559 52.4314 33.219 50.8829C31.2821 49.3345 28.7359 49.3034 27.5318 50.8135C26.3277 52.3237 26.9217 54.8031 28.8586 56.3516C30.7955 57.9 33.3418 57.9311 34.5458 56.4209Z" stroke="#E30518" stroke-width="0.98552" stroke-miterlimit="10"/>
<path d="M28.2227 57.1504L28.86 56.3511" stroke="#E30518" stroke-width="0.98552" stroke-miterlimit="10"/>
<path d="M62.0781 55.1416C63.6963 55.9919 65.1129 57.2237 66.1804 58.7088" stroke="#E30518" stroke-width="0.98552" stroke-miterlimit="10" stroke-linecap="round"/>
<path d="M62.9297 54.0298C64.7676 54.0641 66.5814 54.8369 67.8805 56.1391" stroke="#E30518" stroke-width="0.98552" stroke-miterlimit="10" stroke-linecap="round"/>
<path d="M53.036 57.7228C53.8107 57.4836 54.2826 56.7825 54.09 56.1568C53.8974 55.5312 53.1131 55.2179 52.3384 55.4571C51.5636 55.6962 51.0917 56.3973 51.2844 57.023C51.477 57.6486 52.2612 57.9619 53.036 57.7228Z" stroke="#E30518" stroke-width="0.98552" stroke-miterlimit="10"/>
<path d="M58.0499 64.5791C58.2581 63.8367 57.6816 63.0253 56.7623 62.7668C55.8429 62.5083 54.9289 62.9006 54.7207 63.643C54.5125 64.3855 55.089 65.1968 56.0084 65.4553C56.9277 65.7138 57.8417 65.3215 58.0499 64.5791Z" stroke="#E30518" stroke-width="0.98552" stroke-miterlimit="10"/>
<path d="M95.5574 50.1831L93.625 53.9113" stroke="#E30518" stroke-width="1.29667" stroke-miterlimit="10" stroke-linecap="round"/>
<path d="M93.6257 49.7817L91.6934 53.5099" stroke="#E30518" stroke-width="1.29667" stroke-miterlimit="10" stroke-linecap="round"/>
<path d="M129.248 20.2236L132.197 21.9041" stroke="#E30518" stroke-width="1.04875" stroke-miterlimit="10" stroke-linecap="round"/>
<path d="M128.863 21.7749L131.812 23.4554" stroke="#E30518" stroke-width="1.04875" stroke-miterlimit="10" stroke-linecap="round"/>
<path d="M51.4432 64.9086C51.989 64.9086 52.4314 64.4656 52.4314 63.9191C52.4314 63.3727 51.989 62.9297 51.4432 62.9297C50.8975 62.9297 50.4551 63.3727 50.4551 63.9191C50.4551 64.4656 50.8975 64.9086 51.4432 64.9086Z" fill="#00384A" stroke="white" stroke-width="0.98552" stroke-miterlimit="10"/>
</g>
<defs>
<linearGradient id="paint0_linear_14264_6890" x1="0.927644" y1="121.632" x2="63.6235" y2="87.9401" gradientUnits="userSpaceOnUse">
<stop stop-color="#E40524"/>
<stop offset="0.0386203" stop-color="#E40524" stop-opacity="0.721278"/>
<stop offset="0.102823" stop-color="#E40524" stop-opacity="0.392293"/>
<stop offset="0.168331" stop-color="#E40524" stop-opacity="0.188559"/>
<stop offset="0.233956" stop-color="#E40524" stop-opacity="0.0769604"/>
<stop offset="0.299746" stop-color="#E40524" stop-opacity="0.0242562"/>
<stop offset="0.36581" stop-color="#E40524" stop-opacity="0.01"/>
<stop offset="0.432308" stop-color="#E40524" stop-opacity="0.01"/>
<stop offset="0.5" stop-color="#E40524" stop-opacity="0"/>
<stop offset="0.56417" stop-color="#E40524" stop-opacity="0.01"/>
<stop offset="0.630348" stop-color="#E40524" stop-opacity="0.01"/>
<stop offset="0.697451" stop-color="#E40524" stop-opacity="0.0265843"/>
<stop offset="0.765244" stop-color="#E40524" stop-opacity="0.0841564"/>
<stop offset="0.833548" stop-color="#E40524" stop-opacity="0.205874"/>
<stop offset="0.902306" stop-color="#E40524" stop-opacity="0.427951"/>
<stop offset="0.970134" stop-color="#E40524" stop-opacity="0.786264"/>
<stop offset="1" stop-color="#E40524"/>
</linearGradient>
<clipPath id="clip0_14264_6890">
<rect width="145" height="127" fill="white"/>
</clipPath>
</defs>
</svg>
