<svg width="145" height="124" viewBox="0 0 145 124" fill="none" xmlns="http://www.w3.org/2000/svg">
<g clip-path="url(#clip0_16155_29105)">
<g clip-path="url(#clip1_16155_29105)">
<path d="M144.999 41.4007C144.996 41.3393 144.994 41.3051 144.994 41.3051L124.043 27.5625C124.043 27.5625 101.641 78.9765 61.7031 90.2553C67.4517 102.824 74.3206 114.724 77.7763 120.498C110.586 105.77 135.617 76.7774 144.999 41.4007Z" fill="#005B3F"/>
<path d="M143.214 25.4703L139.194 39.3365L128.027 31.225L128.798 29.5432C130.377 26.1016 130.005 22.0776 127.816 18.9893C124.44 14.228 120.457 7.12687 124.005 4L143.214 25.4703Z" fill="#010101"/>
<path d="M97.906 71.2427L80.2227 68.9684L87.9898 53.7625L90.1887 54.3857C94.6885 55.661 99.5268 54.4389 102.877 51.172C108.042 46.1353 115.946 39.9087 120.438 43.6532L97.906 71.2427Z" fill="#010101"/>
<path d="M118.629 42.8633L96.2422 71.029" stroke="#E30518" stroke-width="1.29667" stroke-miterlimit="10" stroke-linecap="round"/>
<path d="M123.305 4.80859L142.858 26.7017" stroke="#E30518" stroke-width="1.04875" stroke-miterlimit="10" stroke-linecap="round"/>
<path d="M95.2185 50.1086C95.0811 50.433 83.0434 73.322 83.0434 73.322L67.9361 65.4539L69.7934 95.4957L42.6484 80.4748C42.6484 80.4748 43.7976 35.4166 55.6495 30.262C69.7934 24.1106 95.2185 50.1086 95.2185 50.1086Z" fill="#005B3F"/>
<path d="M69.7941 95.4956C62.1848 78.7141 43.9107 78.5829 24.4126 80.9447C4.91447 83.3064 1.74141 90.1627 0.511695 94.3279C-0.913803 99.1562 1.04188 122.589 1.51386 127.951C10.202 129.945 19.248 130.999 28.5401 130.999C46.6045 130.999 63.7397 127.017 79.12 119.884C79.1112 119.849 78.307 116.67 77.7918 115.084C76.8604 112.217 74.6838 106.279 69.7941 95.4956Z" fill="#ED6FA7"/>
<path d="M69.7941 95.4956C62.1848 78.7141 43.9107 78.5829 24.4126 80.9447C4.91447 83.3064 1.74141 90.1627 0.511695 94.3279C-0.913803 99.1562 1.04188 122.589 1.51386 127.951C10.202 129.945 19.248 130.999 28.5401 130.999C46.6045 130.999 63.7397 127.017 79.12 119.884C79.1112 119.849 78.307 116.67 77.7918 115.084C76.8604 112.217 74.6838 106.279 69.7941 95.4956Z" fill="url(#paint0_linear_16155_29105)"/>
<path d="M60.4895 65.8212L65.3751 48.5023C65.757 47.1486 64.9776 45.7397 63.6289 45.3459L55.8348 43.0698C54.5358 42.6905 53.1664 43.3893 52.7096 44.6646L45.3894 65.0991C44.891 66.4904 45.6684 68.0143 47.0862 68.4255L56.2109 71.0719C57.5446 71.4587 58.9431 70.7099 59.3624 69.3844L60.4895 65.8212Z" fill="#00384A" stroke="white" stroke-width="0.98552" stroke-miterlimit="10"/>
<path d="M59.5535 64.2267L64.0494 49.0173C64.3617 47.9102 63.7243 46.758 62.6213 46.4359L56.2472 44.5745C55.1849 44.2643 54.065 44.8357 53.6914 45.8787L47.5181 62.773C47.1106 63.9108 47.7463 65.157 48.9058 65.4934L56.368 67.6576C57.4588 67.974 58.6025 67.3616 58.9454 66.2776L59.5535 64.2267Z" fill="white"/>
<path d="M61.2738 53.9492L61.2277 54.1138C61.0707 54.0697 60.9357 54.0621 60.8222 54.0908C60.7087 54.1197 60.5859 54.1988 60.454 54.3279C60.3657 54.415 60.203 54.6363 59.9661 54.9917L56.9251 59.3792L56.7474 59.3293L56.4564 55.089L54.0123 58.5603L53.8526 58.5154L53.467 53.0062C53.4384 52.5953 53.416 52.3508 53.3996 52.2726C53.372 52.1433 53.3148 52.037 53.2281 51.9535C53.1413 51.8699 53.0107 51.8035 52.8359 51.7544L52.8821 51.5898L55.1111 52.2165L55.0649 52.3811L54.9584 52.3512C54.8014 52.307 54.6716 52.3089 54.5688 52.3567C54.466 52.4045 54.4004 52.4789 54.3722 52.5796C54.343 52.6834 54.3413 52.9402 54.3668 53.3503L54.6035 57.067L56.4092 54.4714L56.3737 53.9145L56.345 53.47C56.3244 53.3043 56.2914 53.1544 56.2461 53.0202C56.2234 52.953 56.1892 52.8923 56.1439 52.838C56.0848 52.7637 56.0215 52.7045 55.9543 52.6599C55.903 52.6263 55.8167 52.5925 55.6953 52.5584L55.7415 52.3938L58.0858 53.0529L58.0397 53.2175L57.8799 53.1726C57.714 53.1259 57.5828 53.1274 57.4859 53.1769C57.3889 53.2263 57.3235 53.312 57.2895 53.4334C57.2471 53.5846 57.2396 53.8671 57.2673 54.281L57.5028 57.8821L59.5798 54.8831C59.813 54.5523 59.9496 54.3156 59.9895 54.1734C60.0086 54.1051 60.0051 54.0355 59.9787 53.9641C59.9525 53.8927 59.9101 53.8361 59.8516 53.7941C59.7507 53.7209 59.6099 53.659 59.4295 53.6082L59.4756 53.4436L61.2738 53.9492Z" fill="#010101"/>
<path d="M63.0108 66.0317C63.1659 66.4939 59.034 65.3003 56.2746 65.4628C53.5152 65.6253 50.7558 69.0385 57.3297 71.3952C63.9036 73.7519 66.7442 75.5398 67.4746 78.4654C68.205 81.3909 69.8362 95.4963 69.8362 95.4963L77.8298 115.072C77.8298 115.072 88.3325 108.452 91.1731 104.877C94.0136 101.301 92.7962 94.7186 89.5499 89.9239C86.3035 85.1292 77.4572 67.9008 75.1847 64.894C72.9123 61.8871 70.0159 57.4149 63.1406 56.875C62.6379 58.5793 62.3909 59.2664 62.3909 59.2664C62.3909 59.2664 58.7065 56.5966 55.2913 57.7215C51.8761 58.8464 50.0983 59.8278 50.278 61.5376C50.4578 63.2474 53.6736 62.896 55.6059 62.1311C57.5381 61.3662 62.3721 64.1278 63.0108 66.0317Z" fill="#F39353"/>
<path d="M24.7417 56.7819C25.9444 57.4595 26.827 58.5721 27.7827 59.5688C28.7384 60.5656 29.8834 61.5088 31.2541 61.6685C32.1467 61.7725 33.0642 61.532 33.9428 61.7207C34.8791 61.9218 35.6882 62.6368 36.004 63.5419C36.3198 64.4471 36.1313 65.511 35.5238 66.2522C35.3638 66.4474 35.1721 66.6302 35.0976 66.8715C34.9466 67.3605 35.2459 67.9102 35.635 68.2422C41.5946 73.3285 36.4739 80.0695 36.4739 80.0695C36.4739 80.0695 17.903 82.3907 17.5381 82.3029C16.916 82.1532 16.214 80.8634 15.7208 80.4552C14.5985 79.5264 13.3267 78.7968 12.1556 77.9304C10.9845 77.0639 9.88652 76.021 9.30143 74.6858C8.71634 73.3507 8.73809 71.6749 9.65678 70.5437C10.0766 70.0268 10.6512 69.6543 11.2581 69.381C13.0155 68.5895 15.1184 68.6095 16.8605 69.4341C17.3509 69.6662 17.8931 69.9659 18.4028 69.78C18.7859 69.6403 19.0235 69.2634 19.2171 68.9041C20.1222 67.2246 20.7049 65.3717 20.924 63.4759C21.0258 62.5953 21.0489 61.6945 20.8512 60.8304C20.6348 59.8845 20.1613 59.0293 19.6082 58.2413C19.253 57.7352 18.3224 56.8592 18.9908 56.2263C19.5047 55.7397 21.0987 55.9457 21.7533 55.9848C22.7917 56.0469 23.828 56.2672 24.7417 56.7819Z" fill="#F39353"/>
<path d="M21.1123 61.0382C21.1573 61.238 21.2246 61.4347 21.2511 61.6336C21.278 61.8358 21.2151 62.0455 21.2243 62.2467C21.2335 62.4499 21.3266 62.6532 21.3192 62.855C21.3117 63.0577 21.3261 63.2677 21.3032 63.4689C21.2803 63.6699 21.1489 63.8579 21.1121 64.0574C21.0754 64.256 21.0441 64.4562 20.995 64.6531C20.9461 64.8491 21.0008 65.0779 20.941 65.272C20.8816 65.465 20.7716 65.6464 20.7027 65.8374C20.6341 66.0275 20.5342 66.2086 20.4577 66.3966C20.3814 66.5838 20.159 66.7076 20.0761 66.8925C19.9933 67.0773 20.073 67.3374 19.9849 67.5197C19.8967 67.7022 19.7159 67.8388 19.6237 68.0188C19.5311 68.1996 19.507 68.416 19.4117 68.594C19.3158 68.7733 19.09 68.8805 18.9927 69.0568C18.8943 69.2352 18.9933 69.5133 18.8949 69.6885C18.8207 69.8749 18.6626 70.047 18.5341 70.1397C18.3862 70.2464 18.1712 70.0829 17.9919 70.0549C17.8356 70.0305 17.602 70.1347 17.4527 69.9998C17.3039 69.8606 17.2543 69.5822 17.0788 69.4713C16.9079 69.3634 16.672 69.3489 16.4803 69.2671C16.2946 69.1879 16.1067 69.0896 15.9056 69.0343C15.7107 68.9806 15.4866 69.0513 15.2809 69.0195C15.0804 68.9884 14.8834 68.9554 14.6761 68.9445C14.4728 68.9339 14.273 68.9509 14.0664 68.9592C13.8621 68.9674 13.6539 68.9083 13.4496 68.9345C13.246 68.9605 13.0317 68.9429 12.8312 68.9864C12.6298 69.03 12.4255 69.0821 12.2303 69.1428C12.0328 69.2042 11.8647 69.3496 11.6766 69.4279C11.4851 69.5077 11.2948 69.5833 11.1165 69.6802C10.9335 69.7796 10.7908 69.9321 10.6255 70.0489C10.455 70.1693 10.3363 70.3305 10.1886 70.4687C10.0364 70.6111 9.91373 70.7521 9.79001 70.9126C9.66357 71.0767 9.45643 71.1763 9.36432 71.3587C9.29376 71.5555 9.3108 71.7674 9.27089 71.9638C9.22959 72.1669 9.14945 72.3562 9.13865 72.5577C9.12764 72.7631 9.18328 72.9606 9.2015 73.163C9.21982 73.3666 9.12677 73.5879 9.17213 73.7871C9.21733 73.9856 9.24938 74.199 9.31889 74.3918C9.38778 74.5829 9.58249 74.7257 9.6728 74.91C9.76219 75.0924 9.84327 75.2786 9.95127 75.453C10.0583 75.6259 10.1736 75.7934 10.2966 75.9572C10.4189 76.1201 10.5023 76.3179 10.6381 76.4707C10.7738 76.6233 10.9502 76.74 11.0971 76.8813C11.2447 77.0233 11.4088 77.1455 11.5654 77.2749C11.7239 77.4058 11.9175 77.4937 12.0828 77.6104C12.2301 77.7603 12.3648 77.9115 12.5136 78.0354C12.6747 78.1695 12.7943 78.3443 12.9565 78.4509C13.1306 78.5653 13.3494 78.5821 13.5241 78.6687C13.7095 78.7605 13.8232 79.0176 14.0086 79.0827C14.2022 79.1507 14.4144 79.1866 14.6071 79.2306C14.806 79.276 15.0146 79.3052 15.2116 79.3308C15.4134 79.357 15.6199 79.3862 15.8186 79.3979C16.022 79.4098 16.2288 79.3637 16.4277 79.367C16.6321 79.3705 16.8337 79.4358 17.0321 79.4374C17.2373 79.4391 17.4368 79.4038 17.6343 79.4115C17.8396 79.4194 18.0316 79.4506 18.2271 79.474C18.4306 79.4983 18.6543 79.3811 18.8454 79.4322C19.0405 79.4843 19.2417 79.5522 19.422 79.643C19.5969 79.7311 19.6728 79.9707 19.8321 80.1054C19.9774 80.2282 20.1454 80.3231 20.2764 80.4927C20.3911 80.6412 20.6398 80.725 20.7425 80.9148C20.8319 81.0798 20.8997 81.2832 20.9793 81.4831C21.0493 81.6587 21.1206 81.8553 21.1827 82.0602C21.2377 82.242 21.0926 82.4886 21.1412 82.6952C21.1851 82.8818 21.4458 83.0329 21.4841 83.2409C21.5191 83.4304 21.3176 83.6676 21.3478 83.8758C21.3757 84.0676 21.3953 84.2618 21.419 84.4703C21.4325 84.6697 21.4917 84.8416 21.4294 85.0331C21.3706 85.2138 21.3592 85.4305 21.2431 85.6033C21.1379 85.76 20.9573 85.873 20.8129 86.0225C20.6808 86.1593 20.5093 86.2595 20.3504 86.3898C20.2018 86.5116 20.0973 86.7012 19.93 86.817C19.7704 86.9274 19.5791 86.9983 19.4067 87.1029C19.2393 87.2044 19.0601 87.2889 18.8845 87.3845C18.7111 87.4789 18.5722 87.6438 18.3944 87.7321C18.216 87.8207 18.0547 87.9503 17.8755 88.0325C17.693 88.1162 17.4377 88.031 17.2582 88.1077C17.0715 88.1875 16.9413 88.3931 16.762 88.4649C16.5711 88.5415 16.399 88.6525 16.2215 88.7197C16.0246 88.7942 15.7662 88.6687 15.5926 88.7311C15.3844 88.8059 15.2232 88.948 15.0597 89.0044C14.8015 89.0935 14.654 89.2682 14.5465 89.3081C14.3611 89.4031 14.1807 89.5038 13.9993 89.5805C13.8075 89.6617 13.5993 89.7051 13.4119 89.7665C13.2144 89.8311 12.979 89.7384 12.7863 89.7816C12.5843 89.8268 12.4017 89.9374 12.2047 89.9598C12.0002 89.983 11.7981 89.9312 11.5988 89.9305C11.3942 89.9298 11.1784 90.0867 10.9793 90.0617C10.7779 90.0364 10.5688 89.9849 10.3728 89.9356C10.1773 89.8864 9.97108 89.8283 9.78079 89.7561C9.59344 89.685 9.39832 89.598 9.21581 89.5054C9.03789 89.4151 8.855 89.3074 8.68153 89.1975C8.51345 89.0909 8.34545 88.9637 8.18141 88.8395C8.02299 88.7195 7.89855 88.5443 7.74377 88.4084C7.59447 88.2773 7.38258 88.2004 7.23655 88.0551C7.09565 87.9149 6.95441 87.7606 6.81646 87.6077C6.68322 87.46 6.71373 87.1654 6.58314 87.0063C6.45679 86.8523 6.24322 86.7648 6.11927 86.6006C5.99933 86.4417 5.95972 86.2216 5.84196 86.0534C5.72757 85.8902 5.5223 85.7858 5.4099 85.6142C5.30052 85.4471 5.30979 85.2024 5.20221 85.0277C5.09734 84.8575 4.94911 84.7125 4.84589 84.5354C4.74508 84.3623 4.66809 84.1746 4.56881 83.9952C4.47178 83.8199 4.35947 83.6519 4.26385 83.4708C4.17026 83.2936 4.1279 83.0891 4.03561 82.9066C3.9451 82.7276 3.75335 82.5977 3.66405 82.4139C3.5763 82.2332 3.48448 82.0524 3.39786 81.8672C3.31263 81.685 3.29204 81.4716 3.20786 81.2853C3.12505 81.102 3.06927 80.906 2.98744 80.719C2.90669 80.5344 2.70671 80.4 2.62687 80.2119C2.54811 80.0263 2.40141 79.8669 2.3235 79.6781C2.24595 79.4901 2.24168 79.271 2.16808 79.0813C2.09451 78.8916 1.96643 78.721 1.89694 78.5298C1.82741 78.3386 1.86635 78.1083 1.80103 77.9158C1.73564 77.723 1.56685 77.5633 1.50581 77.3695C1.44465 77.1752 1.44881 76.9599 1.39215 76.7648C1.33534 76.5691 1.35239 76.3535 1.30024 76.1572C1.24791 75.9602 1.21389 75.7603 1.1664 75.5629C1.1187 75.3646 0.927929 75.1992 0.885244 75.0008C0.842342 74.8013 0.811561 74.5979 0.773864 74.3985C0.73595 74.198 0.679035 73.9991 0.64653 73.7988C0.613814 73.5973 0.70494 73.377 0.677849 73.176C0.650566 72.9735 0.576482 72.7775 0.555053 72.5759C0.533458 72.3727 0.495423 72.1708 0.479927 71.9686C0.464302 71.7648 0.419393 71.5618 0.410125 71.3594C0.400776 71.1551 0.592802 70.9465 0.590084 70.744C0.58734 70.5395 0.394327 70.3361 0.398504 70.1336C0.402722 69.9291 0.566589 69.7321 0.578032 69.5299C0.589588 69.3257 0.565489 69.1223 0.584589 68.9208C0.603882 68.7172 0.566574 68.5087 0.593744 68.3081C0.621185 68.1056 0.596367 67.8939 0.63203 67.6946C0.66805 67.4934 0.754806 67.3012 0.799404 67.1038C0.844429 66.9044 0.896684 66.7067 0.950649 66.5115C1.00508 66.3146 0.996765 66.0964 1.0605 65.9041C1.12472 65.7103 1.21136 65.5206 1.28523 65.3318C1.35956 65.1419 1.57035 65.0102 1.65467 64.8256C1.73934 64.6403 1.79463 64.4439 1.88958 64.2645C1.98473 64.0846 2.04225 63.8837 2.14794 63.7101C2.25358 63.5366 2.36157 63.3627 2.47796 63.1957C2.59394 63.0293 2.75183 62.8935 2.8787 62.734C3.00476 62.5755 3.11066 62.3992 3.24768 62.2479C3.38331 62.0981 3.45777 61.8821 3.60434 61.7397C3.7491 61.5991 4.05389 61.6328 4.20951 61.4997C4.36261 61.3687 4.426 61.1276 4.5898 61.0042C4.75055 60.8832 4.95365 60.8192 5.12488 60.7058C5.29244 60.5948 5.41779 60.4128 5.59555 60.3094C5.76089 60.2024 5.91095 60.0683 6.08091 59.9611C6.24778 59.8559 6.47825 59.8491 6.64927 59.7442C6.81773 59.6408 6.95675 59.4858 7.12896 59.3833C7.29906 59.2821 7.49725 59.2265 7.67073 59.1266C7.84241 59.0278 7.97159 58.851 8.14631 58.754C8.3198 58.6577 8.51608 58.6004 8.69231 58.5064C8.86764 58.413 9.01828 58.2689 9.19608 58.1782C9.37329 58.0879 9.59915 58.0936 9.77856 58.0065C9.95769 57.9196 10.1215 57.8001 10.3026 57.7169C10.4837 57.6337 10.6343 57.4791 10.8171 57.4001C11.0002 57.321 11.2611 57.4299 11.4457 57.3556C11.6308 57.281 11.8143 57.2112 12.0007 57.1419C12.188 57.0723 12.318 56.8449 12.5062 56.7811C12.6955 56.7169 12.9035 56.7096 13.0936 56.6519C13.2849 56.5937 13.5041 56.6425 13.6959 56.5913C13.8892 56.5398 14.0438 56.338 14.2372 56.2941C14.4323 56.2499 14.62 56.1569 14.815 56.121C15.0117 56.0848 15.243 56.2694 15.4394 56.2422C15.6376 56.2148 15.8298 56.1897 16.0273 56.1721C16.2266 56.1544 16.4169 56.0636 16.6151 56.0564C16.8148 56.0492 17.0126 56.0275 17.211 56.0316C17.4106 56.0358 17.6122 56.004 17.8102 56.0203C18.009 56.0366 18.2121 56.0366 18.4089 56.0658C18.6058 56.0949 18.7743 56.2685 18.9689 56.3112C19.1316 56.351 19.2311 56.4557 19.3835 56.6402C19.4963 56.7766 19.5948 56.9302 19.7001 57.1228C19.79 57.2873 19.8827 57.456 19.9661 57.6481C20.0431 57.8256 20.1384 57.9991 20.2092 58.1903C20.278 58.3763 20.4469 58.5299 20.509 58.7199C20.572 58.9127 20.6113 59.1125 20.6667 59.3002C20.7254 59.4995 20.6513 59.7284 20.7005 59.9111C20.7573 60.1219 20.8598 60.3027 20.9027 60.4757C20.9648 60.7262 21.083 60.9108 21.1123 61.0382Z" fill="#F7C400"/>
<path d="M34.1816 66.2453C34.4544 66.2453 34.6756 66.0238 34.6756 65.7506C34.6756 65.4774 34.4544 65.2559 34.1816 65.2559C33.9087 65.2559 33.6875 65.4774 33.6875 65.7506C33.6875 66.0238 33.9087 66.2453 34.1816 66.2453Z" fill="#E40524"/>
<path d="M35.1699 65.257C35.4427 65.257 35.6639 65.0355 35.6639 64.7623C35.6639 64.4891 35.4427 64.2676 35.1699 64.2676C34.897 64.2676 34.6758 64.4891 34.6758 64.7623C34.6758 65.0355 34.897 65.257 35.1699 65.257Z" fill="#E40524"/>
<path d="M11.1412 71.248C10.4686 72.1392 10.5808 73.4163 11.023 74.4418C11.9203 76.523 14.105 77.9796 16.3687 78.006" stroke="#E30518" stroke-width="0.98552" stroke-miterlimit="10" stroke-linecap="round"/>
<path d="M29.5458 66.6895C30.7499 65.1794 30.1559 62.6999 28.219 61.1515C26.2821 59.603 23.7359 59.572 22.5318 61.0821C21.3277 62.5922 21.9217 65.0717 23.8586 66.6201C25.7955 68.1685 28.3418 68.1996 29.5458 66.6895Z" stroke="#E30518" stroke-width="0.98552" stroke-miterlimit="10"/>
<path d="M34.5458 60.42C35.7499 58.9098 35.1559 56.4304 33.219 54.882C31.2821 53.3335 28.7359 53.3024 27.5318 54.8126C26.3277 56.3227 26.9217 58.8021 28.8586 60.3506C30.7955 61.899 33.3418 61.9301 34.5458 60.42Z" stroke="#E30518" stroke-width="0.98552" stroke-miterlimit="10"/>
<path d="M28.2227 61.1509L28.86 60.3516" stroke="#E30518" stroke-width="0.98552" stroke-miterlimit="10"/>
<path d="M62.0781 59.1406C63.6963 59.9909 65.1129 61.2227 66.1804 62.7078" stroke="#E30518" stroke-width="0.98552" stroke-miterlimit="10" stroke-linecap="round"/>
<path d="M62.9297 58.0293C64.7676 58.0636 66.5814 58.8364 67.8805 60.1386" stroke="#E30518" stroke-width="0.98552" stroke-miterlimit="10" stroke-linecap="round"/>
<path d="M53.0379 61.7232C53.8127 61.4841 54.2846 60.783 54.0919 60.1573C53.8993 59.5317 53.1151 59.2184 52.3403 59.4576C51.5656 59.6967 51.0937 60.3978 51.2863 61.0235C51.4789 61.6491 52.2632 61.9624 53.0379 61.7232Z" stroke="#E30518" stroke-width="0.98552" stroke-miterlimit="10"/>
<path d="M58.0499 68.5801C58.2581 67.8376 57.6816 67.0263 56.7623 66.7678C55.8429 66.5093 54.9289 66.9016 54.7207 67.644C54.5125 68.3864 55.089 69.1978 56.0084 69.4563C56.9277 69.7148 57.8417 69.3225 58.0499 68.5801Z" stroke="#E30518" stroke-width="0.98552" stroke-miterlimit="10"/>
<path d="M95.5574 54.1836L93.625 57.9118" stroke="#E30518" stroke-width="1.29667" stroke-miterlimit="10" stroke-linecap="round"/>
<path d="M93.6277 53.7812L91.6953 57.5095" stroke="#E30518" stroke-width="1.29667" stroke-miterlimit="10" stroke-linecap="round"/>
<path d="M129.25 24.2246L132.199 25.9051" stroke="#E30518" stroke-width="1.04875" stroke-miterlimit="10" stroke-linecap="round"/>
<path d="M128.863 25.7754L131.812 27.4559" stroke="#E30518" stroke-width="1.04875" stroke-miterlimit="10" stroke-linecap="round"/>
<path d="M51.4452 68.9086C51.9909 68.9086 52.4333 68.4656 52.4333 67.9191C52.4333 67.3727 51.9909 66.9297 51.4452 66.9297C50.8994 66.9297 50.457 67.3727 50.457 67.9191C50.457 68.4656 50.8994 68.9086 51.4452 68.9086Z" fill="#00384A" stroke="white" stroke-width="0.98552" stroke-miterlimit="10"/>
</g>
</g>
<defs>
<linearGradient id="paint0_linear_16155_29105" x1="0.927644" y1="125.631" x2="63.6235" y2="91.9392" gradientUnits="userSpaceOnUse">
<stop stop-color="#E40524"/>
<stop offset="0.0386203" stop-color="#E40524" stop-opacity="0.721278"/>
<stop offset="0.102823" stop-color="#E40524" stop-opacity="0.392293"/>
<stop offset="0.168331" stop-color="#E40524" stop-opacity="0.188559"/>
<stop offset="0.233956" stop-color="#E40524" stop-opacity="0.0769604"/>
<stop offset="0.299746" stop-color="#E40524" stop-opacity="0.0242562"/>
<stop offset="0.36581" stop-color="#E40524" stop-opacity="0.01"/>
<stop offset="0.432308" stop-color="#E40524" stop-opacity="0.01"/>
<stop offset="0.5" stop-color="#E40524" stop-opacity="0"/>
<stop offset="0.56417" stop-color="#E40524" stop-opacity="0.01"/>
<stop offset="0.630348" stop-color="#E40524" stop-opacity="0.01"/>
<stop offset="0.697451" stop-color="#E40524" stop-opacity="0.0265843"/>
<stop offset="0.765244" stop-color="#E40524" stop-opacity="0.0841564"/>
<stop offset="0.833548" stop-color="#E40524" stop-opacity="0.205874"/>
<stop offset="0.902306" stop-color="#E40524" stop-opacity="0.427951"/>
<stop offset="0.970134" stop-color="#E40524" stop-opacity="0.786264"/>
<stop offset="1" stop-color="#E40524"/>
</linearGradient>
<clipPath id="clip0_16155_29105">
<rect width="145" height="124" fill="white"/>
</clipPath>
<clipPath id="clip1_16155_29105">
<rect width="145" height="127" fill="white" transform="translate(0 4)"/>
</clipPath>
</defs>
</svg>
