<svg width="131" height="114" viewBox="0 0 131 114" fill="none" xmlns="http://www.w3.org/2000/svg">
<g clip-path="url(#clip0_14264_6826)">
<path d="M87.5707 9.62358C87.636 9.65458 87.5922 9.74095 87.7096 9.8082C87.7899 9.85416 87.9916 9.71764 88.0918 9.77705C88.176 9.827 88.1757 10.0339 88.2716 10.0915C88.3578 10.1432 88.5094 10.0958 88.6034 10.1525C88.6907 10.2051 88.7728 10.2732 88.8656 10.3291C88.9538 10.3822 89.0365 10.4493 89.1286 10.5044C89.2177 10.5577 89.3544 10.5339 89.4461 10.5883C89.5356 10.6414 89.5345 10.8499 89.6256 10.9034C89.7162 10.9567 89.8326 10.9672 89.9239 11.0201C90.0155 11.0733 90.1799 10.9987 90.2713 11.0508C90.3639 11.1035 90.4417 11.1792 90.5331 11.2302C90.6267 11.2823 90.6594 11.442 90.7508 11.4915C90.8454 11.5427 90.8919 11.6828 90.9831 11.7304C91.0797 11.7807 91.1882 11.8063 91.2798 11.8516C91.3789 11.9005 91.5589 11.7688 91.6504 11.8105C91.7525 11.857 91.7726 12.0799 91.863 12.1155C91.9725 12.1587 92.0752 12.2244 92.1638 12.2488C92.2936 12.2844 92.4309 12.1609 92.5053 12.1479C92.6068 12.1302 92.7093 12.1198 92.8099 12.0994C92.9108 12.0789 93.0318 12.1466 93.1319 12.1235C93.2322 12.1004 93.2971 11.9314 93.3965 11.9057C93.4961 11.88 93.6102 11.9109 93.709 11.8828C93.8079 11.8547 93.9452 11.9506 94.0433 11.9202C94.1415 11.8898 94.2207 11.7934 94.3181 11.7608C94.4156 11.7282 94.5357 11.7548 94.6324 11.7201C94.7292 11.6854 94.7957 11.5643 94.8918 11.5277C94.9878 11.4911 95.0345 11.3302 95.1299 11.2918C95.2251 11.2534 95.3127 11.201 95.4074 11.1609C95.502 11.1208 95.6608 11.23 95.7548 11.1883C95.8487 11.1467 95.971 11.1646 96.0644 11.1215C96.1576 11.0784 96.2127 10.9515 96.3055 10.9071C96.3981 10.8628 96.5273 10.8918 96.6194 10.8463C96.7114 10.8008 96.7197 10.5876 96.8113 10.541C96.9028 10.4944 97.0148 10.4888 97.106 10.4412C97.197 10.3938 97.2585 10.2914 97.3492 10.243C97.4398 10.1947 97.5224 10.1331 97.6127 10.0839C97.7029 10.0349 97.8988 10.1784 97.9887 10.1287C98.0785 10.079 98.1046 9.91407 98.1942 9.86382C98.2837 9.81362 98.348 9.71886 98.4373 9.66818C98.5267 9.61754 98.6385 9.60678 98.7277 9.55577C98.8169 9.50481 98.8678 9.38751 98.9569 9.3363C99.0459 9.28509 99.2255 9.39108 99.3145 9.33972C99.4035 9.28836 99.4405 9.14671 99.5295 9.09529C99.6185 9.04389 99.6956 8.97169 99.7847 8.92034C99.8737 8.86898 100.013 8.90413 100.102 8.85294C100.191 8.80174 100.264 8.72309 100.354 8.67216C100.443 8.62121 100.578 8.6513 100.667 8.60072C100.757 8.55012 100.762 8.34865 100.851 8.29852C100.941 8.24837 101.092 8.30934 101.183 8.25978C101.273 8.21017 101.328 8.09661 101.418 8.0477C101.509 7.99875 101.605 7.96051 101.695 7.91236C101.786 7.86417 101.845 7.75421 101.936 7.70693C102.028 7.6596 102.159 7.68961 102.25 7.6433C102.342 7.59695 102.463 7.60984 102.555 7.56462C102.647 7.51936 102.741 7.47869 102.833 7.43466C102.926 7.39058 103 7.30715 103.093 7.26441C103.187 7.22165 103.253 7.11809 103.347 7.07679C103.441 7.03546 103.587 7.1159 103.681 7.07614C103.776 7.03637 103.834 6.90943 103.93 6.87134C104.025 6.83324 104.083 6.69647 104.179 6.66016C104.275 6.62385 104.412 6.69529 104.508 6.66088C104.605 6.62648 104.661 6.46914 104.758 6.43675C104.858 6.40367 104.989 6.46517 105.09 6.43442C105.191 6.4038 105.281 6.3346 105.383 6.30632C105.484 6.27816 105.584 6.23957 105.686 6.21377C105.788 6.18805 105.906 6.22544 106.009 6.2021C106.111 6.17884 106.227 6.21828 106.33 6.19742C106.433 6.17662 106.508 6.00365 106.611 5.98527C106.715 5.96693 106.841 6.08085 106.945 6.06497C107.049 6.04911 107.158 6.07934 107.263 6.06597C107.367 6.05261 107.466 6.00542 107.57 5.99457C107.675 5.98373 107.768 5.84013 107.873 5.83184C107.978 5.82355 108.092 5.95102 108.198 5.9453C108.303 5.93959 108.407 5.94262 108.512 5.93951C108.617 5.93641 108.721 6.00076 108.827 6.00029C108.932 5.99983 109.035 5.94146 109.14 5.94367C109.246 5.94589 109.358 5.76664 109.463 5.77158C109.568 5.77653 109.667 5.90257 109.772 5.91028C109.877 5.91799 109.974 6.0091 110.079 6.01962C110.184 6.03015 110.286 6.03746 110.391 6.05084C110.495 6.06425 110.602 6.0502 110.706 6.0665C110.81 6.08281 110.907 6.12609 111.011 6.14534C111.114 6.16462 111.248 6.03266 111.351 6.05493C111.454 6.07724 111.53 6.2152 111.632 6.24053C111.735 6.26591 111.839 6.28092 111.94 6.30937C112.041 6.33787 112.154 6.32654 112.255 6.35817C112.355 6.38983 112.462 6.40484 112.561 6.43967C112.661 6.47455 112.728 6.59553 112.826 6.63361C112.924 6.67173 113.092 6.54228 113.189 6.58366C113.285 6.62505 113.307 6.83642 113.403 6.88112C113.498 6.92581 113.586 6.98093 113.68 7.02895C113.773 7.07696 113.96 6.95355 114.052 7.00493C114.144 7.05624 114.13 7.28979 114.22 7.3445C114.31 7.39913 114.375 7.4874 114.463 7.54545C114.55 7.60336 114.659 7.6246 114.745 7.68596C114.83 7.7471 114.978 7.72372 115.061 7.78832C115.144 7.85268 115.255 7.88624 115.336 7.95406C115.417 8.02155 115.43 8.16849 115.508 8.23944C115.584 8.30874 115.692 8.34407 115.767 8.41454C115.842 8.485 115.99 8.48053 116.065 8.55214C116.139 8.62375 116.068 8.8437 116.141 8.91644C116.215 8.98919 116.256 9.09111 116.328 9.16496C116.4 9.23881 116.646 9.14546 116.717 9.22039C116.788 9.29533 116.764 9.45914 116.834 9.53514C116.904 9.61114 116.961 9.6987 117.029 9.77575C117.098 9.8528 117.186 9.91192 117.254 9.99C117.321 10.0681 117.377 10.1561 117.443 10.2352C117.509 10.3143 117.497 10.457 117.562 10.537C117.627 10.6171 117.811 10.6013 117.875 10.6824C117.938 10.7634 117.87 10.946 117.933 11.028C117.995 11.11 118.232 11.0606 118.294 11.1435C118.355 11.2265 118.271 11.4152 118.331 11.4991C118.391 11.5829 118.618 11.5494 118.677 11.6341C118.736 11.7188 118.702 11.8681 118.76 11.9537C118.817 12.0393 118.779 12.1872 118.836 12.2737C118.892 12.3602 119.072 12.3667 119.127 12.454C119.182 12.5413 119.215 12.6424 119.269 12.7305C119.323 12.8186 119.397 12.8947 119.449 12.9836C119.502 13.0725 119.544 13.1682 119.595 13.2579C119.646 13.3475 119.593 13.4945 119.643 13.5849C119.692 13.6754 119.777 13.7459 119.825 13.837C119.873 13.9282 120.04 13.9583 120.087 14.0502C120.134 14.1421 120.113 14.2686 120.159 14.3612C120.204 14.4538 120.12 14.6077 120.164 14.701C120.209 14.7942 120.252 14.8857 120.295 14.9796C120.337 15.0735 120.376 15.167 120.417 15.2616C120.458 15.3562 120.589 15.4114 120.628 15.5066C120.668 15.6018 120.734 15.6861 120.772 15.7819C120.81 15.8777 120.878 15.9621 120.915 16.0585C120.952 16.1549 120.924 16.2752 120.96 16.3721C120.995 16.4685 121.184 16.5149 121.217 16.6162C121.249 16.7138 121.08 16.8776 121.111 16.9795C121.14 17.0781 121.294 17.1421 121.323 17.2445C121.35 17.3438 121.327 17.4584 121.353 17.5611C121.379 17.6611 121.445 17.7527 121.47 17.8558C121.493 17.9564 121.608 18.0392 121.63 18.1425C121.652 18.2437 121.584 18.3661 121.605 18.4697C121.625 18.5713 121.557 18.691 121.576 18.7948C121.595 18.8967 121.572 19.0065 121.59 19.1104C121.607 19.2128 121.714 19.3005 121.731 19.4046C121.748 19.5072 121.743 19.6138 121.759 19.718C121.774 19.8209 121.781 19.9255 121.796 20.0298C121.81 20.133 121.802 20.2394 121.816 20.3438C121.829 20.4467 121.825 20.5516 121.838 20.6556C121.85 20.7587 121.996 20.8468 122.008 20.9509C122.019 21.0543 121.989 21.163 122 21.2672C122.011 21.3708 121.884 21.4883 121.894 21.5927C121.904 21.6965 122.094 21.7837 122.104 21.8881C122.113 21.9921 121.953 22.1108 121.961 22.2154C121.97 22.3196 121.98 22.4231 121.988 22.5277C121.996 22.632 122.186 22.7233 122.193 22.828C122.2 22.9324 122.225 23.0364 122.231 23.1411C122.238 23.2458 122.139 23.357 122.145 23.4618C122.151 23.5665 122.221 23.6679 122.227 23.7726C122.232 23.8775 122.218 23.9835 122.223 24.0882C122.227 24.1933 122.312 24.2955 122.316 24.4004C122.321 24.5057 122.197 24.6159 122.2 24.7209C122.204 24.8262 122.333 24.9278 122.336 25.0328C122.339 25.1383 122.215 25.2471 122.218 25.3521C122.22 25.4576 122.306 25.5614 122.308 25.6663C122.31 25.7719 122.271 25.8781 122.273 25.983C122.274 26.0886 122.243 26.1943 122.243 26.2991C122.244 26.4048 122.272 26.5099 122.272 26.6146C122.272 26.7203 122.298 26.8257 122.297 26.9302C122.297 27.0359 122.128 27.1398 122.127 27.2442C122.126 27.3499 122.225 27.4557 122.224 27.5599C122.222 27.6655 122.319 27.7722 122.317 27.8762C122.315 27.9818 122.294 28.0865 122.291 28.1903C122.289 28.2958 122.163 28.3969 122.16 28.5004C122.157 28.6059 122.143 28.7097 122.139 28.813C122.135 28.9188 122.174 29.0247 122.169 29.128C122.165 29.2341 122.117 29.3366 122.112 29.4399C122.106 29.5457 122.158 29.6528 122.152 29.7554C122.146 29.8615 122.161 29.9672 122.154 30.0697C122.147 30.1756 122.052 30.2731 122.044 30.375C122.036 30.4811 122.161 30.6495 122.152 30.7509C122.041 30.8591 122.001 30.8306 121.799 30.8508C121.713 30.8594 121.6 30.7701 121.48 30.7821C121.387 30.7915 121.277 30.7383 121.165 30.7496C121.069 30.7592 120.958 30.6959 120.848 30.7069C120.75 30.7167 120.657 30.8247 120.549 30.8355C120.45 30.8454 120.34 30.789 120.233 30.7997C120.134 30.8097 120.036 30.8779 119.93 30.8885C119.83 30.8985 119.721 30.8488 119.615 30.8594C119.515 30.8694 119.408 30.8439 119.303 30.8544C119.202 30.8645 119.1 30.8838 118.995 30.8943C118.894 30.9044 118.811 31.1162 118.706 31.1267C118.605 31.1368 118.486 30.9898 118.381 31.0003C118.28 31.0105 118.182 31.0715 118.077 31.0819C117.975 31.0921 117.879 31.1668 117.774 31.1772C117.673 31.1874 117.563 31.1366 117.459 31.147C117.357 31.1572 117.266 31.2875 117.162 31.2979C117.06 31.3081 116.934 31.093 116.83 31.1034C116.728 31.1136 116.628 31.1558 116.524 31.1662C116.421 31.1764 116.332 31.3221 116.228 31.3325C116.125 31.3427 116.011 31.2363 115.907 31.2467C115.805 31.2569 115.721 31.4607 115.618 31.471C115.516 31.4812 115.403 31.3824 115.299 31.3927C115.197 31.4029 115.092 31.3927 114.989 31.403C114.887 31.4132 114.771 31.2933 114.668 31.3036C114.566 31.3138 114.472 31.4179 114.369 31.4282C114.267 31.4384 114.156 31.372 114.053 31.3823C113.95 31.3925 113.861 31.5409 113.758 31.5512C113.656 31.5614 113.551 31.5493 113.447 31.5596C113.345 31.5698 113.238 31.5416 113.135 31.5519C113.032 31.5621 112.925 31.5277 112.822 31.538C112.719 31.5482 112.634 31.7345 112.53 31.7449C112.428 31.7551 112.309 31.6114 112.206 31.6217C112.104 31.632 112.014 31.7782 111.911 31.7885C111.808 31.7987 111.71 31.8617 111.607 31.8721C111.504 31.8823 111.395 31.8253 111.291 31.8356C111.188 31.8459 111.081 31.8081 110.977 31.8184C110.874 31.8286 110.766 31.7867 110.663 31.797C110.56 31.8072 110.471 31.9544 110.367 31.9647C110.264 31.9749 110.144 31.8145 110.041 31.8249C109.938 31.8351 109.851 32.0103 109.748 32.0206C109.645 32.0308 109.533 31.9505 109.429 31.9608C109.327 31.971 109.217 31.9171 109.114 31.9274C109.011 31.9376 108.915 32.0206 108.811 32.0309C108.708 32.0412 108.612 32.1188 108.508 32.1291C108.405 32.1393 108.285 31.9794 108.182 31.9897C108.079 31.9999 107.992 32.1674 107.889 32.1777C107.786 32.1879 107.687 32.2363 107.584 32.2466C107.481 32.2568 107.361 32.0895 107.257 32.0998C107.155 32.11 107.07 32.3005 106.966 32.3108C106.864 32.321 106.759 32.3191 106.656 32.3294C106.553 32.3396 106.44 32.2509 106.337 32.2611C106.234 32.2714 106.142 32.3935 106.039 32.4037C105.936 32.414 105.817 32.2674 105.714 32.2777C105.611 32.288 105.503 32.2523 105.4 32.2626C105.297 32.2729 105.195 32.2981 105.092 32.3083C104.989 32.3186 104.904 32.5191 104.801 32.5294C104.698 32.5396 104.589 32.4881 104.485 32.4984C104.382 32.5086 104.278 32.5112 104.175 32.5215C104.072 32.5317 103.953 32.3875 103.85 32.3978C103.747 32.408 103.663 32.6197 103.56 32.63C103.457 32.6402 103.355 32.6729 103.252 32.6832C103.149 32.6935 103.038 32.6273 102.934 32.6375C102.831 32.6478 102.711 32.4996 102.608 32.5099C102.504 32.5202 102.424 32.7609 102.32 32.7712C102.217 32.7814 102.091 32.5684 101.987 32.5787C101.884 32.5889 101.786 32.6648 101.683 32.6751C101.579 32.6854 101.492 32.8627 101.388 32.8729C101.285 32.8832 101.168 32.7657 101.065 32.776C100.961 32.7862 100.868 32.8943 100.764 32.9045C100.66 32.9148 100.555 32.9042 100.451 32.9145C100.348 32.9247 100.238 32.8748 100.135 32.885C100.031 32.8953 99.9265 32.8962 99.8231 32.9065C99.7194 32.9167 99.6043 32.8114 99.5009 32.8216C99.3971 32.8318 99.311 33.0187 99.2075 33.0289C99.1037 33.0392 98.984 32.8864 98.8806 32.8966C98.7768 32.9069 98.6925 33.1133 98.589 33.1235C98.4852 33.1338 98.3606 32.931 98.2571 32.9412C98.1533 32.9515 98.0554 33.0197 97.9519 33.0299C97.8481 33.0402 97.7589 33.1972 97.6555 33.2074C97.5516 33.2177 97.4505 33.2534 97.347 33.2636C97.2431 33.2738 97.1403 33.2923 97.0369 33.3025C96.933 33.3128 96.8094 33.1205 96.7059 33.1307C96.602 33.141 96.5001 33.1687 96.3967 33.1789C96.2928 33.1892 96.1872 33.1802 96.0838 33.1904C95.9799 33.2006 95.8769 33.2181 95.7735 33.2283C95.6696 33.2385 95.5627 33.2163 95.4594 33.2265C95.3554 33.2367 95.2751 33.4842 95.1717 33.4944C95.0677 33.5046 94.9539 33.4112 94.8506 33.4214C94.7466 33.4316 94.6502 33.5159 94.5469 33.526C94.4429 33.5362 94.3186 33.3359 94.2154 33.346C94.1113 33.3562 94.0124 33.414 93.9091 33.4241C93.8051 33.4343 93.7004 33.4334 93.5972 33.4435C93.4932 33.4537 93.3907 33.4758 93.2876 33.4859C93.1835 33.4961 93.0951 33.6612 92.9919 33.6713C92.8879 33.6815 92.7635 33.4789 92.6604 33.489C92.5563 33.4992 92.4745 33.7319 92.3715 33.742C92.2674 33.7521 92.1527 33.6482 92.0497 33.6583C91.9456 33.6685 91.8372 33.6286 91.7343 33.6386C91.6301 33.6488 91.5397 33.7928 91.4368 33.8029C91.3327 33.813 91.222 33.7494 91.1192 33.7595C91.0151 33.7696 90.9036 33.6966 90.8008 33.7066C90.6967 33.7167 90.591 33.7034 90.4883 33.7134C90.3842 33.7235 90.2818 33.7446 90.1792 33.7545C90.0751 33.7647 89.9842 33.9035 89.8817 33.9135C89.7776 33.9236 89.6752 33.9437 89.5728 33.9536C89.4686 33.9637 89.3505 33.8207 89.2482 33.8306C89.144 33.8407 89.063 34.08 88.9608 34.0899C88.8566 34.1 88.7312 33.8797 88.6291 33.8896C88.5248 33.8996 88.4414 34.1131 88.3394 34.1229C88.235 34.133 88.1361 34.1876 88.0342 34.1974C87.9297 34.2074 87.821 34.1614 87.7191 34.1712C87.6145 34.1813 87.4941 34.0132 87.3923 34.0229C87.2875 34.033 87.1995 34.203 87.0978 34.2127C86.9928 34.2227 86.894 34.2795 86.7924 34.2892C86.6873 34.2992 86.568 34.1406 86.4666 34.1503C86.3613 34.1603 86.2745 34.3431 86.1734 34.3527C86.0679 34.3626 85.9436 34.1479 85.8427 34.1574C85.7371 34.1674 85.6561 34.4112 85.5557 34.4206C85.4495 34.4306 85.3328 34.2977 85.2326 34.3071C85.1257 34.317 85.0355 34.4699 84.9357 34.4791C84.8281 34.4891 84.7078 34.3158 84.6087 34.3249C84.5004 34.3348 84.4025 34.4011 84.3047 34.41C84.1949 34.4199 84.0934 34.4461 83.9972 34.4547C83.8848 34.4647 83.7916 34.5867 83.6987 34.5947C83.5794 34.6049 83.4702 34.5451 83.3845 34.5519C83.1929 34.567 83.0898 34.4995 83.0795 34.496C83.0587 34.4891 82.9694 34.4194 82.9234 34.2402C82.9018 34.1559 82.9905 34.0277 82.9643 33.9116C82.9435 33.8196 82.8878 33.7262 82.8645 33.6164C82.8443 33.5212 82.7461 33.4357 82.7242 33.3286C82.7044 33.2316 82.6015 33.1461 82.5804 33.0404C82.5609 32.9424 82.6139 32.8261 82.5935 32.7213C82.5742 32.6225 82.4994 32.5312 82.4794 32.4269C82.4603 32.3274 82.4851 32.217 82.4655 32.1132C82.4466 32.0132 82.5311 31.8917 82.5118 31.7882C82.493 31.6878 82.4003 31.5996 82.3812 31.4964C82.3625 31.3957 82.4931 31.2661 82.4742 31.1631C82.4556 31.0621 82.4356 30.9605 82.4168 30.8577C82.3984 30.7568 82.2698 30.6752 82.2513 30.5729C82.2329 30.4716 82.2097 30.3706 82.1912 30.2683C82.1729 30.1668 82.1418 30.0671 82.1235 29.965C82.1052 29.8629 82.1186 29.7549 82.1003 29.6525C82.0821 29.5502 81.9374 29.4704 81.9193 29.3683C81.9011 29.2658 81.9016 29.16 81.8835 29.058C81.8654 28.9553 81.9199 28.84 81.902 28.7381C81.8839 28.6352 81.7607 28.5512 81.7429 28.4495C81.7248 28.3463 81.7351 28.2389 81.7173 28.1374C81.6993 28.0341 81.7884 27.913 81.7708 27.8119C81.7527 27.7083 81.69 27.6139 81.6725 27.5131C81.6545 27.4092 81.7949 27.2794 81.7775 27.1789C81.7594 27.0744 81.5863 26.9988 81.5691 26.8986C81.5509 26.7935 81.4532 26.7047 81.436 26.6049C81.4178 26.4992 81.6326 26.3567 81.6156 26.2577C81.5974 26.1512 81.5226 26.0588 81.5059 25.961C81.4874 25.853 81.4253 25.7582 81.4089 25.662C81.3901 25.5514 81.2433 25.4711 81.2274 25.378C81.2075 25.2607 81.1768 25.1603 81.1623 25.0743C81.1291 24.8785 81.1897 24.7296 81.1897 24.7296C81.2486 24.5866 81.3163 24.6145 81.3752 24.4716C81.4341 24.3286 81.524 24.3657 81.5828 24.2227C81.6417 24.0797 81.621 24.0711 81.6798 23.9281C81.7388 23.7851 81.6151 23.7341 81.674 23.591C81.733 23.4479 81.7599 23.459 81.8189 23.3159C81.8779 23.1726 81.8367 23.1557 81.8957 23.0124C81.9547 22.8692 81.8793 22.8381 81.9382 22.695C81.9971 22.5519 82.146 22.6132 82.2049 22.4701C82.2636 22.3277 82.3228 22.3521 82.3814 22.2097C82.4401 22.0672 82.2442 21.9864 82.3029 21.8439C82.3617 21.7011 82.3789 21.7083 82.4377 21.5656C82.4966 21.4226 82.5407 21.4408 82.5996 21.2979C82.6585 21.1547 82.7607 21.1968 82.8196 21.0536C82.8786 20.9104 82.7731 20.8669 82.8321 20.7237C82.891 20.5806 82.9311 20.5972 82.99 20.4541C83.0489 20.3113 83.0114 20.2958 83.0703 20.153C83.129 20.0102 83.0834 19.9914 83.1421 19.8486C83.2009 19.7059 83.3932 19.7852 83.452 19.6425C83.5107 19.4999 83.3773 19.4449 83.4361 19.3022C83.4948 19.1595 83.5224 19.1708 83.5812 19.0281C83.64 18.8853 83.6577 18.8926 83.7165 18.7498C83.7754 18.6068 83.759 18.6 83.8179 18.4571C83.8769 18.3138 83.7804 18.2741 83.8394 18.1309C83.8984 17.9874 84.0732 18.0594 84.1323 17.916C84.1913 17.7727 84.1744 17.7658 84.2334 17.6225C84.2923 17.4795 84.2826 17.4755 84.3415 17.3324C84.4004 17.1894 84.4406 17.206 84.4995 17.063C84.5584 16.92 84.3669 16.841 84.4258 16.698C84.4847 16.5549 84.6105 16.6067 84.6695 16.4636C84.7285 16.3203 84.7649 16.3352 84.8239 16.1919C84.883 16.0484 84.9475 16.075 85.0066 15.9315C85.0656 15.7882 84.9285 15.7317 84.9875 15.5884C85.0464 15.4452 85.1634 15.4934 85.2224 15.3502C85.2814 15.2069 85.2699 15.2022 85.3289 15.0589C85.388 14.9154 85.2548 14.8605 85.3139 14.717C85.373 14.5736 85.4701 14.6136 85.5292 14.4701C85.5883 14.3268 85.6066 14.3343 85.6656 14.191C85.7247 14.0475 85.699 14.037 85.7581 13.8935C85.8172 13.7499 85.7688 13.7299 85.8279 13.5863C85.8868 13.4433 85.9644 13.4753 86.0233 13.3322C86.0822 13.1894 85.9112 13.1189 85.97 12.976C86.0289 12.8329 86.0589 12.8453 86.1179 12.7022C86.177 12.5585 86.2657 12.595 86.3249 12.4513C86.384 12.3079 86.4766 12.346 86.5356 12.2026C86.5947 12.0592 86.4078 11.9821 86.4668 11.8387C86.5261 11.6948 86.5889 11.7207 86.6482 11.5768C86.7073 11.4331 86.7497 11.4506 86.8088 11.3069C86.8681 11.1631 86.8245 11.1451 86.8838 11.0013C86.9428 10.858 86.8711 10.8284 86.93 10.6852C86.9893 10.5412 87.0261 10.5563 87.0854 10.4123C87.1448 10.2681 87.1107 10.2541 87.1701 10.1098C87.2297 9.96519 87.2194 9.94694 87.2989 9.81225C87.377 9.68001 87.4799 9.75086 87.5707 9.62358Z" fill="#010101"/>
<path d="M97.7089 28.3412C97.4648 28.0344 97.4253 28.5048 96.9293 28.5726C96.7107 28.6025 96.4534 28.651 96.1571 28.6946C95.9206 28.7293 95.6228 28.5147 95.3433 28.5583C95.0997 28.5964 94.8568 28.7408 94.5847 28.7857C94.3376 28.8264 94.0678 28.8035 93.8002 28.8499C93.5509 28.8932 93.2971 28.964 93.0324 29.0123C92.7816 29.058 92.5231 29.1022 92.2605 29.1525C92.009 29.2007 91.7717 29.3494 91.5112 29.4018C91.2587 29.4526 90.987 29.4309 90.7277 29.4857C90.4746 29.5392 90.2349 29.6704 89.9768 29.7277C89.7236 29.784 89.4721 29.8566 89.2155 29.9167C88.962 29.976 88.6724 29.8934 88.4169 29.9564C88.1634 30.0189 87.9598 30.2824 87.7058 30.3486C87.4503 30.4151 87.1927 30.4696 86.9376 30.5419C86.6828 30.6141 86.4128 30.6313 86.1599 30.7082C85.9055 30.7855 85.6265 30.7824 85.3757 30.8634C85.1218 30.9454 84.8938 31.1016 84.6449 31.1863C84.3915 31.2725 84.163 31.4206 83.9164 31.5086C83.6633 31.5989 83.389 31.6185 83.1449 31.7094C82.8919 31.8037 82.6127 31.8163 82.3711 31.9098C82.1176 32.008 81.9 32.1806 81.6613 32.2765C81.4069 32.3787 81.2027 32.5784 80.9678 32.6761C80.7112 32.7829 80.3906 32.7056 80.1606 32.8047C79.899 32.9174 79.6888 33.1012 79.4666 33.2006C79.1932 33.3228 78.9374 33.4033 78.7324 33.4992C78.5071 33.6046 78.2963 33.7653 78.0523 33.8721C77.8218 33.9729 77.5417 33.9733 77.2982 34.0745C77.0639 34.1718 76.825 34.2671 76.5818 34.3639C76.3446 34.4584 76.1732 34.7301 75.9306 34.8234C75.6908 34.9156 75.4016 34.8828 75.1594 34.9732C74.9172 35.0636 74.6575 35.1053 74.4157 35.1931C74.1712 35.282 73.9761 35.5043 73.7349 35.5899C73.488 35.6774 73.1799 35.5804 72.9396 35.6638C72.6904 35.7504 72.4998 35.9917 72.2611 36.0729C72.0093 36.1586 71.7689 36.2555 71.5329 36.3343C71.2764 36.42 70.9795 36.3469 70.7467 36.4233C70.4835 36.5096 70.3019 36.7893 70.0762 36.862C69.797 36.9518 69.5384 36.9972 69.3297 37.063C68.8652 37.2096 68.7661 36.889 68.5158 37.1827C68.2538 37.4901 68.4968 37.5163 68.4244 38.0275C68.3924 38.253 68.2761 38.5113 68.2346 38.8179C68.2015 39.062 68.2831 39.3459 68.2455 39.635C68.2128 39.8871 68.1562 40.1523 68.121 40.4345C68.0891 40.691 68.132 40.9682 68.0987 41.2466C68.0678 41.506 67.9437 41.7634 67.9123 42.0394C67.8825 42.3007 67.8829 42.5726 67.8531 42.8469C67.8246 43.1098 67.8771 43.3866 67.8491 43.6597C67.8219 43.9239 67.7277 44.1855 67.7013 44.4576C67.6757 44.7228 67.5333 44.9807 67.5087 45.2519C67.4846 45.5181 67.5484 45.7949 67.5257 46.0656C67.5034 46.3327 67.6033 46.6112 67.5826 46.8814C67.5622 47.1492 67.425 47.4093 67.4065 47.6789C67.3881 47.9478 67.4332 48.2211 67.4171 48.4905C67.4009 48.7603 67.2753 49.0241 67.2618 49.2931C67.2482 49.5636 67.3058 49.8369 67.2952 50.1053C67.2844 50.3767 67.3459 50.6485 67.3385 50.9164C67.331 51.1888 67.2238 51.4566 67.2201 51.724C67.2163 51.9974 67.2489 52.268 67.2494 52.5346C67.25 52.8085 67.2865 53.0776 67.292 53.3428C67.2978 53.6178 67.266 53.8885 67.2776 54.1524C67.2897 54.4284 67.3978 54.691 67.4167 54.9528C67.4368 55.2299 67.3645 55.5056 67.3928 55.7644C67.4212 56.0237 67.3212 56.2991 67.341 56.5726C67.3599 56.8334 67.4589 57.0932 67.4705 57.3665C67.4815 57.6284 67.4344 57.8958 67.439 58.1687C67.4435 58.4313 67.4294 58.6968 67.4282 58.9693C67.4271 59.2321 67.5745 59.5006 67.5685 59.7722C67.5626 60.0354 67.4446 60.299 67.4343 60.5701C67.4243 60.8335 67.4346 61.1009 67.4207 61.3715C67.4072 61.6352 67.52 61.9097 67.5029 62.1799C67.4863 62.4437 67.3074 62.6996 67.2876 62.9694C67.2683 63.2333 67.4438 63.5155 67.4217 63.785C67.4 64.049 67.2078 64.3013 67.1836 64.5705C67.1598 64.8346 67.3072 65.1174 67.2812 65.3862C67.2557 65.6503 67.0461 65.8986 67.0185 66.1671C66.9914 66.4313 67.0529 66.7069 67.024 66.9751C66.9955 67.2393 66.9188 67.5003 66.8887 67.7683C66.8591 68.0324 66.9528 68.3127 66.9218 68.5803C66.8911 68.8446 66.7538 69.0982 66.7219 69.3657C66.6904 69.6301 66.6155 69.8908 66.5829 70.1582C66.5506 70.4227 66.6955 70.7106 66.6623 70.9779C66.6294 71.2423 66.3362 71.4756 66.3025 71.7427C66.2692 72.0072 66.4391 72.2987 66.4051 72.5656C66.3714 72.8301 66.281 73.0886 66.2467 73.3553C66.2128 73.6195 66.1053 73.8752 66.071 74.1413C66.0369 74.4057 65.9661 74.6664 65.9317 74.9327C65.8976 75.1973 65.9199 75.4702 65.8856 75.7366C65.8514 76.0014 65.8146 76.2668 65.7804 76.5333C65.7463 76.7984 65.8322 77.0796 65.7981 77.3461C65.7643 77.6108 65.7616 77.88 65.7279 78.146C65.6943 78.4111 65.6647 78.6771 65.6313 78.9433C65.598 79.2087 65.3263 79.445 65.2933 79.7114C65.2605 79.9771 65.4135 80.2662 65.381 80.5328C65.3487 80.7984 65.3529 81.0687 65.321 81.3351C65.2893 81.6012 65.2577 81.8673 65.2265 82.1341C65.1954 82.4003 65.1354 82.6632 65.105 82.93C65.0746 83.1968 64.9039 83.448 64.8743 83.7152C64.8462 83.9687 64.9588 84.2454 64.9265 84.5116C64.8956 84.7659 64.7859 85.0163 64.7513 85.2813C64.7181 85.5362 64.6471 85.7908 64.6107 86.0548C64.5755 86.3101 64.5273 86.5676 64.4893 86.8308C64.4524 87.0865 64.3661 87.3383 64.3267 87.6008C64.2883 87.8568 64.3093 88.1248 64.2687 88.3867C64.229 88.643 64.2318 88.9088 64.1901 89.1701C64.1492 89.4267 64.0456 89.6755 64.0029 89.9364C63.9609 90.1932 63.8725 90.444 63.8289 90.7045C63.786 90.9612 63.957 91.2558 63.9127 91.5156C63.8688 91.7725 63.7101 92.0113 63.665 92.2708C63.6204 92.5279 63.5385 92.7797 63.4928 93.0389C63.4474 93.2962 63.3291 93.5414 63.2827 93.8003C63.2366 94.0578 63.2154 94.3203 63.1684 94.579C63.1217 94.8363 63.2275 95.122 63.18 95.3801C63.1326 95.6378 62.9437 95.8696 62.8957 96.1276C62.8477 96.3857 62.9356 96.6693 62.8871 96.9274C62.8385 97.1858 62.7198 97.4309 62.6708 97.6888C62.6217 97.947 62.6815 98.2258 62.6321 98.483C62.5825 98.7413 62.4118 98.9758 62.362 99.2327C62.312 99.4912 62.2097 99.7386 62.1595 99.9953C62.109 100.254 62.1982 100.539 62.1477 100.795C62.0967 101.054 61.9717 101.297 61.9209 101.553C61.8694 101.812 61.7964 102.066 61.7452 102.322C61.6933 102.581 61.5871 102.827 61.5356 103.083C61.4833 103.343 61.6351 103.641 61.5833 103.897C61.5306 104.157 61.445 104.407 61.393 104.662C61.3398 104.922 61.2329 105.169 61.1806 105.423C61.1271 105.684 60.9192 105.909 60.8667 106.163C60.8128 106.424 60.9188 106.714 60.8661 106.967C60.8117 107.228 60.7775 107.49 60.7247 107.742C60.6699 108.004 60.4911 108.234 60.4382 108.485C60.3828 108.749 60.4273 109.026 60.3743 109.277C60.3183 109.541 60.1258 109.768 60.0727 110.017C60.0162 110.283 60.0812 110.565 60.0283 110.812C59.9709 111.08 59.8191 111.316 59.7664 111.561C59.7078 111.832 59.6763 112.094 59.6242 112.335C59.5638 112.613 59.6014 112.891 59.5506 113.124C59.486 113.419 59.3894 113.668 59.3421 113.883C59.2332 114.378 58.7963 114.552 59.1642 114.688C59.5355 114.826 59.574 114.627 59.97 114.627C60.3659 114.627 60.3659 114.64 60.7617 114.64C61.1575 114.64 61.1575 114.564 61.5533 114.564C61.949 114.564 61.949 114.774 62.3447 114.774C62.7403 114.774 62.7403 114.526 63.136 114.526C63.5317 114.526 63.5317 114.751 63.9273 114.751C64.323 114.751 64.323 114.748 64.7187 114.748C65.1144 114.748 65.1144 114.6 65.5101 114.6C65.9059 114.6 65.9059 114.729 66.3017 114.729C66.6975 114.729 66.6975 114.659 67.0934 114.659C67.4894 114.659 67.4894 114.687 67.8854 114.687C68.2813 114.687 68.2813 114.599 68.6772 114.599C69.073 114.599 69.073 114.779 69.4687 114.779C69.8645 114.779 69.8645 114.636 70.2602 114.636C70.656 114.636 70.656 114.625 71.0517 114.625C71.4474 114.625 71.4474 114.525 71.8431 114.525C72.2389 114.525 72.2389 114.759 72.6347 114.759C73.0306 114.759 73.0306 114.532 73.4264 114.532C73.8224 114.532 73.8224 114.605 74.2184 114.605C74.6143 114.605 74.6143 114.745 75.0103 114.745C75.4061 114.745 75.4061 114.694 75.802 114.694C76.1977 114.694 76.1977 114.522 76.5935 114.522C76.9893 114.522 76.9893 114.765 77.3851 114.765C77.7809 114.765 77.7809 114.75 78.1767 114.75C78.5726 114.75 78.5726 114.547 78.9684 114.547C79.3644 114.547 79.3644 114.618 79.7604 114.618C80.1555 114.618 80.1555 114.615 80.5506 114.615C80.9457 114.615 80.9457 114.565 81.3409 114.565C81.7362 114.565 81.7362 114.583 82.1315 114.583C82.5269 114.583 82.5269 114.577 82.9224 114.577C83.3181 114.577 83.3181 114.691 83.7138 114.691C84.1098 114.691 84.1098 114.557 84.5057 114.557C84.9017 114.557 84.9017 114.674 85.2976 114.674C85.6933 114.674 85.6933 114.663 86.089 114.663C86.4845 114.663 86.4845 114.601 86.88 114.601C87.2754 114.601 87.2754 114.559 87.6709 114.559C88.0662 114.559 88.0662 114.667 88.4616 114.667C88.8569 114.667 88.8569 114.679 89.2523 114.679C89.6478 114.679 89.6478 114.55 90.0432 114.55C90.4388 114.55 90.4388 114.673 90.8345 114.673C91.2303 114.673 91.2303 114.681 91.6262 114.681C92.0223 114.681 92.0223 114.627 92.4185 114.627C92.8144 114.627 92.8144 114.624 93.2104 114.624C93.6061 114.624 93.6061 114.716 94.0019 114.716C94.3975 114.716 94.3975 114.526 94.7931 114.526C95.1887 114.526 95.1887 114.687 95.5843 114.687C95.9799 114.687 95.9799 114.698 96.3756 114.698C96.7714 114.698 96.7714 114.668 97.1672 114.668C97.5633 114.668 97.5633 114.553 97.9594 114.553C98.3555 114.553 98.3555 114.68 98.7516 114.68C99.1475 114.68 99.1475 114.538 99.5434 114.538C99.9392 114.538 99.9392 114.67 100.335 114.67C100.731 114.67 100.731 114.761 101.127 114.761C101.522 114.761 101.522 114.693 101.918 114.693C102.315 114.693 102.315 114.57 102.711 114.57C103.107 114.57 103.107 114.551 103.503 114.551C103.899 114.551 103.899 114.71 104.295 114.71C104.691 114.71 104.691 114.641 105.087 114.641C105.483 114.641 105.483 114.774 105.879 114.774C106.275 114.774 106.275 114.613 106.672 114.613C107.068 114.613 107.068 114.529 107.464 114.529C107.86 114.529 107.86 114.706 108.256 114.706C108.652 114.706 108.652 114.571 109.048 114.571C109.444 114.571 109.444 114.737 109.841 114.737C110.237 114.737 110.237 114.521 110.633 114.521C111.029 114.521 111.029 114.703 111.425 114.703C111.822 114.703 111.822 114.573 112.218 114.573C112.614 114.573 112.614 114.595 113.01 114.595C113.407 114.595 113.407 114.728 113.803 114.728C114.199 114.728 114.199 114.567 114.595 114.567C114.992 114.567 114.992 114.626 115.388 114.626C115.784 114.626 115.784 114.678 116.18 114.678C116.576 114.678 116.576 114.604 116.971 114.604C117.367 114.604 117.367 114.542 117.763 114.542C118.16 114.542 118.16 114.553 118.556 114.553C118.952 114.553 118.952 114.582 119.348 114.582C119.744 114.582 119.744 114.667 120.141 114.667C120.537 114.667 120.537 114.626 120.933 114.626C121.33 114.626 121.33 114.676 121.726 114.676C122.123 114.676 122.123 114.61 122.519 114.61C122.916 114.61 122.916 114.746 123.312 114.746C123.709 114.746 123.709 114.765 124.106 114.765C124.502 114.765 124.502 114.607 124.899 114.607C125.295 114.607 125.295 114.738 125.691 114.738C126.088 114.738 126.088 114.656 126.485 114.656C126.882 114.656 126.882 114.538 127.278 114.538C127.675 114.538 127.675 114.751 128.072 114.751C128.47 114.751 128.47 114.641 128.867 114.641C129.264 114.641 129.356 114.922 129.584 114.596C129.812 114.27 129.513 114.281 129.377 113.907C129.241 113.534 129.168 113.56 129.032 113.186C128.896 112.813 128.962 112.789 128.826 112.415C128.69 112.041 128.787 112.006 128.651 111.632C128.514 111.259 128.445 111.284 128.309 110.91C128.173 110.536 128.121 110.555 127.985 110.182C127.849 109.808 127.839 109.811 127.703 109.437C127.567 109.063 127.709 109.012 127.573 108.638C127.436 108.263 127.47 108.251 127.334 107.877C127.197 107.502 127.068 107.549 126.932 107.175C126.795 106.8 126.91 106.758 126.773 106.384C126.637 106.01 126.421 106.088 126.285 105.714C126.149 105.34 126.38 105.256 126.244 104.881C126.108 104.507 126.103 104.509 125.967 104.135C125.831 103.761 125.668 103.821 125.532 103.447C125.395 103.073 125.348 103.09 125.211 102.716C125.075 102.342 125.092 102.336 124.956 101.962C124.82 101.588 124.996 101.523 124.859 101.149C124.723 100.775 124.641 100.805 124.505 100.43C124.368 100.055 124.308 100.077 124.172 99.7027C124.035 99.3282 124.097 99.3056 123.961 98.9311C123.824 98.5568 123.742 98.5868 123.606 98.2125C123.469 97.8383 123.515 97.8218 123.378 97.4476C123.242 97.0734 123.155 97.1051 123.019 96.7309C122.883 96.3566 123.101 96.2771 122.965 95.9029C122.828 95.5285 122.69 95.5789 122.554 95.2045C122.417 94.8298 122.423 94.8278 122.286 94.4532C122.15 94.0785 122.139 94.0826 122.002 93.7079C121.866 93.3334 121.834 93.345 121.698 92.9705C121.561 92.5962 121.666 92.5582 121.529 92.1838C121.393 91.8094 121.436 91.7936 121.3 91.4193C121.209 91.1696 121.118 90.92 121.027 90.6704C120.891 90.2956 120.762 90.3424 120.626 89.9676C120.489 89.593 120.454 89.6059 120.317 89.2312C120.181 88.8567 120.359 88.7918 120.223 88.4172C120.086 88.0428 119.95 88.0925 119.813 87.7181C119.677 87.3434 119.744 87.3189 119.608 86.9442C119.471 86.5693 119.327 86.6219 119.191 86.247C119.054 85.8723 119.061 85.8698 118.925 85.4951C118.788 85.1205 118.995 85.0453 118.859 84.6707C118.722 84.296 118.554 84.3574 118.417 83.9826C118.281 83.6078 118.24 83.6225 118.104 83.2476C117.967 82.8729 117.978 82.8692 117.841 82.4945C117.705 82.1198 117.882 82.0554 117.745 81.6806C117.609 81.3057 117.568 81.3204 117.432 80.9455C117.295 80.5708 117.364 80.5458 117.227 80.1711C117.091 79.7962 117.023 79.8208 116.887 79.4459C116.75 79.0711 116.791 79.0562 116.655 78.6814C116.518 78.3067 116.335 78.3735 116.199 77.9988C116.062 77.6242 116.077 77.6188 115.941 77.2442C115.804 76.8699 115.772 76.8815 115.636 76.5073C115.5 76.1327 115.54 76.1182 115.403 75.7436C115.267 75.3687 115.27 75.3676 115.133 74.9927C114.997 74.6181 115.089 74.5845 114.953 74.2099C114.816 73.835 114.891 73.8075 114.755 73.4325C114.619 73.0577 114.493 73.1035 114.357 72.7287C114.22 72.3535 114.216 72.3551 114.079 71.98C113.943 71.605 114.082 71.5542 113.946 71.1793C113.809 70.8042 113.736 70.831 113.599 70.4559C113.462 70.0807 113.429 70.0928 113.292 69.7176C113.156 69.3423 113.139 69.3484 113.002 68.9732C112.866 68.5983 112.786 68.6276 112.649 68.2528C112.512 67.8776 112.536 67.8691 112.399 67.4939C112.262 67.1186 112.451 67.0497 112.315 66.6744C112.178 66.299 112.146 66.3109 112.009 65.9355C111.872 65.5595 111.83 65.5748 111.693 65.1988C111.556 64.8228 111.598 64.8069 111.459 64.4319C111.322 64.0628 111.257 64.0869 111.117 63.7188C110.978 63.3504 110.873 63.3902 110.733 63.0218C110.593 62.6537 110.613 62.6462 110.474 62.278C110.334 61.91 110.46 61.8621 110.32 61.4942C110.181 61.1263 110.132 61.1451 109.992 60.7772C109.852 60.4094 109.95 60.3723 109.811 60.0045C109.671 59.6366 109.515 59.6957 109.376 59.3278C109.236 58.9598 109.239 58.9588 109.099 58.5907C108.96 58.2224 109.031 58.1951 108.892 57.8268C108.752 57.4585 108.849 57.4216 108.709 57.0533C108.57 56.6852 108.378 56.758 108.238 56.3898C108.099 56.0218 108.175 55.9929 108.035 55.6249C107.896 55.2569 107.967 55.23 107.827 54.862C107.687 54.4938 107.694 54.4914 107.554 54.1232C107.414 53.7548 107.361 53.775 107.221 53.4066C107.082 53.0383 107.004 53.0678 106.864 52.6995C106.725 52.3313 106.659 52.3563 106.519 51.9881C106.38 51.62 106.492 51.5774 106.352 51.2093C106.212 50.841 106.169 50.8576 106.029 50.4893C105.889 50.1208 105.975 50.0882 105.835 49.7197C105.695 49.3514 105.745 49.3325 105.605 48.9642C105.466 48.596 105.366 48.6337 105.227 48.2655C105.087 47.8971 105.176 47.8634 105.036 47.495C104.896 47.1266 104.721 47.1932 104.581 46.8247C104.441 46.4564 104.634 46.3832 104.494 46.0149C104.354 45.6465 104.376 45.6384 104.236 45.27C104.096 44.9015 103.973 44.9483 103.833 44.5798C103.693 44.2114 103.658 44.2249 103.518 43.8565C103.378 43.488 103.323 43.5091 103.183 43.1406C103.043 42.7722 103.096 42.7521 102.956 42.3837C102.816 42.0154 102.85 42.0027 102.71 41.6344C102.57 41.2661 102.6 41.2549 102.46 40.8866C102.321 40.5187 102.272 40.5373 102.132 40.1694C101.993 39.8012 101.997 39.7994 101.857 39.4313C101.718 39.0627 101.744 39.0525 101.605 38.6839C101.465 38.3157 101.516 38.2965 101.376 37.9283C101.236 37.5597 101.222 37.5652 101.082 37.1966C100.942 36.8282 100.852 36.8624 100.712 36.494C100.572 36.1253 100.692 36.0796 100.552 35.7109C100.413 35.3423 100.334 35.372 100.194 35.0035C100.055 34.6348 100.187 34.5844 100.047 34.2157C99.9075 33.8468 99.9113 33.8454 99.7714 33.4765C99.6314 33.1076 99.5235 33.1486 99.3836 32.7797C99.2438 32.4113 99.2843 32.3959 99.1445 32.0275C99.0045 31.6586 98.8312 31.7244 98.6912 31.3556C98.5513 30.9867 98.5929 30.9709 98.4529 30.602C98.3129 30.2329 98.3626 30.2141 98.2226 29.8451C98.0824 29.4755 98.09 29.4726 97.9939 29.0891C97.8954 28.6961 97.955 28.6505 97.7089 28.3412Z" fill="#0072BA"/>
<path d="M68.5725 37.2324C65.62 38.9724 17.7369 63.8234 12.8614 66.8996C7.59407 70.2231 2.77094 74.5612 0.199426 80.2802C-0.175011 81.1129 -0.019595 82.1163 0.643918 82.7433C1.77062 83.8079 3.20524 82.9062 4.2421 82.0547C4.81108 81.5875 5.37951 81.1196 5.94738 80.651C6.48303 80.209 7.23092 80.841 6.88553 81.4436L1.37323 91.0612C0.80335 92.0555 0.216183 93.1067 0.347755 94.2856C0.42036 94.9361 0.748485 95.5507 1.31531 95.8775C2.21298 96.3951 3.13807 95.9285 3.89539 95.409C5.81026 94.0956 7.38853 92.2952 8.44029 90.2243C6.56953 92.7874 5.18349 95.7038 4.38147 98.7747C4.20771 99.44 4.334 100.167 4.79351 100.678C5.78758 101.784 7.20438 100.998 8.15396 100.166C10.6298 97.9945 12.5944 95.2435 13.8448 92.1964C12.7933 94.1248 12.0049 96.1968 11.5102 98.3371C11.3449 99.0518 11.5083 99.8226 12.0226 100.345C12.9539 101.292 14.2227 100.687 15.0762 99.9438C18.4483 97.009 19.1665 92.1413 21.1103 88.1147C23.6114 82.9338 28.2087 79.1044 32.8763 75.7438C44.1674 67.6145 54.9997 62.0848 67.3931 55.7641L68.5725 37.2324Z" fill="#F39353"/>
<path d="M119.81 68.9679L94.6549 76.896C90.992 77.4586 87.5667 74.9437 87.0044 71.2788C86.4421 67.6139 88.9557 64.1868 92.6186 63.6242L117.518 59.8589L119.81 68.9679Z" fill="#F7C400"/>
<mask id="mask0_14264_6826" style="mask-type:luminance" maskUnits="userSpaceOnUse" x="86" y="59" width="34" height="18">
<path d="M119.81 68.9679L94.6549 76.896C90.992 77.4586 87.5667 74.9437 87.0044 71.2788C86.4421 67.6139 88.9557 64.1868 92.6186 63.6242L117.518 59.8589L119.81 68.9679Z" fill="white"/>
</mask>
<g mask="url(#mask0_14264_6826)">
<path d="M118.89 60.0464C118.403 60.1365 118.402 60.1293 117.915 60.2194C117.428 60.3096 117.437 60.3588 116.95 60.4489C116.464 60.539 116.47 60.5727 115.983 60.6628C115.497 60.7529 115.504 60.7926 115.017 60.8826C114.531 60.9728 114.536 61.0039 114.05 61.094C113.563 61.1842 113.565 61.1974 113.078 61.2875C112.591 61.3776 112.579 61.3105 112.092 61.4006C111.606 61.4907 111.601 61.4652 111.114 61.5553C110.627 61.6454 110.637 61.6974 110.15 61.7876C109.663 61.8777 109.665 61.8885 109.178 61.9786C108.691 62.0688 108.664 61.9244 108.177 62.0146C107.69 62.1047 107.712 62.2213 107.225 62.3115C106.738 62.4016 106.74 62.4125 106.253 62.5027C105.766 62.5928 105.738 62.4388 105.251 62.5289C104.764 62.6191 104.804 62.8397 104.317 62.9298C103.83 63.02 103.817 62.9478 103.33 63.038C102.843 63.1281 102.829 63.0503 102.342 63.1405C101.855 63.2305 101.849 63.1964 101.363 63.2865C100.876 63.3767 100.902 63.5189 100.415 63.6091C100.09 63.6691 99.766 63.7297 99.4417 63.7907C98.9545 63.8809 98.9219 63.7048 98.4347 63.795C97.9479 63.8851 97.9644 63.9748 97.4776 64.065C96.9904 64.1552 96.9839 64.12 96.4968 64.2102C96.0095 64.3004 96.0245 64.3816 95.5372 64.4718C95.2123 64.532 94.8874 64.5925 94.5627 64.6535C94.0754 64.7437 94.0667 64.697 93.5794 64.7872C93.0922 64.8774 93.0822 64.8235 92.595 64.9137C92.1077 65.0039 92.1243 65.0934 91.637 65.1836C91.1496 65.2738 91.1267 65.1501 90.6393 65.2403C90.1511 65.3307 90.1864 65.5211 89.6982 65.6115C89.21 65.7019 89.2089 65.6959 88.7207 65.7863" stroke="#E30518" stroke-miterlimit="10" stroke-linecap="round"/>
<path d="M118.888 58.9663C118.402 59.0564 118.425 59.1848 117.939 59.2749C117.452 59.3651 117.447 59.3402 116.96 59.4304C116.473 59.5205 116.486 59.5861 115.999 59.6762C115.512 59.7663 115.501 59.7029 115.014 59.793C114.527 59.8831 114.511 59.7935 114.024 59.8837C113.537 59.9738 113.539 59.9859 113.052 60.076C112.565 60.1661 112.582 60.2533 112.095 60.3435C111.608 60.4336 111.612 60.4524 111.125 60.5425C110.638 60.6327 110.621 60.543 110.134 60.6332C109.647 60.7233 109.65 60.737 109.163 60.8271C108.676 60.9172 108.666 60.8636 108.179 60.9537C107.692 61.0439 107.705 61.1126 107.218 61.2027C106.731 61.2929 106.751 61.3984 106.264 61.4886C105.777 61.5787 105.739 61.3773 105.252 61.4675C104.765 61.5576 104.799 61.7409 104.312 61.8311C103.825 61.9212 103.789 61.7276 103.302 61.8178C102.815 61.9079 102.855 62.1245 102.368 62.2147C101.882 62.3047 101.878 62.2845 101.392 62.3746C100.905 62.4648 100.884 62.3541 100.397 62.4443C99.9107 62.5344 99.9317 62.6477 99.445 62.7378C98.9578 62.828 98.9242 62.6464 98.437 62.7366C97.9501 62.8268 97.9788 62.9816 97.4919 63.0718C97.0048 63.1619 97.0114 63.1979 96.5243 63.2881C96.037 63.3784 96.0301 63.3412 95.5427 63.4314C95.0554 63.5216 95.057 63.5302 94.5697 63.6204C94.0823 63.7106 94.0808 63.7026 93.5935 63.7928C93.1063 63.883 93.0761 63.7198 92.5889 63.81C92.1016 63.9002 92.1012 63.8978 91.6139 63.988C91.1265 64.0782 91.1459 64.1834 90.6585 64.2737C90.1704 64.364 90.1579 64.2966 89.6697 64.387C89.1815 64.4774 89.2069 64.6147 88.7188 64.7051" stroke="#E30518" stroke-miterlimit="10" stroke-linecap="round"/>
<path d="M121.645 60.8799C121.151 60.9714 121.149 60.9612 120.654 61.0528C120.159 61.1444 120.157 61.1288 119.662 61.2204C119.167 61.312 119.171 61.3358 118.677 61.4274C118.182 61.519 118.167 61.4372 117.672 61.5287C117.178 61.6203 117.178 61.6217 116.684 61.7133C116.189 61.8049 116.19 61.8085 115.695 61.9001C115.2 61.9918 115.186 61.9149 114.691 62.0066C114.196 62.0982 114.229 62.2785 113.735 62.3701C113.24 62.4617 113.194 62.2108 112.699 62.3024C112.204 62.394 112.223 62.4927 111.728 62.5843C111.233 62.6759 111.259 62.8159 110.764 62.9076C110.269 62.9992 110.246 62.8748 109.751 62.9664C109.257 63.058 109.241 62.9711 108.746 63.0628C108.251 63.1544 108.279 63.3056 107.784 63.3972C107.289 63.4888 107.288 63.4834 106.793 63.575C106.298 63.6667 106.281 63.5744 105.786 63.666C105.291 63.7576 105.285 63.7226 104.79 63.8142C104.295 63.9058 104.323 64.0582 103.828 64.1499C103.333 64.2415 103.332 64.2353 102.837 64.3269C102.342 64.4186 102.31 64.2451 101.814 64.3368C101.32 64.4284 101.362 64.6607 100.867 64.7523C100.372 64.8439 100.356 64.7546 99.861 64.8463C99.3666 64.9378 99.3484 64.8392 98.8539 64.9308C98.3589 65.0224 98.3693 65.0785 97.8743 65.1701C97.3796 65.2617 97.3843 65.2872 96.8896 65.3788C96.3944 65.4704 96.4107 65.5588 95.9155 65.6504C95.4206 65.7421 95.3961 65.6096 94.9012 65.7012C94.4061 65.7929 94.4141 65.8363 93.919 65.9279C93.4236 66.0196 93.419 65.9945 92.9236 66.0862C92.4283 66.178 92.4503 66.2972 91.955 66.3889C91.4596 66.4806 91.4183 66.2574 90.923 66.3491C90.4278 66.4408 90.445 66.5338 89.9497 66.6255C89.4545 66.7172 89.4737 66.8212 88.9784 66.9129C88.483 67.0046 88.481 66.9936 87.9855 67.0853C87.4893 67.1771 87.4953 67.2093 86.9991 67.3012C86.5029 67.3931 86.4728 67.2304 85.9766 67.3222" stroke="#E30518" stroke-miterlimit="10" stroke-linecap="round"/>
<path d="M121.635 61.8975C121.141 61.989 121.137 61.9706 120.643 62.0621C120.148 62.1537 120.129 62.0539 119.635 62.1455C119.14 62.2371 119.133 62.1988 118.638 62.2904C118.143 62.382 118.165 62.4976 117.67 62.5892C117.176 62.6807 117.179 62.6961 116.684 62.7876C116.19 62.8792 116.162 62.7323 115.668 62.8239C115.173 62.9155 115.172 62.9119 114.677 63.0036C114.182 63.0952 114.193 63.1542 113.699 63.2457C113.204 63.3373 113.228 63.4699 112.734 63.5614C112.239 63.653 112.217 63.533 111.722 63.6246C111.227 63.7163 111.23 63.731 110.735 63.8226C110.24 63.9142 110.252 63.9791 109.757 64.0707C109.263 64.1623 109.264 64.167 108.769 64.2586C108.274 64.3503 108.269 64.326 107.774 64.4177C107.279 64.5093 107.277 64.4986 106.783 64.5902C106.288 64.6819 106.264 64.5568 105.769 64.6484C105.275 64.74 105.305 64.9028 104.81 64.9944C104.315 65.0861 104.317 65.0999 103.822 65.1916C103.327 65.2832 103.329 65.293 102.834 65.3846C102.339 65.4763 102.31 65.3175 101.815 65.4092C101.32 65.5008 101.336 65.5897 100.841 65.6814C100.346 65.773 100.362 65.8577 99.8668 65.9493C99.3724 66.0408 99.3378 65.8537 98.8433 65.9453C98.3483 66.0369 98.351 66.0515 97.856 66.1431C97.3613 66.2347 97.3777 66.3231 96.8829 66.4146C96.3877 66.5063 96.3718 66.4202 95.8766 66.5119C95.3817 66.6035 95.418 66.7995 94.9231 66.8911C94.4279 66.9828 94.4009 66.8366 93.9058 66.9283C93.4104 67.02 93.4392 67.1754 92.9438 67.2671C92.4485 67.3588 92.4111 67.1569 91.9158 67.2486C91.4204 67.3403 91.4284 67.3836 90.933 67.4753C90.4378 67.567 90.4296 67.5226 89.9344 67.6142C89.4391 67.7059 89.4795 67.9245 88.9843 68.0162C88.4888 68.108 88.4474 67.8836 87.9519 67.9754C87.4557 68.0672 87.475 68.1715 86.9788 68.2634C86.4826 68.3552 86.4689 68.281 85.9727 68.3729" stroke="#E30518" stroke-miterlimit="10" stroke-linecap="round"/>
<path d="M122.167 62.8745C121.673 62.9661 121.682 63.0168 121.188 63.1084C120.693 63.2 120.667 63.0612 120.172 63.1528C119.678 63.2444 119.709 63.4159 119.214 63.5075C118.72 63.599 118.694 63.4608 118.2 63.5523C117.705 63.6439 117.702 63.624 117.207 63.7156C116.713 63.8072 116.716 63.8255 116.221 63.9171C115.726 64.0087 115.764 64.2102 115.269 64.3019C114.774 64.3935 114.759 64.3107 114.264 64.4023C113.769 64.4939 113.743 64.3545 113.249 64.446C112.754 64.5376 112.764 64.5928 112.269 64.6844C111.775 64.7761 111.773 64.7656 111.278 64.8572C110.783 64.9488 110.812 65.1059 110.317 65.1975C109.822 65.2891 109.798 65.156 109.303 65.2477C108.808 65.3393 108.797 65.2803 108.302 65.3719C107.807 65.4635 107.835 65.6131 107.34 65.7047C106.845 65.7964 106.846 65.8018 106.351 65.8935C105.856 65.9851 105.836 65.8754 105.341 65.967C104.846 66.0587 104.878 66.2307 104.383 66.3224C103.888 66.414 103.872 66.3275 103.377 66.4191C102.882 66.5108 102.879 66.4933 102.383 66.585C101.888 66.6766 101.905 66.7671 101.41 66.8587C100.915 66.9503 100.908 66.913 100.413 67.0046C99.919 67.0962 99.9181 67.0917 99.4237 67.1833C98.9287 67.2749 98.9264 67.2624 98.4314 67.354C97.9367 67.4456 97.9474 67.5037 97.4527 67.5953C96.9575 67.687 96.9146 67.455 96.4194 67.5466C95.9245 67.6383 95.9292 67.6635 95.4343 67.7551C94.9392 67.8468 94.9419 67.8614 94.4467 67.9531C93.9514 68.0448 93.9627 68.1061 93.4674 68.1978C92.972 68.2895 92.9823 68.3451 92.4869 68.4368C91.9916 68.5285 91.9907 68.5236 91.4953 68.6153C91.0001 68.707 90.9804 68.6007 90.4852 68.6924C89.9899 68.7841 90.0005 68.8415 89.5053 68.9332C89.0098 69.0249 88.9965 68.953 88.5011 69.0447C88.0049 69.1366 88.0249 69.2447 87.5287 69.3365C87.0325 69.4284 87.0509 69.528 86.5547 69.6199" stroke="#E30518" stroke-miterlimit="10" stroke-linecap="round"/>
<path d="M122.194 64.1758C121.7 64.2673 121.677 64.1429 121.182 64.2344C120.687 64.326 120.68 64.2874 120.185 64.379C119.691 64.4706 119.685 64.4384 119.19 64.53C118.695 64.6216 118.73 64.8061 118.235 64.8976C117.741 64.9892 117.726 64.9113 117.232 65.0028C116.737 65.0944 116.735 65.0838 116.24 65.1754C115.745 65.2671 115.725 65.1572 115.23 65.2488C114.735 65.3404 114.75 65.4213 114.256 65.5128C113.761 65.6044 113.75 65.5453 113.255 65.6369C112.761 65.7285 112.768 65.7695 112.273 65.8611C111.778 65.9528 111.768 65.8965 111.273 65.9881C110.778 66.0797 110.799 66.1904 110.304 66.282C109.809 66.3736 109.792 66.2776 109.297 66.3692C108.802 66.4608 108.815 66.5319 108.32 66.6235C107.825 66.7151 107.808 66.6249 107.314 66.7165C106.819 66.8081 106.821 66.8208 106.326 66.9125C105.831 67.0041 105.84 67.0508 105.345 67.1424C104.85 67.234 104.86 67.2877 104.365 67.3794C103.87 67.471 103.883 67.5411 103.388 67.6327C102.893 67.7244 102.873 67.6167 102.378 67.7084C101.883 67.8 101.891 67.8473 101.396 67.9389C100.901 68.0305 100.906 68.0561 100.411 68.1478C99.9167 68.2393 99.9138 68.224 99.4194 68.3155C98.9244 68.4071 98.9236 68.4029 98.4286 68.4946C97.9339 68.5862 97.9203 68.5124 97.4255 68.604C96.9304 68.6957 96.9192 68.6355 96.424 68.7271C95.9291 68.8188 95.943 68.8939 95.4481 68.9855C94.953 69.0772 94.9807 69.2268 94.4855 69.3184C93.9902 69.4102 93.9484 69.1843 93.4531 69.276C92.9577 69.3677 92.9962 69.5759 92.5008 69.6676C92.0055 69.7593 92.007 69.7677 91.5117 69.8594C91.1815 69.9205 90.8515 69.982 90.5214 70.0439C90.0262 70.1356 89.9956 69.9701 89.5003 70.0618C89.0049 70.1535 89.0366 70.3251 88.5412 70.4169C88.045 70.5087 88.012 70.3306 87.5158 70.4224C87.0196 70.5143 87.0489 70.673 86.5527 70.7648" stroke="#E30518" stroke-miterlimit="10" stroke-linecap="round"/>
<path d="M122.19 65.2573C121.696 65.3489 121.701 65.3791 121.207 65.4706C120.712 65.5622 120.706 65.5309 120.211 65.6225C119.716 65.7141 119.684 65.5399 119.189 65.6315C118.695 65.723 118.701 65.7544 118.206 65.8459C117.712 65.9375 117.731 66.0418 117.237 66.1333C116.742 66.2249 116.729 66.1538 116.234 66.2454C115.739 66.3371 115.725 66.2598 115.23 66.3514C114.735 66.443 114.736 66.4457 114.241 66.5373C113.746 66.6289 113.785 66.8389 113.29 66.9304C112.796 67.022 112.761 66.8328 112.266 66.9244C111.771 67.0161 111.794 67.1423 111.299 67.234C110.805 67.3256 110.789 67.2434 110.295 67.3349C109.8 67.4265 109.805 67.4527 109.31 67.5443C108.815 67.6359 108.84 67.7723 108.345 67.8639C107.85 67.9555 107.84 67.9021 107.346 67.9937C106.851 68.0853 106.825 67.9447 106.33 68.0364C105.835 68.128 105.871 68.3231 105.376 68.4147C104.881 68.5064 104.848 68.3293 104.353 68.4209C103.858 68.5126 103.846 68.4491 103.351 68.5407C102.856 68.6324 102.894 68.8367 102.399 68.9283C101.904 69.02 101.884 68.9134 101.389 69.005C100.894 69.0966 100.893 69.0888 100.398 69.1804C99.9035 69.2719 99.9079 69.2959 99.4135 69.3874C98.9185 69.4791 98.9028 69.3946 98.4078 69.4862C97.9131 69.5778 97.9327 69.6836 97.4379 69.7752C96.9428 69.8668 96.9278 69.7859 96.4326 69.8776C95.9377 69.9692 95.9665 70.1248 95.4716 70.2164C94.9764 70.308 94.9785 70.319 94.4833 70.4106C93.988 70.5023 93.9832 70.4768 93.4879 70.5685C92.9925 70.6602 92.9733 70.556 92.4779 70.6477C91.9826 70.7394 91.9774 70.7115 91.482 70.8032C90.9868 70.8949 90.981 70.8636 90.4858 70.9553C89.9905 71.047 90.0064 71.1326 89.5111 71.2243C89.0157 71.316 89.0279 71.3821 88.5325 71.4738C88.0363 71.5657 88.0273 71.5174 87.5311 71.6093C87.0349 71.7011 87.0392 71.7242 86.543 71.8161" stroke="#E30518" stroke-miterlimit="10" stroke-linecap="round"/>
<path d="M122.212 66.0923C121.717 66.1838 121.757 66.4022 121.263 66.4938C120.768 66.5854 120.748 66.479 120.254 66.5706C119.759 66.6622 119.768 66.7138 119.274 66.8054C118.779 66.897 118.759 66.7893 118.265 66.8808C117.77 66.9724 117.805 67.1604 117.311 67.252C116.816 67.3435 116.777 67.1312 116.282 67.2228C115.787 67.3144 115.808 67.4276 115.313 67.5193C114.818 67.6109 114.808 67.5561 114.313 67.6477C113.819 67.7392 113.811 67.6999 113.317 67.7914C112.822 67.883 112.842 67.9913 112.347 68.0829C111.852 68.1745 111.855 68.1877 111.36 68.2794C110.865 68.371 110.84 68.2373 110.346 68.3289C109.851 68.4205 109.885 68.603 109.39 68.6946C108.895 68.7862 108.885 68.7363 108.39 68.828C107.896 68.9196 107.904 68.966 107.409 69.0576C106.914 69.1493 106.872 68.9218 106.377 69.0135C105.882 69.1051 105.896 69.1794 105.401 69.271C104.906 69.3626 104.913 69.3976 104.418 69.4893C103.923 69.5809 103.915 69.5361 103.42 69.6277C102.924 69.7194 102.949 69.8517 102.454 69.9434C101.959 70.035 101.928 69.8696 101.433 69.9612C100.938 70.0528 100.953 70.1336 100.458 70.2253C99.9638 70.3168 99.9753 70.3786 99.4808 70.4701C98.9858 70.5618 98.9937 70.6045 98.4987 70.6961C98.004 70.7877 97.999 70.7608 97.5043 70.8524C97.0091 70.9441 97.0017 70.9037 96.5065 70.9954C96.0116 71.087 96.0168 71.1152 95.5219 71.2069C95.0268 71.2985 95.0377 71.3575 94.5425 71.4492C94.0472 71.5409 94.0248 71.4201 93.5295 71.5118C93.0341 71.6035 93.0465 71.6703 92.5511 71.762C92.0558 71.8537 92.0349 71.7408 91.5395 71.8326C91.0443 71.9242 91.0558 71.9864 90.5606 72.0781C90.0653 72.1698 90.0667 72.1773 89.5714 72.269C89.076 72.3607 89.0683 72.319 88.5729 72.4107C88.0767 72.5025 88.0645 72.4367 87.5683 72.5286C87.0721 72.6204 87.0821 72.675 86.5859 72.7668" stroke="#E30518" stroke-miterlimit="10" stroke-linecap="round"/>
<path d="M122.436 67.1992C121.941 67.2908 121.915 67.1485 121.42 67.24C120.925 67.3316 120.934 67.3805 120.44 67.4721C119.945 67.5637 119.934 67.5066 119.44 67.5981C118.945 67.6897 118.988 67.9242 118.494 68.0157C117.999 68.1073 117.974 67.9673 117.479 68.0588C116.984 68.1504 116.998 68.2258 116.504 68.3174C116.009 68.409 115.976 68.2335 115.481 68.3252C114.986 68.4168 115.028 68.6429 114.534 68.7345C114.039 68.8261 114.003 68.6333 113.509 68.7249C113.014 68.8165 113.027 68.8843 112.532 68.9759C112.037 69.0675 112.044 69.1068 111.549 69.1984C111.054 69.29 111.065 69.3495 110.571 69.4411C110.076 69.5327 110.076 69.5357 109.582 69.6273C109.087 69.7189 109.08 69.6841 108.585 69.7758C108.09 69.8674 108.072 69.7683 107.577 69.8599C107.082 69.9515 107.103 70.066 106.608 70.1576C106.113 70.2492 106.106 70.209 105.611 70.3007C105.116 70.3923 105.107 70.3435 104.612 70.4352C104.117 70.5268 104.116 70.5236 103.622 70.6153C103.126 70.7069 103.139 70.774 102.644 70.8657C102.149 70.9573 102.129 70.8529 101.634 70.9445C101.139 71.0362 101.128 70.9739 100.633 71.0655C100.139 71.157 100.182 71.3896 99.6871 71.4811C99.1921 71.5728 99.1757 71.4839 98.6807 71.5756C98.186 71.6672 98.203 71.7594 97.7083 71.851C97.2131 71.9426 97.1957 71.8487 96.7005 71.9404C96.2056 72.032 96.2076 72.0423 95.7127 72.1339C95.2175 72.2256 95.2059 72.1626 94.7107 72.2542C94.2154 72.3459 94.2216 72.3797 93.7263 72.4714C93.2309 72.5631 93.2376 72.5995 92.7423 72.6912C92.2469 72.7829 92.2206 72.6405 91.7252 72.7322C91.23 72.8239 91.2591 72.981 90.7639 73.0727C90.2686 73.1644 90.2719 73.1825 89.7766 73.2742C89.2812 73.3659 89.2463 73.1771 88.7509 73.2689C88.2547 73.3607 88.2896 73.5494 87.7934 73.6412C87.2971 73.7331 87.2833 73.6583 86.7871 73.7502" stroke="#E30518" stroke-miterlimit="10" stroke-linecap="round"/>
<path d="M122.579 68.1372C122.084 68.2288 122.058 68.0843 121.563 68.1759C121.068 68.2675 121.074 68.3001 120.58 68.3917C120.085 68.4833 120.086 68.4914 119.592 68.583C119.097 68.6745 119.104 68.7128 118.61 68.8044C118.115 68.8959 118.119 68.917 117.625 69.0086C117.13 69.1002 117.11 68.9919 116.615 69.0835C116.12 69.1752 116.142 69.2926 115.647 69.3842C115.152 69.4758 115.141 69.4133 114.646 69.5049C114.151 69.5964 114.141 69.541 113.647 69.6326C113.152 69.7242 113.163 69.7865 112.668 69.8781C112.173 69.9697 112.177 69.987 111.682 70.0786C111.187 70.1702 111.167 70.0623 110.672 70.1539C110.178 70.2455 110.204 70.389 109.709 70.4806C109.214 70.5722 109.207 70.5311 108.712 70.6227C108.217 70.7143 108.242 70.8499 107.747 70.9415C107.252 71.0332 107.205 70.7782 106.71 70.8699C106.215 70.9615 106.236 71.0759 105.741 71.1676C105.246 71.2592 105.255 71.3081 104.76 71.3997C104.265 71.4914 104.248 71.3987 103.753 71.4903C103.258 71.582 103.292 71.7657 102.797 71.8574C102.302 71.949 102.288 71.8754 101.793 71.967C101.298 72.0586 101.289 72.0074 100.794 72.0991C100.3 72.1906 100.303 72.2102 99.8088 72.3017C99.4788 72.3628 99.1488 72.4239 98.8188 72.4852C98.3241 72.5768 98.3347 72.6345 97.84 72.7261C97.5099 72.7872 97.1798 72.8488 96.8499 72.9109C96.355 73.0025 96.3241 72.8355 95.8292 72.9272C95.3341 73.0188 95.3456 73.0808 94.8504 73.1724C94.3551 73.2641 94.3488 73.2301 93.8534 73.3218C93.3581 73.4135 93.3464 73.3506 92.8511 73.4423C92.3557 73.534 92.3702 73.6122 91.8748 73.7039C91.3796 73.7956 91.3915 73.8597 90.8962 73.9514C90.401 74.0431 90.4067 74.0743 89.9114 74.166C89.416 74.2577 89.3995 74.1686 88.9041 74.2603C88.4079 74.3522 88.4343 74.4948 87.9381 74.5867C87.4419 74.6786 87.4142 74.5288 86.918 74.6206" stroke="#E30518" stroke-miterlimit="10" stroke-linecap="round"/>
<path d="M123.026 68.894C122.531 68.9856 122.53 68.9788 122.035 69.0703C121.541 69.162 121.551 69.2183 121.056 69.3099C120.561 69.4015 120.553 69.3541 120.058 69.4457C119.563 69.5372 119.574 69.5969 119.08 69.6885C118.585 69.78 118.547 69.575 118.053 69.6665C117.558 69.7581 117.593 69.9458 117.098 70.0373C116.603 70.129 116.569 69.9446 116.074 70.0363C115.58 70.1278 115.597 70.2234 115.103 70.315C114.608 70.4066 114.626 70.507 114.132 70.5986C113.637 70.6902 113.611 70.5483 113.116 70.6399C112.621 70.7315 112.623 70.7434 112.128 70.8351C111.634 70.9267 111.639 70.956 111.144 71.0476C110.65 71.1392 110.668 71.2379 110.173 71.3295C109.678 71.4212 109.673 71.3923 109.178 71.4839C108.683 71.5755 108.661 71.4594 108.167 71.551C107.671 71.6427 107.659 71.5732 107.164 71.6648C106.669 71.7564 106.683 71.8319 106.188 71.9236C105.693 72.0152 105.688 71.9915 105.193 72.0832C104.698 72.1748 104.714 72.2595 104.219 72.3511C103.724 72.4428 103.716 72.4001 103.221 72.4918C102.726 72.5834 102.734 72.6242 102.239 72.7158C101.744 72.8075 101.75 72.8401 101.255 72.9317C100.76 73.0232 100.755 72.9939 100.26 73.0854C99.7654 73.1771 99.7426 73.0537 99.2476 73.1454C98.7529 73.237 98.7893 73.4337 98.2946 73.5253C97.7994 73.617 97.779 73.5067 97.2838 73.5984C96.7889 73.69 96.777 73.626 96.2821 73.7176C95.787 73.8092 95.7919 73.8357 95.2968 73.9274C94.8014 74.0191 94.7954 73.9867 94.3001 74.0784C93.8047 74.1702 93.8363 74.341 93.341 74.4327C92.8456 74.5244 92.837 74.4777 92.3416 74.5694C91.8464 74.6611 91.8562 74.7139 91.3609 74.8056C90.8657 74.8973 90.8366 74.7403 90.3413 74.832C89.8459 74.9238 89.855 74.9725 89.3595 75.0642C88.8633 75.1561 88.8883 75.2911 88.3921 75.383C87.8959 75.4748 87.8595 75.2781 87.3633 75.37" stroke="#E30518" stroke-miterlimit="10" stroke-linecap="round"/>
<path d="M123.27 69.8047C122.776 69.8962 122.788 69.9644 122.294 70.0559C121.799 70.1476 121.76 69.9392 121.265 70.0308C120.771 70.1224 120.803 70.2951 120.308 70.3867C119.813 70.4783 119.787 70.3334 119.292 70.425C118.798 70.5165 118.823 70.6517 118.328 70.7432C117.834 70.8348 117.831 70.8228 117.337 70.9144C116.842 71.0061 116.814 70.8591 116.319 70.9507C115.825 71.0423 115.834 71.095 115.34 71.1865C114.845 71.2781 114.841 71.2532 114.346 71.3448C113.851 71.4364 113.873 71.5562 113.378 71.6478C112.884 71.7394 112.875 71.6936 112.38 71.7852C111.885 71.8768 111.899 71.9498 111.404 72.0414C110.909 72.133 110.872 71.9297 110.377 72.0213C109.882 72.1129 109.895 72.1853 109.4 72.277C108.905 72.3686 108.904 72.3604 108.409 72.452C107.914 72.5437 107.904 72.4912 107.409 72.5829C106.915 72.6745 106.919 72.6987 106.424 72.7904C105.929 72.882 105.964 73.0724 105.469 73.1641C104.974 73.2557 104.956 73.1539 104.461 73.2455C103.965 73.3372 103.987 73.4509 103.491 73.5425C102.996 73.6342 102.983 73.5632 102.488 73.6549C101.993 73.7465 101.981 73.678 101.486 73.7696C100.991 73.8611 101.014 73.9859 100.52 74.0774C100.025 74.169 99.9805 73.9288 99.4855 74.0204C98.9908 74.112 99.0103 74.2177 98.5156 74.3092C98.0204 74.4009 98.0355 74.4824 97.5403 74.574C97.0454 74.6656 97.0557 74.7214 96.5608 74.813C96.0656 74.9047 96.02 74.658 95.5249 74.7496C95.0295 74.8413 95.0647 75.0313 94.5693 75.123C94.074 75.2147 94.0845 75.2719 93.5892 75.3636C93.0938 75.4553 93.074 75.3484 92.5787 75.4401C92.0835 75.5318 92.0579 75.3934 91.5627 75.4851C91.0674 75.5768 91.0855 75.6749 90.5902 75.7666C90.0948 75.8583 90.0955 75.8622 89.6001 75.9539C89.1039 76.0458 89.1052 76.0526 88.609 76.1444C88.1128 76.2363 88.1075 76.2081 87.6113 76.3" stroke="#E30518" stroke-miterlimit="10" stroke-linecap="round"/>
<path d="M123.545 70.501C123.05 70.5925 123.07 70.7002 122.576 70.7917C122.081 70.8833 122.051 70.7198 121.556 70.8114C121.061 70.903 121.064 70.9178 120.569 71.0094C120.074 71.101 120.11 71.2922 119.615 71.3838C119.121 71.4753 119.08 71.2529 118.585 71.3444C118.091 71.436 118.09 71.4339 117.596 71.5255C117.101 71.6171 117.128 71.7672 116.633 71.8588C116.139 71.9504 116.128 71.8947 115.634 71.9863C115.139 72.0778 115.142 72.0964 114.648 72.188C114.153 72.2796 114.135 72.1805 113.64 72.2721C113.145 72.3638 113.178 72.5437 112.683 72.6353C112.188 72.7269 112.198 72.7767 111.703 72.8683C111.208 72.9599 111.189 72.8566 110.694 72.9482C110.199 73.0398 110.189 72.9833 109.694 73.0749C109.199 73.1665 109.208 73.2129 108.713 73.3045C108.218 73.3962 108.193 73.2638 107.698 73.3554C107.203 73.447 107.232 73.6037 106.737 73.6953C106.242 73.787 106.248 73.8158 105.753 73.9074C105.258 73.9991 105.226 73.8266 104.731 73.9183C104.236 74.0099 104.236 74.0126 103.741 74.1043C103.246 74.1959 103.255 74.2408 102.76 74.3324C102.265 74.424 102.274 74.4738 101.779 74.5654C101.284 74.6569 101.298 74.7308 100.804 74.8223C100.309 74.914 100.319 74.9709 99.8241 75.0625C99.3294 75.1541 99.296 74.9734 98.8012 75.065C98.306 75.1567 98.3235 75.251 97.8283 75.3427C97.3334 75.4343 97.3137 75.3278 96.8188 75.4194C96.3237 75.5111 96.3564 75.6881 95.8613 75.7797C95.3659 75.8715 95.3577 75.8268 94.8623 75.9185C94.367 76.0102 94.334 75.832 93.8387 75.9237C93.3433 76.0154 93.3726 76.1739 92.8773 76.2656C92.382 76.3573 92.3587 76.2309 91.8634 76.3226C91.5332 76.3837 91.203 76.4444 90.8726 76.5047C90.3772 76.5964 90.3944 76.6891 89.8989 76.7808C89.4027 76.8727 89.3989 76.8518 88.9027 76.9437C88.4065 77.0356 88.4161 77.0879 87.9199 77.1798" stroke="#E30518" stroke-miterlimit="10" stroke-linecap="round"/>
</g>
<path d="M60.5795 8.88553C58.8583 11.1624 58.6946 14.7708 58.9469 17.1058C59.0123 17.7107 59.1884 19.5428 57.899 20.4893C57.2707 20.9505 56.4676 21.6816 56.2628 22.5771C55.9729 24.4219 56.6043 25.3995 58.9774 25.5914C59.8972 25.6658 60.6056 26.4399 60.6211 27.363C60.6439 28.7243 60.8146 30.6061 62.3175 32.0268C66.3478 35.8368 68.2863 31.4119 68.5717 37.2322C73.794 36.1193 80.0222 33.4609 84.7849 31.1166C82.2442 27.3801 82.9857 26.7858 84.6735 25.5175C86.335 24.2688 87.419 22.4104 87.7367 20.3556C88.4497 15.7428 92.9716 9.38445 86.1563 6.84422C79.3175 4.29522 80.5947 14.3892 76.6819 13.3929C71.3274 12.1136 65.215 12.0855 60.5795 8.88553Z" fill="#F39353"/>
<path d="M83.2695 9.89616C83.994 9.22868 85.1181 9.03485 86.024 9.42121C86.93 9.80757 87.5687 10.7532 87.5891 11.7383C87.608 12.6518 86.558 17.1274 85.7727 20.5962C85.5314 21.6624 84.8947 22.7232 83.8683 23.0981" stroke="#E30518" stroke-miterlimit="10" stroke-linecap="round"/>
<path d="M97.6535 28.0662C96.0759 28.3192 94.1583 36.0821 98.7814 43.3126C100.137 45.4327 102.17 47.146 104.684 47.2263C107.669 50.7521 112.626 52.2348 116.2 55.161C116.471 58.4186 115.99 54.5986 117.453 59.8135C117.885 61.3563 119.745 68.9225 119.745 68.9225C119.745 68.9225 112.158 71.1535 111.095 71.6023C110.011 72.0596 101.017 72.884 97.7565 72.432C96.9692 72.3229 96.1811 72.0867 95.3937 72.1951C94.6063 72.3035 93.8022 72.9096 93.8275 73.7045C93.8542 74.5448 94.7148 75.0642 95.2501 75.7123C95.3127 75.7882 95.3749 75.8801 95.3573 75.9769C95.3442 76.0487 95.2898 76.105 95.2359 76.1543C94.3673 76.9485 93.0255 77.0628 91.915 76.6732C90.8046 76.2836 89.8952 75.4643 89.1331 74.5672C88.5849 73.922 88.09 73.2149 87.8109 72.4154C87.5061 71.5421 87.299 70.2926 86.422 70.1702C84.6896 69.9283 83.9535 71.8294 84.1276 73.5708C83.7902 72.8672 82.8982 72.35 82.2175 72.7311C81.668 73.0387 81.0418 73.9451 81.1193 74.7207C81.2739 76.2662 81.7898 77.5026 82.5397 78.8625C81.7787 78.7083 80.9941 78.5638 80.2306 78.7055C79.4671 78.8473 78.7195 79.3389 78.4974 80.0834C78.2638 80.8668 78.5031 81.8676 79.1687 82.3419C88.08 88.6917 108.291 87.0102 111.641 86.1867C111.641 86.1867 147.646 80.8965 144.834 53.2885C142.022 25.6806 115.677 25.1765 97.6535 28.0662Z" fill="#F39353"/>
<path d="M92.9219 55.5337L118.528 51.417L119.825 59.4878L94.218 63.6045C91.992 63.9624 89.8944 62.4447 89.5367 60.2175C89.1791 57.9903 90.6959 55.8916 92.9219 55.5337Z" fill="#ED6FA7"/>
<path d="M92.9219 55.5337L118.528 51.417L119.825 59.4878L94.218 63.6045C91.992 63.9624 89.8944 62.4447 89.5367 60.2175C89.1791 57.9903 90.6959 55.8916 92.9219 55.5337Z" fill="url(#paint0_linear_14264_6826)"/>
<path d="M95.5469 47.4751L115.9 41.2463C118.816 40.7775 121.559 42.7627 122.028 45.6803C122.497 48.598 120.512 51.3432 117.596 51.8121L97.1314 55.1022L95.5469 47.4751Z" fill="#F7C400"/>
<mask id="mask1_14264_6826" style="mask-type:luminance" maskUnits="userSpaceOnUse" x="95" y="41" width="28" height="15">
<path d="M95.5469 47.4746L115.9 41.2458C118.816 40.777 121.559 42.7622 122.028 45.6798C122.497 48.5975 120.512 51.3428 117.596 51.8116L97.1314 55.1017L95.5469 47.4746Z" fill="white"/>
</mask>
<g mask="url(#mask1_14264_6826)">
<path d="M95.7734 48.6094C96.0263 48.5345 96.0911 48.7536 96.344 48.6787C96.5968 48.6039 96.5566 48.4683 96.8094 48.3934C97.0621 48.3186 97.0715 48.3506 97.3242 48.2758C97.5769 48.201 97.608 48.3065 97.8607 48.2317C98.1134 48.1568 98.1137 48.1578 98.3664 48.083C98.6192 48.0082 98.5962 47.9304 98.849 47.8556C99.1019 47.7807 99.123 47.8518 99.376 47.7769C99.629 47.702 99.5849 47.5528 99.8379 47.4779C100.091 47.4031 100.128 47.5287 100.381 47.4538C100.633 47.379 100.619 47.3307 100.872 47.2559C101.125 47.181 101.119 47.1624 101.372 47.0875C101.625 47.0127 101.624 47.0105 101.877 46.9356C102.13 46.8607 102.117 46.8155 102.37 46.7406C102.623 46.6657 102.636 46.7093 102.889 46.6344C103.142 46.5595 103.143 46.5626 103.395 46.4877C103.648 46.4129 103.623 46.3272 103.876 46.2523C104.129 46.1774 104.176 46.3357 104.428 46.2608C104.682 46.1859 104.635 46.0294 104.889 45.9544C105.141 45.8795 105.126 45.8271 105.379 45.7522C105.632 45.6773 105.678 45.8321 105.931 45.7572C106.183 45.6825 106.144 45.5504 106.396 45.4757C106.648 45.401 106.673 45.4829 106.925 45.4082C107.177 45.3334 107.201 45.414 107.454 45.3392C107.707 45.2643 107.671 45.144 107.924 45.0691C108.177 44.9941 108.196 45.0568 108.449 44.9818C108.701 44.907 108.685 44.8513 108.938 44.7765C109.19 44.7017 109.196 44.7217 109.449 44.6469C109.702 44.572 109.723 44.6436 109.976 44.5687C110.229 44.4938 110.205 44.4133 110.458 44.3383C110.711 44.2633 110.692 44.1985 110.945 44.1236C111.198 44.0487 111.232 44.1633 111.485 44.0885C111.738 44.0135 111.712 43.9271 111.965 43.8522C112.219 43.7772 112.209 43.7427 112.462 43.6677C112.715 43.5927 112.756 43.7305 113.009 43.6556C113.262 43.5805 113.229 43.4673 113.482 43.3923C113.735 43.3173 113.747 43.3585 114.001 43.2835C114.254 43.2085 114.263 43.2395 114.517 43.1644C114.77 43.0894 114.764 43.0691 115.017 42.9941C115.271 42.9191 115.28 42.9509 115.534 42.8759C115.787 42.8009 115.797 42.8335 116.05 42.7585C116.303 42.6835 116.308 42.6989 116.561 42.6239C116.814 42.5489 116.827 42.592 117.08 42.517C117.334 42.4419 117.342 42.4682 117.595 42.3931C117.849 42.318 117.789 42.1147 118.042 42.0396C118.296 41.9645 118.319 42.0406 118.572 41.9654C118.827 41.8902 118.863 42.0141 119.117 41.9388C119.372 41.8636 119.331 41.7256 119.585 41.6504" stroke="#0072BA" stroke-miterlimit="10"/>
<path d="M95.9688 49.7644C96.2242 49.6901 96.2577 49.8054 96.5132 49.7311C96.7686 49.6569 96.7638 49.6403 97.0191 49.566C97.2743 49.4918 97.3062 49.6017 97.5614 49.5275C97.8166 49.4533 97.7635 49.2705 98.0186 49.1963C98.2737 49.1222 98.3321 49.323 98.5872 49.2488C98.8423 49.1746 98.79 48.9946 99.0452 48.9204C99.3005 48.8462 99.3206 48.9154 99.5758 48.8412C99.8313 48.7669 99.8273 48.7531 100.083 48.6789C100.338 48.6046 100.317 48.5325 100.573 48.4583C100.828 48.384 100.825 48.3736 101.08 48.2994C101.336 48.2252 101.35 48.2737 101.605 48.1994C101.86 48.1252 101.886 48.2143 102.141 48.1401C102.397 48.0659 102.37 47.9749 102.625 47.9007C102.881 47.8264 102.897 47.8824 103.153 47.8081C103.408 47.7338 103.413 47.7514 103.669 47.6771C103.924 47.6029 103.935 47.6403 104.19 47.566C104.446 47.4918 104.413 47.3796 104.668 47.3053C104.924 47.2311 104.907 47.1728 105.162 47.0985C105.418 47.0242 105.454 47.1495 105.71 47.0752C105.965 47.0009 105.947 46.9366 106.202 46.8623C106.458 46.788 106.438 46.7226 106.694 46.6484C106.949 46.5743 106.95 46.5779 107.204 46.5038C107.459 46.4297 107.511 46.6085 107.766 46.5345C108.021 46.4603 107.991 46.3565 108.246 46.2823C108.501 46.2081 108.481 46.1392 108.736 46.065C108.992 45.9906 109.026 46.1088 109.282 46.0345C109.537 45.9603 109.509 45.863 109.764 45.7888C110.019 45.7146 110.025 45.7358 110.28 45.6617C110.536 45.5874 110.584 45.755 110.84 45.6808C111.095 45.6064 111.086 45.5736 111.341 45.4993C111.597 45.425 111.599 45.4332 111.855 45.3589C112.11 45.2847 112.096 45.237 112.352 45.1628C112.607 45.0885 112.618 45.1264 112.874 45.0521C113.13 44.9777 113.106 44.8966 113.362 44.8222C113.617 44.7479 113.631 44.794 113.886 44.7197C114.142 44.6453 114.119 44.5642 114.374 44.4898C114.63 44.4155 114.613 44.3569 114.869 44.2825C115.125 44.2081 115.162 44.3362 115.418 44.2618C115.674 44.1874 115.651 44.1109 115.907 44.0366C116.163 43.9621 116.206 44.1106 116.462 44.0362C116.718 43.9618 116.667 43.7853 116.923 43.7109C117.178 43.6366 117.19 43.6785 117.446 43.6042C117.702 43.5299 117.715 43.5744 117.97 43.5C118.226 43.4255 118.245 43.49 118.501 43.4155C118.757 43.341 118.749 43.3121 119.005 43.2376C119.261 43.1631 119.259 43.1565 119.516 43.082C119.772 43.0073 119.729 42.8573 119.985 42.7827C120.242 42.7081 120.306 42.9294 120.563 42.8548" stroke="#0072BA" stroke-miterlimit="10"/>
<path d="M96.2773 51.2334C96.5294 51.1622 96.5652 51.289 96.8173 51.2178C97.0695 51.1465 97.0292 51.0039 97.2814 50.9326C97.5338 50.8613 97.5084 50.7714 97.7608 50.7001C98.0131 50.6288 98.0438 50.7376 98.2961 50.6663C98.5482 50.595 98.541 50.5695 98.7931 50.4982C99.0452 50.427 99.0363 50.3954 99.2883 50.3242C99.5403 50.253 99.5905 50.4308 99.8426 50.3596C100.095 50.2883 100.037 50.0848 100.289 50.0136C100.541 49.9424 100.593 50.1235 100.845 50.0523C101.097 49.981 101.053 49.8231 101.305 49.7518C101.557 49.6805 101.589 49.7911 101.841 49.7197C102.093 49.6485 102.057 49.5203 102.309 49.449C102.561 49.3778 102.561 49.375 102.813 49.3038C103.065 49.2325 103.108 49.3863 103.36 49.315C103.613 49.2437 103.566 49.0789 103.818 49.0077C104.071 48.9363 104.077 48.9587 104.33 48.8874C104.582 48.8161 104.598 48.8724 104.85 48.8011C105.103 48.7298 105.109 48.7529 105.361 48.6817C105.614 48.6104 105.634 48.6815 105.886 48.6102C106.138 48.5389 106.095 48.3855 106.347 48.3142C106.6 48.2429 106.614 48.2925 106.866 48.2211C107.119 48.1498 107.095 48.0652 107.347 47.9939C107.599 47.9226 107.663 48.149 107.916 48.0777C108.167 48.0066 108.157 47.9703 108.409 47.8992C108.66 47.8281 108.647 47.7808 108.899 47.7097C109.151 47.6385 109.173 47.7176 109.425 47.6465C109.677 47.5752 109.659 47.5107 109.911 47.4395C110.164 47.3681 110.167 47.3803 110.42 47.3089C110.672 47.2377 110.638 47.1182 110.89 47.047C111.142 46.9757 111.184 47.1222 111.436 47.051C111.688 46.9797 111.653 46.8562 111.905 46.785C112.158 46.7136 112.136 46.6364 112.388 46.5651C112.641 46.4937 112.641 46.4928 112.893 46.4214C113.145 46.3502 113.196 46.5307 113.449 46.4594C113.701 46.3881 113.699 46.3796 113.951 46.3082C114.204 46.2368 114.182 46.1596 114.435 46.0882C114.687 46.0168 114.728 46.1631 114.981 46.0917C115.234 46.0203 115.205 45.9187 115.458 45.8472C115.71 45.7759 115.739 45.8775 115.992 45.8061C116.244 45.7347 116.191 45.5456 116.444 45.4741C116.697 45.4027 116.72 45.484 116.972 45.4126C117.225 45.3411 117.2 45.2542 117.453 45.1827C117.706 45.1113 117.712 45.1339 117.965 45.0624C118.218 44.9911 118.24 45.0691 118.492 44.9977C118.745 44.9263 118.749 44.9413 119.002 44.8699C119.255 44.7984 119.239 44.7419 119.492 44.6704C119.745 44.599 119.774 44.7024 120.026 44.631C120.28 44.5595 120.229 44.3788 120.482 44.3072C120.736 44.2356 120.751 44.2886 121.004 44.217C121.258 44.1453 121.293 44.2699 121.547 44.1982" stroke="#0072BA" stroke-miterlimit="10"/>
<path d="M96.5273 52.4868C96.7826 52.4147 96.7917 52.447 97.0469 52.3749C97.3023 52.3027 97.3063 52.3171 97.5617 52.2449C97.8172 52.1727 97.7929 52.0864 98.0485 52.0142C98.3039 51.942 98.2995 51.9265 98.5549 51.8543C98.8102 51.7822 98.8484 51.9173 99.1037 51.8452C99.3589 51.773 99.3145 51.6159 99.5697 51.5438C99.8249 51.4717 99.8316 51.4954 100.087 51.4233C100.342 51.3512 100.349 51.3742 100.604 51.3021C100.859 51.2299 100.847 51.1862 101.102 51.1141C101.358 51.0419 101.392 51.1619 101.647 51.0897C101.903 51.0175 101.935 51.134 102.191 51.0618C102.446 50.9896 102.383 50.7658 102.639 50.6937C102.894 50.6215 102.927 50.7393 103.183 50.6671C103.438 50.595 103.451 50.6408 103.706 50.5686C103.961 50.4965 103.979 50.5601 104.235 50.4879C104.49 50.4157 104.471 50.3479 104.727 50.2757C104.982 50.2035 104.988 50.2225 105.243 50.1503C105.499 50.0781 105.48 50.0111 105.735 49.939C105.991 49.8668 105.985 49.8462 106.24 49.774C106.496 49.7018 106.464 49.5878 106.719 49.5156C106.975 49.4434 107.01 49.5678 107.266 49.4955C107.521 49.4233 107.53 49.4555 107.786 49.3833C108.041 49.3111 108.024 49.2501 108.279 49.1779C108.534 49.1059 108.533 49.1029 108.788 49.0309C109.043 48.9589 109.082 49.0958 109.337 49.0238C109.592 48.9517 109.583 48.9218 109.838 48.8498C110.094 48.7776 110.089 48.762 110.345 48.6898C110.6 48.6176 110.572 48.5185 110.828 48.4462C111.083 48.3741 111.071 48.3284 111.326 48.2562C111.581 48.1841 111.575 48.1621 111.83 48.09C112.085 48.0178 112.141 48.214 112.396 48.1419C112.652 48.0696 112.623 47.9668 112.878 47.8945C113.134 47.8223 113.172 47.9581 113.428 47.8858C113.598 47.8377 113.768 47.7896 113.939 47.7414C114.194 47.6691 114.151 47.5145 114.406 47.4423C114.662 47.37 114.656 47.3496 114.912 47.2773C115.168 47.2051 115.204 47.3337 115.46 47.2615C115.716 47.1892 115.686 47.0819 115.941 47.0096C116.197 46.9373 116.191 46.917 116.447 46.8447C116.703 46.7723 116.696 46.7455 116.952 46.6732C117.208 46.6009 117.246 46.7378 117.502 46.6655C117.758 46.5932 117.718 46.4503 117.974 46.378C118.23 46.3057 118.249 46.3743 118.505 46.302C118.761 46.2298 118.738 46.1486 118.993 46.0764C119.249 46.0041 119.264 46.0557 119.52 45.9834C119.776 45.911 119.773 45.9006 120.029 45.8282C120.285 45.7558 120.337 45.9372 120.593 45.8648C120.849 45.7923 120.806 45.6409 121.063 45.5685C121.319 45.4959 121.334 45.5479 121.591 45.4753C121.847 45.4028 121.812 45.2786 122.069 45.2061" stroke="#0072BA" stroke-miterlimit="10"/>
<path d="M96.7852 53.9378C97.0404 53.8657 97.0518 53.9062 97.307 53.8341C97.5624 53.7619 97.542 53.6896 97.7973 53.6175C98.0529 53.5452 98.0878 53.6689 98.3434 53.5967C98.5988 53.5246 98.5389 53.3121 98.7943 53.2399C99.0496 53.1678 99.0904 53.3125 99.3457 53.2404C99.6009 53.1683 99.6177 53.2275 99.8729 53.1554C100.128 53.0833 100.108 53.0135 100.364 52.9414C100.619 52.8693 100.627 52.8982 100.882 52.8261C101.138 52.7539 101.093 52.5953 101.348 52.5232C101.604 52.451 101.595 52.4197 101.85 52.3475C102.106 52.2752 102.146 52.419 102.402 52.3468C102.657 52.2747 102.623 52.1529 102.878 52.0808C103.134 52.0086 103.132 52.0016 103.387 51.9295C103.642 51.8574 103.707 52.0846 103.962 52.0124C104.217 51.9403 104.197 51.867 104.452 51.7948C104.708 51.7226 104.729 51.7982 104.985 51.726C105.24 51.6538 105.206 51.5336 105.462 51.4614C105.717 51.3892 105.725 51.4176 105.981 51.3454C106.236 51.2732 106.259 51.3536 106.514 51.2815C106.77 51.2093 106.775 51.2272 107.03 51.155C107.286 51.0827 107.275 51.0454 107.531 50.9732C107.786 50.901 107.749 50.7685 108.005 50.6963C108.26 50.6241 108.299 50.7614 108.554 50.6893C108.809 50.6173 108.815 50.6396 109.07 50.5676C109.325 50.4956 109.294 50.3859 109.549 50.3139C109.804 50.2419 109.812 50.2704 110.067 50.1983C110.322 50.1261 110.284 49.9903 110.54 49.9181C110.795 49.8459 110.827 49.9579 111.083 49.8856C111.338 49.8135 111.35 49.856 111.605 49.7838C111.86 49.7117 111.859 49.7056 112.114 49.6335C112.369 49.5614 112.368 49.5577 112.623 49.4856C112.879 49.4134 112.86 49.345 113.116 49.2727C113.371 49.2005 113.345 49.1068 113.6 49.0345C113.856 48.9624 113.879 49.0441 114.134 48.9719C114.39 48.8997 114.411 48.9744 114.667 48.9022C114.923 48.8298 114.945 48.9091 115.201 48.8368C115.456 48.7646 115.4 48.5632 115.655 48.491C115.911 48.4187 115.912 48.4203 116.167 48.348C116.423 48.2757 116.467 48.4289 116.722 48.3567C116.978 48.2843 116.922 48.086 117.178 48.0137C117.434 47.9414 117.504 48.1887 117.76 48.1164C118.016 48.0441 118.003 47.9994 118.259 47.927C118.515 47.8547 118.495 47.7815 118.751 47.7092C119.006 47.6369 119.001 47.6194 119.257 47.5472C119.513 47.4749 119.499 47.4268 119.755 47.3545C120.011 47.2821 120.009 47.2731 120.265 47.2007C120.521 47.1283 120.525 47.1421 120.781 47.0697C121.037 46.9973 121.042 47.0123 121.298 46.9399C121.555 46.8674 121.586 46.9773 121.842 46.9048C122.099 46.8322 122.08 46.7649 122.337 46.6924" stroke="#0072BA" stroke-miterlimit="10"/>
<path d="M96.9648 54.8211C97.2228 54.7542 97.2365 54.807 97.4945 54.7401C97.7524 54.6732 97.7328 54.5975 97.9907 54.5307C98.2484 54.4638 98.2902 54.6251 98.5479 54.5582C98.8055 54.4914 98.7679 54.3463 99.0256 54.2795C99.2832 54.2127 99.3083 54.3096 99.566 54.2428C99.8236 54.1759 99.8313 54.2057 100.089 54.1389C100.347 54.072 100.329 54.003 100.587 53.9361C100.845 53.8692 100.822 53.7813 101.08 53.7144C101.338 53.6475 101.345 53.6737 101.603 53.6068C101.86 53.5399 101.842 53.4705 102.1 53.4037C102.358 53.3368 102.364 53.3589 102.621 53.292C102.879 53.2252 102.92 53.3809 103.177 53.314C103.435 53.2472 103.427 53.2169 103.685 53.15C103.943 53.0831 103.967 53.1764 104.225 53.1095C104.483 53.0426 104.473 53.0015 104.731 52.9346C104.989 52.8677 104.958 52.7503 105.216 52.6834C105.474 52.6166 105.505 52.7379 105.763 52.671C106.021 52.6041 105.97 52.4087 106.228 52.3418C106.486 52.2748 106.509 52.3631 106.767 52.2961C107.025 52.2292 107.048 52.3158 107.306 52.2489C107.564 52.182 107.564 52.1836 107.822 52.1167C108.079 52.05 108.085 52.0728 108.342 52.006C108.6 51.9393 108.558 51.7786 108.815 51.7119C109.073 51.6451 109.114 51.8031 109.371 51.7363C109.629 51.6695 109.614 51.6131 109.872 51.5462C110.13 51.4792 110.14 51.5178 110.399 51.4509C110.656 51.384 110.61 51.2052 110.868 51.1383C111.125 51.0715 111.17 51.2426 111.427 51.1758C111.685 51.109 111.678 51.0839 111.936 51.0171C112.194 50.9501 112.16 50.817 112.418 50.75C112.676 50.6831 112.707 50.8025 112.965 50.7356C113.223 50.6687 113.215 50.6367 113.473 50.5698C113.731 50.5029 113.721 50.4677 113.979 50.4008C114.238 50.3338 114.261 50.4249 114.52 50.3579C114.778 50.291 114.761 50.2274 115.019 50.1605C115.278 50.0935 115.293 50.1533 115.552 50.0863C115.81 50.0193 115.821 50.0642 116.08 49.9972C116.338 49.9302 116.295 49.763 116.553 49.696C116.812 49.629 116.848 49.7714 117.107 49.7044C117.365 49.6374 117.339 49.5374 117.598 49.4704C117.856 49.4034 117.871 49.4599 118.129 49.3929C118.387 49.326 118.363 49.2344 118.621 49.1675C118.88 49.1005 118.899 49.1759 119.158 49.1089C119.416 49.0418 119.438 49.1256 119.697 49.0585C119.955 48.9914 119.916 48.8397 120.175 48.7726C120.433 48.7055 120.455 48.7881 120.714 48.721C120.973 48.6538 120.94 48.5264 121.199 48.4592C121.458 48.392 121.508 48.5858 121.767 48.5186" stroke="#0072BA" stroke-miterlimit="10"/>
</g>
<path d="M67.9856 1.79162C67.8891 1.82893 67.7208 1.68735 67.6228 1.72722C67.5268 1.76626 67.4555 1.86936 67.3583 1.91093C67.2629 1.95174 67.1261 1.90288 67.0297 1.9462C66.935 1.9888 66.8344 2.02564 66.739 2.07073C66.645 2.11515 66.5551 2.17448 66.4606 2.22138C66.3675 2.26765 66.3093 2.387 66.2159 2.43574C66.1236 2.4839 65.9866 2.45269 65.8943 2.50331C65.8029 2.55338 65.8004 2.76384 65.7092 2.81638C65.6189 2.8684 65.4939 2.86125 65.4039 2.91575C65.3148 2.96968 65.2457 3.05603 65.1571 3.11243C65.0692 3.16839 65.0049 3.25896 64.9176 3.31741C64.8309 3.37542 64.7059 3.37648 64.62 3.437C64.5347 3.4971 64.4756 3.59299 64.3912 3.6556C64.3074 3.71781 64.1574 3.69395 64.0746 3.75869C63.9924 3.82304 64 3.99947 63.9189 4.06636C63.8383 4.13285 63.7174 4.15017 63.6382 4.21922C63.5594 4.28787 63.4671 4.34164 63.3897 4.41287C63.3129 4.48368 63.2625 4.58242 63.1872 4.65583C63.1124 4.72878 63.0853 4.84708 63.0122 4.92264C62.9395 4.99773 62.7391 4.95277 62.6682 5.03047C62.5978 5.10769 62.5131 5.17625 62.4447 5.25609C62.3767 5.33539 62.4792 5.55639 62.4132 5.63832C62.3478 5.71969 62.2063 5.73931 62.1429 5.82332C62.0801 5.90664 62.0282 5.99723 61.9676 6.08319C61.9075 6.16851 61.736 6.17979 61.6782 6.26774C61.6209 6.355 61.6686 6.5109 61.6137 6.60079C61.5593 6.68989 61.4318 6.73727 61.3799 6.82898C61.3285 6.91977 61.4286 7.09282 61.3798 7.18621C61.3315 7.27863 61.2878 7.36995 61.2421 7.46495C61.197 7.55886 60.961 7.56532 60.9185 7.66179C60.8765 7.75726 60.8279 7.85447 60.7886 7.95248C60.7498 8.0492 60.7704 8.1721 60.7343 8.27132C60.6987 8.36936 60.6598 8.46869 60.627 8.5692C60.5946 8.66833 60.6311 8.77832 60.6016 8.87988C60.6799 8.94891 60.785 8.96867 60.8649 9.0365C60.9445 9.10409 60.9076 9.31243 60.9887 9.37884C61.0695 9.44501 61.2231 9.42252 61.3053 9.48753C61.3872 9.55232 61.4402 9.65531 61.5235 9.71895C61.6065 9.78239 61.7816 9.72265 61.8659 9.78496C61.9499 9.84708 61.9551 10.0169 62.0403 10.078C62.1252 10.1388 62.2473 10.1472 62.3334 10.2069C62.4193 10.2665 62.4464 10.4128 62.5334 10.4713C62.6201 10.5296 62.6778 10.6346 62.7655 10.6919C62.8531 10.7491 62.9441 10.8041 63.0326 10.8602C63.1209 10.9162 63.3226 10.7911 63.4119 10.846C63.5009 10.9009 63.5273 11.0585 63.6172 11.1123C63.7069 11.166 63.8501 11.1287 63.9405 11.1813C64.0309 11.2339 64.0595 11.3942 64.1505 11.4458C64.2416 11.4973 64.3718 11.4789 64.4635 11.5295C64.5552 11.58 64.6379 11.6465 64.7301 11.696C64.8224 11.7455 64.8562 11.9067 64.9489 11.9552C65.0417 12.0037 65.1857 11.9543 65.279 12.0019C65.3723 12.0495 65.4629 12.1027 65.5566 12.1493C65.6505 12.1959 65.7667 12.1966 65.8609 12.2423C65.9552 12.288 66.0376 12.358 66.1322 12.4027C66.227 12.4476 66.3508 12.429 66.4459 12.4729C66.5411 12.5169 66.6191 12.5971 66.7145 12.6401C66.8101 12.6832 66.9164 12.7011 67.0122 12.7433C67.1082 12.7855 67.1814 12.8793 67.2776 12.9206C67.374 12.962 67.4169 13.1306 67.5134 13.1711C67.6102 13.2117 67.7263 13.2077 67.8231 13.2474C67.9202 13.2873 68.0446 13.2604 68.1417 13.2993C68.2392 13.3384 68.3468 13.3514 68.4442 13.3895C68.542 13.4278 68.6307 13.4889 68.7284 13.5263C68.8265 13.5639 68.9348 13.5739 69.0326 13.6106C69.1311 13.6474 69.2148 13.7234 69.3129 13.7594C69.4117 13.7955 69.5217 13.7995 69.6201 13.8347C69.7191 13.8702 69.8448 13.828 69.9434 13.8625C70.0427 13.8972 70.1205 13.9917 70.2192 14.0254C70.3188 14.0595 70.4355 14.0402 70.5345 14.0733C70.6343 14.1067 70.7463 14.0996 70.8454 14.132C70.9454 14.1648 71.0102 14.3037 71.1094 14.3355C71.2097 14.3675 71.3335 14.3223 71.4329 14.3534C71.5334 14.3849 71.6112 14.4868 71.7107 14.5172C71.8115 14.548 71.8765 14.6958 71.9761 14.7256C72.0771 14.7558 72.2193 14.6444 72.3191 14.6736C72.4202 14.7031 72.5409 14.6606 72.6408 14.6891C72.7421 14.7181 72.7783 14.9752 72.8782 15.0031C72.9798 15.0314 73.1054 14.9706 73.2054 14.9979C73.3073 15.0256 73.4357 14.9504 73.5358 14.9771C73.638 15.0043 73.7084 15.1474 73.8086 15.1735C73.911 15.2001 73.99 15.3156 74.0903 15.341C74.193 15.3671 74.3104 15.3316 74.4108 15.3564C74.5138 15.382 74.631 15.3444 74.7314 15.3687C74.8346 15.3937 74.9519 15.3527 75.0522 15.3764C75.1558 15.4008 75.253 15.4437 75.3533 15.4667C75.4572 15.4905 75.5397 15.6 75.6399 15.6224C75.7442 15.6457 75.8547 15.6317 75.9548 15.6534C76.0593 15.6761 76.1758 15.63 76.2755 15.6511C76.3807 15.6733 76.4763 15.7265 76.5759 15.7469C76.6819 15.7686 76.7845 15.7891 76.8839 15.8088C76.9907 15.83 77.1001 15.8151 77.1989 15.834C77.3064 15.8546 77.3739 16.0627 77.4715 16.0807C77.5807 16.1009 77.6981 16.0423 77.7942 16.0594C77.906 16.0792 78.0024 16.1372 78.0954 16.1529C78.2144 16.173 78.3302 16.1154 78.4162 16.1291C78.6166 16.1609 78.7051 16.1567 78.7051 16.1567C78.7358 16.0011 78.8809 16.0297 78.9115 15.8741C78.9422 15.7182 78.7039 15.6713 78.7346 15.5155C78.7652 15.3598 78.8696 15.3804 78.9002 15.2247C78.9307 15.0698 79.0075 15.0849 79.038 14.9299C79.0685 14.7747 78.8893 14.7394 78.9198 14.5842C78.9505 14.4282 78.9705 14.4322 79.0012 14.2762C79.0318 14.1207 79.1182 14.1377 79.1488 13.9821C79.1794 13.8265 79.3043 13.8511 79.3349 13.6955C79.3656 13.5394 79.3189 13.5302 79.3496 13.3741C79.3803 13.2183 79.1925 13.1813 79.2232 13.0254C79.2539 12.8694 79.2647 12.8715 79.2954 12.7154C79.3261 12.5592 79.3651 12.5669 79.3958 12.4107C79.4265 12.2547 79.3793 12.2454 79.41 12.0893C79.4408 11.9331 79.6296 11.9703 79.6603 11.8141C79.6911 11.6574 79.5434 11.6283 79.5742 11.4716C79.6051 11.3149 79.7728 11.3514 79.8089 11.1958C79.8451 11.04 79.7885 11.0793 79.8641 10.8904C79.8977 10.8066 79.8001 10.6481 79.8491 10.5363C79.8885 10.4465 80.0856 10.4178 80.1352 10.3133C80.1785 10.222 80.0779 10.0522 80.1291 9.95176C80.1757 9.86033 80.3028 9.80435 80.3561 9.70682C80.4057 9.61598 80.4239 9.50212 80.4794 9.40721C80.5321 9.3172 80.7347 9.31605 80.7928 9.22342C80.8485 9.13453 80.7919 8.97205 80.8526 8.88165C80.9114 8.79411 80.9908 8.71853 81.0543 8.63038C81.1162 8.54449 81.1093 8.40357 81.1758 8.31786C81.2408 8.23406 81.2808 8.12359 81.3502 8.04067C81.4184 7.95906 81.5454 7.9227 81.618 7.84261C81.6896 7.76365 81.8336 7.75196 81.9094 7.67512C81.9844 7.59915 82.0989 7.577 82.174 7.51044C82.2538 7.43969 82.2458 7.27185 82.3253 7.21104C82.41 7.14622 82.5042 7.09796 82.588 7.0436C82.6777 6.98541 82.7165 6.83696 82.8044 6.78975C82.8988 6.73909 83.0607 6.82806 83.1521 6.78878C83.2511 6.74628 83.3734 6.79643 83.4679 6.76567C83.5706 6.73224 83.6416 6.62871 83.7376 6.60712C83.8441 6.58314 83.9314 6.47854 84.0278 6.46641C84.1382 6.4525 84.2479 6.50256 84.3422 6.50013C84.4597 6.49709 84.5708 6.40477 84.658 6.41196C84.85 6.42779 84.8197 6.63781 84.9156 6.51749C85.0118 6.39678 84.9291 6.41903 84.7831 6.28017C84.721 6.22109 84.6333 6.16211 84.5449 6.08246C84.4756 6.01997 84.281 6.08588 84.1956 6.01221C84.1228 5.94946 84.1899 5.71083 84.1055 5.64085C84.0304 5.57854 83.8532 5.63264 83.7688 5.5652C83.6918 5.50361 83.7054 5.31885 83.6207 5.25345C83.542 5.19272 83.4425 5.15132 83.3572 5.08768C83.2772 5.0279 83.0828 5.11927 82.997 5.05722C82.9156 4.99846 82.9245 4.80907 82.838 4.74852C82.7555 4.69079 82.6598 4.64719 82.5726 4.58806C82.4891 4.5314 82.3726 4.52038 82.2847 4.46262C82.2002 4.40704 82.069 4.422 81.9804 4.36557C81.8951 4.31119 81.8162 4.24607 81.7272 4.19106C81.6409 4.13775 81.5603 4.07451 81.4706 4.02074C81.3834 3.96853 81.3738 3.78211 81.2834 3.72958C81.1954 3.67847 81.0079 3.79964 80.9168 3.74836C80.828 3.69836 80.8378 3.46838 80.7461 3.41832C80.6565 3.36945 80.5404 3.36602 80.4481 3.31719C80.3578 3.26947 80.2777 3.19865 80.1848 3.15107C80.0939 3.10453 79.9579 3.14517 79.8645 3.09885C79.7729 3.05347 79.7361 2.89304 79.6421 2.84796C79.55 2.80376 79.3673 2.95011 79.2728 2.90627C79.1801 2.86324 79.1323 2.72167 79.0373 2.67906C78.9442 2.63732 78.8747 2.53978 78.7795 2.49852C78.6858 2.4579 78.5937 2.40978 78.4979 2.36968C78.4035 2.33019 78.3178 2.26554 78.2214 2.22662C78.1264 2.18827 78.0426 2.11622 77.9456 2.07848C77.85 2.04127 77.7532 2.00136 77.6557 1.96481C77.5596 1.92878 77.4528 1.91583 77.3549 1.8805C77.2588 1.84582 77.159 1.81612 77.0611 1.78216C76.9642 1.74858 76.853 1.75278 76.7545 1.71996C76.657 1.68749 76.5082 1.81202 76.409 1.78035C76.311 1.74903 76.2709 1.53103 76.1712 1.50052C76.073 1.47049 75.9265 1.60043 75.8267 1.57124C75.7278 1.54227 75.6261 1.52485 75.5255 1.49675C75.4262 1.46899 75.3829 1.23329 75.282 1.20642C75.182 1.17979 75.0807 1.14665 74.9803 1.12259C74.8797 1.0985 74.753 1.18281 74.652 1.1613C74.5508 1.13976 74.4518 1.10509 74.3503 1.08615C74.2486 1.06719 74.1406 1.084 74.0386 1.06766C73.9365 1.05129 73.8396 0.99818 73.7372 0.984443C73.6347 0.970692 73.5411 0.868236 73.4384 0.857124C73.3356 0.846003 73.2278 0.857658 73.1249 0.849188C73.0218 0.840711 72.9172 0.816464 72.8141 0.810649C72.7108 0.804829 72.6035 0.838798 72.5002 0.835651C72.3969 0.832502 72.2916 0.84192 72.1882 0.841452C72.0849 0.840984 71.9784 0.776154 71.8751 0.778376C71.7718 0.780599 71.6714 0.916092 71.5682 0.921013C71.465 0.925935 71.3553 0.843518 71.2522 0.851145C71.1492 0.858773 71.0529 0.957078 70.9501 0.967417C70.8473 0.977754 70.734 0.905876 70.6315 0.918931C70.529 0.931981 70.4405 1.05014 70.3383 1.06591C70.2362 1.08168 70.1373 1.11161 70.0355 1.1301C69.9339 1.14858 69.8476 1.23586 69.7464 1.25706C69.6453 1.27824 69.5105 1.14549 69.4099 1.1694C69.3094 1.19328 69.2236 1.27817 69.1237 1.30478C69.0239 1.33136 68.9402 1.41219 68.841 1.4415C68.742 1.47076 68.6393 1.48363 68.5409 1.51561C68.4427 1.54755 68.2973 1.44328 68.1998 1.47793C68.1025 1.51252 68.0821 1.75432 67.9856 1.79162Z" fill="#010101"/>
<path d="M58.7208 24.6939C58.9031 24.6939 59.0509 24.546 59.0509 24.3635C59.0509 24.1811 58.9031 24.0332 58.7208 24.0332C58.5384 24.0332 58.3906 24.1811 58.3906 24.3635C58.3906 24.546 58.5384 24.6939 58.7208 24.6939Z" fill="#E40524"/>
<path d="M57.7732 24.7054C57.9618 24.7054 58.1147 24.5524 58.1147 24.3637C58.1147 24.175 57.9618 24.022 57.7732 24.022C57.5846 24.022 57.4316 24.175 57.4316 24.3637C57.4316 24.5524 57.5846 24.7054 57.7732 24.7054Z" fill="#E40524"/>
<path d="M10.9646 84.0005C10.9646 84.0005 8.50836 89.0218 7.26953 91.978" stroke="#E30518" stroke-miterlimit="10" stroke-linecap="round"/>
<path d="M12.9453 94.0285C12.9453 94.0285 14.5163 89.222 15.8478 86.1016" stroke="#E30518" stroke-miterlimit="10" stroke-linecap="round"/>
<path d="M60.2617 26.9408L63.6543 24.3638" stroke="#E30518" stroke-miterlimit="10" stroke-linecap="round"/>
<path d="M98.4997 72.7948C98.3426 73.6547 97.5185 74.2244 96.6591 74.0672C95.7996 73.91 95.2303 73.0855 95.3874 72.2256" stroke="#E30518" stroke-miterlimit="10" stroke-linecap="round"/>
<path d="M84.3633 74.0933L88.3609 80.6442" stroke="#E30518" stroke-miterlimit="10" stroke-linecap="round"/>
<path d="M82.7539 79.4272L88.3592 83.5139" stroke="#E30518" stroke-miterlimit="10" stroke-linecap="round"/>
<path d="M85.5157 74.5725C86.2956 74.5725 86.9279 73.9399 86.9279 73.1595C86.9279 72.3792 86.2956 71.7466 85.5157 71.7466C84.7358 71.7466 84.1035 72.3792 84.1035 73.1595C84.1035 73.9399 84.7358 74.5725 85.5157 74.5725Z" stroke="#E30518" stroke-miterlimit="10" stroke-linecap="round"/>
<path d="M82.754 76.7224C83.5339 76.7224 84.1662 76.0898 84.1662 75.3094C84.1662 74.5291 83.5339 73.8965 82.754 73.8965C81.974 73.8965 81.3418 74.5291 81.3418 75.3094C81.3418 76.0898 81.974 76.7224 82.754 76.7224Z" stroke="#E30518" stroke-miterlimit="10" stroke-linecap="round"/>
<path d="M80.4708 82.8835C81.2507 82.8835 81.883 82.2509 81.883 81.4706C81.883 80.6902 81.2507 80.0576 80.4708 80.0576C79.6908 80.0576 79.0586 80.6902 79.0586 81.4706C79.0586 82.2509 79.6908 82.8835 80.4708 82.8835Z" stroke="#E30518" stroke-miterlimit="10" stroke-linecap="round"/>
</g>
<defs>
<linearGradient id="paint0_linear_14264_6826" x1="88.1687" y1="59.6809" x2="117.096" y2="56.239" gradientUnits="userSpaceOnUse">
<stop stop-color="#E30518" stop-opacity="0"/>
<stop offset="0.0769552" stop-color="#E30518" stop-opacity="0.0141597"/>
<stop offset="0.263609" stop-color="#E30518" stop-opacity="0.147271"/>
<stop offset="0.443269" stop-color="#E30518" stop-opacity="0.36494"/>
<stop offset="0.611279" stop-color="#E30518" stop-opacity="0.601764"/>
<stop offset="0.764983" stop-color="#E30518" stop-opacity="0.807913"/>
<stop offset="0.899467" stop-color="#E30518" stop-opacity="0.947905"/>
<stop offset="1" stop-color="#E30518"/>
</linearGradient>
<clipPath id="clip0_14264_6826">
<rect width="131" height="114" fill="white"/>
</clipPath>
</defs>
</svg>
