<svg width="212" height="199" viewBox="0 0 212 199" fill="none" xmlns="http://www.w3.org/2000/svg">
<g clip-path="url(#clip0_14264_4213)">
<path d="M211.25 0.0849609H0.25V198.333H211.25V0.0849609Z" fill="#02AE8C"/>
<path d="M39.2742 93.0654C39.0846 93.6253 34.5091 108.289 34.7431 125.054C34.977 141.818 44.0973 145.897 56.5936 145.676C69.0899 145.454 97.9016 146.68 107.303 144.193C116.705 141.705 162.5 152.611 172.256 144.625C182.013 136.638 173.262 94.1555 170.742 85.1189C168.222 76.0823 165.036 68.4676 154.289 65.4438C149.736 54.61 142.784 49.8932 134.762 50.9689C127.647 51.923 121.755 59.8238 121.755 59.8238C121.755 59.8238 111.727 50.8804 100.12 57.4411C92.8662 61.5416 91.478 67.8091 91.4571 71.9331C91.4452 74.2751 89.4996 76.2035 87.009 76.2992L56.4425 77.4743C51.2699 77.6731 46.4856 80.1606 43.6188 84.2108C42.0843 86.3787 40.565 89.2542 39.2742 93.0654Z" fill="#A58088"/>
<path d="M55.2912 111.882C56.6909 102.563 54.5913 94.5808 50.6015 94.0517C46.6117 93.5227 42.2427 100.648 40.843 109.966C39.4433 119.284 41.5429 127.266 45.5327 127.795C49.5225 128.324 53.8915 121.2 55.2912 111.882Z" fill="#010101"/>
<path d="M46.1382 133.057C45.9006 133.057 45.6641 133.042 45.4281 133.011C42.5091 132.624 40.1437 129.877 38.7677 125.276C37.4141 120.752 37.1662 114.948 38.0696 108.933C38.9732 102.919 40.921 97.4065 43.5543 93.4104C46.2317 89.3478 49.3089 87.3238 52.233 87.7102C55.1519 88.0973 57.5174 90.8441 58.8933 95.4445C60.2468 99.9692 60.4947 105.773 59.5913 111.787C58.6879 117.802 56.7401 123.314 54.1066 127.311C51.6456 131.045 48.8421 133.057 46.1382 133.057ZM51.5175 88.2138C46.0888 88.2138 40.4123 97.2785 38.65 109.011C36.8192 121.199 39.8966 131.721 45.5101 132.465C48.1819 132.82 51.0608 130.886 53.6082 127.021C56.1999 123.088 58.1185 117.651 59.0109 111.71C60.8419 99.5217 57.7646 89 52.151 88.2556C51.9407 88.2276 51.7289 88.2138 51.5175 88.2138Z" fill="#010101"/>
<path d="M114.988 114.16C114.981 114.16 114.974 114.159 114.967 114.159C114.677 114.148 114.685 113.87 114.688 113.766C114.69 113.688 114.694 113.566 114.701 113.39C114.713 113.04 114.736 112.473 114.771 111.61C114.842 109.883 114.964 106.967 115.168 102.209C115.547 93.3612 110.592 87.1788 106.369 83.5506C101.773 79.6031 97.0216 77.7334 96.9743 77.7149C96.8247 77.6568 96.7535 77.4959 96.8152 77.3553C96.8772 77.2148 97.0481 77.1481 97.1979 77.2058C97.2461 77.2246 102.079 79.1241 106.75 83.132C111.072 86.8407 116.143 93.1647 115.754 102.231C115.513 107.845 115.39 110.803 115.328 112.33C115.343 112.365 115.35 112.403 115.348 112.443L115.313 113.17C115.304 113.352 115.294 113.535 115.287 113.671C115.283 113.738 115.28 113.803 115.272 113.863V113.873H115.27C115.247 114.039 115.186 114.16 114.988 114.16Z" fill="#010101"/>
<path d="M154.891 133.626C154.859 133.626 154.826 133.621 154.794 133.611C154.641 133.56 154.561 133.403 154.614 133.259C155.822 130.034 155.264 126.665 154.583 124.406C153.68 121.413 152.085 118.586 150.678 116.092C149.357 113.75 147.859 111.095 147.7 108.262C147.595 106.393 148.07 104.554 148.53 102.776C148.756 101.901 148.99 100.997 149.15 100.105C149.72 96.9245 149.348 93.5771 148.074 90.4246C146.801 87.2722 144.715 84.5361 142.042 82.5121C140.398 81.2668 138.49 80.229 136.645 79.2253C133.328 77.4216 129.898 75.5564 127.91 72.4261C127.079 71.1193 126.538 69.6386 126.015 68.2065C125.205 65.9898 124.441 63.8958 122.698 62.4082C122.578 62.306 122.569 62.1317 122.678 62.0192C122.787 61.9068 122.972 61.8987 123.092 62.0005C124.946 63.5834 125.771 65.8428 126.57 68.0278C127.083 69.4332 127.614 70.8863 128.413 72.144C130.324 75.1515 133.537 76.8989 136.938 78.7489C138.803 79.7629 140.731 80.8114 142.41 82.0833C148.06 86.3626 150.933 93.4723 149.728 100.196C149.565 101.108 149.328 102.022 149.1 102.906C148.65 104.646 148.185 106.444 148.285 108.233C148.438 110.945 149.84 113.43 151.196 115.834C152.617 118.352 154.227 121.207 155.147 124.256C156.156 127.605 156.163 130.781 155.167 133.442C155.125 133.555 155.012 133.626 154.891 133.626Z" fill="#010101"/>
<path d="M131.444 103.171C133.179 102.373 133.446 99.5376 132.04 96.837C130.634 94.1364 128.088 92.5936 126.352 93.3911C124.617 94.1885 124.351 97.0242 125.757 99.7248C127.163 102.425 129.709 103.968 131.444 103.171Z" fill="#F7C400"/>
<path d="M112.551 73.7561C113.289 72.2675 110.949 69.7761 107.325 68.1913C103.702 66.6065 100.167 66.5285 99.4291 68.0171C98.6916 69.5057 101.031 71.9971 104.655 73.5819C108.278 75.1666 111.814 75.2446 112.551 73.7561Z" fill="#F7C400"/>
<path d="M44.3205 122.81C43.7989 122.81 43.3229 122.481 43.1863 121.984C40.4937 112.195 43.5971 104.622 44.9221 101.389C45.1551 100.821 45.8347 100.539 46.4374 100.757C47.0414 100.975 47.3427 101.613 47.1101 102.18C45.7603 105.474 42.9516 112.327 45.4563 121.433C45.6183 122.022 45.2415 122.623 44.6146 122.775C44.5163 122.799 44.4175 122.81 44.3205 122.81Z" fill="white"/>
</g>
<defs>
<clipPath id="clip0_14264_4213">
<rect width="211" height="198.248" fill="white" transform="translate(0.25 0.0849609)"/>
</clipPath>
</defs>
</svg>
