<svg width="212" height="200" viewBox="0 0 212 200" fill="none" xmlns="http://www.w3.org/2000/svg">
<g clip-path="url(#clip0_14264_4227)">
<path d="M211.25 0.581055H0.25V199.769H211.25V0.581055Z" fill="#F7C400"/>
<path d="M115.547 70.9609L132.805 73.7656L122.838 128.424C122.06 132.687 117.763 135.552 113.248 134.818L112.352 134.673C107.837 133.939 104.802 129.882 105.579 125.62L115.547 70.9609Z" fill="#010101"/>
<path d="M115.547 70.9609L132.805 73.7656L122.838 128.424C122.06 132.687 117.763 135.552 113.248 134.818L112.352 134.673C107.837 133.939 104.802 129.882 105.579 125.62L115.547 70.9609Z" fill="url(#paint0_linear_14264_4227)"/>
<path d="M115.547 70.9608L127.746 52.7837L132.805 73.7655L115.547 70.9608Z" fill="#F7C400"/>
<path d="M124.604 57.4674C125.526 58.8368 127.467 59.2126 128.886 58.2965L129.051 58.1901L128.414 52.3684C128.352 51.7935 127.528 51.6597 127.265 52.1816L124.604 57.4674Z" fill="#010101"/>
<path d="M127.029 26.2701L110.051 21.6997L81.0208 117.806L97.9991 122.376L127.029 26.2701Z" fill="#00384A" stroke="white" stroke-width="2.68386" stroke-miterlimit="10"/>
<path d="M108.992 25.2056L113.915 26.5308" stroke="white" stroke-width="2.68386" stroke-miterlimit="10"/>
<path d="M108.123 28.0801L113.046 29.4053" stroke="white" stroke-width="2.68386" stroke-miterlimit="10"/>
<path d="M107.254 30.9541L112.177 32.2793" stroke="white" stroke-width="2.68386" stroke-miterlimit="10"/>
<path d="M106.387 33.8281L111.31 35.1533" stroke="white" stroke-width="2.68386" stroke-miterlimit="10"/>
<path d="M105.52 36.7021L110.442 38.0273" stroke="white" stroke-width="2.68386" stroke-miterlimit="10"/>
<path d="M104.65 39.5767L109.573 40.9018" stroke="white" stroke-width="2.68386" stroke-miterlimit="10"/>
<path d="M103.781 42.4507L108.704 43.7759" stroke="white" stroke-width="2.68386" stroke-miterlimit="10"/>
<path d="M102.914 45.3247L107.837 46.6499" stroke="white" stroke-width="2.68386" stroke-miterlimit="10"/>
<path d="M102.047 48.1987L106.97 49.5239" stroke="white" stroke-width="2.68386" stroke-miterlimit="10"/>
<path d="M101.178 51.0732L106.101 52.3984" stroke="white" stroke-width="2.68386" stroke-miterlimit="10"/>
<path d="M100.309 53.9473L105.231 55.2725" stroke="white" stroke-width="2.68386" stroke-miterlimit="10"/>
<path d="M99.4414 56.8213L104.364 58.1465" stroke="white" stroke-width="2.68386" stroke-miterlimit="10"/>
<path d="M98.5742 59.6953L103.497 61.0205" stroke="white" stroke-width="2.68386" stroke-miterlimit="10"/>
<path d="M97.7051 62.5698L102.628 63.895" stroke="white" stroke-width="2.68386" stroke-miterlimit="10"/>
<path d="M96.8379 65.4438L101.761 66.769" stroke="white" stroke-width="2.68386" stroke-miterlimit="10"/>
<path d="M95.9688 68.3179L100.892 69.6431" stroke="white" stroke-width="2.68386" stroke-miterlimit="10"/>
<path d="M95.1016 71.1919L100.024 72.5171" stroke="white" stroke-width="2.68386" stroke-miterlimit="10"/>
<path d="M94.2324 74.0664L99.1553 75.3916" stroke="white" stroke-width="2.68386" stroke-miterlimit="10"/>
<path d="M93.3652 76.9404L98.2881 78.2656" stroke="white" stroke-width="2.68386" stroke-miterlimit="10"/>
<path d="M92.4961 79.8145L97.419 81.1396" stroke="white" stroke-width="2.68386" stroke-miterlimit="10"/>
<path d="M91.6289 82.6885L96.5518 84.0137" stroke="white" stroke-width="2.68386" stroke-miterlimit="10"/>
<path d="M90.7598 85.5625L95.6827 86.8877" stroke="white" stroke-width="2.68386" stroke-miterlimit="10"/>
<path d="M89.8926 88.437L94.8155 89.7622" stroke="white" stroke-width="2.68386" stroke-miterlimit="10"/>
<path d="M89.0234 91.311L93.9463 92.6362" stroke="white" stroke-width="2.68386" stroke-miterlimit="10"/>
<path d="M88.1562 94.1851L93.0791 95.5102" stroke="white" stroke-width="2.68386" stroke-miterlimit="10"/>
<path d="M85.5372 72.6518L85.8046 72.4458L89.2414 75.3799L42.2099 115.673C42.2099 115.673 40.072 100.945 51.6668 90.1722C61.5707 80.9708 66.1493 76.7345 75.4962 76.2596C79.1659 76.0732 82.69 74.8453 85.5372 72.6518Z" fill="white"/>
<path d="M79.6271 70.3061L79.5959 69.9816L74.9707 69.7168L77.3861 129.63C77.3861 129.63 90.0285 120.766 90.0678 105.408C90.1013 92.2906 90.1035 86.2385 83.9227 79.6024C81.496 76.997 79.9593 73.7612 79.6271 70.3061Z" fill="white"/>
<path d="M74.9707 69.7168L77.3861 129.63" stroke="#E30518" stroke-width="2.68386" stroke-miterlimit="10"/>
<path d="M78.7684 82.2004C79.84 82.2004 80.7087 81.3804 80.7087 80.3688C80.7087 79.3572 79.84 78.5371 78.7684 78.5371C77.6968 78.5371 76.8281 79.3572 76.8281 80.3688C76.8281 81.3804 77.6968 82.2004 78.7684 82.2004Z" fill="#E40524"/>
<path d="M80.4874 37.8787C77.4718 29.9892 71.145 28.559 64.8849 33.6308C58.6249 38.7025 50.0912 52.7629 63.2082 60.5092C74.765 67.334 73.2254 69.8866 73.2254 69.8866L80.562 70.3645C80.562 70.3645 83.5832 45.9781 80.4874 37.8787ZM66.9712 55.2069C62.7751 53.5419 60.8033 48.981 62.567 45.0199C64.3307 41.0587 69.1619 39.1972 73.358 40.8622C77.554 42.5271 79.5259 47.0879 77.7623 51.0491C75.9986 55.0103 71.1672 56.8718 66.9712 55.2069Z" fill="#ED6FA7"/>
<path d="M84.5508 71.4432L90.0234 76.5519C90.0234 76.5519 91.0385 73.7912 104.29 76.8099C119.33 80.236 124 64.6424 123.458 56.8717C122.916 49.101 117.431 45.8854 109.326 49.3214C101.1 52.8087 84.5508 71.4432 84.5508 71.4432ZM101.265 60.3749C103.029 56.4137 107.86 54.5523 112.056 56.2172C116.253 57.8822 118.224 62.443 116.461 66.4041C114.697 70.3653 109.866 72.2268 105.67 70.5619C101.474 68.897 99.5018 64.3361 101.265 60.3749Z" fill="#ED6FA7"/>
<path d="M75.1348 98.6719H128.325V147.231C128.325 161.087 116.408 172.337 101.73 172.337C87.0517 172.337 75.1348 161.087 75.1348 147.231V98.6719Z" fill="#C25528"/>
</g>
<defs>
<linearGradient id="paint0_linear_14264_4227" x1="107.461" y1="100.102" x2="126.363" y2="105.915" gradientUnits="userSpaceOnUse">
<stop stop-color="#0071B9" stop-opacity="0"/>
<stop offset="1" stop-color="#0071B9"/>
</linearGradient>
<clipPath id="clip0_14264_4227">
<rect width="211" height="199.188" fill="white" transform="translate(0.25 0.581055)"/>
</clipPath>
</defs>
</svg>
