<svg width="225" height="109" viewBox="0 0 225 109" fill="none" xmlns="http://www.w3.org/2000/svg">
<g clip-path="url(#clip0_13579_9754)">
<path d="M22.4273 52.9731C20.1544 55.5014 16.6792 57.7198 12.2981 57.7198C5.21047 57.7198 0.5 53.1391 0.5 45.6264C0.5 37.8813 6.28103 33.2343 10.6621 33.2343C14.0056 33.2343 15.5098 35.1207 15.8118 35.5246L16.5804 33.6381H21.8289V43.2033H15.8447C15.7459 41.0125 14.6753 38.9601 12.3036 38.9601C9.89899 38.9601 8.32883 41.9585 8.32883 45.6264C8.32883 48.9623 10.0362 51.9607 13.2095 51.9607C16.0149 51.9607 18.2219 48.9955 18.5239 48.658L22.4273 52.9731Z" fill="black"/>
<path d="M24.1285 41.7593C25.4681 40.9516 28.3394 39.3694 31.4138 39.3694C35.4271 39.3694 40.4724 40.8852 40.4724 46.3068V52.8735H42.4763V57.1831H35.3227L34.5212 55.6672C33.2859 57.3822 31.2107 57.8248 30.0084 57.8248C26.8351 57.8248 23.4258 56.1043 23.4258 52.1985C23.4258 48.3924 26.599 46.0025 30.3762 46.0025C32.3471 46.0025 33.5165 46.9817 33.6867 47.1808V46.0025C33.6867 44.4867 32.3142 44.116 30.5134 44.116C28.5425 44.116 26.8022 44.9569 25.534 45.665L24.1285 41.7593ZM33.6867 52.3313V51.0534C33.5879 50.8874 33.1212 50.0797 31.7158 50.0797C30.3762 50.0797 29.7778 50.821 29.7778 51.8666C29.7778 52.8071 30.5464 53.4488 31.5511 53.4488C32.5503 53.4433 33.3848 52.8403 33.6867 52.3313Z" fill="black"/>
<path d="M43.8164 59.6449H45.2219V44.8242H43.8164V40.3431H51.4696L52.035 41.5215C52.6719 41.0512 54.0718 40.072 56.0812 40.072C61.2968 40.072 63.9704 44.1161 63.9704 48.8959C63.9704 54.251 60.6599 57.5538 56.3502 57.5538C53.5777 57.5538 52.2382 56.4418 52.0076 56.2426V59.6449H53.8138V64.0596H43.8219V59.6449H43.8164ZM54.3738 44.8242C53.0727 44.8242 51.8648 46.4728 52.0021 49.1338C52.0021 51.4241 53.1385 53.1778 54.4067 53.1778C55.8122 53.1778 56.7784 51.5292 56.7784 48.9678C56.7839 46.943 55.8451 44.8242 54.3738 44.8242Z" fill="black"/>
<path d="M65.5016 41.7593C66.8411 40.9516 69.7124 39.3694 72.7869 39.3694C76.8001 39.3694 81.8455 40.8852 81.8455 46.3068V52.8735H83.8494V57.1831H76.6958L75.8942 55.6672C74.659 57.3822 72.5837 57.8248 71.3814 57.8248C68.2082 57.8248 64.7988 56.1043 64.7988 52.1985C64.7988 48.3924 67.9721 46.0025 71.7493 46.0025C73.7202 46.0025 74.8896 46.9817 75.0598 47.1808V46.0025C75.0598 44.4867 73.6872 44.116 71.8865 44.116C69.9156 44.116 68.1752 44.9569 66.907 45.665L65.5016 41.7593ZM75.0598 52.3313V51.0534C74.9609 50.8874 74.4943 50.0797 73.0888 50.0797C71.7493 50.0797 71.1508 50.821 71.1508 51.8666C71.1508 52.8071 71.9194 53.4488 72.9241 53.4488C73.9288 53.4488 74.7633 52.8403 75.0598 52.3313Z" fill="black"/>
<path d="M96.3841 47.9554C96.3182 46.34 95.8186 44.4203 94.2759 44.4203C92.305 44.4203 91.3332 46.5392 91.3332 48.7299C91.3332 50.9206 92.6399 52.6688 94.7755 52.702C96.5488 52.7352 97.7182 51.9939 98.8217 50.7823L101.764 54.2178C100.194 55.9383 97.1856 57.6533 93.5732 57.6533C88.6596 57.6533 84.3828 54.6549 84.3828 48.6635C84.3828 42.6998 88.3247 40.0388 92.6069 40.0388C94.8798 40.0388 96.2139 41.2836 96.7849 41.9585L97.3558 40.3431H101.298V47.9554H96.3841Z" fill="black"/>
<path d="M112.294 57.1831H102.934V52.7684H104.339V44.7191H102.934V40.3431H110.686V52.7684H112.289V57.1831H112.294ZM107.479 31.9895C109.785 31.9895 111.158 33.876 111.158 35.425C111.158 37.2783 109.857 38.8273 107.479 38.8273C105.377 38.8273 103.872 37.0404 103.872 35.425C103.872 33.876 105.141 31.9895 107.479 31.9895Z" fill="black"/>
<path d="M113.629 40.3431H115.435V37.2451L121.584 35.259V40.3431H124.757V44.7191H121.584V50.716C121.584 51.8612 121.348 53.4102 122.654 53.4102C123.088 53.4102 124.126 53.1059 124.757 52.8348V57.1444C123.752 57.5483 121.479 57.7861 120.711 57.7861C115.698 57.7861 115.528 55.0256 115.429 50.716V44.7191H113.623V40.3431H113.629Z" fill="black"/>
<path d="M138.027 44.6195H136.49V40.3431H144.977V44.52H143.374L137.022 60.082C136.05 62.1677 134.683 64.8674 129.836 64.8287C128.095 64.7291 126.794 64.021 125.79 63.1469L128.299 59.1747C128.864 59.6782 129.534 60.1871 130.237 60.3199C131.274 60.5191 132.043 59.5454 132.378 58.533L132.844 57.1168L126.328 44.6527H124.955V40.3432H135.249V44.6195H133.679L135.853 49.8751L138.027 44.6195Z" fill="black"/>
<path d="M0.833986 74.0564H20.988V81.4972H15.207V78.4988H9.85965V83.1458H16.2116V87.6269H9.85965V93.1148H15.207V89.9836H20.988V97.5959H0.833986V93.1148H2.93668V78.4988H0.833984L0.833986 74.0564Z" fill="black"/>
<path d="M34.3582 80.7559H42.8842V84.9659H40.6772L37.1361 88.5673L41.347 93.4191H42.9172V97.5959H32.2555V93.4191H33.8256L31.2837 90.6917L28.8791 93.4191H31.0532V97.5959H22.4941V93.4191H24.7341L28.1434 89.5465L23.9984 84.9659H22.4941V80.7559H33.3205V84.9659H31.7504L34.0892 87.5273L36.5981 84.9659H34.3582V80.7559Z" fill="black"/>
<path d="M55.5482 88.3681C55.4823 86.7527 54.9827 84.833 53.44 84.833C51.469 84.833 50.4973 86.9519 50.4973 89.1426C50.4973 91.3334 51.8039 93.0816 53.9396 93.1147C55.7129 93.1479 56.8822 92.4066 57.9857 91.1951L60.9284 94.6306C59.3583 96.3511 56.3497 98.0661 52.7372 98.0661C47.8236 98.0661 43.5469 95.0676 43.5469 89.0762C43.5469 83.1125 47.4887 80.4515 51.771 80.4515C54.0439 80.4515 55.378 81.6963 55.9489 82.3712L56.5199 80.7558H60.4617V88.3681L55.5482 88.3681Z" fill="black"/>
<path d="M72.5907 97.5958H62.0938V93.1811H63.4992V76.7118H62.0938V72.3358H70.1806V82.8415C70.5484 82.2384 72.986 80.1473 75.4291 80.1473C80.6117 80.1473 81.276 84.0198 81.276 87.5549V93.1812H82.8462V97.5959H74.2542V88.4345C74.2542 87.2894 74.2542 85.3033 72.2833 85.3033C70.5814 85.3033 70.1806 86.9851 70.1806 88.4345V93.1812H72.5853V97.5958H72.5907Z" fill="black"/>
<path d="M84.5524 82.172C85.8919 81.3643 88.7632 79.7821 91.8377 79.7821C95.8509 79.7821 100.896 81.2979 100.896 86.7195V93.2862H102.9V97.5958H95.7466L94.945 96.08C93.7098 97.8005 91.6345 98.2375 90.4322 98.2375C87.2589 98.2375 83.8496 96.5225 83.8496 92.6113C83.8496 88.8051 87.0229 86.4152 90.8 86.4152C92.771 86.4152 93.9403 87.3944 94.1105 87.5936V86.4152C94.1105 84.8994 92.738 84.5287 90.9373 84.5287C88.9664 84.5287 87.226 85.3696 85.9578 86.0777L84.5524 82.172ZM94.1106 92.7441V91.4661C94.0117 91.3002 93.5451 90.4924 92.1396 90.4924C90.8 90.4924 90.2016 91.2338 90.2016 92.2794C90.2016 93.2198 90.9702 93.8616 91.9749 93.8616C92.9741 93.856 93.8086 93.253 94.1106 92.7441Z" fill="black"/>
<path d="M114.534 97.5958H104.24V93.1811H105.646V85.1317H104.24V80.7558H111.361L112.129 82.8414C113.266 81.2592 114.803 80.1472 116.911 80.1472C122.094 80.1472 122.961 84.0198 122.961 87.5548V93.1811H124.531V97.5958H116.11V88.4013C116.11 87.2561 116.209 85.2701 114.238 85.2701C112.536 85.2701 112.135 86.9518 112.135 88.4013V93.1811H114.54V97.5958H114.534Z" fill="black"/>
<path d="M127.601 97.8005C128.37 98.4754 130.879 99.958 133.415 99.958C136.424 99.958 137.291 98.2043 137.291 96.7936V95.6484C136.825 96.257 135.518 97.5017 133.382 97.5017C127.634 97.5017 125.361 93.3249 125.361 89.0817C125.361 83.8593 128.238 80.4238 133.75 80.4238C135.221 80.4238 136.627 81.1319 137.291 81.8069L137.961 80.7613H145.916V85.1704H143.912V95.2391C143.912 100.832 140.503 104.467 133.487 104.5C129.808 104.467 127.102 102.713 125.833 101.535L127.601 97.8005ZM134.887 93.1479C136.193 93.1479 137.396 91.4993 137.258 88.8383C137.258 86.548 136.122 84.7943 134.854 84.7943C133.448 84.7943 132.482 86.4429 132.482 89.0043C132.482 91.0291 133.415 93.1479 134.887 93.1479Z" fill="black"/>
<path d="M164.027 95.2723C161.557 97.4298 158.878 98.2043 155.403 98.2043C151.258 98.2043 146.58 95.5433 146.58 89.0762C146.58 83.5551 150.522 80.2855 155.573 80.2855C159.548 80.2855 162.589 82.338 163.561 85.1704C163.962 86.3488 164.329 88.9434 163.627 90.8631H153.097C153.3 91.7704 153.734 93.6236 156.539 93.6236C157.675 93.6236 159.416 93.5241 161.217 92.0082L164.027 95.2723ZM153.201 87.5272H158.246C158.214 86.2492 157.912 84.833 155.77 84.833C153.734 84.833 153.267 86.6863 153.201 87.5272Z" fill="black"/>
<path fill-rule="evenodd" clip-rule="evenodd" d="M218.065 31.3201C218.697 33.6934 219.032 36.1884 219.032 38.7609C219.032 45.5876 216.671 51.8556 212.729 56.7848H212.767C215.183 56.7848 217.143 58.7598 217.143 61.1939C217.143 63.6281 215.183 65.6031 212.767 65.6031C210.352 65.6031 208.392 63.6281 208.392 61.1939V61.1552C203.5 65.1273 197.274 67.5062 190.505 67.5062C187.952 67.5062 185.476 67.1687 183.121 66.5325L185.872 56.1984C187.348 56.5967 188.908 56.8069 190.511 56.8069C195.457 56.8069 199.937 54.7877 203.176 51.5181C206.415 48.2541 208.425 43.7399 208.425 38.7553C208.425 37.1399 208.216 35.5743 207.821 34.0806L218.065 31.3201Z" fill="#02AE8C"/>
<path fill-rule="evenodd" clip-rule="evenodd" d="M190.5 10.0156C193.053 10.0156 195.529 10.3531 197.884 10.9893L195.134 21.3234C193.657 20.9251 192.098 20.7149 190.495 20.7149C185.548 20.7149 181.068 22.7341 177.829 26.0037C174.59 29.2677 172.581 33.7819 172.581 38.7665C172.581 40.3819 172.789 41.9475 173.185 43.4412L162.929 46.2128C162.298 43.8395 161.963 41.3445 161.963 38.772C161.963 31.9453 164.324 25.6773 168.265 20.7481H168.227C165.811 20.7481 163.851 18.7731 163.851 16.3389C163.851 13.9048 165.811 11.9298 168.227 11.9298C170.643 11.9298 172.603 13.9048 172.603 16.3389V16.3777C177.505 12.3945 183.731 10.0156 190.5 10.0156Z" fill="#D43831"/>
<path fill-rule="evenodd" clip-rule="evenodd" d="M204.411 19.8187C200.524 16.9143 195.709 15.1993 190.499 15.1993C188.408 15.1993 186.376 15.4759 184.444 15.9959L181.693 5.66176C184.499 4.90386 187.452 4.5 190.494 4.5C199.882 4.5 208.386 8.33381 214.54 14.5354C220.695 20.737 224.499 29.3008 224.499 38.7664C224.499 41.8368 224.099 44.8076 223.346 47.6401L213.091 44.8685C213.607 42.9211 213.882 40.8742 213.882 38.7664C213.882 33.5164 212.18 28.6702 209.297 24.7534C209.023 26.922 207.184 28.6038 204.955 28.6038C202.539 28.6038 200.579 26.6288 200.579 24.1946C200.59 21.943 202.254 20.0897 204.411 19.8187Z" fill="#0070B9"/>
<path fill-rule="evenodd" clip-rule="evenodd" d="M196.555 15.9959C194.622 15.4759 192.597 15.1993 190.499 15.1993C188.408 15.1993 186.376 15.4759 184.444 15.9959L183.115 10.9893C185.47 10.3531 187.946 10.0156 190.499 10.0156C193.052 10.0156 195.528 10.3531 197.884 10.9893L196.555 15.9959Z" fill="#053749"/>
<path fill-rule="evenodd" clip-rule="evenodd" d="M218.066 46.2072L213.098 44.8629C213.614 42.9156 213.888 40.8687 213.888 38.7609C213.888 36.6531 213.614 34.6062 213.098 32.6589L218.066 31.3146C218.698 33.6879 219.032 36.1829 219.032 38.7554C219.032 41.3389 218.698 43.8339 218.066 46.2072Z" fill="#05A300"/>
<path fill-rule="evenodd" clip-rule="evenodd" d="M167.112 38.7665C167.112 42.8216 168.128 46.6443 169.923 49.9747V59.5011H179.416C182.852 61.3876 186.695 62.3336 190.5 62.3336C192.592 62.3336 194.623 62.057 196.555 61.537L199.306 71.8711C196.501 72.6291 193.547 73.0329 190.505 73.0329C183.989 73.0329 179.174 71.6996 173.536 68.4688H161.205V56.1652C158.218 51.0645 156.5 45.1174 156.5 38.7665C156.5 35.6961 156.901 32.7253 157.653 29.8928L167.908 32.6645C167.387 34.6118 167.112 36.6532 167.112 38.7665ZM179.366 54.3949C181.782 54.3949 183.742 52.4199 183.742 49.9858C183.742 47.5516 181.782 45.5766 179.366 45.5766C176.95 45.5766 174.991 47.5516 174.991 49.9858C174.991 52.4199 176.95 54.3949 179.366 54.3949Z" fill="#F0C626"/>
<path fill-rule="evenodd" clip-rule="evenodd" d="M184.45 61.5259C186.432 62.0625 188.474 62.3336 190.5 62.3336C192.591 62.3336 194.623 62.057 196.555 61.5369L197.889 66.5436C195.534 67.1798 193.058 67.5173 190.505 67.5173C187.952 67.5173 185.476 67.1798 183.121 66.5436L184.45 61.5259Z" fill="#F53800"/>
<path fill-rule="evenodd" clip-rule="evenodd" d="M167.113 38.7665C167.113 40.8742 167.387 42.9211 167.904 44.8685L162.935 46.2128C162.304 43.8395 161.969 41.3444 161.969 38.772C161.969 36.1995 162.304 33.7045 162.935 31.3312L167.904 32.6755C167.387 34.6118 167.113 36.6531 167.113 38.7665Z" fill="#851D6A"/>
</g>
<defs>
<clipPath id="clip0_13579_9754">
<rect width="224" height="100" fill="white" transform="translate(0.5 4.5)"/>
</clipPath>
</defs>
</svg>
