<?xml version="1.0" encoding="utf-8"?>
<svg version="1.1" id="Camada_1" xmlns="http://www.w3.org/2000/svg" xmlns:xlink="http://www.w3.org/1999/xlink" x="0px" y="0px"
	 viewBox="0 0 200 200" style="enable-background:new 0 0 200 200;" xml:space="preserve">
<style type="text/css">
	.st0{fill-rule:evenodd;clip-rule:evenodd;fill:#02AE8C;}
	.st1{fill-rule:evenodd;clip-rule:evenodd;fill:#D43831;}
	.st2{fill-rule:evenodd;clip-rule:evenodd;fill:#0070B9;}
	.st3{fill-rule:evenodd;clip-rule:evenodd;fill:#F0C626;}
	.st4{fill:#05A300;}
	.st5{fill:#053749;}
	.st6{fill:#F53800;}
	.st7{fill:#851D6A;}
</style>
<path class="st0" d="M181.0754089,78.2692795c1.8569183,6.9260483,2.8419342,14.2073059,2.8419342,21.7145615
	c0,19.9225006-6.9433136,38.2144012-18.5370789,52.5992889h0.1130371c7.1047821,0,12.8693695,5.7636566,12.8693695,12.8672943
	c0,7.1036682-5.7645874,12.8672638-12.8693695,12.8672638s-12.8693695-5.7636566-12.8693695-12.8672943v-0.1130219
	c-14.3872223,11.5918579-32.6982117,18.5340881-52.6077652,18.5340881c-7.5084686,0-14.7909012-0.9848022-21.7180939-2.8414764
	l8.089798-30.1582031c4.3436127,1.1624146,8.9294357,1.7759247,13.644455,1.7759247
	c14.5486984,0,27.7248764-5.8927917,37.2517471-15.4342957c9.526886-9.5253372,15.4367828-22.699379,15.4367828-37.2457275
	c0-4.714241-0.6136017-9.2831802-1.7761993-13.6422348L181.0754089,78.2692795z"/>
<path class="st1" d="M100,16.0962238c7.5084686,0,14.7909012,0.9848251,21.7180939,2.8414497l-8.089798,30.1582279
	c-4.3436203-1.1624146-8.9294357-1.7759209-13.6444626-1.7759209c-14.5486984,0-27.7248688,5.8927917-37.2517471,15.434288
	C53.2052078,72.2796021,47.2953033,85.4536514,47.2953033,100c0,4.7142334,0.6136055,9.2831802,1.7762108,13.6422272
	L18.9084339,121.73069c-1.856926-6.9260406-2.8419342-14.2072983-2.8419342-21.7145538
	c0-19.9225006,6.9433041-38.2143974,18.537077-52.5992928h-0.1130409c-7.1047878,0-12.8693733-5.7636528-12.8693733-12.8672905
	s5.7645855-12.8672924,12.8693733-12.8672924s12.8693695,5.7636547,12.8693695,12.8672924v0.1130257
	C61.7794533,23.0384312,80.0904465,16.0962238,100,16.0962238z"/>
<path class="st2" d="M140.91716,44.7045555c-6.8406982-5.0717468-14.658493-8.9006844-23.1177902-11.1582108
	c-5.6779404-1.5152702-8.8102417-5.1572323-14.9647217-5.1572323c-6.1521072,0-12.1266174,0.8072319-17.8104324,2.3248348
	l-6.7527771-11.7718658l-4.171669-15.5516939C82.3510056,1.1785775,91.0382385,0,99.9838333,0
	c27.6118393,0,52.6239395,11.1882343,70.7249985,29.2864037S200,72.3764954,200,100
	c0,8.960289-1.178772,17.6299591-3.3909302,25.8960419l-15.5404968-4.167305l-11.7879486-6.755806
	c1.5178528-5.6829224,2.3252106-11.6564407,2.3252106-17.8075485c0-6.1633072-3.6446686-9.3012543-5.164856-14.9832764
	c-2.2588348-8.4428558-6.0856171-16.2442017-11.1527557-23.0764961c-0.807373,6.328701-6.2167053,11.2366905-12.7724915,11.2366905
	c-7.1047974,0-12.8693695-5.7636566-12.8693695-12.8672943C129.6786804,50.9040985,134.5713043,45.4956284,140.91716,44.7045555z"/>
<path class="st3" d="M28.3779964,102.8346481c0,6.1547852,3.642683,9.2915115,5.1610775,14.9727097
	c1.4010773,5.2422562,3.4069786,10.237442,5.9409599,14.9017029l0,0v27.8011017h27.9186325
	c4.7224884,2.572052,9.7057877,4.5450439,14.8165131,5.9173279c5.828476,1.5650024,8.9880447,5.1833801,14.9501724,5.1833801
	c6.1521072,0,12.1266174-0.8072357,17.8104324-2.3248444l6.7461929,11.747345l4.1782532,15.5762482
	C117.6489944,198.8214264,108.9617615,200,100.0161667,200c-19.1668015,0-33.32798-3.8908691-49.9112053-13.3193359H13.8382177
	v-35.9057312C5.0541019,135.8895569,0,118.5340576,0,100c0-8.960289,1.178768-17.6299591,3.3909354-25.8960419l15.5253944,4.1632538
	l11.8030376,6.7598572C29.18536,90.7099915,28.3779964,93.8327332,28.3779964,100V102.8346481z M67.2533493,145.6086578
	c7.1047897,0,12.8693695-5.7636566,12.8693695-12.8672943c0-7.1036453-5.7645798-12.8672943-12.8693695-12.8672943
	s-12.8693733,5.763649-12.8693733,12.8672943C54.383976,139.8450012,60.1485634,145.6086578,67.2533493,145.6086578z"/>
<path class="st4" d="M181.0753784,78.2692871l-14.6474609,3.9163208C167.9483643,87.868103,168.7711792,93.8361206,168.7711792,100
	c0,6.151123-0.807373,12.1246338-2.3251953,17.8075562l14.6226196,3.9212036
	c1.8562012-6.9345703,2.8487549-14.2229614,2.8487549-21.7449341
	C183.9173584,92.4765625,182.932312,85.1953125,181.0753784,78.2692871z"/>
<path class="st5" d="M100,31.2237549c6.1550903,0,12.1174316,0.8200073,17.7958984,2.3355713l3.9221802-14.6216431
	C114.7908936,17.0810547,107.5084839,16.0962524,100,16.0962524c-7.5117798,0-14.7949829,0.9907837-21.7285156,2.8458862
	l3.9180908,14.6064453C87.8734131,32.0310059,93.8479004,31.2237549,100,31.2237549z"/>
<path class="st6" d="M100,168.7762451c-5.9620361,0-11.9543457-0.791748-17.7827148-2.3566895l-3.9191895,14.6104126
	c6.9271851,1.8566895,14.2095947,2.8414917,21.7180786,2.8414917c7.5041504,0,14.7803345-0.9883423,21.7058105-2.8380737
	l-3.9115601-14.5820312C112.1265869,167.9689941,106.1520996,168.7762451,100,168.7762451z"/>
<path class="st7" d="M18.9084473,121.7307129l14.6375732-3.9251709c-1.5185547-5.6814575-2.333374-11.6503906-2.333374-17.805542
	c0-6.1672974,0.807373-12.1246338,2.3413696-17.8075562l-14.6376343-3.9252319
	c-1.8568726,6.93573-2.8498535,14.2254639-2.8498535,21.7489014
	C16.0665283,107.5233765,17.0515137,114.8046265,18.9084473,121.7307129z"/>
</svg>
