<svg width="263" height="155" viewBox="0 0 263 155" fill="none" xmlns="http://www.w3.org/2000/svg">
<g clip-path="url(#clip0_14264_4178)">
<path d="M123.834 12.2334C128.482 5.17138 137.008 0.880565 145.468 1.20139C153.927 1.52221 162.045 6.38226 166.442 13.6025C167.48 15.3079 172.134 22.9645 173.803 24.0902C175.803 25.4396 178.329 25.1887 180.638 25.8949C182.653 26.5113 184.948 26.6686 186.482 28.1119C188.746 30.2416 188.15 34.0011 186.788 36.7924C186.173 38.0529 185.417 39.4359 185.827 40.7769C186.067 41.5632 186.673 42.174 187.136 42.8533C188.989 45.566 188.501 49.2092 187.609 52.3691C185.524 59.7576 180.985 67.1571 173.68 69.5558C172.827 69.8355 171.944 70.0452 171.152 70.4651C170.285 70.9244 169.567 71.6141 168.862 72.2947C165.739 75.3069 162.616 78.319 159.494 81.3312C157.824 82.9416 156.522 81.2809 154.356 80.4448C153.701 80.1916 146.716 84.2174 146.184 83.7579C141.598 79.7943 131.259 78.579 127.619 73.7348C126.215 71.8652 134.208 67.8515 131.965 67.1824C130.619 66.7811 109.478 59.4398 105.469 50.2446C103.803 46.423 103.638 35.1857 113.515 34.4774C118.638 34.11 121.862 36.2662 121.862 36.2662C121.862 36.2662 120.33 30.0162 120.124 28.2393C119.482 22.6963 120.757 16.9093 123.834 12.2334Z" fill="#F39353"/>
<path d="M180.731 35.8504C181.148 35.8504 181.487 35.5124 181.487 35.0956C181.487 34.6787 181.148 34.3408 180.731 34.3408C180.313 34.3408 179.975 34.6787 179.975 35.0956C179.975 35.5124 180.313 35.8504 180.731 35.8504Z" fill="#E40524"/>
<path d="M184.498 36.6751C184.916 36.6751 185.255 36.3372 185.255 35.9203C185.255 35.5035 184.916 35.1655 184.498 35.1655C184.081 35.1655 183.742 35.5035 183.742 35.9203C183.742 36.3372 184.081 36.6751 184.498 36.6751Z" fill="#E40524"/>
<path d="M185.827 40.777L176.537 38.7417" stroke="#E30518" stroke-width="1.61962" stroke-miterlimit="10" stroke-linecap="round"/>
<path d="M115.003 40.1611C112.671 41.3117 111.148 43.7641 110.852 46.3444C109.785 55.6273 124.543 58.1753 129.623 59.9306" stroke="#E30518" stroke-width="1.61962" stroke-miterlimit="10" stroke-linecap="round"/>
<path d="M127.11 65.2856H189.97C224.642 65.2856 252.791 93.3807 252.791 127.986V154.883H64.2891V127.986C64.2891 93.3807 92.4383 65.2856 127.11 65.2856Z" fill="#00384A"/>
<path d="M66.6449 154.883V132.685C66.6449 123.996 68.532 115.413 72.1773 107.523C75.3255 100.708 79.0149 92.6458 80.942 88.1611C84.7141 79.3824 76.484 74.933 69.9686 84.5163C69.4239 85.3174 68.9175 86.0612 68.4469 86.7515C66.2146 90.0261 61.141 89.0328 60.3101 85.1599C58.7875 78.0632 56.7423 69.2305 55.223 65.2856C52.4797 58.1623 43.5637 57.1355 44.5925 68.0878C45.182 74.364 46.2082 81.2157 46.9771 85.9225C47.1158 86.7719 45.9277 87.1205 45.5793 86.3332C42.7495 79.9374 38.207 69.6181 36.43 65.2856C32.423 55.5159 23.7017 58.339 25.823 68.4551C27.045 74.2821 29.2055 82.8412 30.8178 89.0515C31.1973 90.513 29.2378 91.3831 28.4069 90.1214C24.8024 84.6476 20.1234 77.5112 18.7517 75.2775C14.2732 67.9846 6.25906 70.8076 10.7376 80.9237C15.2161 91.0397 14.962 90.1196 14.962 90.1196C14.962 90.1196 10.9733 86.8051 7.90903 83.7468C4.84479 80.6884 -2.46224 82.5705 0.83771 89.8634C2.40519 93.3276 6.95087 101.781 11.2918 109.703C17.4352 120.914 20.8605 133.405 21.2771 146.176L21.5803 154.883H66.6449Z" fill="#F39353"/>
<path d="M78.3917 94.0985C75.7864 93.1334 74.4582 90.243 75.4252 87.6427C76.3921 85.0424 79.288 83.7168 81.8934 84.6819" stroke="#E30518" stroke-width="1.61962" stroke-miterlimit="10" stroke-linecap="round"/>
<path d="M166.176 13.578C166.112 14.2781 166.148 14.0355 165.468 14.6234C165.168 14.8825 164.791 15.1735 164.362 15.5003C164.021 15.7596 163.688 16.1116 163.267 16.3976C162.902 16.6452 162.522 16.9409 162.097 17.1986C161.715 17.4306 161.214 17.512 160.783 17.7451C160.385 17.96 160.077 18.4027 159.638 18.6131C159.228 18.8099 158.748 18.9125 158.302 19.1009C157.882 19.2789 157.329 19.1618 156.877 19.3285C156.447 19.4871 156.067 19.8214 155.609 19.9666C155.171 20.1053 154.713 20.2219 154.249 20.3457C153.805 20.4643 153.343 20.5601 152.875 20.6626C152.425 20.7611 151.943 20.7313 151.471 20.8128C151.016 20.8912 150.545 20.8744 150.071 20.935C149.613 20.9936 149.194 21.5091 148.717 21.5493C148.257 21.5882 147.758 21.1773 147.28 21.1975C146.819 21.2171 146.357 21.5655 145.879 21.5662C145.416 21.5669 144.941 21.5307 144.463 21.5125C144.001 21.4948 143.547 21.208 143.071 21.1715C142.61 21.1361 142.165 20.9333 141.69 20.8791C141.23 20.8265 140.692 21.308 140.22 21.2368C139.762 21.1678 139.332 20.8593 138.862 20.7719C138.406 20.6871 138.004 20.6789 137.538 20.576C136.895 20.865 137.404 21.0345 136.904 21.7672C136.679 22.0978 136.052 22.2424 135.744 22.6791C135.494 23.0324 135.284 23.4589 134.987 23.8658C134.723 24.2262 134.671 24.774 134.375 25.166C134.101 25.5287 133.893 25.9674 133.595 26.3489C133.312 26.7112 132.963 27.0414 132.661 27.4138C132.37 27.7736 131.696 27.8276 131.389 28.1908C131.088 28.5474 130.97 29.0626 130.657 29.4168C130.345 29.7687 129.85 29.9504 129.529 30.2943C129.207 30.6399 129.243 31.3265 128.914 31.6583C128.579 31.996 128.036 32.1185 127.696 32.4359C127.346 32.7626 126.883 32.9414 126.531 33.2403C126.164 33.5525 126.12 34.2538 125.753 34.5283C125.363 34.8197 124.807 34.8631 124.422 35.1034C124.005 35.364 123.704 35.8319 123.297 36.0214C122.847 36.2312 122.235 36.2489 121.804 36.357C121.216 35.9766 121.859 35.7388 121.636 34.8802C121.537 34.4972 121.363 34.0594 121.245 33.5395C121.151 33.1225 121.091 32.6599 120.994 32.1668C120.909 31.7341 120.853 31.2729 120.772 30.7893C120.697 30.3472 120.702 29.8793 120.635 29.4005C120.573 28.9518 120.165 28.5334 120.113 28.0573C120.063 27.6037 120.058 27.1321 120.021 26.6576C119.985 26.2004 120.004 25.7297 119.983 25.2567C119.962 24.7966 120.082 24.3276 120.077 23.856C120.072 23.394 119.788 22.9234 119.801 22.4534C119.814 21.9903 120.302 21.5486 120.334 21.0806C120.366 20.6174 119.959 20.1141 120.012 19.649C120.065 19.1868 120.302 18.7446 120.378 18.2833C120.454 17.8237 120.739 17.4093 120.84 16.9534C120.941 16.4982 120.903 16.0155 121.031 15.5667C121.159 15.1181 121.233 14.653 121.39 14.2136C121.547 13.7745 121.53 13.2567 121.719 12.8295C121.907 12.4031 122.246 12.036 122.467 11.6243C122.687 11.2144 122.778 10.7104 123.033 10.3177C123.286 9.92842 123.554 9.5176 123.843 9.14783C124.129 8.78312 124.836 8.77253 125.159 8.42938C125.475 8.09312 125.601 7.56825 125.955 7.25508C126.3 6.94998 126.604 6.57156 126.986 6.29058C127.356 6.01863 127.684 5.63811 128.091 5.39078C128.501 5.14112 129.169 5.33199 129.579 5.09719C129.996 4.85849 130.354 4.53192 130.771 4.3091C131.195 4.08242 131.592 3.81967 132.015 3.60996C132.446 3.39656 132.86 3.16114 133.291 2.96587C133.728 2.76713 134.155 2.55549 134.593 2.37614C135.038 2.19359 135.476 2.00658 135.92 1.84476C136.372 1.6801 136.823 1.52563 137.274 1.3831C137.732 1.23813 138.252 1.33704 138.709 1.21568C139.173 1.09235 139.544 0.601516 140.006 0.50329C140.476 0.403587 141.023 0.758748 141.491 0.685678C141.964 0.611656 142.386 0.205549 142.858 0.159662C143.335 0.113295 143.812 0.0293162 144.287 0.0125072C144.764 -0.00442532 145.238 0.355376 145.713 0.369289C146.19 0.383254 146.693 -0.0424363 147.167 0.00346383C147.641 0.0493379 148.092 0.321113 148.563 0.399748C149.032 0.477982 149.549 0.361924 150.014 0.473436C150.475 0.583867 150.841 1.05502 151.298 1.19891C151.749 1.34077 152.339 1.11481 152.786 1.28999C153.226 1.46198 153.609 1.80651 154.045 2.01136C154.471 2.21168 154.72 2.75802 155.143 2.99047C155.554 3.21701 155.943 3.46263 156.351 3.72036C156.748 3.97094 157.38 3.87685 157.774 4.15752C158.156 4.42992 158.564 4.69382 158.943 4.9951C159.309 5.2869 159.401 5.91532 159.764 6.23472C160.116 6.54398 160.738 6.56877 161.087 6.90436C161.424 7.22934 161.493 7.82947 161.828 8.17956C162.151 8.51832 162.681 8.67464 163.002 9.03728C163.312 9.38834 163.478 9.87073 163.786 10.2445C164.083 10.6065 164.492 10.8883 164.787 11.2719C165.073 11.6437 165.266 12.0919 165.549 12.4843C165.824 12.8648 165.904 13.1779 166.176 13.578Z" fill="#C25528"/>
<path d="M218.538 48.3666C219.11 47.7348 219.838 47.2055 220.213 46.439C220.596 45.6553 221.065 44.8023 221.009 43.9334C220.941 42.8838 220.165 41.9565 219.597 41.0709C219.214 40.474 219.069 39.6808 218.606 39.1432C218.146 38.6094 217.437 38.285 216.919 37.7949C216.408 37.3107 215.688 37.0654 215.14 36.6097C214.597 36.1574 214.312 35.3851 213.753 34.9471C213.194 34.509 212.694 33.9976 212.14 33.5599C211.58 33.1178 210.969 32.7546 210.434 32.2989C209.888 31.8346 209.476 31.2599 208.979 30.7665C208.47 30.2625 207.902 29.8556 207.466 29.3053C207.025 28.7486 206.494 28.2653 206.151 27.6447C205.813 27.0337 205.313 26.4525 205.093 25.7636C204.843 24.9813 204.832 24.1075 204.756 23.2898C204.681 22.4743 204.575 21.6284 204.628 20.8112C204.676 20.0642 205.055 19.3536 205.191 18.6238C205.328 17.8901 205.502 17.1752 205.722 16.4639C205.942 15.7523 206.343 15.124 206.64 14.4398C206.936 13.7573 207.237 13.1004 207.604 12.4502C207.97 11.8025 208.394 11.2155 208.824 10.6048C209.253 9.99646 209.34 9.12247 209.826 8.55575C210.311 7.99078 211.104 7.70857 211.641 7.18981C212.177 6.67199 212.654 6.10066 213.236 5.63369C213.818 5.16687 214.4 4.70479 215.022 4.29359C215.645 3.88193 216.375 3.66976 217.032 3.31865C217.691 2.96677 218.25 2.42271 218.938 2.13649C219.63 1.84867 220.268 1.38323 220.979 1.15798C221.693 0.931995 222.465 0.865524 223.194 0.700566C223.923 0.535527 224.702 0.638928 225.442 0.533022C226.181 0.427259 226.897 0.0760921 227.644 0.0273525C228.389 -0.0212691 229.144 0.348675 229.893 0.354865C230.639 0.361037 231.397 0.0431397 232.143 0.1019C232.887 0.160517 233.611 0.429866 234.351 0.538908C235.09 0.647761 235.836 0.709606 236.567 0.866815C237.298 1.02393 238.036 1.15875 238.755 1.36226C239.475 1.56593 240.086 2.08751 240.79 2.33575C241.496 2.58458 242.352 2.44072 243.038 2.73242C243.748 3.03377 244.479 3.32162 245.169 3.66834C245.859 4.0145 246.388 4.66381 247.054 5.05381C247.72 5.44367 248.478 5.68887 249.117 6.12116C249.756 6.55378 250.308 7.11143 250.916 7.58516C251.525 8.05964 252.003 8.67876 252.576 9.19309C253.151 9.70843 253.758 10.1752 254.293 10.7291C254.829 11.2841 255.314 11.872 255.807 12.4643C256.3 13.0574 257.01 13.4857 257.456 14.1148C257.901 14.7439 258.28 15.4292 258.673 16.0929C259.065 16.7551 259.285 17.5132 259.621 18.2084C259.956 18.9009 260.415 19.5449 260.687 20.2663C260.958 20.9865 261.1 21.7552 261.307 22.4974C261.513 23.2393 261.896 23.9514 262.036 24.7084C262.176 25.466 262.22 26.2538 262.292 27.0198C262.364 27.7872 262.342 28.5702 262.344 29.3392C262.347 30.1101 262.273 30.8844 262.204 31.6501C262.134 32.4179 261.936 33.1681 261.793 33.9236C261.649 34.6807 261.787 35.519 261.568 36.2568C261.348 36.9946 260.862 37.6584 260.566 38.3699C260.27 39.0791 259.997 39.8125 259.623 40.4887C259.251 41.1615 258.671 41.7091 258.221 42.3337C257.772 42.9577 257.186 43.4527 256.668 44.0223C256.151 44.5914 255.96 45.5 255.382 46.0087C254.804 46.5174 253.846 46.5493 253.216 46.9914C252.585 47.4342 252.203 48.2727 251.529 48.6423C250.853 49.0131 249.956 48.926 249.245 49.2168C248.53 49.5087 247.883 49.9521 247.142 50.157C246.399 50.3625 245.673 50.6982 244.912 50.8098C244.15 50.9214 243.356 50.5986 242.584 50.6097C241.817 50.6207 241.042 50.8781 240.274 50.7833C239.544 50.6931 238.832 50.4421 238.103 50.3118C237.372 50.1811 236.615 50.2924 235.884 50.2234C235.147 50.1537 234.411 49.8262 233.673 49.9237C232.911 50.0245 232.298 50.602 231.595 50.8845C230.898 51.1648 230.213 51.4256 229.548 51.8054C228.893 52.1795 228.152 52.4182 227.502 52.8129C226.851 53.2085 226.3 53.7955 225.629 54.136C225.005 54.4532 224.272 54.7412 223.514 55.0112C222.833 55.2534 222.099 55.5123 221.34 55.7094C220.628 55.8944 219.795 55.651 219.037 55.7905C218.302 55.9256 217.602 56.3595 216.846 56.4468C216.095 56.5334 215.334 56.6677 214.581 56.7023C213.818 56.7374 213.054 56.404 212.31 56.3805C211.537 56.356 210.786 56.3578 210.057 56.2644C209.279 56.1649 208.583 55.8742 207.882 55.6895C207.113 55.4869 206.417 55.4542 205.776 55.1402C206.342 54.6954 206.898 54.4136 207.517 54.0977C208.144 53.7768 208.738 53.3847 209.4 53.1438C210.059 52.9041 210.748 52.7423 211.422 52.5288C212.091 52.3167 212.747 52.0614 213.411 51.8232C214.071 51.5867 214.799 51.4878 215.435 51.1748C216.055 50.8692 216.572 50.3537 217.153 49.9275C217.698 49.5272 218.042 48.9136 218.538 48.3666Z" fill="#EFEFEF"/>
<path d="M232.355 20.7471H233.621V29.9214H232.355V20.7471ZM227.266 29.9214H226V20.7471H227.266V29.9214ZM232.469 25.8322H227.139V24.692H232.469V25.8322Z" fill="#00384A"/>
<path d="M236.097 29.9214V22.9751H237.312V29.9214H236.097ZM236.704 21.6383C236.468 21.6383 236.27 21.5596 236.109 21.4024C235.958 21.2451 235.882 21.0529 235.882 20.8257C235.882 20.5898 235.958 20.3932 236.109 20.2359C236.27 20.0786 236.468 20 236.704 20C236.941 20 237.135 20.0786 237.287 20.2359C237.447 20.3844 237.527 20.5723 237.527 20.7995C237.527 21.0354 237.451 21.2363 237.299 21.4024C237.148 21.5596 236.949 21.6383 236.704 21.6383Z" fill="#00384A"/>
<path d="M239.696 27.0249L239.468 20.7471H240.899L240.658 27.0249H239.696ZM240.19 30C239.953 30 239.755 29.917 239.595 29.751C239.434 29.585 239.354 29.3884 239.354 29.1612C239.354 28.9166 239.434 28.7156 239.595 28.5583C239.755 28.401 239.953 28.3224 240.19 28.3224C240.426 28.3224 240.62 28.401 240.772 28.5583C240.924 28.7156 241 28.9166 241 29.1612C241 29.3884 240.924 29.585 240.772 29.751C240.62 29.917 240.426 30 240.19 30Z" fill="#00384A"/>
</g>
<defs>
<clipPath id="clip0_14264_4178">
<rect width="262.346" height="154.883" fill="white"/>
</clipPath>
</defs>
</svg>
