<svg width="263" height="155" viewBox="0 0 263 155" fill="none" xmlns="http://www.w3.org/2000/svg">
<g clip-path="url(#clip0_14927_14471)">
<path d="M123.834 12.2325C128.482 5.1704 137.008 0.879589 145.468 1.20041C153.927 1.52123 162.045 6.38128 166.442 13.6015C167.48 15.3069 172.134 22.9635 173.803 24.0893C175.803 25.4387 178.329 25.1878 180.638 25.8939C182.653 26.5104 184.948 26.6676 186.482 28.1109C188.746 30.2407 188.15 34.0001 186.788 36.7914C186.173 38.0519 185.417 39.435 185.827 40.776C186.067 41.5623 186.673 42.173 187.136 42.8523C188.989 45.565 188.501 49.2082 187.609 52.3681C185.524 59.7566 180.985 67.1561 173.68 69.5548C172.827 69.8346 171.944 70.0443 171.152 70.4641C170.285 70.9235 169.567 71.6132 168.862 72.2938C165.739 75.3059 162.616 78.3181 159.494 81.3302C157.824 82.9406 156.522 81.28 154.356 80.4439C153.701 80.1906 146.716 84.2164 146.184 83.7569C141.598 79.7933 131.259 78.578 127.619 73.7338C126.215 71.8643 134.208 67.8505 131.965 67.1814C130.619 66.7801 109.478 59.4389 105.469 50.2436C103.803 46.4221 103.638 35.1847 113.515 34.4764C118.638 34.109 121.862 36.2652 121.862 36.2652C121.862 36.2652 120.33 30.0152 120.124 28.2383C119.482 22.6953 120.757 16.9083 123.834 12.2325Z" fill="#F39353"/>
<path d="M180.733 35.8494C181.15 35.8494 181.489 35.5115 181.489 35.0946C181.489 34.6778 181.15 34.3398 180.733 34.3398C180.315 34.3398 179.977 34.6778 179.977 35.0946C179.977 35.5115 180.315 35.8494 180.733 35.8494Z" fill="#E40524"/>
<path d="M184.498 36.6756C184.916 36.6756 185.255 36.3376 185.255 35.9208C185.255 35.5039 184.916 35.166 184.498 35.166C184.081 35.166 183.742 35.5039 183.742 35.9208C183.742 36.3376 184.081 36.6756 184.498 36.6756Z" fill="#E40524"/>
<path d="M185.827 40.7774L176.537 38.7422" stroke="#E30518" stroke-width="1.61962" stroke-miterlimit="10" stroke-linecap="round"/>
<path d="M115.003 40.1621C112.671 41.3127 111.148 43.7651 110.852 46.3453C109.785 55.6283 124.543 58.1763 129.623 59.9316" stroke="#E30518" stroke-width="1.61962" stroke-miterlimit="10" stroke-linecap="round"/>
<path d="M127.11 65.2852H189.97C224.642 65.2852 252.791 93.3802 252.791 127.985V154.883H64.2891V127.985C64.2891 93.3802 92.4383 65.2852 127.11 65.2852Z" fill="#04222F"/>
<path d="M66.6449 154.883V132.685C66.6449 123.996 68.532 115.413 72.1773 107.523C75.3255 100.708 79.0149 92.6458 80.942 88.1611C84.7141 79.3824 76.484 74.933 69.9686 84.5163C69.4239 85.3174 68.9175 86.0612 68.4469 86.7515C66.2146 90.0261 61.141 89.0328 60.3101 85.1599C58.7875 78.0632 56.7423 69.2305 55.223 65.2856C52.4797 58.1623 43.5637 57.1355 44.5925 68.0878C45.182 74.364 46.2082 81.2157 46.9771 85.9225C47.1158 86.7719 45.9277 87.1205 45.5793 86.3332C42.7495 79.9374 38.207 69.6181 36.43 65.2856C32.423 55.5159 23.7017 58.339 25.823 68.4551C27.045 74.2821 29.2055 82.8412 30.8178 89.0515C31.1973 90.513 29.2378 91.3831 28.4069 90.1214C24.8024 84.6476 20.1234 77.5112 18.7517 75.2775C14.2732 67.9846 6.25906 70.8076 10.7376 80.9237C15.2161 91.0397 14.962 90.1196 14.962 90.1196C14.962 90.1196 10.9733 86.8051 7.90903 83.7468C4.84479 80.6884 -2.46224 82.5705 0.83771 89.8634C2.40519 93.3276 6.95087 101.781 11.2918 109.703C17.4352 120.914 20.8605 133.405 21.2771 146.176L21.5803 154.883H66.6449Z" fill="#F39353"/>
<path d="M78.3917 94.099C75.7864 93.1339 74.4582 90.2435 75.4252 87.6432C76.3921 85.0429 79.288 83.7173 81.8934 84.6824" stroke="#E30518" stroke-width="1.61962" stroke-miterlimit="10" stroke-linecap="round"/>
<path d="M166.176 13.578C166.112 14.2781 166.148 14.0355 165.468 14.6234C165.168 14.8825 164.791 15.1735 164.362 15.5003C164.021 15.7596 163.688 16.1116 163.267 16.3976C162.902 16.6452 162.522 16.9409 162.097 17.1986C161.715 17.4306 161.214 17.512 160.783 17.7451C160.385 17.96 160.077 18.4027 159.638 18.6131C159.228 18.8099 158.748 18.9125 158.302 19.1009C157.882 19.2789 157.329 19.1618 156.877 19.3285C156.447 19.4871 156.067 19.8214 155.609 19.9666C155.171 20.1053 154.713 20.2219 154.249 20.3457C153.805 20.4643 153.343 20.5601 152.875 20.6626C152.425 20.7611 151.943 20.7313 151.471 20.8128C151.016 20.8912 150.545 20.8744 150.071 20.935C149.613 20.9936 149.194 21.5091 148.717 21.5493C148.257 21.5882 147.758 21.1773 147.28 21.1975C146.819 21.2171 146.357 21.5655 145.879 21.5662C145.416 21.5669 144.941 21.5307 144.463 21.5125C144.001 21.4948 143.547 21.208 143.071 21.1715C142.61 21.1361 142.165 20.9333 141.69 20.8791C141.23 20.8265 140.692 21.308 140.22 21.2368C139.762 21.1678 139.332 20.8593 138.862 20.7719C138.406 20.6871 138.004 20.6789 137.538 20.576C136.895 20.865 137.404 21.0345 136.904 21.7672C136.679 22.0978 136.052 22.2424 135.744 22.6791C135.494 23.0324 135.284 23.4589 134.987 23.8658C134.723 24.2262 134.671 24.774 134.375 25.166C134.101 25.5287 133.893 25.9674 133.595 26.3489C133.312 26.7112 132.963 27.0414 132.661 27.4138C132.37 27.7736 131.696 27.8276 131.389 28.1908C131.088 28.5474 130.97 29.0626 130.657 29.4168C130.345 29.7687 129.85 29.9504 129.529 30.2943C129.207 30.6399 129.243 31.3265 128.914 31.6583C128.579 31.996 128.036 32.1185 127.696 32.4359C127.346 32.7626 126.883 32.9414 126.531 33.2403C126.164 33.5525 126.12 34.2538 125.753 34.5283C125.363 34.8197 124.807 34.8631 124.422 35.1034C124.005 35.364 123.704 35.8319 123.297 36.0214C122.847 36.2312 122.235 36.2489 121.804 36.357C121.216 35.9766 121.859 35.7388 121.636 34.8802C121.537 34.4972 121.363 34.0594 121.245 33.5395C121.151 33.1225 121.091 32.6599 120.994 32.1668C120.909 31.7341 120.853 31.2729 120.772 30.7893C120.697 30.3472 120.702 29.8793 120.635 29.4005C120.573 28.9518 120.165 28.5334 120.113 28.0573C120.063 27.6037 120.058 27.1321 120.021 26.6576C119.985 26.2004 120.004 25.7297 119.983 25.2567C119.962 24.7966 120.082 24.3276 120.077 23.856C120.072 23.394 119.788 22.9234 119.801 22.4534C119.814 21.9903 120.302 21.5486 120.334 21.0806C120.366 20.6174 119.959 20.1141 120.012 19.649C120.065 19.1868 120.302 18.7446 120.378 18.2833C120.454 17.8237 120.739 17.4093 120.84 16.9534C120.941 16.4982 120.903 16.0155 121.031 15.5667C121.159 15.1181 121.233 14.653 121.39 14.2136C121.547 13.7745 121.53 13.2567 121.719 12.8295C121.907 12.4031 122.246 12.036 122.467 11.6243C122.687 11.2144 122.778 10.7104 123.033 10.3177C123.286 9.92842 123.554 9.5176 123.843 9.14783C124.129 8.78312 124.836 8.77253 125.159 8.42938C125.475 8.09312 125.601 7.56825 125.955 7.25508C126.3 6.94998 126.604 6.57156 126.986 6.29058C127.356 6.01863 127.684 5.63811 128.091 5.39078C128.501 5.14112 129.169 5.33199 129.579 5.09719C129.996 4.85849 130.354 4.53192 130.771 4.3091C131.195 4.08242 131.592 3.81967 132.015 3.60996C132.446 3.39656 132.86 3.16114 133.291 2.96587C133.728 2.76713 134.155 2.55549 134.593 2.37614C135.038 2.19359 135.476 2.00658 135.92 1.84476C136.372 1.6801 136.823 1.52563 137.274 1.3831C137.732 1.23813 138.252 1.33704 138.709 1.21568C139.173 1.09235 139.544 0.601516 140.006 0.50329C140.476 0.403587 141.023 0.758748 141.491 0.685678C141.964 0.611656 142.386 0.205549 142.858 0.159662C143.335 0.113295 143.812 0.0293162 144.287 0.0125072C144.764 -0.00442532 145.238 0.355376 145.713 0.369289C146.19 0.383254 146.693 -0.0424363 147.167 0.00346383C147.641 0.0493379 148.092 0.321113 148.563 0.399748C149.032 0.477982 149.549 0.361924 150.014 0.473436C150.475 0.583867 150.841 1.05502 151.298 1.19891C151.749 1.34077 152.339 1.11481 152.786 1.28999C153.226 1.46198 153.609 1.80651 154.045 2.01136C154.471 2.21168 154.72 2.75802 155.143 2.99047C155.554 3.21701 155.943 3.46263 156.351 3.72036C156.748 3.97094 157.38 3.87685 157.774 4.15752C158.156 4.42992 158.564 4.69382 158.943 4.9951C159.309 5.2869 159.401 5.91532 159.764 6.23472C160.116 6.54398 160.738 6.56877 161.087 6.90436C161.424 7.22934 161.493 7.82947 161.828 8.17956C162.151 8.51832 162.681 8.67464 163.002 9.03728C163.312 9.38834 163.478 9.87073 163.786 10.2445C164.083 10.6065 164.492 10.8883 164.787 11.2719C165.073 11.6437 165.266 12.0919 165.549 12.4843C165.824 12.8648 165.904 13.1779 166.176 13.578Z" fill="#C25528"/>
<path d="M218.538 48.3671C219.11 47.7353 219.838 47.206 220.213 46.4395C220.596 45.6558 221.065 44.8027 221.009 43.9338C220.941 42.8843 220.165 41.957 219.597 41.0714C219.214 40.4745 219.069 39.6813 218.606 39.1437C218.146 38.6099 217.437 38.2855 216.919 37.7954C216.408 37.3112 215.688 37.0659 215.14 36.6102C214.597 36.1579 214.312 35.3856 213.753 34.9476C213.194 34.5094 212.694 33.998 212.14 33.5604C211.58 33.1183 210.969 32.7551 210.434 32.2993C209.888 31.835 209.476 31.2604 208.979 30.767C208.47 30.263 207.902 29.8561 207.466 29.3058C207.025 28.749 206.494 28.2658 206.151 27.6452C205.813 27.0342 205.313 26.453 205.093 25.7641C204.843 24.9818 204.832 24.108 204.756 23.2903C204.681 22.4748 204.575 21.6289 204.628 20.8117C204.676 20.0647 205.055 19.3541 205.191 18.6243C205.328 17.8906 205.502 17.1757 205.722 16.4644C205.942 15.7528 206.343 15.1245 206.64 14.4403C206.936 13.7578 207.237 13.1009 207.604 12.4507C207.97 11.803 208.394 11.216 208.824 10.6053C209.253 9.99695 209.34 9.12296 209.826 8.55623C210.311 7.99127 211.104 7.70906 211.641 7.1903C212.177 6.67248 212.654 6.10114 213.236 5.63418C213.818 5.16736 214.4 4.70528 215.022 4.29407C215.645 3.88242 216.375 3.67025 217.032 3.31914C217.691 2.96726 218.25 2.4232 218.938 2.13698C219.63 1.84916 220.268 1.38372 220.979 1.15847C221.693 0.932483 222.465 0.866012 223.194 0.701054C223.923 0.536015 224.702 0.639416 225.442 0.53351C226.181 0.427747 226.897 0.0765804 227.644 0.0278408C228.389 -0.0207808 229.144 0.349164 229.893 0.355353C230.639 0.361525 231.397 0.043628 232.143 0.102388C232.887 0.161005 233.611 0.430354 234.351 0.539396C235.09 0.64825 235.836 0.710094 236.567 0.867303C237.298 1.02441 238.036 1.15924 238.755 1.36275C239.475 1.56642 240.086 2.088 240.79 2.33624C241.496 2.58506 242.352 2.44121 243.038 2.73291C243.748 3.03426 244.479 3.32211 245.169 3.66883C245.859 4.01499 246.388 4.6643 247.054 5.05429C247.72 5.44416 248.478 5.68935 249.117 6.12164C249.756 6.55427 250.308 7.11192 250.916 7.58565C251.525 8.06013 252.003 8.67925 252.576 9.19357C253.151 9.70892 253.758 10.1757 254.293 10.7296C254.829 11.2846 255.314 11.8725 255.807 12.4648C256.3 13.0579 257.01 13.4862 257.456 14.1153C257.901 14.7444 258.28 15.4297 258.673 16.0934C259.065 16.7556 259.285 17.5137 259.621 18.2089C259.956 18.9014 260.415 19.5454 260.687 20.2668C260.958 20.987 261.1 21.7557 261.307 22.4979C261.513 23.2398 261.896 23.9519 262.036 24.7089C262.176 25.4665 262.22 26.2543 262.292 27.0203C262.364 27.7876 262.342 28.5707 262.344 29.3397C262.347 30.1106 262.273 30.8849 262.204 31.6506C262.134 32.4183 261.936 33.1686 261.793 33.9241C261.649 34.6812 261.787 35.5195 261.568 36.2573C261.348 36.9951 260.862 37.6588 260.566 38.3704C260.27 39.0796 259.997 39.813 259.623 40.4892C259.251 41.162 258.671 41.7096 258.221 42.3342C257.772 42.9581 257.186 43.4531 256.668 44.0228C256.151 44.5919 255.96 45.5005 255.382 46.0092C254.804 46.5179 253.846 46.5498 253.216 46.9919C252.585 47.4347 252.203 48.2732 251.529 48.6428C250.853 49.0136 249.956 48.9265 249.245 49.2173C248.53 49.5092 247.883 49.9526 247.142 50.1575C246.399 50.363 245.673 50.6987 244.912 50.8103C244.15 50.9219 243.356 50.5991 242.584 50.6102C241.817 50.6212 241.042 50.8786 240.274 50.7838C239.544 50.6936 238.832 50.4426 238.103 50.3123C237.372 50.1816 236.615 50.2929 235.884 50.2239C235.147 50.1542 234.411 49.8267 233.673 49.9242C232.911 50.025 232.298 50.6024 231.595 50.885C230.898 51.1653 230.213 51.4261 229.548 51.8059C228.893 52.18 228.152 52.4187 227.502 52.8134C226.851 53.209 226.3 53.7959 225.629 54.1365C225.005 54.4537 224.272 54.7417 223.514 55.0117C222.833 55.2539 222.099 55.5128 221.34 55.7099C220.628 55.8949 219.795 55.6515 219.037 55.791C218.302 55.9261 217.602 56.36 216.846 56.4473C216.095 56.5339 215.334 56.6682 214.581 56.7028C213.818 56.7379 213.054 56.4045 212.31 56.381C211.537 56.3565 210.786 56.3583 210.057 56.2649C209.279 56.1654 208.583 55.8747 207.882 55.69C207.113 55.4873 206.417 55.4547 205.776 55.1407C206.342 54.6958 206.898 54.414 207.517 54.0982C208.144 53.7773 208.738 53.3852 209.4 53.1443C210.059 52.9046 210.748 52.7428 211.422 52.5293C212.091 52.3172 212.747 52.0619 213.411 51.8237C214.071 51.5872 214.799 51.4883 215.435 51.1752C216.055 50.8696 216.572 50.3542 217.153 49.9279C217.698 49.5277 218.042 48.9141 218.538 48.3671Z" fill="#EFEFEF"/>
<path d="M232.355 20.7471H233.621V29.9214H232.355V20.7471ZM227.266 29.9214H226V20.7471H227.266V29.9214ZM232.469 25.8322H227.139V24.692H232.469V25.8322Z" fill="#00384A"/>
<path d="M236.097 29.9214V22.9751H237.312V29.9214H236.097ZM236.704 21.6383C236.468 21.6383 236.27 21.5596 236.109 21.4024C235.958 21.2451 235.882 21.0529 235.882 20.8257C235.882 20.5898 235.958 20.3932 236.109 20.2359C236.27 20.0786 236.468 20 236.704 20C236.941 20 237.135 20.0786 237.287 20.2359C237.447 20.3844 237.527 20.5723 237.527 20.7995C237.527 21.0354 237.451 21.2363 237.299 21.4024C237.148 21.5596 236.949 21.6383 236.704 21.6383Z" fill="#00384A"/>
<path d="M239.696 27.0249L239.468 20.7471H240.899L240.658 27.0249H239.696ZM240.19 30C239.953 30 239.755 29.917 239.595 29.751C239.434 29.585 239.354 29.3884 239.354 29.1612C239.354 28.9166 239.434 28.7156 239.595 28.5583C239.755 28.401 239.953 28.3224 240.19 28.3224C240.426 28.3224 240.62 28.401 240.772 28.5583C240.924 28.7156 241 28.9166 241 29.1612C241 29.3884 240.924 29.585 240.772 29.751C240.62 29.917 240.426 30 240.19 30Z" fill="#00384A"/>
</g>
<defs>
<clipPath id="clip0_14927_14471">
<rect width="262.346" height="154.883" fill="white"/>
</clipPath>
</defs>
</svg>
