<svg width="611" height="667" viewBox="0 0 611 667" fill="none" xmlns="http://www.w3.org/2000/svg">
<g clip-path="url(#clip0_13612_1015)">
<path d="M611 234.171H0V662.053H611V234.171Z" fill="#ED6FA7"/>
<path d="M611 233.209V234.171H0V233.209C0 204.532 23.2035 181.287 51.8159 181.287H559.171C587.797 181.287 611 204.532 611 233.209Z" fill="white"/>
<path d="M539.741 220.096C545.64 220.096 550.421 215.306 550.421 209.397C550.421 203.487 545.64 198.697 539.741 198.697C533.842 198.697 529.061 203.487 529.061 209.397C529.061 215.306 533.842 220.096 539.741 220.096Z" fill="#009D3D"/>
<path d="M511.003 220.096C516.901 220.096 521.683 215.306 521.683 209.397C521.683 203.487 516.901 198.697 511.003 198.697C505.104 198.697 500.322 203.487 500.322 209.397C500.322 215.306 505.104 220.096 511.003 220.096Z" fill="#A58088"/>
<path d="M568.477 220.096C574.376 220.096 579.158 215.306 579.158 209.397C579.158 203.487 574.376 198.697 568.477 198.697C562.579 198.697 557.797 203.487 557.797 209.397C557.797 215.306 562.579 220.096 568.477 220.096Z" fill="#E40524"/>
<path d="M469.117 60.1604L502.96 32.0607L597.065 145.801C604.404 154.672 603.174 167.842 594.319 175.194L592.564 176.652C583.709 184.004 570.562 182.771 563.223 173.901L469.117 60.1604Z" fill="#010101"/>
<path d="M469.117 60.1604L502.96 32.0607L597.065 145.801C604.404 154.672 603.174 167.842 594.319 175.194L592.564 176.652C583.709 184.004 570.562 182.771 563.223 173.901L469.117 60.1604Z" fill="url(#paint0_linear_13612_1015)"/>
<path d="M453.422 6.68787L501.779 32.1836L469.456 59.0222L453.422 6.68787Z" fill="#F7C400"/>
<path d="M454.515 8.00991L500.6 32.3069L469.796 57.884L454.515 8.00991ZM452.328 5.36719L469.117 60.1604L502.959 32.0606L452.328 5.36719Z" fill="#010101"/>
<path d="M456.655 19.4862L465.376 12.2455L448.121 0.28125L456.655 19.4862Z" fill="#010101"/>
<path d="M239.139 391.33L239.368 662.057H388.101L349.987 384.504C349.987 384.504 345.966 388.153 339.537 389.14C333.108 390.128 297.533 404.903 297.533 404.903L245.101 394.317L239.139 391.33Z" fill="white"/>
<path d="M310.692 285.025C306.401 276.283 308.184 270.151 312.036 265.431C318.152 257.936 330.643 258.029 339.934 265.638C349.225 273.247 351.799 285.491 345.682 292.986C344.764 294.111 344.568 294.44 343.395 295.224" stroke="#010101" stroke-miterlimit="10"/>
<path d="M233.267 292.041C238.489 278.354 251.286 267.921 265.681 265.325C280.077 262.73 295.582 267.949 305.682 278.548C308.067 281.051 318.762 292.294 321.997 293.582C325.874 295.125 330.043 293.763 334.202 294.102C337.832 294.398 341.764 293.813 344.888 295.689C349.499 298.456 349.889 305.045 348.626 310.279C348.056 312.643 347.293 315.266 348.482 317.385C349.18 318.628 350.429 319.438 351.464 320.416C355.597 324.324 356.125 330.677 355.793 336.36C355.017 349.649 350.103 363.868 338.664 370.642C337.33 371.432 335.917 372.115 334.735 373.121C333.443 374.22 332.488 375.655 331.55 377.07C327.398 383.331 323.246 389.592 319.094 395.853C316.874 399.201 314.06 396.871 310.095 396.258C308.894 396.073 298.6 405.484 297.532 404.903C288.321 399.891 270.421 401.669 262.481 394.814C259.417 392.169 271.417 382.403 267.383 382.103C264.963 381.922 226.559 377.332 216.38 363.244C212.15 357.389 207.701 338.415 224.107 333.55C232.616 331.026 238.858 333.482 238.858 333.482C238.858 333.482 233.953 323.464 232.946 320.53C229.804 311.379 229.809 301.103 233.267 292.041Z" fill="#F6B1B4"/>
<path d="M320.332 322.121C326.449 314.626 323.875 302.382 314.584 294.773C305.293 287.164 292.802 287.071 286.686 294.566C280.57 302.061 283.143 314.305 292.435 321.914C301.726 329.524 314.216 329.616 320.332 322.121Z" stroke="#010101" stroke-miterlimit="10"/>
<path d="M314.51 294.167C314.474 293.042 314.327 292.182 314.739 291.135C315.725 288.624 318.21 289.702 319.453 290.802" stroke="#010101" stroke-miterlimit="10" stroke-linecap="round"/>
<path d="M337.773 310.961C338.495 310.961 339.08 310.375 339.08 309.652C339.08 308.93 338.495 308.344 337.773 308.344C337.052 308.344 336.467 308.93 336.467 309.652C336.467 310.375 337.052 310.961 337.773 310.961Z" fill="#010101"/>
<path d="M344.436 310.961C345.157 310.961 345.742 310.375 345.742 309.652C345.742 308.93 345.157 308.344 344.436 308.344C343.714 308.344 343.129 308.93 343.129 309.652C343.129 310.375 343.714 310.961 344.436 310.961Z" fill="#010101"/>
<path d="M348.482 317.385H332.049" stroke="#010101" stroke-miterlimit="10" stroke-linecap="round"/>
<path d="M228.727 342.626C225.217 345.441 223.559 350.16 224.016 354.641C225.661 370.761 251.514 369.6 260.738 370.688" stroke="#010101" stroke-miterlimit="10" stroke-linecap="round"/>
<path d="M268.229 343.629C269.389 343.629 270.329 342.687 270.329 341.525C270.329 340.363 269.389 339.421 268.229 339.421C267.069 339.421 266.129 340.363 266.129 341.525C266.129 342.687 267.069 343.629 268.229 343.629Z" fill="#010101"/>
<path d="M261.32 331.007C262.877 331.007 264.139 329.743 264.139 328.183C264.139 326.624 262.877 325.36 261.32 325.36C259.764 325.36 258.502 326.624 258.502 328.183C258.502 329.743 259.764 331.007 261.32 331.007Z" fill="#010101"/>
<path d="M257.729 340.529C258.156 340.529 258.502 340.182 258.502 339.754C258.502 339.326 258.156 338.979 257.729 338.979C257.301 338.979 256.955 339.326 256.955 339.754C256.955 340.182 257.301 340.529 257.729 340.529Z" fill="#010101"/>
<path d="M251.208 330.232C252.307 330.232 253.198 329.339 253.198 328.239C253.198 327.138 252.307 326.246 251.208 326.246C250.109 326.246 249.219 327.138 249.219 328.239C249.219 329.339 250.109 330.232 251.208 330.232Z" fill="#010101"/>
<path d="M256.236 317.72C256.633 317.72 256.954 317.398 256.954 317.001C256.954 316.603 256.633 316.281 256.236 316.281C255.839 316.281 255.518 316.603 255.518 317.001C255.518 317.398 255.839 317.72 256.236 317.72Z" fill="#010101"/>
<path d="M240.21 319.935C241.218 319.935 242.034 319.117 242.034 318.108C242.034 317.099 241.218 316.281 240.21 316.281C239.203 316.281 238.387 317.099 238.387 318.108C238.387 319.117 239.203 319.935 240.21 319.935Z" fill="#010101"/>
<path d="M246.566 311.299C247.054 311.299 247.45 310.902 247.45 310.413C247.45 309.924 247.054 309.527 246.566 309.527C246.078 309.527 245.682 309.924 245.682 310.413C245.682 310.902 246.078 311.299 246.566 311.299Z" fill="#010101"/>
<path d="M236.73 306.537C237.646 306.537 238.388 305.794 238.388 304.877C238.388 303.959 237.646 303.216 236.73 303.216C235.815 303.216 235.072 303.959 235.072 304.877C235.072 305.794 235.815 306.537 236.73 306.537Z" fill="#010101"/>
<path d="M252.616 300.06C253.394 300.06 254.025 299.428 254.025 298.649C254.025 297.869 253.394 297.237 252.616 297.237C251.838 297.237 251.207 297.869 251.207 298.649C251.207 299.428 251.838 300.06 252.616 300.06Z" fill="#010101"/>
<path d="M252.066 307.644C252.371 307.644 252.618 307.396 252.618 307.091C252.618 306.785 252.371 306.538 252.066 306.538C251.761 306.538 251.514 306.785 251.514 307.091C251.514 307.396 251.761 307.644 252.066 307.644Z" fill="#010101"/>
<path d="M243.139 298.767C244.116 298.767 244.908 297.974 244.908 296.995C244.908 296.017 244.116 295.224 243.139 295.224C242.163 295.224 241.371 296.017 241.371 296.995C241.371 297.974 242.163 298.767 243.139 298.767Z" fill="#010101"/>
<path d="M242.117 287.106C242.529 287.106 242.863 286.772 242.863 286.359C242.863 285.946 242.529 285.611 242.117 285.611C241.705 285.611 241.371 285.946 241.371 286.359C241.371 286.772 241.705 287.106 242.117 287.106Z" fill="#010101"/>
<path d="M254.068 290.013C254.869 290.013 255.518 289.362 255.518 288.559C255.518 287.757 254.869 287.106 254.068 287.106C253.267 287.106 252.617 287.757 252.617 288.559C252.617 289.362 253.267 290.013 254.068 290.013Z" fill="#010101"/>
<path d="M264.304 299.451C265.311 299.451 266.128 298.633 266.128 297.625C266.128 296.616 265.311 295.798 264.304 295.798C263.297 295.798 262.48 296.616 262.48 297.625C262.48 298.633 263.297 299.451 264.304 299.451Z" fill="#010101"/>
<path d="M254.717 277.806C255.556 277.806 256.237 277.124 256.237 276.283C256.237 275.442 255.556 274.761 254.717 274.761C253.878 274.761 253.197 275.442 253.197 276.283C253.197 277.124 253.878 277.806 254.717 277.806Z" fill="#010101"/>
<path d="M267.455 270.996C268.188 270.996 268.781 270.401 268.781 269.668C268.781 268.934 268.188 268.339 267.455 268.339C266.723 268.339 266.129 268.934 266.129 269.668C266.129 270.401 266.723 270.996 267.455 270.996Z" fill="#010101"/>
<path d="M284.034 272.768C284.706 272.768 285.25 272.223 285.25 271.55C285.25 270.877 284.706 270.332 284.034 270.332C283.363 270.332 282.818 270.877 282.818 271.55C282.818 272.223 283.363 272.768 284.034 272.768Z" fill="#010101"/>
<path d="M272.98 279.605C273.896 279.605 274.638 278.861 274.638 277.944C274.638 277.027 273.896 276.283 272.98 276.283C272.065 276.283 271.322 277.027 271.322 277.944C271.322 278.861 272.065 279.605 272.98 279.605Z" fill="#010101"/>
<path d="M263.973 283.508C264.492 283.508 264.912 283.086 264.912 282.567C264.912 282.047 264.492 281.625 263.973 281.625C263.454 281.625 263.033 282.047 263.033 282.567C263.033 283.086 263.454 283.508 263.973 283.508Z" fill="#010101"/>
<path d="M277.237 268.339C277.573 268.339 277.845 268.066 277.845 267.73C277.845 267.394 277.573 267.121 277.237 267.121C276.901 267.121 276.629 267.394 276.629 267.73C276.629 268.066 276.901 268.339 277.237 268.339Z" fill="#010101"/>
<path d="M261.321 312.184C262.298 312.184 263.089 311.391 263.089 310.413C263.089 309.434 262.298 308.641 261.321 308.641C260.344 308.641 259.553 309.434 259.553 310.413C259.553 311.391 260.344 312.184 261.321 312.184Z" fill="#010101"/>
<path d="M249.827 320.045C250.467 320.045 250.987 319.525 250.987 318.883C250.987 318.241 250.467 317.72 249.827 317.72C249.186 317.72 248.666 318.241 248.666 318.883C248.666 319.525 249.186 320.045 249.827 320.045Z" fill="#010101"/>
<path d="M241.537 328.903C242.27 328.903 242.864 328.308 242.864 327.574C242.864 326.841 242.27 326.246 241.537 326.246C240.805 326.246 240.211 326.841 240.211 327.574C240.211 328.308 240.805 328.903 241.537 328.903Z" fill="#010101"/>
<path d="M488.18 83.2006C482.188 78.7401 476.81 76.0682 469.416 75.039C466.004 74.5641 462.508 74.129 459.136 74.8368C455.764 75.5447 452.483 77.6111 451.223 80.8235C449.556 85.0747 451.933 90.0286 455.5 92.873C459.068 95.7174 463.59 96.9899 467.907 98.4601C475.074 100.901 482.521 104.536 485.941 111.3C489.113 117.571 488.094 125.054 486.998 131.998C486.273 136.592 480.538 150.555 479.813 155.15C491.314 156.891 507.257 148.503 518.641 150.895C521.245 151.442 523.863 152.012 526.316 153.045C530.518 154.816 534.034 157.857 537.618 160.68C542.494 164.518 547.625 168.028 552.968 171.181C557.394 173.792 562.176 176.357 564.822 180.767C565.811 179.654 566.498 178.274 566.79 176.814L488.18 83.2006Z" fill="#F6B1B4"/>
<path d="M521.755 25.1561C525.175 22.988 528.938 20.9774 532.986 21.0014C537.033 21.0255 541.327 23.7714 541.748 27.804C547.645 24.4775 555.126 23.652 561.25 26.537C567.375 29.4221 571.65 36.3223 570.616 43.0226C576.502 41.5543 582.786 45.7826 585.005 51.4387C587.224 57.0948 586.042 63.6185 583.346 69.0629C586.931 66.89 591.896 69.608 593.481 73.4935C595.067 77.3791 594.199 81.8055 593.003 85.8285C590.865 93.0206 587.759 99.8801 584.663 106.713C581.94 112.723 580.471 117.189 576.198 122.212C574.818 123.835 572.404 125.734 567.681 123.605C564.338 122.098 561.393 118.064 562.619 113.915C563.659 110.395 564.604 107.091 565.464 103.522C564.647 106.236 563.571 108.871 562.255 111.38C561.385 113.036 560.322 114.724 558.644 115.546C555.883 116.899 549.907 114.668 548.296 112.046C546.685 109.423 546.687 105.14 547.898 101.824C549.229 98.18 550.68 94.5458 550.68 94.5458C547.904 98.4551 546.315 104.067 541.673 105.248C538.519 106.049 535.135 104.178 533.343 101.457C531.551 98.7354 531.078 95.3522 531.041 92.0926C530.979 86.4698 532.093 80.8366 534.292 75.6629C535.581 72.6297 537.272 69.6044 537.231 66.3081C537.223 65.67 537.121 64.9738 536.655 64.5395C535.447 63.4154 533.68 65.0817 532.901 66.5374C531.35 69.4361 529.8 72.3348 528.249 75.2335C526.489 78.5231 524.604 81.9522 521.48 83.9859C518.356 86.0196 514.551 85.0279 511.38 83.0679C507.472 80.6523 507.118 73.4619 507.514 70.6042C508.696 62.0536 509.878 53.5029 511.06 44.9523C511.142 44.3627 511.223 43.7581 511.094 43.1769C510.93 42.4299 513.299 45.9029 512.822 45.3052C509.933 41.6801 505.707 38.3992 509.747 34.1796C511.471 32.3796 513.636 30.8659 515.626 29.3791C516.867 28.4518 520.221 25.1561 521.755 25.1561Z" fill="#F6B1B4"/>
<path d="M560.498 171.087C560.135 170.732 560.287 169.822 559.902 169.456C559.532 169.105 558.802 169.122 558.412 168.763C558.036 168.416 557.776 167.929 557.381 167.576C557 167.235 556.231 167.327 555.832 166.98C555.445 166.644 555.734 165.504 555.33 165.163C554.938 164.832 554.038 165.101 553.63 164.767C553.232 164.442 552.598 164.411 552.186 164.083C551.783 163.763 551.737 162.983 551.321 162.662C550.913 162.348 550.68 161.79 550.259 161.476C549.846 161.168 549.011 161.431 548.586 161.123C548.168 160.821 547.681 160.622 547.251 160.321C546.829 160.025 546.925 158.969 546.491 158.675C546.064 158.385 545.079 158.933 544.64 158.645C544.209 158.362 543.903 157.891 543.461 157.611C543.025 157.334 542.562 157.106 542.116 156.833C541.675 156.564 541.61 155.662 541.16 155.396C540.716 155.135 539.825 155.646 539.372 155.388C538.924 155.133 538.582 154.699 538.124 154.448C537.672 154.2 537.553 153.326 537.091 153.082C536.634 152.842 536.229 152.48 535.764 152.245C535.303 152.012 534.611 152.232 534.142 152.004C533.677 151.778 533.409 151.121 532.936 150.902C532.467 150.684 531.633 151.267 531.155 151.055C530.683 150.845 530.209 150.65 529.728 150.446C529.252 150.244 529.136 149.16 528.651 148.964C528.171 148.771 527.42 149.255 526.932 149.068C526.448 148.883 526.214 148.012 525.723 147.834C525.236 147.657 524.674 147.665 524.179 147.495C523.689 147.327 523.015 147.704 522.517 147.543C522.024 147.384 521.79 146.377 521.289 146.225C520.793 146.074 520.283 145.926 519.78 145.783C519.283 145.642 518.563 146.294 518.059 146.161C517.559 146.028 516.994 146.169 516.487 146.045C515.984 145.922 515.577 145.406 515.067 145.291C514.562 145.177 514.121 144.751 513.609 144.645C513.102 144.54 512.431 145.27 511.917 145.174C511.408 145.078 511.001 144.42 510.486 144.333C509.974 144.247 509.412 144.489 508.894 144.411C508.381 144.334 507.986 143.379 507.467 143.311C506.953 143.244 506.379 143.598 505.859 143.54C505.344 143.482 504.756 144.16 504.236 144.111C503.719 144.062 503.259 143.39 502.737 143.35C502.219 143.312 501.689 143.437 501.166 143.407C500.649 143.378 500.156 142.708 499.633 142.688C499.114 142.668 498.573 143.149 498.048 143.138C497.528 143.128 497.006 143.214 496.481 143.213C495.953 143.211 495.423 143.088 494.902 143.132C494.376 143.175 493.941 143.781 493.425 143.869C492.906 143.957 492.183 143.094 491.677 143.225C491.167 143.357 490.856 144.188 490.362 144.362C489.866 144.536 489.172 144.233 488.694 144.448C488.214 144.663 487.579 144.659 487.12 144.913C486.661 145.168 486.61 146.134 486.174 146.426C485.737 146.718 484.901 146.487 484.49 146.814C484.08 147.141 483.637 147.499 483.254 147.859C482.872 148.218 483.073 149.168 482.72 149.559C482.37 149.948 482.022 150.315 481.702 150.734C481.385 151.151 481.027 151.522 480.743 151.967C480.461 152.408 480.578 153.051 480.331 153.518C480.09 153.973 478.965 153.96 478.723 154.418C478.482 154.874 479.151 155.812 478.91 156.27C478.669 156.726 477.796 156.849 477.555 157.308C477.316 157.764 477.625 158.511 477.385 158.97C477.145 159.426 476.466 159.653 476.226 160.112C475.987 160.569 475.335 160.811 475.095 161.27C474.857 161.728 475.365 162.577 475.125 163.036C474.887 163.494 474.525 163.888 474.286 164.347C474.048 164.805 473.564 165.136 473.326 165.596C473.088 166.055 473.319 166.758 473.081 167.218C472.844 167.676 472.554 168.108 472.317 168.569C472.08 169.028 471.647 169.386 471.409 169.847C471.173 170.306 471.235 170.92 470.997 171.381C470.761 171.84 469.68 171.865 469.443 172.326C469.207 172.785 469.821 173.684 469.585 174.145C469.349 174.605 468.039 174.513 467.803 174.975C467.567 175.435 467.693 176.082 467.457 176.543C467.222 177.003 467.699 177.83 467.464 178.292C467.228 178.753 466.04 178.726 465.804 179.188C465.569 179.648 466.181 180.543 465.945 181.005C465.711 181.466 465.528 181.954 465.293 182.416C465.058 182.877 464.155 182.998 463.92 183.46C463.686 183.921 463.986 184.656 463.751 185.118C463.517 185.58 463.493 186.148 463.258 186.611C463.024 187.073 462.803 187.541 462.568 188.004C462.335 188.466 461.349 188.546 461.115 189.009C460.881 189.471 461.033 190.129 460.799 190.592C460.565 191.054 460.344 191.523 460.11 191.986C459.877 192.449 458.88 192.525 458.646 192.988C458.413 193.451 458.322 193.986 458.088 194.449C457.855 194.912 458.487 195.812 458.253 196.275C458.02 196.738 457.517 197.064 457.284 197.528C457.051 197.99 457.177 198.633 456.945 199.095C456.712 199.557 455.416 199.483 455.183 199.946C454.951 200.408 455.619 201.324 455.387 201.787C455.155 202.249 454.134 202.315 453.902 202.778C453.67 203.241 453.402 203.686 453.169 204.149C452.937 204.611 453.01 205.228 452.778 205.691C452.546 206.154 452.444 206.682 452.212 207.146C451.98 207.609 451.801 208.099 451.569 208.562C451.337 209.025 451.286 209.58 451.054 210.043C450.822 210.507 450.49 210.92 450.258 211.384C450.026 211.847 449.587 212.206 449.355 212.67C449.123 213.134 449.038 213.671 448.806 214.135C448.574 214.598 448.631 215.207 448.399 215.671C448.168 216.135 447.41 216.336 447.178 216.8C446.947 217.264 447.005 217.873 446.773 218.337C446.541 218.801 445.826 219.023 445.594 219.487C445.363 219.951 445.054 220.376 444.822 220.84C444.59 221.304 444.651 221.914 444.419 222.378C444.188 222.842 443.96 223.308 443.728 223.773C443.496 224.237 443.492 224.815 443.261 225.28C443.029 225.744 442.419 226.019 442.187 226.484C441.955 226.948 441.659 227.38 441.427 227.845C441.195 228.309 440.861 228.723 440.629 229.188C440.397 229.652 440.964 230.518 440.732 230.983C440.5 231.448 440.028 231.792 439.795 232.257C439.563 232.722 439.362 233.203 439.129 233.668C438.897 234.133 438.33 234.43 438.098 234.895C437.865 235.361 437.329 235.673 437.096 236.138C436.864 236.604 436.671 237.089 436.438 237.554C436.206 238.02 436.589 238.794 436.356 239.26C436.123 239.725 435.268 239.877 435.035 240.342C434.803 240.807 434.667 241.32 434.434 241.785C434.202 242.25 434.581 243.023 434.349 243.488C434.116 243.953 433.121 244.035 432.888 244.499C432.655 244.964 433.029 245.734 432.796 246.199C432.562 246.664 432.239 247.084 432.006 247.548C431.772 248.013 431.479 248.448 431.246 248.913C431.012 249.378 430.719 249.813 430.486 250.277C430.252 250.742 429.845 251.119 429.611 251.584C429.377 252.049 429.559 252.723 429.325 253.188C429.091 253.653 428.718 254.047 428.484 254.512C428.25 254.977 427.635 255.249 427.401 255.714C427.167 256.179 427.915 257.14 427.681 257.604C427.447 258.069 427.083 258.469 426.849 258.933C426.614 259.398 426.435 259.891 426.2 260.355C425.966 260.82 425 260.915 424.766 261.379C424.531 261.844 424.353 262.337 424.118 262.801C423.883 263.266 424.384 264.104 424.149 264.568C423.914 265.033 423.096 265.202 422.861 265.666C422.625 266.13 422.932 266.871 422.697 267.335C422.461 267.8 421.313 267.799 421.077 268.262C420.841 268.727 421.003 269.394 420.767 269.857C420.531 270.322 419.761 270.513 419.525 270.977C419.288 271.441 420.083 272.432 419.846 272.896C419.61 273.36 418.311 273.28 418.074 273.744C417.837 274.208 418.683 275.226 418.446 275.689C418.208 276.154 417.06 276.149 416.823 276.612C416.585 277.076 416.779 277.762 416.542 278.224C416.304 278.688 416.145 279.192 415.908 279.655C415.669 280.119 414.914 280.315 414.676 280.778C414.438 281.241 414.621 281.922 414.383 282.385C414.144 282.848 414.329 283.53 414.09 283.992C413.851 284.456 413.086 284.646 412.847 285.108C412.608 285.571 412.294 285.995 412.055 286.457C411.815 286.92 411.507 287.347 411.267 287.808C411.027 288.271 410.681 288.678 410.441 289.139C410.201 289.602 409.782 289.97 409.541 290.432C409.301 290.894 409.028 291.339 408.788 291.8C408.546 292.262 409.151 293.167 408.91 293.628C408.669 294.09 408.419 294.548 408.178 295.008C407.936 295.47 407.096 295.617 406.855 296.077C406.612 296.539 406.76 297.206 406.518 297.666C406.275 298.127 406.027 298.586 405.785 299.045C405.541 299.507 404.871 299.741 404.628 300.2C404.384 300.661 403.967 301.029 403.723 301.488C403.479 301.949 403.461 302.529 403.217 302.987C402.973 303.448 403.066 304.088 402.822 304.547C402.577 305.007 402.472 305.542 402.227 306C401.981 306.46 401.706 306.904 401.46 307.361C401.214 307.821 400.457 308.005 400.211 308.462C399.964 308.922 399.727 309.385 399.48 309.842C399.233 310.301 399.904 311.257 399.657 311.714C399.409 312.173 398.489 312.266 398.242 312.722C397.993 313.181 398.4 313.995 398.152 314.451C397.902 314.91 397.354 315.204 397.106 315.659C396.856 316.117 396.255 316.381 396.006 316.836C395.755 317.294 395.573 317.787 395.323 318.242C395.072 318.699 394.955 319.229 394.705 319.684C394.453 320.14 394.487 320.755 394.235 321.208C393.983 321.665 393.179 321.813 392.927 322.266C392.673 322.722 392.051 322.969 391.799 323.422C391.544 323.877 391.533 324.466 391.28 324.918C391.024 325.373 390.654 325.76 390.4 326.212C390.144 326.666 390.112 327.245 389.857 327.696C389.6 328.15 389.633 328.767 389.377 329.217C389.119 329.671 389.297 330.372 389.04 330.821C388.781 331.274 387.946 331.394 387.689 331.843C387.429 332.296 387.731 333.071 387.473 333.519C387.212 333.971 386.693 334.272 386.434 334.719C386.172 335.17 385.427 335.337 385.167 335.784C384.904 336.234 385.023 336.906 384.761 337.352C384.497 337.802 384.281 338.278 384.018 338.723C383.753 339.172 382.941 339.293 382.677 339.737C382.41 340.185 382.015 340.552 381.75 340.995C381.482 341.442 381.659 342.154 381.393 342.596C381.124 343.042 380.977 343.56 380.71 344.001C380.439 344.447 379.722 344.616 379.453 345.056C379.181 345.501 379.446 346.273 379.176 346.712C378.902 347.155 378.053 347.238 377.781 347.675C377.506 348.118 377.821 348.926 377.547 349.363C377.27 349.804 376.708 350.062 376.433 350.497C376.155 350.938 376.013 351.461 375.736 351.895C375.455 352.334 375.521 352.994 375.243 353.426C374.96 353.864 373.749 353.693 373.469 354.123C373.184 354.56 372.955 355.025 372.672 355.453C372.385 355.889 372.825 356.802 372.54 357.229C372.251 357.663 372.228 358.275 371.941 358.7C371.649 359.133 370.524 358.993 370.235 359.417C369.94 359.848 370.453 360.833 370.16 361.254C369.861 361.686 369.389 361.994 369.093 362.415C368.79 362.844 368.178 363.047 367.879 363.465C367.574 363.892 367.265 364.309 366.962 364.724C366.654 365.147 366.052 365.346 365.747 365.757C365.434 366.178 364.948 366.454 364.639 366.862C364.323 367.28 364.109 367.761 363.796 368.165C363.476 368.579 363.116 368.945 362.799 369.345C362.474 369.756 362.905 370.765 362.583 371.161C362.252 371.568 361.759 371.837 361.432 372.227C361.094 372.631 360.744 373.016 360.411 373.401C360.067 373.799 359.93 374.376 359.591 374.754C359.239 375.147 358.101 374.803 357.755 375.174C357.396 375.559 357.24 376.109 356.887 376.471C356.518 376.849 356.795 377.866 356.433 378.218C356.053 378.588 354.885 378.1 354.513 378.44C354.122 378.798 354.016 379.439 353.633 379.763C353.227 380.108 353.049 380.712 352.653 381.019C352.232 381.344 351.694 381.488 351.285 381.77C350.846 382.072 350.266 382.134 349.84 382.385C349.163 382.852 349.155 382.416 348.279 382.965C347.884 383.213 347.795 384.122 347.249 384.422C346.806 384.664 346.319 384.931 345.787 385.185C345.319 385.409 344.672 385.293 344.14 385.512C343.653 385.713 343.133 385.836 342.598 386.022C342.093 386.197 341.741 386.901 341.197 387.054C340.679 387.2 340.429 387.38 339.879 387.498C339.417 388.123 339.832 387.743 339.969 388.754C340.027 389.18 339.36 389.792 339.44 390.387C339.503 390.85 340.594 391.224 340.67 391.786C340.735 392.263 340.681 392.793 340.755 393.339C340.82 393.824 340.508 394.387 340.581 394.925C340.647 395.415 340.669 395.933 340.741 396.465C340.807 396.959 340.943 397.462 341.014 397.991C341.081 398.487 341.565 398.943 341.636 399.471C341.703 399.969 341.35 400.538 341.421 401.064C341.488 401.564 341.87 402.035 341.941 402.559C342.008 403.061 341.969 403.588 342.039 404.112C342.107 404.615 342.519 405.082 342.589 405.604C342.656 406.108 342.663 406.63 342.732 407.152C342.8 407.657 342.904 408.166 342.974 408.687C343.042 409.193 341.957 409.862 342.027 410.382C342.095 410.889 342.286 411.386 342.356 411.907C342.424 412.414 343.197 412.833 343.266 413.353C343.334 413.861 343.204 414.401 343.273 414.921C343.341 415.43 343.019 415.996 343.089 416.515C343.156 417.024 343.993 417.435 344.062 417.954C344.13 418.463 343.724 419.04 343.793 419.559C343.861 420.068 344.092 420.56 344.161 421.078C344.229 421.588 344.478 422.077 344.547 422.595C344.614 423.105 344.689 423.618 344.757 424.136C344.825 424.645 344.614 425.196 344.683 425.714C344.751 426.224 344.323 426.803 344.391 427.321C344.459 427.831 345.339 428.237 345.407 428.754C345.475 429.264 345.704 429.757 345.772 430.274C345.84 430.784 344.85 431.438 344.918 431.955C344.986 432.465 345.123 432.97 345.192 433.487C345.259 433.997 345.284 434.517 345.352 435.033C345.419 435.544 345.704 436.029 345.772 436.546C345.839 437.057 346.599 437.479 346.667 437.995C346.734 438.506 346.517 439.058 346.585 439.574C346.652 440.082 346.02 440.686 346.088 441.199C346.155 441.707 346.808 442.141 346.875 442.655C346.942 443.163 346.625 443.725 346.692 444.239C346.759 444.748 347.35 445.19 347.417 445.704C347.484 446.213 347.654 446.711 347.722 447.224C347.788 447.734 347.406 448.304 347.473 448.818C347.54 449.328 347.379 449.869 347.446 450.383C347.513 450.893 347.785 451.377 347.852 451.891C347.919 452.401 348.443 452.853 348.51 453.367C348.577 453.877 348.125 454.457 348.192 454.971C348.259 455.481 348.149 456.016 348.216 456.53C348.283 457.041 348.393 457.547 348.46 458.061C348.527 458.572 349.092 459.019 349.159 459.533C349.225 460.044 349.776 460.493 349.843 461.007C349.909 461.518 349.109 462.143 349.176 462.658C349.242 463.169 349.83 463.613 349.897 464.128C349.963 464.639 350.412 465.102 350.478 465.616C350.544 466.127 350.196 466.694 350.263 467.208C350.329 467.72 350.864 468.172 350.93 468.686C350.997 469.198 349.859 469.867 349.926 470.381C349.992 470.893 350.716 471.321 350.783 471.835C350.849 472.347 351.422 472.795 351.488 473.309C351.554 473.821 350.98 474.417 351.046 474.932C351.112 475.444 350.824 476.003 350.891 476.517C350.957 477.03 351.333 477.503 351.399 478.017C351.465 478.53 351.475 479.051 351.541 479.565C351.606 480.078 351.424 480.623 351.49 481.138C351.556 481.65 352.151 482.096 352.217 482.61C352.283 483.123 351.823 483.704 351.889 484.219C351.955 484.732 353.093 485.108 353.159 485.622C353.225 486.135 352.308 486.775 352.373 487.29C352.439 487.803 352.722 488.289 352.788 488.804C352.853 489.315 352.417 489.892 352.482 490.405C352.547 490.917 353.234 491.351 353.3 491.864C353.365 492.376 353.68 492.857 353.745 493.371C353.81 493.883 353.378 494.459 353.444 494.973C353.509 495.485 354.398 495.894 354.463 496.407C354.528 496.92 353.528 497.569 353.593 498.083C353.658 498.595 353.825 499.096 353.89 499.61C353.955 500.123 354.369 500.592 354.434 501.106C354.499 501.619 355.064 502.069 355.129 502.584C355.194 503.097 354.19 503.746 354.255 504.26C354.319 504.774 355.368 505.163 355.433 505.678C355.497 506.191 354.956 506.782 355.021 507.296C355.085 507.81 355.395 508.293 355.459 508.808C355.524 509.322 355.91 509.796 355.975 510.31C356.039 510.824 355.88 511.367 355.944 511.882C356.009 512.395 356.537 512.851 356.601 513.365C356.665 513.879 356.174 514.463 356.238 514.977C356.302 515.492 355.729 516.086 355.793 516.6C355.858 517.115 356.5 517.557 356.564 518.072C356.628 518.586 356.915 519.073 356.979 519.588C357.043 520.103 356.796 520.657 356.86 521.172C356.924 521.687 357.504 522.138 357.568 522.653C357.632 523.169 357.428 523.718 357.492 524.233C357.556 524.749 357.956 525.222 358.02 525.738C358.084 526.254 357.292 526.876 357.355 527.391C357.419 527.907 358.158 528.34 358.222 528.856C358.285 529.372 358.119 529.916 358.183 530.432C358.246 530.949 358.599 531.43 358.662 531.946C358.726 532.462 358.213 533.05 358.277 533.566C358.34 534.082 359.047 534.519 359.11 535.034C359.173 535.55 358.474 536.16 358.537 536.675C358.6 537.191 359.37 537.621 359.432 538.136C359.496 538.653 358.932 539.245 358.995 539.761C359.058 540.277 359.725 540.719 359.787 541.235C359.85 541.752 359.264 542.347 359.327 542.863C359.39 543.379 359.524 543.886 359.586 544.402C359.649 544.919 359.434 545.469 359.496 545.985C359.558 546.501 359.932 546.98 359.994 547.496C360.056 548.012 360.701 548.458 360.763 548.974C360.825 549.491 359.897 550.127 359.959 550.643C360.021 551.16 360.923 551.575 360.985 552.091C361.047 552.608 361.035 553.134 361.097 553.649C361.159 554.167 361.285 554.675 361.346 555.191C361.408 555.709 361.716 556.196 361.777 556.712C361.839 557.229 361.192 557.83 361.253 558.346C361.315 558.864 361.408 559.377 361.469 559.893C361.53 560.41 362.403 560.83 362.465 561.346C362.526 561.864 361.417 562.519 361.478 563.035C361.539 563.553 362.276 563.989 362.336 564.505C362.397 565.023 361.794 565.618 361.855 566.134C361.916 566.652 362.516 567.105 362.577 567.621C362.637 568.138 363.059 568.613 363.119 569.129C363.18 569.647 362.823 570.212 362.883 570.728C362.943 571.246 363.393 571.718 363.453 572.234C363.513 572.751 363.364 573.293 363.424 573.809C363.484 574.327 363.956 574.796 364.015 575.312C364.075 575.83 363.165 576.459 363.224 576.975C363.284 577.493 364.24 577.906 364.299 578.422C364.358 578.94 364.226 579.479 364.285 579.995C364.344 580.513 363.871 581.091 363.93 581.607C363.989 582.125 364.654 582.573 364.713 583.088C364.771 583.607 364.073 584.21 364.131 584.725C364.19 585.244 365.332 585.638 365.39 586.153C365.448 586.672 365.156 587.229 365.214 587.744C365.272 588.262 365.119 588.803 365.176 589.319C365.234 589.837 364.976 590.389 365.033 590.905C365.091 591.423 365.616 591.888 365.673 592.403C365.73 592.922 365.812 593.436 365.869 593.951C365.926 594.47 365.989 594.986 366.045 595.501C366.102 596.02 366.195 596.533 366.251 597.048C366.308 597.567 365.465 598.182 365.521 598.697C365.577 599.216 366.454 599.643 366.51 600.158C366.566 600.676 366.795 601.174 366.851 601.689C366.907 602.208 366.581 602.766 366.636 603.28C366.692 603.799 366.172 604.377 366.227 604.892C366.282 605.411 367.019 605.854 367.074 606.369C367.129 606.888 366.519 607.474 366.573 607.988C366.628 608.507 367.837 608.902 367.891 609.416C367.945 609.935 367.599 610.494 367.652 611.008C367.706 611.527 367.646 612.055 367.699 612.569C367.752 613.088 367.109 613.675 367.161 614.189C367.214 614.708 368.459 615.102 368.511 615.616C368.564 616.135 367.531 616.761 367.583 617.274C367.635 617.793 367.876 618.29 367.927 618.803C367.979 619.322 368.56 619.785 368.61 620.298C368.661 620.817 369.033 621.302 369.083 621.814C369.133 622.334 368.161 622.949 368.21 623.461C368.261 623.981 368.157 624.511 368.206 625.023C368.255 625.542 369.181 625.974 369.229 626.485C369.278 627.005 369.615 627.494 369.663 628.005C369.711 628.525 369.618 629.054 369.665 629.565C369.712 630.085 369.09 630.661 369.136 631.172C369.183 631.693 369.62 632.174 369.665 632.685C369.711 633.206 369.393 633.754 369.438 634.264C369.483 634.786 370.381 635.229 370.425 635.739C370.47 636.263 369.782 636.844 369.825 637.357C369.868 637.881 369.39 638.441 369.432 638.953C369.475 639.477 370.29 639.931 370.33 640.442C370.371 640.966 370.202 641.499 370.241 642.009C370.281 642.533 369.923 643.078 369.96 643.587C369.999 644.111 370.185 644.614 370.221 645.121C370.258 645.646 371.13 646.105 371.164 646.611C371.199 647.138 370.499 647.703 370.531 648.21C370.564 648.737 370.389 649.265 370.419 649.771C370.45 650.3 370.782 650.798 370.809 651.303C370.837 651.833 371.088 652.337 371.112 652.84C371.137 653.371 370.463 653.915 370.483 654.415C370.504 654.952 371.76 655.426 371.775 655.925C371.791 656.464 371.761 656.99 371.77 657.484C371.78 658.027 371.621 658.553 371.622 659.041C371.623 659.592 370.832 660.101 370.821 660.58C370.809 661.143 371.014 662.112 370.984 662.573C371.723 662.798 371.892 662.397 372.664 662.397C373.437 662.397 373.436 662.489 374.209 662.489C374.982 662.489 374.982 662.496 375.755 662.496C376.528 662.496 376.528 661.969 377.301 661.969C378.074 661.969 378.074 662.693 378.847 662.693C379.62 662.693 379.62 662.354 380.392 662.354C381.164 662.354 381.164 662.512 381.936 662.512C382.708 662.512 382.708 662.747 383.48 662.747C384.251 662.747 384.251 661.901 385.023 661.901C385.794 661.901 385.794 662.227 386.566 662.227C387.337 662.227 387.337 661.816 388.108 661.816C388.879 661.816 388.879 662.144 389.65 662.144C390.422 662.144 390.422 661.583 391.193 661.583C391.964 661.583 391.964 662.389 392.735 662.389C393.506 662.389 393.506 661.827 394.277 661.827C395.049 661.827 395.049 661.499 395.82 661.499C396.591 661.499 396.591 662.522 397.363 662.522C398.135 662.522 398.135 662.447 398.907 662.447C399.679 662.447 399.679 661.897 400.451 661.897C401.224 661.897 401.224 661.695 401.996 661.695C402.769 661.695 402.769 662.591 403.542 662.591C404.316 662.591 404.316 662.556 405.089 662.556C405.863 662.556 405.863 662.601 406.636 662.601C407.409 662.601 407.409 662.355 408.182 662.355C408.954 662.355 408.954 662.765 409.727 662.765C410.499 662.765 410.499 661.579 411.272 661.579C412.044 661.579 412.044 662.456 412.816 662.456C413.588 662.456 413.588 661.498 414.36 661.498C415.132 661.498 415.132 661.589 415.903 661.589C416.675 661.589 416.675 661.68 417.447 661.68C418.22 661.68 418.22 662.373 418.992 662.373C419.764 662.373 419.764 662.19 420.537 662.19C421.309 662.19 421.309 662.643 422.082 662.643C422.855 662.643 422.855 661.867 423.628 661.867C424.402 661.867 424.402 662.48 425.176 662.48C425.95 662.48 425.95 661.768 426.723 661.768C427.496 661.768 427.496 662.146 428.27 662.146C429.043 662.146 429.043 661.839 429.815 661.839C430.588 661.839 430.588 661.646 431.361 661.646C432.133 661.646 432.133 661.827 432.906 661.827C433.678 661.827 433.678 662.33 434.451 662.33C435.224 662.33 435.224 662.608 435.996 662.608C436.769 662.608 436.769 661.48 437.542 661.48C438.316 661.48 438.316 662.668 439.089 662.668C439.864 662.668 439.864 661.902 440.638 661.902C441.411 661.902 441.411 661.525 442.185 661.525C442.958 661.525 442.958 662.749 443.732 662.749C444.505 662.749 444.505 661.954 445.278 661.954C446.051 661.954 446.051 662.632 446.824 662.632C447.597 662.632 447.597 662.453 448.37 662.453C449.143 662.453 449.143 662.551 449.917 662.551C450.69 662.551 450.69 662.126 451.464 662.126C452.238 662.126 452.238 661.854 453.011 661.854C453.784 661.854 453.784 661.813 454.557 661.813C455.328 661.813 455.328 662.607 456.1 662.607C456.871 662.607 456.871 661.515 457.643 661.515C458.413 661.515 458.413 661.994 459.184 661.994C459.955 661.994 459.955 661.547 460.726 661.547C461.497 661.547 461.497 662.749 462.268 662.749C463.039 662.749 463.039 662.706 463.811 662.706C464.583 662.706 464.583 661.639 465.356 661.639C466.129 661.639 466.129 661.832 466.903 661.832C467.678 661.832 467.678 661.812 468.453 661.812C469.227 661.812 469.227 662.523 470.001 662.523C470.774 662.523 470.774 661.914 471.546 661.914C472.319 661.914 472.319 662.178 473.092 662.178C473.864 662.178 473.864 662.42 474.637 662.42C475.41 662.42 475.41 662.498 476.183 662.498C476.957 662.498 476.957 661.89 477.732 661.89C478.507 661.89 478.507 661.964 479.282 661.964C480.056 661.964 480.056 662.337 480.83 662.337C481.604 662.337 481.604 661.526 482.378 661.526C483.152 661.526 483.152 662.3 483.926 662.3C484.701 662.3 484.701 662.68 485.476 662.68C486.251 662.68 486.251 661.83 487.026 661.83C487.801 661.83 487.801 661.668 488.575 661.668C489.35 661.668 489.35 661.826 490.125 661.826C490.901 661.826 490.901 661.622 491.676 661.622C492.451 661.622 492.451 661.783 493.226 661.783C493.998 661.783 493.998 662.003 494.77 662.003C495.542 662.003 495.542 662.6 496.315 662.6C497.092 662.6 497.092 661.709 497.868 661.709C498.643 661.709 498.643 662.261 499.417 662.261C500.192 662.261 500.192 662.24 500.966 662.24C501.744 662.24 501.744 662.601 502.521 662.601C503.297 662.601 503.297 662.124 504.073 662.124C504.85 662.124 504.85 662.621 505.627 662.621C506.405 662.621 506.405 661.548 507.182 661.548C507.959 661.548 507.959 662.107 508.736 662.107C509.514 662.107 509.514 662.359 510.292 662.359C511.072 662.359 511.072 662.311 511.852 662.311C512.632 662.311 512.783 662.692 513.52 662.435C514.257 662.177 512.968 661.769 512.473 660.858C512.267 660.479 511.643 660.214 511.362 659.674C511.145 659.259 511.486 658.493 511.228 657.982C511.01 657.551 511.193 656.881 510.947 656.381C510.731 655.94 510.016 655.712 509.779 655.217C509.565 654.769 508.924 654.494 508.693 654.002C508.481 653.548 509.168 652.656 508.943 652.165C508.734 651.708 507.502 651.696 507.282 651.206C507.076 650.745 507.661 649.914 507.446 649.424C507.243 648.959 506.988 648.504 506.777 648.014C506.576 647.547 506.781 646.896 506.574 646.405C506.375 645.935 505.491 645.744 505.287 645.252C505.091 644.781 504.629 644.406 504.428 643.914C504.235 643.441 504.311 642.846 504.114 642.353C503.923 641.878 503.518 641.477 503.324 640.984C503.136 640.507 503.813 639.683 503.622 639.189C503.436 638.71 502.256 638.607 502.068 638.113C501.885 637.633 502.178 636.963 501.993 636.468C501.812 635.987 500.998 635.733 500.815 635.238C500.637 634.755 501.519 633.875 501.338 633.38C501.163 632.896 501.058 632.382 500.88 631.886C500.707 631.401 500.032 631.09 499.856 630.593C499.685 630.107 499.548 629.603 499.375 629.106C499.206 628.619 499.135 628.093 498.965 627.594C498.798 627.107 498.365 626.704 498.197 626.205C498.032 625.716 498.364 625.056 498.198 624.557C498.035 624.067 497.995 623.534 497.831 623.035C497.671 622.544 497.431 622.076 497.27 621.576C497.112 621.087 496.471 620.749 496.313 620.251C496.157 619.761 496.625 619.07 496.469 618.571C496.315 618.08 495.075 617.923 494.92 617.423C494.768 616.931 495.613 616.128 495.46 615.627C495.31 615.133 494.051 614.972 493.9 614.471C493.752 613.976 493.741 613.435 493.592 612.932C493.445 612.437 493.557 611.86 493.41 611.357C493.266 610.861 493.949 610.121 493.804 609.618C493.661 609.12 492.595 608.885 492.452 608.38C492.311 607.882 492.289 607.346 492.148 606.841C492.008 606.342 492.391 605.695 492.251 605.189C492.114 604.69 491.481 604.323 491.343 603.817C491.207 603.316 490.612 602.935 490.477 602.428C490.343 601.927 491.43 601.097 491.296 600.589C491.163 600.087 490.479 599.729 490.347 599.221C490.216 598.718 490.003 598.234 489.872 597.725C489.744 597.225 490.133 596.59 490.005 596.083C489.878 595.582 489.603 595.116 489.476 594.609C489.351 594.107 488.825 593.701 488.701 593.193C488.577 592.69 488.517 592.168 488.394 591.659C488.272 591.154 487.858 590.717 487.736 590.207C487.616 589.702 487.306 589.238 487.186 588.727C487.067 588.221 486.925 587.716 486.806 587.205C486.689 586.698 487.081 586.07 486.964 585.558C486.848 585.053 487.272 584.424 487.157 583.914C487.043 583.407 485.747 583.163 485.634 582.652C485.521 582.144 486.615 581.367 486.503 580.855C486.392 580.346 485.512 580.003 485.401 579.489C485.291 578.979 485.99 578.294 485.881 577.779C485.773 577.27 485.392 576.818 485.285 576.304C485.178 575.793 485.238 575.247 485.131 574.731C485.026 574.22 484.439 573.806 484.334 573.291C484.23 572.775 483.716 572.34 483.613 571.819C483.51 571.307 484.065 570.665 483.962 570.157C483.858 569.646 482.945 569.302 482.841 568.795C482.736 568.284 482.939 567.712 482.833 567.205C482.727 566.694 482.879 566.132 482.772 565.625C482.665 565.115 482.573 564.603 482.465 564.096C482.356 563.586 482.094 563.112 481.984 562.606C481.873 562.096 481.683 561.607 481.572 561.102C481.46 560.592 481.335 560.089 481.222 559.584C481.108 559.075 480.991 558.57 480.878 558.066C480.763 557.557 480.64 557.053 480.524 556.549C480.408 556.041 480.851 555.406 480.734 554.902C480.617 554.395 480.594 553.866 480.476 553.363C480.356 552.856 479.797 552.455 479.677 551.953C479.556 551.446 479.623 550.896 479.502 550.394C479.38 549.888 478.806 549.494 478.683 548.992C478.559 548.486 479.091 547.821 478.967 547.32C478.841 546.815 477.773 546.548 477.647 546.048C477.52 545.543 478.275 544.817 478.148 544.317C478.02 543.813 477.493 543.413 477.364 542.914C477.234 542.407 476.623 542.028 476.492 541.527C476.36 541.02 477.336 540.225 477.204 539.724C477.07 539.219 475.906 538.991 475.772 538.491C475.637 537.986 476.553 537.199 476.418 536.7C476.281 536.195 475.198 535.953 475.061 535.455C474.923 534.951 475.164 534.345 475.026 533.848C474.886 533.345 474.508 532.912 474.368 532.415C474.227 531.913 474.737 531.228 474.596 530.732C474.453 530.231 473.95 529.835 473.807 529.34C473.663 528.839 472.852 528.536 472.708 528.042C472.561 527.542 472.996 526.875 472.85 526.382C472.702 525.882 472.029 525.544 471.881 525.052C471.732 524.553 471.584 524.059 471.434 523.568C471.283 523.07 471.489 522.467 471.338 521.977C471.185 521.479 471.335 520.892 471.183 520.403C471.028 519.905 470.614 519.494 470.46 519.005C470.302 518.505 470.044 518.043 469.887 517.552C469.728 517.054 469.677 516.526 469.519 516.037C469.358 515.54 469.099 515.081 468.94 514.593C468.777 514.097 468.379 513.686 468.217 513.2C468.053 512.705 468.857 511.892 468.694 511.407C468.529 510.913 468.295 510.445 468.131 509.962C467.963 509.468 467.768 508.987 467.602 508.504C467.431 508.01 466.961 507.625 466.792 507.142C466.62 506.65 466.698 506.075 466.529 505.595C466.354 505.103 465.904 504.715 465.733 504.235C465.557 503.745 465.235 503.314 465.061 502.836C464.883 502.346 465.279 501.652 465.104 501.176C464.925 500.691 464.495 500.306 464.327 499.818C464.16 499.329 463.342 499.054 463.186 498.563C463.03 498.07 463.154 497.485 463.009 496.99C462.863 496.494 463.391 495.814 463.257 495.316C463.123 494.817 461.889 494.601 461.766 494.1C461.644 493.598 461.783 493.024 461.671 492.521C461.56 492.016 461.862 491.422 461.762 490.916C461.662 490.409 461.989 489.83 461.901 489.322C461.812 488.813 461.604 488.334 461.527 487.824C461.45 487.313 461.256 486.826 461.191 486.314C461.125 485.801 460.978 485.303 460.925 484.79C460.871 484.276 460.964 483.755 460.922 483.24C460.88 482.725 460.311 482.249 460.281 481.734C460.251 481.218 460.545 480.686 460.526 480.17C460.507 479.654 460.105 479.145 460.098 478.629C460.091 478.113 460.437 477.593 460.442 477.077C460.447 476.561 459.885 476.027 459.901 475.511C459.918 474.995 459.94 474.467 459.968 473.952C459.997 473.436 459.943 472.902 459.983 472.388C460.023 471.873 461.281 471.467 461.332 470.954C461.384 470.44 461.407 469.937 461.47 469.424C461.534 468.912 460.491 468.249 460.566 467.739C460.641 467.228 461.172 466.783 461.259 466.274C461.346 465.765 461.447 465.257 461.545 464.75C461.644 464.243 462.106 463.814 462.216 463.309C462.326 462.805 461.996 462.2 462.117 461.698C462.239 461.197 462.957 460.85 463.09 460.351C463.223 459.853 463.138 459.301 463.282 458.805C463.427 458.31 463.418 457.77 463.574 457.278C463.73 456.786 464.108 456.371 464.275 455.882C464.442 455.394 464.855 455.003 465.033 454.518C465.211 454.034 464.659 453.273 464.848 452.792C465.037 452.312 465.898 452.108 466.098 451.632C466.298 451.158 466.221 450.561 466.425 450.077C466.624 449.603 467.164 449.266 467.368 448.782C467.567 448.308 467.281 447.623 467.484 447.139C467.684 446.664 468.267 446.346 468.47 445.863C468.67 445.388 468.544 444.771 468.747 444.287C468.947 443.812 469.388 443.434 469.591 442.951C469.791 442.476 470.217 442.092 470.419 441.609C470.619 441.133 470.007 440.312 470.21 439.829C470.409 439.353 471.424 439.217 471.626 438.734C471.826 438.258 471.071 437.377 471.274 436.895C471.473 436.419 471.664 435.936 471.866 435.453C472.066 434.977 472.792 434.719 472.994 434.237C473.194 433.76 473.409 433.287 473.61 432.805C473.81 432.328 474.134 431.901 474.336 431.419C474.535 430.942 475.033 430.588 475.235 430.106C475.434 429.629 475.631 429.148 475.833 428.666C476.031 428.192 476.186 427.697 476.387 427.218C476.585 426.744 475.891 425.893 476.091 425.414C476.29 424.939 476.765 424.578 476.965 424.099C477.163 423.624 476.987 422.99 477.187 422.511C477.386 422.036 477.76 421.632 477.96 421.153C478.158 420.678 478.112 420.098 478.312 419.618C478.51 419.143 479.179 418.862 479.379 418.383C479.577 417.907 479.506 417.317 479.706 416.837C479.904 416.362 480.045 415.86 480.244 415.38C480.443 414.904 480.852 414.514 481.052 414.035C481.25 413.558 481.464 413.087 481.663 412.607C481.862 412.131 482.761 411.945 482.961 411.465C483.159 410.989 483.146 410.422 483.345 409.943C483.544 409.466 483.916 409.06 484.116 408.58C484.314 408.103 484.03 407.424 484.229 406.944C484.427 406.467 484.283 405.845 484.482 405.365C484.68 404.888 485.502 404.669 485.701 404.189C485.899 403.712 485.485 402.978 485.685 402.498C485.883 402.02 486.156 401.573 486.355 401.093C486.553 400.615 486.515 400.038 486.714 399.557C486.912 399.08 487.675 398.835 487.874 398.355C488.072 397.877 488.624 397.545 488.823 397.065C489.021 396.587 489.015 396.023 489.214 395.542C489.412 395.064 489.767 394.65 489.965 394.169C490.163 393.691 489.748 392.957 489.946 392.476C490.144 391.998 490.572 391.613 490.77 391.133C490.968 390.654 491.298 390.229 491.497 389.749C491.694 389.27 491.923 388.803 492.122 388.322C492.319 387.843 492.3 387.273 492.498 386.793C492.696 386.314 493.523 386.094 493.721 385.613C493.919 385.134 493.183 384.268 493.381 383.787C493.578 383.308 494.44 383.102 494.638 382.621C494.836 382.142 494.556 381.464 494.754 380.983C494.951 380.504 495.978 380.366 496.176 379.885C496.373 379.405 495.867 378.634 496.065 378.153C496.262 377.674 496.485 377.204 496.683 376.722C496.88 376.243 497.259 375.837 497.457 375.356C497.654 374.876 497.305 374.17 497.503 373.689C497.699 373.21 497.82 372.7 498.017 372.22C498.214 371.741 498.627 371.351 498.824 370.871C499.021 370.392 498.984 369.816 499.18 369.336C499.377 368.857 500.128 368.605 500.325 368.125C500.522 367.645 500.502 367.077 500.699 366.596C500.896 366.117 501.596 365.844 501.793 365.363C501.989 364.884 501.984 364.321 502.181 363.84C502.377 363.36 503.06 363.079 503.256 362.598C503.453 362.118 502.837 361.305 503.034 360.824C503.23 360.344 503.258 359.794 503.454 359.313C503.65 358.833 504.086 358.45 504.282 357.969C504.478 357.489 504.83 357.072 505.026 356.59C505.222 356.11 505.66 355.728 505.857 355.246C506.053 354.765 506.087 354.218 506.284 353.737C506.479 353.256 506.113 352.545 506.309 352.063C506.505 351.582 507.527 351.438 507.723 350.957C507.919 350.476 507.889 349.902 508.085 349.42C508.281 348.939 507.882 348.215 508.078 347.733C508.274 347.251 508.962 346.971 509.158 346.489C509.353 346.008 509.575 345.537 509.77 345.056C509.965 344.574 509.574 343.854 509.77 343.373C509.965 342.891 511.124 342.802 511.319 342.32C511.515 341.838 511.51 341.275 511.705 340.793C511.9 340.311 511.412 339.551 511.607 339.069C511.802 338.587 512.063 338.132 512.258 337.65C512.453 337.167 512.748 336.726 512.943 336.243C513.138 335.761 513.925 335.518 514.12 335.035C514.315 334.553 514.813 334.193 515.008 333.71C515.203 333.227 514.608 332.424 514.802 331.941C514.997 331.458 515.849 331.241 516.044 330.757C516.238 330.274 515.648 329.474 515.843 328.99C516.038 328.507 516.842 328.27 517.036 327.786C517.231 327.303 517.144 326.705 517.338 326.222C517.533 325.738 517.735 325.257 517.929 324.773C518.124 324.289 518.693 323.956 518.887 323.473C519.082 322.988 518.403 322.153 518.597 321.669C518.791 321.184 520.062 321.133 520.256 320.649C520.45 320.165 519.566 319.247 519.76 318.763C519.954 318.278 520.671 318.003 520.865 317.519C521.059 317.034 521.577 316.68 521.771 316.195C521.965 315.71 522.141 315.218 522.335 314.734C522.528 314.248 522.922 313.843 523.116 313.359C523.309 312.873 522.817 312.114 523.011 311.629C523.204 311.143 523.463 310.684 523.656 310.199C523.85 309.714 524.551 309.431 524.744 308.946C524.937 308.462 524.384 307.679 524.576 307.195C524.769 306.711 525.219 306.329 525.412 305.845C525.604 305.36 525.88 304.909 526.072 304.424C526.264 303.939 526.217 303.359 526.409 302.875C526.601 302.39 527.189 302.063 527.381 301.578C527.573 301.093 527.21 300.388 527.402 299.903C527.594 299.418 528.394 299.175 528.585 298.69C528.777 298.205 528.25 297.435 528.441 296.95C528.633 296.465 529.77 296.354 529.961 295.87C530.152 295.384 529.543 294.582 529.733 294.097C529.925 293.612 530.094 293.118 530.285 292.633C530.476 292.148 531.482 291.984 531.672 291.499C531.863 291.013 532.18 290.577 532.37 290.092C532.561 289.606 531.868 288.773 532.058 288.288C532.249 287.802 533.246 287.634 533.436 287.149C533.626 286.662 533.803 286.172 533.993 285.687C534.183 285.2 533.691 284.447 533.88 283.962C534.071 283.475 534.37 283.033 534.559 282.548C534.749 282.061 535.139 281.654 535.328 281.169C535.518 280.682 535.85 280.252 536.038 279.766C536.228 279.28 535.702 278.514 535.89 278.029C536.079 277.542 537.079 277.372 537.267 276.887C537.456 276.4 536.736 275.56 536.924 275.075C537.113 274.588 538.453 274.549 538.641 274.064C538.83 273.577 537.845 272.635 538.032 272.15C538.221 271.663 539.584 271.632 539.772 271.146C539.96 270.659 539.742 270.016 539.929 269.53C540.117 269.043 540.397 268.592 540.584 268.106C540.771 267.618 540.263 266.864 540.449 266.378C540.636 265.89 540.803 265.396 540.989 264.911C541.176 264.423 542.319 264.303 542.505 263.818C542.691 263.33 541.951 262.487 542.136 262.002C542.322 261.514 542.365 260.972 542.55 260.487C542.737 259.998 543.986 259.918 544.171 259.432C544.357 258.944 544.288 258.36 544.472 257.874C544.658 257.385 544.348 256.71 544.533 256.224C544.718 255.736 544.936 255.262 545.12 254.776C545.305 254.287 545.73 253.891 545.914 253.406C546.098 252.917 546.314 252.442 546.497 251.956C546.681 251.467 546.992 251.027 547.175 250.541C547.359 250.052 547.097 249.397 547.279 248.911C547.462 248.422 547.356 247.826 547.538 247.34C547.721 246.851 548.995 246.773 549.176 246.287C549.359 245.797 548.485 244.915 548.666 244.429C548.848 243.939 549.93 243.787 550.111 243.301C550.294 242.809 550.22 242.223 550.4 241.734C550.583 241.242 551.047 240.856 551.227 240.367C551.409 239.875 550.882 239.123 551.062 238.634C551.243 238.142 552.116 237.906 552.295 237.418C552.476 236.925 552.4 236.341 552.579 235.852C552.759 235.359 552.554 234.728 552.732 234.24C552.911 233.747 553.509 233.41 553.686 232.921C553.865 232.428 554.274 232.022 554.451 231.533C554.629 231.04 553.824 230.194 554 229.706C554.178 229.213 555.1 228.992 555.275 228.504C555.452 228.011 555.469 227.463 555.644 226.975C555.82 226.482 556.212 226.069 556.386 225.581C556.561 225.088 556.615 224.554 556.788 224.066C556.962 223.573 557.339 223.154 557.51 222.666C557.684 222.172 556.919 221.351 557.09 220.864C557.263 220.37 557.566 219.927 557.735 219.439C557.908 218.945 558.948 218.758 559.117 218.271C559.288 217.777 558.75 217.041 558.917 216.554C559.088 216.06 559.687 215.718 559.853 215.231C560.023 214.737 559.552 214.028 559.717 213.541C559.885 213.047 560.065 212.562 560.229 212.076C560.396 211.58 561.574 211.431 561.737 210.944C561.903 210.448 560.97 209.589 561.131 209.102C561.297 208.603 562.353 208.404 562.514 207.915C562.678 207.416 562.531 206.82 562.69 206.331C562.853 205.832 562.568 205.195 562.725 204.707C562.886 204.208 563.079 203.728 563.234 203.241C563.393 202.741 564.409 202.521 564.562 202.034C564.719 201.533 564.416 200.894 564.566 200.407C564.722 199.903 564.261 199.22 564.41 198.73C564.562 198.228 565.587 197.999 565.732 197.512C565.882 197.007 565.665 196.403 565.807 195.916C565.954 195.411 566.044 194.902 566.182 194.415C566.326 193.909 566.342 193.38 566.476 192.894C566.619 192.376 566.59 191.845 566.695 191.323C566.801 190.796 567.328 190.355 567.396 189.826C567.464 189.293 567.564 188.762 567.594 188.229C567.624 187.693 567.434 187.156 567.426 186.622C567.417 186.086 567.29 185.569 567.244 185.037C567.198 184.503 566.772 184.046 566.688 183.518C566.604 182.989 567.03 182.384 566.909 181.863C566.788 181.342 566.856 180.766 566.698 180.255C566.541 179.744 565.97 179.381 565.777 178.881C565.584 178.383 565.52 177.843 565.292 177.359C565.064 176.875 564.667 176.495 564.405 176.028C564.144 175.562 563.792 175.18 563.497 174.732C563.203 174.287 563.181 173.666 562.855 173.24C562.53 172.817 562.429 172.197 562.073 171.795C561.719 171.396 560.882 171.463 560.498 171.087Z" fill="white"/>
<path d="M245.059 394.377C244.537 393.791 244.79 393.733 243.901 393.256C243.514 393.049 242.736 393.408 242.199 393.138C241.773 392.925 241.188 392.952 240.675 392.709C240.232 392.498 239.817 392.174 239.312 391.948C238.857 391.744 238.476 391.327 237.974 391.114C237.511 390.918 237.024 390.743 236.523 390.542C236.052 390.354 235.592 390.107 235.09 389.918C234.613 389.737 234.346 388.937 233.843 388.758C233.36 388.586 232.624 389.116 232.119 388.948C231.631 388.786 231.193 388.451 230.685 388.294C230.194 388.142 229.679 388.045 229.169 387.899C228.673 387.757 228.067 388.022 227.554 387.887C227.055 387.755 226.664 387.193 226.15 387.069C225.647 386.948 225.092 387.052 224.576 386.94C224.069 386.83 223.595 386.57 223.076 386.47C222.567 386.372 222.044 386.357 221.524 386.269C221.012 386.184 220.555 385.726 220.033 385.652C219.519 385.578 219.012 385.379 218.489 385.318C217.973 385.258 217.411 385.588 216.887 385.541C216.369 385.494 215.82 385.944 215.295 385.911C214.776 385.878 214.286 385.425 213.76 385.407C213.239 385.388 212.725 384.877 212.199 384.874C211.678 384.871 211.167 385.756 210.641 385.769C210.12 385.781 209.561 384.8 209.036 384.828C208.516 384.856 208.014 385.282 207.491 385.327C206.972 385.371 206.428 385.239 205.906 385.301C205.389 385.362 204.886 385.584 204.366 385.663C203.851 385.742 203.416 386.275 202.899 386.372C202.386 386.468 201.673 385.609 201.16 385.724C200.651 385.837 200.228 386.375 199.719 386.507C199.215 386.639 198.924 387.517 198.419 387.667C197.921 387.816 197.339 387.664 196.841 387.832C196.348 387.999 195.837 388.1 195.345 388.287C194.858 388.471 194.072 387.933 193.587 388.138C193.108 388.341 193.029 389.465 192.551 389.687C192.08 389.907 191.227 389.356 190.758 389.596C190.295 389.833 190.284 390.925 189.824 391.183C189.37 391.436 188.465 390.917 188.013 391.191C187.569 391.461 187.588 392.473 187.146 392.763C186.712 393.049 185.72 392.523 185.289 392.829C184.865 393.129 184.899 394.07 184.478 394.39C184.065 394.705 183.905 395.326 183.495 395.66C183.093 395.989 182.523 396.101 182.124 396.45C181.733 396.791 181.224 396.996 180.837 397.357C180.456 397.711 180.073 398.064 179.697 398.437C179.327 398.803 179.105 399.31 178.74 399.694C178.389 400.063 177.744 400.161 177.393 400.547C177.051 400.923 176.287 400.94 175.945 401.333C175.609 401.716 176.139 402.853 175.804 403.251C175.476 403.641 174.749 403.701 174.42 404.104C174.098 404.5 173.623 404.78 173.3 405.189C172.984 405.589 172.484 405.858 172.168 406.271C171.858 406.676 172.19 407.575 171.879 407.992C171.574 408.401 171.066 408.662 170.76 409.083C170.46 409.496 169.871 409.708 169.571 410.132C169.275 410.549 169.659 411.446 169.363 411.873C169.072 412.294 168.712 412.665 168.42 413.094C168.133 413.518 167.121 413.457 166.834 413.889C166.551 414.316 166.148 414.672 165.865 415.107C165.585 415.536 165.48 416.086 165.2 416.524C164.924 416.955 165.135 417.7 164.859 418.14C164.586 418.574 164.45 419.093 164.178 419.535C163.908 419.971 163.694 420.441 163.424 420.884C163.158 421.322 162.454 421.497 162.188 421.942C161.924 422.382 161.489 422.724 161.226 423.171C160.965 423.613 161.419 424.477 161.158 424.925C160.9 425.369 160.517 425.739 160.258 426.189C160.003 426.634 159.52 426.95 159.265 427.401C159.012 427.848 158.419 428.106 158.166 428.559C157.915 429.007 157.32 429.268 157.07 429.722C156.821 430.172 157.299 431.026 157.051 431.481C156.804 431.932 156.371 432.283 156.124 432.739C155.88 433.191 156.133 433.913 155.889 434.37C155.647 434.823 154.73 434.918 154.487 435.376C154.247 435.831 154.103 436.339 153.863 436.798C153.625 437.252 153.699 437.871 153.462 438.329C153.226 438.784 152.577 439.027 152.341 439.486C152.107 439.942 152.288 440.613 152.054 441.073C151.821 441.53 151.785 442.088 151.553 442.548C151.321 443.007 151.138 443.488 150.906 443.95C150.676 444.409 149.987 444.639 149.757 445.101C149.528 445.561 148.842 445.796 148.614 446.259C148.387 446.72 149.019 447.606 148.792 448.07C148.566 448.532 147.985 448.82 147.76 449.285C147.535 449.747 146.853 449.99 146.629 450.455C146.405 450.918 146.186 451.386 145.963 451.852C145.741 452.316 146.147 453.083 145.925 453.549C145.704 454.014 145.667 454.567 145.446 455.034C145.226 455.5 144.171 455.571 143.951 456.039C143.732 456.505 144.415 457.396 144.196 457.865C143.978 458.332 142.936 458.414 142.718 458.883C142.501 459.351 142.771 460.045 142.554 460.515C142.338 460.983 141.725 461.268 141.509 461.738C141.294 462.207 141.216 462.74 141.001 463.21C140.787 463.68 140.277 464.015 140.063 464.486C139.85 464.955 140.387 465.767 140.174 466.238C139.962 466.707 139.441 467.037 139.229 467.507C139.018 467.977 139.065 468.563 138.854 469.035C138.644 469.505 137.574 469.591 137.364 470.063C137.154 470.533 138.048 471.497 137.839 471.969C137.63 472.44 137.06 472.751 136.851 473.224C136.642 473.696 135.97 473.963 135.762 474.435C135.554 474.908 135.983 475.661 135.775 476.134C135.568 476.607 134.396 476.657 134.189 477.13C133.982 477.604 134.235 478.278 134.028 478.752C133.822 479.226 133.418 479.614 133.212 480.088C133.007 480.562 133.192 481.207 132.987 481.681C132.782 482.155 131.996 482.379 131.792 482.853C131.587 483.328 131.43 483.824 131.226 484.299C131.022 484.774 131.199 485.413 130.996 485.889C130.792 486.364 130.808 486.934 130.605 487.41C130.402 487.886 130.464 488.475 130.262 488.952C130.059 489.428 128.897 489.496 128.695 489.972C128.493 490.449 128.44 490.99 128.238 491.467C128.036 491.944 127.871 492.438 127.67 492.915C127.468 493.392 127.643 494.029 127.442 494.507C127.241 494.985 126.506 495.238 126.305 495.715C126.104 496.194 126.915 497.098 126.714 497.576C126.514 498.054 125.291 498.103 125.091 498.581C124.891 499.06 125.209 499.756 125.009 500.235C124.809 500.714 124.162 501.006 123.962 501.484C123.763 501.964 123.458 502.399 123.259 502.878C123.059 503.357 123.089 503.933 122.89 504.412C122.691 504.891 123.402 505.75 123.203 506.229C123.004 506.709 121.946 506.831 121.747 507.31C121.548 507.79 121.37 508.278 121.171 508.757C120.973 509.237 120.787 509.722 120.589 510.202C120.39 510.682 120.503 511.291 120.305 511.77C120.107 512.251 119.705 512.646 119.507 513.126C119.308 513.606 119.772 514.36 119.574 514.839C119.376 515.32 118.558 515.543 118.36 516.022C118.162 516.503 117.593 516.829 117.396 517.308C117.198 517.789 117.65 518.537 117.452 519.017C117.254 519.497 116.886 519.906 116.689 520.386C116.491 520.866 116.146 521.285 115.949 521.764C115.751 522.245 115.103 522.538 114.906 523.017C114.708 523.497 115.269 524.291 115.072 524.769C114.874 525.25 114.098 525.49 113.901 525.968C113.703 526.448 114.442 527.315 114.245 527.793C114.047 528.273 113.798 528.732 113.601 529.21C113.403 529.689 112.541 529.893 112.344 530.371C112.146 530.851 111.863 531.294 111.666 531.772C111.468 532.251 111.853 532.972 111.655 533.449C111.457 533.928 110.357 534.031 110.159 534.508C109.961 534.987 110.747 535.875 110.55 536.351C110.351 536.83 109.8 537.161 109.602 537.637C109.403 538.115 108.892 538.462 108.694 538.938C108.495 539.416 108.719 540.069 108.52 540.545C108.321 541.023 108.373 541.604 108.174 542.079C107.974 542.556 106.913 542.67 106.714 543.144C106.514 543.621 107.022 544.395 106.823 544.869C106.622 545.348 105.735 545.535 105.534 546.01C105.332 546.489 105.19 546.989 104.989 547.464C104.787 547.941 104.553 548.402 104.352 548.875C104.15 549.352 104.235 549.948 104.033 550.421C103.831 550.896 103.891 551.482 103.69 551.953C103.487 552.428 102.727 552.66 102.525 553.13C102.32 553.606 102.014 554.035 101.811 554.506C101.606 554.98 101.41 555.453 101.207 555.922C101.001 556.396 101.198 557.043 100.993 557.512C100.789 557.981 100.83 558.555 100.627 559.019C100.416 559.499 100.659 560.178 100.449 560.656C100.239 561.136 99.9378 561.576 99.7283 562.054C99.5179 562.534 98.7164 562.754 98.5071 563.232C98.2967 563.712 97.9686 564.14 97.7595 564.618C97.5493 565.099 98.087 565.906 97.878 566.384C97.6679 566.865 96.3615 566.863 96.1527 567.341C95.9428 567.822 96.7034 568.726 96.4948 569.204C96.2851 569.685 95.1261 569.749 94.9178 570.227C94.7082 570.708 95.5125 571.63 95.3043 572.108C95.095 572.589 94.3592 572.838 94.1513 573.316C93.9422 573.797 94.1042 574.438 93.8966 574.916C93.6877 575.397 93.548 575.906 93.3405 576.384C93.1319 576.865 92.2936 577.071 92.0864 577.549C91.878 578.03 92.5015 578.87 92.2947 579.348C92.0865 579.83 91.4857 580.138 91.2792 580.616C91.0714 581.098 90.188 581.285 89.9818 581.763C89.7743 582.244 89.9549 582.891 89.749 583.37C89.5418 583.851 89.0016 584.187 88.7961 584.665C88.5892 585.147 88.2353 585.563 88.0302 586.042C87.8237 586.523 87.8443 587.101 87.6396 587.579C87.4335 588.061 88.1278 588.927 87.9235 589.405C87.7178 589.887 87.0889 590.185 86.8851 590.664C86.6798 591.146 85.9169 591.387 85.7135 591.866C85.5087 592.348 85.9599 593.107 85.7571 593.586C85.5527 594.068 84.716 594.28 84.5137 594.758C84.3098 595.241 84.1418 595.737 83.9401 596.215C83.7367 596.698 83.8022 597.292 83.6011 597.771C83.3983 598.253 83.8124 598.993 83.6119 599.472C83.4097 599.955 82.3276 600.066 82.1277 600.545C81.9261 601.028 82.7005 601.917 82.5014 602.396C82.3004 602.879 80.9606 602.886 80.7621 603.365C80.5618 603.848 81.3552 604.742 81.1575 605.221C80.9579 605.705 80.5728 606.109 80.3759 606.588C80.1771 607.072 79.8395 607.496 79.6434 607.975C79.4454 608.46 79.3881 608.998 79.1929 609.478C78.9957 609.963 78.0341 610.133 77.8398 610.613C77.6435 611.098 78.0011 611.805 77.8078 612.285C77.6124 612.77 77.957 613.469 77.7647 613.949C77.5703 614.435 77.1001 614.806 76.9089 615.286C76.7155 615.772 76.6162 616.291 76.4262 616.772C76.2339 617.258 75.4458 617.505 75.257 617.986C75.0659 618.472 74.5301 618.821 74.3426 619.302C74.1527 619.789 74.7765 620.591 74.5903 621.072C74.4017 621.559 74.0733 621.989 73.8886 622.47C73.7014 622.958 73.0349 623.259 72.8517 623.741C72.6659 624.229 72.8586 624.858 72.677 625.34C72.4928 625.829 72.7566 626.482 72.5768 626.964C72.3942 627.454 72.2075 627.936 72.0295 628.419C71.8486 628.909 70.7789 629.068 70.6027 629.551C70.4224 630.046 71.1185 630.855 70.9432 631.342C70.765 631.837 69.772 632.035 69.5991 632.523C69.4232 633.018 69.2592 633.515 69.0888 634.003C68.9154 634.499 68.6684 634.967 68.5008 635.455C68.33 635.952 68.2529 636.478 68.0882 636.966C67.9202 637.464 68.3512 638.157 68.1896 638.645C68.0247 639.143 67.8323 639.625 67.6742 640.114C67.5126 640.613 66.531 640.844 66.3765 641.333C66.2185 641.833 66.0853 642.339 65.9349 642.828C65.7808 643.329 66.3164 644.035 66.1704 644.525C66.0204 645.028 66.0937 645.587 65.9524 646.077C65.8068 646.583 65.582 647.054 65.4457 647.546C65.3052 648.054 64.3248 648.327 64.1943 648.82C64.0595 649.329 63.9596 649.847 63.8357 650.341C63.7072 650.853 64.2292 651.519 64.1125 652.014C63.9918 652.527 63.1916 652.881 63.0838 653.376C62.9712 653.893 63.5623 654.551 63.464 655.048C63.3611 655.568 62.7972 655.993 62.7102 656.491C62.6191 657.014 63.041 657.609 62.9676 658.107C62.8898 658.634 63.2035 659.189 63.1459 659.688C63.085 660.216 63.1506 660.719 63.1126 661.217C63.0721 661.749 62.8322 661.83 62.8184 662.326C63.3332 662.326 63.4698 662.147 63.9924 662.147C64.5074 662.147 65.0261 662.616 65.5485 662.616C66.0606 662.616 66.5763 662.454 67.0953 662.454C67.6078 662.454 68.1236 663.12 68.6426 663.12C69.1554 663.12 69.6713 663.317 70.1903 663.317C70.7035 663.317 71.2195 662.856 71.7386 662.856C72.2519 662.856 72.7682 663.243 73.2872 663.243C73.8009 663.243 74.3172 662.467 74.8363 662.467C75.3502 662.467 75.8667 662.143 76.3857 662.143C76.8999 662.143 77.4166 663.09 77.9356 663.09C78.45 663.09 78.9668 662.696 79.4858 662.696C80.0005 662.696 80.5174 663.288 81.0365 663.288C81.5513 663.288 82.0683 663.221 82.5874 663.221C83.1025 663.221 83.6196 663.225 84.1388 663.225C84.654 663.225 85.1713 662.634 85.6904 662.634C86.2059 662.634 86.7232 662.155 87.2424 662.155C87.7581 662.155 88.2755 663.353 88.7947 663.353C89.3105 663.353 89.8281 662.215 90.3473 662.215C90.8633 662.215 91.381 662.833 91.9002 662.833C92.4164 662.833 92.9341 662.374 93.4534 662.374C93.9697 662.374 94.4876 663.183 95.0068 663.183C95.5233 663.183 96.0413 663.044 96.5605 663.044C97.0772 663.044 97.5952 662.495 98.1145 662.495C98.6314 662.495 99.1494 662.261 99.6688 662.261C100.186 662.261 100.704 662.288 101.223 662.288C101.74 662.288 102.259 662.127 102.778 662.127C103.295 662.127 103.814 662.205 104.333 662.205C104.85 662.205 105.369 662.755 105.888 662.755C106.406 662.755 106.924 662.397 107.443 662.397C107.959 662.397 108.476 663.131 108.994 663.131C109.511 663.131 110.028 663.056 110.546 663.056C111.062 663.056 111.58 662.838 112.098 662.838C112.615 662.838 113.132 663.216 113.65 663.216C114.167 663.216 114.685 662.269 115.204 662.269C115.721 662.269 116.239 662.87 116.757 662.87C117.275 662.87 117.793 663.328 118.311 663.328C118.829 663.328 119.347 662.349 119.866 662.349C120.384 662.349 120.902 662.216 121.421 662.216C121.939 662.216 122.457 663.351 122.976 663.351C123.495 663.351 124.013 663.352 124.532 663.352C125.05 663.352 125.568 662.244 126.087 662.244C126.605 662.244 127.123 663.029 127.642 663.029C128.16 663.029 128.679 663.049 129.198 663.049C129.717 663.049 130.236 662.126 130.755 662.126C131.274 662.126 131.793 662.69 132.313 662.69C132.832 662.69 133.352 662.146 133.871 662.146C134.391 662.146 134.911 663.146 135.431 663.146C135.951 663.146 136.471 662.246 136.991 662.246C137.511 662.246 138.031 662.894 138.552 662.894C139.072 662.894 139.593 663.286 140.113 663.286C140.634 663.286 141.155 662.271 141.675 662.271C142.195 662.271 142.715 663.371 143.235 663.371C143.756 663.371 144.276 662.219 144.796 662.219C145.316 662.219 145.836 663.037 146.356 663.037C146.877 663.037 147.397 662.071 147.917 662.071C148.437 662.071 148.958 662.269 149.478 662.269C149.998 662.269 150.519 662.499 151.039 662.499C151.56 662.499 152.08 662.402 152.6 662.402C153.121 662.402 153.642 662.398 154.162 662.398C154.683 662.398 155.203 662.625 155.723 662.625C156.245 662.625 156.765 662.341 157.285 662.341C157.807 662.341 158.327 662.882 158.847 662.882C159.369 662.882 159.889 662.541 160.409 662.541C160.931 662.541 161.452 663.115 161.972 663.115C162.493 663.115 163.014 662.165 163.534 662.165C164.056 662.165 164.577 662.71 165.097 662.71C165.618 662.71 166.139 663.211 166.659 663.211C167.181 663.211 167.702 662.742 168.222 662.742C168.744 662.742 169.265 662.445 169.784 662.445C170.306 662.445 170.827 662.921 171.347 662.921C171.869 662.921 172.39 663.279 172.91 663.279C173.432 663.279 173.953 662.472 174.473 662.472C174.995 662.472 175.516 662.074 176.035 662.074C176.558 662.074 177.079 663.268 177.598 663.268C178.121 663.268 178.641 663.107 179.161 663.107C179.683 663.107 180.204 662.641 180.724 662.641C181.246 662.641 181.767 663.031 182.286 663.031C182.809 663.031 183.33 662.957 183.849 662.957C184.371 662.957 184.892 663.226 185.411 663.226C185.934 663.226 186.455 662.832 186.974 662.832C187.496 662.832 188.017 663.209 188.536 663.209C189.058 663.209 189.579 663.332 190.098 663.332C190.62 663.332 191.141 662.262 191.66 662.262C192.182 662.262 192.703 662.388 193.221 662.388C193.744 662.388 194.265 662.078 194.783 662.078C195.306 662.078 195.826 662.446 196.344 662.446C196.867 662.446 197.387 662.651 197.905 662.651C198.428 662.651 198.948 662.981 199.466 662.981C199.989 662.981 200.509 662.318 201.026 662.318C201.549 662.318 202.069 662.375 202.586 662.375C203.109 662.375 203.629 663.002 204.146 663.002C204.669 663.002 205.188 662.178 205.705 662.178C206.228 662.178 206.747 663.117 207.264 663.117C207.787 663.117 208.306 662.075 208.822 662.075C209.345 662.075 209.864 662.773 210.38 662.773C210.903 662.773 211.422 663.159 211.937 663.159C212.46 663.159 212.979 662.543 213.494 662.543C214.017 662.543 214.535 663.231 215.05 663.231C215.573 663.231 216.091 662.089 216.605 662.089C217.128 662.089 217.646 663.14 218.159 663.14C218.683 663.14 219.201 663.358 219.713 663.358C220.236 663.358 220.754 663.204 221.266 663.204C221.79 663.204 222.307 662.581 222.819 662.581C223.343 662.581 223.861 662.819 224.373 662.819C224.898 662.819 225.416 662.783 225.927 662.783C226.454 662.783 226.972 662.553 227.482 662.553C228.009 662.553 228.528 662.625 229.038 662.625C229.565 662.625 230.084 663.349 230.593 663.349C231.121 663.349 231.639 662.75 232.147 662.75C232.676 662.75 233.194 662.523 233.7 662.523C234.231 662.523 234.748 662.089 235.252 662.089C235.784 662.089 236.302 662.817 236.804 662.817C237.341 662.817 237.86 662.715 238.361 662.715C238.901 662.715 239.42 662.861 239.918 662.861C240.462 662.861 240.979 662.058 241.47 662.058C242.021 662.058 242.539 662.254 243.021 662.254C243.585 662.254 244.1 662.325 244.566 662.325C245.166 662.325 245.683 663.028 246.114 663.028C247.125 663.028 247.07 663.22 247.696 662.767C248.318 662.316 247.937 662.243 248.204 661.269C248.317 660.858 248.009 660.248 248.155 659.671C248.269 659.223 248.668 658.796 248.797 658.25C248.908 657.785 248.796 657.234 248.915 656.699C249.02 656.224 249.64 655.832 249.75 655.303C249.85 654.821 249.39 654.205 249.493 653.68C249.588 653.194 250.361 652.818 250.457 652.295C250.547 651.806 250.186 651.218 250.276 650.696C250.361 650.204 251.073 649.8 251.157 649.28C251.238 648.785 250.984 648.221 251.063 647.701C251.138 647.204 251.214 646.694 251.288 646.175C251.359 645.676 251.857 645.222 251.926 644.702C251.992 644.202 251.844 643.66 251.908 643.14C251.97 642.638 252.051 642.127 252.11 641.608C252.167 641.105 252.146 640.582 252.2 640.063C252.253 639.56 251.983 639.015 252.033 638.496C252.081 637.992 251.615 637.435 251.661 636.917C251.705 636.411 252.679 635.977 252.72 635.459C252.76 634.953 251.692 634.359 251.729 633.84C251.765 633.336 252.374 632.866 252.406 632.35C252.438 631.844 252.062 631.31 252.09 630.793C252.118 630.286 252.533 629.795 252.557 629.277C252.581 628.768 252.102 628.236 252.122 627.717C252.142 627.208 252.245 626.701 252.261 626.181C252.276 625.671 252.627 625.168 252.639 624.649C252.65 624.141 252.873 623.634 252.881 623.117C252.888 622.608 252.31 622.09 252.314 621.572C252.318 621.061 252.334 620.55 252.334 620.031C252.333 619.519 252.774 619.003 252.769 618.483C252.765 617.972 252.289 617.466 252.281 616.948C252.273 616.435 253.142 615.901 253.13 615.381C253.118 614.867 253.002 614.351 252.986 613.831C252.97 613.306 253.046 612.78 253.029 612.259C253.012 611.735 252.251 611.237 252.233 610.717C252.215 610.193 252.28 609.668 252.26 609.149C252.241 608.624 252.875 608.078 252.855 607.558C252.834 607.034 253.126 606.499 253.105 605.98C253.084 605.456 252.437 604.96 252.416 604.44C252.394 603.917 251.772 603.421 251.75 602.902C251.727 602.379 252.463 601.825 252.44 601.306C252.417 600.783 252.006 600.279 251.983 599.76C251.96 599.235 251.584 598.729 251.56 598.207C251.536 597.683 252.658 597.108 252.634 596.587C252.609 596.064 252.189 595.56 252.165 595.039C252.141 594.516 251.346 594.03 251.322 593.509C251.297 592.987 251.321 592.463 251.297 591.942C251.273 591.42 252.079 590.861 252.055 590.341C252.032 589.819 252.275 589.286 252.252 588.766C252.228 588.244 251.586 587.75 251.563 587.229C251.54 586.708 251.206 586.2 251.183 585.68C251.161 585.159 251.57 584.62 251.548 584.1C251.526 583.58 251.564 583.057 251.543 582.538C251.522 582.018 252.007 581.479 251.987 580.96C251.967 580.441 251.673 579.933 251.654 579.414C251.635 578.895 250.727 578.407 250.71 577.888C250.692 577.37 251.228 576.832 251.212 576.313C251.196 575.796 250.954 575.284 250.939 574.765C250.925 574.247 250.763 573.732 250.75 573.213C250.737 572.696 251.071 572.169 251.06 571.65C251.049 571.131 251.494 570.602 251.485 570.081C251.475 569.562 250.97 569.052 250.962 568.53C250.955 568.012 251.35 567.487 251.344 566.965C251.338 566.447 250.801 565.932 250.797 565.41C250.793 564.892 251.189 564.369 251.188 563.848C251.186 563.329 250.532 562.809 250.532 562.287C250.532 561.769 251.528 561.251 251.531 560.729C251.533 560.213 251.3 559.695 251.305 559.176C251.31 558.659 251.411 558.144 251.418 557.624C251.425 557.108 250.796 556.58 250.805 556.059C250.815 555.543 250.688 555.02 250.7 554.499C250.711 553.983 250.84 553.465 250.854 552.944C250.868 552.427 250.752 551.903 250.769 551.382C250.785 550.865 251.177 550.357 251.196 549.835C251.215 549.318 251.822 548.823 251.843 548.3C251.864 547.783 251.596 547.253 251.619 546.73C251.643 546.212 251.806 545.701 251.832 545.178C251.858 544.66 251.633 544.128 251.662 543.604C251.69 543.086 251.806 542.572 251.837 542.048C251.868 541.53 251.479 540.983 251.512 540.459C251.545 539.941 251.907 539.441 251.943 538.917C251.978 538.402 251.259 537.828 251.296 537.307C251.334 536.79 251.517 536.28 251.558 535.757C251.597 535.24 252.147 534.759 252.19 534.236C252.232 533.718 252.295 533.198 252.34 532.674C252.385 532.158 251.854 531.588 251.901 531.066C251.947 530.548 252.516 530.074 252.565 529.55C252.614 529.033 252.099 528.457 252.15 527.934C252.202 527.411 253.424 527.003 253.478 526.474C253.53 525.969 253.454 525.44 253.504 524.92C253.553 524.414 253.743 523.911 253.79 523.392C253.836 522.885 253.474 522.333 253.519 521.814C253.562 521.306 253.37 520.773 253.412 520.254C253.453 519.745 252.969 519.192 253.009 518.673C253.048 518.164 253.009 517.647 253.046 517.128C253.083 516.619 254.237 516.183 254.272 515.665C254.307 515.155 254.198 514.629 254.231 514.111C254.264 513.601 254.475 513.096 254.506 512.578C254.537 512.067 254.113 511.524 254.143 511.006C254.172 510.495 254.663 510.005 254.691 509.487C254.718 508.975 253.765 508.41 253.791 507.892C253.817 507.38 254.473 506.896 254.498 506.378C254.522 505.866 254.69 505.356 254.713 504.839C254.735 504.326 254.229 503.788 254.25 503.271C254.27 502.761 254.741 502.266 254.76 501.751C254.779 501.24 255.024 500.734 255.042 500.219C255.06 499.708 255.02 499.192 255.036 498.677C255.053 498.165 255.061 497.65 255.076 497.135C255.091 496.623 254.491 496.092 254.505 495.576C254.518 495.064 254.43 494.548 254.442 494.033C254.454 493.52 254.551 493.009 254.562 492.493C254.573 491.98 255.153 491.477 255.162 490.961C255.172 490.448 254.385 489.92 254.393 489.404C254.401 488.89 254.933 488.383 254.94 487.867C254.947 487.354 254.759 486.836 254.764 486.32C254.77 485.806 254.793 485.291 254.797 484.775C254.801 484.261 254.301 483.743 254.303 483.227C254.306 482.712 255.336 482.201 255.337 481.685C255.338 481.172 254.824 480.656 254.824 480.141C254.824 479.628 254.312 479.115 254.31 478.6C254.309 478.086 255.314 477.567 255.312 477.052C255.309 476.537 254.971 476.024 254.967 475.508C254.963 474.993 254.902 474.478 254.897 473.962C254.892 473.447 254.778 472.933 254.771 472.417C254.764 471.902 254.731 471.386 254.723 470.87C254.715 470.354 255.345 469.827 255.336 469.311C255.326 468.795 254.758 468.289 254.747 467.772C254.736 467.256 254.194 466.752 254.182 466.236C254.17 465.719 255.144 465.178 255.131 464.662C255.117 464.145 254.295 463.651 254.28 463.134C254.265 462.617 254.641 462.089 254.625 461.572C254.608 461.055 254.787 460.531 254.769 460.014C254.75 459.497 254.566 458.986 254.546 458.469C254.527 457.951 254.51 457.434 254.489 456.917C254.468 456.4 254.083 455.898 254.06 455.382C254.037 454.864 254.201 454.339 254.177 453.823C254.152 453.305 253.795 452.805 253.769 452.288C253.743 451.77 253.64 451.259 253.613 450.742C253.585 450.225 254.16 449.675 254.131 449.158C254.101 448.64 254.613 448.09 254.582 447.574C254.551 447.056 253.328 446.613 253.295 446.097C253.262 445.579 253.605 445.039 253.571 444.523C253.536 444.005 253.66 443.478 253.623 442.963C253.587 442.445 253.374 441.941 253.335 441.426C253.296 440.908 253.605 440.365 253.565 439.85C253.524 439.332 253.726 438.795 253.683 438.281C253.64 437.763 252.573 437.335 252.528 436.82C252.483 436.303 253.105 435.729 253.058 435.215C253.011 434.698 253.28 434.152 253.231 433.638C253.181 433.121 252.122 432.706 252.07 432.193C252.018 431.676 252.023 431.158 251.969 430.646C251.915 430.129 252.292 429.57 252.235 429.058C252.178 428.542 252.702 427.961 252.643 427.45C252.583 426.934 251.534 426.538 251.472 426.028C251.409 425.512 252.252 424.887 252.187 424.377C252.122 423.862 251.608 423.407 251.54 422.898C251.472 422.383 252.053 421.781 251.982 421.273C251.911 420.758 250.687 420.413 250.613 419.905C250.538 419.391 250.927 418.814 250.85 418.307C250.771 417.794 250.194 417.366 250.113 416.861C250.031 416.348 250.038 415.83 249.953 415.326C249.866 414.814 250.166 414.242 250.077 413.739C249.986 413.228 249.863 412.729 249.769 412.227C249.674 411.715 249.996 411.128 249.897 410.627C249.797 410.117 249.544 409.641 249.441 409.141C249.334 408.63 248.687 408.242 248.578 407.742C248.466 407.233 248.887 406.611 248.771 406.114C248.653 405.606 249.061 404.974 248.939 404.48C248.815 403.974 247.52 403.773 247.392 403.282C247.259 402.777 248.136 402.007 247.999 401.518C247.858 401.014 246.8 400.786 246.655 400.3C246.505 399.799 247.052 399.094 246.897 398.612C246.737 398.113 246.598 397.611 246.433 397.133C246.261 396.639 246.15 396.125 245.973 395.655C245.788 395.165 245.249 394.841 245.059 394.377Z" fill="white"/>
<path d="M298.213 402.111L293.879 448.517L247.351 405.39C239.144 397.783 241.824 383.859 252.46 380.403C254.307 379.802 256.277 379.488 258.352 379.589C271.537 380.226 298.213 402.111 298.213 402.111Z" fill="white" stroke="#003649" stroke-linecap="round" stroke-linejoin="round"/>
<path d="M298.213 402.111L302.547 448.517L349.075 405.39C357.282 397.783 354.602 383.859 343.967 380.403C342.119 379.802 340.149 379.488 338.074 379.589C324.89 380.226 298.213 402.111 298.213 402.111Z" fill="white" stroke="#003649" stroke-linecap="round" stroke-linejoin="round"/>
<path d="M465.555 180.767L558.44 220.096" stroke="#003649" stroke-miterlimit="10"/>
<path d="M298.212 465.675C300.223 465.675 301.854 464.042 301.854 462.027C301.854 460.012 300.223 458.379 298.212 458.379C296.201 458.379 294.57 460.012 294.57 462.027C294.57 464.042 296.201 465.675 298.212 465.675Z" fill="#00384A"/>
<path d="M298.212 478.354C300.223 478.354 301.854 476.72 301.854 474.705C301.854 472.691 300.223 471.057 298.212 471.057C296.201 471.057 294.57 472.691 294.57 474.705C294.57 476.72 296.201 478.354 298.212 478.354Z" fill="#00384A"/>
<path d="M298.212 491.032C300.223 491.032 301.854 489.398 301.854 487.384C301.854 485.369 300.223 483.735 298.212 483.735C296.201 483.735 294.57 485.369 294.57 487.384C294.57 489.398 296.201 491.032 298.212 491.032Z" fill="#00384A"/>
<path d="M178.201 665.622L198.166 512.844" stroke="#003649" stroke-linecap="round" stroke-linejoin="round"/>
<path d="M452.193 89.3971C455.128 83.7566 462.071 81.5671 467.701 84.5067C473.332 87.4462 475.517 94.4017 472.583 100.042" stroke="#010101" stroke-miterlimit="10"/>
<path d="M518.738 80.6645C522.733 80.6645 525.971 77.4207 525.971 73.4192C525.971 69.4178 522.733 66.174 518.738 66.174C514.744 66.174 511.506 69.4178 511.506 73.4192C511.506 77.4207 514.744 80.6645 518.738 80.6645Z" stroke="#010101" stroke-miterlimit="10"/>
<path d="M543.633 98.8667C547.627 98.8667 550.865 95.6228 550.865 91.6214C550.865 87.6199 547.627 84.3761 543.633 84.3761C539.638 84.3761 536.4 87.6199 536.4 91.6214C536.4 95.6228 539.638 98.8667 543.633 98.8667Z" stroke="#010101" stroke-miterlimit="10"/>
<path d="M558.527 111.017C561.936 111.017 564.7 108.248 564.7 104.833C564.7 101.417 561.936 98.6483 558.527 98.6483C555.117 98.6483 552.354 101.417 552.354 104.833C552.354 108.248 555.117 111.017 558.527 111.017Z" stroke="#010101" stroke-miterlimit="10"/>
<path d="M573.853 120.1C577.262 120.1 580.026 117.331 580.026 113.915C580.026 110.5 577.262 107.731 573.853 107.731C570.444 107.731 567.68 110.5 567.68 113.915C567.68 117.331 570.444 120.1 573.853 120.1Z" stroke="#010101" stroke-miterlimit="10"/>
<path d="M550.68 93.3773L569.288 47.2017" stroke="#010101" stroke-miterlimit="10" stroke-linecap="round"/>
<path d="M564.549 106.288L583.157 60.1128" stroke="#010101" stroke-miterlimit="10" stroke-linecap="round"/>
<path d="M540.844 32.7638L535.547 64.1905" stroke="#010101" stroke-miterlimit="10" stroke-linecap="round"/>
</g>
<defs>
<linearGradient id="paint0_linear_13612_1015" x1="485.611" y1="46.2959" x2="628.758" y2="216.59" gradientUnits="userSpaceOnUse">
<stop offset="0.33" stop-color="#0176BC" stop-opacity="0"/>
<stop offset="1" stop-color="#0071B9"/>
</linearGradient>
<clipPath id="clip0_13612_1015">
<rect width="611" height="666" fill="white" transform="translate(0 0.28125)"/>
</clipPath>
</defs>
</svg>
