<svg width="21" height="21" viewBox="0 0 21 21" fill="none" xmlns="http://www.w3.org/2000/svg">
<mask id="mask0_15089_6080" style="mask-type:alpha" maskUnits="userSpaceOnUse" x="0" y="0" width="21" height="21">
<rect x="0.515625" y="0.96875" width="20" height="20" fill="white"/>
</mask>
<g mask="url(#mask0_15089_6080)">
<path d="M10.5566 16.8019L12.9316 14.4478L10.5566 12.0936L9.68164 12.9686L10.5775 13.8644C10.1886 13.8783 9.81011 13.8158 9.44206 13.6769C9.074 13.538 8.74414 13.3228 8.45247 13.0311C8.1747 12.7533 7.96289 12.4339 7.81706 12.0728C7.67122 11.7116 7.59831 11.3505 7.59831 10.9894C7.59831 10.7533 7.62956 10.5172 7.69206 10.2811C7.75456 10.045 7.84136 9.81581 7.95247 9.59359L7.03581 8.67692C6.7997 9.02414 6.62609 9.3922 6.51497 9.78109C6.40386 10.17 6.34831 10.5658 6.34831 10.9686C6.34831 11.4964 6.45247 12.0172 6.66081 12.5311C6.86914 13.045 7.1747 13.5033 7.57747 13.9061C7.98025 14.3089 8.43164 14.6109 8.93164 14.8123C9.43164 15.0137 9.94553 15.1214 10.4733 15.1353L9.68164 15.9269L10.5566 16.8019ZM13.9941 13.2603C14.2303 12.913 14.4039 12.545 14.515 12.1561C14.6261 11.7672 14.6816 11.3714 14.6816 10.9686C14.6816 10.4408 14.5809 9.9165 14.3796 9.39567C14.1782 8.87484 13.8761 8.41303 13.4733 8.01025C13.0705 7.60748 12.6157 7.30887 12.1087 7.11442C11.6018 6.91998 11.0844 6.82275 10.5566 6.82275L11.3483 6.01025L10.4733 5.13525L8.09831 7.48942L10.4733 9.84359L11.3483 8.96859L10.4316 8.05192C10.8066 8.05192 11.1886 8.12484 11.5775 8.27067C11.9664 8.4165 12.2997 8.62831 12.5775 8.90609C12.8553 9.18387 13.0671 9.50331 13.2129 9.86442C13.3587 10.2255 13.4316 10.5866 13.4316 10.9478C13.4316 11.1839 13.4004 11.42 13.3379 11.6561C13.2754 11.8922 13.1886 12.1214 13.0775 12.3436L13.9941 13.2603ZM10.515 19.3019C9.3715 19.3019 8.29282 19.0832 7.27893 18.6457C6.26504 18.2082 5.38074 17.6121 4.62602 16.8575C3.87143 16.1028 3.27539 15.2185 2.83789 14.2046C2.40039 13.1907 2.18164 12.1121 2.18164 10.9686C2.18164 9.81581 2.40039 8.73248 2.83789 7.71859C3.27539 6.7047 3.87143 5.82275 4.62602 5.07275C5.38074 4.32275 6.26504 3.729 7.27893 3.2915C8.29282 2.854 9.3715 2.63525 10.515 2.63525C11.6678 2.63525 12.7511 2.854 13.765 3.2915C14.7789 3.729 15.6608 4.32275 16.4108 5.07275C17.1608 5.82275 17.7546 6.7047 18.1921 7.71859C18.6296 8.73248 18.8483 9.81581 18.8483 10.9686C18.8483 12.1121 18.6296 13.1907 18.1921 14.2046C17.7546 15.2185 17.1608 16.1028 16.4108 16.8575C15.6608 17.6121 14.7789 18.2082 13.765 18.6457C12.7511 19.0832 11.6678 19.3019 10.515 19.3019ZM10.515 17.913C12.4501 17.913 14.0913 17.2371 15.4385 15.8853C16.7857 14.5335 17.4594 12.8946 17.4594 10.9686C17.4594 9.03345 16.7857 7.39227 15.4385 6.04505C14.0913 4.69782 12.4501 4.02421 10.515 4.02421C8.589 4.02421 6.95011 4.69782 5.59831 6.04505C4.2465 7.39227 3.5706 9.03345 3.5706 10.9686C3.5706 12.8946 4.2465 14.5335 5.59831 15.8853C6.95011 17.2371 8.589 17.913 10.515 17.913Z" fill="white"/>
</g>
</svg>
