<svg width="31" height="31" viewBox="0 0 31 31" fill="none" xmlns="http://www.w3.org/2000/svg">
<g id="change_circle">
<mask id="mask0_15089_38" style="mask-type:alpha" maskUnits="userSpaceOnUse" x="0" y="0" width="31" height="31">
<rect id="Bounding box" width="31" height="31" fill="white"/>
</mask>
<g mask="url(#mask0_15089_38)">
<path id="change_circle_2" d="M15.5633 24.5404L19.2445 20.8914L15.5633 17.2425L14.207 18.5987L15.5956 19.9872C14.9928 20.0088 14.4062 19.9119 13.8357 19.6966C13.2652 19.4813 12.7539 19.1477 12.3018 18.6956C11.8713 18.265 11.543 17.7699 11.3169 17.2102C11.0909 16.6504 10.9779 16.0907 10.9779 15.531C10.9779 15.165 11.0263 14.799 11.1232 14.4331C11.2201 14.0671 11.3546 13.7119 11.5268 13.3674L10.106 11.9466C9.74002 12.4848 9.47092 13.0553 9.2987 13.6581C9.12648 14.2609 9.04037 14.8744 9.04037 15.4987C9.04037 16.3168 9.20182 17.124 9.52474 17.9206C9.84766 18.7171 10.3213 19.4275 10.9456 20.0518C11.5699 20.6761 12.2695 21.1444 13.0445 21.4565C13.8195 21.7687 14.6161 21.9355 15.4341 21.957L14.207 23.1841L15.5633 24.5404ZM20.8914 19.0508C21.2574 18.5126 21.5265 17.9421 21.6987 17.3393C21.8709 16.7365 21.957 16.123 21.957 15.4987C21.957 14.6806 21.801 13.868 21.4888 13.0607C21.1767 12.2534 20.7084 11.5376 20.0841 10.9133C19.4598 10.289 18.7548 9.82613 17.969 9.52474C17.1832 9.22335 16.3813 9.07266 15.5633 9.07266L16.7904 7.81328L15.4341 6.45703L11.7529 10.106L15.4341 13.7549L16.7904 12.3987L15.3695 10.9779C15.9508 10.9779 16.5428 11.0909 17.1456 11.3169C17.7484 11.543 18.265 11.8713 18.6956 12.3018C19.1261 12.7324 19.4544 13.2275 19.6805 13.7872C19.9065 14.347 20.0195 14.9067 20.0195 15.4664C20.0195 15.8324 19.9711 16.1984 19.8742 16.5643C19.7773 16.9303 19.6428 17.2855 19.4706 17.63L20.8914 19.0508ZM15.4987 28.4154C13.7263 28.4154 12.0544 28.0763 10.4828 27.3982C8.91131 26.7201 7.54063 25.7962 6.37081 24.6266C5.20121 23.4568 4.27734 22.0861 3.59922 20.5146C2.92109 18.943 2.58203 17.2711 2.58203 15.4987C2.58203 13.7119 2.92109 12.0327 3.59922 10.4612C4.27734 8.88967 5.20121 7.52266 6.37081 6.36016C7.54063 5.19766 8.91131 4.27734 10.4828 3.59922C12.0544 2.92109 13.7263 2.58203 15.4987 2.58203C17.2855 2.58203 18.9647 2.92109 20.5362 3.59922C22.1077 4.27734 23.4747 5.19766 24.6372 6.36016C25.7997 7.52266 26.7201 8.88967 27.3982 10.4612C28.0763 12.0327 28.4154 13.7119 28.4154 15.4987C28.4154 17.2711 28.0763 18.943 27.3982 20.5146C26.7201 22.0861 25.7997 23.4568 24.6372 24.6266C23.4747 25.7962 22.1077 26.7201 20.5362 27.3982C18.9647 28.0763 17.2855 28.4154 15.4987 28.4154ZM15.4987 26.2625C18.4982 26.2625 21.042 25.2148 23.1302 23.1195C25.2184 21.0242 26.2625 18.484 26.2625 15.4987C26.2625 12.4992 25.2184 9.9554 23.1302 7.86721C21.042 5.77901 18.4982 4.73492 15.4987 4.73492C12.5134 4.73492 9.97316 5.77901 7.87787 7.86721C5.78257 9.9554 4.73492 12.4992 4.73492 15.4987C4.73492 18.484 5.78257 21.0242 7.87787 23.1195C9.97316 25.2148 12.5134 26.2625 15.4987 26.2625Z" fill="#053749"/>
</g>
</g>
</svg>
