<svg width="20" height="20" viewBox="0 0 20 20" fill="none" xmlns="http://www.w3.org/2000/svg">
<g id="check_box_outline_blank">
<mask id="mask0_14415_2321" style="mask-type:alpha" maskUnits="userSpaceOnUse" x="0" y="0" width="20" height="20">
<rect id="Bounding box" width="20" height="20" fill="#D9D9D9"/>
</mask>
<g mask="url(#mask0_14415_2321)">
<path id="check_box_outline_blank_2" d="M3.88896 17.5C3.51396 17.5 3.18868 17.3623 2.91313 17.0869C2.63771 16.8113 2.5 16.486 2.5 16.111V3.88896C2.5 3.51396 2.63771 3.18868 2.91313 2.91313C3.18868 2.63771 3.51396 2.5 3.88896 2.5H16.111C16.486 2.5 16.8113 2.63771 17.0869 2.91313C17.3623 3.18868 17.5 3.51396 17.5 3.88896V16.111C17.5 16.486 17.3623 16.8113 17.0869 17.0869C16.8113 17.3623 16.486 17.5 16.111 17.5H3.88896ZM3.88896 16.111H16.111V3.88896H3.88896V16.111Z" fill="#053749"/>
</g>
</g>
</svg>
