<svg width="136" height="135" viewBox="0 0 136 135" fill="none" xmlns="http://www.w3.org/2000/svg">
<mask id="mask0_16070_19296" style="mask-type:alpha" maskUnits="userSpaceOnUse" x="0" y="0" width="136" height="135">
<rect x="0.5" width="135" height="135" fill="currentColor"/>
</mask>
<g mask="url(#mask0_16070_19296)">
<path d="M44.375 29.3906L38.75 12.5156L46.625 9.98438L52.25 26.7188L44.375 29.3906ZM63.7812 22.5V5.625H72.2188V22.5H63.7812ZM91.625 29.3906L83.75 26.7188L89.375 9.98438L97.25 12.6562L91.625 29.3906ZM12.5938 129.375L10.9062 118.266L40.5781 113.766C41.6094 113.578 42.5234 113.133 43.3203 112.43C44.1172 111.727 44.7031 110.859 45.0781 109.828L49.8594 94.9219C50.3281 93.6094 50.3281 92.3438 49.8594 91.125C49.3906 89.9062 48.5469 88.9688 47.3281 88.3125L42.6875 102.938L32 99.5625L44.375 60.4688C44.5625 59.9062 44.6562 59.2969 44.6562 58.6406C44.6562 57.9844 44.5625 57.375 44.375 56.8125L25.5312 92.25C24.0312 94.9688 21.9453 97.1484 19.2734 98.7891C16.6016 100.43 13.7188 101.25 10.625 101.25H6.125V90H10.625C11.6562 90 12.6172 89.7422 13.5078 89.2266C14.3984 88.7109 15.0781 87.9844 15.5469 87.0469L40.4375 40.0781L47.4688 44.0156C50.9375 45.9844 53.3984 48.8203 54.8516 52.5234C56.3047 56.2266 56.4219 60 55.2031 63.8438L50.8438 77.625C54.9688 79.2188 57.9453 82.0312 59.7734 86.0625C61.6016 90.0938 61.8594 94.2188 60.5469 98.4375L55.7656 113.344C54.7344 116.344 53.0234 118.898 50.6328 121.008C48.2422 123.117 45.4531 124.406 42.2656 124.875L12.5938 129.375ZM123.406 129.375L93.7344 124.875C90.5469 124.406 87.7578 123.117 85.3672 121.008C82.9766 118.898 81.2656 116.344 80.2344 113.344L75.4531 98.4375C74.1406 94.2188 74.3984 90.0938 76.2266 86.0625C78.0547 82.0312 81.0312 79.2188 85.1562 77.625L80.7969 63.8438C79.5781 60 79.6953 56.2266 81.1484 52.5234C82.6016 48.8203 85.0625 45.9844 88.5312 44.0156L95.5625 40.0781L120.453 87.0469C120.922 87.9844 121.602 88.7109 122.492 89.2266C123.383 89.7422 124.344 90 125.375 90H129.875V101.25H125.375C122.281 101.25 119.398 100.43 116.727 98.7891C114.055 97.1484 111.969 94.9688 110.469 92.25L91.625 56.8125C91.4375 57.375 91.3438 57.9844 91.3438 58.6406C91.3438 59.2969 91.4375 59.9062 91.625 60.4688L104 99.5625L93.3125 102.938L88.6719 88.3125C87.4531 88.9688 86.6094 89.9062 86.1406 91.125C85.6719 92.3438 85.6719 93.6094 86.1406 94.9219L90.9219 109.828C91.2969 110.859 91.8828 111.727 92.6797 112.43C93.4766 113.133 94.3906 113.578 95.4219 113.766L125.094 118.266L123.406 129.375Z" fill="#EFEFEF"/>
</g>
</svg>
