<svg width="136" height="135" viewBox="0 0 136 135" fill="none" xmlns="http://www.w3.org/2000/svg">
<mask id="mask0_16070_19306" style="mask-type:alpha" maskUnits="userSpaceOnUse" x="0" y="0" width="136" height="135">
<rect x="0.5" width="135" height="135" fill="currentColor"/>
</mask>
<g mask="url(#mask0_16070_19306)">
<path d="M23 123.75V95.625C31.25 90 37.2969 84.1406 41.1406 78.0469C44.9844 71.9531 47.6094 66.5625 49.0156 61.875H34.25V50.625H46.9062C45.5938 48.5625 44.5625 46.3594 43.8125 44.0156C43.0625 41.6719 42.6875 39.1875 42.6875 36.5625C42.6875 29.5312 45.1484 23.5547 50.0703 18.6328C54.9922 13.7109 60.9688 11.25 68 11.25C75.0312 11.25 81.0078 13.7109 85.9297 18.6328C90.8516 23.5547 93.3125 29.5312 93.3125 36.5625C93.3125 39.1875 92.9375 41.6719 92.1875 44.0156C91.4375 46.3594 90.4062 48.5625 89.0938 50.625H101.75V61.875H86.9844C88.3906 66.5625 91.0156 71.9531 94.8594 78.0469C98.7031 84.1406 104.75 90 113 95.625V123.75H23ZM34.25 112.5H101.75V101.25C93.125 94.5 86.8906 87.5391 83.0469 80.3672C79.2031 73.1953 76.625 67.0312 75.3125 61.875H60.6875C59.375 67.0312 56.7969 73.1953 52.9531 80.3672C49.1094 87.5391 42.875 94.5 34.25 101.25V112.5ZM68 50.625C71.9375 50.625 75.2656 49.2656 77.9844 46.5469C80.7031 43.8281 82.0625 40.5 82.0625 36.5625C82.0625 32.625 80.7031 29.2969 77.9844 26.5781C75.2656 23.8594 71.9375 22.5 68 22.5C64.0625 22.5 60.7344 23.8594 58.0156 26.5781C55.2969 29.2969 53.9375 32.625 53.9375 36.5625C53.9375 40.5 55.2969 43.8281 58.0156 46.5469C60.7344 49.2656 64.0625 50.625 68 50.625Z" fill="#EFEFEF"/>
</g>
</svg>
