<svg width="136" height="135" viewBox="0 0 136 135" fill="none" xmlns="http://www.w3.org/2000/svg">
<mask id="mask0_16070_19286" style="mask-type:alpha" maskUnits="userSpaceOnUse" x="0" y="0" width="136" height="135">
<rect x="0.5" width="135" height="135" fill="#D9D9D9"/>
</mask>
<g mask="url(#mask0_16070_19286)">
<path d="M51.125 90C54.2188 90 56.8672 88.8984 59.0703 86.6953C61.2734 84.4922 62.375 81.8438 62.375 78.75C62.375 75.6562 61.2734 73.0078 59.0703 70.8047C56.8672 68.6016 54.2188 67.5 51.125 67.5C48.0312 67.5 45.3828 68.6016 43.1797 70.8047C40.9766 73.0078 39.875 75.6562 39.875 78.75C39.875 81.8438 40.9766 84.4922 43.1797 86.6953C45.3828 88.8984 48.0312 90 51.125 90ZM84.875 90C87.9688 90 90.6172 88.8984 92.8203 86.6953C95.0234 84.4922 96.125 81.8438 96.125 78.75C96.125 75.6562 95.0234 73.0078 92.8203 70.8047C90.6172 68.6016 87.9688 67.5 84.875 67.5C81.7812 67.5 79.1328 68.6016 76.9297 70.8047C74.7266 73.0078 73.625 75.6562 73.625 78.75C73.625 81.8438 74.7266 84.4922 76.9297 86.6953C79.1328 88.8984 81.7812 90 84.875 90ZM68 61.875C71.0938 61.875 73.7422 60.7734 75.9453 58.5703C78.1484 56.3672 79.25 53.7188 79.25 50.625C79.25 47.5312 78.1484 44.8828 75.9453 42.6797C73.7422 40.4766 71.0938 39.375 68 39.375C64.9062 39.375 62.2578 40.4766 60.0547 42.6797C57.8516 44.8828 56.75 47.5312 56.75 50.625C56.75 53.7188 57.8516 56.3672 60.0547 58.5703C62.2578 60.7734 64.9062 61.875 68 61.875ZM68 123.75C60.2188 123.75 52.9062 122.273 46.0625 119.32C39.2188 116.367 33.2656 112.359 28.2031 107.297C23.1406 102.234 19.1328 96.2812 16.1797 89.4375C13.2266 82.5938 11.75 75.2812 11.75 67.5C11.75 59.7188 13.2266 52.4062 16.1797 45.5625C19.1328 38.7188 23.1406 32.7656 28.2031 27.7031C33.2656 22.6406 39.2188 18.6328 46.0625 15.6797C52.9062 12.7266 60.2188 11.25 68 11.25C75.7812 11.25 83.0938 12.7266 89.9375 15.6797C96.7812 18.6328 102.734 22.6406 107.797 27.7031C112.859 32.7656 116.867 38.7188 119.82 45.5625C122.773 52.4062 124.25 59.7188 124.25 67.5C124.25 75.2812 122.773 82.5938 119.82 89.4375C116.867 96.2812 112.859 102.234 107.797 107.297C102.734 112.359 96.7812 116.367 89.9375 119.32C83.0938 122.273 75.7812 123.75 68 123.75ZM68 112.5C80.5625 112.5 91.2031 108.141 99.9219 99.4219C108.641 90.7031 113 80.0625 113 67.5C113 54.9375 108.641 44.2969 99.9219 35.5781C91.2031 26.8594 80.5625 22.5 68 22.5C55.4375 22.5 44.7969 26.8594 36.0781 35.5781C27.3594 44.2969 23 54.9375 23 67.5C23 80.0625 27.3594 90.7031 36.0781 99.4219C44.7969 108.141 55.4375 112.5 68 112.5Z" fill="#EFEFEF"/>
</g>
</svg>
