<svg width="95" height="96" viewBox="0 0 95 96" fill="none" xmlns="http://www.w3.org/2000/svg">
<mask id="mask0_16484_13128" style="mask-type:alpha" maskUnits="userSpaceOnUse" x="0" y="0" width="95" height="96">
<rect width="95" height="96" fill="currentColor"/>
</mask>
<g mask="url(#mask0_16484_13128)">
<path d="M33.5 56H63.5V53.9375C63.5 51.1875 62.125 48.9688 59.375 47.2812C56.625 45.5938 53 44.75 48.5 44.75C44 44.75 40.375 45.5938 37.625 47.2812C34.875 48.9688 33.5 51.1875 33.5 53.9375V56ZM48.5 41C50.5625 41 52.3281 40.2656 53.7969 38.7969C55.2656 37.3281 56 35.5625 56 33.5C56 31.4375 55.2656 29.6719 53.7969 28.2031C52.3281 26.7344 50.5625 26 48.5 26C46.4375 26 44.6719 26.7344 43.2031 28.2031C41.7344 29.6719 41 31.4375 41 33.5C41 35.5625 41.7344 37.3281 43.2031 38.7969C44.6719 40.2656 46.4375 41 48.5 41ZM11 86V18.5C11 16.4375 11.7344 14.6719 13.2031 13.2031C14.6719 11.7344 16.4375 11 18.5 11H78.5C80.5625 11 82.3281 11.7344 83.7969 13.2031C85.2656 14.6719 86 16.4375 86 18.5V63.5C86 65.5625 85.2656 67.3281 83.7969 68.7969C82.3281 70.2656 80.5625 71 78.5 71H26L11 86ZM22.8125 63.5H78.5V18.5H18.5V67.7188L22.8125 63.5Z" fill="#EFEFEF"/>
</g>
</svg>
