<svg width="33" height="32" viewBox="0 0 33 32" fill="none" xmlns="http://www.w3.org/2000/svg">
<g id="download (1) 1" clip-path="url(#clip0_15048_9787)">
<g id="layer1">
<path id="path2862" d="M11.7567 6.4457C10.5955 7.02103 9.58281 7.78522 8.73772 8.68301C9.15872 8.69112 9.58216 8.67225 10.0059 8.62463C10.4951 7.83643 11.0811 7.10358 11.7567 6.4457ZM12.7577 6.0115C13.6596 5.96896 14.5559 6.0304 15.429 6.19469C15.7303 5.92468 16.0116 5.63593 16.2741 5.33398C15.0992 5.35796 13.9125 5.57789 12.7577 6.0115ZM12.2038 6.99056C11.7379 7.44884 11.3188 7.94569 10.9477 8.47285C11.5107 8.35251 12.0706 8.17902 12.6212 7.95282L12.2038 6.99056ZM12.8571 6.70962L13.2701 7.66168C13.7769 7.40965 14.2519 7.11661 14.6949 6.79172C14.0898 6.71298 13.4749 6.68412 12.8571 6.70962ZM17.1767 5.35424C16.8969 5.71527 16.5927 6.06038 16.2647 6.38449C17.8732 6.8125 19.3784 7.58597 20.6636 8.65723C21.1404 8.08022 21.5715 7.47054 21.9561 6.83456C20.5089 5.97474 18.8684 5.46389 17.1767 5.35424ZM8.14516 9.36637C7.09343 10.6937 6.37387 12.2516 6.04109 13.9028C6.77861 14.0453 7.52864 14.1351 8.28499 14.1672C8.35999 12.4915 8.80804 10.8548 9.5788 9.37671C9.09887 9.40657 8.61951 9.40235 8.14516 9.36637ZM15.6355 6.95537C15.0094 7.48004 14.3133 7.93666 13.5522 8.31202L15.4579 12.7054C17.3054 11.8296 18.9 10.6242 20.2005 9.19237C18.8789 8.09093 17.3085 7.32554 15.6355 6.95537ZM10.4267 9.28749C9.56669 10.7756 9.06874 12.4549 8.9909 14.1808C10.9345 14.1727 12.9076 13.7909 14.8082 12.9945L12.9042 8.6052C12.0918 8.94011 11.2605 9.16629 10.4267 9.28749ZM22.5542 7.21944C22.1502 7.88613 21.696 8.5245 21.1952 9.12907C22.2719 10.1479 23.1637 11.3942 23.7892 12.8363C23.9185 13.1343 24.0345 13.4346 24.1363 13.737C24.8553 12.9971 25.5156 12.2105 26.1137 11.3823C25.2839 9.6512 24.0407 8.24199 22.5542 7.21944ZM5.92336 14.603C5.68537 16.3888 5.89695 18.2554 6.62504 20.0346C7.63902 20.146 8.66509 20.1861 9.69522 20.149C9.51881 19.8306 9.35631 19.5017 9.20855 19.1611C8.60331 17.7658 8.30252 16.3138 8.27615 14.8784C7.48325 14.8454 6.69668 14.7519 5.92336 14.603ZM20.7292 9.66305C19.3623 11.1711 17.6851 12.4394 15.7409 13.3578L17.8385 18.1935C20.0065 17.1909 21.927 15.8669 23.5692 14.3003C23.4499 13.9031 23.3059 13.5091 23.1368 13.1193C22.5544 11.7765 21.7272 10.6148 20.7292 9.66305ZM8.98117 14.8899C9.01047 16.2265 9.29484 17.5786 9.85889 18.879C10.0444 19.3066 10.2551 19.7155 10.4878 20.1055C12.7381 19.9393 14.9983 19.4096 17.1888 18.4826L15.0912 13.6469C13.0963 14.4841 11.0231 14.8841 8.98117 14.8899ZM26.4382 12.1305C25.8086 12.9687 25.1174 13.7655 24.3659 14.5119C24.857 16.4104 24.8299 18.357 24.3569 20.1815C25.2815 19.5125 26.1551 18.7906 26.9727 18.0198C27.3446 16.1039 27.1939 14.0686 26.4382 12.1305ZM6.96359 20.7816C7.8928 22.6378 9.30383 24.1136 10.9761 25.1234C12.0769 25.0352 13.1785 24.8772 14.2766 24.6461C12.6201 23.7641 11.1754 22.4734 10.1114 20.8405C9.05637 20.8972 8.00441 20.8762 6.96359 20.7816ZM23.7725 15.0818C22.1359 16.5887 20.2438 17.8687 18.1224 18.8479L19.8406 22.8091C21.1051 22.2315 22.3035 21.5693 23.4301 20.8258C23.4304 20.8248 23.4309 20.8239 23.4312 20.8229C24.057 19.0078 24.198 17.025 23.7725 15.0818ZM10.9267 20.7823C12.0657 22.397 13.6131 23.6271 15.3633 24.3928C16.6515 24.0641 17.9296 23.6322 19.19 23.0962L17.4718 19.135C15.3322 20.0411 13.1268 20.581 10.9267 20.7823ZM26.651 19.2663C25.8202 19.9888 24.9405 20.6658 24.0119 21.2904C23.4221 22.8835 22.4777 24.3476 21.2338 25.5572C23.9036 24.2372 25.794 21.9255 26.651 19.2663ZM12.1092 25.7195C14.6023 26.8442 17.5173 27.0121 20.247 25.9853C18.5442 26.0663 16.8611 25.7685 15.3169 25.1347C14.2515 25.3968 13.1805 25.5904 12.1092 25.7195ZM22.9632 21.9609C22.0578 22.511 21.111 23.0134 20.1245 23.4635L20.7931 25.0048C21.6969 24.1153 22.4273 23.0825 22.9632 21.9609ZM16.5017 24.817C17.6673 25.1775 18.8981 25.3413 20.1416 25.2898L19.473 23.7485C18.4919 24.1659 17.5008 24.5226 16.5017 24.817Z" fill="white"/>
<path id="path4005" d="M16.4992 0C11.0394 0 6.21585 2.73946 3.32812 6.91778L6.42146 8.70444C8.68358 5.58596 12.3549 3.55556 16.4992 3.55556C20.6436 3.55556 24.3149 5.58596 26.577 8.70444L29.6703 6.91778C26.7826 2.73946 21.9591 0 16.4992 0Z" fill="white"/>
<path id="path4003" d="M1.64444 10.0527C0.907054 11.8915 0.5 13.8981 0.5 15.9994C0.5 24.2306 6.72569 31.0165 14.7222 31.9016V28.315C8.69452 27.4511 4.05556 22.2648 4.05556 15.9994C4.05556 14.5455 4.30553 13.1501 4.76444 11.8527L1.64444 10.0527Z" fill="white"/>
<path id="path3918" d="M31.3551 10.0527L28.2351 11.8527C28.694 13.1501 28.944 14.5455 28.944 15.9994C28.944 22.2648 24.3051 27.4511 18.2773 28.315V31.9016C26.2739 31.0165 32.4996 24.2306 32.4996 15.9994C32.4996 13.8981 32.0925 11.8915 31.3551 10.0527Z" fill="white"/>
</g>
</g>
<defs>
<clipPath id="clip0_15048_9787">
<rect width="32" height="32" fill="white" transform="translate(0.5)"/>
</clipPath>
</defs>
</svg>
