<svg width="33" height="32" viewBox="0 0 33 32" fill="none" xmlns="http://www.w3.org/2000/svg">
<g id="captive_portal">
<mask id="mask0_14595_3520" style="mask-type:alpha" maskUnits="userSpaceOnUse" x="0" y="0" width="33" height="32">
<rect id="Bounding box" x="0.5" width="32" height="32" fill="#D9D9D9"/>
</mask>
<g mask="url(#mask0_14595_3520)">
<path id="captive_portal_2" d="M28.4346 29.8327L24.5013 25.8993V28.866H21.8346V21.3327H29.368V23.9993H26.368L30.3013 27.9327L28.4346 29.8327ZM16.5013 29.3327C14.6569 29.3327 12.9235 28.9827 11.3013 28.2827C9.67908 27.5827 8.26797 26.6327 7.06797 25.4327C5.86797 24.2327 4.91797 22.8216 4.21797 21.1993C3.51797 19.5771 3.16797 17.8438 3.16797 15.9993C3.16797 14.1549 3.51797 12.4216 4.21797 10.7993C4.91797 9.17713 5.86797 7.76602 7.06797 6.56602C8.26797 5.36602 9.67908 4.41602 11.3013 3.71602C12.9235 3.01602 14.6569 2.66602 16.5013 2.66602C18.3457 2.66602 20.0791 3.01602 21.7013 3.71602C23.3235 4.41602 24.7346 5.36602 25.9346 6.56602C27.1346 7.76602 28.0846 9.17713 28.7846 10.7993C29.4846 12.4216 29.8346 14.1549 29.8346 15.9993C29.8346 16.4438 29.8124 16.8882 29.768 17.3327C29.7235 17.7771 29.6569 18.2216 29.568 18.666H26.8346C26.9457 18.2216 27.0291 17.7771 27.0846 17.3327C27.1402 16.8882 27.168 16.4438 27.168 15.9993C27.168 15.5549 27.1402 15.1105 27.0846 14.666C27.0291 14.2216 26.9457 13.7771 26.8346 13.3327H22.3013C22.368 13.7771 22.418 14.2216 22.4513 14.666C22.4846 15.1105 22.5013 15.5549 22.5013 15.9993C22.5013 16.4438 22.4846 16.8882 22.4513 17.3327C22.418 17.7771 22.368 18.2216 22.3013 18.666H19.6346C19.7013 18.2216 19.7513 17.7771 19.7846 17.3327C19.818 16.8882 19.8346 16.4438 19.8346 15.9993C19.8346 15.5549 19.818 15.1105 19.7846 14.666C19.7513 14.2216 19.7013 13.7771 19.6346 13.3327H13.368C13.3013 13.7771 13.2513 14.2216 13.218 14.666C13.1846 15.1105 13.168 15.5549 13.168 15.9993C13.168 16.4438 13.1846 16.8882 13.218 17.3327C13.2513 17.7771 13.3013 18.2216 13.368 18.666H17.8346V21.3327H13.968C14.2346 22.2882 14.5791 23.2049 15.0013 24.0827C15.4235 24.9605 15.9235 25.7993 16.5013 26.5993C16.9457 26.5993 17.3902 26.5716 17.8346 26.516C18.2791 26.4605 18.7235 26.4105 19.168 26.366V29.0993C18.7235 29.1438 18.2791 29.1938 17.8346 29.2493C17.3902 29.3049 16.9457 29.3327 16.5013 29.3327ZM6.16797 18.666H10.7013C10.6346 18.2216 10.5846 17.7771 10.5513 17.3327C10.518 16.8882 10.5013 16.4438 10.5013 15.9993C10.5013 15.5549 10.518 15.1105 10.5513 14.666C10.5846 14.2216 10.6346 13.7771 10.7013 13.3327H6.16797C6.05686 13.7771 5.97352 14.2216 5.91797 14.666C5.86241 15.1105 5.83464 15.5549 5.83464 15.9993C5.83464 16.4438 5.86241 16.8882 5.91797 17.3327C5.97352 17.7771 6.05686 18.2216 6.16797 18.666ZM7.3013 10.666H11.2346C11.4346 9.84379 11.6846 9.03824 11.9846 8.24935C12.2846 7.46046 12.6346 6.68824 13.0346 5.93268C11.8124 6.33268 10.7124 6.93824 9.73464 7.74935C8.75686 8.56046 7.94575 9.53268 7.3013 10.666ZM13.0346 26.066C12.6346 25.3105 12.2846 24.5382 11.9846 23.7493C11.6846 22.9605 11.4346 22.1549 11.2346 21.3327H7.3013C7.94575 22.466 8.75686 23.4382 9.73464 24.2493C10.7124 25.0605 11.8124 25.666 13.0346 26.066ZM13.968 10.666H19.0346C18.768 9.71046 18.4235 8.79379 18.0013 7.91602C17.5791 7.03824 17.0791 6.19935 16.5013 5.39935C15.9235 6.19935 15.4235 7.03824 15.0013 7.91602C14.5791 8.79379 14.2346 9.71046 13.968 10.666ZM21.768 10.666H25.7013C25.0569 9.53268 24.2457 8.56046 23.268 7.74935C22.2902 6.93824 21.1902 6.33268 19.968 5.93268C20.368 6.68824 20.718 7.46046 21.018 8.24935C21.318 9.03824 21.568 9.84379 21.768 10.666Z" fill="#053749"/>
</g>
</g>
</svg>
