<svg width="33" height="32" viewBox="0 0 33 32" fill="none" xmlns="http://www.w3.org/2000/svg">
<g clip-path="url(#clip0_14595_3505)">
<path d="M11.7587 6.4457C10.5974 7.02103 9.58477 7.78522 8.73967 8.68301C9.16067 8.69112 9.58411 8.67225 10.0078 8.62463C10.497 7.83643 11.083 7.10358 11.7587 6.4457ZM12.7597 6.0115C13.6615 5.96896 14.5579 6.0304 15.431 6.19469C15.7323 5.92468 16.0136 5.63593 16.276 5.33398C15.1012 5.35796 13.9145 5.57789 12.7597 6.0115ZM12.2058 6.99056C11.7398 7.44884 11.3208 7.94569 10.9497 8.47285C11.5127 8.35251 12.0726 8.17902 12.6232 7.95282L12.2058 6.99056ZM12.859 6.70962L13.272 7.66168C13.7788 7.40965 14.2538 7.11661 14.6968 6.79172C14.0917 6.71298 13.4768 6.68412 12.859 6.70962ZM17.1787 5.35424C16.8989 5.71527 16.5947 6.06038 16.2666 6.38449C17.8752 6.8125 19.3803 7.58597 20.6655 8.65723C21.1423 8.08022 21.5735 7.47054 21.958 6.83456C20.5108 5.97474 18.8703 5.46389 17.1787 5.35424ZM8.14712 9.36637C7.09538 10.6937 6.37582 12.2516 6.04305 13.9028C6.78057 14.0453 7.5306 14.1351 8.28694 14.1672C8.36194 12.4915 8.80999 10.8548 9.58075 9.37671C9.10083 9.40657 8.62146 9.40235 8.14712 9.36637ZM15.6374 6.95537C15.0113 7.48004 14.3152 7.93666 13.5541 8.31202L15.4598 12.7054C17.3073 11.8296 18.9019 10.6242 20.2024 9.19237C18.8809 8.09093 17.3104 7.32554 15.6374 6.95537ZM10.4286 9.28749C9.56864 10.7756 9.07069 12.4549 8.99285 14.1808C10.9365 14.1727 12.9096 13.7909 14.8101 12.9945L12.9062 8.6052C12.0938 8.94011 11.2625 9.16629 10.4286 9.28749ZM22.5562 7.21944C22.1521 7.88613 21.6979 8.5245 21.1972 9.12907C22.2739 10.1479 23.1656 11.3942 23.7912 12.8363C23.9204 13.1343 24.0365 13.4346 24.1383 13.737C24.8572 12.9971 25.5175 12.2105 26.1156 11.3823C25.2858 9.6512 24.0426 8.24199 22.5562 7.21944ZM5.92532 14.603C5.68732 16.3888 5.8989 18.2554 6.62699 20.0346C7.64097 20.146 8.66704 20.1861 9.69717 20.149C9.52077 19.8306 9.35827 19.5017 9.2105 19.1611C8.60526 17.7658 8.30448 16.3138 8.2781 14.8784C7.4852 14.8454 6.69863 14.7519 5.92532 14.603ZM20.7312 9.66305C19.3643 11.1711 17.6871 12.4394 15.7428 13.3578L17.8405 18.1935C20.0084 17.1909 21.929 15.8669 23.5712 14.3003C23.4518 13.9031 23.3079 13.5091 23.1388 13.1193C22.5563 11.7765 21.7291 10.6148 20.7312 9.66305ZM8.98313 14.8899C9.01243 16.2265 9.29679 17.5786 9.86084 18.879C10.0464 19.3066 10.257 19.7155 10.4898 20.1055C12.7401 19.9393 15.0002 19.4096 17.1907 18.4826L15.0931 13.6469C13.0982 14.4841 11.025 14.8841 8.98313 14.8899ZM26.4402 12.1305C25.8106 12.9687 25.1194 13.7655 24.3678 14.5119C24.8589 16.4104 24.8318 18.357 24.3588 20.1815C25.2835 19.5125 26.1571 18.7906 26.9746 18.0198C27.3465 16.1039 27.1958 14.0686 26.4402 12.1305ZM6.96554 20.7816C7.89476 22.6378 9.30578 24.1136 10.9781 25.1234C12.0789 25.0352 13.1804 24.8772 14.2785 24.6461C12.6221 23.7641 11.1773 22.4734 10.1134 20.8405C9.05833 20.8972 8.00636 20.8762 6.96554 20.7816ZM23.7745 15.0818C22.1378 16.5887 20.2457 17.8687 18.1243 18.8479L19.8426 22.8091C21.1071 22.2315 22.3054 21.5693 23.432 20.8258C23.4324 20.8248 23.4328 20.8239 23.4332 20.8229C24.0589 19.0078 24.2 17.025 23.7745 15.0818ZM10.9287 20.7823C12.0677 22.397 13.615 23.6271 15.3652 24.3928C16.6534 24.0641 17.9315 23.6322 19.192 23.0962L17.4737 19.135C15.3342 20.0411 13.1287 20.581 10.9287 20.7823ZM26.653 19.2663C25.8222 19.9888 24.9425 20.6658 24.0138 21.2904C23.424 22.8835 22.4797 24.3476 21.2357 25.5572C23.9056 24.2372 25.796 21.9255 26.653 19.2663ZM12.1111 25.7195C14.6043 26.8442 17.5193 27.0121 20.249 25.9853C18.5461 26.0663 16.863 25.7685 15.3189 25.1347C14.2535 25.3968 13.1824 25.5904 12.1111 25.7195ZM22.9652 21.9609C22.0597 22.511 21.113 23.0134 20.1265 23.4635L20.795 25.0048C21.6989 24.1153 22.4292 23.0825 22.9652 21.9609ZM16.5036 24.817C17.6693 25.1775 18.9 25.3413 20.1435 25.2898L19.475 23.7485C18.4939 24.1659 17.5027 24.5226 16.5036 24.817Z" fill="#053749"/>
<path d="M16.4992 0C11.0394 0 6.21585 2.73946 3.32812 6.91778L6.42146 8.70444C8.68358 5.58596 12.3549 3.55556 16.4992 3.55556C20.6436 3.55556 24.3149 5.58596 26.577 8.70444L29.6703 6.91778C26.7826 2.73946 21.9591 0 16.4992 0Z" fill="#053749"/>
<path d="M1.64444 10.0532C0.907054 11.892 0.5 13.8986 0.5 15.9999C0.5 24.2311 6.72569 31.017 14.7222 31.9021V28.3154C8.69452 27.4516 4.05556 22.2653 4.05556 15.9999C4.05556 14.546 4.30553 13.1506 4.76444 11.8532L1.64444 10.0532Z" fill="#053749"/>
<path d="M31.3551 10.0532L28.2351 11.8532C28.694 13.1506 28.944 14.546 28.944 15.9999C28.944 22.2653 24.3051 27.4516 18.2773 28.3154V31.9021C26.2739 31.017 32.4996 24.2311 32.4996 15.9999C32.4996 13.8986 32.0925 11.892 31.3551 10.0532Z" fill="#053749"/>
</g>
<defs>
<clipPath id="clip0_14595_3505">
<rect width="32" height="32" fill="white" transform="translate(0.5)"/>
</clipPath>
</defs>
</svg>
