<svg width="29" height="28" viewBox="0 0 29 28" fill="none" xmlns="http://www.w3.org/2000/svg">
<g id="Group">
<path id="Vector" d="M14.4974 6.71924C10.5468 6.71924 7.27344 9.93617 7.27344 13.9432C7.27344 17.9503 10.4904 21.1672 14.4974 21.1672C18.5045 21.1672 21.7214 17.8938 21.7214 13.9432C21.7214 9.99261 18.448 6.71924 14.4974 6.71924ZM14.4974 18.5711C11.9577 18.5711 9.86956 16.4829 9.86956 13.9432C9.86956 11.4035 11.9577 9.31536 14.4974 9.31536C17.0371 9.31536 19.1253 11.4035 19.1253 13.9432C19.1253 16.4829 17.0371 18.5711 14.4974 18.5711Z" fill="#053749"/>
<path id="Vector_2" d="M22.0039 8.18694C22.9078 8.18694 23.6406 7.45417 23.6406 6.55026C23.6406 5.64634 22.9078 4.91357 22.0039 4.91357C21.1 4.91357 20.3672 5.64634 20.3672 6.55026C20.3672 7.45417 21.1 8.18694 22.0039 8.18694Z" fill="#053749"/>
<path id="Vector_3" d="M26.2354 2.31735C24.7681 0.793541 22.6799 0.00341797 20.3095 0.00341797H8.68342C3.77337 0.00341797 0.5 3.27679 0.5 8.18684V19.7565C0.5 22.1833 1.29012 24.2715 2.87037 25.7953C4.39418 27.2627 6.42593 27.9964 8.73986 27.9964H20.2531C22.6799 27.9964 24.7116 27.2062 26.179 25.7953C27.7028 24.3279 28.4929 22.2398 28.4929 19.8129V8.18684C28.4929 5.81647 27.7028 3.78472 26.2354 2.31735ZM26.0097 19.8129C26.0097 21.5625 25.3889 22.9734 24.373 23.9329C23.3571 24.8923 21.9462 25.4002 20.2531 25.4002H8.73986C7.04674 25.4002 5.6358 24.8923 4.61993 23.9329C3.60406 22.917 3.09612 21.5061 3.09612 19.7565V8.18684C3.09612 6.49372 3.60406 5.08278 4.61993 4.06691C5.57937 3.10747 7.04674 2.59954 8.73986 2.59954H20.366C22.0591 2.59954 23.47 3.10747 24.4859 4.12335C25.4453 5.13922 26.0097 6.55015 26.0097 8.18684V19.8129Z" fill="#053749"/>
</g>
</svg>
