<svg width="33" height="32" viewBox="0 0 33 32" fill="none" xmlns="http://www.w3.org/2000/svg">
<mask id="mask0_14595_3514" style="mask-type:alpha" maskUnits="userSpaceOnUse" x="0" y="0" width="33" height="32">
<rect x="0.5" width="32" height="32" fill="#D9D9D9"/>
</mask>
<g mask="url(#mask0_14595_3514)">
<path d="M16.5013 29.3327C14.6569 29.3327 12.9235 28.9827 11.3013 28.2827C9.67908 27.5827 8.26797 26.6327 7.06797 25.4327C5.86797 24.2327 4.91797 22.8216 4.21797 21.1993C3.51797 19.5771 3.16797 17.8438 3.16797 15.9993C3.16797 14.1549 3.51797 12.4216 4.21797 10.7993C4.91797 9.17713 5.86797 7.76602 7.06797 6.56602C8.26797 5.36602 9.67908 4.41602 11.3013 3.71602C12.9235 3.01602 14.6569 2.66602 16.5013 2.66602C18.3457 2.66602 20.0791 3.01602 21.7013 3.71602C23.3235 4.41602 24.7346 5.36602 25.9346 6.56602C27.1346 7.76602 28.0846 9.17713 28.7846 10.7993C29.4846 12.4216 29.8346 14.1549 29.8346 15.9993V17.9327C29.8346 19.2438 29.3846 20.3605 28.4846 21.2827C27.5846 22.2049 26.4791 22.666 25.168 22.666C24.3902 22.666 23.6569 22.4993 22.968 22.166C22.2791 21.8327 21.7013 21.3549 21.2346 20.7327C20.5902 21.3771 19.8624 21.8605 19.0513 22.1827C18.2402 22.5049 17.3902 22.666 16.5013 22.666C14.6569 22.666 13.0846 22.016 11.7846 20.716C10.4846 19.416 9.83463 17.8438 9.83463 15.9993C9.83463 14.1549 10.4846 12.5827 11.7846 11.2827C13.0846 9.98268 14.6569 9.33268 16.5013 9.33268C18.3457 9.33268 19.918 9.98268 21.218 11.2827C22.518 12.5827 23.168 14.1549 23.168 15.9993V17.9327C23.168 18.5105 23.3569 18.9993 23.7346 19.3993C24.1124 19.7993 24.5902 19.9993 25.168 19.9993C25.7457 19.9993 26.2235 19.7993 26.6013 19.3993C26.9791 18.9993 27.168 18.5105 27.168 17.9327V15.9993C27.168 13.0216 26.1346 10.4993 24.068 8.43268C22.0013 6.36602 19.4791 5.33268 16.5013 5.33268C13.5235 5.33268 11.0013 6.36602 8.93464 8.43268C6.86797 10.4993 5.83464 13.0216 5.83464 15.9993C5.83464 18.9771 6.86797 21.4993 8.93464 23.566C11.0013 25.6327 13.5235 26.666 16.5013 26.666H23.168V29.3327H16.5013ZM16.5013 19.9993C17.6124 19.9993 18.5569 19.6105 19.3346 18.8327C20.1124 18.0549 20.5013 17.1105 20.5013 15.9993C20.5013 14.8882 20.1124 13.9438 19.3346 13.166C18.5569 12.3882 17.6124 11.9993 16.5013 11.9993C15.3902 11.9993 14.4457 12.3882 13.668 13.166C12.8902 13.9438 12.5013 14.8882 12.5013 15.9993C12.5013 17.1105 12.8902 18.0549 13.668 18.8327C14.4457 19.6105 15.3902 19.9993 16.5013 19.9993Z" fill="#053749"/>
</g>
</svg>
