<svg width="34" height="33" viewBox="0 0 34 33" fill="none" xmlns="http://www.w3.org/2000/svg">
<path d="M24.5001 3.64285C21.4779 4.24007 18.7593 5.84708 16.8061 8.19084C14.853 10.5346 13.7858 13.4706 13.7858 16.5C13.7858 19.5294 14.853 22.4654 16.8061 24.8091C18.7593 27.1529 21.4779 28.7599 24.5001 29.3571M2 16.5C2 18.4698 2.38799 20.4204 3.14181 22.2402C3.89563 24.0601 5.00052 25.7137 6.3934 27.1066C7.78628 28.4995 9.43986 29.6044 11.2597 30.3582C13.0796 31.112 15.0302 31.5 17 31.5C18.9698 31.5 20.9204 31.112 22.7403 30.3582C24.5601 29.6044 26.2137 28.4995 27.6066 27.1066C28.9995 25.7137 30.1044 24.0601 30.8582 22.2402C31.612 20.4204 32 18.4698 32 16.5C32 14.5302 31.612 12.5796 30.8582 10.7597C30.1044 8.93986 28.9995 7.28627 27.6066 5.89339C26.2137 4.50052 24.5601 3.39562 22.7403 2.6418C20.9204 1.88798 18.9698 1.5 17 1.5C15.0302 1.5 13.0796 1.88798 11.2597 2.6418C9.43986 3.39562 7.78628 4.50052 6.3934 5.89339C5.00052 7.28627 3.89563 8.93986 3.14181 10.7597C2.38799 12.5796 2 14.5302 2 16.5Z" stroke="#04222F" stroke-width="2.53333" stroke-linecap="round" stroke-linejoin="round"/>
</svg>
