<svg width="22" height="22" viewBox="0 0 22 22" fill="none" xmlns="http://www.w3.org/2000/svg">
<path d="M19.0892 16.735C17.144 17.5453 14.9567 17.5496 13.0083 16.7471C11.06 15.9446 9.51025 14.401 8.70001 12.4559C7.88977 10.5107 7.88543 8.32337 8.68793 6.37503C9.49043 4.42668 11.034 2.87692 12.9792 2.06669C13.2283 1.94752 13.5858 1.81752 13.835 1.69835C11.8828 1.18983 9.81555 1.36178 7.97418 2.18585C6.77227 2.66815 5.6785 3.38507 4.75671 4.29473C3.83493 5.2044 3.1036 6.28859 2.60543 7.484C2.10727 8.67941 1.85224 9.96209 1.85525 11.2571C1.85826 12.5522 2.11924 13.8337 2.62296 15.0268C3.12667 16.2199 3.86303 17.3006 4.78903 18.206C5.71503 19.1114 6.81213 19.8232 8.01625 20.2999C9.22038 20.7766 10.5074 21.0087 11.8022 20.9825C13.097 20.9563 14.3736 20.6725 15.5575 20.1475C17.5474 19.35 19.1928 17.8772 20.205 15.9875C19.8636 16.2795 19.4891 16.5304 19.0892 16.735Z" fill="#04222F"/>
</svg>
