<svg width="37" height="36" viewBox="0 0 37 36" fill="none" xmlns="http://www.w3.org/2000/svg">
<path d="M18.5 36C13.5 36 9.25 34.25 5.75 30.75C2.25 27.25 0.5 23 0.5 18C0.5 13 2.25 8.75 5.75 5.25C9.25 1.75 13.5 0 18.5 0C18.7667 0 19.05 0.00833333 19.35 0.025C19.65 0.0416667 20.0333 0.0666667 20.5 0.1C19.3 1.16667 18.3667 2.48333 17.7 4.05C17.0333 5.61667 16.7 7.26667 16.7 9C16.7 12 17.75 14.55 19.85 16.65C21.95 18.75 24.5 19.8 27.5 19.8C29.2333 19.8 30.8833 19.4917 32.45 18.875C34.0167 18.2583 35.3333 17.4 36.4 16.3C36.4333 16.7 36.4583 17.025 36.475 17.275C36.4917 17.525 36.5 17.7667 36.5 18C36.5 23 34.75 27.25 31.25 30.75C27.75 34.25 23.5 36 18.5 36ZM18.5 33C22.1333 33 25.3 31.875 28 29.625C30.7 27.375 32.3833 24.7333 33.05 21.7C32.2167 22.0667 31.3222 22.3417 30.3665 22.525C29.4112 22.7083 28.4557 22.8 27.5 22.8C23.677 22.8 20.4213 21.4557 17.733 18.767C15.0443 16.0787 13.7 12.823 13.7 9C13.7 8.2 13.7833 7.34167 13.95 6.425C14.1167 5.50833 14.4167 4.46667 14.85 3.3C11.5833 4.2 8.875 6.025 6.725 8.775C4.575 11.525 3.5 14.6 3.5 18C3.5 22.1667 4.95833 25.7083 7.875 28.625C10.7917 31.5417 14.3333 33 18.5 33Z" fill="#1C1B1F"/>
</svg>
