<svg width="33" height="32" viewBox="0 0 33 32" fill="none" xmlns="http://www.w3.org/2000/svg">
<mask id="mask0_17335_2532" style="mask-type:alpha" maskUnits="userSpaceOnUse" x="0" y="0" width="33" height="32">
<rect x="0.523438" width="32" height="32" fill="#D9D9D9"/>
</mask>
<g mask="url(#mask0_17335_2532)">
<path d="M9.43704 28C8.82593 28 8.30282 27.7824 7.86771 27.3473C7.4326 26.912 7.21504 26.3888 7.21504 25.7777V7.33333H5.85938V5.111H12.2594V4H20.7927V5.111H27.1927V7.33333H25.837V25.7777C25.837 26.3777 25.6167 26.8981 25.176 27.339C24.7354 27.7797 24.215 28 23.615 28H9.43704ZM23.615 7.33333H9.43704V25.7777H23.615V7.33333ZM12.6817 22.9777H14.9037V10.111H12.6817V22.9777ZM18.1484 22.9777H20.3704V10.111H18.1484V22.9777Z" fill="white"/>
</g>
</svg>
