<svg width="32" height="32" viewBox="0 0 32 32" fill="none" xmlns="http://www.w3.org/2000/svg">
<mask id="mask0_14595_3074" style="mask-type:alpha" maskUnits="userSpaceOnUse" x="0" y="0" width="32" height="32">
<rect width="32" height="32" fill="#D9D9D9"/>
</mask>
<g mask="url(#mask0_14595_3074)">
<path d="M2.66797 32.0001V27.5334H29.3346V32.0001H2.66797ZM7.55697 21.7557H9.15697L21.3123 9.61108L19.7013 8.00008L7.55697 20.1557V21.7557ZM5.33464 23.9777V19.2444L21.2903 3.30008C21.505 3.08519 21.7475 2.92597 22.018 2.82241C22.2884 2.71864 22.5643 2.66675 22.8456 2.66675C23.1272 2.66675 23.4087 2.71864 23.6903 2.82241C23.9716 2.92597 24.2161 3.08886 24.4236 3.31108L26.0123 4.91108C26.2345 5.11108 26.3994 5.35186 26.507 5.63341C26.6143 5.91497 26.668 6.19642 26.668 6.47775C26.668 6.75197 26.6143 7.02419 26.507 7.29441C26.3994 7.56486 26.2345 7.81119 26.0123 8.03341L10.068 23.9777H5.33464Z" fill="#053749"/>
</g>
</svg>
