<svg width="21" height="20" viewBox="0 0 21 20" fill="none" xmlns="http://www.w3.org/2000/svg">
<mask id="mask0_14927_12478" style="mask-type:alpha" maskUnits="userSpaceOnUse" x="0" y="0" width="21" height="20">
<rect x="0.015625" width="20" height="20" fill="#D9D9D9"/>
</mask>
<g mask="url(#mask0_14927_12478)">
<path d="M1.68262 19.9993V17.2077H18.3493V19.9993H1.68262ZM4.73824 13.5966H5.73824L13.3353 6.00622L12.3285 4.99935L4.73824 12.5966V13.5966ZM3.34928 14.9854V12.0271L13.3216 2.06185C13.4557 1.92754 13.6073 1.82803 13.7764 1.76331C13.9454 1.69845 14.1178 1.66602 14.2937 1.66602C14.4696 1.66602 14.6456 1.69845 14.8216 1.76331C14.9974 1.82803 15.1502 1.92984 15.2799 2.06872L16.2728 3.06872C16.4117 3.19372 16.5148 3.34421 16.582 3.52018C16.6491 3.69615 16.6826 3.87206 16.6826 4.04789C16.6826 4.21928 16.6491 4.38942 16.582 4.55831C16.5148 4.72734 16.4117 4.88129 16.2728 5.02018L6.30762 14.9854H3.34928Z" fill="white"/>
</g>
</svg>
