<svg width="17" height="21" viewBox="0 0 17 21" fill="none" xmlns="http://www.w3.org/2000/svg">
<g id="emoji_objects">
<mask id="mask0_15066_15117" style="mask-type:alpha" maskUnits="userSpaceOnUse" x="0" y="0" width="17" height="21">
<rect id="Bounding box" x="0.499023" y="0.96875" width="16" height="20" fill="#D9D9D9"/>
</mask>
<g mask="url(#mask0_15066_15117)">
<path id="emoji_objects_2" d="M8.54069 19.3014C8.16569 19.3014 7.83583 19.2112 7.55111 19.0306C7.26638 18.85 7.08236 18.6 6.99902 18.2806H6.70736C6.37402 18.2806 6.08236 18.1556 5.83236 17.9056C5.58236 17.6556 5.45736 17.3639 5.45736 17.0306V14.0514C4.54069 13.4542 3.81847 12.6903 3.29069 11.7598C2.76291 10.8292 2.49902 9.80143 2.49902 8.67643C2.49902 6.99588 3.08583 5.56879 4.25944 4.39518C5.43305 3.22157 6.86013 2.63477 8.54069 2.63477C10.2212 2.63477 11.6483 3.22157 12.8219 4.39518C13.9956 5.56879 14.5824 6.99588 14.5824 8.67643C14.5824 9.80143 14.3185 10.8292 13.7907 11.7598C13.2629 12.6903 12.5407 13.4542 11.624 14.0514V17.0306C11.624 17.3639 11.499 17.6556 11.249 17.9056C10.999 18.1556 10.7074 18.2806 10.374 18.2806H10.0824C9.99902 18.6 9.815 18.85 9.53027 19.0306C9.24555 19.2112 8.91569 19.3014 8.54069 19.3014ZM6.70736 17.0306H10.374V16.1139H6.70736V17.0306ZM6.70736 15.2806H10.374V14.4473H6.70736V15.2806ZM6.51986 13.1973H8.06152V10.3431L6.14486 8.42643L6.79069 7.7806L8.54069 9.5306L10.2907 7.7806L10.9365 8.42643L9.01986 10.3431V13.1973H10.5615C11.3949 12.8084 12.065 12.2042 12.5719 11.3848C13.0789 10.5653 13.3324 9.66254 13.3324 8.67643C13.3324 7.32921 12.8706 6.19379 11.9469 5.27018C11.0233 4.34657 9.88791 3.88477 8.54069 3.88477C7.19347 3.88477 6.05805 4.34657 5.13444 5.27018C4.21083 6.19379 3.74902 7.32921 3.74902 8.67643C3.74902 9.66254 4.0025 10.5653 4.50944 11.3848C5.01638 12.2042 5.68652 12.8084 6.51986 13.1973Z" fill="white"/>
</g>
</g>
</svg>
