<svg width="49" height="48" viewBox="0 0 49 48" fill="none" xmlns="http://www.w3.org/2000/svg">
<mask id="mask0_14595_3189" style="mask-type:alpha" maskUnits="userSpaceOnUse" x="0" y="0" width="49" height="48">
<rect x="0.046875" width="48" height="48" fill="#D9D9D9"/>
</mask>
<g mask="url(#mask0_14595_3189)">
<path d="M24.0469 44C23.1469 44 22.3552 43.7833 21.6719 43.35C20.9885 42.9167 20.5469 42.3167 20.3469 41.55H19.6469C18.8469 41.55 18.1469 41.25 17.5469 40.65C16.9469 40.05 16.6469 39.35 16.6469 38.55V31.4C14.4469 29.9667 12.7135 28.1333 11.4469 25.9C10.1802 23.6667 9.54688 21.2 9.54688 18.5C9.54688 14.4667 10.9552 11.0417 13.7719 8.225C16.5885 5.40833 20.0135 4 24.0469 4C28.0802 4 31.5052 5.40833 34.3219 8.225C37.1385 11.0417 38.5469 14.4667 38.5469 18.5C38.5469 21.2 37.9135 23.6667 36.6469 25.9C35.3802 28.1333 33.6469 29.9667 31.4469 31.4V38.55C31.4469 39.35 31.1469 40.05 30.5469 40.65C29.9469 41.25 29.2469 41.55 28.4469 41.55H27.7469C27.5469 42.3167 27.1052 42.9167 26.4219 43.35C25.7385 43.7833 24.9469 44 24.0469 44ZM19.6469 38.55H28.4469V36.35H19.6469V38.55ZM19.6469 34.35H28.4469V32.35H19.6469V34.35ZM19.1969 29.35H22.8969V22.5L18.2969 17.9L19.8469 16.35L24.0469 20.55L28.2469 16.35L29.7969 17.9L25.1969 22.5V29.35H28.8969C30.8969 28.4167 32.5052 26.9667 33.7219 25C34.9385 23.0333 35.5469 20.8667 35.5469 18.5C35.5469 15.2667 34.4385 12.5417 32.2219 10.325C30.0052 8.10833 27.2802 7 24.0469 7C20.8135 7 18.0885 8.10833 15.8719 10.325C13.6552 12.5417 12.5469 15.2667 12.5469 18.5C12.5469 20.8667 13.1552 23.0333 14.3719 25C15.5885 26.9667 17.1969 28.4167 19.1969 29.35Z" fill="#003649"/>
</g>
</svg>
