<svg width="20" height="20" viewBox="0 0 20 20" fill="none" xmlns="http://www.w3.org/2000/svg">
<mask id="mask0_16722_7165" style="mask-type:alpha" maskUnits="userSpaceOnUse" x="0" y="0" width="20" height="20">
<rect width="20" height="20" fill="#D9D9D9"/>
</mask>
<g mask="url(#mask0_16722_7165)">
<path d="M14.7923 17.0138C13.9173 17.0138 13.1777 16.7117 12.5736 16.1075C11.9694 15.5033 11.6673 14.7638 11.6673 13.8888C11.6673 13.0138 11.9694 12.2742 12.5736 11.67C13.1777 11.0658 13.9173 10.7638 14.7923 10.7638C15.6673 10.7638 16.4069 11.0658 17.0111 11.67C17.6152 12.2742 17.9173 13.0138 17.9173 13.8888C17.9173 14.7638 17.6152 15.5033 17.0111 16.1075C16.4069 16.7117 15.6673 17.0138 14.7923 17.0138ZM14.7923 15.6248C15.2784 15.6248 15.6893 15.457 16.025 15.1213C16.3606 14.7857 16.5284 14.3749 16.5284 13.8888C16.5284 13.4026 16.3606 12.9917 16.025 12.656C15.6893 12.3204 15.2784 12.1525 14.7923 12.1525C14.3062 12.1525 13.8953 12.3204 13.5596 12.656C13.2241 12.9917 13.0563 13.4026 13.0563 13.8888C13.0563 14.3749 13.2241 14.7857 13.5596 15.1213C13.8953 15.457 14.3062 15.6248 14.7923 15.6248ZM2.77836 14.5831V13.1942H10.0007V14.5831H2.77836ZM5.20898 9.23584C4.33398 9.23584 3.5944 8.93376 2.99023 8.32959C2.38607 7.72542 2.08398 6.98584 2.08398 6.11084C2.08398 5.23584 2.38607 4.49626 2.99023 3.89209C3.5944 3.28792 4.33398 2.98584 5.20898 2.98584C6.08398 2.98584 6.82357 3.28792 7.42773 3.89209C8.0319 4.49626 8.33398 5.23584 8.33398 6.11084C8.33398 6.98584 8.0319 7.72542 7.42773 8.32959C6.82357 8.93376 6.08398 9.23584 5.20898 9.23584ZM5.20898 7.84709C5.6951 7.84709 6.106 7.67924 6.44169 7.34355C6.77725 7.00785 6.94503 6.59695 6.94503 6.11084C6.94503 5.62473 6.77725 5.21389 6.44169 4.87834C6.106 4.54264 5.6951 4.3748 5.20898 4.3748C4.72287 4.3748 4.31197 4.54264 3.97628 4.87834C3.64072 5.21389 3.47294 5.62473 3.47294 6.11084C3.47294 6.59695 3.64072 7.00785 3.97628 7.34355C4.31197 7.67924 4.72287 7.84709 5.20898 7.84709ZM10.0007 6.80542V5.41646H17.2229V6.80542H10.0007Z" fill="white"/>
</g>
</svg>
