<svg width="17" height="20" viewBox="0 0 17 20" fill="none" xmlns="http://www.w3.org/2000/svg">
<mask id="mask0_15929_10750" style="mask-type:alpha" maskUnits="userSpaceOnUse" x="0" y="0" width="17" height="20">
<rect x="0.5" width="16" height="20" fill="#D9D9D9"/>
</mask>
<g mask="url(#mask0_15929_10750)">
<path d="M6.60417 12.5007H8.72917L8.20833 9.47982C8.48611 9.35482 8.70833 9.17079 8.875 8.92773C9.04167 8.68468 9.125 8.41732 9.125 8.12565C9.125 7.72287 8.98264 7.37912 8.69792 7.0944C8.41319 6.80968 8.06944 6.66732 7.66667 6.66732C7.26389 6.66732 6.92014 6.80968 6.63542 7.0944C6.35069 7.37912 6.20833 7.72287 6.20833 8.12565C6.20833 8.41732 6.29167 8.68468 6.45833 8.92773C6.625 9.17079 6.84722 9.35482 7.125 9.47982L6.60417 12.5007ZM7.66667 18.3132C5.72222 17.827 4.125 16.6986 2.875 14.9277C1.625 13.1569 1 11.2159 1 9.10482V4.14648L7.66667 1.64648L14.3333 4.14648V9.10482C14.3333 11.2159 13.7083 13.1569 12.4583 14.9277C11.2083 16.6986 9.61111 17.827 7.66667 18.3132ZM7.66667 17.0215C9.26389 16.4937 10.566 15.4972 11.5729 14.0319C12.5799 12.5666 13.0833 10.9243 13.0833 9.10482V5.02148L7.66667 2.97982L2.25 5.02148V9.10482C2.25 10.9243 2.75347 12.5666 3.76042 14.0319C4.76736 15.4972 6.06944 16.4937 7.66667 17.0215Z" fill="#FFFFFF"/>
</g>
</svg>
