<svg width="40" height="40" viewBox="0 0 40 40" fill="none" xmlns="http://www.w3.org/2000/svg">
<path d="M18.65 30H21.65V18H18.65V30ZM19.999 14.3C20.4663 14.3 20.8583 14.1467 21.175 13.84C21.4917 13.5333 21.65 13.1533 21.65 12.7C21.65 12.2183 21.492 11.8147 21.176 11.489C20.86 11.163 20.4683 11 20.001 11C19.5337 11 19.1417 11.163 18.825 11.489C18.5083 11.8147 18.35 12.2183 18.35 12.7C18.35 13.1533 18.508 13.5333 18.824 13.84C19.14 14.1467 19.5317 14.3 19.999 14.3ZM20.0135 40C17.2555 40 14.6638 39.475 12.2385 38.425C9.81283 37.375 7.69167 35.9417 5.875 34.125C4.05833 32.3083 2.625 30.186 1.575 27.758C0.525 25.33 0 22.7357 0 19.975C0 17.2143 0.525 14.62 1.575 12.192C2.625 9.764 4.05833 7.65 5.875 5.85C7.69167 4.05 9.814 2.625 12.242 1.575C14.67 0.525 17.2643 0 20.025 0C22.7857 0 25.38 0.525 27.808 1.575C30.236 2.625 32.35 4.05 34.15 5.85C35.95 7.65 37.375 9.76667 38.425 12.2C39.475 14.6333 40 17.2288 40 19.9865C40 22.7445 39.475 25.3362 38.425 27.7615C37.375 30.1872 35.95 32.3053 34.15 34.116C32.35 35.9263 30.2333 37.3597 27.8 38.416C25.3667 39.472 22.7712 40 20.0135 40Z" fill="white"/>
</svg>
