<svg width="57" height="58" viewBox="0 0 57 58" fill="none" xmlns="http://www.w3.org/2000/svg">
<path d="M26.5878 43.168H30.8378V26.168H26.5878V43.168ZM28.4989 20.9263C29.161 20.9263 29.7163 20.7091 30.1649 20.2746C30.6135 19.8402 30.8378 19.3019 30.8378 18.6596C30.8378 17.9773 30.614 17.4054 30.1663 16.9441C29.7187 16.4822 29.1638 16.2513 28.5017 16.2513C27.8397 16.2513 27.2844 16.4822 26.8357 16.9441C26.3871 17.4054 26.1628 17.9773 26.1628 18.6596C26.1628 19.3019 26.3867 19.8402 26.8343 20.2746C27.282 20.7091 27.8369 20.9263 28.4989 20.9263ZM28.5195 57.3346C24.6123 57.3346 20.9408 56.5909 17.5049 55.1034C14.0685 53.6159 11.0635 51.5853 8.48991 49.0117C5.9163 46.4381 3.88574 43.4315 2.39824 39.9918C0.910742 36.5521 0.166992 32.8768 0.166992 28.9659C0.166992 25.0549 0.910742 21.3796 2.39824 17.94C3.88574 14.5003 5.9163 11.5055 8.48991 8.95547C11.0635 6.40547 14.0702 4.38672 17.5098 2.89922C20.9495 1.41172 24.6248 0.667969 28.5357 0.667969C32.4467 0.667969 36.122 1.41172 39.5617 2.89922C43.0013 4.38672 45.9962 6.40547 48.5462 8.95547C51.0962 11.5055 53.1149 14.5041 54.6024 17.9513C56.0899 21.3985 56.8337 25.0755 56.8337 28.9822C56.8337 32.8893 56.0899 36.5609 54.6024 39.9968C53.1149 43.4331 51.0962 46.4339 48.5462 48.999C45.9962 51.5636 42.9976 53.5942 39.5503 55.0906C36.1031 56.5866 32.4261 57.3346 28.5195 57.3346ZM28.5357 53.0846C35.2177 53.0846 40.8962 50.7353 45.5712 46.0367C50.2462 41.3381 52.5837 35.6478 52.5837 28.9659C52.5837 22.2839 50.2506 16.6055 45.5846 11.9305C40.9186 7.25547 35.2238 4.91797 28.5003 4.91797C21.842 4.91797 16.1635 7.25098 11.4649 11.917C6.7663 16.583 4.41699 22.2778 4.41699 29.0013C4.41699 35.6596 6.7663 41.3381 11.4649 46.0367C16.1635 50.7353 21.8538 53.0846 28.5357 53.0846Z" fill="#EFEFEF"/>
</svg>
