<svg width="21" height="21" viewBox="0 0 21 21" fill="none" xmlns="http://www.w3.org/2000/svg">
<g id="translate">
<mask id="mask0_15066_15156" style="mask-type:alpha" maskUnits="userSpaceOnUse" x="0" y="0" width="21" height="21">
<rect id="Bounding box" x="0.499023" y="0.96875" width="20" height="20" fill="#D9D9D9"/>
</mask>
<g mask="url(#mask0_15066_15156)">
<path id="translate_2" d="M10.3945 19.3014L14.2487 9.30143H15.8945L19.7487 19.3014H18.3945L17.457 16.8639H12.6654L11.7279 19.3014H10.3945ZM3.8737 16.7806L2.9987 15.9056L7.1862 11.7181C6.47786 10.982 5.88412 10.2355 5.40495 9.47852C4.92578 8.72157 4.5612 7.9681 4.3112 7.2181H5.66537C5.88759 7.81532 6.18967 8.4056 6.57161 8.98893C6.95356 9.57227 7.45703 10.1834 8.08203 10.8223C8.72092 10.1556 9.3112 9.33963 9.85287 8.37435C10.3945 7.40907 10.7834 6.4681 11.0195 5.55143H1.33203V4.30143H7.3737V2.63477H8.6237V4.30143H14.6654V5.55143H12.3112C12.0751 6.63477 11.648 7.7424 11.0299 8.87435C10.4119 10.0063 9.72092 10.9612 8.95703 11.7389L11.082 13.9056L10.582 15.2181L8.0612 12.6139L3.8737 16.7806ZM13.1029 15.7181H17.0195L15.0612 10.5514L13.1029 15.7181Z" fill="white"/>
</g>
</g>
</svg>
