<svg width="66" height="25" viewBox="0 0 66 25" fill="none" xmlns="http://www.w3.org/2000/svg">
<g clip-path="url(#clip0_387_807)">
<rect x="1.80054" y="1.06252" width="63.375" height="22.2083" rx="11.1042" stroke="#F5F5F5" stroke-width="1.625"/>
<g clip-path="url(#clip1_387_807)">
<path d="M33.488 20.8334H31.928C31.7727 20.8424 31.6193 20.7963 31.4946 20.7034C31.3857 20.6131 31.3002 20.4979 31.2455 20.3675L30.238 17.5834H24.8213L23.738 20.335C23.6863 20.4612 23.6044 20.5728 23.4996 20.66C23.3789 20.7625 23.2245 20.8165 23.0663 20.8117H21.5713L26.5005 8.38585H28.548L33.488 20.8334ZM29.6638 16.1642L27.9521 11.625C27.7863 11.1855 27.6453 10.737 27.5296 10.2817C27.4646 10.5489 27.396 10.7981 27.3238 11.0292L27.118 11.6359L25.4063 16.175L29.6638 16.1642ZM22.8388 14.4525C21.7303 14.0722 20.6718 13.5593 19.6863 12.925C21.2047 11.2942 22.2562 9.28474 22.7305 7.10752H24.8213V5.66669H19.7405C19.6834 5.45937 19.611 5.25659 19.5238 5.06002C19.2638 4.35585 18.9713 3.50002 18.9713 3.50002L17.3788 4.04169C17.3788 4.04169 17.8121 5.00585 18.0288 5.66669H11.8213V7.10752H14.1505C14.6252 9.29367 15.6935 11.3066 17.238 12.925C15.5641 13.9652 13.7358 14.7331 11.8213 15.2C12.2257 15.7922 12.5399 16.2906 12.7638 16.695C14.7546 16.0276 16.6543 15.1141 18.4188 13.9759C19.6175 14.7765 20.9136 15.4209 22.2755 15.8934L22.8388 14.4525ZM15.7538 7.10752H21.073C20.7273 8.95723 19.7969 10.6471 18.4188 11.9284C17.0909 10.6069 16.1666 8.93483 15.7538 7.10752Z" fill="#F5F5F5"/>
</g>
</g>
<defs>
<clipPath id="clip0_387_807">
<rect width="65" height="23.8333" fill="white" transform="translate(0.988037 0.250021)"/>
</clipPath>
<clipPath id="clip1_387_807">
<rect width="21.6667" height="21.6667" fill="white" transform="translate(11.8213 1.33337)"/>
</clipPath>
</defs>
</svg>
