<svg width="20" height="20" viewBox="0 0 20 20" fill="none" xmlns="http://www.w3.org/2000/svg">
<g id="translate">
<mask id="mask0_14858_9197" style="mask-type:alpha" maskUnits="userSpaceOnUse" x="0" y="0" width="21" height="20">
<rect id="Bounding box" x="0.0078125" width="20" height="20" fill="#D9D9D9"/>
</mask>
<g mask="url(#mask0_14858_9197)">
<path id="translate_2" d="M9.9043 18.3332L13.7585 8.33317H15.4043L19.2585 18.3332H17.9043L16.9668 15.8957H12.1751L11.2376 18.3332H9.9043ZM3.38346 15.8123L2.50846 14.9373L6.69596 10.7498C5.98763 10.0137 5.39388 9.2672 4.91471 8.51025C4.43555 7.75331 4.07096 6.99984 3.82096 6.24984H5.17513C5.39735 6.84706 5.69944 7.43734 6.08138 8.02067C6.46333 8.604 6.9668 9.21511 7.5918 9.854C8.23069 9.18734 8.82096 8.37137 9.36263 7.40609C9.9043 6.44081 10.2932 5.49984 10.5293 4.58317H0.841797V3.33317H6.88346V1.6665H8.13346V3.33317H14.1751V4.58317H11.821C11.5849 5.6665 11.1578 6.77414 10.5397 7.90609C9.92166 9.03803 9.23069 9.99289 8.4668 10.7707L10.5918 12.9373L10.0918 14.2498L7.57096 11.6457L3.38346 15.8123ZM12.6126 14.7498H16.5293L14.571 9.58317L12.6126 14.7498Z" fill="#053749"/>
</g>
</g>
</svg>
