<svg width="77" height="72" viewBox="0 0 77 72" fill="none" xmlns="http://www.w3.org/2000/svg">
<g clip-path="url(#clip0_14264_3235)">
<path d="M61.3134 60.4263L61.0931 60.9124C58.5334 66.5614 53.2728 70.6547 46.9972 71.8803L46.8833 71.9026C45.5628 72.1605 44.1899 71.9013 43.0685 71.1824L3.33789 45.7135L29.8986 23.9508L58.3183 6.03564L76.5539 45.0582C77.1244 46.279 77.1481 47.6719 76.6195 48.9101C73.9859 55.0789 68.1692 59.4553 61.3134 60.4263Z" fill="#010101"/>
<path d="M23.1844 43.5007C30.9432 37.9125 33.9494 29.1598 29.8992 23.9511C25.8489 18.7424 16.2759 19.0501 8.51714 24.6383C0.758431 30.2266 -2.24786 38.9793 1.8024 44.188C5.85266 49.3967 15.4257 49.089 23.1844 43.5007Z" fill="#A58088"/>
<path d="M51.2821 23.2634C59.0408 17.6751 62.0471 8.92246 57.9968 3.71375C53.9466 -1.49495 44.3735 -1.18724 36.6148 4.40104C28.8561 9.98933 25.8498 18.742 29.9001 23.9507C33.9503 29.1594 43.5234 28.8517 51.2821 23.2634Z" fill="#A58088"/>
<path d="M36.9843 9.45588C36.9005 9.45588 36.8164 9.42802 36.748 9.37104C36.5971 9.24534 36.5805 9.02568 36.7112 8.88037C39.5979 5.66906 43.5992 3.90635 47.6857 4.04632C50.7445 4.15047 53.378 5.34088 54.911 7.31238C55.0306 7.46613 54.998 7.68414 54.8382 7.79926C54.6785 7.91448 54.4521 7.88312 54.3323 7.72918C52.931 5.92725 50.4991 4.83828 47.6601 4.7416C43.792 4.60901 40.0007 6.28436 37.2579 9.33561C37.1864 9.41511 37.0857 9.45588 36.9843 9.45588Z" fill="white"/>
<path d="M7.84559 29.9043C7.7763 29.9043 7.70621 29.8852 7.64438 29.8453C7.47868 29.7381 7.4345 29.5221 7.54575 29.3625C10.0052 25.8371 13.753 23.6201 17.8281 23.2798C20.8767 23.0251 23.6417 23.8986 25.4124 25.6761C25.5506 25.8147 25.5457 26.035 25.4016 26.168C25.2577 26.3008 25.0288 26.2963 24.8906 26.1576C23.2721 24.533 20.7208 23.7363 17.8905 23.973C14.0345 24.2949 10.4828 26.4007 8.14603 29.7504C8.07624 29.8503 7.96197 29.9043 7.84559 29.9043Z" fill="white"/>
<path d="M4.84516 38.1017C4.68823 38.1017 4.5437 38.0025 4.49801 37.85C3.8952 35.8359 4.3432 33.551 5.66713 31.8869C5.78845 31.7345 6.01528 31.7053 6.17392 31.8221C6.33246 31.939 6.36252 32.1573 6.24119 32.3099C5.05383 33.8022 4.65212 35.8512 5.1927 37.6574C5.24797 37.8421 5.13723 38.0348 4.94541 38.088C4.91202 38.0972 4.87834 38.1017 4.84516 38.1017Z" fill="white"/>
<path d="M61.2527 60.5885C61.1948 60.5885 61.1372 60.5652 61.0964 60.5198L35.982 32.5817C35.9073 32.4988 35.9168 32.3732 36.003 32.3013C36.0893 32.2296 36.2198 32.2386 36.2944 32.3216L61.4088 60.2597C61.4834 60.3427 61.474 60.4683 61.3877 60.5401C61.3487 60.5726 61.3006 60.5885 61.2527 60.5885Z" fill="#A58088"/>
</g>
<defs>
<clipPath id="clip0_14264_3235">
<rect width="77" height="72" fill="white"/>
</clipPath>
</defs>
</svg>
