<svg width="83" height="78" viewBox="0 0 83 78" fill="none" xmlns="http://www.w3.org/2000/svg">
<path d="M66.8466 66.1455L66.6263 66.6316C64.0666 72.2807 58.806 76.374 52.5304 77.5996L52.4165 77.6218C51.096 77.8797 49.7232 77.6206 48.6017 76.9017L8.87109 51.4327L35.4318 29.67L63.8515 11.7549L82.0871 50.7775C82.6576 51.9983 82.6813 53.3912 82.1527 54.6293C79.5191 60.7982 73.7024 65.1746 66.8466 66.1455Z" fill="#010101"/>
<path d="M28.7157 49.2195C36.4744 43.6312 39.4807 34.8785 35.4304 29.6698C31.3802 24.4611 21.8071 24.7688 14.0484 30.3571C6.28968 35.9454 3.28339 44.6981 7.33365 49.9068C11.3839 55.1155 20.957 54.8078 28.7157 49.2195Z" fill="#A58088"/>
<path d="M56.8133 28.9812C64.5721 23.3929 67.5784 14.6402 63.5281 9.43153C59.4778 4.22282 49.9048 4.53053 42.146 10.1188C34.3873 15.7071 31.381 24.4598 35.4313 29.6685C39.4816 34.8772 49.0546 34.5695 56.8133 28.9812Z" fill="#A58088"/>
<path d="M42.5136 15.1741C42.4298 15.1741 42.3457 15.1463 42.2773 15.0893C42.1263 14.9636 42.1098 14.7439 42.2405 14.5986C45.1272 11.3873 49.1285 9.62461 53.215 9.76458C56.2738 9.86873 58.9073 11.0591 60.4403 13.0306C60.5599 13.1844 60.5273 13.4024 60.3675 13.5175C60.2078 13.6327 59.9814 13.6014 59.8616 13.4474C58.4603 11.6455 56.0284 10.5565 53.1894 10.4599C49.3213 10.3273 45.53 12.0026 42.7872 15.0539C42.7157 15.1334 42.615 15.1741 42.5136 15.1741Z" fill="white"/>
<path d="M13.3768 35.6221C13.3075 35.6221 13.2375 35.603 13.1756 35.5631C13.0099 35.4559 12.9658 35.2398 13.077 35.0803C15.5364 31.5548 19.2842 29.3379 23.3594 28.9976C26.408 28.7429 29.1729 29.6163 30.9436 31.3939C31.0818 31.5325 31.077 31.7528 30.9329 31.8857C30.7889 32.0186 30.5601 32.0141 30.4218 31.8754C28.8033 30.2508 26.2521 29.4541 23.4218 29.6908C19.5658 30.0127 16.0141 32.1185 13.6773 35.4681C13.6075 35.5681 13.4932 35.6221 13.3768 35.6221Z" fill="white"/>
<path d="M10.3764 43.8209C10.2195 43.8209 10.075 43.7217 10.0293 43.5693C9.42645 41.5551 9.87445 39.2702 11.1984 37.6061C11.3197 37.4537 11.5465 37.4245 11.7052 37.5414C11.8637 37.6583 11.8938 37.8766 11.7724 38.0291C10.5851 39.5214 10.1834 41.5705 10.724 43.3767C10.7792 43.5613 10.6685 43.7541 10.4767 43.8073C10.4433 43.8165 10.4096 43.8209 10.3764 43.8209Z" fill="white"/>
<path d="M66.7839 66.3073C66.726 66.3073 66.6685 66.284 66.6276 66.2386L41.5132 38.3005C41.4386 38.2175 41.4481 38.0919 41.5343 38.0201C41.6205 37.9483 41.751 37.9574 41.8257 38.0404L66.9401 65.9784C67.0147 66.0614 67.0052 66.187 66.919 66.2589C66.8799 66.2914 66.8318 66.3073 66.7839 66.3073Z" fill="#A58088"/>
</svg>
