<svg width="20" height="20" viewBox="0 0 20 20" fill="none" xmlns="http://www.w3.org/2000/svg">
<g id="local_library">
<mask id="mask0_16884_2744" style="mask-type:alpha" maskUnits="userSpaceOnUse" x="0" y="0" width="20" height="20">
<rect id="Bounding box" width="20" height="20" fill="#D9D9D9"/>
</mask>
<g mask="url(#mask0_16884_2744)">
<path id="local_library_2" d="M10 18.7502C8.91667 17.7918 7.73264 17.0557 6.44792 16.5418C5.16319 16.0279 3.84722 15.771 2.5 15.771V6.8335C3.80556 6.8335 5.10069 7.13211 6.38542 7.72933C7.67014 8.32655 8.875 9.15989 10 10.2293C11.125 9.15989 12.3299 8.32655 13.6146 7.72933C14.8993 7.13211 16.1944 6.8335 17.5 6.8335V15.771C16.1528 15.771 14.8368 16.0279 13.5521 16.5418C12.2674 17.0557 11.0833 17.7918 10 18.7502ZM10 17.146C10.9861 16.4377 12.0035 15.8717 13.0521 15.4481C14.1007 15.0245 15.1667 14.7571 16.25 14.646V8.18766C15.3056 8.34044 14.309 8.71891 13.2604 9.32308C12.2118 9.92725 11.125 10.7641 10 11.8335C8.77778 10.7085 7.66667 9.85433 6.66667 9.271C5.66667 8.68766 4.69444 8.32655 3.75 8.18766V14.646C4.83333 14.7571 5.89931 15.0245 6.94792 15.4481C7.99653 15.8717 9.01389 16.4377 10 17.146ZM10.0625 7.25016C9.15972 7.25016 8.39931 6.94113 7.78125 6.32308C7.16319 5.70502 6.85417 4.94461 6.85417 4.04183C6.85417 3.13905 7.16319 2.37864 7.78125 1.76058C8.39931 1.14252 9.15972 0.833496 10.0625 0.833496C10.9653 0.833496 11.7257 1.14252 12.3438 1.76058C12.9618 2.37864 13.2708 3.13905 13.2708 4.04183C13.2708 4.94461 12.9618 5.70502 12.3438 6.32308C11.7257 6.94113 10.9653 7.25016 10.0625 7.25016ZM10.0658 6.00016C10.6053 6.00016 11.066 5.80808 11.4479 5.42391C11.8299 5.03975 12.0208 4.57794 12.0208 4.0385C12.0208 3.49905 11.8288 3.03836 11.4446 2.65641C11.0604 2.27447 10.5986 2.0835 10.0592 2.0835C9.51972 2.0835 9.05903 2.27558 8.67708 2.65975C8.29514 3.04391 8.10417 3.50572 8.10417 4.04516C8.10417 4.58461 8.29625 5.0453 8.68042 5.42725C9.06458 5.80919 9.52639 6.00016 10.0658 6.00016Z" fill="white"/>
</g>
</g>
</svg>
