<svg width="30" height="30" viewBox="0 0 30 30" fill="none" xmlns="http://www.w3.org/2000/svg">
<g clip-path="url(#clip0_507_21)">
<path d="M7 15C7 17.1217 7.84285 19.1566 9.34314 20.6569C10.8434 22.1571 12.8783 23 15 23C17.1217 23 19.1566 22.1571 20.6569 20.6569C22.1571 19.1566 23 17.1217 23 15C23 12.8783 22.1571 10.8434 20.6569 9.34314C19.1566 7.84285 17.1217 7 15 7C12.8783 7 10.8434 7.84285 9.34314 9.34314C7.84285 10.8434 7 12.8783 7 15Z" stroke="white" stroke-width="1.8" stroke-linecap="round" stroke-linejoin="round"/>
<path d="M5.11765 5.11765H10.8824L15 1L19.1176 5.11765H24.8824V10.8824L29 15L24.8824 19.1176V24.8824H19.1176L15 29L10.8824 24.8824H5.11765V19.1176L1 15L5.11765 10.8824V5.11765Z" stroke="white" stroke-width="1.8" stroke-linecap="round" stroke-linejoin="round"/>
</g>
<defs>
<clipPath id="clip0_507_21">
<rect width="30" height="30" fill="white"/>
</clipPath>
</defs>
</svg>
