<svg width="44" height="44" viewBox="0 0 44 44" fill="none" xmlns="http://www.w3.org/2000/svg">
<path d="M22 29C23.9333 29 25.5833 28.3167 26.95 26.95C28.3167 25.5833 29 23.9333 29 22C29 20.0667 28.3167 18.4167 26.95 17.05C25.5833 15.6833 23.9333 15 22 15C20.0667 15 18.4167 15.6833 17.05 17.05C15.6833 18.4167 15 20.0667 15 22C15 23.9333 15.6833 25.5833 17.05 26.95C18.4167 28.3167 20.0667 29 22 29ZM22 32C19.2333 32 16.875 31.025 14.925 29.075C12.975 27.125 12 24.7667 12 22C12 19.2333 12.975 16.875 14.925 14.925C16.875 12.975 19.2333 12 22 12C24.7667 12 27.125 12.975 29.075 14.925C31.025 16.875 32 19.2333 32 22C32 24.7667 31.025 27.125 29.075 29.075C27.125 31.025 24.7667 32 22 32ZM8 23.5H0V20.5H8V23.5ZM44 23.5H36V20.5H44V23.5ZM20.5 8V0H23.5V8H20.5ZM20.5 44V36H23.5V44H20.5ZM11.1 13.1L6.1 8.25L8.25 6.05L13.05 11.05L11.1 13.1ZM35.8 37.9L30.9 32.9L32.95 30.85L37.9 35.75L35.8 37.9ZM30.85 11.05L35.75 6.1L37.95 8.2L33 13.1L30.85 11.05ZM6.1 35.75L11.05 30.85L13.15 32.95L8.25 37.9L6.1 35.75Z" fill="white"/>
</svg>
