<svg width="20" height="20" viewBox="0 0 20 20" fill="none" xmlns="http://www.w3.org/2000/svg">
<g clip-path="url(#clip0_387_337)">
<path d="M17.07 7.07V2.93H12.93L10 0L7.07 2.93H2.93V7.07L0 10L2.93 12.93V17.07H7.07L10 20L12.93 17.07H17.07V12.93L20 10L17.07 7.07ZM10 16C8.81331 16 7.65327 15.6481 6.66658 14.9888C5.67988 14.3295 4.91085 13.3925 4.45672 12.2961C4.0026 11.1997 3.88378 9.99334 4.11529 8.82946C4.3468 7.66557 4.91824 6.59647 5.75736 5.75736C6.59647 4.91824 7.66557 4.3468 8.82946 4.11529C9.99334 3.88378 11.1997 4.0026 12.2961 4.45672C13.3925 4.91085 14.3295 5.67988 14.9888 6.66658C15.6481 7.65327 16 8.81331 16 10C16 11.5913 15.3679 13.1174 14.2426 14.2426C13.1174 15.3679 11.5913 16 10 16Z" fill="white"/>
<path d="M10 14.5C12.4853 14.5 14.5 12.4853 14.5 10C14.5 7.51472 12.4853 5.5 10 5.5C7.51472 5.5 5.5 7.51472 5.5 10C5.5 12.4853 7.51472 14.5 10 14.5Z" fill="white"/>
</g>
<defs>
<clipPath id="clip0_387_337">
<rect width="20" height="20" fill="white"/>
</clipPath>
</defs>
</svg>
