<svg width="45" height="44" viewBox="0 0 45 44" fill="none" xmlns="http://www.w3.org/2000/svg">
<path d="M10 21.5C10 24.8152 11.317 27.9946 13.6612 30.3388C16.0054 32.683 19.1848 34 22.5 34C25.8152 34 28.9946 32.683 31.3388 30.3388C33.683 27.9946 35 24.8152 35 21.5C35 18.1848 33.683 15.0054 31.3388 12.6612C28.9946 10.317 25.8152 9 22.5 9C19.1848 9 16.0054 10.317 13.6612 12.6612C11.317 15.0054 10 18.1848 10 21.5Z" stroke="white" stroke-width="1.8" stroke-linecap="round" stroke-linejoin="round"/>
<path d="M7.32353 7.17647H16.1765L22.5 1L28.8235 7.17647H37.6765V15.8235L44 22L37.6765 28.1765V36.8235H28.8235L22.5 43L16.1765 36.8235H7.32353V28.1765L1 22L7.32353 15.8235V7.17647Z" stroke="white" stroke-width="1.8" stroke-linecap="round" stroke-linejoin="round"/>
</svg>
