<svg width="136" height="135" viewBox="0 0 136 135" fill="none" xmlns="http://www.w3.org/2000/svg">
<mask id="mask0_16070_19277" style="mask-type:alpha" maskUnits="userSpaceOnUse" x="0" y="0" width="136" height="135">
<rect x="0.5" width="135" height="135" fill="currentColor"/>
</mask>
<g mask="url(#mask0_16070_19277)">
<path d="M68 126.562C61.25 120.188 53.5156 115.312 44.7969 111.938C36.0781 108.562 26.9375 106.875 17.375 106.875V45C26.8438 45 35.9375 46.7109 44.6562 50.1328C53.375 53.5547 61.1562 58.5 68 64.9688C74.8438 58.5 82.625 53.5547 91.3438 50.1328C100.062 46.7109 109.156 45 118.625 45V106.875C108.969 106.875 99.8047 108.562 91.1328 111.938C82.4609 115.312 74.75 120.188 68 126.562ZM68 111.938C73.9062 107.531 80.1875 104.016 86.8438 101.391C93.5 98.7656 100.344 97.0312 107.375 96.1875V57.375C100.531 58.5938 93.8047 61.0547 87.1953 64.7578C80.5859 68.4609 74.1875 73.4062 68 79.5938C61.8125 73.4062 55.4141 68.4609 48.8047 64.7578C42.1953 61.0547 35.4688 58.5938 28.625 57.375V96.1875C35.6562 97.0312 42.5 98.7656 49.1562 101.391C55.8125 104.016 62.0938 107.531 68 111.938ZM68 50.625C61.8125 50.625 56.5156 48.4219 52.1094 44.0156C47.7031 39.6094 45.5 34.3125 45.5 28.125C45.5 21.9375 47.7031 16.6406 52.1094 12.2344C56.5156 7.82813 61.8125 5.625 68 5.625C74.1875 5.625 79.4844 7.82813 83.8906 12.2344C88.2969 16.6406 90.5 21.9375 90.5 28.125C90.5 34.3125 88.2969 39.6094 83.8906 44.0156C79.4844 48.4219 74.1875 50.625 68 50.625ZM68 39.375C71.0938 39.375 73.7422 38.2734 75.9453 36.0703C78.1484 33.8672 79.25 31.2188 79.25 28.125C79.25 25.0312 78.1484 22.3828 75.9453 20.1797C73.7422 17.9766 71.0938 16.875 68 16.875C64.9062 16.875 62.2578 17.9766 60.0547 20.1797C57.8516 22.3828 56.75 25.0312 56.75 28.125C56.75 31.2188 57.8516 33.8672 60.0547 36.0703C62.2578 38.2734 64.9062 39.375 68 39.375Z" fill="#EFEFEF"/>
</g>
</svg>
