<svg width="370" height="155" viewBox="0 0 370 155" fill="none" xmlns="http://www.w3.org/2000/svg">
<path opacity="0.4" d="M284.876 100.448V93.792L332.364 34.4H342.604L295.5 93.792L290.508 92.256H362.572V100.448H284.876ZM335.436 124V100.448L335.692 92.256V71.52H344.652V124H335.436Z" fill="black"/>
<path fill-rule="evenodd" clip-rule="evenodd" d="M247.999 60.6624C249.439 66.0306 250.209 71.6762 250.209 77.4995C250.209 92.9358 244.812 107.121 235.801 118.27H235.887C241.412 118.27 245.882 122.735 245.882 128.238C245.882 133.749 241.405 138.207 235.887 138.207C230.362 138.207 225.892 133.742 225.892 128.238V128.153C214.707 137.14 200.491 142.523 185.014 142.523C179.176 142.523 173.522 141.755 168.133 140.319L174.414 116.94C177.793 117.843 181.343 118.319 185.014 118.319C196.321 118.319 206.558 113.748 213.965 106.36C221.372 98.9724 225.956 88.7621 225.956 77.4852C225.956 73.8305 225.471 70.2896 224.573 66.9123L247.999 60.6624Z" fill="#02AE8C"/>
<path fill-rule="evenodd" clip-rule="evenodd" d="M185.006 12.4678C190.845 12.4678 196.498 13.2357 201.887 14.672L195.607 38.0505C192.228 37.1475 188.677 36.6711 185.006 36.6711C173.699 36.6711 163.462 41.243 156.055 48.6306C148.648 56.0181 144.064 66.2285 144.064 77.5054C144.064 81.16 144.549 84.7009 145.447 88.0783L122.007 94.3424C120.567 88.9742 119.797 83.3286 119.797 77.5053C119.797 62.069 125.194 47.884 134.205 36.7351H134.119C128.594 36.7351 124.124 32.2699 124.124 26.7665C124.124 21.2561 128.601 16.7979 134.119 16.7979C139.644 16.7979 144.114 21.2632 144.114 26.7665V26.8518C155.307 17.8502 169.529 12.4678 185.006 12.4678Z" fill="#D43831"/>
<path fill-rule="evenodd" clip-rule="evenodd" d="M216.792 34.6412C207.91 28.0784 196.91 24.1962 185.004 24.1962C180.221 24.1962 175.58 24.8219 171.167 26.0022L164.886 2.62369C171.302 0.910113 178.046 0 185.004 0C206.462 0 225.889 8.67452 239.947 22.7031C254.006 36.7316 262.71 56.1 262.71 77.5019C262.71 84.4415 261.797 91.1678 260.079 97.567L236.639 91.3029C237.816 86.9016 238.45 82.2729 238.45 77.5019C238.45 65.6277 234.558 54.6637 227.978 45.7972C227.35 50.7104 223.151 54.5002 218.061 54.5002C212.536 54.5002 208.066 50.0349 208.066 44.5316C208.059 39.4549 211.866 35.2669 216.792 34.6412Z" fill="#0070B9"/>
<path fill-rule="evenodd" clip-rule="evenodd" d="M198.837 25.9986C194.424 24.8254 189.783 24.1926 185 24.1926C180.216 24.1926 175.575 24.8183 171.162 25.9986L168.118 14.672C173.501 13.2357 179.161 12.4678 185 12.4678C190.838 12.4678 196.492 13.2357 201.881 14.672L198.837 25.9986Z" fill="#053749"/>
<path fill-rule="evenodd" clip-rule="evenodd" d="M247.994 94.3366L236.638 91.3005C237.814 86.8992 238.448 82.2705 238.448 77.4995C238.448 72.7285 237.821 68.0997 236.638 63.6984L247.994 60.6624C249.434 66.0306 250.204 71.6762 250.204 77.4994C250.204 83.3228 249.434 88.9683 247.994 94.3366Z" fill="#05A300"/>
<path fill-rule="evenodd" clip-rule="evenodd" d="M131.557 77.4981C131.557 86.6775 133.881 95.3164 137.98 102.853V124.397H159.674C167.53 128.664 176.313 130.804 185.003 130.804C189.786 130.804 194.427 130.178 198.84 128.998L205.121 152.376C198.705 154.083 191.961 155 185.003 155C170.11 155 159.118 151.985 146.221 144.676H118.04V116.846C111.211 105.313 107.29 91.8609 107.29 77.4981C107.29 70.5585 108.202 63.8322 109.921 57.433L133.361 63.6971C132.191 68.0984 131.557 72.7271 131.557 77.4981ZM159.56 112.85C165.085 112.85 169.554 108.385 169.554 102.882C169.554 97.3713 165.077 92.9132 159.56 92.9132C154.035 92.9132 149.565 97.3784 149.565 102.882C149.558 108.385 154.035 112.85 159.56 112.85Z" fill="#F0C626"/>
<path fill-rule="evenodd" clip-rule="evenodd" d="M171.17 128.981C175.704 130.197 180.366 130.809 185 130.809C189.783 130.809 194.424 130.183 198.837 129.003L201.881 140.329C196.499 141.765 190.838 142.533 185 142.533C179.161 142.533 173.508 141.765 168.118 140.329L171.17 128.981Z" fill="#F53800"/>
<path fill-rule="evenodd" clip-rule="evenodd" d="M131.56 77.4994C131.56 82.2704 132.188 86.8992 133.371 91.3005L122.014 94.3365C120.574 88.9683 119.804 83.3227 119.804 77.4995C119.804 71.6761 120.574 66.0306 122.014 60.6624L133.371 63.6984C132.195 68.0997 131.56 72.7285 131.56 77.4994Z" fill="#851D6A"/>
<path opacity="0.4" d="M5.12 100.448V93.792L52.608 34.4H62.848L15.744 93.792L10.752 92.256H82.816V100.448H5.12ZM55.68 124V100.448L55.936 92.256V71.52H64.896V124H55.68Z" fill="black"/>
</svg>
