<svg width="281" height="57" viewBox="0 0 281 57" fill="none" xmlns="http://www.w3.org/2000/svg">
<g clip-path="url(#clip0_14595_3251)">
<path d="M32.8322 21.3832C36.2398 24.1695 38.3819 28.0267 39.257 32.9546H24.8875C24.5646 31.6197 23.9771 30.5952 23.1256 29.8801C22.2726 29.1668 21.1792 28.8093 19.8438 28.8093C18.186 28.8093 16.8386 29.5119 15.8025 30.9161C14.7664 32.3223 14.2479 34.3598 14.2479 37.0305C14.2479 39.7484 14.7664 41.7975 15.8025 43.1796C16.8386 44.5607 18.186 45.2518 19.8438 45.2518C21.1792 45.2518 22.2726 44.8952 23.1256 44.181C23.9771 43.4678 24.5646 42.4432 24.8875 41.1064H39.257C38.3819 46.0353 36.2398 49.904 32.8322 52.7135C29.4232 55.523 25.2089 56.9273 20.1893 56.9273C16.3206 56.9273 12.9009 56.1331 9.92998 54.5438C6.9595 52.9545 4.6449 50.6519 2.98713 47.6352C1.32887 44.6195 0.5 41.0843 0.5 37.0305C0.5 32.9787 1.32889 29.455 2.98713 26.4605C4.64488 23.4669 6.9701 21.1759 9.96467 19.5866C12.9583 17.9973 16.3659 17.2031 20.1893 17.2031C25.2089 17.2031 29.4232 18.5968 32.8322 21.3832Z" fill="black"/>
<path d="M67.5482 18.965C69.552 20.1389 71.0373 21.7629 72.0045 23.8351V17.687H85.5451V56.4434H72.0045V50.2953C71.0373 52.3675 69.552 53.9915 67.5482 55.1654C65.5449 56.3403 63.1841 56.9273 60.4671 56.9273C57.3809 56.9273 54.5945 56.1331 52.1079 54.5438C49.6208 52.9545 47.6623 50.6519 46.2353 47.6352C44.8075 44.6195 44.0938 41.0843 44.0938 37.0305C44.0938 32.9787 44.8075 29.455 46.2353 26.4605C47.6623 23.4669 49.6208 21.1759 52.1079 19.5866C54.5945 17.9973 57.3809 17.2031 60.4671 17.2031C63.1841 17.2031 65.5449 17.7901 67.5482 18.965ZM59.8107 31.1927C58.498 32.598 57.8416 34.5439 57.8416 37.0305C57.8416 39.5643 58.498 41.5334 59.8107 42.9377C61.1234 44.3429 62.8386 45.0445 64.9575 45.0445C66.9839 45.0445 68.6644 44.3313 70.0007 42.903C71.3361 41.4756 72.0045 39.5181 72.0045 37.0305C72.0045 34.5902 71.3361 32.6558 70.0007 31.2275C68.6644 29.8001 66.9839 29.0859 64.9575 29.0859C62.8386 29.0859 61.1234 29.7885 59.8107 31.1927Z" fill="black"/>
<path d="M107.993 5.31934V56.4424H94.3828V5.31934H107.993Z" fill="black"/>
<path d="M118.015 1.96905C119.489 0.656349 121.423 0 123.818 0C126.212 0 128.124 0.656349 129.553 1.96905C130.979 3.28127 131.694 4.95155 131.694 6.97746C131.694 8.91181 130.969 10.5247 129.518 11.8138C128.067 13.1034 126.167 13.7482 123.818 13.7482C121.423 13.7482 119.489 13.1034 118.015 11.8138C116.541 10.5247 115.805 8.91181 115.805 6.97746C115.805 4.95155 116.541 3.28127 118.015 1.96905ZM130.52 17.6863V56.4428H116.91V17.6863H130.52Z" fill="black"/>
<path d="M172.867 19.5865C175.355 21.1759 177.312 23.4668 178.739 26.4604C180.167 29.4549 180.881 32.9786 180.881 37.0304C180.881 41.0842 180.167 44.6194 178.739 47.6352C177.312 50.6519 175.355 52.9544 172.867 54.5437C170.38 56.133 167.593 56.9272 164.508 56.9272C161.79 56.9272 159.441 56.3402 157.461 55.1654C155.481 53.9915 154.007 52.3674 153.04 50.2953V56.4434H139.43V5.32031H153.04V23.835C154.007 21.7628 155.481 20.1388 157.461 18.9649C159.441 17.79 161.79 17.2031 164.508 17.2031C167.593 17.2031 170.38 17.9972 172.867 19.5865ZM154.974 31.2274C153.638 32.6557 152.971 34.5901 152.971 37.0304C152.971 39.518 153.638 41.4755 154.974 42.9029C156.31 44.3312 157.99 45.0444 160.017 45.0444C162.135 45.0444 163.852 44.3428 165.164 42.9376C166.477 41.5333 167.133 39.5643 167.133 37.0304C167.133 34.5438 166.477 32.5979 165.164 31.1926C163.852 29.7884 162.135 29.0858 160.017 29.0858C157.99 29.0858 156.31 29.8 154.974 31.2274Z" fill="#D5402B"/>
<path d="M207.063 19.413C209.366 18.0309 211.806 17.3398 214.386 17.3398V31.848H210.448C207.409 31.848 205.129 32.4349 203.609 33.6098C202.089 34.7847 201.329 36.8222 201.329 39.7242V56.4423H187.719V17.6858H201.329V24.9394C202.849 22.6369 204.76 20.7941 207.063 19.413Z" fill="#D5402B"/>
<path d="M241.708 18.965C243.712 20.1389 245.197 21.7629 246.165 23.8351V17.687H259.705V56.4434H246.165V50.2953C245.197 52.3675 243.712 53.9915 241.708 55.1654C239.705 56.3403 237.344 56.9273 234.627 56.9273C231.541 56.9273 228.755 56.1331 226.268 54.5438C223.781 52.9545 221.822 50.6519 220.396 47.6352C218.968 44.6195 218.254 41.0843 218.254 37.0305C218.254 32.9787 218.968 29.455 220.396 26.4605C221.822 23.4669 223.781 21.1759 226.268 19.5866C228.755 17.9973 231.541 17.2031 234.627 17.2031C237.344 17.2031 239.705 17.7901 241.708 18.965ZM233.971 31.1927C232.658 32.598 232.002 34.5439 232.002 37.0305C232.002 39.5643 232.658 41.5334 233.971 42.9377C235.284 44.3429 236.999 45.0445 239.118 45.0445C241.144 45.0445 242.825 44.3313 244.161 42.903C245.496 41.4756 246.165 39.5181 246.165 37.0305C246.165 34.5902 245.496 32.6558 244.161 31.2275C242.825 29.8001 241.144 29.0859 239.118 29.0859C236.999 29.0859 235.284 29.7885 233.971 31.1927Z" fill="#D5402B"/>
<path d="M280.498 43.1787V56.4426H266.75V43.1787H280.498Z" fill="black"/>
<path d="M280.498 43.1787V56.4424H266.75V43.1787H280.498Z" fill="black"/>
</g>
<defs>
<clipPath id="clip0_14595_3251">
<rect width="280" height="56.9266" fill="white" transform="translate(0.5)"/>
</clipPath>
</defs>
</svg>
