<svg width="620" height="779" viewBox="0 0 620 779" fill="none" xmlns="http://www.w3.org/2000/svg">
<path d="M330.225 130.339C357.085 130.339 378.859 108.545 378.859 81.6611C378.859 54.7769 357.085 32.9829 330.225 32.9829C303.366 32.9829 281.592 54.7769 281.592 81.6611C281.592 108.545 303.366 130.339 330.225 130.339Z" fill="#010100"/>
<path d="M408.52 38.7665C408.52 41.6783 402.798 43.6488 401.946 46.2762C401.063 48.999 404.504 53.9538 402.856 56.2202C401.191 58.5091 395.409 56.7555 393.122 58.4214C390.858 60.0707 390.747 66.1251 388.027 67.0092C385.402 67.8623 381.768 63.0574 378.859 63.0574C375.95 63.0574 372.315 67.8623 369.69 67.0091C366.97 66.1249 366.859 60.0705 364.595 58.421C362.308 56.7551 356.526 58.5085 354.861 56.2196C353.213 53.9533 356.655 48.9987 355.771 46.2761C354.919 43.6487 349.197 41.6782 349.197 38.7665C349.197 35.8547 354.919 33.8841 355.771 31.2568C356.655 28.534 353.214 23.5791 354.862 21.3128C356.526 19.0239 362.308 20.7774 364.595 19.1116C366.859 17.4623 366.97 11.4079 369.69 10.5238C372.315 9.67067 375.95 14.4756 378.859 14.4756C381.768 14.4756 385.402 9.67069 388.027 10.5239C390.747 11.408 390.859 17.4625 393.123 19.112C395.41 20.7779 401.192 19.0245 402.856 21.3134C404.504 23.5797 401.063 28.5343 401.946 31.2569C402.798 33.8842 408.52 35.8547 408.52 38.7665Z" fill="#010100"/>
<path d="M60.8589 769.025L206.561 684.534L185.391 647.96L71.9866 713.721C54.149 724.065 48.0664 746.924 58.4007 764.778L60.8589 769.025Z" fill="white" stroke="black" stroke-width="0.312192" stroke-miterlimit="10"/>
<path d="M110.606 719.691C107.857 716.656 104.456 714.284 100.945 712.177C98.5186 710.722 95.96 709.357 93.1642 708.925C90.3684 708.492 87.2664 709.137 85.3345 711.206C83.4026 713.274 83.1124 716.904 85.1547 718.863C85.9124 719.59 86.974 720.05 88.0134 719.905C90.3616 719.576 91.294 716.485 90.6179 714.21C89.3172 709.835 84.3291 707.423 79.771 707.58C75.213 707.738 70.9847 709.863 66.925 711.944C66.0129 712.411 65.0266 712.959 64.6631 713.917" stroke="black" stroke-width="0.312192" stroke-miterlimit="10"/>
<path d="M210.972 691.471L64.9735 776.133L60.859 769.024L206.857 684.362L210.972 691.471Z" fill="#FDCF06" stroke="black" stroke-width="0.312192" stroke-miterlimit="10"/>
<path d="M557.731 771.142L412.028 686.652L433.198 650.077L546.603 715.839C564.44 726.183 570.523 749.041 560.189 766.895L557.731 771.142Z" fill="white" stroke="black" stroke-width="0.312192" stroke-miterlimit="10"/>
<path d="M507.983 721.809C510.733 718.774 514.133 716.401 517.644 714.295C520.071 712.84 522.63 711.475 525.425 711.043C528.221 710.61 531.323 711.255 533.255 713.324C535.187 715.392 535.477 719.022 533.435 720.981C532.677 721.708 531.616 722.168 530.576 722.023C528.228 721.694 527.295 718.603 527.972 716.328C529.272 711.953 534.26 709.541 538.818 709.698C543.377 709.855 547.605 711.981 551.665 714.062C552.577 714.529 553.563 715.076 553.926 716.035" stroke="black" stroke-width="0.312192" stroke-miterlimit="10"/>
<path d="M411.732 686.48L557.731 771.142L553.616 778.251L407.618 693.589L411.732 686.48Z" fill="#FDCF06" stroke="black" stroke-width="0.312192" stroke-miterlimit="10"/>
<path d="M516.148 348.632H103.852C46.7986 348.632 0.547607 394.925 0.547607 452.031V465.114L36.5181 627.129L183.574 559.358V465.114H436.426V559.358L583.482 627.129L619.452 465.114V452.031C619.452 394.925 573.201 348.632 516.148 348.632Z" fill="#FDCF06" stroke="black" stroke-width="0.312192" stroke-miterlimit="10"/>
<path d="M183.574 465.114H435.368V717.138H183.574V465.114Z" fill="#E75336" stroke="black" stroke-width="0.312192" stroke-miterlimit="10"/>
<path d="M332.746 429.11L309.471 465.114" stroke="black" stroke-width="0.312192" stroke-miterlimit="10" stroke-linecap="round" stroke-linejoin="round"/>
<path d="M94.0569 600.613L183.574 559.358V651.383L106.425 693.556L94.0569 600.613ZM524.885 600.613L435.368 559.358V651.383L511.622 695.674L524.885 600.613Z" fill="#1559A6" stroke="black" stroke-width="0.312192" stroke-miterlimit="10" stroke-linecap="round" stroke-linejoin="round"/>
<path d="M97.9049 628.718L172.466 569.418L183.574 559.358L94.0569 600.613L97.9049 628.718ZM521.566 628.718L449.65 570.477L435.897 559.358L525.414 600.613L521.566 628.718Z" fill="#010100"/>
<path d="M151.184 90.2536H64.8987C59.5455 90.2536 54.8712 94.2969 54.5251 99.6438C54.146 105.503 58.7818 110.373 64.554 110.373H111.633C112.217 110.373 112.691 110.847 112.691 111.432C112.691 112.017 112.217 112.491 111.633 112.491L55.3771 112.491C50.0239 112.491 45.3496 116.534 45.0035 121.881C44.6243 127.74 49.2601 132.611 55.0324 132.611H111.633C112.217 132.611 112.691 133.085 112.691 133.67C112.691 134.254 112.217 134.729 111.633 134.729L69.3262 134.729C64.8183 134.729 60.8823 138.133 60.591 142.636C60.2719 147.57 64.1754 151.671 69.0364 151.671H176.168V115.261C176.168 101.45 164.983 90.2536 151.184 90.2536Z" fill="#1559A6" stroke="black" stroke-width="0.312192" stroke-miterlimit="10" stroke-linecap="round" stroke-linejoin="round"/>
<path d="M57.1483 130.493C61.5305 130.493 65.083 126.937 65.083 122.551C65.083 118.165 61.5305 114.609 57.1483 114.609C52.7661 114.609 49.2136 118.165 49.2136 122.551C49.2136 126.937 52.7661 130.493 57.1483 130.493Z" stroke="#E75436" stroke-width="0.312192" stroke-miterlimit="10"/>
<path d="M66.6699 108.255C71.0521 108.255 74.6046 104.7 74.6046 100.313C74.6046 95.9272 71.0521 92.3715 66.6699 92.3715C62.2877 92.3715 58.7352 95.9272 58.7352 100.313C58.7352 104.7 62.2877 108.255 66.6699 108.255Z" stroke="black" stroke-width="0.312192" stroke-miterlimit="10"/>
<path d="M70.3728 149.554C73.8785 149.554 76.7205 146.709 76.7205 143.2C76.7205 139.691 73.8785 136.846 70.3728 136.846C66.867 136.846 64.025 139.691 64.025 143.2C64.025 146.709 66.867 149.554 70.3728 149.554Z" stroke="#FECF0B" stroke-width="0.312192" stroke-miterlimit="10"/>
<path d="M83.0682 116.727V128.375V116.727ZM86.2421 116.727V128.375V116.727Z" fill="white"/>
<path d="M83.0682 116.727V128.375M86.2421 116.727V128.375" stroke="black" stroke-width="0.312192" stroke-miterlimit="10" stroke-linecap="round"/>
<path d="M551.509 122.975C549.443 122.975 547.459 122.492 545.609 121.538L513.089 104.765C506.765 101.502 504.27 93.6963 507.529 87.3638L548.624 7.55011C550.847 3.23071 555.247 0.548874 560.105 0.548874C562.171 0.548874 564.159 1.03243 566.009 1.98582L598.528 18.7593C601.591 20.3403 603.856 23.0204 604.908 26.3075C605.956 29.5947 605.665 33.0927 604.086 36.1586L562.99 115.974C560.767 120.293 556.367 122.975 551.509 122.975Z" fill="white"/>
<path d="M560.107 1.0963C562.084 1.09635 563.984 1.55965 565.755 2.47333L598.274 19.2471C601.209 20.7606 603.378 23.3273 604.384 26.4742C605.389 29.6212 605.11 32.9717 603.599 35.9086L562.505 115.722C560.374 119.859 556.162 122.428 551.509 122.428C549.53 122.428 547.63 121.965 545.859 121.051L513.34 104.278C510.405 102.764 508.236 100.197 507.23 97.0505C506.225 93.9035 506.504 90.553 508.015 87.6162L549.11 7.80196C551.24 3.66609 555.452 1.09668 560.107 1.0963ZM560.105 4.02436e-08C555.23 0.000321718 550.524 2.6627 548.137 7.29992L507.042 87.1139C503.638 93.7246 506.233 101.845 512.838 105.252L545.357 122.026C547.329 123.043 549.434 123.525 551.509 123.525C556.384 123.525 561.09 120.862 563.479 116.225L604.572 36.4108C607.976 29.8001 605.381 21.6794 598.776 18.2726L566.257 1.49878C564.285 0.481785 562.18 -0.000160798 560.105 4.02436e-08Z" fill="black"/>
<path d="M551.296 113.58C549.23 113.58 547.243 113.097 545.393 112.143L520.857 99.487C517.794 97.906 515.529 95.2259 514.477 91.9387C513.429 88.6516 513.72 85.1536 515.299 82.0876L548.836 16.9468C551.06 12.6274 555.459 9.94559 560.318 9.94559C562.384 9.94559 564.371 10.4291 566.221 11.3825L590.757 24.0389C597.082 27.3003 599.577 35.1058 596.318 41.44L562.778 106.577C560.554 110.897 556.155 113.58 551.296 113.58Z" fill="white"/>
<path d="M560.321 10.4925C562.298 10.4926 564.198 10.9559 565.969 11.8696L590.505 24.5259C593.44 26.0394 595.609 28.6061 596.614 31.753C597.62 34.9 597.341 38.2504 595.83 41.1873L562.291 106.326C560.162 110.463 555.949 113.032 551.296 113.032C549.318 113.032 547.418 112.569 545.646 111.655L521.109 98.9988C518.174 97.4852 516.005 94.9186 515 91.7717C513.994 88.6247 514.273 85.2742 515.784 82.3373L549.323 17.1984C551.454 13.0624 555.667 10.4929 560.321 10.4925ZM560.319 9.39623C555.444 9.39655 550.738 12.0589 548.35 16.6961L514.811 81.8351C511.407 88.4458 514.003 96.5666 520.607 99.9734L545.144 112.63C547.116 113.647 549.222 114.128 551.296 114.128C556.172 114.128 560.878 111.466 563.264 106.829L596.803 41.6895C600.207 35.0789 597.611 26.9581 591.007 23.5513L566.471 10.895C564.5 9.87801 562.394 9.39606 560.319 9.39623Z" fill="black"/>
<path d="M487.859 90.2536H574.144C579.498 90.2536 584.172 94.2969 584.518 99.6438C584.897 105.503 580.261 110.373 574.489 110.373H527.41C526.826 110.373 526.352 110.847 526.352 111.432C526.352 112.017 526.826 112.491 527.41 112.491L583.666 112.491C589.019 112.491 593.693 116.534 594.04 121.881C594.419 127.74 589.783 132.611 584.011 132.611H527.41C526.826 132.611 526.352 133.085 526.352 133.67C526.352 134.254 526.826 134.729 527.41 134.729L569.717 134.729C574.225 134.729 578.161 138.133 578.452 142.636C578.771 147.57 574.868 151.671 570.007 151.671H462.875V115.261C462.875 101.45 474.061 90.2536 487.859 90.2536Z" fill="#1559A6" stroke="black" stroke-width="0.312192" stroke-miterlimit="10" stroke-linecap="round" stroke-linejoin="round"/>
<path d="M581.895 130.493C586.277 130.493 589.829 126.937 589.829 122.551C589.829 118.165 586.277 114.609 581.895 114.609C577.513 114.609 573.96 118.165 573.96 122.551C573.96 126.937 577.513 130.493 581.895 130.493Z" stroke="black" stroke-width="0.312192" stroke-miterlimit="10"/>
<path d="M572.373 108.255C576.755 108.255 580.308 104.7 580.308 100.313C580.308 95.9272 576.755 92.3715 572.373 92.3715C567.991 92.3715 564.438 95.9272 564.438 100.313C564.438 104.7 567.991 108.255 572.373 108.255Z" stroke="#E75436" stroke-width="0.312192" stroke-miterlimit="10"/>
<path d="M568.67 149.554C572.176 149.554 575.018 146.709 575.018 143.2C575.018 139.691 572.176 136.846 568.67 136.846C565.165 136.846 562.323 139.691 562.323 143.2C562.323 146.709 565.165 149.554 568.67 149.554Z" stroke="black" stroke-width="0.312192" stroke-miterlimit="10"/>
<path d="M555.975 116.727V128.375M552.801 116.727V128.375" stroke="#FECF0B" stroke-width="0.312192" stroke-miterlimit="10" stroke-linecap="round"/>
<path d="M30.1704 62.7215H183.574V90.2536H30.1704V62.7215Z" fill="#E75336" stroke="black" stroke-width="0.312192" stroke-miterlimit="10"/>
<path d="M57.6772 3.4216H167.705V30.9537H57.6772V3.4216Z" fill="#1559A6" stroke="black" stroke-width="0.312192" stroke-miterlimit="10" stroke-linecap="round" stroke-linejoin="round"/>
<path d="M49.2136 31.4832H172.466V62.7215H49.2136V31.4832Z" fill="#FDCF06" stroke="black" stroke-width="0.312192" stroke-miterlimit="10"/>
<path d="M118.999 62.7215H49.2136V31.4832H118.999C126.617 31.4832 132.792 37.6641 132.792 45.2886V48.916C132.792 56.5406 126.617 62.7215 118.999 62.7215ZM115.326 90.2536H183.574V62.7215H115.326C108.612 62.7215 103.169 68.1691 103.169 74.889V78.0861C103.169 84.806 108.612 90.2536 115.326 90.2536ZM115.326 30.9537H167.705V3.4216H115.326C108.612 3.4216 103.169 8.86919 103.169 15.5891V18.7862C103.169 25.5061 108.612 30.9537 115.326 30.9537Z" fill="white" stroke="black" stroke-width="0.312192" stroke-miterlimit="10"/>
<path d="M356.227 87.4446C355.606 87.4446 355 87.5076 354.406 87.6021C350.977 72.6082 337.578 61.4187 321.558 61.4187C302.942 61.4187 287.851 76.5234 287.851 95.156C287.851 108.151 295.196 119.423 305.954 125.059L293.551 171.991H348.318L336.172 125.566C343.057 122.245 348.629 116.643 351.941 109.747C353.267 110.279 354.711 110.579 356.227 110.579C362.61 110.579 367.784 105.4 367.784 99.0117C367.784 92.6234 362.61 87.4446 356.227 87.4446Z" fill="#1559A6" stroke="black" stroke-width="0.312192" stroke-miterlimit="10" stroke-linecap="round" stroke-linejoin="round"/>
<path d="M356.227 91.3003C360.482 91.3003 363.932 94.7528 363.932 99.0117C363.932 103.271 360.482 106.723 356.227 106.723" stroke="black" stroke-width="0.312192" stroke-miterlimit="10" stroke-linecap="round"/>
<path d="M300.819 62.1446C298.073 64.8937 295.902 67.9974 294.286 71.3045C295.617 76.9397 298.473 82.2872 302.865 86.6818C315.466 99.2906 335.893 99.2875 348.491 86.6751C352.388 82.7733 355.076 78.1205 356.561 73.1831C354.892 69.1674 352.432 65.4035 349.168 62.1375C335.815 48.776 314.168 48.7793 300.819 62.1446Z" fill="#010100"/>
<path d="M451.237 151.671V210.971C451.237 222.993 441.699 232.762 429.787 233.17C423.093 197.626 391.931 170.732 354.475 170.732H290.916C253.46 170.732 222.297 197.626 215.603 233.17C203.692 232.762 194.154 222.993 194.154 210.971V151.671H107.401V233.209C107.401 278.241 143.873 314.746 188.864 314.746H214.255V348.632H431.136V314.746H456.527C501.518 314.746 537.99 278.241 537.99 233.209V151.671H451.237Z" fill="#E75336" stroke="black" stroke-width="0.312192" stroke-miterlimit="10"/>
<path d="M214.255 348.632L431.136 338.768V348.632H214.255ZM294.099 170.347L345.58 162.672L347.771 170.347H294.099Z" fill="#010100"/>
</svg>
