<svg width="20" height="20" viewBox="0 0 20 20" fill="none" xmlns="http://www.w3.org/2000/svg">
<g id="move_item">
<mask id="mask0_14331_7292" style="mask-type:alpha" maskUnits="userSpaceOnUse" x="0" y="0" width="20" height="20">
<rect id="Bounding box" width="20" height="20" fill="#D9D9D9"/>
</mask>
<g mask="url(#mask0_14331_7292)">
<path id="move_item_2" d="M17.1667 10.625H6.72917V9.375H17.1667L15.3125 7.52083L16.2083 6.625L19.5833 10L16.2083 13.375L15.3125 12.4792L17.1667 10.625ZM12.0833 8.125V3.75H3.75V16.25H12.0833V11.875H13.3333V16.25C13.3333 16.5938 13.211 16.888 12.9663 17.1327C12.7214 17.3776 12.4271 17.5 12.0833 17.5H3.75C3.40625 17.5 3.11201 17.3776 2.86729 17.1327C2.62243 16.888 2.5 16.5938 2.5 16.25V3.75C2.5 3.40625 2.62243 3.11194 2.86729 2.86708C3.11201 2.62236 3.40625 2.5 3.75 2.5H12.0833C12.4271 2.5 12.7214 2.62236 12.9663 2.86708C13.211 3.11194 13.3333 3.40625 13.3333 3.75V8.125H12.0833Z" fill="white"/>
</g>
</g>
</svg>
