<svg width="17" height="21" viewBox="0 0 17 21" fill="none" xmlns="http://www.w3.org/2000/svg">
<g id="neurology">
<mask id="mask0_15066_15104" style="mask-type:alpha" maskUnits="userSpaceOnUse" x="0" y="0" width="17" height="21">
<rect id="Bounding box" x="0.499023" y="0.96875" width="16" height="20" fill="#D9D9D9"/>
</mask>
<g mask="url(#mask0_15066_15104)">
<path id="neurology_2" d="M6.51986 18.4688C5.81152 18.4688 5.21083 18.2049 4.71777 17.6771C4.22472 17.1493 3.94347 16.5521 3.87402 15.8854C3.05458 15.816 2.37055 15.4722 1.82194 14.8542C1.27333 14.2361 0.999023 13.4826 0.999023 12.5938C0.999023 12.2882 1.03722 11.9931 1.11361 11.7083C1.19 11.4236 1.30458 11.1493 1.45736 10.8854C1.30458 10.6354 1.19 10.3715 1.11361 10.0938C1.03722 9.81597 0.999023 9.51736 0.999023 9.19792C0.999023 8.36458 1.28722 7.64931 1.86361 7.05208C2.44 6.45486 3.12402 6.10764 3.91569 6.01042C3.94347 5.30208 4.21083 4.70139 4.71777 4.20833C5.22472 3.71528 5.83236 3.46875 6.54069 3.46875C6.94347 3.46875 7.30111 3.54167 7.61361 3.6875C7.92611 3.83333 8.22125 4.04514 8.49902 4.32292C8.7768 4.04514 9.06847 3.83333 9.37402 3.6875C9.67958 3.54167 10.0337 3.46875 10.4365 3.46875C11.131 3.46875 11.7282 3.71528 12.2282 4.20833C12.7282 4.70139 12.999 5.30208 13.0407 6.01042C13.8462 6.07986 14.5407 6.41667 15.124 7.02083C15.7074 7.625 15.999 8.35069 15.999 9.19792C15.999 9.51736 15.9574 9.81944 15.874 10.1042C15.7907 10.3889 15.6726 10.6562 15.5199 10.9062C15.6726 11.184 15.7907 11.4757 15.874 11.7812C15.9574 12.0868 15.999 12.3854 15.999 12.6771C15.999 13.566 15.7247 14.3056 15.1761 14.8958C14.6275 15.4861 13.9435 15.816 13.124 15.8854C13.0546 16.5521 12.7699 17.1493 12.2699 17.6771C11.7699 18.2049 11.1726 18.4688 10.4782 18.4688C10.0615 18.4688 9.70041 18.3993 9.39486 18.2604C9.0893 18.1215 8.79069 17.9132 8.49902 17.6354C8.20736 17.9132 7.90875 18.1215 7.60319 18.2604C7.29763 18.3993 6.93652 18.4688 6.51986 18.4688ZM9.12402 5.96875V15.9688C9.12402 16.316 9.25944 16.6111 9.53027 16.8542C9.80111 17.0972 10.124 17.2188 10.499 17.2188C10.8601 17.2188 11.1726 17.059 11.4365 16.7396C11.7004 16.4201 11.8462 16.0938 11.874 15.7604C11.5546 15.6493 11.256 15.5 10.9782 15.3125C10.7004 15.125 10.4643 14.8924 10.2699 14.6146C10.1587 14.4618 10.1171 14.3056 10.1449 14.1458C10.1726 13.9861 10.2629 13.8507 10.4157 13.7396C10.5685 13.6285 10.7247 13.5868 10.8844 13.6146C11.0442 13.6424 11.1796 13.7326 11.2907 13.8854C11.4712 14.1354 11.6935 14.3264 11.9574 14.4583C12.2212 14.5903 12.5129 14.6562 12.8324 14.6562C13.3601 14.6562 13.8115 14.4757 14.1865 14.1146C14.5615 13.7535 14.749 13.2743 14.749 12.6771C14.749 12.5521 14.7351 12.4236 14.7074 12.2917C14.6796 12.1597 14.6518 12.0243 14.624 11.8854C14.374 12.066 14.0997 12.2014 13.8011 12.2917C13.5025 12.3819 13.1935 12.4271 12.874 12.4271C12.6935 12.4271 12.5442 12.3681 12.4261 12.25C12.3081 12.1319 12.249 11.9826 12.249 11.8021C12.249 11.6215 12.3081 11.4722 12.4261 11.3542C12.5442 11.2361 12.6935 11.1771 12.874 11.1771C13.4018 11.1771 13.8462 10.9826 14.2074 10.5938C14.5685 10.2049 14.749 9.73958 14.749 9.19792C14.749 8.67014 14.5546 8.21875 14.1657 7.84375C13.7768 7.46875 13.3324 7.26736 12.8324 7.23958C12.6935 7.57292 12.4956 7.86806 12.2386 8.125C11.9817 8.38194 11.6865 8.57292 11.3532 8.69792C11.1865 8.76736 11.0268 8.76389 10.874 8.6875C10.7212 8.61111 10.6171 8.48958 10.5615 8.32292C10.506 8.15625 10.5129 7.99306 10.5824 7.83333C10.6518 7.67361 10.7699 7.56597 10.9365 7.51042C11.1865 7.42708 11.3914 7.26042 11.5511 7.01042C11.7108 6.76042 11.7907 6.47569 11.7907 6.15625C11.7907 5.75347 11.6587 5.41319 11.3949 5.13542C11.131 4.85764 10.8185 4.71875 10.4574 4.71875C10.0962 4.71875 9.78375 4.84028 9.51986 5.08333C9.25597 5.32639 9.12402 5.62153 9.12402 5.96875ZM7.87402 15.9688V5.96875C7.87402 5.62153 7.74555 5.32639 7.48861 5.08333C7.23166 4.84028 6.91569 4.71875 6.54069 4.71875C6.17958 4.71875 5.86361 4.85764 5.59277 5.13542C5.32194 5.41319 5.18652 5.75347 5.18652 6.15625C5.18652 6.47569 5.26291 6.75694 5.41569 7C5.56847 7.24306 5.76986 7.40625 6.01986 7.48958C6.18652 7.54514 6.30805 7.65278 6.38444 7.8125C6.46083 7.97222 6.47125 8.12847 6.41569 8.28125C6.34625 8.44792 6.23166 8.57292 6.07194 8.65625C5.91222 8.73958 5.74902 8.74653 5.58236 8.67708C5.24902 8.56597 4.95736 8.38194 4.70736 8.125C4.45736 7.86806 4.26291 7.57292 4.12402 7.23958C3.63791 7.28125 3.20388 7.48611 2.82194 7.85417C2.44 8.22222 2.24902 8.67014 2.24902 9.19792C2.24902 9.73958 2.42958 10.2049 2.79069 10.5938C3.1518 10.9826 3.59625 11.1771 4.12402 11.1771C4.30458 11.1771 4.45388 11.2361 4.57194 11.3542C4.69 11.4722 4.74902 11.6215 4.74902 11.8021C4.74902 11.9826 4.69 12.1319 4.57194 12.25C4.45388 12.3681 4.30458 12.4271 4.12402 12.4271C3.80458 12.4271 3.49555 12.3785 3.19694 12.2812C2.89833 12.184 2.62402 12.0521 2.37402 11.8854C2.33236 11.9965 2.30111 12.1146 2.28027 12.2396C2.25944 12.3646 2.24902 12.4896 2.24902 12.6146C2.24902 13.2118 2.43305 13.7014 2.80111 14.0833C3.16916 14.4653 3.61708 14.6562 4.14486 14.6562C4.45041 14.6562 4.73861 14.5868 5.00944 14.4479C5.28027 14.309 5.50597 14.1215 5.68652 13.8854C5.79763 13.7465 5.93652 13.6597 6.10319 13.625C6.26986 13.5903 6.42263 13.6285 6.56152 13.7396C6.70041 13.8507 6.78722 13.9896 6.82194 14.1562C6.85666 14.3229 6.81847 14.4757 6.70736 14.6146C6.51291 14.8924 6.28027 15.125 6.00944 15.3125C5.73861 15.5 5.44347 15.6493 5.12402 15.7604C5.1518 16.0938 5.29763 16.4201 5.56152 16.7396C5.82541 17.059 6.14486 17.2188 6.51986 17.2188C6.89486 17.2188 7.2143 17.0972 7.47819 16.8542C7.74208 16.6111 7.87402 16.316 7.87402 15.9688Z" fill="white"/>
</g>
</g>
</svg>
