<svg width="49" height="48" viewBox="0 0 49 48" fill="none" xmlns="http://www.w3.org/2000/svg">
<mask id="mask0_14595_3171" style="mask-type:alpha" maskUnits="userSpaceOnUse" x="0" y="0" width="49" height="48">
<rect x="0.863281" width="48" height="48" fill="#D9D9D9"/>
</mask>
<g mask="url(#mask0_14595_3171)">
<path d="M20.1133 42C18.4133 42 16.9716 41.3667 15.7883 40.1C14.6049 38.8333 13.9299 37.4 13.7633 35.8C11.7966 35.6333 10.1549 34.8083 8.83828 33.325C7.52161 31.8417 6.86328 30.0333 6.86328 27.9C6.86328 27.1667 6.95495 26.4583 7.13828 25.775C7.32161 25.0917 7.59661 24.4333 7.96328 23.8C7.59661 23.2 7.32161 22.5667 7.13828 21.9C6.95495 21.2333 6.86328 20.5167 6.86328 19.75C6.86328 17.75 7.55495 16.0333 8.93828 14.6C10.3216 13.1667 11.9633 12.3333 13.8633 12.1C13.9299 10.4 14.5716 8.95833 15.7883 7.775C17.0049 6.59167 18.4633 6 20.1633 6C21.1299 6 21.9883 6.175 22.7383 6.525C23.4883 6.875 24.1966 7.38333 24.8633 8.05C25.5299 7.38333 26.2299 6.875 26.9633 6.525C27.6966 6.175 28.5466 6 29.5133 6C31.1799 6 32.6133 6.59167 33.8133 7.775C35.0133 8.95833 35.6633 10.4 35.7633 12.1C37.6966 12.2667 39.3633 13.075 40.7633 14.525C42.1633 15.975 42.8633 17.7167 42.8633 19.75C42.8633 20.5167 42.7633 21.2417 42.5633 21.925C42.3633 22.6083 42.0799 23.25 41.7133 23.85C42.0799 24.5167 42.3633 25.2167 42.5633 25.95C42.7633 26.6833 42.8633 27.4 42.8633 28.1C42.8633 30.2333 42.2049 32.0083 40.8883 33.425C39.5716 34.8417 37.9299 35.6333 35.9633 35.8C35.7966 37.4 35.1133 38.8333 33.9133 40.1C32.7133 41.3667 31.2799 42 29.6133 42C28.6133 42 27.7466 41.8333 27.0133 41.5C26.2799 41.1667 25.5633 40.6667 24.8633 40C24.1633 40.6667 23.4466 41.1667 22.7133 41.5C21.9799 41.8333 21.1133 42 20.1133 42ZM26.3633 12V36C26.3633 36.8333 26.6883 37.5417 27.3383 38.125C27.9883 38.7083 28.7633 39 29.6633 39C30.5299 39 31.2799 38.6167 31.9133 37.85C32.5466 37.0833 32.8966 36.3 32.9633 35.5C32.1966 35.2333 31.4799 34.875 30.8133 34.425C30.1466 33.975 29.5799 33.4167 29.1133 32.75C28.8466 32.3833 28.7466 32.0083 28.8133 31.625C28.8799 31.2417 29.0966 30.9167 29.4633 30.65C29.8299 30.3833 30.2049 30.2833 30.5883 30.35C30.9716 30.4167 31.2966 30.6333 31.5633 31C31.9966 31.6 32.5299 32.0583 33.1633 32.375C33.7966 32.6917 34.4966 32.85 35.2633 32.85C36.5299 32.85 37.6133 32.4167 38.5133 31.55C39.4133 30.6833 39.8633 29.5333 39.8633 28.1C39.8633 27.8 39.8299 27.4917 39.7633 27.175C39.6966 26.8583 39.6299 26.5333 39.5633 26.2C38.9633 26.6333 38.3049 26.9583 37.5883 27.175C36.8716 27.3917 36.1299 27.5 35.3633 27.5C34.9299 27.5 34.5716 27.3583 34.2883 27.075C34.0049 26.7917 33.8633 26.4333 33.8633 26C33.8633 25.5667 34.0049 25.2083 34.2883 24.925C34.5716 24.6417 34.9299 24.5 35.3633 24.5C36.6299 24.5 37.6966 24.0333 38.5633 23.1C39.4299 22.1667 39.8633 21.05 39.8633 19.75C39.8633 18.4833 39.3966 17.4 38.4633 16.5C37.5299 15.6 36.4633 15.1167 35.2633 15.05C34.9299 15.85 34.4549 16.5583 33.8383 17.175C33.2216 17.7917 32.5133 18.25 31.7133 18.55C31.3133 18.7167 30.9299 18.7083 30.5633 18.525C30.1966 18.3417 29.9466 18.05 29.8133 17.65C29.6799 17.25 29.6966 16.8583 29.8633 16.475C30.0299 16.0917 30.3133 15.8333 30.7133 15.7C31.3133 15.5 31.8049 15.1 32.1883 14.5C32.5716 13.9 32.7633 13.2167 32.7633 12.45C32.7633 11.4833 32.4466 10.6667 31.8133 10C31.1799 9.33333 30.4299 9 29.5633 9C28.6966 9 27.9466 9.29167 27.3133 9.875C26.6799 10.4583 26.3633 11.1667 26.3633 12ZM23.3633 36V12C23.3633 11.1667 23.0549 10.4583 22.4383 9.875C21.8216 9.29167 21.0633 9 20.1633 9C19.2966 9 18.5383 9.33333 17.8883 10C17.2383 10.6667 16.9133 11.4833 16.9133 12.45C16.9133 13.2167 17.0966 13.8917 17.4633 14.475C17.8299 15.0583 18.3133 15.45 18.9133 15.65C19.3133 15.7833 19.6049 16.0417 19.7883 16.425C19.9716 16.8083 19.9966 17.1833 19.8633 17.55C19.6966 17.95 19.4216 18.25 19.0383 18.45C18.6549 18.65 18.2633 18.6667 17.8633 18.5C17.0633 18.2333 16.3633 17.7917 15.7633 17.175C15.1633 16.5583 14.6966 15.85 14.3633 15.05C13.1966 15.15 12.1549 15.6417 11.2383 16.525C10.3216 17.4083 9.86328 18.4833 9.86328 19.75C9.86328 21.05 10.2966 22.1667 11.1633 23.1C12.0299 24.0333 13.0966 24.5 14.3633 24.5C14.7966 24.5 15.1549 24.6417 15.4383 24.925C15.7216 25.2083 15.8633 25.5667 15.8633 26C15.8633 26.4333 15.7216 26.7917 15.4383 27.075C15.1549 27.3583 14.7966 27.5 14.3633 27.5C13.5966 27.5 12.8549 27.3833 12.1383 27.15C11.4216 26.9167 10.7633 26.6 10.1633 26.2C10.0633 26.4667 9.98828 26.75 9.93828 27.05C9.88828 27.35 9.86328 27.65 9.86328 27.95C9.86328 29.3833 10.3049 30.5583 11.1883 31.475C12.0716 32.3917 13.1466 32.85 14.4133 32.85C15.1466 32.85 15.8383 32.6833 16.4883 32.35C17.1383 32.0167 17.6799 31.5667 18.1133 31C18.3799 30.6667 18.7133 30.4583 19.1133 30.375C19.5133 30.2917 19.8799 30.3833 20.2133 30.65C20.5466 30.9167 20.7549 31.25 20.8383 31.65C20.9216 32.05 20.8299 32.4167 20.5633 32.75C20.0966 33.4167 19.5383 33.975 18.8883 34.425C18.2383 34.875 17.5299 35.2333 16.7633 35.5C16.8299 36.3 17.1799 37.0833 17.8133 37.85C18.4466 38.6167 19.2133 39 20.1133 39C21.0133 39 21.7799 38.7083 22.4133 38.125C23.0466 37.5417 23.3633 36.8333 23.3633 36Z" fill="#003649"/>
</g>
</svg>
