<svg width="95" height="95" viewBox="0 0 95 95" fill="none" xmlns="http://www.w3.org/2000/svg">
<g id="Group 163">
<rect id="Rectangle 43" x="0.5" y="0.5" width="94" height="94" stroke="#D9D9D9"/>
<g id="block">
<mask id="mask0_14858_9918" style="mask-type:alpha" maskUnits="userSpaceOnUse" x="16" y="16" width="64" height="64">
<rect id="Bounding box" x="16" y="16" width="64" height="64" fill="#D9D9D9"/>
</mask>
<g mask="url(#mask0_14858_9918)">
<path id="block_2" d="M48.0026 74.6668C44.3137 74.6668 40.847 73.9668 37.6026 72.5668C34.3582 71.1668 31.5359 69.2668 29.1359 66.8668C26.7359 64.4668 24.8359 61.6446 23.4359 58.4002C22.0359 55.1557 21.3359 51.6891 21.3359 48.0002C21.3359 44.3113 22.0359 40.8446 23.4359 37.6002C24.8359 34.3557 26.7359 31.5335 29.1359 29.1335C31.5359 26.7335 34.3582 24.8335 37.6026 23.4335C40.847 22.0335 44.3137 21.3335 48.0026 21.3335C51.6915 21.3335 55.1582 22.0335 58.4026 23.4335C61.647 24.8335 64.4693 26.7335 66.8693 29.1335C69.2693 31.5335 71.1693 34.3557 72.5693 37.6002C73.9693 40.8446 74.6693 44.3113 74.6693 48.0002C74.6693 51.6891 73.9693 55.1557 72.5693 58.4002C71.1693 61.6446 69.2693 64.4668 66.8693 66.8668C64.4693 69.2668 61.647 71.1668 58.4026 72.5668C55.1582 73.9668 51.6915 74.6668 48.0026 74.6668ZM48.0026 69.3335C50.4026 69.3335 52.7137 68.9446 54.9359 68.1668C57.1582 67.389 59.2026 66.2668 61.0693 64.8002L31.2026 34.9335C29.7359 36.8002 28.6137 38.8446 27.8359 41.0668C27.0582 43.2891 26.6693 45.6002 26.6693 48.0002C26.6693 53.9557 28.7359 59.0002 32.8693 63.1335C37.0026 67.2668 42.047 69.3335 48.0026 69.3335ZM64.8026 61.0668C66.2693 59.2002 67.3915 57.1557 68.1693 54.9335C68.947 52.7113 69.3359 50.4002 69.3359 48.0002C69.3359 42.0446 67.2693 37.0002 63.1359 32.8668C59.0026 28.7335 53.9582 26.6668 48.0026 26.6668C45.6026 26.6668 43.2915 27.0557 41.0693 27.8335C38.847 28.6113 36.8026 29.7335 34.9359 31.2002L64.8026 61.0668Z" fill="#D9D9D9"/>
</g>
</g>
</g>
</svg>
