<svg width="129" height="260" viewBox="0 0 129 260" fill="none" xmlns="http://www.w3.org/2000/svg">
<path d="M85.5461 120.909C85.1083 120.721 85.1288 120.762 84.6558 120.705C84.1825 120.647 84.1773 120.69 83.704 120.632C83.2307 120.575 83.2346 120.543 82.7613 120.485C82.2882 120.427 82.2782 120.51 81.8052 120.452C81.3323 120.395 81.354 120.216 80.8811 120.159C80.4082 120.101 80.4119 120.07 79.939 120.013C79.4659 119.955 79.4638 119.973 78.9907 119.916C78.5172 119.858 78.5244 119.799 78.051 119.741C77.5777 119.684 77.5726 119.726 77.0993 119.668C76.6262 119.61 76.5956 119.862 76.1225 119.804C75.6494 119.747 75.6641 119.626 75.191 119.569C74.7178 119.511 74.7212 119.483 74.248 119.425C73.7744 119.368 73.7573 119.508 73.2837 119.45C72.8105 119.392 72.8457 119.103 72.3724 119.046C71.8992 118.988 71.8731 119.203 71.3999 119.145C70.9265 119.088 70.9424 118.957 70.469 118.899C69.9955 118.842 70.0138 118.691 69.5403 118.634C69.067 118.576 69.0619 118.618 68.5886 118.56C68.1152 118.503 68.1108 118.539 67.6374 118.482C67.1639 118.424 67.1569 118.482 66.6835 118.424C66.2107 118.367 66.2021 118.438 65.7294 118.38C65.2569 118.323 65.2719 118.2 64.7994 118.142C64.3267 118.085 64.2972 118.328 63.8245 118.27C63.351 118.213 63.3783 117.989 62.9049 117.931C62.4315 117.873 62.4377 117.823 61.9643 117.765C61.4913 117.708 61.4776 117.821 61.0046 117.763C60.5314 117.706 60.5246 117.761 60.0513 117.704C59.5775 117.646 59.5975 117.482 59.1237 117.424C58.6504 117.367 58.6549 117.33 58.1816 117.273C57.7077 117.215 57.6986 117.29 57.2248 117.233C56.7512 117.175 56.7232 117.405 56.2496 117.348C55.7756 117.29 55.7972 117.112 55.3232 117.055C54.8495 116.997 54.8255 117.194 54.3518 117.136C53.8778 117.079 53.9082 116.829 53.4342 116.771C52.9601 116.714 52.9298 116.962 52.4557 116.905C51.9825 116.847 51.999 116.711 51.5258 116.654C51.0521 116.596 51.0739 116.416 50.6001 116.359C50.1258 116.301 50.1004 116.51 49.6261 116.452C49.1517 116.394 49.1721 116.227 48.6977 116.169C48.2232 116.112 48.1895 116.388 47.715 116.331C47.2397 116.273 47.2533 116.161 46.778 116.103C46.3027 116.046 46.2734 115.693 45.8058 115.796C45.8575 116.109 46.0236 116.541 46.0737 116.854C46.1238 117.168 45.9745 117.512 46.0229 117.826C46.0712 118.14 46.3135 118.424 46.3601 118.738C46.4067 119.052 46.2888 119.39 46.3337 119.705C46.3786 120.019 46.6847 120.297 46.7279 120.612C46.771 120.926 46.655 121.263 46.6965 121.577C46.7379 121.892 46.9103 122.191 46.95 122.506C46.9897 122.821 47.0262 123.137 47.0642 123.452C47.1022 123.767 47.1559 124.082 47.1922 124.397C47.2284 124.712 47.0288 125.055 47.0634 125.37C47.0979 125.686 47.2916 125.984 47.3244 126.3C47.3572 126.616 47.4613 126.925 47.4924 127.242C47.5234 127.557 47.4027 127.888 47.4321 128.205C47.4614 128.521 47.5439 128.832 47.5715 129.149C47.5991 129.465 47.3758 129.802 47.4017 130.119C47.4276 130.435 47.781 130.726 47.8052 131.042C47.8293 131.359 47.7433 131.684 47.7657 132.001C47.7881 132.317 47.7538 132.638 47.7745 132.955C47.7952 133.272 47.9716 133.579 47.9905 133.896C48.0095 134.213 47.8394 134.541 47.8566 134.858C47.8738 135.175 47.8741 135.493 47.8896 135.81C47.9051 136.127 48.0101 136.44 48.0239 136.758C48.0376 137.075 48.0556 137.392 48.0676 137.709C48.0796 138.027 48.0335 138.346 48.0438 138.663C48.0541 138.981 47.9526 139.301 47.9612 139.619C47.9697 139.936 47.9736 140.253 47.9804 140.57C47.9873 140.888 47.954 141.205 47.9591 141.523C47.9642 141.84 47.9591 142.157 47.9625 142.474C47.9658 142.792 48.2588 143.107 48.2605 143.425C48.2621 143.742 48.2531 144.06 48.253 144.378C48.2529 144.695 48.3539 145.014 48.352 145.332C48.3502 145.649 48.0793 145.965 48.0758 146.282C48.0722 146.6 48.0805 146.917 48.0752 147.235C48.0699 147.552 48.285 147.874 48.278 148.192C48.271 148.509 48.2438 148.827 48.2351 149.145C48.2264 149.462 48.0101 149.774 47.9996 150.091C47.9892 150.408 48.23 150.735 48.2178 151.053C48.2056 151.37 47.9635 151.678 47.9496 151.995C47.9357 152.312 47.8766 152.627 47.861 152.944C47.8454 153.261 47.8466 153.579 47.8293 153.896C47.812 154.213 47.9774 154.54 47.9584 154.857C47.9394 155.174 47.704 155.477 47.6833 155.794C47.6625 156.111 47.6315 156.427 47.609 156.744C47.5866 157.06 47.7081 157.387 47.6839 157.704C47.6598 158.02 47.5134 158.327 47.4875 158.644C47.4617 158.96 47.3489 159.269 47.3213 159.585C47.2938 159.901 47.2829 160.218 47.2537 160.535C47.2244 160.851 47.1923 161.166 47.1614 161.482C47.1304 161.798 47.1201 162.115 47.0874 162.432C47.0548 162.747 47.2791 163.09 47.2448 163.406C47.2105 163.722 47.2131 164.043 47.177 164.358C47.1411 164.674 47.0134 164.979 46.9757 165.295C46.938 165.61 46.6713 165.897 46.6319 166.213C46.5925 166.528 46.6268 166.851 46.5857 167.167C46.5447 167.481 46.6112 167.81 46.5684 168.125C46.5257 168.439 46.6401 168.776 46.5957 169.091C46.5513 169.405 46.4984 169.719 46.4523 170.034C46.4063 170.348 46.2616 170.648 46.2138 170.962C46.1661 171.276 46.0878 171.585 46.0384 171.899C45.989 172.213 45.7167 172.491 45.6656 172.804C45.6146 173.118 45.7635 173.464 45.7107 173.777C45.658 174.091 45.5732 174.398 45.5188 174.712C45.4645 175.025 45.4415 175.343 45.3855 175.656C45.3295 175.969 45.4204 176.308 45.3627 176.621C45.3051 176.933 45.2464 177.246 45.1871 177.558C45.1278 177.87 45.0228 178.174 44.9618 178.486C44.9009 178.798 44.7831 179.099 44.7205 179.411C44.658 179.722 44.6311 180.041 44.5669 180.353C44.5027 180.664 44.4481 180.978 44.3822 181.289C44.3164 181.599 44.2966 181.921 44.2291 182.232C44.1617 182.542 44.0773 182.851 44.0081 183.161C43.9403 183.466 43.873 183.78 43.7958 184.093C43.721 184.396 43.3972 184.641 43.3139 184.952C43.2328 185.255 43.2512 185.588 43.1625 185.897C43.0759 186.199 42.9375 186.488 42.8439 186.796C42.7525 187.096 42.7912 187.441 42.6933 187.747C42.5974 188.046 42.503 188.351 42.4011 188.655C42.3012 188.953 42.2208 189.263 42.1153 189.565C42.0118 189.863 41.8846 190.156 41.7759 190.457C41.669 190.753 41.5574 191.052 41.4457 191.352C41.3358 191.647 41.307 191.978 41.1926 192.276C41.0799 192.571 40.6565 192.748 40.5396 193.046C40.4243 193.339 40.6136 193.757 40.4944 194.053C40.3767 194.346 39.8967 194.494 39.7753 194.79C39.6556 195.082 39.7979 195.484 39.6748 195.778C39.5529 196.069 39.3744 196.338 39.2495 196.631C39.1256 196.922 38.8815 197.162 38.7547 197.455C38.6291 197.745 38.757 198.147 38.6286 198.439C38.5012 198.728 38.2283 198.955 38.0984 199.246C37.9694 199.535 37.9604 199.88 37.8291 200.17C37.6985 200.458 37.3098 200.631 37.1771 200.92C37.0451 201.208 36.8938 201.488 36.7598 201.777C36.6265 202.064 36.5873 202.396 36.4521 202.685C36.3175 202.972 36.0677 203.205 35.9313 203.493C35.7955 203.78 35.9837 204.221 35.8463 204.509C35.7093 204.795 35.5166 205.056 35.3782 205.343C35.2402 205.629 35.0102 205.871 34.8708 206.157C34.7319 206.442 34.6233 206.743 34.4832 207.029C34.3434 207.314 34.1078 207.552 33.9669 207.837C33.8261 208.122 33.8468 208.487 33.7051 208.772C33.5634 209.057 33.3445 209.303 33.202 209.588C33.0594 209.872 32.7618 210.079 32.6185 210.363C32.4752 210.647 32.5487 211.041 32.4048 211.324C32.2607 211.608 31.9541 211.81 31.8095 212.093C31.6648 212.377 31.5536 212.677 31.4085 212.96C31.2631 213.244 31.0116 213.473 30.8659 213.756C30.7199 214.039 30.7352 214.405 30.589 214.688C30.4425 214.971 30.3435 215.278 30.1969 215.561C30.0498 215.844 29.946 216.149 29.799 216.431C29.6514 216.714 29.3479 216.915 29.2006 217.196C29.0525 217.479 29.0707 217.848 28.923 218.129C28.7746 218.412 28.6038 218.682 28.4559 218.963C28.3071 219.246 28.0553 219.473 27.9072 219.754C27.7582 220.036 27.7619 220.398 27.6136 220.678C27.4642 220.961 27.2531 221.209 27.1047 221.489C26.9551 221.772 26.5343 221.909 26.3859 222.189C26.2361 222.471 26.0907 222.754 25.9422 223.033C25.7923 223.315 25.8183 223.689 25.6699 223.968C25.5199 224.251 25.3539 224.522 25.2056 224.801C25.0554 225.084 25.0202 225.425 24.8719 225.704C24.7217 225.987 24.6206 226.293 24.4724 226.572C24.3221 226.855 24.1846 227.142 24.0366 227.421C23.8864 227.704 23.4001 227.807 23.2524 228.085C23.1021 228.369 23.1136 228.735 22.9661 229.014C22.8162 229.298 22.5684 229.527 22.4216 229.806C22.272 230.09 22.2181 230.42 22.072 230.699C21.9226 230.983 21.7188 231.236 21.5732 231.515C21.4242 231.8 21.1916 232.038 21.047 232.316C20.8987 232.602 21.0733 233.049 20.9299 233.328C20.782 233.615 20.5202 233.837 20.3778 234.116C20.2311 234.403 19.9015 234.592 19.7609 234.87C19.6152 235.158 19.625 235.488 19.4862 235.767C19.9082 235.977 19.9572 235.734 20.4251 235.794C20.8932 235.853 20.8667 236.06 21.3348 236.12C21.8032 236.18 21.8183 236.063 22.2867 236.123C22.7548 236.183 22.7609 236.135 23.229 236.195C23.697 236.255 23.6678 236.483 24.1358 236.543C24.6041 236.603 24.6267 236.426 25.0949 236.486C25.5633 236.546 25.537 236.751 26.0054 236.811C26.4735 236.871 26.5025 236.644 26.9706 236.704C27.4388 236.764 27.4358 236.788 27.904 236.848C28.3723 236.908 28.3579 237.02 28.8262 237.08C29.2938 237.14 29.3148 236.976 29.7823 237.036C30.2497 237.095 30.2392 237.177 30.7066 237.237C31.1741 237.296 31.1904 237.169 31.6579 237.229C32.1262 237.289 32.0969 237.517 32.5652 237.577C33.0334 237.637 33.0652 237.389 33.5334 237.449C34.0012 237.508 33.9622 237.813 34.43 237.873C34.8981 237.933 34.9378 237.623 35.4059 237.683C35.8745 237.743 35.8405 238.009 36.3091 238.069C36.7772 238.128 36.7895 238.033 37.2576 238.093C37.7263 238.153 37.712 238.264 38.1806 238.324C38.649 238.384 38.6753 238.179 39.1437 238.239C39.6126 238.299 39.6122 238.302 40.0811 238.362C40.5496 238.422 40.5293 238.58 40.9979 238.64C41.4666 238.7 41.455 238.792 41.9238 238.852C42.3928 238.912 42.4414 238.532 42.9104 238.592C43.3784 238.652 43.3573 238.817 43.8253 238.876C44.2939 238.936 44.3109 238.804 44.7795 238.864C45.2486 238.924 45.2497 238.915 45.7189 238.975C46.1881 239.035 46.1649 239.216 46.6342 239.276C46.947 239.316 47.2599 239.356 47.5728 239.396C48.0429 239.456 48.0603 239.321 48.5304 239.381C49.0005 239.441 48.993 239.491 49.4639 239.545C49.9523 239.601 49.9547 239.568 50.4438 239.618C50.9332 239.668 50.9115 239.88 51.4009 239.93C51.8904 239.98 51.8834 240.049 52.373 240.099C52.8616 240.149 52.8674 240.092 53.3559 240.142C53.8451 240.192 53.8629 240.017 54.3521 240.067C54.8419 240.117 54.8469 240.068 55.3366 240.118C55.8264 240.168 55.8277 240.155 56.3175 240.205C56.8074 240.255 56.7842 240.483 57.2741 240.533C57.7648 240.583 57.7951 240.287 58.2858 240.337C58.7765 240.387 58.7394 240.569 59.2266 240.492C59.3655 240.213 59.4306 240.014 59.5764 239.726C59.7171 239.448 60.0666 239.27 60.2133 238.982C60.3555 238.704 60.3941 238.367 60.5416 238.081C60.685 237.803 60.8613 237.537 61.0095 237.251C61.1539 236.973 61.2195 236.649 61.3683 236.365C61.5135 236.086 61.7561 235.855 61.9053 235.571C62.0513 235.292 62.2159 235.02 62.3654 234.737C62.512 234.458 62.5378 234.113 62.6875 233.829C62.8346 233.551 62.9653 233.261 63.1153 232.978C63.2627 232.699 63.3462 232.384 63.4963 232.101C63.644 231.823 63.7697 231.53 63.9198 231.247C64.0678 230.968 64.4795 230.827 64.6296 230.545C64.7774 230.267 64.6587 229.845 64.8084 229.563C64.9564 229.285 65.2621 229.088 65.4117 228.806C65.5598 228.528 65.88 228.339 66.0295 228.057C66.1776 227.778 66.1966 227.429 66.346 227.147C66.4941 226.868 66.5533 226.54 66.7025 226.259C66.8506 225.979 67.1967 225.803 67.3457 225.521C67.4936 225.242 67.6363 224.958 67.785 224.676C67.9328 224.396 67.9647 224.053 68.1132 223.771C68.2608 223.491 68.4093 223.21 68.5574 222.928C68.7047 222.647 68.7217 222.297 68.8695 222.015C69.0165 221.734 69.3857 221.568 69.5331 221.286C69.6798 221.005 69.8229 220.721 69.9698 220.438C70.1159 220.157 70.1273 219.805 70.2734 219.523C70.4192 219.241 70.6124 218.984 70.758 218.701C70.9034 218.419 71.1632 218.195 71.3083 217.912C71.4532 217.629 71.5328 217.313 71.6773 217.029C71.8218 216.746 71.7492 216.353 71.8932 216.069C72.0371 215.786 72.4335 215.63 72.5768 215.346C72.7202 215.061 72.7818 214.736 72.9244 214.452C73.0671 214.167 73.135 213.845 73.2769 213.56C73.4189 213.275 73.7161 213.067 73.8571 212.782C73.9984 212.496 73.9509 212.118 74.091 211.832C74.2315 211.546 74.2909 211.221 74.4301 210.935C74.5697 210.649 74.8459 210.429 74.9841 210.142C75.1228 209.855 75.2812 209.578 75.4184 209.291C75.5562 209.003 75.5777 208.661 75.7138 208.374C75.8505 208.085 76.0749 207.839 76.2098 207.552C76.3454 207.263 76.6546 207.055 76.7883 206.767C76.9227 206.477 76.966 206.146 77.0983 205.857C77.2314 205.567 77.3855 205.287 77.5164 204.998C77.6481 204.707 77.617 204.344 77.7463 204.054C77.8766 203.762 78.1139 203.52 78.2416 203.23C78.3704 202.937 78.5964 202.688 78.7224 202.398C78.8495 202.104 78.8439 201.755 78.9681 201.464C79.0934 201.17 79.1493 200.849 79.2715 200.557C79.3949 200.262 79.7758 200.076 79.8959 199.783C80.0174 199.487 79.8392 199.072 79.9571 198.778C80.0765 198.481 80.3207 198.237 80.4363 197.942C80.5534 197.644 80.6218 197.33 80.7347 197.035C80.8493 196.735 81.039 196.467 81.1492 196.171C81.2611 195.871 81.2054 195.512 81.3126 195.215C81.4214 194.913 81.7345 194.687 81.8382 194.389C81.9438 194.086 81.8314 193.713 81.9314 193.414C82.0335 193.109 82.3267 192.871 82.4228 192.572C82.5209 192.266 82.4121 191.899 82.5037 191.599C82.5974 191.291 82.909 191.053 82.9956 190.751C83.0845 190.441 83.1798 190.136 83.261 189.833C83.3443 189.523 83.4329 189.216 83.5077 188.913C83.5848 188.6 83.6231 188.281 83.6909 187.977C83.76 187.667 83.9624 187.385 84.0297 187.075C84.0972 186.765 84.0036 186.419 84.0693 186.109C84.1352 185.798 84.2666 185.5 84.3307 185.189C84.3949 184.878 84.3807 184.551 84.4432 184.24C84.5057 183.928 84.6682 183.636 84.7291 183.325C84.7901 183.012 84.827 182.695 84.8863 182.383C84.9456 182.071 84.9737 181.752 85.0313 181.44C85.089 181.127 84.9617 180.781 85.0177 180.469C85.0737 180.156 85.3355 179.879 85.3898 179.566C85.4443 179.253 85.5652 178.951 85.6179 178.638C85.6707 178.324 85.4881 177.972 85.5392 177.658C85.5903 177.344 85.6022 177.025 85.6516 176.711C85.701 176.397 85.7342 176.082 85.7819 175.768C85.8297 175.453 85.9827 175.155 86.0287 174.841C86.0748 174.527 86.0682 174.205 86.1126 173.891C86.1571 173.576 86.1908 173.26 86.2335 172.946C86.2763 172.631 86.4622 172.335 86.5032 172.02C86.5443 171.705 86.4938 171.378 86.5331 171.063C86.5725 170.748 86.6713 170.44 86.709 170.125C86.7467 169.809 86.9369 169.511 86.9728 169.196C87.0089 168.88 86.9577 168.554 86.992 168.238C87.0263 167.922 87.0524 167.605 87.0851 167.289C87.1177 166.973 87.0033 166.642 87.0342 166.326C87.0652 166.01 87.0631 165.691 87.0924 165.375C87.1216 165.059 87.3475 164.76 87.375 164.444C87.4026 164.127 87.2249 163.794 87.2507 163.477C87.2766 163.161 87.2591 162.841 87.2833 162.525C87.3074 162.208 87.6322 161.913 87.6546 161.597C87.6771 161.28 87.3831 160.941 87.4038 160.625C87.4245 160.308 87.6057 160.001 87.6247 159.684C87.6438 159.367 87.7743 159.056 87.7916 158.739C87.8089 158.422 87.5527 158.091 87.5683 157.774C87.5839 157.457 87.6389 157.142 87.6528 156.825C87.6666 156.507 87.789 156.195 87.8011 155.878C87.8133 155.56 87.9547 155.247 87.9651 154.93C87.9755 154.613 87.929 154.293 87.9377 153.976C87.9464 153.658 87.7501 153.336 87.7571 153.019C87.7641 152.701 87.7139 152.383 87.7191 152.066C87.7244 151.748 87.8294 151.433 87.8329 151.115C87.8365 150.798 87.8758 150.481 87.8776 150.163C87.8794 149.845 88.0782 149.528 88.0783 149.211C88.0784 148.893 88.003 148.575 88.0014 148.257C87.9998 147.94 87.8826 147.623 87.8792 147.306C87.8758 146.988 87.7853 146.672 87.7802 146.355C87.7751 146.037 87.9933 145.715 87.9865 145.398C87.9797 145.08 87.8389 144.766 87.8303 144.449C87.8218 144.131 87.7334 143.816 87.7231 143.499C87.7128 143.182 87.8659 142.859 87.8539 142.542C87.8418 142.224 87.9617 141.901 87.948 141.584C87.9342 141.266 87.8211 140.953 87.8056 140.636C87.7901 140.319 87.6039 140.011 87.5867 139.694C87.5694 139.377 87.7042 139.051 87.6852 138.734C87.6663 138.417 87.4313 138.114 87.4106 137.797C87.39 137.48 87.6756 137.143 87.6532 136.826C87.6308 136.509 87.6265 136.19 87.6023 135.874C87.5782 135.557 87.2871 135.261 87.2613 134.945C87.2354 134.628 87.2846 134.306 87.257 133.989C87.2293 133.673 87.0454 133.371 87.0161 133.055C86.9867 132.739 86.9583 132.424 86.9273 132.108C86.8962 131.792 86.95 131.468 86.9172 131.152C86.8844 130.836 86.8878 130.517 86.8533 130.202C86.8187 129.886 86.727 129.577 86.6908 129.262C86.6545 128.947 86.8159 128.608 86.7779 128.293C86.7399 127.978 86.6882 127.664 86.6485 127.349C86.6087 127.034 86.4664 126.732 86.425 126.417C86.3836 126.102 86.3624 125.785 86.3193 125.471C86.2761 125.156 86.4027 124.817 86.3578 124.503C86.3129 124.189 86.2501 123.876 86.2035 123.562C86.1569 123.248 86.026 122.946 85.9777 122.633C85.9294 122.319 85.8069 122.017 85.7568 121.703C85.7068 121.39 85.5978 121.222 85.5461 120.909Z" fill="#E40524"/>
<path d="M118.878 111.764C118.427 111.634 118.383 111.773 117.913 111.773C117.444 111.773 117.444 111.875 116.974 111.875C116.505 111.875 116.505 111.854 116.036 111.854C115.566 111.854 115.566 111.682 115.097 111.682C114.627 111.682 114.627 111.699 114.158 111.699C113.688 111.699 113.688 111.783 113.218 111.783C112.748 111.783 112.748 111.857 112.279 111.857C111.809 111.857 111.809 111.828 111.34 111.828C110.87 111.828 110.87 111.708 110.401 111.708C109.931 111.708 109.931 111.955 109.461 111.955C108.991 111.955 108.991 112.043 108.521 112.043C108.052 112.043 108.052 111.697 107.582 111.697C107.112 111.697 107.112 111.94 106.643 111.94C106.173 111.94 106.173 111.915 105.703 111.915C105.233 111.915 105.233 111.948 104.763 111.948C104.293 111.948 104.293 111.724 103.824 111.724C103.354 111.724 103.354 112.002 102.884 112.002C102.414 112.002 102.414 111.858 101.944 111.858C101.475 111.858 101.475 111.944 101.006 111.944C100.537 111.944 100.537 111.671 100.068 111.671C99.5991 111.671 99.5991 111.739 99.13 111.739C98.6601 111.739 98.6601 111.707 98.1903 111.707C97.7205 111.707 97.7205 111.956 97.2507 111.956C96.7813 111.956 96.7813 111.671 96.312 111.671C95.8423 111.671 95.8423 111.817 95.3726 111.817C94.9023 111.817 94.9023 112.022 94.4321 112.022C93.9624 112.022 93.9624 111.934 93.4927 111.934C93.0224 111.934 93.0224 111.985 92.5522 111.985C92.0822 111.985 92.0822 111.935 91.6122 111.935C91.1418 111.935 91.1418 111.732 90.6713 111.732C90.2012 111.732 90.2012 111.98 89.731 111.98C89.2606 111.98 89.2606 111.696 88.7903 111.696C88.3197 111.696 88.3197 111.736 87.8491 111.736C87.3795 111.736 87.3795 111.679 86.9099 111.679C86.4397 111.679 86.4397 111.778 85.9695 111.778C85.4988 111.778 85.4988 111.861 85.028 111.861C84.5572 111.861 84.5572 111.836 84.0864 111.836C83.6155 111.836 83.6155 111.858 83.1446 111.858C82.6729 111.858 82.6729 111.97 82.2012 111.97C81.7295 111.97 81.7156 111.732 81.2713 111.891C81.366 112.193 81.3632 112.484 81.4564 112.787C81.5496 113.09 81.615 113.401 81.7067 113.705C81.7983 114.008 82.1499 114.234 82.2401 114.538C82.3302 114.842 82.2386 115.2 82.3272 115.504C82.4157 115.809 82.3775 116.149 82.4645 116.454C82.5515 116.759 82.7322 117.037 82.8176 117.342C82.903 117.648 83.0444 117.937 83.1283 118.243C83.2121 118.549 83.3848 118.831 83.4671 119.137C83.5494 119.443 83.6543 119.744 83.735 120.051C83.8157 120.358 83.7428 120.704 83.822 121.012C83.9011 121.319 84.1693 121.578 84.2469 121.885C84.3244 122.193 84.255 122.537 84.331 122.845C84.4069 123.153 84.484 123.461 84.5584 123.769C84.6327 124.077 84.5153 124.431 84.5881 124.739C84.6608 125.048 84.9364 125.309 85.0076 125.618C85.0788 125.927 85.1396 126.238 85.2093 126.548C85.2788 126.857 85.2266 127.193 85.2946 127.503C85.3626 127.813 85.6831 128.068 85.7495 128.378C85.8159 128.688 85.7319 129.03 85.7967 129.341C85.8615 129.651 86.0675 129.933 86.1308 130.244C86.194 130.554 86.0918 130.899 86.1535 131.21C86.2151 131.521 86.3423 131.819 86.4024 132.131C86.4624 132.442 86.6826 132.723 86.7411 133.035C86.7995 133.347 86.826 133.665 86.8829 133.978C86.9397 134.289 86.7075 134.653 86.7628 134.966C86.818 135.278 87.134 135.545 87.1876 135.858C87.2412 136.17 86.9753 136.537 87.0273 136.849C87.0793 137.162 87.2034 137.463 87.2538 137.776C87.3042 138.089 87.446 138.387 87.4948 138.701C87.5436 139.014 87.6464 139.319 87.6936 139.633C87.7408 139.946 87.7469 140.266 87.7925 140.58C87.838 140.894 88.0564 141.184 88.1004 141.498C88.1443 141.812 88.2078 142.124 88.2502 142.439C88.2925 142.753 88.0886 143.1 88.1293 143.415C88.17 143.729 88.1018 144.057 88.1409 144.372C88.18 144.687 88.525 144.964 88.5625 145.279C88.5999 145.594 88.6871 145.904 88.723 146.219C88.7589 146.534 88.7691 146.852 88.8034 147.168C88.8376 147.483 88.5148 147.836 88.5475 148.151C88.5801 148.467 88.9611 148.747 88.9921 149.063C89.0231 149.378 88.937 149.705 88.9664 150.021C88.9958 150.337 88.8231 150.671 88.8509 150.987C88.8787 151.303 89.2239 151.591 89.2501 151.907C89.2763 152.223 89.0559 152.559 89.0805 152.876C89.105 153.192 89.2126 153.502 89.2355 153.818C89.2585 154.134 89.4127 154.442 89.4341 154.758C89.4554 155.075 89.3048 155.402 89.3246 155.719C89.3443 156.036 89.577 156.34 89.5951 156.657C89.6133 156.973 89.4392 157.301 89.4557 157.618C89.4722 157.934 89.5338 158.249 89.5487 158.566C89.5635 158.883 89.6663 159.196 89.6796 159.513C89.6929 159.83 89.4853 160.155 89.497 160.473C89.5087 160.79 89.6481 161.102 89.6581 161.419C89.6682 161.736 89.4688 162.059 89.4772 162.376C89.4856 162.693 89.5912 163.007 89.5981 163.324C89.6049 163.641 89.6611 163.957 89.6663 164.274C89.6715 164.591 89.7717 164.907 89.7754 165.224C89.779 165.541 89.6163 165.86 89.6183 166.177C89.6204 166.494 89.8794 166.811 89.8798 167.128C89.8802 167.445 89.8588 167.763 89.8576 168.08C89.8564 168.397 89.7448 168.714 89.742 169.032C89.7392 169.349 89.5175 169.663 89.5131 169.981C89.5087 170.298 89.8443 170.621 89.8383 170.938C89.8323 171.255 89.7394 171.571 89.7318 171.888C89.7242 172.205 89.4796 172.516 89.4704 172.833C89.4612 173.15 89.7636 173.477 89.7528 173.794C89.742 174.111 89.6666 174.426 89.6542 174.744C89.6419 175.06 89.6583 175.379 89.6443 175.696C89.6303 176.013 89.6646 176.333 89.649 176.65C89.6334 176.967 89.3979 177.273 89.3808 177.59C89.3636 177.907 89.285 178.22 89.2662 178.537C89.2476 178.852 89.4443 179.18 89.4241 179.494C89.4039 179.808 89.4056 180.124 89.3838 180.438C89.3621 180.753 89.3799 181.07 89.3566 181.384C89.3333 181.698 89.0187 181.99 88.9939 182.304C88.969 182.618 89.1282 182.946 89.1018 183.26C89.0754 183.574 89.1528 183.897 89.1248 184.211C89.0969 184.524 88.8044 184.814 88.7749 185.127C88.7453 185.441 89.016 185.783 88.9849 186.097C88.9538 186.41 88.6679 186.698 88.6353 187.011C88.6026 187.324 88.6183 187.642 88.5841 187.955C88.5498 188.268 88.3859 188.566 88.3501 188.879C88.3143 189.192 88.4003 189.518 88.3629 189.831C88.3255 190.143 88.2732 190.454 88.2343 190.766C88.1953 191.079 88.133 191.388 88.0925 191.7C88.052 192.012 87.9194 192.312 87.8773 192.623C87.8352 192.936 87.8897 193.26 87.8461 193.572C87.8024 193.884 87.9519 194.223 87.9067 194.535C87.8614 194.846 87.4896 195.109 87.4428 195.42C87.396 195.732 87.4738 196.062 87.4254 196.372C87.3771 196.684 87.3115 196.992 87.2616 197.302C87.2116 197.613 87.0895 197.911 87.038 198.222C86.9865 198.533 87.1502 198.879 87.0971 199.19C87.044 199.5 86.9223 199.799 86.8677 200.109C86.8131 200.419 86.9122 200.757 86.856 201.067C86.7998 201.377 86.5985 201.66 86.5407 201.97C86.4829 202.279 86.3016 202.565 86.2423 202.874C86.1829 203.183 86.0823 203.484 86.0214 203.793C85.9604 204.102 85.867 204.403 85.8046 204.712C85.7421 205.02 85.8515 205.363 85.7875 205.672C85.7234 205.98 85.7199 206.301 85.6544 206.609C85.5887 206.917 85.5576 207.232 85.4905 207.54C85.4233 207.847 85.2463 208.131 85.1776 208.438C85.1089 208.745 85.1333 209.073 85.063 209.38C84.9927 209.687 84.8915 209.987 84.8197 210.293C84.7479 210.6 84.7219 210.917 84.6486 211.223C84.5752 211.53 84.2459 211.773 84.171 212.079C84.0961 212.385 84.2753 212.753 84.1989 213.058C84.1223 213.364 84.0491 213.67 83.9711 213.975C83.893 214.28 83.9184 214.613 83.8388 214.917C83.7592 215.222 83.5 215.479 83.4188 215.783C83.3376 216.088 83.1253 216.356 83.0426 216.66C82.9599 216.964 82.9378 217.284 82.8536 217.587C82.7693 217.89 82.6727 218.189 82.587 218.492C82.5012 218.795 82.3951 219.092 82.3078 219.394C82.2205 219.696 82.2895 220.044 82.2007 220.346C82.1118 220.648 81.8762 220.906 81.7858 221.208C81.6954 221.509 81.7231 221.846 81.6312 222.147C81.5392 222.448 81.4129 222.739 81.3195 223.039C81.226 223.34 80.9414 223.58 80.8464 223.88C80.7514 224.18 80.8495 224.541 80.753 224.84C80.6565 225.14 80.3746 225.379 80.2766 225.677C80.1785 225.977 80.3657 226.37 80.2662 226.668C80.1666 226.966 80.0653 227.265 79.9642 227.563C79.8631 227.861 79.4877 228.065 79.3851 228.362C79.2825 228.66 79.1798 228.956 79.0757 229.253C78.9716 229.55 78.9831 230.031 78.8776 230.327C79.3188 230.485 79.3918 230.07 79.8602 230.07C80.3285 230.07 80.3285 230.375 80.7969 230.375C81.2654 230.375 81.2654 230.269 81.7339 230.269C82.2026 230.269 82.2026 230.181 82.6713 230.181C83.1398 230.181 83.1398 230.254 83.6082 230.254C84.0768 230.254 84.0768 230.211 84.5453 230.211C85.0139 230.211 85.0139 230.182 85.4825 230.182C85.9504 230.182 85.9504 230.029 86.4183 230.029C86.886 230.029 86.8859 230.076 87.3536 230.076C87.8214 230.076 87.8214 230.284 88.2893 230.284C88.7579 230.284 88.7579 230.245 89.2265 230.245C89.695 230.245 89.695 230.291 90.1635 230.291C90.6316 230.291 90.6316 230.054 91.0997 230.054C91.5681 230.054 91.5681 230.184 92.0366 230.184C92.5055 230.184 92.5055 230.251 92.9745 230.251C93.4429 230.251 93.4429 230.394 93.9114 230.394C94.3804 230.394 94.3804 230.165 94.8493 230.165C95.3181 230.165 95.3181 230.307 95.7868 230.307C96.256 230.307 96.256 230.097 96.7251 230.097C97.194 230.097 97.194 230.262 97.6629 230.262C98.132 230.262 98.132 230.202 98.6011 230.202C99.0705 230.202 99.0705 230.238 99.5398 230.238C100.008 230.238 100.008 230.141 100.476 230.141C100.945 230.141 100.945 230.099 101.414 230.099C101.884 230.099 101.884 230.31 102.353 230.31C102.823 230.31 102.823 230.25 103.292 230.25C103.762 230.25 103.762 230.394 104.232 230.394C104.702 230.394 104.702 230.351 105.172 230.351C105.643 230.351 105.643 230.126 106.113 230.126C106.58 230.126 106.58 230.217 107.047 230.217C107.513 230.217 107.513 230.385 107.98 230.385C108.447 230.385 108.447 230.029 108.914 230.029C109.38 230.029 109.38 230.238 109.847 230.238C110.314 230.238 110.314 230.34 110.781 230.34C111.248 230.34 111.248 230.194 111.715 230.194C112.181 230.194 112.181 230.04 112.647 230.04C113.114 230.04 113.114 230.048 113.58 230.048C114.048 230.048 114.048 230.352 114.515 230.352C114.982 230.352 114.982 230.171 115.449 230.171C115.917 230.171 115.917 230.204 116.384 230.204C116.852 230.204 116.852 230.109 117.32 230.109C117.789 230.109 117.754 230.143 118.204 230.015C118.306 229.719 118.479 229.612 118.58 229.315C118.68 229.018 118.73 228.704 118.829 228.406C118.928 228.109 119.103 227.837 119.201 227.539C119.298 227.241 119.456 226.962 119.552 226.663C119.648 226.365 119.541 226.001 119.635 225.702C119.73 225.403 119.732 225.076 119.825 224.777C119.918 224.477 120.344 224.28 120.435 223.98C120.527 223.68 120.633 223.384 120.723 223.083C120.813 222.783 120.615 222.397 120.703 222.096C120.792 221.796 120.866 221.491 120.953 221.19C121.039 220.889 121.348 220.651 121.434 220.349C121.519 220.047 121.694 219.77 121.777 219.467C121.861 219.165 121.727 218.803 121.809 218.5C121.891 218.198 121.943 217.887 122.023 217.584C122.104 217.281 122.327 217.015 122.406 216.712C122.484 216.408 122.442 216.073 122.519 215.769C122.596 215.465 122.648 215.155 122.724 214.851C122.8 214.547 123.098 214.297 123.173 213.992C123.247 213.688 123.136 213.338 123.209 213.033C123.282 212.728 123.22 212.392 123.291 212.086C123.362 211.781 123.425 211.474 123.495 211.169C123.564 210.863 123.951 210.628 124.019 210.322C124.087 210.016 123.975 209.67 124.042 209.364C124.108 209.057 124.056 208.726 124.121 208.419C124.186 208.112 124.429 207.843 124.492 207.535C124.555 207.228 124.452 206.888 124.514 206.58C124.576 206.273 124.786 205.995 124.847 205.687C124.907 205.379 124.909 205.06 124.967 204.752C125.026 204.444 125.01 204.122 125.067 203.814C125.124 203.506 125.282 203.216 125.337 202.907C125.393 202.599 125.457 202.292 125.511 201.983C125.564 201.674 125.539 201.352 125.591 201.043C125.643 200.734 125.881 200.455 125.932 200.146C125.982 199.836 125.761 199.483 125.81 199.173C125.859 198.864 126.051 198.577 126.099 198.267C126.146 197.957 126.393 197.677 126.439 197.366C126.485 197.056 126.213 196.7 126.258 196.389C126.302 196.079 126.399 195.777 126.442 195.466C126.484 195.155 126.47 194.837 126.511 194.526C126.553 194.216 126.639 193.911 126.678 193.6C126.718 193.289 126.789 192.982 126.827 192.671C126.865 192.359 127.096 192.071 127.132 191.759C127.169 191.448 127.086 191.122 127.121 190.811C127.155 190.499 126.995 190.166 127.028 189.854C127.062 189.543 127.422 189.265 127.454 188.953C127.485 188.641 127.34 188.311 127.37 187.998C127.4 187.686 127.402 187.372 127.431 187.059C127.459 186.747 127.637 186.448 127.664 186.135C127.691 185.823 127.7 185.509 127.725 185.196C127.751 184.884 127.588 184.557 127.612 184.244C127.635 183.931 127.831 183.631 127.853 183.318C127.875 183.005 128.032 182.701 128.052 182.388C128.073 182.075 127.821 181.745 127.84 181.431C127.859 181.118 128.027 180.814 128.044 180.5C128.061 180.187 128.093 179.874 128.109 179.561C128.124 179.248 127.991 178.927 128.006 178.614C128.02 178.3 128.042 177.988 128.054 177.674C128.067 177.361 128.187 177.052 128.198 176.738C128.209 176.425 128.119 176.108 128.128 175.794C128.138 175.481 128.199 175.168 128.207 174.855C128.215 174.541 128.187 174.226 128.194 173.913C128.2 173.599 128.341 173.288 128.346 172.974C128.351 172.66 128.11 172.343 128.113 172.029C128.117 171.715 128.274 171.403 128.276 171.089C128.277 170.775 128.101 170.461 128.101 170.146C128.101 169.832 128.281 169.518 128.279 169.204C128.278 168.89 128.125 168.578 128.122 168.264C128.119 167.95 128.128 167.636 128.124 167.323C128.119 167.009 128.139 166.695 128.133 166.381C128.127 166.067 128.355 165.748 128.347 165.434C128.339 165.12 128.169 164.811 128.159 164.497C128.15 164.183 128.315 163.863 128.304 163.55C128.293 163.236 128.217 162.924 128.204 162.611C128.192 162.297 127.955 161.993 127.94 161.679C127.926 161.366 127.988 161.049 127.973 160.736C127.957 160.422 128.022 160.104 128.004 159.791C127.987 159.478 128.052 159.159 128.033 158.846C128.014 158.533 127.911 158.224 127.891 157.911C127.87 157.598 127.942 157.278 127.92 156.965C127.898 156.652 127.857 156.34 127.833 156.027C127.809 155.714 127.517 155.422 127.491 155.109C127.466 154.796 127.656 154.466 127.629 154.154C127.602 153.841 127.373 153.546 127.345 153.234C127.316 152.921 127.391 152.6 127.361 152.287C127.331 151.975 127.376 151.655 127.344 151.343C127.312 151.031 127.151 150.732 127.118 150.42C127.085 150.108 126.991 149.803 126.956 149.492C126.921 149.18 126.971 148.859 126.935 148.547C126.898 148.236 126.948 147.914 126.91 147.603C126.872 147.291 126.817 146.981 126.778 146.67C126.738 146.359 126.568 146.065 126.527 145.754C126.486 145.443 126.536 145.12 126.494 144.809C126.451 144.498 126.467 144.179 126.423 143.869C126.378 143.558 126.39 143.239 126.344 142.929C126.298 142.618 126.027 142.341 125.979 142.031C125.932 141.721 126.216 141.359 126.167 141.049C126.118 140.739 125.952 140.447 125.901 140.138C125.85 139.828 125.786 139.52 125.733 139.211C125.681 138.901 125.559 138.604 125.505 138.295C125.451 137.985 125.398 137.676 125.343 137.367C125.288 137.058 125.203 136.755 125.146 136.446C125.089 136.138 124.975 135.84 124.916 135.532C124.857 135.224 124.977 134.881 124.917 134.573C124.857 134.265 124.603 133.996 124.541 133.688C124.479 133.381 124.606 133.035 124.543 132.728C124.48 132.42 124.35 132.127 124.285 131.82C124.22 131.513 124.24 131.187 124.174 130.881C124.107 130.574 123.76 130.329 123.692 130.023C123.624 129.717 123.911 129.331 123.841 129.025C123.771 128.719 123.418 128.478 123.347 128.173C123.276 127.867 123.376 127.521 123.304 127.216C123.231 126.911 123.172 126.602 123.098 126.297C123.024 125.992 122.958 125.684 122.882 125.38C122.806 125.076 122.772 124.76 122.695 124.456C122.617 124.152 122.573 123.839 122.494 123.535C122.415 123.231 122.339 122.926 122.259 122.623C122.178 122.32 121.915 122.065 121.832 121.763C121.75 121.46 121.758 121.132 121.674 120.83C121.59 120.528 121.469 120.236 121.384 119.934C121.299 119.632 121.314 119.301 121.228 118.999C121.141 118.698 121.091 118.385 121.003 118.084C120.915 117.783 120.632 117.538 120.543 117.238C120.453 116.937 120.311 116.653 120.219 116.353C120.128 116.053 120.19 115.706 120.097 115.406C120.004 115.107 119.896 114.811 119.801 114.512C119.707 114.213 119.652 113.901 119.556 113.603C119.46 113.304 119.317 113.02 119.219 112.722C119.122 112.424 118.977 112.061 118.878 111.764Z" fill="#E40524"/>
<path d="M89.5367 29.2147C89.5367 29.5454 89.5411 29.8288 89.4442 30.146C89.3504 30.4525 89.241 30.735 89.078 31.0314C88.9239 31.3115 88.9239 31.6998 88.7262 31.9729C88.537 32.2343 88.3756 32.5373 88.1624 32.7942C87.9538 33.0454 87.5753 33.1588 87.3584 33.4075C87.141 33.6567 86.9523 33.931 86.7412 34.1794C86.5241 34.4348 86.2237 34.6227 86.029 34.8791C85.8238 35.1491 85.8831 35.5846 85.721 35.8578C85.5468 36.1513 85.3097 36.3796 85.2074 36.6794C85.1054 36.9782 84.8421 37.2568 84.7988 37.5832C84.7575 37.895 84.8806 38.2365 84.8768 38.5657C84.8731 38.8823 84.7607 39.2118 84.7773 39.5377C84.7937 39.8574 84.9129 40.1756 84.9355 40.4978C84.9581 40.8209 85.0564 41.1394 85.0719 41.4587C85.0878 41.7855 85.1278 42.1122 85.1221 42.428C85.116 42.758 85.2028 43.1062 85.1571 43.4166C85.1091 43.7426 84.7359 43.9861 84.6257 44.2815C84.5133 44.5828 84.3783 44.8337 84.1811 45.0936C83.9973 45.3361 83.8088 45.5336 83.5654 45.7226C83.3306 45.9049 83.0592 45.9962 82.7809 46.1394C82.5172 46.275 82.3525 46.6456 82.0599 46.7551C81.7804 46.8598 81.4446 46.8261 81.1475 46.9149C80.8591 47.001 80.5755 47.1191 80.2785 47.1974C79.9843 47.275 79.6753 47.3022 79.3804 47.379C79.0833 47.4564 78.7463 47.3953 78.4563 47.4788C78.1585 47.5646 77.9255 47.8572 77.6435 47.9569C77.3492 48.0611 77.0996 48.242 76.832 48.3697C76.5493 48.5047 76.1331 48.4153 75.8913 48.5866C75.626 48.7744 75.508 49.1714 75.2722 49.4174C75.0479 49.6513 74.8744 49.9341 74.6683 50.2047C74.4704 50.4645 74.063 50.587 73.8744 50.8665C73.6898 51.1401 73.7777 51.5992 73.5952 51.8786C73.4126 52.1581 73.211 52.4285 73.0237 52.7008C72.8329 52.9783 72.5912 53.2216 72.3883 53.4781C72.1777 53.7443 71.8664 53.9124 71.6349 54.1408C71.3936 54.3787 71.2262 54.7013 70.9534 54.8811C70.6761 55.0638 70.3683 55.2399 70.0489 55.3444C69.7597 55.439 69.4291 55.3482 69.1245 55.3669C68.8282 55.3851 68.5264 55.4417 68.2182 55.4035C67.925 55.3672 67.6114 55.3639 67.3099 55.2898C67.0215 55.219 66.7181 55.1538 66.4243 55.0602C66.1391 54.9693 65.8277 54.9297 65.5393 54.8279C65.2545 54.7274 65.0043 54.5224 64.7182 54.4214C64.4309 54.3199 64.1928 54.0721 63.9061 53.9803C63.6137 53.8866 63.2623 54.011 62.9723 53.938C62.673 53.8626 62.3864 53.8126 62.0919 53.771C61.7863 53.7278 61.5028 53.6517 61.2047 53.6578C60.9053 53.6639 60.6062 53.6619 60.2993 53.718C60.005 53.7717 59.7202 53.8748 59.4213 53.9624C59.1325 54.0469 58.8722 54.2159 58.581 54.3211C58.2958 54.4241 57.965 54.4095 57.6793 54.522C57.3945 54.6342 57.0819 54.6776 56.7985 54.7892C56.5115 54.9023 56.3163 55.2584 56.0325 55.3607C55.7396 55.4663 55.4276 55.5358 55.1401 55.6187C54.8385 55.7056 54.5162 55.7444 54.2229 55.7934C53.9134 55.8453 53.5861 55.8769 53.2885 55.8717C52.9797 55.8662 52.727 55.534 52.434 55.4501C52.1155 55.3589 51.8622 55.2427 51.5856 55.0719C51.3123 54.9032 51.0287 54.7801 50.7871 54.5517C50.5555 54.3328 50.1776 54.2348 49.9669 53.9772C49.764 53.729 49.6207 53.4189 49.4298 53.149C49.2427 52.8847 49.0353 52.628 48.853 52.3562C48.6706 52.0843 48.444 51.8447 48.2594 51.5786C48.0707 51.3066 48.05 50.9174 47.852 50.6654C47.6457 50.403 47.3607 50.2149 47.1362 49.9899C46.9003 49.7534 46.6433 49.5633 46.3779 49.3862C46.1351 49.2243 45.851 49.1452 45.5671 49.0214C45.2995 48.9048 45.1169 48.5197 44.8228 48.4277C44.5415 48.3398 44.1987 48.421 43.9017 48.3476C43.6129 48.2762 43.289 48.3411 42.9932 48.2761C42.6995 48.2116 42.3899 48.2112 42.0969 48.1459C41.8003 48.0799 41.5757 47.7184 41.2876 47.6443C40.9909 47.5679 40.7014 47.5112 40.4222 47.4184C40.129 47.3209 39.8687 47.1968 39.6044 47.0721C39.3249 46.9402 38.9304 47.0133 38.6946 46.8403C38.4496 46.6606 38.2991 46.3559 38.1142 46.1197C37.9142 45.8641 37.6015 45.6379 37.4885 45.3363C37.3787 45.0431 37.6521 44.6405 37.605 44.3141C37.5604 44.0058 37.409 43.7091 37.4035 43.3799C37.3984 43.0657 37.2112 42.737 37.2272 42.4113C37.2428 42.0938 37.498 41.7856 37.5204 41.464C37.5429 41.143 37.3542 40.8093 37.3705 40.491C37.3871 40.1658 37.4286 39.8516 37.425 39.5363C37.4213 39.2077 37.3398 38.9071 37.2988 38.5974C37.2556 38.2711 37.3945 37.921 37.292 37.625C37.1898 37.3295 37.0072 37.0517 36.8332 36.7655C36.6708 36.4984 36.4 36.298 36.1945 36.0358C35.9994 35.787 35.9571 35.3993 35.7396 35.1523C35.5279 34.9119 35.1619 34.8028 34.9439 34.5617C34.7263 34.3212 34.6116 33.9894 34.4025 33.7458C34.1886 33.4968 33.847 33.3519 33.6575 33.0973C33.4597 32.8315 33.3182 32.5236 33.1644 32.2489C33.0025 31.9596 33.076 31.5882 32.9834 31.2858C32.8884 30.976 32.8286 30.7057 32.8286 30.3787C32.8286 30.048 32.5807 29.6775 32.6777 29.3604C32.7714 29.0538 33.0579 28.7992 33.221 28.5028C33.3751 28.2227 33.4095 27.8407 33.6073 27.5675C33.7965 27.3061 34.2369 27.227 34.4501 26.9701C34.6588 26.7188 34.6488 26.2756 34.8657 26.0269C35.0831 25.7776 35.5838 25.7725 35.795 25.5241C36.012 25.2687 36.0221 24.8486 36.2169 24.5923C36.422 24.3222 36.502 23.9961 36.6641 23.7228C36.8383 23.4293 37.1724 23.2396 37.2747 22.9398C37.3766 22.6409 37.6105 22.3427 37.6537 22.0162C37.695 21.7045 37.6524 21.3583 37.6562 21.0292C37.6599 20.7125 37.6217 20.3828 37.6051 20.0569C37.5887 19.7372 37.2981 19.4315 37.2756 19.1093C37.2529 18.7861 37.4019 18.4514 37.3864 18.1322C37.3705 17.8054 37.2 17.4798 37.2057 17.1639C37.2118 16.8339 37.4173 16.5186 37.4629 16.2082C37.5109 15.8822 37.3971 15.5053 37.5074 15.2099C37.6198 14.9085 37.9701 14.7156 38.1672 14.4556C38.3511 14.2132 38.4125 13.8213 38.6559 13.6323C38.8907 13.45 39.2091 13.3286 39.4875 13.1854C39.7512 13.0498 40.0416 12.9145 40.3342 12.8049C40.6137 12.7003 40.93 12.6604 41.2271 12.5716C41.5155 12.4854 41.8013 12.3618 42.0984 12.2835C42.3926 12.2059 42.7436 12.3383 43.0385 12.2615C43.3355 12.1842 43.591 11.9576 43.881 11.8741C44.1788 11.7883 44.5435 11.9127 44.8255 11.813C45.1198 11.7089 45.2901 11.3163 45.5578 11.1885C45.8405 11.0536 46.1078 10.9442 46.3497 10.773C46.6149 10.5852 46.8956 10.4192 47.1314 10.1732C47.3557 9.93926 47.7161 9.79932 47.9223 9.52873C48.1202 9.26892 48.027 8.79297 48.2155 8.51348C48.4001 8.23985 48.7958 8.10312 48.9783 7.82373C49.1609 7.54421 49.4414 7.33389 49.6287 7.06159C49.8196 6.784 49.917 6.45219 50.1199 6.19572C50.3306 5.92947 50.5593 5.70039 50.7908 5.47201C51.0321 5.23406 51.1735 4.8817 51.4464 4.70191C51.7237 4.5192 52.0228 4.30634 52.3422 4.20182C52.6314 4.10721 52.979 4.27027 53.2836 4.25152C53.5799 4.23328 53.9018 3.97738 54.2099 4.01557C54.5031 4.0519 54.8189 4.13278 55.1204 4.20684C55.4088 4.27768 55.6743 4.48382 55.9682 4.5775C56.2533 4.66839 56.555 4.73125 56.8434 4.83306C57.1282 4.93362 57.3682 5.16718 57.6543 5.26827C57.9416 5.36973 58.2481 5.41413 58.5348 5.50598C58.8272 5.59966 59.1349 5.61983 59.4248 5.69283C59.7241 5.76817 60.0235 5.75729 60.318 5.79892C60.6236 5.84212 60.9029 5.89918 61.201 5.8931C61.5004 5.88699 61.7939 5.89641 62.1009 5.84031C62.3951 5.78654 62.6583 5.62276 62.9572 5.53522C63.246 5.45066 63.5934 5.54097 63.8846 5.43582C64.1699 5.33282 64.4657 5.24526 64.7514 5.1327C65.0362 5.02052 65.278 4.79745 65.5614 4.68576C65.8484 4.57269 66.1242 4.42936 66.408 4.32708C66.701 4.22151 66.9786 4.05647 67.2662 3.97361C67.5677 3.88672 67.9178 4.01265 68.211 3.96355C68.5205 3.91174 68.8216 3.64967 69.1192 3.65496C69.4281 3.66045 69.7121 3.94585 70.0051 4.02976C70.3236 4.12099 70.7215 4.06371 70.9982 4.23445C71.2715 4.40317 71.3576 4.83478 71.5992 5.06316C71.8308 5.28206 72.2081 5.37559 72.4188 5.63324C72.6217 5.88145 72.8976 6.09543 73.0886 6.36528C73.2756 6.62963 73.1936 7.08453 73.3759 7.3563C73.5583 7.62818 73.9058 7.78804 74.0903 8.05412C74.279 8.32619 74.3829 8.6552 74.581 8.90721C74.7873 9.16967 75.0583 9.366 75.2828 9.59103C75.5188 9.82751 75.7627 10.031 76.028 10.208C76.2708 10.37 76.5159 10.5391 76.7999 10.6629C77.0674 10.7795 77.3571 10.8578 77.6513 10.9498C77.9326 11.0377 78.2101 11.1634 78.5071 11.2368C78.7959 11.3082 79.1229 11.2277 79.4188 11.2927C79.7124 11.3572 79.9513 11.6753 80.2443 11.7406C80.5408 11.8067 80.8397 11.8407 81.1278 11.9149C81.4245 11.9912 81.7598 11.918 82.039 12.0108C82.3321 12.1083 82.6367 12.1872 82.901 12.3119C83.1805 12.4438 83.3918 12.695 83.6276 12.8679C83.8726 13.0477 84.1368 13.2146 84.3216 13.4508C84.5216 13.7064 84.4596 14.0848 84.5725 14.3864C84.6823 14.6796 85.0945 14.9037 85.1417 15.2302C85.1862 15.5385 84.8968 15.8859 84.9022 16.2152C84.9074 16.5293 84.9227 16.843 84.9067 17.1687C84.8911 17.4862 84.9861 17.8132 84.9636 18.1348C84.9412 18.4558 84.8522 18.7738 84.8359 19.0921C84.8193 19.4174 85.0288 19.7412 85.0324 20.0565C85.0361 20.3851 84.8525 20.7146 84.8936 21.0244C84.9368 21.3506 85.0414 21.6623 85.1438 21.9583C85.2461 22.2537 85.3353 22.5805 85.5094 22.8668C85.6718 23.1339 85.9706 23.3235 86.1762 23.5856C86.3713 23.8345 86.4378 24.2043 86.6553 24.4513C86.8671 24.6918 87.1421 24.8833 87.3601 25.1243C87.5777 25.3649 87.7431 25.6485 87.9522 25.892C88.1661 26.1411 88.415 26.349 88.6044 26.6036C88.8023 26.8694 88.8931 27.179 89.0469 27.4537C89.2089 27.743 89.4539 27.9674 89.5466 28.2698C89.6415 28.5796 89.5367 28.8876 89.5367 29.2147Z" fill="#010101"/>
<path d="M45.2662 40.6155L45.1147 40.9466C43.355 44.7952 39.7384 47.6316 35.4241 48.5469L33.9276 48.8643L5.27655 31.7713L43.2071 3.9483L56.358 31.3076L55.7888 32.6283C53.9782 36.8287 49.9794 39.864 45.2662 40.6155Z" fill="#010101"/>
<path d="M23.6693 16.4387C26.4538 19.8973 24.387 25.8469 19.0531 29.7273C13.7192 33.6078 7.1379 33.9498 4.35344 30.4912C1.56899 27.0325 3.63573 21.083 8.96966 17.2025C14.3036 13.3221 20.8848 12.9801 23.6693 16.4387Z" fill="#A58088"/>
<path d="M42.9844 2.38586C45.7689 5.84448 43.7021 11.794 38.3682 15.6745C33.0343 19.555 26.453 19.8969 23.6686 16.4383C20.8841 12.9797 22.9509 7.03016 28.2848 3.14968C33.6187 -0.730793 40.2 -1.07277 42.9844 2.38586Z" fill="#A58088"/>
<path d="M28.5381 6.31963C32.3287 2.1023 38.3664 2.14812 40.6631 5.00098" stroke="white" stroke-width="2.15744" stroke-miterlimit="10" stroke-linecap="round"/>
<path d="M8.50598 20.5297C11.7357 15.919 17.7503 15.2704 20.4032 17.8306" stroke="white" stroke-width="2.15744" stroke-miterlimit="10" stroke-linecap="round"/>
<path d="M40.4573 47.5258C40.5048 50.9116 43.5292 54.5232 46.1175 56.8138C46.897 57.5037 47.8026 58.1701 48.8777 58.2417C48.8777 58.2417 53.9705 55.4297 63.4548 53.3743C69.143 51.9435 68.5406 51.5091 68.5406 51.5091C68.5406 51.5091 76.0918 40.3727 77.443 36.4545C78.7941 32.5362 78.6655 29.3776 76.0918 28.0319C73.5182 26.6862 69.722 28.5972 69.722 28.5972L54.9315 36.6219L54.6995 36.6266C52.451 38.8599 49.58 40.4437 46.4337 41.1864L45.8017 42.178C44.5215 44.1865 42.8175 45.9293 40.7987 47.2949L40.4573 47.5258Z" fill="#C25528"/>
<path d="M121.798 111.595L46.2764 132.774L43.8964 73.0353C41.7802 65.7887 46.3192 58.1656 54.0346 56.0087L80.0716 48.7296C87.787 46.5727 95.757 50.6987 97.8732 57.9453L121.798 111.595Z" fill="white"/>
<path d="M121.798 111.595L46.2764 132.774L43.8964 73.0353C41.7802 65.7887 46.3192 58.1656 54.0346 56.0087L80.0716 48.7296C87.787 46.5727 95.757 50.6987 97.8732 57.9453L121.798 111.595Z" fill="url(#paint0_linear_1703_241)"/>
<path d="M51.7595 30.0693C48.6097 29.3263 45.3891 28.8942 44.2709 31.3284C44.1722 31.5432 44.106 31.7726 44.0927 32.0048C44.0189 33.2887 45.0675 34.0748 46.2774 34.6228C47.5461 35.1975 48.7234 35.9272 49.8411 36.7305C51.206 37.7115 55.1395 40.5886 55.1395 40.5886C55.1395 40.5886 66.824 49.3856 68.9584 51.7429C68.9584 51.7429 85.0423 66.7768 96.3166 76.3246C100.699 80.0361 107.64 79.0839 110.909 74.3212C113.599 70.4031 112.803 65.2656 109.057 62.3663L88.1464 46.1826C78.9539 39.2793 73.2998 35.3305 69.1565 27.5578C68.137 25.6453 67.0551 23.7208 65.4532 22.2123C65.4532 22.2123 59.219 16.5871 54.7611 17.4859C50.3031 18.3846 49.8334 18.7404 49.8334 18.7404L53.4668 28.286C53.8522 29.2985 52.866 30.3304 51.7595 30.0693Z" fill="#C25528"/>
<path d="M88.1451 46.1838C78.9526 39.2805 73.2986 35.3317 69.1552 27.559C68.1357 25.6464 67.0538 23.722 65.4519 22.2135" stroke="#010101" stroke-miterlimit="10" stroke-linecap="round"/>
<path d="M46.2761 34.6232C47.5449 35.1979 48.7221 35.9276 49.8398 36.7309C51.2047 37.7119 55.1383 40.589 55.1383 40.589C55.1383 40.589 66.8227 49.386 68.9571 51.7433C68.9571 51.7433 85.041 66.7772 96.3154 76.325" stroke="#010101" stroke-miterlimit="10" stroke-linecap="round"/>
<path d="M58.5171 54.8562L57.4767 67.6996L45.9993 61.5227" stroke="#010101" stroke-linecap="round" stroke-linejoin="round"/>
<path d="M58.5181 54.9278L67.668 64.2613L71.6363 54.2308" stroke="#010101" stroke-linecap="round" stroke-linejoin="round"/>
<path d="M62.6017 67.4195C63.2513 67.2991 63.6861 66.7058 63.5728 66.0943C63.4594 65.4828 62.8409 65.0846 62.1912 65.2049C61.5415 65.3253 61.1068 65.9186 61.2201 66.5301C61.3335 67.1416 61.952 67.5398 62.6017 67.4195Z" fill="#010101"/>
<path d="M63.7955 70.748C64.4452 70.6276 64.88 70.0343 64.7666 69.4228C64.6533 68.8113 64.0348 68.4131 63.3851 68.5334C62.7354 68.6538 62.3006 69.2471 62.414 69.8586C62.5273 70.4701 63.1459 70.8683 63.7955 70.748Z" fill="#010101"/>
<path d="M72.7075 29.3177C73.7705 29.0016 74.9668 29.4326 75.6758 30.2222C76.3849 31.0118 76.6521 32.0977 76.6016 33.1442C76.5511 34.1908 76.2091 35.2107 75.8138 36.1965" stroke="#010101" stroke-miterlimit="10" stroke-linecap="round"/>
<path d="M10.7936 24.2142C9.9925 25.2191 9.72217 26.5781 10.0869 27.767" stroke="white" stroke-width="2" stroke-miterlimit="10" stroke-linecap="round"/>
<path d="M39.5099 48.0965C39.3687 50.4397 39.1886 53.9619 39.7945 56.2226C40.1904 57.6996 52.1701 91.9778 51.662 95.119C51.1539 98.2602 49.7486 101.395 47.1899 103.494C43.2973 106.687 36.9572 106.715 33.1776 103.557C31.9489 102.531 30.9961 101.24 30.189 99.8884C28.2326 96.6116 23.5603 56.2468 22.5559 52.5254C21.5514 48.804 21.0198 44.8692 21.892 41.0801L27.7576 42.2673C27.7576 42.2673 29.7177 37.0602 32.2326 37.0881C34.7475 37.116 35.5858 38.4454 35.4182 44.3893L39.5099 48.0965Z" fill="#C25528"/>
<path d="M35.4383 49.2206L35.4177 44.3893C35.5854 38.4454 34.7471 37.116 32.2321 37.0881C29.7172 37.0602 27.901 41.9125 27.901 41.9125L25.0227 47.7698" stroke="#010101" stroke-miterlimit="10" stroke-linecap="round"/>
<path d="M47.5308 44.6271C47.9348 44.5522 48.2052 44.1833 48.1347 43.803C48.0642 43.4226 47.6795 43.175 47.2755 43.2499C46.8715 43.3247 46.6011 43.6937 46.6716 44.074C46.7421 44.4543 47.1267 44.7019 47.5308 44.6271Z" fill="#010101"/>
<path d="M49.9606 43.5158C50.3646 43.441 50.635 43.072 50.5645 42.6917C50.494 42.3114 50.1094 42.0637 49.7053 42.1386C49.3013 42.2134 49.0309 42.5824 49.1014 42.9627C49.1719 43.343 49.5565 43.5907 49.9606 43.5158Z" fill="#010101"/>
<path d="M44.9961 42.9233C44.9961 42.9233 44.5703 44.9652 46.2654 45.5506" stroke="#010101" stroke-miterlimit="10" stroke-linecap="round"/>
<path d="M49.832 18.7402L58.2534 20.5611" stroke="#010101" stroke-miterlimit="10" stroke-linecap="round"/>
<path d="M53.5024 17.7481L60.3558 19.5228" stroke="#010101" stroke-miterlimit="10" stroke-linecap="round"/>
<path d="M32.4995 42.7793C33.6837 42.5599 34.4762 41.4785 34.2696 40.3639C34.063 39.2492 32.9356 38.5235 31.7514 38.7428C30.5672 38.9622 29.7748 40.0436 29.9814 41.1582C30.1879 42.2729 31.3154 42.9987 32.4995 42.7793Z" stroke="#010101" stroke-miterlimit="10" stroke-linecap="round"/>
<path d="M48.1 34.9388C49.4504 34.6886 50.3541 33.4554 50.1185 32.1843C49.8829 30.9132 48.5973 30.0856 47.2469 30.3357C45.8965 30.5858 44.9927 31.8191 45.2283 33.0902C45.4639 34.3613 46.7496 35.1889 48.1 34.9388Z" stroke="#010101" stroke-miterlimit="10" stroke-linecap="round"/>
<path d="M45.6534 40.5832L28.3878 22.0797" stroke="#A58088" stroke-width="1.07872" stroke-miterlimit="10" stroke-linecap="round"/>
<path d="M46.2765 46.9985L49.8325 47.5646L52.3899 44.1005" stroke="#010101" stroke-miterlimit="10" stroke-linecap="round"/>
<path d="M106.113 230.197L106.959 248.956L62.4792 250.962C62.4792 250.962 60.6796 241.122 70.3673 240.535C73.1445 240.367 75.661 240.235 77.8381 240.132C82.6625 239.905 86.3726 235.407 86.1322 230.076L106.113 230.197Z" fill="#010101"/>
<path d="M106.525 239.35C106.525 239.35 101.844 237.511 98.618 241.591C95.392 245.67 96.616 249.46 96.616 249.46" stroke="#E30518" stroke-width="0.873645" stroke-miterlimit="10" stroke-linecap="round"/>
<path d="M106.865 246.89L62.3856 248.896" stroke="#E30518" stroke-width="0.873645" stroke-miterlimit="10" stroke-linecap="round"/>
<path d="M49.463 239.499L48.0734 259.348L1.01001 256.055C1.01001 256.055 0.311699 245.479 10.5805 246.038C13.5242 246.198 16.1891 246.365 18.4932 246.522C23.599 246.869 28.0512 242.584 28.4461 236.944L49.463 239.499Z" fill="#010101"/>
<path d="M48.7852 249.182C48.7852 249.182 44.0809 246.677 40.1894 250.579C36.2979 254.481 37.1256 258.619 37.1256 258.619" stroke="#E30518" stroke-width="0.925719" stroke-miterlimit="10" stroke-linecap="round"/>
<path d="M48.2276 257.161L1.16412 253.868" stroke="#E30518" stroke-width="0.925719" stroke-miterlimit="10" stroke-linecap="round"/>
<path d="M46.4016 238.14L43.4434 243.838" stroke="#E30518" stroke-width="1.29667" stroke-miterlimit="10" stroke-linecap="round"/>
<path d="M43.444 236.527L40.4857 242.226" stroke="#E30518" stroke-width="1.29667" stroke-miterlimit="10" stroke-linecap="round"/>
<defs>
<linearGradient id="paint0_linear_1703_241" x1="40.4728" y1="111.174" x2="103.017" y2="73.1745" gradientUnits="userSpaceOnUse">
<stop stop-color="#F39FB1"/>
<stop offset="0.0201955" stop-color="#F39FB1" stop-opacity="0.66337"/>
<stop offset="0.0421153" stop-color="#F39FB1" stop-opacity="0.416483"/>
<stop offset="0.0667585" stop-color="#F39FB1" stop-opacity="0.24012"/>
<stop offset="0.0935921" stop-color="#F39FB1" stop-opacity="0.12706"/>
<stop offset="0.123216" stop-color="#F39FB1" stop-opacity="0.0598147"/>
<stop offset="0.156706" stop-color="#F39FB1" stop-opacity="0.0236802"/>
<stop offset="0.195785" stop-color="#F39FB1" stop-opacity="0.01"/>
<stop offset="0.244089" stop-color="#F39FB1" stop-opacity="0.01"/>
<stop offset="0.311866" stop-color="#F39FB1" stop-opacity="0.01"/>
<stop offset="0.5" stop-color="#F39FB1" stop-opacity="0"/>
<stop offset="0.545183" stop-color="#F39FB1" stop-opacity="0.01"/>
<stop offset="0.611918" stop-color="#F39FB1" stop-opacity="0.0124794"/>
<stop offset="0.692069" stop-color="#F39FB1" stop-opacity="0.0606908"/>
<stop offset="0.782608" stop-color="#F39FB1" stop-opacity="0.188075"/>
<stop offset="0.881837" stop-color="#F39FB1" stop-opacity="0.454027"/>
<stop offset="0.986874" stop-color="#F39FB1" stop-opacity="0.925047"/>
<stop offset="1" stop-color="#F39FB1"/>
</linearGradient>
</defs>
</svg>
