<svg width="14" height="18" viewBox="0 0 14 18" fill="none" xmlns="http://www.w3.org/2000/svg">
<path d="M6.66667 13.9582C5.73611 13.9582 4.84028 14.1214 3.97917 14.4478C3.11806 14.7741 2.3125 15.2568 1.5625 15.8957V16.0832H11.7708V15.8957C11.0208 15.2568 10.2153 14.7741 9.35417 14.4478C8.49306 14.1214 7.59722 13.9582 6.66667 13.9582ZM6.66667 12.7082C7.69444 12.7082 8.66319 12.8783 9.57292 13.2186C10.4826 13.5589 11.3194 14.0207 12.0833 14.604V1.9165H1.25V14.604C2.01389 14.0207 2.85069 13.5589 3.76042 13.2186C4.67014 12.8783 5.63889 12.7082 6.66667 12.7082ZM6.70833 9.81234C6.25694 9.81234 5.87326 9.65435 5.55729 9.33838C5.24132 9.02241 5.08333 8.63873 5.08333 8.18734C5.08333 7.73595 5.24132 7.35227 5.55729 7.0363C5.87326 6.72032 6.25694 6.56234 6.70833 6.56234C7.15972 6.56234 7.5434 6.72032 7.85938 7.0363C8.17535 7.35227 8.33333 7.73595 8.33333 8.18734C8.33333 8.63873 8.17535 9.02241 7.85938 9.33838C7.5434 9.65435 7.15972 9.81234 6.70833 9.81234ZM1.25 17.3332C0.916667 17.3332 0.625 17.2082 0.375 16.9582C0.125 16.7082 0 16.4165 0 16.0832V1.9165C0 1.58317 0.125 1.2915 0.375 1.0415C0.625 0.791504 0.916667 0.666504 1.25 0.666504H12.0833C12.4167 0.666504 12.7083 0.791504 12.9583 1.0415C13.2083 1.2915 13.3333 1.58317 13.3333 1.9165V16.0832C13.3333 16.4165 13.2083 16.7082 12.9583 16.9582C12.7083 17.2082 12.4167 17.3332 12.0833 17.3332H1.25ZM6.70833 11.0623C7.51389 11.0623 8.19444 10.7846 8.75 10.229C9.30556 9.67345 9.58333 8.99289 9.58333 8.18734C9.58333 7.38178 9.30556 6.70123 8.75 6.14567C8.19444 5.59012 7.51389 5.31234 6.70833 5.31234C5.90278 5.31234 5.22222 5.59012 4.66667 6.14567C4.11111 6.70123 3.83333 7.38178 3.83333 8.18734C3.83333 8.99289 4.11111 9.67345 4.66667 10.229C5.22222 10.7846 5.90278 11.0623 6.70833 11.0623Z" fill="#053749"/>
</svg>
