<svg width="15" height="21" viewBox="0 0 15 21" fill="none" xmlns="http://www.w3.org/2000/svg">
<g id="person_book">
<mask id="mask0_15066_15096" style="mask-type:alpha" maskUnits="userSpaceOnUse" x="0" y="0" width="15" height="21">
<rect id="Bounding box" x="0.499023" y="0.96875" width="14" height="20" fill="#D9D9D9"/>
</mask>
<g mask="url(#mask0_15066_15096)">
<path id="person_book_2" d="M7.16569 15.9264C6.23513 15.9264 5.3393 16.0896 4.47819 16.416C3.61708 16.7424 2.81152 17.225 2.06152 17.8639V18.0514H12.2699V17.8639C11.5199 17.225 10.7143 16.7424 9.85319 16.416C8.99208 16.0896 8.09625 15.9264 7.16569 15.9264ZM7.16569 14.6764C8.19347 14.6764 9.16222 14.8466 10.0719 15.1868C10.9817 15.5271 11.8185 15.9889 12.5824 16.5723V3.88477H1.74902V16.5723C2.51291 15.9889 3.34972 15.5271 4.25944 15.1868C5.16916 14.8466 6.13791 14.6764 7.16569 14.6764ZM7.20736 11.7806C6.75597 11.7806 6.37229 11.6226 6.05632 11.3066C5.74034 10.9907 5.58236 10.607 5.58236 10.1556C5.58236 9.70421 5.74034 9.32053 6.05632 9.00456C6.37229 8.68859 6.75597 8.5306 7.20736 8.5306C7.65875 8.5306 8.04243 8.68859 8.3584 9.00456C8.67437 9.32053 8.83236 9.70421 8.83236 10.1556C8.83236 10.607 8.67437 10.9907 8.3584 11.3066C8.04243 11.6226 7.65875 11.7806 7.20736 11.7806ZM1.74902 19.3014C1.41569 19.3014 1.12402 19.1764 0.874023 18.9264C0.624023 18.6764 0.499023 18.3848 0.499023 18.0514V3.88477C0.499023 3.55143 0.624023 3.25977 0.874023 3.00977C1.12402 2.75977 1.41569 2.63477 1.74902 2.63477H12.5824C12.9157 2.63477 13.2074 2.75977 13.4574 3.00977C13.7074 3.25977 13.8324 3.55143 13.8324 3.88477V18.0514C13.8324 18.3848 13.7074 18.6764 13.4574 18.9264C13.2074 19.1764 12.9157 19.3014 12.5824 19.3014H1.74902ZM7.20736 13.0306C8.01291 13.0306 8.69347 12.7528 9.24902 12.1973C9.80458 11.6417 10.0824 10.9612 10.0824 10.1556C10.0824 9.35004 9.80458 8.66949 9.24902 8.11393C8.69347 7.55838 8.01291 7.2806 7.20736 7.2806C6.4018 7.2806 5.72125 7.55838 5.16569 8.11393C4.61013 8.66949 4.33236 9.35004 4.33236 10.1556C4.33236 10.9612 4.61013 11.6417 5.16569 12.1973C5.72125 12.7528 6.4018 13.0306 7.20736 13.0306Z" fill="white"/>
</g>
</g>
</svg>
