<svg width="274" height="215" viewBox="0 0 274 215" fill="none" xmlns="http://www.w3.org/2000/svg">
<rect x="0.125" width="273.75" height="215" rx="4" fill="#04222F"/>
<g clip-path="url(#clip0_15929_10431)">
<path d="M130.165 38.3864L133.242 42.1201C133.819 42.8206 133.723 43.8607 133.026 44.4413L101.893 70.3971C100.172 71.8317 97.6169 71.5912 96.1907 69.8604C94.7644 68.1295 95.0035 65.5596 96.7243 64.125L127.858 38.1691C128.554 37.5885 129.588 37.6859 130.165 38.3864Z" fill="#851E6A"/>
<path d="M143.296 49.1767C153.503 49.1767 161.776 40.8544 161.776 30.5884C161.776 20.3223 153.503 12 143.296 12C133.09 12 124.816 20.3223 124.816 30.5884C124.816 40.8544 133.09 49.1767 143.296 49.1767Z" fill="#851E6A"/>
<path d="M143.296 44.2185C150.78 44.2185 156.848 38.1159 156.848 30.5878C156.848 23.0597 150.78 16.957 143.296 16.957C135.812 16.957 129.745 23.0597 129.745 30.5878C129.745 38.1159 135.812 44.2185 143.296 44.2185Z" fill="white"/>
<path d="M148.947 110.582C148.778 110.528 148.772 110.643 148.594 110.647C148.417 110.651 148.417 110.684 148.24 110.688C148.063 110.691 148.059 110.52 147.882 110.523C147.705 110.527 147.709 110.716 147.531 110.72C147.354 110.723 147.352 110.649 147.175 110.652C146.998 110.656 146.997 110.59 146.819 110.594C146.642 110.598 146.642 110.604 146.465 110.607C146.288 110.611 146.287 110.587 146.11 110.591C145.933 110.595 145.932 110.532 145.754 110.536C145.577 110.54 145.581 110.719 145.404 110.723C145.226 110.727 145.227 110.741 145.049 110.745C144.872 110.749 144.869 110.621 144.692 110.624C144.514 110.628 144.514 110.601 144.336 110.605C144.159 110.609 144.16 110.674 143.983 110.678C143.805 110.681 143.806 110.715 143.628 110.719C143.45 110.723 143.449 110.664 143.271 110.668C143.094 110.672 143.096 110.769 142.918 110.773C142.74 110.777 142.738 110.672 142.56 110.676C142.383 110.679 142.382 110.624 142.204 110.628C142.027 110.632 142.031 110.822 141.853 110.826C141.676 110.83 141.671 110.615 141.494 110.619C141.317 110.623 141.321 110.84 141.144 110.844C140.966 110.848 140.962 110.661 140.785 110.665C140.667 110.667 140.548 110.67 140.43 110.672C140.253 110.676 140.253 110.689 140.075 110.692C139.898 110.696 139.9 110.772 139.722 110.776C139.544 110.78 139.542 110.653 139.364 110.657C139.187 110.661 139.191 110.894 139.014 110.898C138.836 110.902 138.833 110.74 138.655 110.744C138.477 110.747 138.477 110.73 138.299 110.734C138.121 110.738 138.123 110.828 137.945 110.832C137.768 110.836 137.768 110.86 137.591 110.864C137.413 110.868 137.414 110.9 137.236 110.904C137.059 110.908 137.055 110.76 136.878 110.763C136.7 110.767 136.704 110.922 136.526 110.925C136.348 110.929 136.346 110.833 136.169 110.837C135.991 110.84 135.989 110.736 135.811 110.74C135.634 110.744 135.636 110.841 135.458 110.845C135.28 110.848 135.28 110.839 135.102 110.842C134.924 110.846 134.925 110.893 134.747 110.896C134.569 110.9 134.571 110.951 134.393 110.955C134.215 110.959 134.213 110.84 134.035 110.843C133.857 110.847 133.86 110.981 133.683 110.985C133.505 110.989 133.501 110.808 133.323 110.812C133.146 110.815 133.148 110.931 132.97 110.935C132.792 110.938 132.791 110.883 132.614 110.887C132.436 110.891 132.437 110.969 132.259 110.973C132.082 110.977 132.078 110.824 131.901 110.827C131.723 110.831 131.724 110.878 131.546 110.882C131.368 110.885 131.369 110.932 131.192 110.935C131.014 110.939 131.012 110.843 130.834 110.847C130.657 110.851 130.659 110.947 130.482 110.951C130.305 110.954 130.305 110.985 130.128 110.989C129.951 110.993 129.949 110.913 129.772 110.917C129.595 110.92 129.596 110.99 129.419 110.994C129.241 110.998 129.239 110.913 129.061 110.917C128.883 110.92 128.883 110.925 128.705 110.928C128.528 110.932 128.528 110.941 128.35 110.945C128.172 110.949 128.171 110.891 127.994 110.895C127.816 110.898 127.816 110.901 127.639 110.904C127.461 110.908 127.464 111.057 127.287 111.06C127.109 111.064 127.108 110.995 126.93 110.999C126.752 111.003 126.755 111.151 126.577 111.155C126.399 111.158 126.395 110.956 126.217 110.96C126.039 110.964 126.043 111.167 125.865 111.171C125.688 111.174 125.685 111.065 125.508 111.069C125.33 111.073 125.327 110.948 125.15 110.952C124.971 110.956 124.976 111.182 124.798 111.185C124.62 111.189 124.619 111.13 124.441 111.133C124.263 111.137 124.263 111.152 124.085 111.156C123.907 111.16 123.905 111.078 123.727 111.082C123.549 111.086 123.55 111.141 123.372 111.145C123.194 111.149 123.192 111.041 123.014 111.045C122.835 111.049 122.837 111.13 122.659 111.134C122.481 111.137 122.483 111.252 122.305 111.256C122.127 111.259 122.122 111.049 121.944 111.053C121.766 111.056 121.77 111.243 121.592 111.247C121.414 111.251 121.411 111.092 121.233 111.096C121.055 111.099 121.054 111.075 120.876 111.078C120.698 111.082 120.7 111.191 120.522 111.195C120.344 111.199 120.345 111.271 120.167 111.275C119.988 111.279 119.987 111.208 119.808 111.212C119.63 111.216 119.627 111.085 119.449 111.089C119.27 111.093 119.271 111.154 119.093 111.158C118.914 111.162 118.913 111.133 118.734 111.137C118.555 111.141 118.557 111.21 118.378 111.215C118.2 111.22 118.262 111.33 118.03 111.346C117.931 111.353 117.81 111.313 117.672 111.324C117.565 111.333 117.441 111.271 117.312 111.282C117.201 111.292 117.087 111.345 116.961 111.357C116.85 111.368 116.735 111.407 116.612 111.42C116.499 111.432 116.374 111.372 116.251 111.386C116.138 111.399 116.023 111.433 115.901 111.447C115.787 111.461 115.684 111.592 115.563 111.607C115.448 111.621 115.316 111.515 115.196 111.53C115.081 111.545 114.961 111.543 114.841 111.559C114.726 111.575 114.622 111.695 114.503 111.712C114.387 111.728 114.267 111.72 114.148 111.738C114.032 111.755 113.904 111.699 113.785 111.717C113.669 111.735 113.56 111.806 113.441 111.825C113.326 111.843 113.2 111.811 113.082 111.831C112.966 111.85 112.85 111.876 112.732 111.897C112.616 111.916 112.508 111.988 112.39 112.009C112.274 112.03 112.155 112.035 112.037 112.057C111.921 112.078 111.785 111.994 111.667 112.016C111.551 112.038 111.441 112.096 111.323 112.119C111.208 112.141 111.087 112.145 110.97 112.168C110.854 112.191 110.746 112.256 110.628 112.28C110.513 112.303 110.417 112.426 110.3 112.45C110.185 112.475 110.044 112.38 109.928 112.405C109.813 112.43 109.686 112.405 109.57 112.431C109.455 112.456 109.385 112.682 109.268 112.709C109.154 112.735 109.04 112.767 108.925 112.794C108.81 112.821 108.69 112.826 108.574 112.854C108.46 112.882 108.333 112.861 108.218 112.89C108.103 112.918 107.98 112.912 107.864 112.941C107.75 112.97 107.646 113.041 107.531 113.071C107.416 113.101 107.264 112.987 107.149 113.018C107.035 113.048 106.95 113.19 106.835 113.222C106.721 113.253 106.626 113.355 106.511 113.387C106.398 113.419 106.287 113.461 106.173 113.494C106.059 113.527 105.887 113.357 105.772 113.391C105.659 113.424 105.566 113.531 105.452 113.565C105.338 113.599 105.226 113.637 105.112 113.672C104.998 113.707 104.859 113.66 104.746 113.696C104.633 113.732 104.527 113.795 104.414 113.831C104.301 113.868 104.241 114.068 104.128 114.106C104.015 114.143 103.915 114.215 103.802 114.253C103.689 114.291 103.534 114.201 103.421 114.24C103.309 114.279 103.163 114.222 103.051 114.261C102.939 114.301 102.856 114.424 102.744 114.464C102.632 114.505 102.517 114.538 102.406 114.579C102.294 114.621 102.236 114.805 102.124 114.847C102.013 114.889 101.854 114.803 101.743 114.846C101.632 114.889 101.521 114.932 101.41 114.975C101.299 115.019 101.202 115.095 101.091 115.14C100.981 115.185 100.9 115.301 100.79 115.347C100.68 115.392 100.559 115.41 100.449 115.456C100.34 115.502 100.171 115.409 100.062 115.456C99.9525 115.503 99.8652 115.603 99.7562 115.651C99.6474 115.699 99.5835 115.849 99.475 115.898C99.3666 115.947 99.2173 115.905 99.1091 115.955C99.0013 116.005 98.9197 116.112 98.8121 116.163C98.7047 116.214 98.6308 116.334 98.5236 116.386C98.4166 116.438 98.2102 116.285 98.1035 116.338C97.9969 116.391 97.9298 116.525 97.8236 116.579C97.7175 116.633 97.6572 116.776 97.5515 116.831C97.4459 116.886 97.2936 116.851 97.1884 116.907C97.0833 116.962 96.9901 117.041 96.8854 117.098C96.7808 117.155 96.632 117.131 96.5278 117.189C96.4238 117.247 96.3756 117.406 96.272 117.465C96.1686 117.524 96.0495 117.556 95.9466 117.616C95.8437 117.676 95.7807 117.804 95.6784 117.865C95.5761 117.926 95.3869 117.842 95.2853 117.904C95.1836 117.966 95.1478 118.137 95.0468 118.2C94.9458 118.263 94.8149 118.279 94.7146 118.344C94.6143 118.408 94.5843 118.581 94.4847 118.647C94.3852 118.712 94.2123 118.666 94.1135 118.732C94.0147 118.799 93.9286 118.885 93.8306 118.953C93.7325 119.021 93.715 119.204 93.6177 119.273C93.5204 119.342 93.3965 119.371 93.3 119.441C93.2036 119.511 93.0612 119.518 92.9656 119.589C92.8701 119.66 92.7683 119.723 92.6736 119.796C92.579 119.868 92.5603 120.039 92.4665 120.113C92.3728 120.186 92.2071 120.168 92.1142 120.243C92.0214 120.317 91.9837 120.46 91.8918 120.536C91.8 120.612 91.6829 120.657 91.5921 120.734C91.5013 120.811 91.3302 120.795 91.2404 120.874C91.1507 120.952 91.1059 121.083 91.0172 121.163C90.9285 121.243 90.8867 121.374 90.7991 121.455C90.7116 121.536 90.5758 121.565 90.4894 121.648C90.403 121.73 90.3368 121.833 90.2516 121.917C90.1664 122 90.1304 122.133 90.0464 122.218C89.9624 122.303 89.8573 122.366 89.7746 122.452C89.6919 122.538 89.5966 122.611 89.5151 122.698C89.4337 122.786 89.2698 122.797 89.1897 122.886C89.1096 122.974 89.1297 123.153 89.051 123.243C88.9716 123.334 88.8118 123.353 88.7336 123.443C88.6547 123.534 88.6656 123.703 88.5879 123.794C88.5095 123.885 88.3773 123.93 88.3001 124.021C88.2223 124.113 88.1772 124.232 88.1006 124.323C88.0234 124.416 87.8381 124.417 87.7621 124.509C87.6854 124.602 87.7867 124.842 87.7113 124.935C87.6352 125.028 87.3976 124.988 87.3228 125.082C87.2473 125.175 87.2081 125.299 87.1339 125.392C87.059 125.486 86.9581 125.56 86.8845 125.654C86.8102 125.749 86.7863 125.883 86.7133 125.977C86.6397 126.073 86.5094 126.124 86.4371 126.219C86.3641 126.315 86.3439 126.451 86.2723 126.546C86.1999 126.643 86.1671 126.768 86.0962 126.864C86.0245 126.961 85.9624 127.064 85.8921 127.16C85.8211 127.258 85.7015 127.319 85.6319 127.415C85.5616 127.513 85.4381 127.573 85.3693 127.67C85.2997 127.768 85.2486 127.88 85.1805 127.978C85.1116 128.077 85.1229 128.231 85.0555 128.329C84.9874 128.429 84.9185 128.527 84.8519 128.625C84.7845 128.725 84.7626 128.855 84.6967 128.954C84.6302 129.054 84.4888 129.104 84.4238 129.204C84.3581 129.305 84.2712 129.392 84.207 129.492C84.1421 129.594 84.1991 129.772 84.1357 129.873C84.0716 129.975 83.8647 129.986 83.8021 130.088C83.7389 130.19 83.6739 130.292 83.6122 130.394C83.5498 130.497 83.5116 130.614 83.4508 130.717C83.3893 130.82 83.4353 130.987 83.3754 131.09C83.3147 131.194 83.1864 131.258 83.1274 131.361C83.0677 131.466 83.1086 131.627 83.0505 131.731C82.9917 131.836 82.8978 131.92 82.8406 132.025C82.7828 132.131 82.7381 132.242 82.682 132.347C82.625 132.454 82.5359 132.542 82.4805 132.648C82.4245 132.755 82.3428 132.848 82.2885 132.955C82.2336 133.063 82.0877 133.124 82.0345 133.231C81.9806 133.339 82.0046 133.486 81.9525 133.593C81.8997 133.702 81.9029 133.837 81.8519 133.945C81.8002 134.054 81.7829 134.178 81.733 134.287C81.6825 134.397 81.5706 134.477 81.5219 134.586C81.4725 134.696 81.3417 134.77 81.2942 134.879C81.2461 134.99 81.3587 135.17 81.3123 135.28C81.2654 135.391 81.1902 135.489 81.1451 135.599C81.0994 135.711 80.9304 135.772 80.8866 135.883C80.8422 135.995 80.8972 136.146 80.8547 136.257C80.8116 136.37 80.7373 136.47 80.696 136.582C80.6543 136.695 80.5868 136.798 80.547 136.911C80.5065 137.025 80.5267 137.159 80.4881 137.271C80.4491 137.386 80.4539 137.513 80.4168 137.626C80.3792 137.741 80.3133 137.845 80.2776 137.958C80.2414 138.073 80.115 138.159 80.0807 138.274C80.046 138.389 79.9904 138.498 79.9576 138.613C79.9244 138.729 80.0169 138.879 79.9857 138.994C79.9539 139.111 79.8614 139.209 79.8317 139.324C79.8015 139.441 79.7934 139.563 79.7653 139.678C79.7367 139.795 79.6444 139.897 79.6179 140.012C79.5909 140.13 79.5175 140.237 79.4926 140.354C79.4673 140.472 79.6032 140.623 79.5799 140.739C79.5563 140.858 79.4189 140.953 79.3974 141.07C79.3754 141.189 79.4001 141.315 79.3803 141.433C79.3601 141.552 79.3213 141.667 79.3032 141.785C79.2848 141.904 79.2188 142.016 79.2025 142.134C79.1858 142.255 79.259 142.386 79.2445 142.504C79.2297 142.625 79.0599 142.727 79.0473 142.845C79.0344 142.966 79.0804 143.093 79.0696 143.212C79.0587 143.333 79.0059 143.45 78.9971 143.569C78.9881 143.69 79.1118 143.819 79.105 143.938C79.0981 144.059 79.0104 144.175 79.0056 144.294C79.0007 144.415 79.1227 144.539 79.12 144.657C79.1171 144.779 79.0107 144.897 79.01 145.015C79.0092 145.136 79.0097 145.257 79.0111 145.375C79.0125 145.496 79.0351 145.616 79.0386 145.734C79.0422 145.856 78.9678 145.98 78.9735 146.098C78.9793 146.219 79.0552 146.336 79.0631 146.454C79.0712 146.575 79.1515 146.689 79.1617 146.807C79.1722 146.928 79.0357 147.063 79.0481 147.18C79.061 147.301 79.1736 147.41 79.1884 147.526C79.2037 147.648 79.1323 147.78 79.1495 147.896C79.1673 148.017 79.1776 148.139 79.1971 148.254C79.2176 148.375 79.4348 148.457 79.4568 148.571C79.48 148.692 79.3055 148.85 79.33 148.964C79.3561 149.085 79.441 149.19 79.468 149.302C79.4972 149.424 79.5092 149.546 79.5389 149.657C79.5714 149.779 79.6371 149.886 79.6694 149.995C79.7055 150.117 79.7497 150.229 79.7845 150.335C79.8251 150.459 79.9883 150.527 80.0253 150.628C80.0727 150.758 79.9688 150.925 80.0066 151.018C80.0949 151.232 80.0223 151.267 80.1959 151.304C80.3696 151.34 80.3755 151.421 80.5526 151.408C80.7295 151.396 80.714 151.168 80.8909 151.156C81.0679 151.144 81.0801 151.322 81.257 151.31C81.4339 151.298 81.4355 151.321 81.6124 151.308C81.7893 151.296 81.7759 151.101 81.9528 151.089C82.1297 151.076 82.1438 151.283 82.3207 151.27C82.4976 151.258 82.49 151.147 82.6669 151.135C82.8438 151.123 82.8387 151.049 83.0156 151.037C83.1926 151.025 83.2035 151.184 83.3804 151.172C83.5574 151.16 83.5459 150.992 83.7229 150.98C83.9 150.968 83.9062 151.058 84.0832 151.046C84.2603 151.033 84.2596 151.022 84.4367 151.01C84.6139 150.998 84.6126 150.979 84.7898 150.967C84.9672 150.954 84.9709 151.008 85.1482 150.996C85.3256 150.984 85.3243 150.964 85.5017 150.951C85.6791 150.939 85.6856 151.034 85.863 151.022C86.0403 151.01 86.0313 150.878 86.2086 150.866C86.3858 150.854 86.3908 150.926 86.568 150.914C86.7452 150.902 86.7461 150.916 86.9233 150.903C87.1004 150.891 87.1048 150.956 87.2819 150.944C87.459 150.932 87.4593 150.936 87.6364 150.924C87.8135 150.912 87.808 150.831 87.985 150.819C88.1621 150.807 88.1665 150.871 88.3436 150.859C88.5207 150.846 88.5182 150.809 88.6953 150.797C88.8725 150.785 88.8731 150.793 89.0502 150.781C89.2275 150.769 89.2239 150.716 89.4011 150.703C89.5785 150.691 89.5858 150.798 89.7632 150.786C89.9407 150.774 89.9393 150.753 90.1168 150.741C90.2942 150.729 90.2883 150.643 90.4658 150.631C90.6432 150.618 90.6364 150.519 90.8138 150.507C90.991 150.495 90.9912 150.497 91.1685 150.484C91.3457 150.472 91.3491 150.522 91.5263 150.509C91.7035 150.497 91.7073 150.552 91.8845 150.54C92.0617 150.528 92.0607 150.512 92.2379 150.5C92.4151 150.488 92.4064 150.359 92.5836 150.347C92.7609 150.335 92.7674 150.429 92.9447 150.416C93.1221 150.404 93.1155 150.308 93.293 150.296C93.4706 150.283 93.4759 150.361 93.6535 150.349C93.8309 150.337 93.84 150.469 94.0175 150.457C94.1949 150.445 94.1819 150.255 94.3593 150.243C94.5366 150.231 94.5439 150.337 94.7212 150.325C94.8985 150.313 94.8991 150.321 95.0764 150.309C95.2537 150.296 95.2508 150.253 95.4281 150.241C95.6055 150.229 95.6157 150.377 95.7931 150.365C95.9707 150.353 95.957 150.153 96.1345 150.14C96.3121 150.128 96.3145 150.164 96.4921 150.152C96.6695 150.139 96.6804 150.299 96.8579 150.286C97.0353 150.274 97.0299 150.195 97.2073 150.183C97.3847 150.171 97.3796 150.097 97.557 150.085C97.7345 150.072 97.7318 150.033 97.9093 150.021C98.086 150.009 98.0938 150.123 98.2706 150.11C98.4474 150.098 98.4388 149.972 98.6156 149.96C98.7925 149.947 98.8028 150.098 98.9797 150.086C99.1568 150.074 99.157 150.075 99.3341 150.063C99.5115 150.05 99.5046 149.949 99.682 149.937C99.8597 149.924 99.8576 149.894 100.035 149.882C100.213 149.87 100.219 149.966 100.397 149.953C100.574 149.941 100.565 149.802 100.742 149.79C100.919 149.778 100.92 149.786 101.097 149.774C101.274 149.762 101.289 149.981 101.466 149.969C101.643 149.956 101.641 149.919 101.818 149.907C101.996 149.894 101.987 149.764 102.164 149.752C102.342 149.74 102.353 149.894 102.53 149.882C102.708 149.87 102.708 149.868 102.885 149.855C103.063 149.843 103.05 149.654 103.227 149.642C103.405 149.629 103.414 149.766 103.591 149.753C103.769 149.741 103.763 149.649 103.941 149.637C104.118 149.624 104.118 149.612 104.295 149.6C104.473 149.587 104.475 149.616 104.652 149.603C104.83 149.591 104.837 149.684 105.014 149.671C105.192 149.659 105.191 149.648 105.369 149.636C105.547 149.624 105.542 149.552 105.72 149.539C105.898 149.527 105.899 149.553 106.077 149.54C106.255 149.528 106.261 149.615 106.439 149.603C106.617 149.591 106.617 149.59 106.795 149.577C106.972 149.565 106.959 149.365 107.136 149.353C107.314 149.34 107.325 149.507 107.503 149.495C107.681 149.483 107.678 149.441 107.856 149.428C108.034 149.416 108.039 149.497 108.217 149.484C108.395 149.472 108.386 149.337 108.564 149.324C108.742 149.312 108.742 149.318 108.921 149.306C109.099 149.294 109.096 149.251 109.274 149.239C109.452 149.227 109.458 149.312 109.636 149.3C109.815 149.287 109.813 149.258 109.992 149.246C110.17 149.233 110.205 149.354 110.369 149.282C110.53 149.211 110.355 149.111 110.334 148.884C110.325 148.785 110.309 148.668 110.299 148.532C110.29 148.425 110.3 148.305 110.29 148.178C110.282 148.067 110.252 147.951 110.244 147.826C110.237 147.714 110.128 147.602 110.121 147.479C110.115 147.366 110.254 147.24 110.249 147.119C110.243 147.004 110.238 146.886 110.233 146.766C110.228 146.65 110.219 146.533 110.215 146.412C110.211 146.297 110.093 146.182 110.09 146.062C110.088 145.945 110.134 145.826 110.132 145.706C110.13 145.59 110.144 145.471 110.143 145.352C110.142 145.235 110.054 145.117 110.054 144.998C110.055 144.881 110.101 144.762 110.103 144.643C110.104 144.526 110.141 144.408 110.143 144.289C110.146 144.171 110.077 144.05 110.081 143.932C110.085 143.814 110.257 143.702 110.262 143.583C110.267 143.465 110.114 143.339 110.121 143.221C110.127 143.103 110.214 142.989 110.222 142.871C110.23 142.753 110.297 142.64 110.307 142.522C110.317 142.404 110.269 142.281 110.281 142.163C110.293 142.045 110.294 141.926 110.307 141.808C110.321 141.69 110.371 141.577 110.386 141.46C110.402 141.342 110.493 141.237 110.511 141.121C110.529 141.003 110.51 140.882 110.531 140.766C110.552 140.649 110.46 140.511 110.483 140.396C110.507 140.279 110.594 140.176 110.62 140.062C110.647 139.945 110.667 139.829 110.697 139.716C110.728 139.6 110.659 139.455 110.693 139.343C110.728 139.228 110.846 139.141 110.885 139.031C110.926 138.918 111.027 138.832 111.072 138.725C111.118 138.614 111.087 138.47 111.138 138.367C111.193 138.255 111.257 138.145 111.324 138.041C111.391 137.938 111.556 137.909 111.634 137.813C111.712 137.719 111.699 137.541 111.787 137.453C111.873 137.367 111.946 137.254 112.042 137.175C112.136 137.097 112.348 137.175 112.45 137.104C112.55 137.034 112.611 136.912 112.718 136.848C112.822 136.785 112.919 136.71 113.03 136.652C113.138 136.596 113.262 136.576 113.376 136.525C113.487 136.474 113.562 136.335 113.678 136.289C113.791 136.245 113.896 136.166 114.013 136.125C114.128 136.085 114.29 136.183 114.41 136.147C114.526 136.111 114.641 136.073 114.762 136.04C114.876 136.009 114.968 135.893 115.083 135.865C115.198 135.838 115.302 135.75 115.418 135.726C115.534 135.702 115.658 135.71 115.774 135.69C115.891 135.67 116.017 135.698 116.133 135.681C116.251 135.665 116.379 135.747 116.496 135.734C116.614 135.722 116.715 135.522 116.832 135.513C116.95 135.503 117.075 135.559 117.193 135.554C117.311 135.548 117.432 135.679 117.55 135.677C117.669 135.675 117.786 135.587 117.904 135.589C118.022 135.591 118.139 135.631 118.257 135.636C118.375 135.642 118.498 135.563 118.616 135.573C118.734 135.582 118.85 135.62 118.968 135.633C119.085 135.646 119.191 135.745 119.308 135.761C119.425 135.778 119.535 135.828 119.651 135.848C119.768 135.868 119.889 135.849 120.005 135.872C120.121 135.896 120.229 135.945 120.344 135.972C120.46 135.999 120.598 135.93 120.712 135.961C120.826 135.991 120.935 136.043 121.048 136.077C121.161 136.111 121.284 136.118 121.396 136.156C121.508 136.193 121.567 136.38 121.678 136.421C121.789 136.462 121.896 136.502 122.006 136.547C122.116 136.591 122.266 136.532 122.375 136.58C122.483 136.628 122.56 136.74 122.667 136.791C122.774 136.842 122.96 136.733 123.065 136.787C123.17 136.841 123.247 136.954 123.35 137.012C123.454 137.069 123.564 137.118 123.666 137.178C123.767 137.238 123.87 137.3 123.971 137.363C124.07 137.426 124.196 137.454 124.295 137.52C124.393 137.586 124.435 137.737 124.531 137.806C124.627 137.875 124.706 137.967 124.8 138.039C124.894 138.111 125.027 138.133 125.119 138.208C125.211 138.282 125.31 138.35 125.4 138.428C125.49 138.505 125.489 138.684 125.577 138.765C125.664 138.844 125.792 138.879 125.877 138.961C125.962 139.044 126.076 139.097 126.159 139.182C126.242 139.267 126.225 139.444 126.305 139.532C126.385 139.619 126.561 139.619 126.638 139.709C126.715 139.799 126.865 139.83 126.94 139.922C127.015 140.014 126.991 140.187 127.063 140.281C127.135 140.375 127.209 140.467 127.279 140.564C127.348 140.66 127.396 140.771 127.462 140.869C127.529 140.967 127.625 141.046 127.689 141.146C127.752 141.246 127.804 141.354 127.864 141.456C127.925 141.558 127.893 141.712 127.95 141.816C128.008 141.92 128.086 142.009 128.141 142.115C128.196 142.22 128.223 142.341 128.28 142.448C128.335 142.552 128.481 142.61 128.538 142.715C128.595 142.819 128.574 142.968 128.633 143.073C128.69 143.177 128.861 143.217 128.921 143.322C128.98 143.425 128.958 143.576 129.019 143.679C129.079 143.782 129.142 143.884 129.204 143.987C129.265 144.088 129.477 144.098 129.54 144.2C129.602 144.301 129.561 144.468 129.625 144.569C129.688 144.669 129.85 144.707 129.915 144.807C129.979 144.907 129.899 145.103 129.965 145.203C130.031 145.302 130.101 145.4 130.168 145.499C130.235 145.597 130.345 145.666 130.414 145.765C130.481 145.862 130.546 145.962 130.616 146.06C130.685 146.157 130.78 146.235 130.85 146.332C130.92 146.428 130.965 146.543 131.037 146.639C131.108 146.735 131.146 146.856 131.219 146.952C131.291 147.046 131.437 147.084 131.51 147.178C131.584 147.271 131.703 147.328 131.778 147.421C131.852 147.514 131.774 147.733 131.85 147.825C131.925 147.917 132.041 147.977 132.119 148.068C132.195 148.159 132.397 148.141 132.475 148.231C132.553 148.321 132.521 148.508 132.6 148.597C132.679 148.686 132.843 148.697 132.923 148.785C133.003 148.873 133.038 149.003 133.12 149.09C133.201 149.177 133.333 149.214 133.415 149.3C133.497 149.386 133.587 149.463 133.671 149.549C133.754 149.633 133.743 149.813 133.828 149.897C133.912 149.98 134.067 149.991 134.153 150.074C134.238 150.157 134.219 150.351 134.305 150.433C134.392 150.515 134.485 150.591 134.573 150.672C134.66 150.752 134.803 150.773 134.892 150.852C134.98 150.932 135.009 151.081 135.099 151.159C135.189 151.237 135.335 151.25 135.426 151.327C135.516 151.404 135.577 151.518 135.669 151.594C135.761 151.67 135.868 151.727 135.961 151.802C136.054 151.876 136.187 151.901 136.281 151.974C136.374 152.047 136.439 152.159 136.534 152.232C136.628 152.303 136.792 152.281 136.888 152.352C136.984 152.423 136.975 152.639 137.072 152.709C137.168 152.778 137.279 152.83 137.377 152.898C137.474 152.966 137.648 152.922 137.747 152.989C137.846 153.055 137.92 153.158 138.02 153.223C138.119 153.288 138.18 153.415 138.281 153.479C138.381 153.542 138.495 153.586 138.597 153.649C138.698 153.711 138.764 153.834 138.866 153.895C138.968 153.956 139.1 153.969 139.203 154.029C139.306 154.088 139.43 154.112 139.534 154.17C139.638 154.228 139.758 154.255 139.864 154.312C139.968 154.368 140.032 154.502 140.138 154.558C140.243 154.613 140.362 154.643 140.469 154.696C140.575 154.75 140.684 154.798 140.792 154.851C140.898 154.903 141.009 154.949 141.117 155C141.224 155.05 141.304 155.165 141.413 155.214C141.521 155.263 141.639 155.294 141.748 155.341C141.856 155.389 142.006 155.341 142.116 155.388C142.225 155.433 142.317 155.522 142.427 155.567C142.537 155.611 142.613 155.745 142.724 155.788C142.835 155.831 142.981 155.78 143.093 155.822C143.204 155.863 143.33 155.863 143.443 155.903C143.554 155.943 143.686 155.921 143.799 155.96C143.911 155.998 143.975 156.185 144.088 156.222C144.201 156.259 144.301 156.339 144.415 156.374C144.528 156.41 144.648 156.428 144.763 156.462C144.876 156.496 145.007 156.476 145.122 156.508C145.236 156.54 145.385 156.445 145.5 156.476C145.614 156.507 145.703 156.638 145.818 156.667C145.933 156.697 146.079 156.601 146.195 156.629C146.31 156.657 146.424 156.687 146.54 156.714C146.656 156.74 146.764 156.796 146.881 156.821C146.997 156.846 147.086 157.004 147.203 157.027C147.319 157.051 147.453 156.988 147.57 157.01C147.686 157.032 147.813 156.997 147.93 157.018C148.046 157.038 148.163 157.055 148.281 157.074C148.397 157.093 148.504 157.179 148.622 157.197C148.739 157.214 148.852 157.259 148.97 157.276C149.088 157.292 149.197 157.374 149.316 157.389C149.434 157.404 149.56 157.355 149.678 157.369C149.796 157.382 149.914 157.4 150.033 157.413C150.151 157.425 150.263 157.514 150.382 157.525C150.5 157.535 150.629 157.424 150.748 157.433C150.866 157.443 150.987 157.415 151.106 157.423C151.224 157.431 151.336 157.549 151.455 157.556C151.574 157.563 151.699 157.459 151.818 157.465C151.937 157.47 152.057 157.42 152.176 157.424C152.295 157.428 152.406 157.678 152.526 157.681C152.645 157.684 152.768 157.54 152.887 157.542C153.007 157.544 153.127 157.475 153.248 157.476C153.367 157.476 153.484 157.446 153.603 157.445C153.722 157.445 153.839 157.468 153.958 157.466C154.077 157.465 154.198 157.604 154.316 157.602C154.435 157.599 154.554 157.612 154.672 157.608C154.791 157.604 154.903 157.418 155.021 157.413C155.14 157.408 155.266 157.574 155.384 157.567C155.502 157.561 155.615 157.449 155.733 157.442C155.852 157.435 155.967 157.395 156.085 157.387C156.204 157.379 156.325 157.423 156.443 157.414C156.562 157.404 156.678 157.381 156.796 157.371C156.914 157.36 157.036 157.392 157.154 157.38C157.272 157.368 157.403 157.477 157.521 157.464C157.639 157.451 157.73 157.203 157.847 157.189C157.965 157.174 158.093 157.249 158.21 157.233C158.328 157.218 158.452 157.252 158.57 157.235C158.687 157.219 158.82 157.301 158.936 157.283C159.054 157.265 159.161 157.177 159.278 157.158C159.395 157.139 159.487 156.973 159.604 156.953C159.721 156.933 159.867 157.078 159.983 157.057C160.1 157.035 160.217 157.011 160.333 156.988C160.449 156.965 160.55 156.861 160.666 156.837C160.782 156.813 160.898 156.791 161.014 156.766C161.13 156.74 161.249 156.732 161.365 156.705C161.48 156.679 161.57 156.542 161.685 156.515C161.801 156.487 161.933 156.533 162.047 156.504C162.163 156.476 162.297 156.522 162.411 156.492C162.526 156.462 162.635 156.408 162.749 156.377C162.864 156.346 162.994 156.371 163.108 156.339C163.222 156.307 163.338 156.278 163.451 156.245C163.566 156.211 163.641 156.049 163.755 156.014C163.868 155.979 163.967 155.898 164.08 155.862C164.193 155.825 164.351 155.928 164.463 155.89C164.576 155.853 164.691 155.821 164.803 155.782C164.916 155.744 165.024 155.692 165.136 155.653C165.248 155.613 165.369 155.598 165.481 155.557C165.592 155.516 165.715 155.502 165.825 155.46C165.937 155.418 166.051 155.38 166.161 155.337C166.272 155.294 166.311 155.068 166.421 155.024C166.531 154.979 166.656 154.974 166.765 154.928C166.875 154.882 166.965 154.792 167.074 154.745C167.183 154.698 167.285 154.638 167.394 154.59C167.503 154.542 167.62 154.515 167.728 154.466C167.836 154.417 167.994 154.479 168.101 154.428C168.209 154.378 168.309 154.311 168.416 154.259C168.523 154.208 168.601 154.097 168.708 154.045C168.814 153.992 168.891 153.881 168.996 153.827C169.102 153.774 169.298 153.897 169.403 153.842C169.509 153.787 169.609 153.72 169.713 153.664C169.818 153.608 169.867 153.448 169.971 153.391C170.075 153.334 170.254 153.411 170.357 153.353C170.461 153.295 170.466 153.063 170.569 153.004C170.672 152.944 170.785 152.904 170.887 152.844C170.989 152.783 171.093 152.728 171.195 152.666C171.297 152.605 171.438 152.609 171.539 152.547C171.64 152.484 171.674 152.315 171.774 152.251C171.874 152.187 171.995 152.159 172.095 152.094C172.194 152.029 172.368 152.079 172.467 152.013C172.566 151.948 172.604 151.789 172.702 151.723C172.8 151.656 172.879 151.561 172.976 151.494C173.074 151.426 173.22 151.429 173.316 151.36C173.413 151.291 173.46 151.152 173.556 151.083C173.652 151.013 173.8 151.015 173.895 150.945C173.991 150.874 174.081 150.795 174.175 150.724C174.27 150.652 174.284 150.474 174.377 150.402C174.471 150.329 174.636 150.349 174.729 150.275C174.822 150.202 174.863 150.063 174.956 149.989C175.048 149.914 175.234 149.956 175.325 149.88C175.417 149.805 175.424 149.626 175.515 149.55C175.606 149.474 175.694 149.395 175.784 149.318C175.875 149.241 176.007 149.214 176.097 149.136C176.186 149.058 176.293 148.999 176.381 148.92C176.47 148.841 176.504 148.701 176.592 148.621C176.68 148.542 176.82 148.52 176.907 148.439C176.994 148.359 177.004 148.195 177.09 148.113C177.177 148.032 177.352 148.045 177.438 147.963C177.524 147.881 177.513 147.699 177.597 147.616C177.682 147.532 177.781 147.465 177.865 147.381C177.949 147.297 178.159 147.339 178.242 147.255C178.326 147.17 178.367 147.043 178.449 146.958C178.532 146.872 178.593 146.766 178.675 146.68C178.757 146.594 178.856 146.524 178.936 146.437C179.017 146.35 179.13 146.291 179.21 146.204C179.291 146.115 179.331 145.99 179.41 145.902C179.489 145.813 179.608 145.759 179.686 145.669C179.765 145.58 179.725 145.387 179.803 145.297C179.881 145.206 180.057 145.201 180.133 145.11C180.21 145.019 180.288 144.928 180.364 144.837C180.44 144.745 180.404 144.561 180.479 144.469C180.554 144.376 180.759 144.39 180.833 144.297C180.908 144.204 180.986 144.114 181.06 144.02C181.133 143.926 181.215 143.839 181.288 143.745C181.36 143.65 181.4 143.53 181.472 143.435C181.543 143.34 181.565 143.206 181.635 143.111C181.706 143.015 181.765 142.911 181.835 142.815C181.905 142.719 181.948 142.603 182.017 142.507C182.086 142.41 182.207 142.35 182.274 142.252C182.343 142.155 182.446 142.081 182.512 141.983C182.58 141.885 182.564 141.73 182.63 141.632C182.697 141.532 182.874 141.508 182.939 141.409C183.004 141.309 182.906 141.103 182.97 141.003C183.035 140.903 183.153 140.838 183.216 140.738C183.279 140.637 183.451 140.604 183.513 140.504C183.576 140.402 183.564 140.254 183.625 140.153C183.687 140.051 183.753 139.952 183.813 139.851C183.874 139.748 183.899 139.625 183.959 139.522C184.018 139.419 184.195 139.384 184.253 139.281C184.312 139.177 184.276 139.02 184.333 138.916C184.391 138.812 184.512 138.743 184.569 138.639C184.625 138.534 184.731 138.455 184.786 138.35C184.842 138.244 184.762 138.068 184.816 137.963C184.871 137.856 184.845 137.711 184.898 137.605C184.952 137.498 185.098 137.438 185.15 137.332C185.203 137.224 185.356 137.166 185.407 137.059C185.459 136.95 185.336 136.761 185.386 136.653C185.436 136.544 185.595 136.487 185.644 136.379C185.693 136.27 185.689 136.138 185.736 136.029C185.784 135.92 185.802 135.799 185.848 135.69C185.894 135.579 185.971 135.483 186.016 135.374C186.061 135.263 186.204 135.192 186.247 135.083C186.29 134.971 186.373 134.875 186.414 134.765C186.457 134.652 186.323 134.475 186.363 134.364C186.404 134.251 186.392 134.122 186.431 134.011C186.47 133.898 186.576 133.81 186.613 133.698C186.651 133.584 186.752 133.491 186.787 133.379C186.823 133.264 186.738 133.115 186.771 133.002C186.805 132.887 186.866 132.782 186.897 132.67C186.929 132.553 187.112 132.479 187.141 132.366C187.171 132.249 187.078 132.103 187.104 131.989C187.132 131.872 187.212 131.768 187.236 131.654C187.261 131.536 187.215 131.406 187.236 131.292C187.258 131.173 187.414 131.079 187.432 130.965C187.451 130.845 187.421 130.616 187.435 130.501C187.265 130.445 187.223 130.478 187.044 130.478C186.865 130.478 186.865 130.661 186.686 130.661C186.508 130.661 186.508 130.613 186.329 130.613C186.15 130.613 186.15 130.6 185.971 130.6C185.792 130.6 185.792 130.57 185.613 130.57C185.434 130.57 185.434 130.573 185.255 130.573C185.075 130.573 185.075 130.571 184.896 130.571C184.717 130.571 184.717 130.478 184.538 130.478C184.358 130.478 184.358 130.623 184.179 130.623C184 130.623 184 130.512 183.821 130.512C183.641 130.512 183.641 130.486 183.462 130.486C183.283 130.486 183.283 130.636 183.104 130.636C182.925 130.636 182.925 130.698 182.746 130.698C182.567 130.698 182.567 130.558 182.388 130.558C182.209 130.558 182.209 130.681 182.03 130.681C181.851 130.681 181.851 130.479 181.672 130.479C181.492 130.479 181.492 130.521 181.313 130.521C181.134 130.521 181.134 130.705 180.954 130.705C180.775 130.705 180.775 130.526 180.596 130.526C180.416 130.526 180.416 130.545 180.237 130.545C180.058 130.545 180.058 130.562 179.879 130.562C179.7 130.562 179.7 130.681 179.521 130.681C179.341 130.681 179.341 130.539 179.162 130.539C178.983 130.539 178.983 130.572 178.804 130.572C178.624 130.572 178.624 130.516 178.445 130.516C178.266 130.516 178.266 130.665 178.086 130.665C177.907 130.665 177.907 130.543 177.728 130.543C177.548 130.543 177.548 130.709 177.369 130.709C177.19 130.709 177.19 130.502 177.011 130.502C176.831 130.502 176.831 130.597 176.652 130.597C176.474 130.597 176.474 130.496 176.295 130.496C176.116 130.496 176.116 130.63 175.938 130.63C175.759 130.63 175.759 130.687 175.58 130.687C175.401 130.687 175.401 130.575 175.222 130.575C175.043 130.575 175.043 130.513 174.864 130.513C174.684 130.513 174.684 130.621 174.505 130.621C174.325 130.621 174.325 130.644 174.146 130.644C173.967 130.644 173.967 130.554 173.788 130.554C173.609 130.554 173.609 130.705 173.43 130.705C173.251 130.705 173.251 130.657 173.072 130.657C172.893 130.657 172.893 130.647 172.714 130.647C172.534 130.647 172.534 130.589 172.355 130.589C172.175 130.589 172.175 130.602 171.996 130.602C171.816 130.602 171.816 130.531 171.637 130.531C171.458 130.531 171.458 130.716 171.279 130.716C171.099 130.716 171.099 130.568 170.92 130.568C170.74 130.568 170.74 130.532 170.561 130.532C170.381 130.532 170.381 130.531 170.202 130.531C170.022 130.531 170.022 130.619 169.843 130.619C169.663 130.619 169.663 130.709 169.484 130.709C169.304 130.709 169.304 130.72 169.124 130.72C168.945 130.72 168.945 130.521 168.765 130.521C168.585 130.521 168.585 130.636 168.406 130.636C168.226 130.636 168.226 130.494 168.046 130.494C167.866 130.494 167.866 130.5 167.687 130.5C167.507 130.5 167.507 130.639 167.328 130.639C167.149 130.639 167.149 130.546 166.969 130.546C166.789 130.546 166.789 130.563 166.61 130.563C166.43 130.563 166.43 130.612 166.25 130.612C166.07 130.612 166.07 130.477 165.891 130.477C165.71 130.477 165.71 130.642 165.53 130.642C165.351 130.642 165.351 130.509 165.171 130.509C164.991 130.509 164.991 130.521 164.81 130.521C164.63 130.521 164.63 130.695 164.449 130.695C164.269 130.695 164.269 130.486 164.088 130.486C164.088 130.486 164.076 130.589 164.076 130.589C163.998 130.674 164.005 130.855 163.916 130.939C163.832 131.018 163.738 131.103 163.644 131.181C163.555 131.255 163.447 131.319 163.349 131.391C163.256 131.461 163.043 131.366 162.943 131.435C162.847 131.5 162.832 131.695 162.729 131.759C162.63 131.821 162.542 131.909 162.437 131.969C162.336 132.028 162.158 131.953 162.052 132.01C161.949 132.065 161.878 132.185 161.77 132.239C161.665 132.291 161.547 132.32 161.439 132.371C161.332 132.42 161.207 132.429 161.097 132.476C160.989 132.523 160.937 132.713 160.826 132.757C160.717 132.8 160.573 132.761 160.461 132.802C160.35 132.843 160.25 132.918 160.137 132.956C160.025 132.994 159.864 132.878 159.75 132.914C159.637 132.949 159.534 133.013 159.42 133.046C159.306 133.078 159.215 133.198 159.1 133.227C158.985 133.256 158.851 133.201 158.735 133.226C158.619 133.252 158.525 133.387 158.409 133.409C158.292 133.432 158.174 133.452 158.057 133.471C157.939 133.491 157.825 133.544 157.708 133.559C157.59 133.575 157.452 133.407 157.334 133.418C157.215 133.43 157.109 133.578 156.991 133.586C156.872 133.594 156.748 133.469 156.63 133.472C156.511 133.475 156.394 133.604 156.276 133.603C156.157 133.602 156.037 133.583 155.919 133.577C155.8 133.57 155.694 133.429 155.577 133.418C155.458 133.406 155.316 133.59 155.199 133.572C155.081 133.554 154.975 133.458 154.859 133.434C154.742 133.409 154.639 133.333 154.526 133.303C154.41 133.271 154.316 133.186 154.205 133.148C154.092 133.109 153.975 133.098 153.866 133.052C153.756 133.006 153.645 132.975 153.539 132.92C153.433 132.866 153.282 132.893 153.181 132.831C153.08 132.768 153.038 132.618 152.942 132.547C152.847 132.476 152.692 132.479 152.604 132.399C152.515 132.32 152.442 132.22 152.36 132.132C152.28 132.045 152.151 131.991 152.078 131.896C152.006 131.803 151.977 131.67 151.912 131.568C151.849 131.469 151.735 131.391 151.679 131.284C151.625 131.18 151.671 131.022 151.624 130.911C151.578 130.803 151.443 130.724 151.404 130.609C151.367 130.498 151.515 130.328 151.484 130.21C151.454 130.098 151.338 130.006 151.314 129.887C151.292 129.772 151.15 129.671 151.134 129.55C151.117 129.434 151.148 129.305 151.137 129.184C151.127 129.07 151.275 128.936 151.264 128.812C151.253 128.697 151.033 128.598 151.021 128.475C151.01 128.359 151.052 128.235 151.04 128.112C151.028 127.996 151.067 127.871 151.054 127.749C151.042 127.633 151.161 127.499 151.149 127.378C151.136 127.261 150.969 127.158 150.956 127.037C150.943 126.919 150.919 126.802 150.906 126.68C150.893 126.563 150.925 126.439 150.911 126.318C150.898 126.2 150.871 126.082 150.858 125.962C150.844 125.844 150.92 125.714 150.906 125.594C150.892 125.476 150.745 125.372 150.731 125.251C150.718 125.133 150.669 125.018 150.655 124.898C150.642 124.78 150.708 124.651 150.694 124.532C150.681 124.414 150.667 124.295 150.652 124.175C150.639 124.057 150.725 123.926 150.711 123.806C150.697 123.687 150.507 123.59 150.493 123.47C150.479 123.351 150.573 123.219 150.559 123.099C150.544 122.981 150.435 122.873 150.421 122.754C150.407 122.635 150.441 122.51 150.426 122.39C150.412 122.271 150.535 122.136 150.521 122.016C150.506 121.898 150.362 121.795 150.347 121.675C150.332 121.556 150.222 121.449 150.207 121.33C150.193 121.211 150.314 121.075 150.299 120.955C150.285 120.836 150.367 120.704 150.353 120.585C150.338 120.465 150.216 120.359 150.201 120.24C150.187 120.12 150.232 119.993 150.217 119.873C150.202 119.753 150.102 119.645 150.087 119.525C150.072 119.405 149.968 119.297 149.953 119.177C149.938 119.057 150.028 118.924 150.013 118.805C149.998 118.684 149.899 118.575 149.884 118.456C149.869 118.336 149.936 118.206 149.921 118.087C149.906 117.968 149.849 117.854 149.834 117.735C149.819 117.615 149.939 117.479 149.924 117.36C149.909 117.24 149.723 117.143 149.708 117.024C149.692 116.904 149.685 116.784 149.67 116.665C149.654 116.545 149.641 116.426 149.626 116.307C149.611 116.187 149.783 116.043 149.767 115.925C149.752 115.805 149.697 115.69 149.682 115.572C149.667 115.452 149.665 115.33 149.65 115.212C149.634 115.092 149.569 114.979 149.554 114.861C149.538 114.74 149.438 114.632 149.422 114.514C149.407 114.393 149.321 114.283 149.306 114.166C149.29 114.044 149.488 113.897 149.473 113.78C149.457 113.658 149.428 113.541 149.413 113.425C149.397 113.302 149.28 113.196 149.265 113.08C149.249 112.957 149.346 112.823 149.331 112.707C149.315 112.583 149.285 112.465 149.27 112.35C149.254 112.226 149.103 112.124 149.088 112.011C149.072 111.884 149.014 111.771 149 111.659C148.983 111.53 148.943 111.414 148.929 111.306C148.91 111.169 149.105 111.021 149.092 110.922C149.062 110.691 149.117 110.635 148.947 110.582Z" fill="#E40524"/>
<path d="M108.405 148.861C108.405 148.861 113.546 158.089 107.735 157.963C101.923 157.836 75.0036 157.999 75.0036 157.999C75.0036 157.999 74.574 153.826 83.0494 153.92C92.8398 154.028 94.1514 149.252 94.1514 149.252L108.405 148.861Z" fill="#ED6FA7"/>
<path d="M165.473 130.522C165.473 130.522 160.314 122.347 166.127 122.321C171.94 122.295 198.863 120.908 198.863 120.908C198.863 120.908 200.699 125.597 190.909 125.715C181.118 125.834 179.455 130.522 179.455 130.522H165.473Z" fill="#ED6FA7"/>
<path d="M81.0235 153.481C81.0204 153.604 81.1076 153.729 81.0878 153.847C81.0675 153.967 81.0737 154.099 81.0372 154.213C81.0001 154.329 80.8419 154.394 80.7893 154.502C80.7362 154.611 80.6874 154.712 80.6199 154.812C80.552 154.912 80.5748 155.085 80.4938 155.174C80.4126 155.263 80.258 155.279 80.165 155.355C80.0723 155.432 79.9627 155.475 79.8597 155.538C79.7573 155.6 79.6727 155.686 79.5615 155.734C79.4516 155.781 79.3475 155.844 79.2304 155.875C79.1152 155.906 78.9923 155.89 78.8715 155.905C78.7536 155.918 78.6353 156.049 78.5132 156.046C78.391 156.043 78.2633 156.003 78.1462 155.983C78.0263 155.963 77.9495 155.78 77.8361 155.743C77.7207 155.706 77.5863 155.739 77.4789 155.686C77.3704 155.632 77.2416 155.612 77.1426 155.544C77.043 155.476 77.0039 155.333 76.9152 155.252C76.8264 155.17 76.7621 155.077 76.6857 154.984C76.6094 154.89 76.3995 154.889 76.3369 154.786C76.2747 154.683 76.398 154.483 76.3506 154.371C76.3038 154.261 76.1931 154.181 76.1621 154.063C76.1315 153.947 76.1466 153.827 76.1326 153.706C76.1189 153.587 76.1676 153.476 76.1708 153.354C76.174 153.231 76.1118 153.114 76.1316 152.997C76.1519 152.876 76.031 152.716 76.0675 152.602C76.1046 152.486 76.2101 152.385 76.2627 152.277C76.3158 152.168 76.3419 152.03 76.4094 151.931C76.4773 151.83 76.5883 151.75 76.6693 151.66C76.7505 151.571 76.9141 151.567 77.0071 151.49C77.0998 151.413 77.199 151.358 77.302 151.295C77.4044 151.232 77.5001 151.171 77.6113 151.124C77.7212 151.077 77.8346 151.063 77.9517 151.032C78.0669 151.001 78.1532 150.795 78.274 150.781C78.3919 150.767 78.5252 150.869 78.6472 150.872C78.7694 150.876 78.8905 150.883 79.0075 150.903C79.1275 150.923 79.2447 150.955 79.3582 150.992C79.4736 151.029 79.5674 151.113 79.6748 151.166C79.7833 151.219 79.9205 151.222 80.0195 151.29C80.1191 151.358 80.1166 151.547 80.2053 151.628C80.2941 151.71 80.5329 151.647 80.6093 151.741C80.6856 151.834 80.6352 152.022 80.6978 152.126C80.76 152.229 80.7848 152.342 80.8322 152.454C80.879 152.564 80.9226 152.665 80.9536 152.783C80.9842 152.899 81.155 152.99 81.1691 153.112C81.1827 153.23 81.0267 153.358 81.0235 153.481Z" fill="#E40524"/>
<path d="M196.817 126.636C196.817 126.759 196.603 126.867 196.586 126.986C196.569 127.107 196.62 127.235 196.586 127.35C196.552 127.467 196.492 127.57 196.443 127.68C196.392 127.79 196.425 127.95 196.36 128.052C196.295 128.154 196.135 128.188 196.056 128.28C195.977 128.371 195.935 128.499 195.844 128.579C195.753 128.658 195.62 128.68 195.518 128.746C195.418 128.811 195.281 128.789 195.171 128.839C195.062 128.889 194.981 128.979 194.865 129.013C194.75 129.047 194.645 129.095 194.525 129.112C194.407 129.129 194.293 129.294 194.171 129.294C194.049 129.294 193.933 129.136 193.816 129.119C193.695 129.102 193.58 129.084 193.466 129.051C193.349 129.016 193.222 129.015 193.113 128.965C193.003 128.914 192.87 128.894 192.77 128.828C192.668 128.763 192.667 128.566 192.576 128.487C192.485 128.408 192.416 128.325 192.337 128.234C192.258 128.143 192.169 128.074 192.104 127.972C192.039 127.871 192.019 127.758 191.968 127.648C191.919 127.538 191.677 127.5 191.643 127.383C191.61 127.268 191.753 127.11 191.736 126.988C191.719 126.87 191.698 126.759 191.698 126.636C191.698 126.513 191.562 126.379 191.579 126.261C191.596 126.14 191.747 126.045 191.78 125.93C191.814 125.813 191.828 125.692 191.878 125.583C191.928 125.472 191.894 125.307 191.958 125.206C192.024 125.104 192.243 125.116 192.322 125.024C192.401 124.933 192.403 124.768 192.494 124.689C192.584 124.61 192.756 124.645 192.857 124.58C192.958 124.514 192.977 124.298 193.087 124.248C193.195 124.198 193.308 124.115 193.425 124.08C193.539 124.047 193.7 124.202 193.82 124.184C193.938 124.167 194.049 124.029 194.171 124.029C194.293 124.029 194.403 124.176 194.52 124.193C194.641 124.21 194.742 124.256 194.856 124.29C194.972 124.324 195.115 124.268 195.223 124.318C195.333 124.368 195.461 124.395 195.561 124.46C195.663 124.525 195.733 124.639 195.824 124.718C195.914 124.797 196.057 124.832 196.136 124.923C196.215 125.015 196.212 125.172 196.277 125.274C196.342 125.376 196.465 125.449 196.515 125.559C196.565 125.669 196.51 125.818 196.544 125.935C196.578 126.05 196.673 126.151 196.69 126.272C196.707 126.39 196.817 126.513 196.817 126.636Z" fill="#E40524"/>
<path d="M132.286 66.186L127.912 64.5762L113.442 85.5665L115.881 113.615H149.334L144.227 71.8483L132.286 66.186Z" fill="#ED6FA7"/>
<path d="M136.949 72.7198H92.3996C91.5247 72.7198 91.3484 71.8476 91.6598 71.0253C91.9588 70.2358 92.7587 69.4569 92.7329 68.4442C92.6672 65.8663 90.1549 67.0821 90.1549 67.0821C90.1549 67.0821 89.2828 63.0177 88.8957 60.864C88.621 59.3359 85.4974 59.8029 86.1615 62.0326C86.1615 62.0326 85.6843 60.5292 84.1729 60.7936C82.6615 61.058 82.8759 63.4868 82.8759 63.4868C82.8759 63.4868 82.119 62.0187 80.9781 63.1174C80.3803 63.6931 80.7073 67.4906 80.7073 67.4906C80.7073 67.4906 79.0645 66.6595 78.7359 68.7086C78.4073 70.7576 76.5016 83.0519 81.6273 83.2502C85.5429 83.4017 120.23 86.0818 136.39 87.3388C140.755 87.6783 144.426 84.0927 144.219 79.6942C144.035 75.7902 140.835 72.7198 136.949 72.7198Z" fill="#F7C400"/>
<path d="M80.978 67.9023L81.4801 75.2255" stroke="#E30518" stroke-miterlimit="10" stroke-linecap="round"/>
<path d="M80.9781 70.029C80.4446 70.029 80.0122 69.594 80.0122 69.0575C80.0122 68.5209 80.4446 68.0859 80.9781 68.0859" stroke="#E30518" stroke-miterlimit="10" stroke-linecap="round"/>
<path d="M82.8472 63.4199L83.9901 71.8482" stroke="#E30518" stroke-miterlimit="10" stroke-linecap="round"/>
<path d="M83.1357 65.5465C82.19 65.6653 81.8813 65.1116 81.8813 64.575C81.8813 64.0385 82.3138 63.6035 82.8472 63.6035" stroke="#E30518" stroke-miterlimit="10" stroke-linecap="round"/>
<path d="M86.1479 61.9023L87.1524 70.4701" stroke="#E30518" stroke-miterlimit="10" stroke-linecap="round"/>
<path d="M86.3733 64.1094C85.7674 64.2228 85.1849 63.8205 85.0722 63.2111C84.9596 62.6016 85.3594 62.0157 85.9654 61.9023" stroke="#E30518" stroke-miterlimit="10" stroke-linecap="round"/>
<path d="M88.8116 60.9922C88.2056 61.1055 87.8058 61.6914 87.9184 62.3009C88.0311 62.9104 88.6136 63.3126 89.2195 63.1993" stroke="#E30518" stroke-miterlimit="10" stroke-linecap="round"/>
<path d="M92.2238 69.8471C91.6377 69.7303 91.2568 69.1577 91.3729 68.5682C91.489 67.9788 92.0582 67.5956 92.6443 67.7124" stroke="#E30518" stroke-miterlimit="10" stroke-linecap="round"/>
<path d="M90.1545 67.082L89.5259 70.03" stroke="#E30518" stroke-miterlimit="10" stroke-linecap="round"/>
<path d="M111.815 51.8998C111.617 52.0331 111.41 52.2012 111.195 52.4108C111.195 52.4108 110.13 51.5025 109.098 52.4108C108.563 53.0017 108.428 53.2285 108.428 53.2285C108.428 53.2285 107.39 52.5481 106.624 53.2285C105.857 53.9089 103.742 59.1552 103.557 59.9869C103.287 61.2057 105.181 62.3002 106.173 60.2591C106.173 60.2591 105.756 61.387 106.785 61.7694C107.531 62.0465 108.38 61.7421 108.823 61.0783C109.007 60.8021 109.098 60.5641 109.098 60.5641C109.098 60.5641 109.615 61.4661 110.853 60.9921C111.952 60.5713 113.255 55.9659 113.966 53.4666C114.329 52.1904 112.912 51.1616 111.815 51.8998Z" fill="#F7C400"/>
<path d="M108.112 54.0352L106.173 60.2577" stroke="#E30518" stroke-miterlimit="10" stroke-linecap="round"/>
<path d="M111.03 54.0352L109.091 60.2577" stroke="#E30518" stroke-miterlimit="10" stroke-linecap="round"/>
<path d="M110.239 60.259C110.676 60.259 111.031 59.9024 111.031 59.4625C111.031 59.0226 110.676 58.666 110.239 58.666C109.801 58.666 109.447 59.0226 109.447 59.4625C109.447 59.9024 109.801 60.259 110.239 60.259Z" stroke="#E30518" stroke-miterlimit="10" stroke-linecap="round"/>
<path d="M107.201 60.9231C107.638 60.9231 107.993 60.5665 107.993 60.1266C107.993 59.6867 107.638 59.3301 107.201 59.3301C106.764 59.3301 106.409 59.6867 106.409 60.1266C106.409 60.5665 106.764 60.9231 107.201 60.9231Z" stroke="#E30518" stroke-miterlimit="10" stroke-linecap="round"/>
<path d="M104.529 60.4973C104.966 60.4973 105.321 60.1407 105.321 59.7008C105.321 59.2609 104.966 58.9043 104.529 58.9043C104.091 58.9043 103.737 59.2609 103.737 59.7008C103.737 60.1407 104.091 60.4973 104.529 60.4973Z" stroke="#E30518" stroke-miterlimit="10" stroke-linecap="round"/>
<path d="M118.547 60.674C119.076 58.4491 117.946 56.162 115.864 55.2417C115.431 55.0504 115.062 54.846 114.787 54.7618C112.68 54.119 111.045 56.9017 113.442 59.3307L104.731 66.8942V78.1074H119.697L128.701 64.5841C128.701 64.5841 127.064 62.969 123.965 64.1284C120.867 65.2879 116.365 69.8465 116.365 69.8465L118.547 60.674Z" fill="#F7C400"/>
<path d="M114.575 58.0857C115.296 58.0857 115.88 57.4977 115.88 56.7723C115.88 56.047 115.296 55.459 114.575 55.459C113.854 55.459 113.269 56.047 113.269 56.7723C113.269 57.4977 113.854 58.0857 114.575 58.0857Z" stroke="#E30518" stroke-miterlimit="10" stroke-linecap="round"/>
<path d="M113.442 59.3301L114.575 60.7014" stroke="#E30518" stroke-miterlimit="10" stroke-linecap="round"/>
<path d="M104.731 72.7129H123.146" stroke="#E30518" stroke-miterlimit="10" stroke-linecap="round"/>
<path d="M148.216 53.2433C147.987 53.056 147.989 53.064 147.734 52.9142C147.479 52.7644 147.487 52.7511 147.232 52.6013C146.977 52.4512 146.964 52.4735 146.709 52.3234C146.454 52.1733 146.478 52.1315 146.223 51.9814C145.968 51.8315 146.001 51.7744 145.746 51.6245C145.491 51.4745 145.504 51.4516 145.249 51.3016C144.994 51.1514 144.944 51.2372 144.689 51.087C144.434 50.937 144.4 50.9949 144.145 50.8449C143.889 50.6947 143.94 50.6067 143.685 50.4565C143.43 50.3064 143.391 50.3737 143.135 50.2236C142.88 50.0733 142.852 50.1219 142.596 49.9716C142.341 49.8214 142.333 49.8356 142.077 49.6854C141.822 49.5351 141.816 49.5454 141.56 49.3951C141.305 49.2449 141.35 49.1672 141.095 49.017C140.925 48.917 140.755 48.817 140.584 48.717C140.329 48.5668 140.334 48.5587 140.078 48.4085C139.823 48.2582 139.799 48.2992 139.543 48.1488C139.287 47.9984 139.363 47.8682 139.107 47.7178C138.852 47.5674 138.793 47.6682 138.537 47.5177C138.281 47.367 138.264 47.3959 138.008 47.2452C137.752 47.0945 137.766 47.0791 137.579 46.8475C137.392 46.6157 137.606 46.6631 137.878 46.4007C137.998 46.2847 138.181 46.1856 138.364 46.0487C138.508 45.9411 138.737 45.9377 138.923 45.8275C139.081 45.7334 139.233 45.615 139.424 45.525C139.593 45.4454 139.781 45.4027 139.977 45.3305C140.154 45.2653 140.322 45.1642 140.521 45.108C140.704 45.0567 140.869 44.8998 141.071 44.8584C141.257 44.8201 141.477 44.9444 141.68 44.9162C141.869 44.8902 142.059 44.869 142.263 44.8531C142.454 44.8382 142.64 44.5998 142.844 44.5949C143.036 44.5902 143.24 44.591 143.444 44.5961C143.636 44.6008 143.835 44.6641 144.038 44.6782C144.23 44.6916 144.423 44.7676 144.625 44.79C144.817 44.8111 145.016 44.8204 145.217 44.8503C145.407 44.8786 145.599 44.9336 145.798 44.9701C145.988 45.005 146.207 44.9277 146.405 44.9706C146.595 45.0115 146.782 45.0922 146.979 45.1408C147.167 45.1872 147.313 45.414 147.508 45.4677C147.695 45.5194 147.89 45.5523 148.084 45.611C148.271 45.6675 148.453 45.7432 148.646 45.8064C148.836 45.869 149.027 45.9086 149.207 45.9767C149.395 46.0473 149.636 45.9738 149.814 46.0502C149.998 46.1295 150.157 46.2612 150.33 46.3463C150.51 46.4346 150.731 46.4444 150.899 46.5386C151.074 46.6364 151.167 46.8713 151.33 46.975C151.498 47.0825 151.643 47.2144 151.8 47.3277C151.962 47.4451 152.211 47.4445 152.36 47.5677C152.514 47.6951 152.636 47.8614 152.777 47.9944C152.922 48.1317 153.057 48.2796 153.189 48.4223C153.324 48.569 153.475 48.704 153.596 48.8559C153.721 49.0116 153.696 49.2744 153.807 49.4348C153.919 49.5988 154.055 49.7383 154.154 49.9064C154.255 50.0778 154.421 50.2096 154.508 50.3845C154.596 50.5625 154.574 50.7864 154.649 50.9672C154.724 51.1509 154.996 51.2601 155.058 51.4457C155.122 51.6341 155.117 51.8479 155.167 52.0372C155.217 52.2292 155.294 52.4187 155.332 52.6108C155.37 52.8058 155.362 53.0116 155.388 53.2057C155.414 53.4028 155.312 53.6113 155.326 53.8064C155.341 54.005 155.541 54.1944 155.544 54.3897C155.548 54.5891 155.371 54.7864 155.364 54.9812C155.356 55.1812 155.322 55.3731 155.304 55.567C155.286 55.7667 155.35 55.9713 155.322 56.1631C155.292 56.3623 155.254 56.5564 155.215 56.7454C155.174 56.9437 155.168 57.1468 155.118 57.3321C155.065 57.529 155.056 57.7376 154.995 57.9176C154.929 58.1129 154.827 58.2923 154.753 58.4649C154.67 58.6576 154.537 58.8166 154.448 58.9771C154.343 59.166 154.132 59.2521 154.023 59.3904C153.881 59.5704 153.799 59.6929 153.627 59.7373C153.449 59.7835 153.292 59.758 153.089 59.6817C152.926 59.62 152.697 59.6326 152.522 59.5054C152.375 59.3986 152.211 59.2738 152.06 59.1292C151.926 59.0008 151.762 58.8768 151.625 58.7243C151.499 58.5832 151.52 58.3067 151.394 58.1494C151.274 57.9997 151.001 57.9625 150.882 57.802C150.767 57.6462 150.828 57.3601 150.715 57.1975C150.604 57.0368 150.391 56.9454 150.283 56.7813C150.175 56.6162 150.11 56.4238 150.007 56.2586C149.901 56.0898 149.822 55.9081 149.722 55.7426C149.619 55.5703 149.464 55.4343 149.368 55.2696C149.265 55.0925 149.194 54.9064 149.102 54.7429C148.999 54.5598 148.864 54.4093 148.777 54.2499C148.672 54.0547 148.58 53.8789 148.502 53.7307C148.332 53.4049 148.443 53.4289 148.216 53.2433Z" fill="#010101"/>
<path d="M137.526 46.8887C137.526 46.8887 135.323 48.7514 134.828 50.0126C134.597 50.599 134.178 51.1349 133.624 51.4288C132.969 51.7758 132.176 51.6689 131.451 51.822C130.498 52.0233 129.661 52.7128 129.277 53.6123C128.892 54.5119 128.971 55.5974 129.481 56.4313C129.718 56.8181 130.052 57.1893 130.053 57.6435C130.053 58.0274 129.812 58.3617 129.614 58.6899C128.649 60.2878 127.88 62.7072 127.912 64.5762C127.946 66.579 129.168 67.308 129.168 67.308L142.445 71.6218C142.445 71.6218 144.25 67.7384 146.589 66.5026C147.473 66.0355 148.462 65.8094 149.378 65.41C150.982 64.7109 152.345 63.4669 153.192 61.9292C154.142 60.206 154.423 58.0696 153.724 56.2294C153.024 54.3892 151.276 52.9352 149.321 52.8131C149.099 52.7993 148.862 52.7974 148.677 52.673L137.526 46.8887Z" fill="#F7C400"/>
<path d="M149.615 54.9883C149.615 54.9883 152.792 56.7422 152.176 59.5039C151.388 63.0411 147.59 64.1699 147.59 64.1699" stroke="#E30518" stroke-miterlimit="10" stroke-linecap="round"/>
<path d="M131.138 56.4145C131.317 56.4145 131.462 56.2684 131.462 56.0881C131.462 55.9078 131.317 55.7617 131.138 55.7617C130.959 55.7617 130.813 55.9078 130.813 56.0881C130.813 56.2684 130.959 56.4145 131.138 56.4145Z" fill="#E40524"/>
<path d="M130.256 56.1254C130.435 56.1254 130.581 55.9793 130.581 55.799C130.581 55.6188 130.435 55.4727 130.256 55.4727C130.077 55.4727 129.932 55.6188 129.932 55.799C129.932 55.9793 130.077 56.1254 130.256 56.1254Z" fill="#E40524"/>
<path d="M133.708 58.6568L129.338 58.6445" stroke="#E30518" stroke-miterlimit="10" stroke-linecap="round"/>
<path d="M151.547 63.9037C151.843 63.852 151.667 64.1931 151.944 64.4624C152.066 64.5805 152.263 64.667 152.425 64.8329C152.553 64.9644 152.681 65.1205 152.829 65.2807C152.958 65.4195 153.083 65.5776 153.224 65.7372C153.352 65.8814 153.428 66.0806 153.563 66.2411C153.689 66.3897 153.854 66.5124 153.985 66.6745C154.108 66.8269 154.241 66.9771 154.368 67.1411C154.488 67.2967 154.56 67.4924 154.682 67.6581C154.799 67.8171 155.071 67.8684 155.188 68.0364C155.302 68.1986 155.252 68.4777 155.365 68.648C155.475 68.8133 155.783 68.8526 155.892 69.0252C155.999 69.1936 156.048 69.4028 156.153 69.5779C156.255 69.7492 156.284 69.9664 156.384 70.1439C156.482 70.3181 156.549 70.5102 156.644 70.6902C156.738 70.8672 156.942 70.9888 157.032 71.1712C157.121 71.3509 157.212 71.5334 157.297 71.7182C157.38 71.9006 157.398 72.1149 157.477 72.3021C157.555 72.487 157.728 72.6361 157.802 72.8256C157.874 73.013 157.92 73.2144 157.987 73.4061C158.054 73.5957 158.134 73.7849 158.194 73.9786C158.254 74.1704 158.26 74.3818 158.314 74.5774C158.367 74.7713 158.501 74.9483 158.548 75.1457C158.594 75.3414 158.454 75.5804 158.493 75.7794C158.532 75.9767 158.675 76.1559 158.707 76.3563C158.738 76.555 158.761 76.7575 158.785 76.9592C158.809 77.159 158.675 77.3739 158.691 77.5765C158.707 77.777 158.75 77.9728 158.758 78.176C158.765 78.3768 158.947 78.5762 158.946 78.7796C158.945 78.9804 158.752 79.1775 158.742 79.3806C158.733 79.5812 158.926 79.7976 158.908 80.0003C158.89 80.2003 158.686 80.3818 158.66 80.5838C158.633 80.7827 158.714 80.9995 158.678 81.2002C158.644 81.3977 158.601 81.5974 158.557 81.7965C158.514 81.9923 158.498 82.1992 158.446 82.3964C158.394 82.5904 158.277 82.7646 158.22 82.952C158.161 83.1439 158.083 83.3269 158.018 83.512C157.952 83.7013 157.963 83.9188 157.89 84.101C157.816 84.2874 157.577 84.4002 157.497 84.5791C157.415 84.762 157.394 84.9683 157.306 85.1433C157.216 85.3222 157.06 85.4597 156.964 85.6304C156.865 85.8047 156.815 86.0013 156.71 86.1671C156.604 86.3362 156.583 86.5617 156.471 86.7219C156.356 86.8852 156.198 87.0166 156.077 87.1707C155.953 87.3275 155.784 87.4421 155.654 87.5894C155.523 87.7392 155.344 87.836 155.206 87.976C155.067 88.1181 154.946 88.2699 154.801 88.4019C154.654 88.5357 154.618 88.7986 154.465 88.922C154.311 89.0468 154.029 88.9995 153.869 89.1137C153.708 89.2291 153.57 89.3669 153.403 89.4714C153.236 89.5769 153.09 89.7126 152.918 89.807C152.744 89.9021 152.593 90.0398 152.416 90.1237C152.237 90.2081 152.055 90.2876 151.873 90.3607C151.689 90.4341 151.504 90.5058 151.318 90.5678C151.13 90.6299 150.902 90.5436 150.712 90.5943C150.522 90.6451 150.348 90.7444 150.155 90.7838C149.962 90.8232 149.798 91.0351 149.603 91.0631C149.408 91.0911 149.197 91.0072 149 91.0239C148.804 91.0406 148.61 91.146 148.413 91.1515C148.216 91.157 148.014 91.1471 147.817 91.1415C147.62 91.136 147.43 90.9891 147.233 90.9726C147.038 90.9563 146.846 90.9249 146.65 90.8978C146.456 90.8708 146.276 90.7787 146.081 90.7411C145.889 90.7039 145.653 90.8637 145.461 90.816C145.271 90.7688 145.123 90.5609 144.933 90.5034C144.746 90.4465 144.51 90.5318 144.324 90.4648C144.139 90.3985 143.98 90.2564 143.798 90.1803C143.617 90.105 143.445 90.0055 143.266 89.9205C143.089 89.8365 142.93 89.7173 142.755 89.6239C142.582 89.5315 142.391 89.4719 142.22 89.3703C142.052 89.27 141.833 89.245 141.667 89.1357C141.503 89.0277 141.43 88.7843 141.27 88.6676C141.111 88.5525 140.856 88.5625 140.701 88.4389C140.547 88.3169 140.526 88.0326 140.376 87.9023C140.227 87.7738 140.018 87.715 139.874 87.5784C139.731 87.4438 139.563 87.3328 139.424 87.1904C139.287 87.0499 139.109 86.9434 138.976 86.7953C138.845 86.6494 138.856 86.377 138.729 86.2237C138.598 86.0668 138.493 85.9056 138.38 85.745C138.262 85.5787 138.037 85.4918 137.936 85.3219C137.833 85.147 137.738 84.9684 137.653 84.79C137.565 84.6074 137.547 84.3979 137.477 84.212C137.405 84.023 137.393 83.8222 137.34 83.6302C137.285 83.4363 137.06 83.2839 137.023 83.0873C136.985 82.89 137.028 82.6765 137.006 82.477C136.985 82.2777 137.104 82.0724 137.098 81.8714C137.092 81.6715 136.917 81.4718 136.926 81.2706C136.934 81.071 137.032 80.876 137.054 80.6755C137.075 80.4771 137.069 80.274 137.102 80.0751C137.136 79.8784 137.202 79.6872 137.247 79.4904C137.29 79.2958 137.26 79.0799 137.314 78.8856C137.368 78.6933 137.419 78.4958 137.481 78.3042C137.543 78.1144 137.63 77.9294 137.7 77.7407C137.77 77.5535 137.855 77.3697 137.932 77.1838C138.009 76.9992 138.233 76.88 138.316 76.6971C138.399 76.5151 138.409 76.3002 138.498 76.1201C138.587 75.9407 138.612 75.7276 138.706 75.5504C138.8 75.3733 138.853 75.1713 138.952 74.9969C139.05 74.8222 139.158 74.6502 139.26 74.4785C139.364 74.306 139.583 74.2055 139.689 74.0364C139.796 73.8662 139.935 73.7191 140.045 73.5526C140.156 73.3845 140.199 73.1715 140.312 73.0075C140.426 72.8414 140.505 72.6505 140.621 72.489C140.739 72.3248 140.991 72.2626 141.109 72.1035C141.231 71.9411 141.19 71.6577 141.311 71.501C141.435 71.3405 141.621 71.2312 141.744 71.077C141.871 70.918 141.951 70.7235 142.076 70.5718C142.206 70.4141 142.367 70.2866 142.494 70.1373C142.627 69.981 142.721 69.796 142.85 69.6494C142.986 69.4942 143.128 69.3512 143.258 69.2076C143.398 69.0529 143.572 68.9396 143.702 68.7993C143.846 68.6444 144.077 68.5879 144.207 68.4518C144.357 68.2955 144.457 68.1148 144.586 67.9851C144.747 67.822 144.776 67.5643 144.897 67.4468C145.171 67.1794 145.39 67.0868 145.39 67.0868C145.646 66.9571 145.63 66.9241 145.886 66.7944C146.143 66.6646 146.117 66.6133 146.374 66.4835C146.63 66.3538 146.687 66.4671 146.944 66.3373C147.2 66.2076 147.155 66.118 147.412 65.9882C147.669 65.8584 147.75 66.0217 148.007 65.8919C148.263 65.7624 148.17 65.5759 148.426 65.4464C148.683 65.3166 148.771 65.4936 149.028 65.3639C149.285 65.234 149.301 65.2659 149.558 65.136C149.815 65.0061 149.718 64.8126 149.975 64.6827C150.232 64.5527 150.328 64.7454 150.585 64.6154C150.842 64.4853 150.864 64.4866 151.093 64.3114C151.341 64.1225 151.264 63.9533 151.547 63.9037Z" fill="#010101"/>
</g>
<path d="M64.1227 187V173H70.5227C71.8027 173 72.9027 173.207 73.8227 173.62C74.756 174.033 75.476 174.633 75.9827 175.42C76.4893 176.193 76.7427 177.113 76.7427 178.18C76.7427 179.233 76.4893 180.147 75.9827 180.92C75.476 181.693 74.756 182.293 73.8227 182.72C72.9027 183.133 71.8027 183.34 70.5227 183.34H66.3227L68.0827 181.62V187H64.1227ZM68.0827 182.04L66.3227 180.22H70.2827C71.1093 180.22 71.7227 180.04 72.1227 179.68C72.536 179.32 72.7427 178.82 72.7427 178.18C72.7427 177.527 72.536 177.02 72.1227 176.66C71.7227 176.3 71.1093 176.12 70.2827 176.12H66.3227L68.0827 174.3V182.04ZM78.5716 187V176.16H82.1916V179.32L81.6516 178.42C81.9716 177.607 82.4916 177 83.2116 176.6C83.9316 176.187 84.8049 175.98 85.8316 175.98V179.4C85.6582 179.373 85.5049 179.36 85.3716 179.36C85.2516 179.347 85.1182 179.34 84.9716 179.34C84.1982 179.34 83.5716 179.553 83.0916 179.98C82.6116 180.393 82.3716 181.073 82.3716 182.02V187H78.5716ZM87.3997 187V176.16H91.1997V187H87.3997ZM89.2997 174.96C88.6064 174.96 88.0464 174.767 87.6197 174.38C87.193 173.993 86.9797 173.513 86.9797 172.94C86.9797 172.367 87.193 171.887 87.6197 171.5C88.0464 171.113 88.6064 170.92 89.2997 170.92C89.993 170.92 90.553 171.107 90.9797 171.48C91.4064 171.84 91.6197 172.307 91.6197 172.88C91.6197 173.48 91.4064 173.98 90.9797 174.38C90.5664 174.767 90.0064 174.96 89.2997 174.96ZM96.6892 187L92.2292 176.16H96.1292L99.6892 185.22H97.7292L101.469 176.16H105.089L100.609 187H96.6892ZM112.32 187V184.98L112.06 184.48V180.76C112.06 180.16 111.874 179.7 111.5 179.38C111.14 179.047 110.56 178.88 109.76 178.88C109.24 178.88 108.714 178.967 108.18 179.14C107.647 179.3 107.194 179.527 106.82 179.82L105.54 177.24C106.154 176.84 106.887 176.533 107.74 176.32C108.607 176.093 109.467 175.98 110.32 175.98C112.08 175.98 113.44 176.387 114.4 177.2C115.374 178 115.86 179.26 115.86 180.98V187H112.32ZM109.12 187.18C108.254 187.18 107.52 187.033 106.92 186.74C106.32 186.447 105.86 186.047 105.54 185.54C105.234 185.033 105.08 184.467 105.08 183.84C105.08 183.173 105.247 182.6 105.58 182.12C105.927 181.627 106.454 181.253 107.16 181C107.867 180.733 108.78 180.6 109.9 180.6H112.46V182.58H110.42C109.807 182.58 109.374 182.68 109.12 182.88C108.88 183.08 108.76 183.347 108.76 183.68C108.76 184.013 108.887 184.28 109.14 184.48C109.394 184.68 109.74 184.78 110.18 184.78C110.594 184.78 110.967 184.68 111.3 184.48C111.647 184.267 111.9 183.947 112.06 183.52L112.58 184.92C112.38 185.667 111.987 186.233 111.4 186.62C110.827 186.993 110.067 187.18 109.12 187.18ZM123.936 187.18C122.736 187.18 121.662 186.94 120.716 186.46C119.782 185.98 119.049 185.32 118.516 184.48C117.982 183.627 117.716 182.653 117.716 181.56C117.716 180.467 117.982 179.5 118.516 178.66C119.049 177.82 119.782 177.167 120.716 176.7C121.662 176.22 122.736 175.98 123.936 175.98C125.162 175.98 126.222 176.24 127.116 176.76C128.009 177.28 128.642 178.013 129.016 178.96L126.076 180.46C125.822 179.953 125.509 179.587 125.136 179.36C124.762 179.12 124.356 179 123.916 179C123.476 179 123.076 179.1 122.716 179.3C122.356 179.5 122.069 179.793 121.856 180.18C121.656 180.553 121.556 181.013 121.556 181.56C121.556 182.12 121.656 182.593 121.856 182.98C122.069 183.367 122.356 183.66 122.716 183.86C123.076 184.06 123.476 184.16 123.916 184.16C124.356 184.16 124.762 184.047 125.136 183.82C125.509 183.58 125.822 183.207 126.076 182.7L129.016 184.2C128.642 185.147 128.009 185.88 127.116 186.4C126.222 186.92 125.162 187.18 123.936 187.18ZM132.111 191.06C131.538 191.06 130.958 190.967 130.371 190.78C129.798 190.607 129.331 190.373 128.971 190.08L130.291 187.42C130.518 187.62 130.778 187.773 131.071 187.88C131.378 188 131.678 188.06 131.971 188.06C132.385 188.06 132.711 187.967 132.951 187.78C133.191 187.593 133.398 187.3 133.571 186.9L134.071 185.64L134.371 185.26L138.051 176.16H141.671L136.991 187.44C136.618 188.373 136.185 189.1 135.691 189.62C135.211 190.153 134.671 190.527 134.071 190.74C133.485 190.953 132.831 191.06 132.111 191.06ZM133.591 187.46L128.811 176.16H132.711L136.231 184.92L133.591 187.46ZM155.294 187.18C154.374 187.18 153.587 186.98 152.934 186.58C152.281 186.167 151.781 185.553 151.434 184.74C151.101 183.913 150.934 182.86 150.934 181.58C150.934 180.287 151.094 179.233 151.414 178.42C151.734 177.593 152.214 176.98 152.854 176.58C153.507 176.18 154.321 175.98 155.294 175.98C156.281 175.98 157.174 176.213 157.974 176.68C158.787 177.133 159.427 177.78 159.894 178.62C160.374 179.447 160.614 180.433 160.614 181.58C160.614 182.727 160.374 183.72 159.894 184.56C159.427 185.4 158.787 186.047 157.974 186.5C157.174 186.953 156.281 187.18 155.294 187.18ZM148.474 190.88V176.16H152.094V178L152.074 181.58L152.274 185.18V190.88H148.474ZM154.494 184.16C154.921 184.16 155.301 184.06 155.634 183.86C155.981 183.66 156.254 183.367 156.454 182.98C156.667 182.593 156.774 182.127 156.774 181.58C156.774 181.033 156.667 180.567 156.454 180.18C156.254 179.793 155.981 179.5 155.634 179.3C155.301 179.1 154.921 179 154.494 179C154.067 179 153.681 179.1 153.334 179.3C153.001 179.5 152.727 179.793 152.514 180.18C152.314 180.567 152.214 181.033 152.214 181.58C152.214 182.127 152.314 182.593 152.514 182.98C152.727 183.367 153.001 183.66 153.334 183.86C153.681 184.06 154.067 184.16 154.494 184.16ZM167.82 187.18C166.633 187.18 165.58 186.94 164.66 186.46C163.74 185.98 163.013 185.32 162.48 184.48C161.96 183.627 161.7 182.653 161.7 181.56C161.7 180.467 161.96 179.5 162.48 178.66C163.013 177.82 163.74 177.167 164.66 176.7C165.58 176.22 166.633 175.98 167.82 175.98C169.007 175.98 170.06 176.22 170.98 176.7C171.913 177.167 172.64 177.82 173.16 178.66C173.68 179.5 173.94 180.467 173.94 181.56C173.94 182.653 173.68 183.627 173.16 184.48C172.64 185.32 171.913 185.98 170.98 186.46C170.06 186.94 169.007 187.18 167.82 187.18ZM167.82 184.16C168.26 184.16 168.647 184.06 168.98 183.86C169.327 183.66 169.6 183.367 169.8 182.98C170 182.58 170.1 182.107 170.1 181.56C170.1 181.013 170 180.553 169.8 180.18C169.6 179.793 169.327 179.5 168.98 179.3C168.647 179.1 168.26 179 167.82 179C167.393 179 167.007 179.1 166.66 179.3C166.327 179.5 166.053 179.793 165.84 180.18C165.64 180.553 165.54 181.013 165.54 181.56C165.54 182.107 165.64 182.58 165.84 182.98C166.053 183.367 166.327 183.66 166.66 183.86C167.007 184.06 167.393 184.16 167.82 184.16ZM175.7 187V172.16H179.5V187H175.7ZM181.97 187V176.16H185.77V187H181.97ZM183.87 174.96C183.177 174.96 182.617 174.767 182.19 174.38C181.763 173.993 181.55 173.513 181.55 172.94C181.55 172.367 181.763 171.887 182.19 171.5C182.617 171.113 183.177 170.92 183.87 170.92C184.563 170.92 185.123 171.107 185.55 171.48C185.977 171.84 186.19 172.307 186.19 172.88C186.19 173.48 185.977 173.98 185.55 174.38C185.137 174.767 184.577 174.96 183.87 174.96ZM193.78 187.18C192.58 187.18 191.506 186.94 190.56 186.46C189.626 185.98 188.893 185.32 188.36 184.48C187.826 183.627 187.56 182.653 187.56 181.56C187.56 180.467 187.826 179.5 188.36 178.66C188.893 177.82 189.626 177.167 190.56 176.7C191.506 176.22 192.58 175.98 193.78 175.98C195.006 175.98 196.066 176.24 196.96 176.76C197.853 177.28 198.486 178.013 198.86 178.96L195.92 180.46C195.666 179.953 195.353 179.587 194.98 179.36C194.606 179.12 194.2 179 193.76 179C193.32 179 192.92 179.1 192.56 179.3C192.2 179.5 191.913 179.793 191.7 180.18C191.5 180.553 191.4 181.013 191.4 181.56C191.4 182.12 191.5 182.593 191.7 182.98C191.913 183.367 192.2 183.66 192.56 183.86C192.92 184.06 193.32 184.16 193.76 184.16C194.2 184.16 194.606 184.047 194.98 183.82C195.353 183.58 195.666 183.207 195.92 182.7L198.86 184.2C198.486 185.147 197.853 185.88 196.96 186.4C196.066 186.92 195.006 187.18 193.78 187.18ZM201.955 191.06C201.382 191.06 200.802 190.967 200.215 190.78C199.642 190.607 199.175 190.373 198.815 190.08L200.135 187.42C200.362 187.62 200.622 187.773 200.915 187.88C201.222 188 201.522 188.06 201.815 188.06C202.228 188.06 202.555 187.967 202.795 187.78C203.035 187.593 203.242 187.3 203.415 186.9L203.915 185.64L204.215 185.26L207.895 176.16H211.515L206.835 187.44C206.462 188.373 206.028 189.1 205.535 189.62C205.055 190.153 204.515 190.527 203.915 190.74C203.328 190.953 202.675 191.06 201.955 191.06ZM203.435 187.46L198.655 176.16H202.555L206.075 184.92L203.435 187.46Z" fill="#EFEFEF"/>
<defs>
<clipPath id="clip0_15929_10431">
<rect width="124" height="146" fill="white" transform="translate(75 12)"/>
</clipPath>
</defs>
</svg>
