<svg width="20" height="20" viewBox="0 0 20 20" fill="none" xmlns="http://www.w3.org/2000/svg">
<g id="group">
<mask id="mask0_16857_12425" style="mask-type:alpha" maskUnits="userSpaceOnUse" x="0" y="0" width="20" height="20">
<rect id="Bounding box" width="20" height="20" fill="#D9D9D9"/>
</mask>
<g mask="url(#mask0_16857_12425)">
<path id="group_2" d="M0.791016 16.666V14.7077C0.791016 14.2216 0.916016 13.7806 1.16602 13.3848C1.41602 12.9889 1.76324 12.6938 2.20768 12.4993C3.22157 12.0549 4.13477 11.7355 4.94727 11.541C5.75977 11.3466 6.59657 11.2493 7.45768 11.2493C8.31879 11.2493 9.15213 11.3466 9.95768 11.541C10.7632 11.7355 11.673 12.0549 12.6868 12.4993C13.1313 12.6938 13.482 12.9889 13.7389 13.3848C13.9959 13.7806 14.1243 14.2216 14.1243 14.7077V16.666H0.791016ZM15.3743 16.666V14.7077C15.3743 13.8327 15.1521 13.1139 14.7077 12.5514C14.2632 11.9889 13.6799 11.5341 12.9577 11.1868C13.916 11.298 14.8188 11.4612 15.666 11.6764C16.5132 11.8917 17.2007 12.1382 17.7285 12.416C18.1868 12.6799 18.548 13.0063 18.8118 13.3952C19.0757 13.7841 19.2077 14.2216 19.2077 14.7077V16.666H15.3743ZM7.45768 9.97852C6.54102 9.97852 5.79102 9.68685 5.20768 9.10352C4.62435 8.52018 4.33268 7.77018 4.33268 6.85352C4.33268 5.93685 4.62435 5.18685 5.20768 4.60352C5.79102 4.02018 6.54102 3.72852 7.45768 3.72852C8.37435 3.72852 9.12435 4.02018 9.70768 4.60352C10.291 5.18685 10.5827 5.93685 10.5827 6.85352C10.5827 7.77018 10.291 8.52018 9.70768 9.10352C9.12435 9.68685 8.37435 9.97852 7.45768 9.97852ZM14.9577 6.85352C14.9577 7.77018 14.666 8.52018 14.0827 9.10352C13.4993 9.68685 12.7493 9.97852 11.8327 9.97852C11.6799 9.97852 11.5098 9.9681 11.3223 9.94727C11.1348 9.92643 10.9646 9.88824 10.8118 9.83268C11.1452 9.48546 11.3987 9.05838 11.5723 8.55143C11.7459 8.04449 11.8327 7.47852 11.8327 6.85352C11.8327 6.22852 11.7459 5.67643 11.5723 5.19727C11.3987 4.7181 11.1452 4.27713 10.8118 3.87435C10.9646 3.83268 11.1348 3.79796 11.3223 3.77018C11.5098 3.7424 11.6799 3.72852 11.8327 3.72852C12.7493 3.72852 13.4993 4.02018 14.0827 4.60352C14.666 5.18685 14.9577 5.93685 14.9577 6.85352ZM2.04102 15.416H12.8743V14.7077C12.8743 14.4855 12.8084 14.2702 12.6764 14.0618C12.5445 13.8535 12.3813 13.7077 12.1868 13.6243C11.1868 13.1799 10.3466 12.8813 9.66602 12.7285C8.98546 12.5757 8.24935 12.4993 7.45768 12.4993C6.66602 12.4993 5.92643 12.5757 5.23893 12.7285C4.55143 12.8813 3.70768 13.1799 2.70768 13.6243C2.51324 13.7077 2.35352 13.8535 2.22852 14.0618C2.10352 14.2702 2.04102 14.4855 2.04102 14.7077V15.416ZM7.45768 8.72852C7.99935 8.72852 8.44727 8.55143 8.80143 8.19727C9.1556 7.8431 9.33268 7.39518 9.33268 6.85352C9.33268 6.31185 9.1556 5.86393 8.80143 5.50977C8.44727 5.1556 7.99935 4.97852 7.45768 4.97852C6.91602 4.97852 6.4681 5.1556 6.11393 5.50977C5.75977 5.86393 5.58268 6.31185 5.58268 6.85352C5.58268 7.39518 5.75977 7.8431 6.11393 8.19727C6.4681 8.55143 6.91602 8.72852 7.45768 8.72852Z" fill="white"/>
</g>
</g>
</svg>
