<svg width="49" height="48" viewBox="0 0 49 48" fill="none" xmlns="http://www.w3.org/2000/svg">
<g id="report">
<mask id="mask0_15048_9937" style="mask-type:alpha" maskUnits="userSpaceOnUse" x="0" y="0" width="49" height="48">
<rect id="Bounding box" x="0.861328" width="48" height="48" fill="#D9D9D9"/>
</mask>
<g mask="url(#mask0_15048_9937)">
<path id="report_2" d="M24.8613 35.45C25.328 35.45 25.7363 35.275 26.0863 34.925C26.4363 34.575 26.6113 34.1667 26.6113 33.7C26.6113 33.2333 26.4363 32.825 26.0863 32.475C25.7363 32.125 25.328 31.95 24.8613 31.95C24.3947 31.95 23.9863 32.125 23.6363 32.475C23.2863 32.825 23.1113 33.2333 23.1113 33.7C23.1113 34.1667 23.2863 34.575 23.6363 34.925C23.9863 35.275 24.3947 35.45 24.8613 35.45ZM23.3613 28.25H26.3613V15.1H23.3613V28.25ZM17.3613 43.5L6.86133 33V18L17.3613 7.5H32.3613L42.8613 18V33L32.3613 43.5H17.3613ZM18.6113 40.5H31.1113L39.8613 31.75V19.25L31.1113 10.5H18.6113L9.86133 19.25V31.75L18.6113 40.5Z" fill="white"/>
</g>
</g>
</svg>
