<svg width="16" height="20" viewBox="0 0 16 20" fill="none" xmlns="http://www.w3.org/2000/svg">
<g id="report">
<mask id="mask0_14858_8881" style="mask-type:alpha" maskUnits="userSpaceOnUse" x="0" y="0" width="16" height="20">
<rect id="Bounding box" width="16" height="20" fill="#D9D9D9"/>
</mask>
<g mask="url(#mask0_14858_8881)">
<path id="report_2" d="M7.5 14.1458C7.69444 14.1458 7.86458 14.0729 8.01042 13.9271C8.15625 13.7812 8.22917 13.6111 8.22917 13.4167C8.22917 13.2222 8.15625 13.0521 8.01042 12.9062C7.86458 12.7604 7.69444 12.6875 7.5 12.6875C7.30556 12.6875 7.13542 12.7604 6.98958 12.9062C6.84375 13.0521 6.77083 13.2222 6.77083 13.4167C6.77083 13.6111 6.84375 13.7812 6.98958 13.9271C7.13542 14.0729 7.30556 14.1458 7.5 14.1458ZM6.875 11.1458H8.125V5.66667H6.875V11.1458ZM4.375 17.5L0 13.125V6.875L4.375 2.5H10.625L15 6.875V13.125L10.625 17.5H4.375ZM4.89583 16.25H10.1042L13.75 12.6042V7.39583L10.1042 3.75H4.89583L1.25 7.39583V12.6042L4.89583 16.25Z" fill="#053749"/>
</g>
</g>
</svg>
