<svg width="1179" height="399" viewBox="0 0 1179 399" fill="none" xmlns="http://www.w3.org/2000/svg">
<path d="M0 4.00001C0 1.79087 1.79086 0 4 0H1175C1177.21 0 1179 1.79086 1179 4V395C1179 397.209 1177.21 399 1175 399H3.99999C1.79085 399 0 397.209 0 395V4.00001Z" fill="#04222F"/>
<g clip-path="url(#clip0_14595_3078)">
<path d="M517.638 244.459L235.449 324.651L237.96 90.3496C238.09 78.2014 247.952 68.3605 260.214 68.1441L494.878 64.0036C507.565 63.7798 517.965 73.9196 517.941 86.49L517.638 244.459Z" fill="#00384A"/>
<path d="M496.063 239.547L271.929 298.076C262.241 300.606 252.758 293.367 252.758 283.441L252.758 97.276C252.758 89.0201 259.437 82.2875 267.769 82.1437L491.903 78.2753C500.444 78.1279 507.447 84.9458 507.447 93.4076V224.912C507.447 231.785 502.772 237.795 496.063 239.547Z" fill="white"/>
<path d="M517.641 244.459L245.898 314.303H485.641V335L704.124 271.044C704.124 260.606 695.582 252.144 685.046 252.144L517.641 244.459Z" fill="#00384A"/>
<path d="M485.637 314.303H245.895C240.126 314.303 235.449 318.936 235.449 324.651C235.449 330.367 240.126 335 245.895 335H485.637C491.407 335 496.084 330.367 496.084 324.651C496.084 318.936 491.407 314.303 485.637 314.303Z" fill="#ED6FA7"/>
<path d="M479.231 243.808L271.192 298.859C271.192 298.859 235.317 201.692 327.785 183.684C386.886 172.174 447.892 145.29 460.333 181.757C472.773 218.224 479.231 243.808 479.231 243.808Z" fill="#ED6FA7"/>
<path d="M479.231 243.808L271.192 298.859C271.192 298.859 235.317 201.692 327.785 183.684C386.886 172.174 447.892 145.29 460.333 181.757C472.773 218.224 479.231 243.808 479.231 243.808Z" fill="url(#paint0_linear_14595_3078)"/>
<path d="M441.435 253.812L433.816 204.735C432.502 194.402 428.9 184.454 423.066 175.79C418.303 168.716 413.234 158.499 413.003 146.831C412.563 124.607 420.041 129.618 420.041 129.618L426.483 145.96L473.047 175.592L496.063 239.547L441.435 253.812Z" fill="#F6B1B4"/>
<path d="M415.477 131.29C418.272 132.083 419.888 134.97 419.088 137.738C418.287 140.507 415.373 142.108 412.578 141.315" stroke="#E30518" stroke-miterlimit="10" stroke-linecap="round"/>
<path d="M441.266 123.716C440.657 123.414 435.58 116.924 428.52 113C423.931 110.449 422.711 111.852 422.419 113.146C422.268 113.82 422.381 114.525 422.654 115.16L431.801 136.405L441.266 123.716Z" fill="#F6B1B4"/>
<path d="M435.35 117.475C433.805 119.896 430.57 120.618 428.126 119.087C425.682 117.556 424.953 114.352 426.499 111.93" stroke="#E30518" stroke-miterlimit="10" stroke-linecap="round"/>
<path d="M410.724 97.5645C410.209 96.9782 409.24 97.4126 409.344 98.1828L411.003 109.709C411.14 110.656 411.401 111.582 411.78 112.463L446.984 194.267C447.969 196.499 450.595 197.517 452.848 196.54C455.101 195.564 456.129 192.962 455.143 190.731L420.032 109.144C419.592 108.121 418.997 107.17 418.269 106.324L410.724 97.5645Z" fill="#F7C400"/>
<path d="M323.298 145.828C323.298 145.828 305.797 145.587 307.276 160.8C308.755 176.013 333.897 182.304 333.897 182.304C333.897 182.304 348.447 196.28 367.673 192.861C386.899 189.443 396.013 179.675 395.027 165.512C394.041 151.35 385.323 131.098 380.639 123.284L323.298 145.828Z" fill="#F6B1B4"/>
<path d="M376.225 157.528C376.791 157.528 377.25 157.073 377.25 156.512C377.25 155.951 376.791 155.496 376.225 155.496C375.658 155.496 375.199 155.951 375.199 156.512C375.199 157.073 375.658 157.528 376.225 157.528Z" fill="#E40524"/>
<path d="M379.303 156.31C379.869 156.31 380.328 155.855 380.328 155.294C380.328 154.733 379.869 154.278 379.303 154.278C378.736 154.278 378.277 154.733 378.277 155.294C378.277 155.855 378.736 156.31 379.303 156.31Z" fill="#E40524"/>
<path d="M371.906 144.961C371.906 144.961 373.165 148.179 377.497 149.252C381.829 150.325 382.593 155.14 382.593 155.14" stroke="#E30518" stroke-miterlimit="10" stroke-linecap="round"/>
<path d="M373.125 162.671L381.868 163.356L385.487 157.266" stroke="#E30518" stroke-miterlimit="10" stroke-linecap="round"/>
<path d="M380.48 124.386C380.449 125.376 380.787 125.259 380.422 126.382C380.243 126.929 379.519 127.333 379.152 127.972C378.847 128.505 378.825 129.28 378.346 129.803C377.926 130.263 377.164 130.37 376.582 130.774C376.071 131.129 375.718 131.805 375.064 132.085C374.491 132.329 373.821 132.447 373.126 132.612C372.501 132.76 371.903 132.87 371.335 132.954C370.694 133.05 370.098 133.283 369.529 133.31C368.874 133.342 368.246 133.329 367.686 133.29C367.018 133.244 366.451 132.884 365.916 132.771C365.227 132.625 364.513 132.821 364.04 132.632C362.971 132.207 363.456 131.328 362.566 131.52C361.66 131.715 362.34 132.222 361.691 133.135C361.381 133.57 361.098 134.16 360.666 134.689C360.299 135.138 359.732 135.49 359.288 135.958C358.874 136.392 358.138 136.513 357.664 136.927C357.203 137.33 356.941 137.971 356.43 138.32C355.918 138.671 355.291 138.801 354.737 139.065C354.174 139.333 353.643 139.589 353.044 139.732C352.397 139.887 351.81 140.181 351.212 140.243C350.544 140.312 349.91 140.023 349.314 140.003C348.632 139.98 348.021 139.989 347.448 139.888C346.743 139.765 346.031 139.96 345.517 139.792C344.411 139.428 344.764 138.515 343.985 139.049C343.258 139.548 343.604 139.545 343.502 140.563C343.451 141.077 343.538 141.643 343.33 142.249C343.153 142.769 343.034 143.333 342.682 143.844C342.371 144.297 342.159 144.929 341.67 145.323C341.247 145.664 340.566 145.708 339.984 145.971C339.472 146.202 338.886 146.367 338.222 146.524C337.649 146.659 337.099 147.181 336.448 147.269C335.848 147.35 335.212 147.503 334.573 147.551C333.956 147.597 333.286 146.863 332.657 146.883C332.028 146.903 331.41 147.279 330.791 147.279C330.149 147.279 329.519 147.235 328.913 147.219C328.253 147.202 327.622 147.196 327.037 147.167C326.337 147.133 325.714 146.962 325.176 146.924C324.025 146.844 324.235 147.086 323.299 147.09C322.435 147.094 322.59 146.784 321.551 146.962C321.058 147.046 320.5 147.282 319.872 147.413C319.341 147.523 318.841 147.939 318.255 148.085C317.709 148.22 317.078 148.113 316.517 148.282C315.965 148.448 315.479 148.817 314.941 149.016C314.389 149.22 313.867 149.448 313.361 149.689C312.818 149.948 312.059 149.824 311.605 150.128C311.078 150.48 310.753 151.128 310.31 151.563C309.862 152.003 309.733 152.684 309.372 153.191C309.009 153.702 308.321 154.011 308.049 154.57C307.775 155.134 307.584 155.751 307.406 156.344C307.224 156.946 307.543 157.631 307.463 158.242C307.381 158.867 307.094 159.441 307.121 160.055C307.148 160.687 307.129 161.238 307.274 161.834C306.328 161.858 306.594 161.468 306.037 160.44C305.781 159.969 305.736 159.273 305.437 158.632C305.192 158.107 305.059 157.481 304.814 156.859C304.594 156.304 304.568 155.659 304.368 155.038C304.181 154.462 303.646 153.967 303.491 153.344C303.343 152.749 303.221 152.127 303.114 151.499C303.011 150.891 302.895 150.265 302.842 149.632C302.791 149.016 302.684 148.378 302.692 147.745C302.699 147.127 302.623 146.468 302.696 145.839C302.767 145.225 303.069 144.616 303.213 143.998C303.353 143.398 303.723 142.851 303.94 142.252C304.149 141.674 304.46 141.14 304.748 140.569C305.024 140.022 305.291 139.471 305.647 138.934C305.985 138.425 306.271 137.865 306.687 137.369C307.078 136.901 307.71 136.647 308.175 136.194C308.599 135.78 308.912 135.225 309.407 134.809C309.865 134.424 310.429 134.147 310.942 133.76C311.423 133.397 311.682 132.701 312.207 132.338C312.706 131.993 313.373 131.866 313.908 131.521C314.42 131.192 314.736 130.525 315.278 130.196C315.8 129.878 316.425 129.699 316.972 129.383C317.503 129.077 317.988 128.664 318.539 128.359C319.077 128.062 319.811 128.101 320.366 127.807C320.91 127.518 321.26 126.845 321.818 126.559C322.368 126.278 323.249 126.631 323.81 126.353C324.364 126.078 324.885 125.736 325.449 125.464C326.007 125.195 326.297 124.365 326.863 124.1C327.424 123.837 328.192 124.003 328.759 123.744C329.325 123.485 329.743 122.904 330.312 122.65C330.881 122.395 331.533 122.323 332.104 122.073C332.676 121.822 333.334 121.769 333.905 121.524C334.48 121.277 334.902 120.681 335.475 120.439C336.052 120.196 336.82 120.408 337.393 120.17C337.973 119.93 338.464 119.49 339.037 119.257C339.619 119.02 340.212 118.824 340.785 118.594C341.37 118.36 341.851 117.888 342.424 117.662C343.012 117.43 343.782 117.68 344.356 117.457C344.947 117.227 345.421 116.729 345.993 116.509C346.588 116.281 347.224 116.195 347.795 115.979C348.393 115.752 348.885 115.294 349.455 115.08C350.055 114.856 350.774 114.994 351.34 114.785C351.947 114.56 352.353 113.868 352.914 113.662C353.528 113.437 354.213 113.491 354.767 113.29C355.393 113.062 355.815 112.407 356.356 112.211C357.011 111.973 357.795 112.29 358.309 112.102C359.057 111.83 359.625 111.542 360.03 111.384C360.539 111.186 361.172 111.125 361.855 110.934C362.423 110.775 362.985 110.461 363.643 110.332C364.24 110.215 364.805 109.66 365.454 109.586C366.07 109.515 366.734 109.457 367.378 109.44C368.004 109.423 368.677 109.411 369.313 109.458C369.942 109.505 370.57 109.822 371.193 109.944C371.813 110.066 372.298 110.643 372.896 110.853C373.49 111.061 374.278 110.84 374.835 111.147C375.381 111.449 375.868 111.907 376.363 112.316C376.836 112.707 377.201 113.244 377.615 113.744C378.001 114.21 378.646 114.562 378.97 115.132C379.267 115.653 379.062 116.448 379.298 117.064C379.512 117.622 379.875 118.151 380.033 118.791C380.177 119.372 380.057 120.018 380.15 120.67C380.234 121.264 380.663 121.845 380.702 122.5C380.737 123.101 380.486 123.73 380.48 124.386Z" fill="#C25528"/>
<path d="M473.046 175.593C473.046 175.593 478.895 149.373 472.039 143.185C465.183 136.997 460.765 137.021 460.765 137.021C460.765 137.021 462.18 127.013 449.795 127.941C447.358 122.206 441.873 119.64 436.693 122.206C431.513 124.772 428.678 144.8 428.618 151.033C428.547 158.493 432.73 159.25 435.173 159.058C436.09 158.986 436.953 159.531 437.184 160.412C437.932 163.267 439.53 169.834 448.311 164.849C453.202 162.073 473.046 175.593 473.046 175.593Z" fill="#F6B1B4"/>
<path d="M428.618 151.033C428.547 158.493 432.73 159.25 435.173 159.058" stroke="#E30518" stroke-miterlimit="10" stroke-linecap="round"/>
<path d="M437.184 160.412C437.932 163.267 439.529 169.834 448.311 164.849" stroke="#E30518" stroke-miterlimit="10" stroke-linecap="round"/>
<path d="M466.731 151.791C466.731 151.791 465.969 168.242 459.57 169.752C459.506 169.767 459.442 169.781 459.379 169.795C454.31 170.906 449.505 167.051 449.354 161.91C449.306 160.284 449.297 158.364 449.31 156.438C449.349 150.187 452.485 144.355 457.702 140.838L460.484 138.962" stroke="#E30518" stroke-miterlimit="10" stroke-linecap="round"/>
<path d="M455.096 164.849C457.988 164.849 460.332 162.527 460.332 159.662C460.332 156.797 457.988 154.474 455.096 154.474C452.204 154.474 449.859 156.797 449.859 159.662C449.859 162.527 452.204 164.849 455.096 164.849Z" stroke="#E30518" stroke-miterlimit="10" stroke-linecap="round"/>
<path d="M442.283 160.466C445.175 160.466 447.52 158.144 447.52 155.279C447.52 152.414 445.175 150.092 442.283 150.092C439.391 150.092 437.047 152.414 437.047 155.279C437.047 158.144 439.391 160.466 442.283 160.466Z" stroke="#E30518" stroke-miterlimit="10" stroke-linecap="round"/>
<path d="M429.188 144.904C432.079 144.904 434.424 147.227 434.424 150.092C434.424 152.957 432.079 155.279 429.188 155.279" stroke="#E30518" stroke-miterlimit="10" stroke-linecap="round"/>
<path d="M448.881 129.607C448.881 129.607 437.885 135.561 437.047 154.474" stroke="#E30518" stroke-miterlimit="10" stroke-linecap="round"/>
<path d="M319.348 151.978C318.646 152.312 310.688 157.046 314.667 163.837C318.646 170.629 329.881 173.411 329.881 173.411" stroke="#E30518" stroke-miterlimit="10" stroke-linecap="round"/>
<path d="M193.727 177.464L219.259 181.818L204.513 266.679C203.363 273.297 197.005 277.745 190.325 276.606L189 276.38C182.32 275.24 177.83 268.942 178.98 262.324L193.727 177.464Z" fill="#010101"/>
<path d="M193.727 177.464L219.259 181.818L204.513 266.679C203.363 273.297 197.005 277.745 190.325 276.606L189 276.38C182.32 275.24 177.83 268.942 178.98 262.324L193.727 177.464Z" fill="url(#paint1_linear_14595_3078)"/>
<path d="M193.727 177.464L211.775 149.243L219.259 181.818L193.727 177.464Z" fill="#F7C400"/>
<path d="M207.125 156.515C208.49 158.641 211.361 159.224 213.46 157.802L213.704 157.637L212.763 148.598C212.67 147.706 211.452 147.498 211.063 148.308L207.125 156.515Z" fill="#010101"/>
<path d="M210.716 108.079L185.598 100.983L142.649 250.193L167.768 257.289L210.716 108.079Z" fill="#00384A" stroke="white" stroke-miterlimit="10"/>
<path d="M184.031 106.427L191.314 108.484" stroke="white" stroke-miterlimit="10"/>
<path d="M182.746 110.889L190.029 112.947" stroke="white" stroke-miterlimit="10"/>
<path d="M181.461 115.351L188.744 117.409" stroke="white" stroke-miterlimit="10"/>
<path d="M180.176 119.814L187.459 121.871" stroke="white" stroke-miterlimit="10"/>
<path d="M178.891 124.276L186.174 126.334" stroke="white" stroke-miterlimit="10"/>
<path d="M177.605 128.738L184.889 130.796" stroke="white" stroke-miterlimit="10"/>
<path d="M176.324 133.2L183.607 135.258" stroke="white" stroke-miterlimit="10"/>
<path d="M175.035 137.663L182.318 139.721" stroke="white" stroke-miterlimit="10"/>
<path d="M173.754 142.125L181.037 144.182" stroke="white" stroke-miterlimit="10"/>
<path d="M172.469 146.587L179.752 148.645" stroke="white" stroke-miterlimit="10"/>
<path d="M171.188 151.05L178.471 153.107" stroke="white" stroke-miterlimit="10"/>
<path d="M169.898 155.512L177.182 157.569" stroke="white" stroke-miterlimit="10"/>
<path d="M168.613 159.974L175.897 162.031" stroke="white" stroke-miterlimit="10"/>
<path d="M167.332 164.437L174.615 166.494" stroke="white" stroke-miterlimit="10"/>
<path d="M166.047 168.898L173.33 170.956" stroke="white" stroke-miterlimit="10"/>
<path d="M164.762 173.361L172.045 175.418" stroke="white" stroke-miterlimit="10"/>
<path d="M163.48 177.823L170.764 179.88" stroke="white" stroke-miterlimit="10"/>
<path d="M162.195 182.285L169.479 184.343" stroke="white" stroke-miterlimit="10"/>
<path d="M160.906 186.748L168.189 188.805" stroke="white" stroke-miterlimit="10"/>
<path d="M159.625 191.21L166.908 193.268" stroke="white" stroke-miterlimit="10"/>
<path d="M158.34 195.672L165.623 197.729" stroke="white" stroke-miterlimit="10"/>
<path d="M157.055 200.134L164.338 202.192" stroke="white" stroke-miterlimit="10"/>
<path d="M155.773 204.597L163.057 206.655" stroke="white" stroke-miterlimit="10"/>
<path d="M154.488 209.059L161.772 211.116" stroke="white" stroke-miterlimit="10"/>
<path d="M153.199 213.521L160.482 215.578" stroke="white" stroke-miterlimit="10"/>
<path d="M149.331 180.089L149.726 179.769L154.811 184.324L85.2296 246.882C85.2296 246.882 82.0667 224.015 99.2207 207.29C113.873 193.005 120.647 186.428 134.476 185.69C139.905 185.401 145.118 183.495 149.331 180.089Z" fill="white"/>
<path d="M140.588 176.448L140.542 175.944L133.699 175.533L137.273 268.551C137.273 268.551 155.977 254.789 156.035 230.946C156.084 210.58 156.088 201.183 146.943 190.881C143.353 186.836 141.08 181.812 140.588 176.448Z" fill="white"/>
<path d="M133.699 175.533L137.273 268.551" stroke="#E30518" stroke-miterlimit="10"/>
<path d="M139.316 194.914C140.901 194.914 142.186 193.641 142.186 192.07C142.186 190.5 140.901 189.227 139.316 189.227C137.731 189.227 136.445 190.5 136.445 192.07C136.445 193.641 137.731 194.914 139.316 194.914Z" fill="#E40524"/>
<path d="M141.856 126.103C137.394 113.854 128.034 111.633 118.773 119.507C109.511 127.382 96.8859 149.211 116.292 161.238C133.39 171.834 131.112 175.797 131.112 175.797L141.966 176.539C141.966 176.539 146.436 138.677 141.856 126.103ZM121.859 153.005C115.651 150.42 112.734 143.339 115.343 137.19C117.953 131.04 125.1 128.15 131.308 130.735C137.516 133.319 140.433 140.4 137.824 146.55C135.215 152.7 128.067 155.59 121.859 153.005Z" fill="#ED6FA7"/>
<path d="M147.867 178.213L155.964 186.145C155.964 186.145 157.466 181.858 177.071 186.545C199.322 191.864 206.231 167.654 205.429 155.59C204.627 143.526 196.512 138.533 184.521 143.868C172.351 149.282 147.867 178.213 147.867 178.213ZM172.596 161.029C175.205 154.879 182.353 151.989 188.561 154.574C194.769 157.159 197.686 164.24 195.077 170.39C192.468 176.54 185.32 179.43 179.112 176.845C172.904 174.26 169.987 167.179 172.596 161.029Z" fill="#ED6FA7"/>
<path d="M133.938 220.487H212.631V295.878C212.631 317.391 195 334.856 173.284 334.856C151.568 334.856 133.938 317.391 133.938 295.878V220.487Z" fill="#C25528"/>
</g>
<path d="M772.1 167V146H781.7C783.62 146 785.27 146.31 786.65 146.93C788.05 147.55 789.13 148.45 789.89 149.63C790.65 150.79 791.03 152.17 791.03 153.77C791.03 155.35 790.65 156.72 789.89 157.88C789.13 159.02 788.05 159.9 786.65 160.52C785.27 161.12 783.62 161.42 781.7 161.42H775.4L778.04 158.93V167H772.1ZM785.09 167L779.87 159.35H786.2L791.45 167H785.09ZM778.04 159.56L775.4 156.83H781.34C782.58 156.83 783.5 156.56 784.1 156.02C784.72 155.48 785.03 154.73 785.03 153.77C785.03 152.79 784.72 152.03 784.1 151.49C783.5 150.95 782.58 150.68 781.34 150.68H775.4L778.04 147.95V159.56ZM802.557 167.27C800.637 167.27 798.957 166.91 797.517 166.19C796.097 165.45 794.987 164.45 794.187 163.19C793.407 161.91 793.017 160.46 793.017 158.84C793.017 157.22 793.397 155.78 794.157 154.52C794.937 153.24 796.007 152.25 797.367 151.55C798.727 150.83 800.257 150.47 801.957 150.47C803.557 150.47 805.017 150.8 806.337 151.46C807.657 152.1 808.707 153.05 809.487 154.31C810.267 155.57 810.657 157.1 810.657 158.9C810.657 159.1 810.647 159.33 810.627 159.59C810.607 159.85 810.587 160.09 810.567 160.31H797.697V157.31H807.537L805.377 158.15C805.397 157.41 805.257 156.77 804.957 156.23C804.677 155.69 804.277 155.27 803.757 154.97C803.257 154.67 802.667 154.52 801.987 154.52C801.307 154.52 800.707 154.67 800.187 154.97C799.687 155.27 799.297 155.7 799.017 156.26C798.737 156.8 798.597 157.44 798.597 158.18V159.05C798.597 159.85 798.757 160.54 799.077 161.12C799.417 161.7 799.897 162.15 800.517 162.47C801.137 162.77 801.877 162.92 802.737 162.92C803.537 162.92 804.217 162.81 804.777 162.59C805.357 162.35 805.927 161.99 806.487 161.51L809.487 164.63C808.707 165.49 807.747 166.15 806.607 166.61C805.467 167.05 804.117 167.27 802.557 167.27ZM823.515 167.27C822.135 167.27 820.955 166.97 819.975 166.37C818.995 165.75 818.245 164.83 817.725 163.61C817.225 162.37 816.975 160.79 816.975 158.87C816.975 156.93 817.215 155.35 817.695 154.13C818.175 152.89 818.895 151.97 819.855 151.37C820.835 150.77 822.055 150.47 823.515 150.47C824.995 150.47 826.335 150.82 827.535 151.52C828.755 152.2 829.715 153.17 830.415 154.43C831.135 155.67 831.495 157.15 831.495 158.87C831.495 160.59 831.135 162.08 830.415 163.34C829.715 164.6 828.755 165.57 827.535 166.25C826.335 166.93 824.995 167.27 823.515 167.27ZM813.285 172.82V150.74H818.715V153.5L818.685 158.87L818.985 164.27V172.82H813.285ZM822.315 162.74C822.955 162.74 823.525 162.59 824.025 162.29C824.545 161.99 824.955 161.55 825.255 160.97C825.575 160.39 825.735 159.69 825.735 158.87C825.735 158.05 825.575 157.35 825.255 156.77C824.955 156.19 824.545 155.75 824.025 155.45C823.525 155.15 822.955 155 822.315 155C821.675 155 821.095 155.15 820.575 155.45C820.075 155.75 819.665 156.19 819.345 156.77C819.045 157.35 818.895 158.05 818.895 158.87C818.895 159.69 819.045 160.39 819.345 160.97C819.665 161.55 820.075 161.99 820.575 162.29C821.095 162.59 821.675 162.74 822.315 162.74ZM842.304 167.27C840.524 167.27 838.944 166.91 837.564 166.19C836.184 165.47 835.094 164.48 834.294 163.22C833.514 161.94 833.124 160.48 833.124 158.84C833.124 157.2 833.514 155.75 834.294 154.49C835.094 153.23 836.184 152.25 837.564 151.55C838.944 150.83 840.524 150.47 842.304 150.47C844.084 150.47 845.664 150.83 847.044 151.55C848.444 152.25 849.534 153.23 850.314 154.49C851.094 155.75 851.484 157.2 851.484 158.84C851.484 160.48 851.094 161.94 850.314 163.22C849.534 164.48 848.444 165.47 847.044 166.19C845.664 166.91 844.084 167.27 842.304 167.27ZM842.304 162.74C842.964 162.74 843.544 162.59 844.044 162.29C844.564 161.99 844.974 161.55 845.274 160.97C845.574 160.37 845.724 159.66 845.724 158.84C845.724 158.02 845.574 157.33 845.274 156.77C844.974 156.19 844.564 155.75 844.044 155.45C843.544 155.15 842.964 155 842.304 155C841.664 155 841.084 155.15 840.564 155.45C840.064 155.75 839.654 156.19 839.334 156.77C839.034 157.33 838.884 158.02 838.884 158.84C838.884 159.66 839.034 160.37 839.334 160.97C839.654 161.55 840.064 161.99 840.564 162.29C841.084 162.59 841.664 162.74 842.304 162.74ZM854.125 167V150.74H859.555V155.48L858.745 154.13C859.225 152.91 860.005 152 861.085 151.4C862.165 150.78 863.475 150.47 865.015 150.47V155.6C864.755 155.56 864.525 155.54 864.325 155.54C864.145 155.52 863.945 155.51 863.725 155.51C862.565 155.51 861.625 155.83 860.905 156.47C860.185 157.09 859.825 158.11 859.825 159.53V167H854.125ZM875.125 167.27C873.045 167.27 871.425 166.76 870.265 165.74C869.105 164.7 868.525 163.14 868.525 161.06V147.11H874.225V161C874.225 161.58 874.385 162.04 874.705 162.38C875.025 162.7 875.435 162.86 875.935 162.86C876.615 162.86 877.195 162.69 877.675 162.35L879.085 166.34C878.605 166.66 878.015 166.89 877.315 167.03C876.615 167.19 875.885 167.27 875.125 167.27ZM866.155 155.6V151.34H877.945V155.6H866.155ZM898.174 167.27C896.394 167.27 894.814 166.91 893.434 166.19C892.054 165.47 890.964 164.48 890.164 163.22C889.384 161.94 888.994 160.48 888.994 158.84C888.994 157.2 889.384 155.75 890.164 154.49C890.964 153.23 892.054 152.25 893.434 151.55C894.814 150.83 896.394 150.47 898.174 150.47C899.954 150.47 901.534 150.83 902.914 151.55C904.314 152.25 905.404 153.23 906.184 154.49C906.964 155.75 907.354 157.2 907.354 158.84C907.354 160.48 906.964 161.94 906.184 163.22C905.404 164.48 904.314 165.47 902.914 166.19C901.534 166.91 899.954 167.27 898.174 167.27ZM898.174 162.74C898.834 162.74 899.414 162.59 899.914 162.29C900.434 161.99 900.844 161.55 901.144 160.97C901.444 160.37 901.594 159.66 901.594 158.84C901.594 158.02 901.444 157.33 901.144 156.77C900.844 156.19 900.434 155.75 899.914 155.45C899.414 155.15 898.834 155 898.174 155C897.534 155 896.954 155.15 896.434 155.45C895.934 155.75 895.524 156.19 895.204 156.77C894.904 157.33 894.754 158.02 894.754 158.84C894.754 159.66 894.904 160.37 895.204 160.97C895.524 161.55 895.934 161.99 896.434 162.29C896.954 162.59 897.534 162.74 898.174 162.74ZM910.654 167V150.92C910.654 148.96 911.234 147.4 912.394 146.24C913.574 145.06 915.254 144.47 917.434 144.47C918.134 144.47 918.824 144.54 919.504 144.68C920.184 144.82 920.754 145.03 921.214 145.31L919.804 149.33C919.564 149.19 919.294 149.08 918.994 149C918.694 148.9 918.394 148.85 918.094 148.85C917.494 148.85 917.024 149.03 916.684 149.39C916.364 149.73 916.204 150.26 916.204 150.98V152.15L916.354 154.52V167H910.654ZM908.284 155.6V151.34H920.074V155.6H908.284ZM940.842 167V163.97L940.452 163.22V157.64C940.452 156.74 940.172 156.05 939.612 155.57C939.072 155.07 938.202 154.82 937.002 154.82C936.222 154.82 935.432 154.95 934.632 155.21C933.832 155.45 933.152 155.79 932.592 156.23L930.672 152.36C931.592 151.76 932.692 151.3 933.972 150.98C935.272 150.64 936.562 150.47 937.842 150.47C940.482 150.47 942.522 151.08 943.962 152.3C945.422 153.5 946.152 155.39 946.152 157.97V167H940.842ZM936.042 167.27C934.742 167.27 933.642 167.05 932.742 166.61C931.842 166.17 931.152 165.57 930.672 164.81C930.212 164.05 929.982 163.2 929.982 162.26C929.982 161.26 930.232 160.4 930.732 159.68C931.252 158.94 932.042 158.38 933.102 158C934.162 157.6 935.532 157.4 937.212 157.4H941.052V160.37H937.992C937.072 160.37 936.422 160.52 936.042 160.82C935.682 161.12 935.502 161.52 935.502 162.02C935.502 162.52 935.692 162.92 936.072 163.22C936.452 163.52 936.972 163.67 937.632 163.67C938.252 163.67 938.812 163.52 939.312 163.22C939.832 162.9 940.212 162.42 940.452 161.78L941.232 163.88C940.932 165 940.342 165.85 939.462 166.43C938.602 166.99 937.462 167.27 936.042 167.27ZM958.265 167.27C956.465 167.27 954.855 166.91 953.435 166.19C952.035 165.47 950.935 164.48 950.135 163.22C949.335 161.94 948.935 160.48 948.935 158.84C948.935 157.2 949.335 155.75 950.135 154.49C950.935 153.23 952.035 152.25 953.435 151.55C954.855 150.83 956.465 150.47 958.265 150.47C960.105 150.47 961.695 150.86 963.035 151.64C964.375 152.42 965.325 153.52 965.885 154.94L961.475 157.19C961.095 156.43 960.625 155.88 960.065 155.54C959.505 155.18 958.895 155 958.235 155C957.575 155 956.975 155.15 956.435 155.45C955.895 155.75 955.465 156.19 955.145 156.77C954.845 157.33 954.695 158.02 954.695 158.84C954.695 159.68 954.845 160.39 955.145 160.97C955.465 161.55 955.895 161.99 956.435 162.29C956.975 162.59 957.575 162.74 958.235 162.74C958.895 162.74 959.505 162.57 960.065 162.23C960.625 161.87 961.095 161.31 961.475 160.55L965.885 162.8C965.325 164.22 964.375 165.32 963.035 166.1C961.695 166.88 960.105 167.27 958.265 167.27ZM975.555 167.27C973.475 167.27 971.855 166.76 970.695 165.74C969.535 164.7 968.955 163.14 968.955 161.06V147.11H974.655V161C974.655 161.58 974.815 162.04 975.135 162.38C975.455 162.7 975.865 162.86 976.365 162.86C977.045 162.86 977.625 162.69 978.105 162.35L979.515 166.34C979.035 166.66 978.445 166.89 977.745 167.03C977.045 167.19 976.315 167.27 975.555 167.27ZM966.585 155.6V151.34H978.375V155.6H966.585ZM981.713 167V150.74H987.413V167H981.713ZM984.563 148.94C983.523 148.94 982.683 148.65 982.043 148.07C981.403 147.49 981.083 146.77 981.083 145.91C981.083 145.05 981.403 144.33 982.043 143.75C982.683 143.17 983.523 142.88 984.563 142.88C985.603 142.88 986.443 143.16 987.083 143.72C987.723 144.26 988.043 144.96 988.043 145.82C988.043 146.72 987.723 147.47 987.083 148.07C986.463 148.65 985.623 148.94 984.563 148.94ZM995.647 167L988.957 150.74H994.807L1000.15 164.33H997.207L1002.82 150.74H1008.25L1001.53 167H995.647ZM1009.72 167V150.74H1015.42V167H1009.72ZM1012.57 148.94C1011.53 148.94 1010.69 148.65 1010.05 148.07C1009.41 147.49 1009.09 146.77 1009.09 145.91C1009.09 145.05 1009.41 144.33 1010.05 143.75C1010.69 143.17 1011.53 142.88 1012.57 142.88C1013.61 142.88 1014.45 143.16 1015.09 143.72C1015.73 144.26 1016.05 144.96 1016.05 145.82C1016.05 146.72 1015.73 147.47 1015.09 148.07C1014.47 148.65 1013.63 148.94 1012.57 148.94ZM1026.38 167.27C1024.3 167.27 1022.68 166.76 1021.52 165.74C1020.36 164.7 1019.78 163.14 1019.78 161.06V147.11H1025.48V161C1025.48 161.58 1025.64 162.04 1025.96 162.38C1026.28 162.7 1026.69 162.86 1027.19 162.86C1027.87 162.86 1028.45 162.69 1028.93 162.35L1030.34 166.34C1029.86 166.66 1029.27 166.89 1028.57 167.03C1027.87 167.19 1027.14 167.27 1026.38 167.27ZM1017.41 155.6V151.34H1029.2V155.6H1017.41ZM1032.54 167V150.74H1038.24V167H1032.54ZM1035.39 148.94C1034.35 148.94 1033.51 148.65 1032.87 148.07C1032.23 147.49 1031.91 146.77 1031.91 145.91C1031.91 145.05 1032.23 144.33 1032.87 143.75C1033.51 143.17 1034.35 142.88 1035.39 142.88C1036.43 142.88 1037.27 143.16 1037.91 143.72C1038.55 144.26 1038.87 144.96 1038.87 145.82C1038.87 146.72 1038.55 147.47 1037.91 148.07C1037.29 148.65 1036.45 148.94 1035.39 148.94ZM1050.47 167.27C1048.55 167.27 1046.87 166.91 1045.43 166.19C1044.01 165.45 1042.9 164.45 1042.1 163.19C1041.32 161.91 1040.93 160.46 1040.93 158.84C1040.93 157.22 1041.31 155.78 1042.07 154.52C1042.85 153.24 1043.92 152.25 1045.28 151.55C1046.64 150.83 1048.17 150.47 1049.87 150.47C1051.47 150.47 1052.93 150.8 1054.25 151.46C1055.57 152.1 1056.62 153.05 1057.4 154.31C1058.18 155.57 1058.57 157.1 1058.57 158.9C1058.57 159.1 1058.56 159.33 1058.54 159.59C1058.52 159.85 1058.5 160.09 1058.48 160.31H1045.61V157.31H1055.45L1053.29 158.15C1053.31 157.41 1053.17 156.77 1052.87 156.23C1052.59 155.69 1052.19 155.27 1051.67 154.97C1051.17 154.67 1050.58 154.52 1049.9 154.52C1049.22 154.52 1048.62 154.67 1048.1 154.97C1047.6 155.27 1047.21 155.7 1046.93 156.26C1046.65 156.8 1046.51 157.44 1046.51 158.18V159.05C1046.51 159.85 1046.67 160.54 1046.99 161.12C1047.33 161.7 1047.81 162.15 1048.43 162.47C1049.05 162.77 1049.79 162.92 1050.65 162.92C1051.45 162.92 1052.13 162.81 1052.69 162.59C1053.27 162.35 1053.84 161.99 1054.4 161.51L1057.4 164.63C1056.62 165.49 1055.66 166.15 1054.52 166.61C1053.38 167.05 1052.03 167.27 1050.47 167.27ZM1067.11 167.27C1065.73 167.27 1064.38 167.11 1063.06 166.79C1061.76 166.47 1060.71 166.07 1059.91 165.59L1061.62 161.69C1062.38 162.15 1063.27 162.52 1064.29 162.8C1065.31 163.06 1066.31 163.19 1067.29 163.19C1068.25 163.19 1068.91 163.09 1069.27 162.89C1069.65 162.69 1069.84 162.42 1069.84 162.08C1069.84 161.76 1069.66 161.53 1069.3 161.39C1068.96 161.23 1068.5 161.11 1067.92 161.03C1067.36 160.95 1066.74 160.86 1066.06 160.76C1065.38 160.66 1064.69 160.53 1063.99 160.37C1063.31 160.19 1062.68 159.93 1062.1 159.59C1061.54 159.23 1061.09 158.75 1060.75 158.15C1060.41 157.55 1060.24 156.79 1060.24 155.87C1060.24 154.83 1060.54 153.91 1061.14 153.11C1061.76 152.29 1062.66 151.65 1063.84 151.19C1065.02 150.71 1066.46 150.47 1068.16 150.47C1069.3 150.47 1070.45 150.59 1071.61 150.83C1072.79 151.05 1073.78 151.39 1074.58 151.85L1072.87 155.72C1072.07 155.26 1071.27 154.95 1070.47 154.79C1069.67 154.61 1068.91 154.52 1068.19 154.52C1067.23 154.52 1066.55 154.63 1066.15 154.85C1065.77 155.07 1065.58 155.34 1065.58 155.66C1065.58 155.98 1065.75 156.23 1066.09 156.41C1066.43 156.57 1066.88 156.7 1067.44 156.8C1068.02 156.88 1068.65 156.97 1069.33 157.07C1070.01 157.15 1070.69 157.28 1071.37 157.46C1072.07 157.64 1072.7 157.91 1073.26 158.27C1073.84 158.61 1074.3 159.08 1074.64 159.68C1074.98 160.26 1075.15 161.01 1075.15 161.93C1075.15 162.93 1074.84 163.83 1074.22 164.63C1073.62 165.43 1072.72 166.07 1071.52 166.55C1070.34 167.03 1068.87 167.27 1067.11 167.27Z" fill="white"/>
<rect x="827" y="198" width="193" height="64" rx="8" fill="#851970"/>
<path d="M869.173 238.836C867.845 238.836 866.613 238.628 865.477 238.212C864.357 237.78 863.381 237.172 862.549 236.388C861.733 235.604 861.093 234.684 860.629 233.628C860.165 232.556 859.933 231.38 859.933 230.1C859.933 228.82 860.165 227.652 860.629 226.596C861.093 225.524 861.733 224.596 862.549 223.812C863.381 223.028 864.357 222.428 865.477 222.012C866.613 221.58 867.845 221.364 869.173 221.364C870.725 221.364 872.109 221.636 873.325 222.18C874.557 222.724 875.581 223.508 876.397 224.532L873.373 227.268C872.829 226.628 872.229 226.14 871.573 225.804C870.933 225.468 870.213 225.3 869.413 225.3C868.725 225.3 868.093 225.412 867.517 225.636C866.941 225.86 866.445 226.188 866.029 226.62C865.629 227.036 865.309 227.54 865.069 228.132C864.845 228.724 864.733 229.38 864.733 230.1C864.733 230.82 864.845 231.476 865.069 232.068C865.309 232.66 865.629 233.172 866.029 233.604C866.445 234.02 866.941 234.34 867.517 234.564C868.093 234.788 868.725 234.9 869.413 234.9C870.213 234.9 870.933 234.732 871.573 234.396C872.229 234.06 872.829 233.572 873.373 232.932L876.397 235.668C875.581 236.676 874.557 237.46 873.325 238.02C872.109 238.564 870.725 238.836 869.173 238.836ZM878.3 238.5V220.692H882.86V238.5H878.3ZM885.823 238.5V225.492H890.383V238.5H885.823ZM888.103 224.052C887.271 224.052 886.599 223.82 886.087 223.356C885.575 222.892 885.319 222.316 885.319 221.628C885.319 220.94 885.575 220.364 886.087 219.9C886.599 219.436 887.271 219.204 888.103 219.204C888.935 219.204 889.607 219.428 890.119 219.876C890.631 220.308 890.887 220.868 890.887 221.556C890.887 222.276 890.631 222.876 890.119 223.356C889.623 223.82 888.951 224.052 888.103 224.052ZM899.995 238.716C898.555 238.716 897.267 238.428 896.131 237.852C895.011 237.276 894.131 236.484 893.491 235.476C892.851 234.452 892.531 233.284 892.531 231.972C892.531 230.66 892.851 229.5 893.491 228.492C894.131 227.484 895.011 226.7 896.131 226.14C897.267 225.564 898.555 225.276 899.995 225.276C901.467 225.276 902.739 225.588 903.811 226.212C904.883 226.836 905.643 227.716 906.091 228.852L902.563 230.652C902.259 230.044 901.883 229.604 901.435 229.332C900.987 229.044 900.499 228.9 899.971 228.9C899.443 228.9 898.963 229.02 898.531 229.26C898.099 229.5 897.755 229.852 897.499 230.316C897.259 230.764 897.139 231.316 897.139 231.972C897.139 232.644 897.259 233.212 897.499 233.676C897.755 234.14 898.099 234.492 898.531 234.732C898.963 234.972 899.443 235.092 899.971 235.092C900.499 235.092 900.987 234.956 901.435 234.684C901.883 234.396 902.259 233.948 902.563 233.34L906.091 235.14C905.643 236.276 904.883 237.156 903.811 237.78C902.739 238.404 901.467 238.716 899.995 238.716ZM911.553 236.1L911.673 230.652L916.977 225.492H922.377L916.497 231.564L914.169 233.436L911.553 236.1ZM907.761 238.5V220.692H912.321V238.5H907.761ZM917.313 238.5L913.329 233.508L916.161 230.004L922.833 238.5H917.313ZM939.67 225.276C940.678 225.276 941.59 225.484 942.406 225.9C943.222 226.3 943.862 226.924 944.326 227.772C944.806 228.62 945.046 229.716 945.046 231.06V238.5H940.486V231.804C940.486 230.876 940.294 230.204 939.91 229.788C939.542 229.356 939.022 229.14 938.35 229.14C937.87 229.14 937.43 229.252 937.03 229.476C936.63 229.684 936.318 230.012 936.094 230.46C935.87 230.908 935.758 231.492 935.758 232.212V238.5H931.198V220.692H935.758V229.188L934.702 228.108C935.198 227.164 935.878 226.46 936.742 225.996C937.606 225.516 938.582 225.276 939.67 225.276ZM954.889 238.716C953.353 238.716 952.009 238.428 950.857 237.852C949.721 237.26 948.833 236.46 948.193 235.452C947.569 234.428 947.257 233.268 947.257 231.972C947.257 230.676 947.561 229.524 948.169 228.516C948.793 227.492 949.649 226.7 950.737 226.14C951.825 225.564 953.049 225.276 954.409 225.276C955.689 225.276 956.857 225.54 957.913 226.068C958.969 226.58 959.809 227.34 960.433 228.348C961.057 229.356 961.369 230.58 961.369 232.02C961.369 232.18 961.361 232.364 961.345 232.572C961.329 232.78 961.313 232.972 961.297 233.148H951.001V230.748H958.873L957.145 231.42C957.161 230.828 957.049 230.316 956.809 229.884C956.585 229.452 956.265 229.116 955.849 228.876C955.449 228.636 954.977 228.516 954.433 228.516C953.889 228.516 953.409 228.636 952.993 228.876C952.593 229.116 952.281 229.46 952.057 229.908C951.833 230.34 951.721 230.852 951.721 231.444V232.14C951.721 232.78 951.849 233.332 952.105 233.796C952.377 234.26 952.761 234.62 953.257 234.876C953.753 235.116 954.345 235.236 955.033 235.236C955.673 235.236 956.217 235.148 956.665 234.972C957.129 234.78 957.585 234.492 958.033 234.108L960.433 236.604C959.809 237.292 959.041 237.82 958.129 238.188C957.217 238.54 956.137 238.716 954.889 238.716ZM963.472 238.5V225.492H967.816V229.284L967.168 228.204C967.552 227.228 968.176 226.5 969.04 226.02C969.904 225.524 970.952 225.276 972.184 225.276V229.38C971.976 229.348 971.792 229.332 971.632 229.332C971.488 229.316 971.328 229.308 971.152 229.308C970.224 229.308 969.472 229.564 968.896 230.076C968.32 230.572 968.032 231.388 968.032 232.524V238.5H963.472ZM980.764 238.716C979.228 238.716 977.884 238.428 976.732 237.852C975.596 237.26 974.708 236.46 974.068 235.452C973.444 234.428 973.132 233.268 973.132 231.972C973.132 230.676 973.436 229.524 974.044 228.516C974.668 227.492 975.524 226.7 976.612 226.14C977.7 225.564 978.924 225.276 980.284 225.276C981.564 225.276 982.732 225.54 983.788 226.068C984.844 226.58 985.684 227.34 986.308 228.348C986.932 229.356 987.244 230.58 987.244 232.02C987.244 232.18 987.236 232.364 987.22 232.572C987.204 232.78 987.188 232.972 987.172 233.148H976.876V230.748H984.748L983.02 231.42C983.036 230.828 982.924 230.316 982.684 229.884C982.46 229.452 982.14 229.116 981.724 228.876C981.324 228.636 980.852 228.516 980.308 228.516C979.764 228.516 979.284 228.636 978.868 228.876C978.468 229.116 978.156 229.46 977.932 229.908C977.708 230.34 977.596 230.852 977.596 231.444V232.14C977.596 232.78 977.724 233.332 977.98 233.796C978.252 234.26 978.636 234.62 979.132 234.876C979.628 235.116 980.22 235.236 980.908 235.236C981.548 235.236 982.092 235.148 982.54 234.972C983.004 234.78 983.46 234.492 983.908 234.108L986.308 236.604C985.684 237.292 984.916 237.82 984.004 238.188C983.092 238.54 982.012 238.716 980.764 238.716Z" fill="#F6F6F6"/>
<defs>
<linearGradient id="paint0_linear_14595_3078" x1="258.289" y1="255.215" x2="463.191" y2="195.245" gradientUnits="userSpaceOnUse">
<stop offset="0.335196" stop-color="#F7C400" stop-opacity="0"/>
<stop offset="0.381846" stop-color="#F7C400" stop-opacity="0.015793"/>
<stop offset="0.475551" stop-color="#F7C400" stop-opacity="0.125675"/>
<stop offset="0.569664" stop-color="#F7C400" stop-opacity="0.304636"/>
<stop offset="0.662069" stop-color="#F7C400" stop-opacity="0.508675"/>
<stop offset="0.752409" stop-color="#F7C400" stop-opacity="0.703071"/>
<stop offset="0.840103" stop-color="#F7C400" stop-opacity="0.861081"/>
<stop offset="0.923995" stop-color="#F7C400" stop-opacity="0.963818"/>
<stop offset="1" stop-color="#F7C400"/>
</linearGradient>
<linearGradient id="paint1_linear_14595_3078" x1="181.764" y1="222.707" x2="209.953" y2="230.968" gradientUnits="userSpaceOnUse">
<stop stop-color="#0071B9" stop-opacity="0"/>
<stop offset="1" stop-color="#0071B9"/>
</linearGradient>
<clipPath id="clip0_14595_3078">
<rect x="85" y="64" width="619" height="271" rx="4" fill="white"/>
</clipPath>
</defs>
</svg>
