<svg width="221" height="96" viewBox="0 0 221 96" fill="none" xmlns="http://www.w3.org/2000/svg">
<g id="CapX_-_Person_16_-_2 (1) 2">
<g clip-path="url(#clip0_14858_11775)">
<g id="c">
<path id="Vector" d="M154.266 63.9265L53.9727 92.3341L54.8649 9.33417C54.9112 5.03076 58.4164 1.54467 62.7743 1.46804L146.177 0.00128819C150.686 -0.0780104 154.382 3.51395 154.374 7.96693L154.266 63.9265Z" fill="#00384A"/>
<path id="Vector_2" d="M146.599 62.1869L66.9388 82.9203C63.4953 83.8165 60.125 81.2522 60.125 77.736L60.125 11.7883C60.125 8.86376 62.4987 6.47876 65.4602 6.42781L145.12 5.05747C148.156 5.00526 150.645 7.42047 150.645 10.418V57.0027C150.645 59.4373 148.983 61.5663 146.599 62.1869Z" fill="white"/>
<path id="Vector_3" d="M154.264 63.9258L57.6836 88.6675H142.891V95.9993L220.542 73.3432C220.542 69.6456 217.507 66.6482 213.762 66.6482L154.264 63.9258Z" fill="#00384A"/>
<path id="Vector_4" d="M142.893 88.668H57.6853C55.6349 88.668 53.9727 90.3093 53.9727 92.3339C53.9727 94.3585 55.6349 95.9998 57.6853 95.9998H142.893C144.943 95.9998 146.605 94.3585 146.605 92.3339C146.605 90.3093 144.943 88.668 142.893 88.668Z" fill="#ED6FA7"/>
<path id="Vector_5" d="M140.616 63.6949L66.6763 83.1964C66.6763 83.1964 53.9257 48.7756 86.7899 42.3964C107.795 38.3191 129.477 28.7956 133.899 41.7137C138.32 54.6318 140.616 63.6949 140.616 63.6949Z" fill="#ED6FA7"/>
<path id="Vector_6" d="M140.616 63.6949L66.6763 83.1964C66.6763 83.1964 53.9257 48.7756 86.7899 42.3964C107.795 38.3191 129.477 28.7956 133.899 41.7137C138.32 54.6318 140.616 63.6949 140.616 63.6949Z" fill="url(#paint0_linear_14858_11775)"/>
<path id="Vector_7" d="M127.182 67.2406L124.474 49.8553C124.007 46.195 122.727 42.6709 120.654 39.6019C118.961 37.096 117.159 33.4766 117.077 29.3433C116.921 21.4705 119.578 23.2457 119.578 23.2457L121.868 29.0346L138.417 39.5318L146.597 62.1872L127.182 67.2406Z" fill="#F6B1B4"/>
<path id="Vector_8" d="M117.956 23.8359C118.949 24.1169 119.524 25.1397 119.239 26.1203C118.955 27.101 117.919 27.6682 116.926 27.3873" stroke="#E30518" stroke-miterlimit="10" stroke-linecap="round"/>
<path id="Vector_9" d="M127.121 21.1539C126.904 21.0469 125.1 18.7479 122.591 17.3578C120.96 16.4542 120.526 16.9512 120.423 17.4098C120.369 17.6483 120.409 17.8983 120.506 18.1231L123.757 25.649L127.121 21.1539Z" fill="#F6B1B4"/>
<path id="Vector_10" d="M125.02 18.9426C124.471 19.8004 123.321 20.0561 122.453 19.5137C121.584 18.9714 121.325 17.8363 121.874 16.9785" stroke="#E30518" stroke-miterlimit="10" stroke-linecap="round"/>
<path id="Vector_11" d="M116.267 11.8892C116.084 11.6815 115.739 11.8354 115.776 12.1083L116.366 16.1912C116.415 16.5269 116.507 16.855 116.642 17.1669L129.154 46.1454C129.504 46.936 130.437 47.2966 131.238 46.9507C132.039 46.6048 132.404 45.6834 132.054 44.8927L119.575 15.9912C119.419 15.6287 119.207 15.2919 118.948 14.9922L116.267 11.8892Z" fill="#F7C400"/>
<path id="Vector_12" d="M85.1947 28.9878C85.1947 28.9878 78.9746 28.9025 79.5003 34.2916C80.0259 39.6806 88.9617 41.9094 88.9617 41.9094C88.9617 41.9094 94.1327 46.8603 100.966 45.6493C107.799 44.4382 111.038 40.9782 110.688 35.961C110.338 30.9439 107.239 23.77 105.574 21.002L85.1947 28.9878Z" fill="#F6B1B4"/>
<path id="Vector_13" d="M104.005 33.1319C104.206 33.1319 104.37 32.9707 104.37 32.772C104.37 32.5732 104.206 32.4121 104.005 32.4121C103.804 32.4121 103.641 32.5732 103.641 32.772C103.641 32.9707 103.804 33.1319 104.005 33.1319Z" fill="#E40524"/>
<path id="Vector_14" d="M105.099 32.7002C105.3 32.7002 105.463 32.5391 105.463 32.3403C105.463 32.1416 105.3 31.9805 105.099 31.9805C104.898 31.9805 104.734 32.1416 104.734 32.3403C104.734 32.5391 104.898 32.7002 105.099 32.7002Z" fill="#E40524"/>
<path id="Vector_15" d="M102.469 28.6797C102.469 28.6797 102.916 29.8198 104.456 30.1998C105.995 30.5798 106.267 32.2855 106.267 32.2855" stroke="#E30518" stroke-miterlimit="10" stroke-linecap="round"/>
<path id="Vector_16" d="M102.902 34.954L106.01 35.1966L107.296 33.0391" stroke="#E30518" stroke-miterlimit="10" stroke-linecap="round"/>
<path id="Vector_17" d="M105.516 21.3915C105.505 21.7422 105.625 21.7011 105.495 22.0987C105.432 22.2926 105.174 22.4356 105.044 22.6619C104.936 22.8508 104.928 23.1252 104.758 23.3107C104.608 23.4736 104.337 23.5113 104.131 23.6545C103.949 23.7802 103.824 24.0198 103.591 24.1188C103.388 24.2055 103.15 24.2473 102.903 24.3057C102.68 24.3582 102.468 24.397 102.266 24.427C102.038 24.4608 101.826 24.5432 101.624 24.5529C101.391 24.5641 101.168 24.5597 100.969 24.5459C100.731 24.5294 100.53 24.402 100.34 24.3619C100.095 24.3102 99.8411 24.3796 99.6731 24.3129C99.2933 24.162 99.4657 23.8508 99.1491 23.9188C98.8272 23.9879 99.069 24.1674 98.8382 24.4909C98.7281 24.6451 98.6277 24.854 98.4738 25.0415C98.3434 25.2004 98.1422 25.3252 97.984 25.4908C97.837 25.6448 97.5754 25.6876 97.4071 25.8342C97.2432 25.977 97.15 26.2039 96.9685 26.3278C96.7866 26.4521 96.5636 26.4983 96.3666 26.5916C96.1667 26.6864 95.978 26.7771 95.7651 26.8279C95.535 26.8827 95.3264 26.9869 95.1138 27.0088C94.8763 27.0333 94.6513 26.931 94.4393 26.9239C94.1969 26.9158 93.9798 26.9188 93.776 26.8833C93.5254 26.8397 93.2725 26.9087 93.09 26.849C92.6967 26.7203 92.8221 26.3968 92.5454 26.586C92.2871 26.7627 92.4098 26.7618 92.3738 27.1224C92.3557 27.3044 92.3863 27.5049 92.3127 27.7196C92.2496 27.9036 92.2073 28.1035 92.0822 28.2846C91.9715 28.4449 91.8962 28.6688 91.7226 28.8083C91.5722 28.9292 91.3303 28.9448 91.1232 29.038C90.9414 29.1199 90.7332 29.1783 90.4972 29.2337C90.2936 29.2816 90.0978 29.4665 89.8665 29.4976C89.6534 29.5264 89.4271 29.5809 89.2001 29.5977C88.9811 29.6139 88.7429 29.3538 88.5193 29.361C88.2956 29.3681 88.0762 29.5014 87.8561 29.5014C87.6278 29.5014 87.4041 29.4858 87.1887 29.4801C86.9539 29.474 86.7296 29.4719 86.5217 29.4618C86.273 29.4497 86.0515 29.3891 85.8602 29.3757C85.4515 29.3471 85.5259 29.4329 85.1932 29.4343C84.8862 29.4357 84.9414 29.3261 84.5719 29.3891C84.3967 29.419 84.1986 29.5026 83.9752 29.5488C83.7865 29.5879 83.6089 29.735 83.4005 29.7867C83.2066 29.8348 82.9824 29.7969 82.7827 29.8566C82.5867 29.9153 82.4138 30.0461 82.2226 30.1166C82.0266 30.1889 81.8412 30.2696 81.6612 30.3551C81.4683 30.4467 81.1984 30.403 81.037 30.5105C80.85 30.6353 80.7344 30.8647 80.577 31.0188C80.4175 31.1749 80.3716 31.4161 80.2434 31.5957C80.1143 31.7766 79.8698 31.8861 79.7732 32.0841C79.6757 32.2838 79.608 32.5024 79.5446 32.7125C79.4802 32.9257 79.5936 33.1683 79.5651 33.385C79.536 33.6064 79.4339 33.8098 79.4433 34.0271C79.453 34.2509 79.4463 34.4463 79.4979 34.6572C79.1617 34.6659 79.2561 34.5276 79.058 34.1636C78.9672 33.9967 78.9512 33.7502 78.845 33.5231C78.758 33.3371 78.7107 33.1153 78.6234 32.8951C78.5455 32.6983 78.5362 32.4698 78.4648 32.25C78.3985 32.0458 78.2084 31.8705 78.1532 31.6498C78.1006 31.4392 78.0573 31.2189 78.0195 30.9962C77.9828 30.7809 77.9414 30.559 77.9227 30.335C77.9045 30.1167 77.8666 29.8907 77.8692 29.6665C77.8717 29.4473 77.8448 29.2139 77.8708 28.9913C77.8961 28.7737 78.0034 28.5581 78.0545 28.3392C78.1041 28.1264 78.2358 27.9326 78.3128 27.7205C78.3871 27.5158 78.4976 27.3267 78.6001 27.1243C78.6982 26.9307 78.7932 26.7353 78.9195 26.5453C79.0395 26.365 79.1415 26.1665 79.289 25.9908C79.4281 25.8251 79.6526 25.735 79.818 25.5745C79.9688 25.4281 80.0801 25.2314 80.256 25.0839C80.4187 24.9474 80.6192 24.8494 80.8015 24.7124C80.9725 24.5838 81.0644 24.3374 81.2511 24.2086C81.4282 24.0865 81.6655 24.0414 81.8556 23.9193C82.0375 23.8025 82.1499 23.5663 82.3425 23.4497C82.5281 23.3373 82.7501 23.2737 82.9447 23.1618C83.1333 23.0533 83.3056 22.907 83.5016 22.7992C83.6928 22.694 83.9535 22.7078 84.151 22.6034C84.3443 22.5012 84.4685 22.2628 84.667 22.1615C84.8623 22.0618 85.1753 22.1869 85.3749 22.0883C85.5718 21.9909 85.7569 21.8698 85.9573 21.7736C86.1557 21.6783 86.2588 21.3843 86.4599 21.2903C86.6595 21.197 86.9324 21.2561 87.134 21.1642C87.3349 21.0726 87.4836 20.8667 87.6858 20.7766C87.888 20.6864 88.1198 20.6607 88.3226 20.5722C88.5259 20.4835 88.7597 20.4646 88.9629 20.3777C89.1672 20.2903 89.3171 20.079 89.5206 19.9936C89.7259 19.9074 89.9986 19.9823 90.2024 19.8983C90.4085 19.8133 90.5829 19.6575 90.7867 19.5748C90.9936 19.4909 91.2043 19.4213 91.4081 19.34C91.6158 19.2571 91.7868 19.0898 91.9905 19.0097C92.1994 18.9276 92.4733 19.016 92.677 18.937C92.8871 18.8556 93.0556 18.6793 93.2592 18.6015C93.4703 18.5207 93.6964 18.4902 93.8996 18.4135C94.1119 18.3333 94.2869 18.1708 94.4893 18.0952C94.7028 18.0155 94.9583 18.0648 95.1593 17.9905C95.3749 17.9109 95.5193 17.6659 95.7189 17.5929C95.937 17.5132 96.1805 17.5322 96.3773 17.4608C96.5999 17.3801 96.75 17.148 96.9422 17.0786C97.1749 16.9945 97.4537 17.1066 97.6363 17.0403C97.9023 16.9437 98.104 16.8417 98.248 16.7858C98.429 16.7156 98.6538 16.6941 98.8964 16.6265C99.0983 16.5702 99.2982 16.4587 99.5318 16.4131C99.7442 16.3715 99.9451 16.1752 100.176 16.1488C100.395 16.1237 100.631 16.1032 100.859 16.097C101.082 16.091 101.321 16.087 101.547 16.1037C101.771 16.1202 101.994 16.2324 102.215 16.2757C102.436 16.3188 102.608 16.5234 102.821 16.5977C103.032 16.6715 103.312 16.593 103.51 16.702C103.704 16.8088 103.877 16.9712 104.053 17.116C104.221 17.2545 104.351 17.4446 104.498 17.6217C104.635 17.7869 104.864 17.9116 104.979 18.1134C105.085 18.2982 105.012 18.5798 105.096 18.7978C105.172 18.9956 105.301 19.1829 105.357 19.4097C105.408 19.6154 105.366 19.8444 105.399 20.0753C105.429 20.2855 105.581 20.4915 105.595 20.7236C105.607 20.9365 105.518 21.1594 105.516 21.3915Z" fill="#C25528"/>
<path id="Vector_18" d="M138.416 39.5301C138.416 39.5301 140.494 30.2421 138.058 28.05C135.621 25.8579 134.051 25.8664 134.051 25.8664C134.051 25.8664 134.553 22.3212 130.152 22.6499C129.286 20.6182 127.336 19.7093 125.495 20.6182C123.654 21.5271 122.646 28.6219 122.625 30.8302C122.6 33.4728 124.087 33.741 124.955 33.6729C125.281 33.6474 125.588 33.8404 125.67 34.1526C125.936 35.1639 126.503 37.4903 129.624 35.7244C131.363 34.7408 138.416 39.5301 138.416 39.5301Z" fill="#F6B1B4"/>
<path id="Vector_19" d="M122.625 30.832C122.6 33.4746 124.087 33.7428 124.955 33.6747" stroke="#E30518" stroke-miterlimit="10" stroke-linecap="round"/>
<path id="Vector_20" d="M125.672 34.1543C125.938 35.1655 126.506 37.4919 129.627 35.726" stroke="#E30518" stroke-miterlimit="10" stroke-linecap="round"/>
<path id="Vector_21" d="M136.17 31.0993C136.17 31.0993 135.899 36.9271 133.625 37.4617C133.602 37.4671 133.58 37.4722 133.557 37.4771C131.755 37.8705 130.048 36.505 129.994 34.6838C129.977 34.108 129.974 33.4278 129.978 32.7454C129.992 30.5312 131.107 28.465 132.961 27.2192L133.95 26.5547" stroke="#E30518" stroke-miterlimit="10" stroke-linecap="round"/>
<path id="Vector_22" d="M132.037 35.726C133.065 35.726 133.898 34.9033 133.898 33.8884C133.898 32.8735 133.065 32.0508 132.037 32.0508C131.009 32.0508 130.176 32.8735 130.176 33.8884C130.176 34.9033 131.009 35.726 132.037 35.726Z" stroke="#E30518" stroke-miterlimit="10" stroke-linecap="round"/>
<path id="Vector_23" d="M127.482 34.1732C128.51 34.1732 129.343 33.3505 129.343 32.3356C129.343 31.3208 128.51 30.498 127.482 30.498C126.454 30.498 125.621 31.3208 125.621 32.3356C125.621 33.3505 126.454 34.1732 127.482 34.1732Z" stroke="#E30518" stroke-miterlimit="10" stroke-linecap="round"/>
<path id="Vector_24" d="M122.828 28.6602C123.856 28.6602 124.689 29.4829 124.689 30.4978C124.689 31.5126 123.856 32.3354 122.828 32.3354" stroke="#E30518" stroke-miterlimit="10" stroke-linecap="round"/>
<path id="Vector_25" d="M129.827 23.2402C129.827 23.2402 125.919 25.3493 125.621 32.0494" stroke="#E30518" stroke-miterlimit="10" stroke-linecap="round"/>
<path id="Vector_26" d="M83.7921 31.166C83.5425 31.2844 80.7142 32.9614 82.1284 35.3673C83.5425 37.7732 87.5354 38.7588 87.5354 38.7588" stroke="#E30518" stroke-miterlimit="10" stroke-linecap="round"/>
<path id="Vector_27" d="M39.1406 40.1934L48.2153 41.7359L42.9742 71.7971C42.5654 74.1415 40.306 75.7172 37.9317 75.3136L37.4609 75.2336C35.0866 74.83 33.4908 72.599 33.8995 70.2546L39.1406 40.1934Z" fill="#010101"/>
<path id="Vector_28" d="M39.1406 40.1934L48.2153 41.7359L42.9742 71.7971C42.5654 74.1415 40.306 75.7172 37.9317 75.3136L37.4609 75.2336C35.0866 74.83 33.4908 72.599 33.8995 70.2546L39.1406 40.1934Z" fill="url(#paint1_linear_14858_11775)"/>
<path id="Vector_29" d="M39.1406 40.1944L45.5554 30.1973L48.2153 41.7369L39.1406 40.1944Z" fill="#F7C400"/>
<path id="Vector_30" d="M43.9062 32.7723C44.3913 33.5254 45.4118 33.7321 46.1579 33.2283L46.2446 33.1698L45.9101 29.9679C45.8771 29.6517 45.444 29.5781 45.3058 29.8652L43.9062 32.7723Z" fill="#010101"/>
<path id="Vector_31" d="M45.1814 15.6152L36.2539 13.1016L20.9894 65.9581L29.9169 68.4717L45.1814 15.6152Z" fill="#00384A" stroke="white" stroke-miterlimit="10"/>
<path id="Vector_32" d="M35.6953 15.0293L38.2839 15.7581" stroke="white" stroke-miterlimit="10"/>
<path id="Vector_33" d="M35.2383 16.6094L37.8268 17.3382" stroke="white" stroke-miterlimit="10"/>
<path id="Vector_34" d="M34.7812 18.1914L37.3698 18.9202" stroke="white" stroke-miterlimit="10"/>
<path id="Vector_35" d="M34.3281 19.7715L36.9167 20.5003" stroke="white" stroke-miterlimit="10"/>
<path id="Vector_36" d="M33.8711 21.3516L36.4596 22.0804" stroke="white" stroke-miterlimit="10"/>
<path id="Vector_37" d="M33.4141 22.9336L36.0026 23.6624" stroke="white" stroke-miterlimit="10"/>
<path id="Vector_38" d="M32.957 24.5137L35.5456 25.2425" stroke="white" stroke-miterlimit="10"/>
<path id="Vector_39" d="M32.5 26.0938L35.0886 26.8226" stroke="white" stroke-miterlimit="10"/>
<path id="Vector_40" d="M32.043 27.6758L34.6315 28.4046" stroke="white" stroke-miterlimit="10"/>
<path id="Vector_41" d="M31.5859 29.2559L34.1745 29.9847" stroke="white" stroke-miterlimit="10"/>
<path id="Vector_42" d="M31.1328 30.8359L33.7214 31.5648" stroke="white" stroke-miterlimit="10"/>
<path id="Vector_43" d="M30.6719 32.418L33.2604 33.1468" stroke="white" stroke-miterlimit="10"/>
<path id="Vector_44" d="M30.2188 33.998L32.8073 34.7269" stroke="white" stroke-miterlimit="10"/>
<path id="Vector_45" d="M29.7617 35.5781L32.3503 36.307" stroke="white" stroke-miterlimit="10"/>
<path id="Vector_46" d="M29.3047 37.1602L31.8932 37.889" stroke="white" stroke-miterlimit="10"/>
<path id="Vector_47" d="M28.8477 38.7402L31.4362 39.4691" stroke="white" stroke-miterlimit="10"/>
<path id="Vector_48" d="M28.3906 40.3203L30.9792 41.0491" stroke="white" stroke-miterlimit="10"/>
<path id="Vector_49" d="M27.9375 41.9023L30.5261 42.6312" stroke="white" stroke-miterlimit="10"/>
<path id="Vector_50" d="M27.4766 43.4824L30.0651 44.2113" stroke="white" stroke-miterlimit="10"/>
<path id="Vector_51" d="M27.0234 45.0625L29.612 45.7913" stroke="white" stroke-miterlimit="10"/>
<path id="Vector_52" d="M26.5664 46.6445L29.155 47.3734" stroke="white" stroke-miterlimit="10"/>
<path id="Vector_53" d="M26.1094 48.2246L28.6979 48.9534" stroke="white" stroke-miterlimit="10"/>
<path id="Vector_54" d="M25.6523 49.8047L28.2409 50.5335" stroke="white" stroke-miterlimit="10"/>
<path id="Vector_55" d="M25.1953 51.3867L27.7839 52.1155" stroke="white" stroke-miterlimit="10"/>
<path id="Vector_56" d="M24.7383 52.9668L27.3268 53.6956" stroke="white" stroke-miterlimit="10"/>
<path id="Vector_57" d="M23.3639 41.1231L23.5045 41.0098L25.3117 42.6234L0.581594 64.7842C0.581594 64.7842 -0.542542 56.6836 5.55422 50.759C10.7619 45.6984 13.1694 43.3685 18.0842 43.1073C20.0138 43.0048 21.8668 42.3295 23.3639 41.1231Z" fill="white"/>
<path id="Vector_58" d="M20.257 39.8339L20.2406 39.6554L17.8086 39.5098L19.0786 72.461C19.0786 72.461 25.7263 67.5859 25.7469 59.1395C25.7646 51.925 25.7657 48.5964 22.5157 44.9467C21.2397 43.5138 20.4317 41.7341 20.257 39.8339Z" fill="white"/>
<path id="Vector_59" d="M17.8086 39.5098L19.0786 72.461" stroke="#E30518" stroke-miterlimit="10"/>
<path id="Vector_60" d="M19.8054 46.3761C20.3689 46.3761 20.8256 45.9251 20.8256 45.3687C20.8256 44.8123 20.3689 44.3613 19.8054 44.3613C19.2419 44.3613 18.7852 44.8123 18.7852 45.3687C18.7852 45.9251 19.2419 46.3761 19.8054 46.3761Z" fill="#E40524"/>
<path id="Vector_61" d="M20.7075 21.9988C19.1219 17.6598 15.7951 16.8732 12.5034 19.6625C9.2118 22.4519 4.72463 30.1849 11.6218 34.4452C17.6986 38.1987 16.889 39.6026 16.889 39.6026L20.7467 39.8655C20.7467 39.8655 22.3353 26.4533 20.7075 21.9988ZM13.6004 31.529C11.394 30.6133 10.3573 28.1049 11.2846 25.9263C12.212 23.7478 14.7523 22.724 16.9588 23.6397C19.1651 24.5554 20.202 27.0637 19.2746 29.2423C18.3472 31.4209 15.8068 32.4447 13.6004 31.529Z" fill="#ED6FA7"/>
<path id="Vector_62" d="M22.8438 40.459L25.7214 43.2687C25.7214 43.2687 26.2551 41.7503 33.223 43.4106C41.1316 45.2949 43.5869 36.7187 43.3019 32.4449C43.0168 28.1712 40.1327 26.4026 35.8709 28.2924C31.5457 30.2103 22.8438 40.459 22.8438 40.459ZM31.6326 34.3716C32.56 32.193 35.1004 31.1693 37.3068 32.085C39.5132 33.0007 40.55 35.509 39.6226 37.6876C38.6952 39.8662 36.1549 40.89 33.9485 39.9743C31.7421 39.0586 30.7053 36.5502 31.6326 34.3716Z" fill="#ED6FA7"/>
<path id="Vector_63" d="M17.8945 55.4336H45.863V82.1401C45.863 89.761 39.5969 95.9482 31.8788 95.9482C24.1607 95.9482 17.8945 89.761 17.8945 82.1401V55.4336Z" fill="#C25528"/>
</g>
</g>
</g>
<defs>
<linearGradient id="paint0_linear_14858_11775" x1="62.0903" y1="67.7358" x2="134.877" y2="46.3626" gradientUnits="userSpaceOnUse">
<stop offset="0.335196" stop-color="#F7C400" stop-opacity="0"/>
<stop offset="0.381846" stop-color="#F7C400" stop-opacity="0.015793"/>
<stop offset="0.475551" stop-color="#F7C400" stop-opacity="0.125675"/>
<stop offset="0.569664" stop-color="#F7C400" stop-opacity="0.304636"/>
<stop offset="0.662069" stop-color="#F7C400" stop-opacity="0.508675"/>
<stop offset="0.752409" stop-color="#F7C400" stop-opacity="0.703071"/>
<stop offset="0.840103" stop-color="#F7C400" stop-opacity="0.861081"/>
<stop offset="0.923995" stop-color="#F7C400" stop-opacity="0.963818"/>
<stop offset="1" stop-color="#F7C400"/>
</linearGradient>
<linearGradient id="paint1_linear_14858_11775" x1="34.889" y1="56.2203" x2="44.9025" y2="59.1646" gradientUnits="userSpaceOnUse">
<stop stop-color="#0071B9" stop-opacity="0"/>
<stop offset="1" stop-color="#0071B9"/>
</linearGradient>
<clipPath id="clip0_14858_11775">
<rect x="0.5" width="220" height="96" rx="4" fill="white"/>
</clipPath>
</defs>
</svg>
