<svg width="16" height="18" viewBox="0 0 16 18" fill="none" xmlns="http://www.w3.org/2000/svg">
<path d="M1.28125 15.5C0.9375 15.5 0.643264 15.3776 0.398542 15.1327C0.153681 14.888 0.03125 14.5938 0.03125 14.25V1.75C0.03125 1.40625 0.153681 1.11194 0.398542 0.867083C0.643264 0.622361 0.9375 0.5 1.28125 0.5H11.7604L15.0313 3.77083V8.72917C14.8368 8.61806 14.6354 8.53819 14.4271 8.48958C14.2188 8.44097 14.0035 8.41667 13.7813 8.41667V4.33333L11.1979 1.75H1.28125V14.25H7.11458V15.5H1.28125ZM8.36458 17.1667V14.6042L12.9688 10.0208C13.0938 9.89583 13.2326 9.80556 13.3854 9.75C13.5382 9.69444 13.691 9.66667 13.8438 9.66667C14.0104 9.66667 14.1701 9.69792 14.3229 9.76042C14.4757 9.82292 14.6146 9.91667 14.7396 10.0417L15.5104 10.8125C15.6354 10.9375 15.7257 11.0764 15.7812 11.2292C15.8368 11.3819 15.8646 11.5347 15.8646 11.6875C15.8646 11.8403 15.8333 11.9965 15.7708 12.1562C15.7083 12.316 15.6152 12.4583 15.4915 12.5833L10.9271 17.1667H8.36458ZM9.61458 15.9167H10.4062L12.9271 13.375L12.5521 12.9792L12.1563 12.6042L9.61458 15.125V15.9167ZM12.5521 12.9792L12.1563 12.6042L12.9271 13.375L12.5521 12.9792ZM2.38542 5.83333H9.84375V2.85417H2.38542V5.83333ZM7.53125 12.8958C7.72569 12.8958 7.9132 12.875 8.09375 12.8333C8.27431 12.7917 8.44097 12.7222 8.59375 12.625L9.40625 11.7917C9.50347 11.6389 9.57639 11.4722 9.625 11.2917C9.67361 11.1111 9.69792 10.9236 9.69792 10.7292C9.69792 10.1274 9.48778 9.61576 9.0675 9.19437C8.64708 8.77312 8.13667 8.5625 7.53625 8.5625C6.93569 8.5625 6.42361 8.77264 6 9.19292C5.57639 9.61333 5.36458 10.1237 5.36458 10.7242C5.36458 11.3247 5.57521 11.8368 5.99646 12.2604C6.41785 12.684 6.92944 12.8958 7.53125 12.8958Z" fill="white"/>
</svg>
