<svg width="33" height="32" viewBox="0 0 33 32" fill="none" xmlns="http://www.w3.org/2000/svg">
<g id="search">
<mask id="mask0_15743_9775" style="mask-type:alpha" maskUnits="userSpaceOnUse" x="0" y="0" width="33" height="32">
<rect id="Bounding box" x="0.5" width="32" height="32" fill="#D9D9D9"/>
</mask>
<g mask="url(#mask0_15743_9775)">
<path id="search_2" d="M27.0333 27.9688L18.2667 19.2021C17.6 19.7799 16.8227 20.2299 15.9347 20.5521C15.0467 20.8743 14.1018 21.0354 13.1 21.0354C10.6964 21.0354 8.66222 20.2021 6.99733 18.5354C5.33244 16.8688 4.5 14.8576 4.5 12.5021C4.5 10.1465 5.33333 8.13542 7 6.46875C8.66667 4.80208 10.6833 3.96875 13.05 3.96875C15.4167 3.96875 17.4278 4.80208 19.0833 6.46875C20.7389 8.13542 21.5667 10.1482 21.5667 12.5071C21.5667 13.4593 21.4111 14.3799 21.1 15.2688C20.7889 16.1576 20.3222 16.991 19.7 17.7688L28.5 26.5021L27.0333 27.9688ZM13.0667 19.0354C14.8722 19.0354 16.407 18.3965 17.671 17.1188C18.9348 15.841 19.5667 14.3021 19.5667 12.5021C19.5667 10.7021 18.9348 9.16319 17.671 7.88542C16.407 6.60764 14.8722 5.96875 13.0667 5.96875C11.2427 5.96875 9.69222 6.60764 8.41533 7.88542C7.13844 9.16319 6.5 10.7021 6.5 12.5021C6.5 14.3021 7.13844 15.841 8.41533 17.1188C9.69222 18.3965 11.2427 19.0354 13.0667 19.0354Z" fill="#1C1B1F"/>
</g>
</g>
</svg>
