<svg width="20" height="20" viewBox="0 0 20 20" fill="none" xmlns="http://www.w3.org/2000/svg">
<mask id="mask0_16722_10266" style="mask-type:alpha" maskUnits="userSpaceOnUse" x="0" y="0" width="20" height="20">
<rect width="20" height="20" fill="#D9D9D9"/>
</mask>
<g mask="url(#mask0_16722_10266)">
<path d="M17.3134 17.4785L11.8192 11.9993C11.4014 12.3605 10.9142 12.6417 10.3577 12.8431C9.80118 13.0445 9.209 13.1452 8.58117 13.1452C7.07482 13.1452 5.79994 12.6243 4.75653 11.5827C3.71311 10.541 3.19141 9.28407 3.19141 7.81185C3.19141 6.33963 3.71367 5.08268 4.7582 4.04102C5.80273 2.99935 7.06661 2.47852 8.54984 2.47852C10.0331 2.47852 11.2935 2.99935 12.331 4.04102C13.3686 5.08268 13.8874 6.34067 13.8874 7.81497C13.8874 8.41011 13.7899 8.98546 13.5949 9.54102C13.3999 10.0966 13.1075 10.6174 12.7175 11.1035L18.2326 16.5618L17.3134 17.4785ZM8.56028 11.8952C9.69185 11.8952 10.6537 11.4959 11.4459 10.6973C12.2379 9.89865 12.6339 8.93685 12.6339 7.81185C12.6339 6.68685 12.2379 5.72504 11.4459 4.92643C10.6537 4.12782 9.69185 3.72852 8.56028 3.72852C7.41715 3.72852 6.44546 4.12782 5.64521 4.92643C4.84496 5.72504 4.44484 6.68685 4.44484 7.81185C4.44484 8.93685 4.84496 9.89865 5.64521 10.6973C6.44546 11.4959 7.41715 11.8952 8.56028 11.8952Z" fill="white"/>
</g>
</svg>
