<svg width="20" height="20" viewBox="0 0 20 20" fill="none" xmlns="http://www.w3.org/2000/svg">
<path d="M3.54902 15.625C4.59902 14.8917 5.64069 14.3292 6.67402 13.9375C7.70736 13.5458 8.81569 13.35 9.99902 13.35C11.1824 13.35 12.2949 13.5458 13.3365 13.9375C14.3782 14.3292 15.424 14.8917 16.474 15.625C17.2074 14.725 17.7282 13.8167 18.0365 12.9C18.3449 11.9833 18.499 11.0167 18.499 10C18.499 7.58333 17.6865 5.5625 16.0615 3.9375C14.4365 2.3125 12.4157 1.5 9.99902 1.5C7.58236 1.5 5.56152 2.3125 3.93652 3.9375C2.31152 5.5625 1.49902 7.58333 1.49902 10C1.49902 11.0167 1.65736 11.9833 1.97402 12.9C2.29069 13.8167 2.81569 14.725 3.54902 15.625ZM9.99427 10.75C9.03077 10.75 8.21986 10.4193 7.56152 9.75775C6.90319 9.09642 6.57402 8.28392 6.57402 7.32025C6.57402 6.35675 6.90477 5.54583 7.56627 4.8875C8.22761 4.22917 9.04011 3.9 10.0038 3.9C10.9673 3.9 11.7782 4.23075 12.4365 4.89225C13.0949 5.55358 13.424 6.36608 13.424 7.32975C13.424 8.29325 13.0933 9.10417 12.4318 9.7625C11.7704 10.4208 10.9579 10.75 9.99427 10.75ZM10.0108 20C8.63627 20 7.34069 19.7375 6.12402 19.2125C4.90736 18.6875 3.84486 17.9708 2.93652 17.0625C2.02819 16.1542 1.31152 15.0936 0.786523 13.8807C0.261523 12.6681 -0.000976562 11.3723 -0.000976562 9.99325C-0.000976562 8.61442 0.261523 7.32083 0.786523 6.1125C1.31152 4.90417 2.02819 3.84583 2.93652 2.9375C3.84486 2.02917 4.90544 1.3125 6.11827 0.7875C7.33094 0.2625 8.62677 0 10.0058 0C11.3846 0 12.6782 0.2625 13.8865 0.7875C15.0949 1.3125 16.1532 2.02917 17.0615 2.9375C17.9699 3.84583 18.6865 4.90442 19.2115 6.11325C19.7365 7.32208 19.999 8.61375 19.999 9.98825C19.999 11.3628 19.7365 12.6583 19.2115 13.875C18.6865 15.0917 17.9699 16.1542 17.0615 17.0625C16.1532 17.9708 15.0946 18.6875 13.8858 19.2125C12.6769 19.7375 11.3853 20 10.0108 20ZM9.99902 18.5C10.9157 18.5 11.8115 18.3667 12.6865 18.1C13.5615 17.8333 14.424 17.3667 15.274 16.7C14.424 16.1 13.5574 15.6417 12.674 15.325C11.7907 15.0083 10.899 14.85 9.99902 14.85C9.09902 14.85 8.20736 15.0083 7.32402 15.325C6.44069 15.6417 5.57402 16.1 4.72402 16.7C5.57402 17.3667 6.43652 17.8333 7.31152 18.1C8.18652 18.3667 9.08236 18.5 9.99902 18.5ZM9.99902 9.25C10.5657 9.25 11.0282 9.07083 11.3865 8.7125C11.7449 8.35417 11.924 7.89167 11.924 7.325C11.924 6.75833 11.7449 6.29583 11.3865 5.9375C11.0282 5.57917 10.5657 5.4 9.99902 5.4C9.43236 5.4 8.96986 5.57917 8.61152 5.9375C8.25319 6.29583 8.07402 6.75833 8.07402 7.325C8.07402 7.89167 8.25319 8.35417 8.61152 8.7125C8.96986 9.07083 9.43236 9.25 9.99902 9.25Z" fill="white"/>
</svg>
