<svg width="42" height="48" viewBox="0 0 42 48" fill="none" xmlns="http://www.w3.org/2000/svg">
<g id="supervised_user_circle">
<mask id="mask0_15048_9918" style="mask-type:alpha" maskUnits="userSpaceOnUse" x="0" y="0" width="42" height="48">
<rect id="Bounding box" width="42" height="48" fill="#D9D9D9"/>
</mask>
<g mask="url(#mask0_15048_9918)">
<path id="supervised_user_circle_2" d="M17.1 40.8C18.7 37.8333 20.7417 35.8083 23.225 34.725C25.7083 33.6417 27.8667 33.1 29.7 33.1C30.4667 33.1 31.175 33.1583 31.825 33.275C32.475 33.3917 33.15 33.55 33.85 33.75C34.7167 32.5167 35.4583 31.048 36.075 29.344C36.6917 27.64 37 25.8587 37 24C37 19.254 35.3532 15.2342 32.0595 11.9405C28.7658 8.64683 24.746 7 20 7C15.2543 7 11.2345 8.64683 7.9405 11.9405C4.64683 15.2342 3 19.254 3 24C3 25.7 3.25 27.3417 3.75 28.925C4.25 30.5083 4.93333 31.9333 5.8 33.2C7.16667 32.4667 8.59167 31.9167 10.075 31.55C11.5583 31.1833 13.0833 31 14.65 31C15.6167 31 16.5583 31.0667 17.475 31.2C18.3917 31.3333 19.2333 31.5667 20 31.9C19.5 32.2333 19 32.5917 18.5 32.975C18 33.3583 17.55 33.7333 17.15 34.1C16.6833 34.0333 16.2417 34 15.825 34H14.673C13.4243 34 12.2 34.1333 11 34.4C9.8 34.6667 8.65 35.0833 7.55 35.65C8.81667 36.9833 10.275 38.1083 11.925 39.025C13.575 39.9417 15.3 40.5333 17.1 40.8ZM20.0235 44C17.2745 44 14.6833 43.475 12.25 42.425C9.81667 41.375 7.69167 39.9417 5.875 38.125C4.05833 36.3083 2.625 34.1872 1.575 31.7615C0.525 29.3362 0 26.7445 0 23.9865C0 21.2288 0.525 18.6417 1.575 16.225C2.625 13.8083 4.05833 11.6917 5.875 9.875C7.69167 8.05833 9.81283 6.625 12.2385 5.575C14.6638 4.525 17.2555 4 20.0135 4C22.7712 4 25.3583 4.525 27.775 5.575C30.1917 6.625 32.3083 8.05833 34.125 9.875C35.9417 11.6917 37.375 13.8088 38.425 16.2265C39.475 18.6442 40 21.2275 40 23.9765C40 26.7255 39.475 29.3167 38.425 31.75C37.375 34.1833 35.9417 36.3083 34.125 38.125C32.3083 39.9417 30.1912 41.375 27.7735 42.425C25.3558 43.475 22.7725 44 20.0235 44ZM14.656 27C12.752 27 11.125 26.327 9.775 24.981C8.425 23.635 7.75 22.01 7.75 20.106C7.75 18.202 8.423 16.575 9.769 15.225C11.115 13.875 12.74 13.2 14.644 13.2C16.548 13.2 18.175 13.873 19.525 15.219C20.875 16.565 21.55 18.19 21.55 20.094C21.55 21.998 20.877 23.625 19.531 24.975C18.185 26.325 16.56 27 14.656 27ZM14.65 24C15.7333 24 16.6542 23.6208 17.4125 22.8625C18.1708 22.1042 18.55 21.1833 18.55 20.1C18.55 19.0167 18.1708 18.0958 17.4125 17.3375C16.6542 16.5792 15.7333 16.2 14.65 16.2C13.5667 16.2 12.6458 16.5792 11.8875 17.3375C11.1292 18.0958 10.75 19.0167 10.75 20.1C10.75 21.1833 11.1292 22.1042 11.8875 22.8625C12.6458 23.6208 13.5667 24 14.65 24ZM29.7 29.3C28.2333 29.3 26.9833 28.7833 25.95 27.75C24.9167 26.7167 24.4 25.4667 24.4 24C24.4 22.5333 24.9167 21.2833 25.95 20.25C26.9833 19.2167 28.2333 18.7 29.7 18.7C31.1667 18.7 32.4167 19.2167 33.45 20.25C34.4833 21.2833 35 22.5333 35 24C35 25.4667 34.4833 26.7167 33.45 27.75C32.4167 28.7833 31.1667 29.3 29.7 29.3Z" fill="white"/>
</g>
</g>
</svg>
