<svg width="40" height="40" viewBox="0 0 40 40" fill="none" xmlns="http://www.w3.org/2000/svg">
<path d="M17.1 36.8C18.7 33.8333 20.7417 31.8083 23.225 30.725C25.7083 29.6417 27.8667 29.1 29.7 29.1C30.4667 29.1 31.175 29.1583 31.825 29.275C32.475 29.3917 33.15 29.55 33.85 29.75C34.7167 28.5167 35.4583 27.048 36.075 25.344C36.6917 23.64 37 21.8587 37 20C37 15.254 35.3532 11.2342 32.0595 7.9405C28.7658 4.64683 24.746 3 20 3C15.2543 3 11.2345 4.64683 7.9405 7.9405C4.64683 11.2342 3 15.254 3 20C3 21.7 3.25 23.3417 3.75 24.925C4.25 26.5083 4.93333 27.9333 5.8 29.2C7.16667 28.4667 8.59167 27.9167 10.075 27.55C11.5583 27.1833 13.0833 27 14.65 27C15.6167 27 16.5583 27.0667 17.475 27.2C18.3917 27.3333 19.2333 27.5667 20 27.9C19.5 28.2333 19 28.5917 18.5 28.975C18 29.3583 17.55 29.7333 17.15 30.1C16.6833 30.0333 16.2417 30 15.825 30H14.673C13.4243 30 12.2 30.1333 11 30.4C9.8 30.6667 8.65 31.0833 7.55 31.65C8.81667 32.9833 10.275 34.1083 11.925 35.025C13.575 35.9417 15.3 36.5333 17.1 36.8ZM20.0235 40C17.2745 40 14.6833 39.475 12.25 38.425C9.81667 37.375 7.69167 35.9417 5.875 34.125C4.05833 32.3083 2.625 30.1872 1.575 27.7615C0.525 25.3362 0 22.7445 0 19.9865C0 17.2288 0.525 14.6417 1.575 12.225C2.625 9.80833 4.05833 7.69167 5.875 5.875C7.69167 4.05833 9.81283 2.625 12.2385 1.575C14.6638 0.525 17.2555 0 20.0135 0C22.7712 0 25.3583 0.525 27.775 1.575C30.1917 2.625 32.3083 4.05833 34.125 5.875C35.9417 7.69167 37.375 9.80884 38.425 12.2265C39.475 14.6442 40 17.2275 40 19.9765C40 22.7255 39.475 25.3167 38.425 27.75C37.375 30.1833 35.9417 32.3083 34.125 34.125C32.3083 35.9417 30.1912 37.375 27.7735 38.425C25.3558 39.475 22.7725 40 20.0235 40ZM14.656 23C12.752 23 11.125 22.327 9.775 20.981C8.425 19.635 7.75 18.01 7.75 16.106C7.75 14.202 8.423 12.575 9.769 11.225C11.115 9.875 12.74 9.2 14.644 9.2C16.548 9.2 18.175 9.873 19.525 11.219C20.875 12.565 21.55 14.19 21.55 16.094C21.55 17.998 20.877 19.625 19.531 20.975C18.185 22.325 16.56 23 14.656 23ZM14.65 20C15.7333 20 16.6542 19.6208 17.4125 18.8625C18.1708 18.1042 18.55 17.1833 18.55 16.1C18.55 15.0167 18.1708 14.0958 17.4125 13.3375C16.6542 12.5792 15.7333 12.2 14.65 12.2C13.5667 12.2 12.6458 12.5792 11.8875 13.3375C11.1292 14.0958 10.75 15.0167 10.75 16.1C10.75 17.1833 11.1292 18.1042 11.8875 18.8625C12.6458 19.6208 13.5667 20 14.65 20ZM29.7 25.3C28.2333 25.3 26.9833 24.7833 25.95 23.75C24.9167 22.7167 24.4 21.4667 24.4 20C24.4 18.5333 24.9167 17.2833 25.95 16.25C26.9833 15.2167 28.2333 14.7 29.7 14.7C31.1667 14.7 32.4167 15.2167 33.45 16.25C34.4833 17.2833 35 18.5333 35 20C35 21.4667 34.4833 22.7167 33.45 23.75C32.4167 24.7833 31.1667 25.3 29.7 25.3Z" fill="#053749"/>
</svg>
