<svg width="289" height="195" viewBox="0 0 289 195" fill="none" xmlns="http://www.w3.org/2000/svg">
<path d="M289 33.3142C289 28.9771 289 24.6399 289 20.1714C288.626 20.1714 288.252 20.1714 287.867 20.1714C287.867 20.0763 287.868 19.9813 287.869 19.8833C287.874 18.9809 287.878 18.0784 287.88 17.1759C287.882 16.712 287.884 16.2482 287.887 15.7844C287.889 15.3355 287.891 14.8867 287.892 14.4378C287.892 14.2678 287.893 14.0979 287.895 13.9279C287.906 12.53 287.789 11.1736 287.371 9.82773C287.349 9.75511 287.327 9.68251 287.304 9.60771C286.733 7.81778 285.772 6.23639 284.467 4.8521C284.401 4.77742 284.335 4.70274 284.266 4.62581C283.8 4.10631 283.291 3.67685 282.724 3.26157C282.634 3.19434 282.543 3.12711 282.45 3.05785C281.002 2.00752 279.372 1.31648 277.63 0.854843C277.539 0.829864 277.539 0.829864 277.445 0.804382C276.137 0.476837 274.79 0.474792 273.448 0.477996C273.263 0.477828 273.077 0.477554 272.891 0.477248C272.38 0.476592 271.87 0.476974 271.36 0.477523C270.802 0.47795 270.245 0.477386 269.687 0.476958C268.707 0.476302 267.726 0.476317 266.745 0.476729C265.688 0.477172 264.63 0.477248 263.573 0.476882C263.506 0.476851 263.438 0.476836 263.369 0.476821C263.027 0.476699 262.684 0.476546 262.341 0.476424C259.839 0.475508 257.337 0.475401 254.835 0.475737C252.299 0.476057 249.763 0.476027 247.227 0.475554C247.147 0.475538 247.067 0.475523 246.985 0.475508C246.252 0.47537 245.519 0.475218 244.786 0.475081C242.948 0.474714 241.11 0.474394 239.272 0.474134C239.188 0.474119 239.103 0.474134 239.017 0.474119C234.864 0.473524 230.712 0.473585 226.56 0.473706C226.425 0.473706 226.425 0.473706 226.287 0.473706C225.923 0.473722 225.559 0.473737 225.194 0.473752C224.188 0.473783 223.181 0.473798 222.175 0.473828C222.084 0.473828 221.993 0.473828 221.899 0.473828C217.781 0.47395 213.662 0.473736 209.543 0.473446C208.992 0.473401 208.441 0.47337 207.89 0.473339C207.799 0.473324 207.708 0.473324 207.614 0.473324C207.43 0.473309 207.246 0.473294 207.062 0.473278C206.601 0.473248 206.14 0.473233 205.679 0.473187C205.588 0.473187 205.496 0.473187 205.402 0.473171C204.94 0.473141 204.478 0.47311 204.015 0.473065C199.701 0.472775 195.388 0.47253 191.074 0.472362C190.98 0.472347 190.886 0.472332 190.789 0.472332C184.799 0.472087 178.81 0.472087 172.82 0.4723C172.526 0.4723 172.231 0.472331 171.937 0.472331C169.769 0.472407 167.601 0.472483 165.433 0.472559C165.235 0.472559 165.037 0.472575 164.84 0.472575C164.642 0.47259 164.444 0.47259 164.246 0.472605C164.148 0.472605 164.05 0.47262 163.949 0.47262C163.454 0.472636 162.96 0.472636 162.465 0.472666C153.117 0.473001 143.77 0.473108 134.423 0.47207C134.324 0.472055 134.226 0.472039 134.124 0.472024C131.148 0.471688 128.172 0.471337 125.196 0.470956C121.942 0.470559 118.688 0.470162 115.433 0.46978C115.336 0.469765 115.239 0.46975 115.139 0.469734C109.055 0.469017 102.971 0.468605 96.8864 0.468528C96.7454 0.468528 96.7454 0.468528 96.6016 0.468528C92.475 0.468482 88.3484 0.468513 84.2218 0.468604C82.6536 0.46865 81.0853 0.46868 79.5171 0.468711C79.1499 0.468726 78.7828 0.468726 78.4157 0.468726C74.2053 0.468817 69.9949 0.468741 65.7845 0.4681C65.6937 0.468084 65.6029 0.468069 65.5094 0.468054C64.0487 0.46784 62.5881 0.467596 61.1274 0.467367C56.9811 0.466695 52.8347 0.466161 48.6883 0.466527C48.6042 0.466527 48.5201 0.466542 48.4334 0.466542C46.5979 0.46671 44.7624 0.466954 42.927 0.467259C42.1949 0.467381 41.4629 0.467503 40.7309 0.46761C40.651 0.467626 40.5711 0.46761 40.4889 0.467626C37.9564 0.468007 35.4238 0.467641 32.8913 0.466816C30.3974 0.465992 27.9036 0.465931 25.4097 0.466999C25.068 0.467137 24.7263 0.467274 24.3845 0.467396C24.3176 0.467426 24.2507 0.467457 24.1818 0.467487C23.128 0.467869 22.0741 0.467411 21.0203 0.466602C19.9887 0.465824 18.957 0.465961 17.9254 0.467014C17.3764 0.467548 16.8274 0.467701 16.2785 0.466724C15.7797 0.465854 15.2809 0.466144 14.7821 0.467334C14.6039 0.467563 14.4257 0.46738 14.2475 0.466709C12.6459 0.461109 11.0711 0.586887 9.54658 1.08504C9.48347 1.10533 9.42039 1.12561 9.35536 1.14652C7.31834 1.80794 5.59638 2.82117 4.05515 4.2661C3.95536 4.35414 3.95536 4.35414 3.85359 4.44399C1.47337 6.59928 0.189797 9.85385 0.0293965 12.9485C0.0233846 13.2623 0.0223164 13.5756 0.0234761 13.8895C0.023293 14.01 0.0230183 14.1305 0.0226521 14.251C0.0219502 14.5799 0.0223164 14.9088 0.0228657 15.2378C0.0232624 15.5978 0.022652 15.9578 0.0221637 16.3178C0.0214618 16.9505 0.0214007 17.5832 0.0217669 18.2159C0.0223162 19.163 0.0218584 20.1101 0.021187 21.0573C0.0201188 22.6717 0.019844 24.286 0.0200576 25.9004C0.0202406 27.5363 0.0200574 29.1723 0.0194165 30.8082C0.019386 30.9115 0.0193555 31.0149 0.0192944 31.1214C0.0191418 31.5423 0.0189587 31.9632 0.0188061 32.3841C0.0170359 36.7158 0.0165169 41.0475 0.0163946 45.3793C0.0163946 45.8516 0.016364 46.324 0.016364 46.7963C0.016364 46.9147 0.016364 47.0331 0.016364 47.1515C0.0163029 49.8095 0.015906 52.4675 0.0154786 55.1255C0.0153565 55.7188 0.015265 56.3122 0.0151734 56.9055C0.0151429 56.9939 0.0151429 56.9939 0.0151429 57.084C0.0150818 57.4415 0.0150208 57.7991 0.0149597 58.1566C0.0149292 58.3357 0.0148987 58.5148 0.0148681 58.6939C0.0144102 61.4786 0.0140134 64.2633 0.0137081 67.048C0.0137081 67.1087 0.0136776 67.1694 0.0136776 67.2319C0.0132501 71.0978 0.0130974 74.9638 0.0131277 78.8297C0.0131277 79.0198 0.0131277 79.2099 0.0131277 79.4C0.0131276 80.7353 0.0131581 82.0707 0.0131886 83.4061C0.0131885 83.7889 0.013219 84.1718 0.013219 84.5547C0.013219 84.874 0.013219 85.1934 0.013219 85.5128C0.0133103 91.5446 0.0130659 97.5764 0.0114176 103.608C0.0114176 103.672 0.0113871 103.735 0.0113566 103.801C0.0108072 105.785 0.0102273 107.769 0.00964734 109.753C0.0090369 111.789 0.00842645 113.825 0.00784653 115.86C0.00781601 115.955 0.00781601 115.955 0.00778548 116.05C0.00668668 119.977 0.00601511 123.904 0.0057708 127.831C0.00577079 127.922 0.00577079 127.922 0.00577079 128.014C0.00561808 130.678 0.00555693 133.342 0.00561784 136.006C0.00564831 137.078 0.00561775 138.15 0.00564822 139.222C0.00564821 139.399 0.0056482 139.577 0.00564819 139.755C0.00567859 142.472 0.00543433 145.189 0.00442712 147.906C0.0043966 147.965 0.00436608 148.023 0.00436608 148.084C0.00399983 149.026 0.00363357 149.968 0.0032368 150.91C0.00171075 154.772 0.00128333 158.634 0.00244283 162.496C0.00259539 163.022 0.00274796 163.548 0.00290052 164.074C0.00293103 164.177 0.00293103 164.28 0.00296154 164.386C0.00338872 166.017 0.0026257 167.648 0.00137441 169.279C0.000184152 170.884 0.000214597 172.488 0.00158782 174.092C0.00235071 175.033 0.00216757 175.973 0.00058061 176.913C-0.00039598 177.538 -9.08327e-05 178.163 0.0012214 178.788C0.0019538 179.142 0.00213689 179.496 0.000733066 179.85C-0.0108943 183.042 0.510163 186.036 2.48615 188.684C2.52139 188.731 2.55661 188.778 2.5929 188.827C4.73471 191.657 7.85626 193.409 11.4036 194.076C12.0677 194.176 12.7245 194.221 13.3963 194.219C13.4722 194.219 13.5482 194.219 13.6265 194.219C13.8803 194.22 14.1341 194.219 14.388 194.219C14.5732 194.219 14.7583 194.219 14.9435 194.22C15.4544 194.22 15.9653 194.22 16.4763 194.22C17.0334 194.219 17.5905 194.22 18.1477 194.22C19.1286 194.22 20.1095 194.221 21.0905 194.22C22.1487 194.22 23.2069 194.22 24.2652 194.221C24.3323 194.221 24.3994 194.221 24.4685 194.221C24.811 194.221 25.1534 194.221 25.4959 194.221C27.9984 194.222 30.5009 194.222 33.0034 194.222C35.5404 194.222 38.0774 194.222 40.6144 194.223C40.7761 194.223 40.9378 194.223 41.0995 194.223C41.7514 194.223 42.4034 194.223 43.0553 194.223C50.2276 194.224 57.4 194.225 64.5724 194.225C64.6631 194.225 64.7538 194.225 64.8473 194.225C65.3062 194.225 65.7652 194.225 66.2241 194.225C70.0687 194.225 73.9133 194.226 77.7579 194.226C79.599 194.226 81.44 194.226 83.2811 194.227C83.3727 194.227 83.4642 194.227 83.5586 194.227C87.9654 194.227 92.3723 194.227 96.7791 194.228C96.8731 194.228 96.9671 194.228 97.064 194.228C103.055 194.228 109.046 194.228 115.037 194.228C115.529 194.228 116.02 194.228 116.511 194.228C117.299 194.228 118.086 194.228 118.874 194.228C118.971 194.228 119.069 194.228 119.169 194.228C119.367 194.228 119.564 194.228 119.761 194.228C121.145 194.229 122.528 194.229 123.912 194.229C124.407 194.229 124.902 194.229 125.397 194.229C134.747 194.229 144.098 194.229 153.448 194.231C153.547 194.231 153.645 194.231 153.747 194.231C156.822 194.231 159.898 194.232 162.973 194.232C166.129 194.233 169.285 194.233 172.44 194.233C172.537 194.233 172.635 194.234 172.735 194.234C178.82 194.234 184.905 194.235 190.99 194.235C191.084 194.235 191.178 194.235 191.275 194.235C195.402 194.235 199.53 194.236 203.657 194.236C205.318 194.236 206.978 194.236 208.639 194.236C208.914 194.236 209.189 194.236 209.465 194.236C213.676 194.236 217.888 194.236 222.099 194.237C222.19 194.237 222.281 194.237 222.374 194.237C223.835 194.237 225.296 194.237 226.757 194.238C230.905 194.239 235.052 194.239 239.2 194.239C239.284 194.239 239.368 194.239 239.455 194.239C241.291 194.239 243.127 194.239 244.963 194.239C245.696 194.239 246.428 194.239 247.16 194.238C247.24 194.238 247.32 194.238 247.403 194.238C249.936 194.238 252.469 194.239 255.003 194.24C257.497 194.241 259.992 194.241 262.487 194.24C262.829 194.24 263.171 194.24 263.513 194.24C263.579 194.24 263.646 194.239 263.715 194.239C264.769 194.239 265.824 194.24 266.878 194.241C267.91 194.241 268.942 194.241 269.974 194.24C270.523 194.24 271.072 194.24 271.621 194.241C272.12 194.242 272.619 194.241 273.119 194.24C273.297 194.24 273.475 194.24 273.653 194.241C276.12 194.25 278.324 193.826 280.545 192.785C280.633 192.744 280.722 192.703 280.813 192.661C283.913 191.122 286.238 188.307 287.292 185.14C287.716 183.823 287.881 182.548 287.878 181.168C287.878 181.064 287.878 180.959 287.878 180.851C287.878 180.562 287.878 180.272 287.878 179.983C287.877 179.666 287.878 179.35 287.878 179.033C287.878 178.477 287.878 177.92 287.878 177.364C287.877 176.531 287.877 175.698 287.878 174.865C287.878 173.445 287.878 172.025 287.877 170.605C287.877 169.166 287.877 167.727 287.877 166.288C287.877 166.197 287.877 166.106 287.877 166.013C287.877 165.549 287.877 165.086 287.877 164.623C287.877 161.269 287.877 157.914 287.876 154.56C287.876 151.238 287.875 147.916 287.875 144.595C287.875 144.491 287.875 144.388 287.875 144.282C287.875 143.34 287.875 142.398 287.875 141.456C287.875 139.114 287.875 136.772 287.875 134.43C287.875 134.323 287.875 134.217 287.875 134.107C287.875 128.975 287.874 123.842 287.873 118.71C287.873 116.853 287.873 114.996 287.873 113.139C287.873 113.083 287.873 113.028 287.873 112.97C287.872 107.666 287.872 102.363 287.872 97.0591C287.872 96.8344 287.872 96.6098 287.872 96.3851C287.871 94.0958 287.871 91.8065 287.871 89.5172C287.871 85.0736 287.871 80.6301 287.871 76.1866C287.871 75.975 287.871 75.7634 287.871 75.5517C287.87 66.0246 287.869 56.4974 287.868 46.9703C287.868 46.8811 287.868 46.7918 287.868 46.6999C287.868 42.238 287.867 37.7761 287.867 33.3142C288.241 33.3142 288.615 33.3142 289 33.3142ZM282.463 188.851C282.369 188.949 282.369 188.949 282.274 189.048C280.468 190.887 277.618 192.056 274.999 192.131C274.522 192.139 274.045 192.138 273.567 192.137C273.381 192.137 273.196 192.138 273.01 192.138C272.499 192.139 271.988 192.138 271.477 192.138C270.919 192.138 270.362 192.138 269.804 192.139C268.822 192.14 267.841 192.14 266.86 192.139C265.801 192.139 264.743 192.139 263.684 192.14C263.617 192.14 263.55 192.14 263.481 192.14C263.138 192.14 262.795 192.14 262.452 192.141C259.948 192.142 257.444 192.142 254.94 192.142C252.402 192.143 249.864 192.143 247.326 192.144C247.164 192.144 247.002 192.144 246.84 192.144C246.188 192.144 245.535 192.144 244.883 192.145C237.707 192.147 230.53 192.148 223.354 192.149C223.263 192.149 223.172 192.149 223.079 192.149C222.62 192.149 222.161 192.149 221.701 192.149C217.854 192.15 214.007 192.15 210.16 192.151C208.318 192.151 206.475 192.152 204.633 192.152C204.541 192.152 204.45 192.152 204.355 192.152C199.945 192.153 195.535 192.153 191.125 192.154C191.031 192.154 190.937 192.154 190.84 192.154C184.844 192.155 178.849 192.155 172.854 192.155C172.362 192.155 171.871 192.156 171.379 192.156C170.591 192.156 169.803 192.156 169.015 192.156C168.918 192.156 168.82 192.156 168.719 192.156C168.522 192.156 168.325 192.156 168.127 192.156C166.743 192.156 165.359 192.156 163.974 192.156C163.479 192.156 162.983 192.156 162.488 192.156C153.132 192.156 143.776 192.157 134.421 192.16C134.322 192.16 134.224 192.16 134.122 192.16C131.045 192.161 127.968 192.162 124.89 192.163C121.733 192.164 118.575 192.165 115.418 192.166C115.321 192.166 115.223 192.166 115.123 192.166C109.034 192.167 102.945 192.169 96.8555 192.169C96.7614 192.169 96.6673 192.169 96.5704 192.169C92.4398 192.169 88.3091 192.17 84.1785 192.17C82.5167 192.17 80.8549 192.17 79.1931 192.17C78.9176 192.17 78.6421 192.17 78.3665 192.17C74.1526 192.17 69.9386 192.17 65.7246 192.172C65.6338 192.172 65.5429 192.172 65.4493 192.172C63.9877 192.173 62.5262 192.173 61.0647 192.174C56.9149 192.176 52.7652 192.177 48.6155 192.177C48.5313 192.177 48.4471 192.177 48.3603 192.177C46.5226 192.177 44.6849 192.176 42.8472 192.176C42.1142 192.176 41.3813 192.176 40.6483 192.176C40.5683 192.176 40.4884 192.176 40.406 192.176C37.8717 192.175 35.3373 192.176 32.803 192.178C30.3067 192.18 27.8103 192.18 25.314 192.178C24.9716 192.178 24.6293 192.178 24.287 192.178C24.22 192.178 24.153 192.178 24.0839 192.178C23.0297 192.177 21.9755 192.178 20.9213 192.18C19.8884 192.181 18.8554 192.181 17.8225 192.179C17.2733 192.178 16.724 192.178 16.1747 192.18C12.3675 192.201 12.3675 192.201 8.76209 191.111C8.70828 191.086 8.65448 191.062 8.59903 191.036C5.86514 189.76 3.76086 187.449 2.76401 184.697C2.36832 183.485 2.21137 182.332 2.21353 181.069C2.21341 180.949 2.21329 180.83 2.2131 180.71C2.21271 180.38 2.21286 180.051 2.2131 179.721C2.21326 179.362 2.21292 179.002 2.21265 178.642C2.21225 178.009 2.21216 177.377 2.21228 176.744C2.21246 175.796 2.21216 174.848 2.21173 173.901C2.21106 172.286 2.21079 170.671 2.21073 169.056C2.21069 167.419 2.21048 165.782 2.21002 164.145C2.20996 163.99 2.20996 163.99 2.20993 163.832C2.20981 163.412 2.20969 162.991 2.20957 162.57C2.20825 157.942 2.20767 153.313 2.20728 148.685C2.20728 148.597 2.20725 148.597 2.20725 148.508C2.20722 148.212 2.20722 147.915 2.20719 147.619C2.20697 145.138 2.20667 142.657 2.2063 140.176C2.20615 138.988 2.206 137.799 2.20581 136.611C2.20581 136.552 2.20581 136.493 2.20581 136.432C2.20542 133.588 2.20508 130.744 2.20478 127.9C2.20478 127.839 2.20478 127.778 2.20478 127.716C2.20435 123.849 2.2041 119.982 2.20395 116.116C2.20395 115.799 2.20395 115.482 2.20392 115.165C2.20392 114.656 2.20389 114.148 2.20386 113.64C2.20386 113.577 2.20386 113.514 2.20386 113.449C2.20386 113.322 2.20386 113.194 2.20386 113.067C2.2038 112.174 2.20377 111.281 2.20374 110.388C2.20374 110.069 2.20371 109.749 2.20371 109.43C2.20346 103.396 2.20301 97.3618 2.2016 91.3278C2.2016 91.2643 2.20157 91.2007 2.20157 91.1353C2.20112 89.1507 2.20063 87.1662 2.20014 85.1816C2.19965 83.1453 2.19916 81.109 2.19867 79.0727C2.19867 79.01 2.19861 78.9473 2.19861 78.8827C2.1977 74.9556 2.19712 71.0285 2.19684 67.1014C2.19684 67.0407 2.19684 66.9801 2.19681 66.9176C2.19666 64.2535 2.19657 61.5895 2.19654 58.9254C2.19651 57.8537 2.19648 56.7819 2.19648 55.7101C2.19645 55.5324 2.19645 55.3547 2.19645 55.177C2.19639 52.4592 2.19614 49.7415 2.19529 47.0238C2.19526 46.9359 2.19526 46.9359 2.19523 46.8462C2.19492 45.9036 2.19462 44.9611 2.19428 44.0185C2.193 40.1549 2.19251 36.2914 2.19324 32.4278C2.19334 31.9021 2.1934 31.3764 2.19349 30.8507C2.19349 30.7476 2.19352 30.6446 2.19355 30.5384C2.19379 28.9061 2.19312 27.2738 2.19212 25.6416C2.19117 24.0368 2.19114 22.4321 2.19209 20.8273C2.1926 19.8864 2.19242 18.9454 2.1912 18.0044C2.19044 17.3793 2.19062 16.7542 2.1916 16.1291C2.19212 15.7748 2.19224 15.4206 2.1912 15.0663C2.18742 13.7102 2.18406 12.3786 2.48615 11.0468C2.50538 10.9614 2.52457 10.8761 2.54435 10.7881C2.59028 10.5958 2.64381 10.4087 2.70408 10.2201C2.72556 10.1525 2.74705 10.0848 2.76917 10.0151C3.18858 8.77715 3.87617 7.60173 4.75248 6.61003C4.81394 6.53946 4.87541 6.46889 4.93873 6.39617C6.89396 4.23185 9.65278 2.83083 12.645 2.57273C13.2008 2.54337 13.7568 2.54721 14.3133 2.54998C14.4997 2.54966 14.6861 2.5492 14.8725 2.54859C15.3833 2.54737 15.894 2.54821 16.4048 2.54941C16.9631 2.55034 17.5214 2.54934 18.0797 2.54857C19.0614 2.54743 20.0432 2.54763 21.0249 2.54862C22.0835 2.54967 23.1421 2.54999 24.2007 2.54943C24.3015 2.54938 24.3015 2.54938 24.4043 2.54934C24.7476 2.54914 25.0908 2.54894 25.4341 2.54874C27.9389 2.54731 30.4438 2.54752 32.9486 2.54857C35.4873 2.54963 38.026 2.54995 40.5646 2.5494C40.6447 2.54937 40.7248 2.54937 40.8073 2.54935C41.5412 2.54918 42.2751 2.54902 43.009 2.54883C44.8493 2.54839 46.6896 2.54807 48.5299 2.54781C48.6142 2.54781 48.6985 2.54781 48.7854 2.5478C52.9421 2.54725 57.0988 2.54795 61.2555 2.54877C62.7188 2.54908 64.182 2.54937 65.6453 2.54964C65.7818 2.54966 65.7817 2.54967 65.921 2.5497C70.1358 2.55048 74.3507 2.5505 78.5656 2.55033C78.9333 2.55031 79.301 2.5503 79.6687 2.55028C81.1466 2.55024 82.6244 2.55018 84.1023 2.5501C88.3282 2.54992 92.5541 2.54986 96.78 2.54989C96.874 2.54989 96.9681 2.54989 97.0651 2.54989C103.159 2.54992 109.253 2.55045 115.347 2.55135C115.444 2.55137 115.542 2.55138 115.642 2.5514C118.9 2.55187 122.159 2.55239 125.418 2.55291C135.273 2.55447 145.128 2.55552 162.727 2.55454C163.223 2.55451 163.718 2.55448 164.213 2.55444C164.311 2.55444 164.409 2.55442 164.51 2.55442C164.807 2.55441 165.104 2.55438 165.401 2.55436C165.499 2.55436 165.597 2.55435 165.698 2.55435C167.867 2.55419 170.037 2.55406 172.207 2.55392C172.403 2.5539 172.6 2.55389 172.796 2.55387C178.887 2.55348 184.978 2.5534 191.069 2.55369C191.21 2.55369 191.21 2.55371 191.354 2.55371C195.67 2.55392 199.986 2.55423 204.302 2.55461C204.765 2.55465 205.227 2.55468 205.69 2.55473C205.781 2.55474 205.873 2.55474 205.967 2.55474C206.705 2.55482 207.442 2.55487 208.18 2.55494C208.639 2.55497 209.099 2.55502 209.558 2.55507C213.773 2.55543 217.988 2.55566 222.203 2.55539C222.294 2.55539 222.385 2.55537 222.479 2.55537C223.486 2.5553 224.493 2.55523 225.5 2.55516C225.864 2.55514 226.229 2.55511 226.593 2.55508C226.683 2.55507 226.773 2.55507 226.866 2.55507C231.017 2.55478 235.168 2.55465 239.319 2.55545C239.403 2.55546 239.488 2.55548 239.574 2.55549C241.411 2.55585 243.249 2.55627 245.086 2.55678C245.818 2.55697 246.551 2.55716 247.283 2.55736C247.363 2.55737 247.443 2.55739 247.526 2.55742C250.061 2.55806 252.597 2.55795 255.132 2.55739C257.629 2.55684 260.125 2.55704 262.621 2.55838C262.963 2.55855 263.305 2.55873 263.647 2.5589C263.747 2.55896 263.747 2.55896 263.85 2.559C264.905 2.55951 265.96 2.55919 267.016 2.5585C268.048 2.55783 269.081 2.55809 270.113 2.55925C270.663 2.55984 271.213 2.56004 271.762 2.55913C272.261 2.5583 272.76 2.55867 273.259 2.55992C273.438 2.56018 273.617 2.56 273.796 2.55936C277.2 2.54793 280.113 3.62061 282.555 5.91418C284.203 7.50597 285.189 9.51653 285.601 11.7165C285.623 11.8339 285.623 11.8339 285.647 11.9537C285.719 12.4537 285.7 12.9604 285.699 13.4641C285.699 13.5839 285.699 13.7038 285.699 13.8237C285.699 14.1543 285.699 14.485 285.699 14.8156C285.699 15.1762 285.699 15.5368 285.699 15.8974C285.7 16.5322 285.7 17.1671 285.7 17.8019C285.699 18.7523 285.7 19.7027 285.7 20.6531C285.7 22.2727 285.701 23.8922 285.7 25.5118C285.7 27.1537 285.7 28.7957 285.701 30.4376C285.701 30.5412 285.701 30.6448 285.701 30.7515C285.701 31.1734 285.701 31.5954 285.701 32.0173C285.702 36.363 285.702 40.7088 285.702 45.0545C285.702 45.5286 285.702 46.0027 285.702 46.4769C285.702 46.5957 285.702 46.7145 285.702 46.8334C285.702 49.4996 285.703 52.1658 285.703 54.832C285.703 55.4269 285.703 56.0218 285.703 56.6168C285.703 56.7054 285.703 56.7054 285.703 56.7957C285.703 57.1542 285.703 57.5127 285.703 57.8711C285.703 58.0507 285.703 58.2303 285.703 58.4099C285.703 61.202 285.703 63.9941 285.704 66.7862C285.704 66.847 285.704 66.9079 285.704 66.9706C285.704 70.8478 285.704 74.7251 285.704 78.6024C285.704 78.7931 285.704 78.9838 285.704 79.1744C285.704 80.5141 285.704 81.8537 285.704 83.1933C285.704 83.5774 285.704 83.9615 285.704 84.3456C285.704 84.666 285.704 84.9864 285.704 85.3068C285.704 91.3581 285.704 97.4094 285.705 103.461C285.705 103.524 285.705 103.588 285.705 103.654C285.705 105.644 285.705 107.635 285.706 109.625C285.706 111.668 285.706 113.71 285.707 115.752C285.707 115.815 285.707 115.878 285.707 115.943C285.707 119.881 285.707 123.819 285.708 127.758C285.708 127.849 285.708 127.849 285.708 127.942C285.708 130.613 285.708 133.284 285.708 135.955C285.708 137.03 285.708 138.104 285.708 139.179C285.708 139.357 285.708 139.535 285.708 139.714C285.708 142.439 285.708 145.165 285.708 147.89C285.708 147.949 285.708 148.008 285.708 148.068C285.708 149.014 285.709 149.959 285.709 150.905C285.71 154.779 285.71 158.654 285.709 162.528C285.709 163.055 285.709 163.582 285.709 164.109C285.709 164.213 285.709 164.316 285.709 164.422C285.709 166.06 285.709 167.697 285.71 169.335C285.71 170.944 285.71 172.553 285.71 174.162C285.709 175.106 285.709 176.05 285.71 176.994C285.711 177.62 285.711 178.247 285.71 178.874C285.709 179.229 285.709 179.585 285.71 179.94C285.711 180.263 285.711 180.586 285.71 180.909C285.709 181.078 285.71 181.247 285.711 181.417C285.699 184.278 284.53 186.819 282.463 188.851Z" fill="#851970"/>
<path d="M284.14 180.379C284.14 180.259 284.141 180.14 284.141 180.021C284.141 179.693 284.141 179.366 284.141 179.038C284.141 178.68 284.141 178.322 284.141 177.964C284.142 177.335 284.142 176.705 284.142 176.076C284.141 175.133 284.142 174.191 284.142 173.248C284.143 171.642 284.143 170.036 284.143 168.43C284.143 166.802 284.143 165.173 284.144 163.545C284.144 163.443 284.144 163.34 284.144 163.234C284.144 162.815 284.144 162.397 284.144 161.978C284.146 157.375 284.146 152.771 284.147 148.167C284.147 148.08 284.147 148.08 284.147 147.991C284.147 147.697 284.147 147.402 284.147 147.107C284.147 144.64 284.147 142.172 284.147 139.704C284.148 138.522 284.148 137.34 284.148 136.158C284.148 136.099 284.148 136.04 284.148 135.98C284.148 133.15 284.149 130.321 284.149 127.492C284.149 127.401 284.149 127.401 284.149 127.309C284.149 123.463 284.15 119.617 284.15 115.77C284.15 115.455 284.15 115.14 284.15 114.824C284.15 114.319 284.15 113.813 284.15 113.308C284.15 113.245 284.15 113.183 284.15 113.118C284.15 112.991 284.15 112.865 284.15 112.738C284.15 111.85 284.15 110.962 284.15 110.074C284.15 109.756 284.15 109.438 284.15 109.121C284.15 103.119 284.151 97.117 284.152 91.1153C284.152 91.0205 284.152 91.0205 284.152 90.9238C284.153 88.9498 284.153 86.9758 284.154 85.0018C284.154 82.9763 284.155 80.9509 284.155 78.9254C284.155 78.8318 284.155 78.8318 284.155 78.7364C284.156 74.8301 284.157 70.9237 284.157 67.0174C284.157 66.9269 284.157 66.9269 284.157 66.8345C284.157 64.1845 284.157 61.5345 284.157 58.8844C284.157 57.8183 284.157 56.7522 284.157 55.686C284.157 55.5092 284.157 55.3325 284.157 55.1557C284.157 52.4524 284.158 49.7491 284.159 47.0459C284.159 46.9876 284.159 46.9293 284.159 46.8693C284.159 45.9318 284.159 44.9943 284.16 44.0569C284.161 40.2139 284.161 36.371 284.161 32.5281C284.16 32.0052 284.16 31.4822 284.16 30.9593C284.16 30.8568 284.16 30.7543 284.16 30.6487C284.16 29.0253 284.161 27.4018 284.162 25.7784C284.163 24.1822 284.163 22.5861 284.162 20.9899C284.161 20.054 284.161 19.1182 284.163 18.1824C284.163 17.5605 284.163 16.9387 284.162 16.3169C284.162 15.9646 284.162 15.6123 284.163 15.2599C284.171 12.3038 283.865 9.75143 281.862 7.39189C281.782 7.29431 281.782 7.29431 281.7 7.19475C280.254 5.52252 277.896 4.40118 275.671 4.12776C275.057 4.08372 274.44 4.09404 273.824 4.0963C273.638 4.09605 273.452 4.09569 273.266 4.09523C272.754 4.0943 272.243 4.09491 271.732 4.09578C271.173 4.09647 270.615 4.09567 270.057 4.09508C269.074 4.09418 268.092 4.09428 267.11 4.09499C266.05 4.09573 264.991 4.09593 263.931 4.09546C263.831 4.09541 263.831 4.09543 263.728 4.09538C263.385 4.09523 263.041 4.09505 262.698 4.09488C260.192 4.0937 257.686 4.09376 255.18 4.09445C252.639 4.09515 250.099 4.0953 247.559 4.09479C247.479 4.09477 247.398 4.09474 247.316 4.09472C246.582 4.09457 245.848 4.09444 245.114 4.09427C243.273 4.09387 241.432 4.09355 239.591 4.09329C239.506 4.09328 239.422 4.09326 239.335 4.09324C235.176 4.09268 231.017 4.09308 226.857 4.09355C226.675 4.09358 226.493 4.09359 226.311 4.09361C226.175 4.09363 226.175 4.09363 226.037 4.09364C224.846 4.09378 223.655 4.09392 222.465 4.09405C222.373 4.09405 222.282 4.09405 222.189 4.09407C217.972 4.09453 213.754 4.09442 209.537 4.09419C209.077 4.09416 208.617 4.09413 208.157 4.09411C206.771 4.09404 205.385 4.09396 203.998 4.09388C199.771 4.09364 195.543 4.0935 191.315 4.09343C191.221 4.09343 191.127 4.09341 191.03 4.09341C184.933 4.0933 178.836 4.09359 172.739 4.09414C172.641 4.09416 172.544 4.09416 172.444 4.09417C169.183 4.09446 165.922 4.09477 162.662 4.09509C152.801 4.09605 142.941 4.09658 125.332 4.09507C122.072 4.09475 118.812 4.09444 115.552 4.09414C115.455 4.09414 115.358 4.09411 115.258 4.09411C109.164 4.09354 103.07 4.09332 96.976 4.09342C96.8348 4.09344 96.8348 4.09342 96.6908 4.09342C92.4654 4.0935 88.24 4.09367 84.0146 4.09389C82.6288 4.09397 81.243 4.09405 79.8572 4.09412C79.3975 4.09414 78.9378 4.09418 78.4781 4.0942C74.2609 4.09443 70.0437 4.09449 65.8265 4.09405C65.7355 4.09403 65.6446 4.09402 65.5508 4.094C64.3607 4.09386 63.1705 4.09374 61.9804 4.0936C61.8901 4.0936 61.7999 4.09357 61.7069 4.09357C61.5249 4.09354 61.3428 4.09353 61.1608 4.09351C57.0074 4.09302 52.854 4.0927 48.7005 4.09328C48.6163 4.0933 48.532 4.09331 48.4452 4.09333C46.6072 4.09359 44.7692 4.09391 42.9312 4.0943C42.1982 4.09446 41.4652 4.09462 40.7322 4.09478C40.6122 4.09479 40.6122 4.09479 40.4898 4.09481C37.9527 4.09533 35.4157 4.09508 32.8786 4.09438C30.3808 4.09371 27.883 4.09378 25.3852 4.09497C25.0431 4.09514 24.7011 4.0953 24.359 4.09545C24.2921 4.09548 24.2251 4.09552 24.1561 4.09555C23.1001 4.096 22.044 4.09559 20.988 4.09484C19.9549 4.09412 18.9218 4.09432 17.8887 4.09543C17.3387 4.096 16.7886 4.09616 16.2386 4.09522C15.7393 4.09438 15.2401 4.09468 14.7408 4.09592C14.562 4.09615 14.3831 4.09598 14.2043 4.09533C12.8982 4.09087 11.6678 4.19019 10.4226 4.60376C10.3252 4.63587 10.3252 4.63587 10.2259 4.66861C7.75465 5.5156 5.87815 7.3246 4.74863 9.57575C4.16117 10.8208 3.93519 12.1327 3.94288 13.4897C3.9426 13.6103 3.94221 13.7309 3.94172 13.8516C3.94071 14.1811 3.94132 14.5107 3.94221 14.8402C3.94288 15.2008 3.94205 15.5613 3.94138 15.9219C3.94044 16.5557 3.94047 17.1894 3.94114 17.8232C3.94212 18.7719 3.9416 19.7207 3.94077 20.6695C3.93943 22.2866 3.93931 23.9037 3.93989 25.5208C3.94047 27.1595 3.9405 28.7982 3.9398 30.437C3.93973 30.5922 3.93973 30.5922 3.93967 30.7506C3.93952 31.1722 3.93931 31.5938 3.93912 32.0153C3.93742 35.9421 3.93702 39.8688 3.93745 43.7956C3.93745 43.8537 3.93748 43.9119 3.93748 43.9718C3.93751 44.2072 3.93754 44.4427 3.93757 44.6781C3.93763 45.3285 3.93769 45.9789 3.93778 46.6294C3.93778 46.7174 3.93778 46.7174 3.93778 46.8073C3.93806 49.5288 3.93778 52.2503 3.93741 54.9718C3.93735 55.2687 3.93732 55.5656 3.93726 55.8625C3.9372 56.3391 3.93714 56.8156 3.93705 57.2922C3.93705 57.3513 3.93705 57.4104 3.93705 57.4713C3.93699 57.7701 3.93696 58.0689 3.93693 58.3678C3.93653 61.1567 3.93622 63.9456 3.93601 66.7345C3.93598 66.8256 3.93601 66.8256 3.93601 66.9186C3.9357 70.8539 3.9358 74.7891 3.93622 78.7244C3.93622 78.8514 3.93625 78.9783 3.93625 79.1052C3.93641 80.5065 3.93656 81.9079 3.93671 83.3092C3.93671 83.3724 3.93671 83.4357 3.93671 83.5008C3.93674 83.6926 3.93677 83.8844 3.93677 84.0761C3.9368 84.1711 3.9368 84.1711 3.9368 84.2679C3.93683 84.5878 3.93686 84.9077 3.93692 85.2275C3.93763 91.5903 3.93778 97.953 3.93512 109.315C3.93457 111.419 3.93409 113.522 3.93357 115.625C3.93354 115.72 3.93354 115.72 3.93354 115.816C3.93259 119.749 3.93207 123.681 3.93204 127.614C3.93204 127.675 3.93204 127.736 3.93204 127.798C3.93201 130.526 3.9321 133.254 3.93228 135.982C3.93234 136.936 3.93241 137.89 3.93247 138.844C3.93247 139.081 3.9325 139.319 3.9325 139.556C3.93268 142.277 3.93262 144.999 3.93176 147.72C3.93176 147.779 3.93176 147.838 3.93173 147.898C3.93146 148.842 3.93115 149.786 3.93085 150.729C3.92957 154.704 3.92954 158.678 3.93106 162.652C3.93125 163.073 3.93137 163.493 3.93152 163.914C3.93155 164.017 3.93158 164.12 3.93164 164.226C3.93219 165.861 3.93155 167.495 3.93045 169.129C3.92938 170.736 3.9296 172.342 3.93109 173.949C3.93195 174.891 3.93185 175.833 3.93033 176.775C3.92941 177.401 3.92978 178.027 3.93115 178.653C3.93192 179.007 3.93213 179.362 3.93079 179.717C3.92078 182.542 4.35959 185.094 6.41718 187.254C6.48328 187.324 6.54935 187.394 6.61746 187.467C7.7514 188.614 9.15799 189.37 10.706 189.88C10.766 189.9 10.8259 189.92 10.8876 189.94C12.0508 190.302 13.2258 190.291 14.4337 190.288C14.6195 190.288 14.8053 190.288 14.9911 190.289C15.5025 190.289 16.0139 190.289 16.5254 190.289C17.0835 190.288 17.6417 190.289 18.1998 190.289C19.1821 190.29 20.1644 190.29 21.1467 190.29C22.2063 190.289 23.2658 190.289 24.3254 190.29C24.3926 190.29 24.4598 190.29 24.529 190.29C24.8721 190.29 25.2153 190.29 25.5584 190.29C28.0645 190.291 30.5705 190.291 33.0766 190.291C35.617 190.291 38.1574 190.291 40.6978 190.292C40.8597 190.292 41.0217 190.292 41.1836 190.292C41.8366 190.292 42.4895 190.292 43.1425 190.293C44.9832 190.293 46.8239 190.293 48.6646 190.294C48.7489 190.294 48.8333 190.294 48.9202 190.294C53.7185 190.295 58.5168 190.295 63.3151 190.295C64.0486 190.295 64.7821 190.295 65.5157 190.295C65.6995 190.295 65.8833 190.295 66.0672 190.295C70.1925 190.295 74.3178 190.295 78.4431 190.296C79.3637 190.296 80.2842 190.296 81.2048 190.296C81.2962 190.296 81.3876 190.296 81.4817 190.296C82.0364 190.296 82.591 190.296 83.1457 190.296C83.4236 190.296 83.7014 190.296 83.9793 190.296C88.2996 190.297 92.6199 190.297 96.9402 190.297C97.0344 190.297 97.1285 190.297 97.2255 190.297C103.224 190.298 109.223 190.298 115.222 190.298C115.517 190.298 115.812 190.298 116.107 190.298C118.18 190.298 120.253 190.298 122.325 190.298C122.919 190.298 123.514 190.298 124.108 190.298C124.604 190.298 125.099 190.298 125.595 190.298C134.958 190.298 144.321 190.298 153.683 190.3C153.782 190.3 153.881 190.3 153.982 190.3C157.062 190.3 160.142 190.301 163.222 190.301C166.383 190.302 169.543 190.302 172.704 190.303C172.801 190.303 172.898 190.303 172.998 190.303C179.092 190.304 185.186 190.305 191.279 190.305C191.374 190.305 191.468 190.305 191.565 190.305C195.697 190.305 199.83 190.305 203.963 190.305C205.626 190.305 207.288 190.305 208.951 190.305C209.227 190.305 209.502 190.305 209.778 190.305C213.995 190.305 218.212 190.305 222.429 190.306C222.52 190.306 222.611 190.306 222.705 190.306C224.168 190.307 225.631 190.307 227.095 190.307C231.248 190.308 235.401 190.309 239.555 190.309C239.639 190.309 239.723 190.309 239.81 190.309C241.648 190.309 243.487 190.309 245.325 190.308C246.058 190.308 246.791 190.308 247.524 190.308C247.604 190.308 247.684 190.308 247.767 190.308C250.304 190.307 252.841 190.308 255.378 190.309C257.875 190.31 260.373 190.31 262.871 190.309C263.214 190.309 263.556 190.309 263.898 190.309C263.965 190.309 264.032 190.309 264.101 190.309C265.157 190.308 266.213 190.309 267.268 190.31C268.302 190.311 269.335 190.311 270.368 190.309C270.918 190.309 271.468 190.309 272.018 190.31C272.518 190.311 273.017 190.311 273.516 190.309C273.695 190.309 273.874 190.309 274.053 190.31C276.567 190.322 278.911 189.625 280.816 188.007C280.875 187.962 280.935 187.917 280.996 187.87C282.771 186.5 283.844 184.172 284.089 182.033C284.144 181.482 284.141 180.932 284.14 180.379ZM280.318 187.09C278.617 188.481 276.623 189.279 274.372 189.273C274.297 189.273 274.221 189.273 274.143 189.273C273.89 189.274 273.636 189.273 273.383 189.273C273.198 189.273 273.014 189.273 272.829 189.274C272.319 189.274 271.809 189.274 271.299 189.274C270.743 189.273 270.187 189.274 269.631 189.274C268.652 189.274 267.673 189.275 266.694 189.274C265.638 189.274 264.582 189.274 263.526 189.275C263.459 189.275 263.392 189.275 263.323 189.275C262.981 189.275 262.64 189.275 262.298 189.275C259.8 189.276 257.303 189.276 254.806 189.276C252.274 189.276 249.742 189.276 247.21 189.277C247.048 189.277 246.887 189.277 246.726 189.277C246.075 189.277 245.425 189.277 244.774 189.277C237.616 189.278 230.459 189.279 223.301 189.279C223.21 189.279 223.12 189.279 223.027 189.279C222.569 189.279 222.111 189.279 221.653 189.279C217.816 189.279 213.979 189.28 210.143 189.28C208.306 189.28 206.469 189.28 204.632 189.281C204.54 189.281 204.449 189.281 204.355 189.281C199.958 189.281 195.56 189.281 191.163 189.282C191.069 189.282 190.975 189.282 190.879 189.282C184.9 189.282 178.922 189.282 172.944 189.282C172.453 189.282 171.963 189.282 171.473 189.282C170.687 189.282 169.901 189.282 169.115 189.282C169.018 189.282 168.921 189.282 168.82 189.282C168.624 189.282 168.427 189.282 168.23 189.282C166.849 189.283 165.469 189.283 164.088 189.283C163.594 189.283 163.1 189.283 162.606 189.283C153.275 189.283 143.944 189.283 134.613 189.285C134.514 189.285 134.416 189.285 134.315 189.285C131.246 189.285 128.176 189.286 125.107 189.286C121.958 189.287 118.808 189.287 115.659 189.287C115.562 189.287 115.465 189.287 115.365 189.288C109.293 189.288 103.221 189.289 97.1484 189.289C97.0546 189.289 96.9608 189.289 96.8642 189.289C92.7458 189.289 88.6274 189.289 84.509 189.29C82.8522 189.29 81.1954 189.29 79.5385 189.29C79.2638 189.29 78.9891 189.29 78.7144 189.29C74.5118 189.29 70.3092 189.29 66.1066 189.291C66.0159 189.291 65.9252 189.291 65.8319 189.291C64.3736 189.291 62.9154 189.291 61.4572 189.292C57.3179 189.293 53.1787 189.293 49.0394 189.293C48.9554 189.293 48.8715 189.293 48.785 189.293C46.9529 189.293 45.1209 189.293 43.2889 189.293C42.5582 189.293 41.8276 189.293 41.0969 189.292C41.0172 189.292 40.9375 189.292 40.8554 189.292C38.327 189.292 35.7986 189.293 33.2701 189.294C30.7806 189.295 28.2911 189.295 25.8016 189.294C25.4606 189.294 25.1196 189.294 24.7786 189.294C24.7118 189.293 24.6451 189.293 24.5763 189.293C23.524 189.293 22.4716 189.294 21.4193 189.294C20.3895 189.295 19.3597 189.295 18.33 189.294C17.7818 189.294 17.2337 189.294 16.6855 189.295C16.1878 189.296 15.6901 189.295 15.1924 189.294C15.0142 189.294 14.8361 189.294 14.658 189.295C12.2281 189.303 9.83884 188.878 7.98666 187.254C7.92026 187.196 7.92026 187.196 7.85251 187.137C6.21661 185.697 5.17676 183.787 5.0221 181.646C5.01007 181.251 5.01025 180.856 5.01096 180.461C5.01083 180.342 5.01071 180.222 5.01053 180.103C5.01013 179.775 5.01028 179.447 5.01053 179.118C5.01068 178.76 5.01035 178.402 5.01007 178.044C5.00967 177.413 5.00958 176.783 5.00971 176.153C5.00989 175.209 5.00958 174.265 5.00916 173.322C5.00848 171.713 5.00821 170.105 5.00818 168.497C5.00815 166.867 5.00791 165.237 5.00745 163.607C5.00739 163.452 5.00739 163.452 5.00736 163.295C5.00723 162.876 5.00711 162.457 5.00699 162.038C5.00568 157.428 5.00507 152.819 5.0047 148.21C5.0047 148.152 5.00467 148.093 5.00467 148.033C5.00464 147.738 5.00464 147.444 5.00461 147.149C5.0044 144.678 5.00409 142.207 5.00373 139.736C5.00357 138.553 5.00339 137.37 5.00324 136.186C5.00324 136.098 5.00324 136.098 5.00324 136.008C5.00284 133.175 5.00251 130.343 5.0022 127.51C5.0022 127.42 5.0022 127.42 5.00217 127.327C5.00177 123.477 5.00153 119.626 5.00138 115.776C5.00135 115.46 5.00138 115.145 5.00135 114.829C5.00135 114.323 5.00132 113.817 5.00129 113.311C5.00129 113.248 5.00129 113.185 5.00129 113.12C5.00129 112.994 5.00129 112.867 5.00125 112.74C5.00122 111.851 5.00119 110.962 5.00116 110.073C5.00113 109.755 5.00113 109.437 5.00113 109.118C5.00089 103.11 5.00043 97.1008 4.99906 91.0919C4.99903 91.0287 4.99903 90.9654 4.999 90.9002C4.99854 88.9237 4.99805 86.9472 4.99756 84.9707C4.99704 82.9426 4.99656 80.9146 4.9961 78.8865C4.99607 78.8241 4.99607 78.7616 4.99604 78.6973C4.99515 74.7863 4.99451 70.8754 4.99427 66.9644C4.99427 66.8738 4.99427 66.8738 4.99427 66.7814C4.99409 64.1285 4.99396 61.4756 4.99393 58.8227C4.99393 57.7554 4.9939 56.6882 4.99387 55.6209C4.99387 55.4439 4.99387 55.267 4.99387 55.09C4.99381 52.3835 4.99354 49.677 4.99268 46.9705C4.99268 46.9121 4.99268 46.8538 4.99265 46.7937C4.99235 45.8549 4.99204 44.9161 4.99171 43.9774C4.99042 40.13 4.98994 36.2826 4.99064 32.4353C4.99073 31.9119 4.99082 31.3884 4.99091 30.865C4.99091 30.7111 4.99094 30.7111 4.99097 30.5541C4.99122 28.9285 4.99058 27.3029 4.98957 25.6772C4.98859 24.0793 4.98853 22.4814 4.98951 20.8835C4.99003 19.9463 4.98985 19.0092 4.98859 18.0721C4.98786 17.4497 4.98804 16.8273 4.98902 16.2049C4.98954 15.8521 4.98966 15.4993 4.98859 15.1465C4.98136 12.5407 5.19379 9.99634 7.11475 7.97776C7.15485 7.93526 7.19495 7.89276 7.23631 7.84897C8.80421 6.20752 10.9088 5.23693 13.2411 5.12244C13.7854 5.10695 14.3299 5.10973 14.8745 5.11103C15.0597 5.11086 15.2449 5.11061 15.4302 5.11029C15.9397 5.10964 16.4492 5.11 16.9587 5.11057C17.5149 5.11098 18.0711 5.11042 18.6273 5.10999C19.606 5.10933 20.5847 5.10938 21.5634 5.10979C22.6191 5.11022 23.6747 5.11028 24.7303 5.10991C24.7973 5.10988 24.8642 5.10987 24.9332 5.10985C25.2752 5.10973 25.6171 5.10961 25.959 5.10949C28.456 5.10856 30.9529 5.10846 33.4499 5.10878C35.981 5.10911 38.5121 5.10906 41.0431 5.10859C41.1629 5.10856 41.1629 5.10857 41.285 5.10854C42.0164 5.1084 42.7478 5.10825 43.4791 5.10811C45.3133 5.10775 47.1473 5.10746 48.9814 5.1072C49.1075 5.10717 49.1075 5.10717 49.2361 5.10715C53.3802 5.10656 57.5243 5.10662 61.6683 5.10674C61.7582 5.10674 61.848 5.10674 61.9405 5.10674C62.3042 5.10676 62.6679 5.10677 63.0316 5.10679C64.0362 5.10682 65.0408 5.10683 66.0454 5.10686C66.1361 5.10686 66.2268 5.10688 66.3202 5.10689C70.4304 5.107 74.5407 5.10679 78.6509 5.1065C79.2007 5.10647 79.7504 5.10642 80.3002 5.10638C80.3911 5.10638 80.482 5.10636 80.5756 5.10636C80.7593 5.10635 80.943 5.10633 81.1268 5.10631C81.5868 5.10628 82.0468 5.10627 82.5069 5.10624C82.5981 5.10622 82.6893 5.10622 82.7833 5.10621C83.2445 5.10618 83.7057 5.10615 84.167 5.10612C88.4716 5.10581 92.7762 5.10558 97.0808 5.1054C97.1746 5.1054 97.2684 5.10538 97.365 5.10537C103.342 5.10513 109.319 5.10513 115.296 5.10534C115.59 5.10534 115.884 5.10537 116.178 5.10537C118.341 5.10545 120.505 5.10552 122.668 5.1056C122.866 5.10561 123.063 5.10561 123.26 5.10563C123.458 5.10563 123.655 5.10563 123.853 5.10565C123.95 5.10565 124.048 5.10566 124.149 5.10566C124.643 5.10568 125.136 5.10571 125.63 5.10572C134.959 5.10607 144.287 5.10615 153.616 5.10511C153.714 5.1051 153.812 5.1051 153.914 5.1051C156.884 5.10476 159.854 5.10438 162.824 5.10401C166.072 5.1036 169.32 5.10321 172.567 5.10282C172.664 5.10281 172.761 5.10279 172.861 5.10278C178.933 5.10206 185.004 5.10167 191.076 5.1016C191.169 5.1016 191.263 5.10157 191.36 5.10157C195.477 5.10153 199.595 5.10156 203.713 5.10167C205.278 5.1017 206.842 5.10173 208.407 5.10176C208.774 5.10177 209.14 5.10177 209.506 5.10179C213.708 5.10188 217.91 5.10179 222.112 5.10115C222.202 5.10113 222.293 5.10112 222.386 5.10112C223.844 5.10089 225.302 5.10066 226.76 5.10042C230.898 5.09974 235.037 5.09921 239.175 5.09958C239.301 5.09959 239.301 5.09959 239.429 5.09959C241.261 5.09976 243.092 5.1 244.923 5.10031C245.654 5.10043 246.384 5.10055 247.115 5.10066C247.234 5.10068 247.234 5.10069 247.356 5.10071C249.884 5.10109 252.412 5.10069 254.939 5.09987C257.428 5.09904 259.917 5.099 262.406 5.10005C262.746 5.10019 263.087 5.10033 263.428 5.10046C263.495 5.10048 263.562 5.10051 263.63 5.10054C264.682 5.10092 265.735 5.10048 266.787 5.09965C267.816 5.09889 268.845 5.09901 269.875 5.10007C270.423 5.1006 270.971 5.10075 271.519 5.09979C272.016 5.09891 272.514 5.0992 273.011 5.1004C273.19 5.10063 273.368 5.10043 273.546 5.09976C276.3 5.09018 278.629 5.79555 280.658 7.62205C281.962 8.9399 283.006 10.8962 283.007 12.7446C283.007 12.8958 283.007 12.8958 283.007 13.05C283.007 13.1619 283.007 13.2738 283.007 13.3857C283.007 13.5052 283.007 13.6247 283.007 13.7442C283.008 14.0746 283.007 14.405 283.007 14.7354C283.007 15.0954 283.007 15.4555 283.008 15.8155C283.008 16.4496 283.008 17.0838 283.008 17.7179C283.008 18.6672 283.008 19.6166 283.009 20.5659C283.009 22.1836 283.009 23.8013 283.01 25.419C283.01 27.0592 283.01 28.6994 283.01 30.3396C283.01 30.443 283.01 30.5465 283.01 30.6531C283.01 31.0745 283.011 31.4958 283.011 31.9172C283.012 36.5538 283.013 41.1905 283.013 45.8271C283.013 45.9151 283.013 45.9151 283.013 46.0049C283.013 46.3016 283.013 46.5983 283.013 46.895C283.013 49.3803 283.014 51.8657 283.014 54.3511C283.014 55.5412 283.014 56.7313 283.014 57.9213C283.014 57.9805 283.014 58.0397 283.014 58.1007C283.015 60.9493 283.015 63.798 283.016 66.6467C283.016 66.7378 283.016 66.7378 283.016 66.8308C283.016 70.7038 283.016 74.5769 283.016 78.4499C283.016 78.7674 283.016 79.085 283.016 79.4026C283.016 79.9117 283.016 80.4208 283.016 80.93C283.016 80.9931 283.016 81.0562 283.016 81.1212C283.016 81.2487 283.016 81.3762 283.016 81.5037C283.016 82.3982 283.017 83.2926 283.017 84.1871C283.017 84.5071 283.017 84.8272 283.017 85.1473C283.017 91.192 283.017 97.2368 283.019 103.282C283.019 103.345 283.019 103.409 283.019 103.474C283.019 105.462 283.02 107.451 283.02 109.439C283.021 111.479 283.021 113.519 283.022 115.559C283.022 115.621 283.022 115.684 283.022 115.749C283.023 119.683 283.023 123.616 283.023 127.55C283.023 127.611 283.023 127.671 283.023 127.734C283.024 130.402 283.024 133.07 283.024 135.738C283.024 136.812 283.024 137.885 283.024 138.959C283.024 139.137 283.024 139.315 283.024 139.493C283.024 142.215 283.024 144.937 283.025 147.66C283.025 147.719 283.025 147.777 283.025 147.838C283.025 148.782 283.026 149.727 283.026 150.671C283.027 154.541 283.028 158.412 283.027 162.282C283.027 162.809 283.027 163.335 283.027 163.861C283.027 163.965 283.027 164.068 283.027 164.174C283.027 165.81 283.027 167.445 283.028 169.081C283.029 170.688 283.029 172.296 283.028 173.903C283.028 174.846 283.028 175.789 283.029 176.732C283.03 177.358 283.03 177.984 283.029 178.61C283.028 178.965 283.028 179.32 283.029 179.675C283.03 179.997 283.03 180.32 283.029 180.643C283.028 180.812 283.029 180.981 283.03 181.15C283.017 183.394 282.017 185.541 280.318 187.09Z" fill="#851970"/>
<path d="M262.7 81.7533C262.7 81.7029 262.7 81.6524 262.7 81.6005C262.7 76.6723 262.7 71.7441 262.7 63.1699C262.7 62.8281 262.7 62.4864 262.699 62.1447C262.699 57.3595 262.698 52.5744 262.694 32.0375C253.747 32.0297 244.8 32.0222 228.44 32.0092C228.034 32.0088 227.629 32.0085 227.223 32.0082C220.64 32.003 214.058 31.9979 104.806 31.9363C104.411 31.9362 104.015 31.936 103.62 31.9358C103.522 31.9357 103.424 31.9357 103.323 31.9356C101.342 31.9347 99.3599 31.9338 97.3783 31.9329C87.9393 31.9285 78.5003 31.9241 67.986 31.9194C67.6296 31.9193 67.2731 31.9191 66.9166 31.9189C66.7848 31.9189 66.7848 31.9189 66.6502 31.9188C65.3303 31.9182 64.0104 31.9176 62.6904 31.917C59.0279 31.9154 55.3653 31.9137 51.7028 31.9121C51.3911 31.912 51.0794 31.9118 50.7677 31.9117C50.653 31.9116 50.653 31.9116 50.5361 31.9116C49.4969 31.9111 48.4577 31.9107 47.4185 31.9102C45.7148 31.9094 44.0112 31.9087 42.3075 31.9079C42.2435 31.9079 42.1795 31.9079 42.1136 31.9079C36.5694 31.9056 31.0253 31.9053 25.4811 31.9059C25.4784 35.1348 25.4758 38.3637 25.4731 41.5925C25.473 41.6874 25.473 41.6874 25.473 41.7843C25.4673 48.6099 25.4617 55.4356 25.4562 62.2612C25.456 62.4141 25.4559 62.567 25.4558 62.7199C25.4532 65.9342 25.4506 69.1486 25.448 72.3629C25.4467 73.9794 25.4453 75.5958 25.444 77.2122C25.4438 77.4559 25.4436 77.6997 25.4434 77.9434C25.4404 81.6638 25.4374 85.3842 25.4343 89.1047C25.4342 89.2232 25.4342 89.2232 25.4341 89.3441C25.433 90.6169 25.432 91.8898 25.4309 93.1626C25.4279 96.8621 25.4248 100.562 25.4218 104.261C25.4218 104.338 25.4217 104.416 25.4216 104.495C25.4203 106.198 25.4189 107.901 25.4175 109.604C25.417 110.291 25.4164 110.977 25.4159 111.664C25.4158 111.777 25.4158 111.777 25.4157 111.892C25.4139 114.106 25.4121 116.321 25.4102 118.536C25.4073 121.961 25.4045 125.386 25.4019 128.812C25.4018 128.879 25.4018 128.946 25.4017 129.015C25.3964 135.904 25.393 142.793 25.3939 166.298C34.0649 166.318 42.736 166.337 78.2236 166.377C78.3268 166.377 78.4301 166.377 78.5366 166.377C83.961 166.38 89.3853 166.382 94.8098 166.383C98.1011 166.384 101.392 166.385 104.684 166.387C104.862 166.387 105.039 166.387 105.217 166.387C106.291 166.387 107.365 166.388 108.439 166.388C111.104 166.389 113.769 166.39 116.433 166.391C116.494 166.391 116.554 166.391 116.617 166.391C120.5 166.392 124.383 166.394 128.267 166.395C128.328 166.395 128.389 166.395 128.453 166.395C130.319 166.396 132.185 166.396 134.052 166.397C136.115 166.397 138.177 166.398 140.24 166.399C140.302 166.399 140.364 166.399 140.428 166.399C146.322 166.401 152.216 166.403 158.11 166.405C158.423 166.405 158.736 166.405 159.048 166.405C160.296 166.406 161.544 166.406 162.791 166.407C162.884 166.407 162.884 166.407 162.978 166.407C163.662 166.407 164.346 166.407 165.031 166.408C171.093 166.41 177.155 166.412 190.866 166.417C192.481 166.417 194.095 166.418 195.71 166.418C201.91 166.421 208.11 166.423 214.31 166.425C214.412 166.425 214.514 166.425 214.62 166.425C224.153 166.428 233.687 166.43 262.607 166.43C262.619 159.303 262.63 152.177 262.65 138.734C262.65 138.418 262.651 138.103 262.651 137.787C262.658 133.249 262.664 128.71 262.675 120.601C262.675 120.553 262.675 120.506 262.675 120.457C262.681 115.569 262.686 110.682 262.7 81.7533ZM261.645 39.6665C261.644 40.1792 261.644 40.692 261.644 41.2047C261.643 42.2813 261.642 43.3579 261.641 44.4345C261.641 45.2237 261.64 46.0129 261.64 46.8021C261.635 52.9307 261.631 59.0592 261.626 65.1878C261.626 65.296 261.626 65.296 261.626 65.4064C261.623 68.6934 261.621 71.9804 261.618 75.2674C261.617 76.6504 261.616 78.0333 261.615 79.4162C261.615 79.6477 261.615 79.8792 261.614 80.1107C261.612 83.6464 261.609 87.1821 261.606 90.7178C261.606 90.793 261.606 90.8682 261.606 90.9456C261.605 92.1567 261.604 93.3678 261.604 94.5789C261.601 98.1013 261.599 101.624 261.596 105.146C261.596 105.257 261.596 105.257 261.596 105.369C261.594 106.992 261.593 108.614 261.592 110.237C261.591 110.891 261.591 111.546 261.59 112.2C261.59 112.272 261.59 112.343 261.59 112.417C261.588 114.523 261.587 116.628 261.585 118.734C261.583 121.991 261.581 125.248 261.578 128.505C261.578 128.601 261.578 128.601 261.578 128.698C261.572 135.41 261.558 142.122 261.473 165.574C253.978 165.575 246.483 165.576 202.269 165.578C201.608 165.578 200.947 165.578 200.286 165.578C190.907 165.579 181.529 165.579 164.965 165.578C164.869 165.578 164.774 165.578 164.676 165.578C155.212 165.578 145.748 165.577 97.0511 165.559C96.9751 165.559 96.8991 165.559 96.8208 165.559C89.5792 165.555 82.3376 165.55 69.8859 165.542C69.3982 165.541 68.9105 165.541 68.4229 165.541C61.8393 165.536 55.2558 165.531 26.528 165.508C26.5258 158.528 26.5242 151.548 26.5226 138.828C26.5226 138.479 26.5225 138.129 26.5225 137.779C26.5219 132.722 26.5217 127.665 26.5222 121.07C26.5222 121.023 26.5222 120.977 26.5222 120.929C26.5227 116.148 26.5237 111.367 26.5474 82.6975C26.5475 82.6471 26.5476 82.5967 26.5476 82.5448C26.5534 77.6074 26.5596 72.6701 26.571 64.0724C26.5715 63.7294 26.572 63.3863 26.5724 63.0432C26.5787 58.3674 26.585 53.6916 26.6153 32.7615C34.6637 32.7608 42.7121 32.7601 94.8237 32.7574C95.5764 32.7574 96.3291 32.7573 97.0818 32.7573C107.666 32.757 118.25 32.7567 136.809 32.7571C136.914 32.7571 137.02 32.7571 137.129 32.7571C147.362 32.7575 157.594 32.7581 204.748 32.7761C204.847 32.7762 204.847 32.7762 204.948 32.7763C211.842 32.7809 218.737 32.7863 227.66 32.7941C228.114 32.7945 228.567 32.7949 229.021 32.7953C238.492 32.8036 247.963 32.8124 261.647 32.8273C261.648 35.107 261.646 37.3868 261.645 39.6665Z" fill="#851970"/>
<path d="M19.0833 95.4042C18.8508 95.1393 18.6059 94.8897 18.3552 94.642C18.3042 94.5902 18.2533 94.5384 18.2009 94.485C17.0557 93.4094 15.4607 92.9474 13.9187 92.9667C12.2048 93.0848 10.7614 93.7995 9.549 94.9907C9.50067 95.038 9.45234 95.0852 9.40255 95.1338C8.25928 96.3574 7.8392 98.0123 7.86856 99.6482C7.92848 101.054 8.52917 102.404 9.46181 103.448C9.51452 103.508 9.56724 103.568 9.62155 103.629C10.7561 104.84 12.4343 105.506 14.0774 105.562C15.8166 105.541 17.3451 104.885 18.6004 103.682C20.7049 101.481 21.1037 97.8128 19.0833 95.4042ZM17.4833 103.187C16.1138 104.245 14.6656 104.482 12.9848 104.283C11.6809 103.997 10.5878 103.207 9.85961 102.102C9.12791 100.901 8.77034 99.5907 9.10556 98.1939C9.50668 96.7474 10.2495 95.5904 11.5544 94.8164C12.7598 94.1745 14.1023 94.0123 15.4469 94.266C15.7015 94.3461 15.9347 94.4398 16.1754 94.5548C16.2968 94.6103 16.2968 94.6103 16.4206 94.6669C17.8333 95.3712 18.613 96.5121 19.1181 97.9695C19.6438 99.8606 18.9085 101.901 17.4833 103.187Z" fill="#851970"/>
<path fill-rule="evenodd" clip-rule="evenodd" d="M274.256 97.345C274.767 97.5446 275.182 97.9187 275.428 98.4076C275.753 99.2246 275.613 100.003 275.041 100.658C274.6 101.095 274.21 101.218 273.592 101.236C272.899 101.205 272.59 101.084 272.098 100.593C271.72 100.046 271.587 99.5763 271.641 98.9144C271.776 98.3517 272.045 97.9349 272.496 97.5739C273.032 97.2327 273.645 97.271 274.256 97.345ZM273.597 98.3424C274 98.4059 274.161 98.5248 274.431 98.8273C274.577 99.3898 274.522 99.6766 274.061 100.047C273.807 100.193 273.581 100.168 273.298 100.135C273.038 100.005 272.931 99.8571 272.775 99.6121C272.731 99.3091 272.722 99.0193 272.862 98.7402C273.107 98.495 273.252 98.3989 273.597 98.3424Z" fill="#851970"/>
</svg>
