<svg width="957" height="669" viewBox="0 0 957 669" fill="none" xmlns="http://www.w3.org/2000/svg">
<path d="M956.262 113.641C956.262 98.6974 956.262 83.7544 956.262 68.3585C955.024 68.3585 953.787 68.3585 952.512 68.3585C952.514 68.0311 952.516 67.7036 952.518 67.3662C952.536 64.2567 952.549 61.1473 952.557 58.0378C952.562 56.4398 952.568 54.8417 952.578 53.2438C952.587 51.6972 952.592 50.1506 952.594 48.6041C952.596 48.0185 952.599 47.433 952.604 46.8475C952.641 42.0312 952.255 37.3577 950.872 32.7206C950.798 32.4705 950.724 32.2204 950.648 31.9626C948.761 25.7957 945.582 20.3471 941.264 15.5777C941.045 15.3204 940.825 15.0632 940.599 14.7981C939.056 13.0082 937.373 11.5285 935.496 10.0977C935.196 9.86609 934.897 9.63446 934.589 9.39581C929.797 5.77704 924.402 3.39618 918.641 1.80566C918.337 1.7196 918.337 1.7196 918.028 1.63177C913.701 0.503294 909.242 0.496214 904.804 0.507261C904.189 0.506651 903.573 0.505735 902.958 0.504697C901.269 0.502439 899.581 0.503721 897.892 0.505674C896.048 0.507077 894.203 0.505185 892.358 0.503659C889.113 0.501462 885.868 0.501523 882.624 0.502926C879.124 0.504391 875.625 0.504696 872.126 0.503414C871.904 0.503292 871.682 0.503292 871.453 0.50317C870.319 0.502743 869.185 0.502316 868.051 0.501827C859.772 0.498653 851.493 0.498347 843.215 0.499446C834.824 0.500605 826.433 0.500483 818.042 0.498834C817.777 0.498773 817.512 0.498712 817.24 0.498651C814.814 0.498224 812.389 0.497674 809.964 0.497186C803.882 0.495965 797.8 0.494866 791.718 0.49395C791.439 0.493889 791.161 0.49395 790.874 0.493889C777.134 0.491874 763.395 0.492057 749.656 0.492484C749.209 0.492484 749.21 0.492484 748.754 0.492484C747.548 0.492545 746.342 0.492606 745.137 0.492606C741.806 0.492727 738.476 0.492788 735.146 0.49291C734.845 0.49291 734.544 0.49291 734.235 0.49291C720.606 0.493276 706.978 0.492543 693.35 0.491566C691.527 0.491444 689.704 0.491321 687.881 0.491199C687.58 0.491199 687.278 0.491138 686.968 0.491138C686.359 0.491077 685.749 0.491016 685.14 0.491016C683.615 0.490894 682.089 0.490833 680.564 0.490711C680.261 0.490711 679.959 0.49065 679.647 0.49065C678.118 0.490527 676.588 0.490405 675.059 0.490283C660.785 0.489245 646.511 0.488451 632.237 0.48784C631.926 0.48784 631.615 0.487779 631.294 0.487779C611.476 0.486862 591.657 0.486923 571.838 0.487593C570.864 0.487654 569.889 0.487715 568.915 0.487776C561.741 0.48802 554.567 0.488264 547.394 0.488508C546.74 0.488569 546.085 0.488568 545.431 0.488568C544.777 0.488629 544.122 0.488629 543.468 0.48869C543.144 0.48869 542.82 0.488751 542.486 0.488751C540.848 0.488812 539.211 0.488812 537.573 0.488873C506.644 0.490093 475.715 0.490396 444.786 0.486855C444.46 0.486794 444.134 0.486733 443.799 0.486672C433.951 0.485573 424.104 0.484291 414.256 0.483009C403.488 0.481604 392.721 0.480261 381.953 0.478918C381.631 0.478918 381.31 0.478857 380.979 0.478796C360.847 0.476353 340.715 0.474888 320.583 0.474643C320.117 0.474643 320.117 0.474643 319.641 0.474643C305.987 0.474459 292.332 0.47458 278.678 0.474946C273.489 0.475068 268.3 0.47519 263.111 0.47525C261.896 0.475311 260.681 0.475311 259.466 0.475372C245.535 0.475677 231.603 0.475371 217.671 0.473173C217.371 0.473112 217.071 0.473051 216.761 0.473051C211.928 0.472258 207.095 0.471464 202.262 0.470609C188.542 0.468289 174.822 0.466458 161.103 0.467739C160.824 0.467739 160.546 0.4678 160.259 0.4678C154.186 0.46841 148.112 0.469203 142.039 0.470301C139.617 0.470667 137.194 0.471095 134.772 0.471461C134.508 0.471522 134.244 0.471522 133.972 0.471522C125.592 0.472864 117.212 0.471582 108.832 0.468713C100.58 0.465905 92.3285 0.465722 84.0766 0.469383C82.9459 0.469871 81.8152 0.470299 80.6844 0.470787C80.4631 0.470848 80.2417 0.47097 80.0136 0.471031C76.5266 0.472374 73.0396 0.470787 69.5526 0.46804C66.1391 0.465354 62.7254 0.465781 59.3119 0.469443C57.4954 0.471274 55.679 0.471823 53.8625 0.468466C52.2121 0.465415 50.5617 0.466452 48.9113 0.470541C48.3216 0.471335 47.732 0.470663 47.1423 0.468344C41.8429 0.449118 36.6321 0.882467 31.5876 2.59878C31.3788 2.66866 31.17 2.73855 30.9549 2.81057C24.2147 5.08944 18.5169 8.5804 13.4172 13.5587C13.087 13.8621 13.087 13.8621 12.7502 14.1716C4.87436 21.5974 0.627225 32.8107 0.0965239 43.473C0.0766264 44.554 0.0731473 45.6337 0.0769315 46.7149C0.0762601 47.1301 0.0753445 47.5454 0.0742459 47.9605C0.0719265 49.0938 0.0730861 50.2271 0.0748561 51.3603C0.0761988 52.6007 0.0741846 53.8412 0.0725976 55.0816C0.0702782 57.2614 0.070095 59.4412 0.0712545 61.6211C0.0730854 64.8844 0.0715594 68.1476 0.069362 71.4108C0.0657607 76.973 0.064906 82.5352 0.0655771 88.0973C0.0662483 93.7337 0.0656377 99.3701 0.0635622 105.007C0.0633791 105.363 0.063257 105.719 0.0631349 106.085C0.0625855 107.536 0.0619751 108.986 0.0614257 110.436C0.0556268 125.36 0.0538561 140.285 0.0535503 155.209C0.0534891 156.837 0.053428 158.464 0.0533669 160.092C0.0533669 160.5 0.0534279 160.908 0.0533669 161.315C0.0531834 170.473 0.0519012 179.631 0.050436 188.789C0.0501307 190.833 0.0497644 192.877 0.0494592 194.922C0.0493981 195.226 0.0493371 195.226 0.0493371 195.537C0.0490929 196.769 0.0489097 198 0.0487265 199.232C0.0486655 199.849 0.0485434 200.466 0.0484823 201.084C0.046956 210.678 0.0456739 220.272 0.0445748 229.867C0.0445748 230.076 0.0445138 230.285 0.0445138 230.5C0.0430483 243.82 0.0425595 257.139 0.042681 270.459C0.0426809 271.114 0.0426809 271.769 0.0426809 272.424C0.0427417 277.025 0.0428636 281.626 0.0429244 286.226C0.0429243 287.546 0.0429243 288.865 0.0429853 290.184C0.0429852 291.284 0.0429241 292.384 0.0429851 293.485C0.0432894 314.267 0.042495 335.049 0.037062 355.83C0.0370009 356.049 0.0368789 356.268 0.0368178 356.493C0.0350475 363.329 0.0330941 370.165 0.0311407 377.001C0.0291262 384.016 0.0271117 391.03 0.0252193 398.044C0.0251583 398.368 0.0250972 398.368 0.0250362 398.699C0.0213735 412.228 0.0191146 425.757 0.0183816 439.286C0.0183816 439.599 0.0183205 439.599 0.0183205 439.919C0.0178318 449.098 0.0176483 458.276 0.017831 467.455C0.0178919 471.148 0.0178917 474.84 0.0178916 478.533C0.0178916 479.145 0.0179526 479.758 0.0179525 480.37C0.0180132 489.731 0.0172193 499.093 0.013862 508.454C0.0138009 508.656 0.0137399 508.858 0.0136788 509.065C0.012519 512.311 0.0112371 515.557 0.0100163 518.802C0.00488876 532.109 0.00348437 545.416 0.007329 558.723C0.00787824 560.534 0.00836644 562.346 0.00879361 564.157C0.00891566 564.512 0.00897668 564.867 0.00909873 565.233C0.0104413 570.853 0.00793858 576.473 0.00378794 582.093C-0.000179588 587.621 3.27609e-06 593.148 0.00451964 598.675C0.00702194 601.915 0.00641144 605.154 0.00110124 608.394C-0.00207268 610.548 -0.00109621 612.702 0.00329823 614.855C0.00567854 616.075 0.00628884 617.294 0.00171115 618.514C-0.0368635 629.51 1.68732 639.825 8.22559 648.948C8.34216 649.111 8.45874 649.274 8.5788 649.442C15.6657 659.193 25.9946 665.229 37.7323 667.528C39.9297 667.872 42.103 668.026 44.3257 668.02C44.5771 668.02 44.8284 668.021 45.0873 668.021C45.9273 668.022 46.7672 668.021 47.6072 668.02C48.2198 668.021 48.8326 668.021 49.4453 668.022C51.1359 668.023 52.8265 668.023 54.517 668.022C56.3605 668.021 58.204 668.022 60.0475 668.023C63.2933 668.025 66.539 668.025 69.7847 668.024C73.2864 668.024 76.788 668.024 80.2896 668.025C80.5115 668.025 80.7335 668.025 80.9622 668.025C82.0954 668.026 83.2286 668.026 84.3618 668.026C92.6422 668.029 100.923 668.029 109.203 668.03C117.598 668.03 125.992 668.03 134.387 668.032C134.922 668.032 135.457 668.032 135.992 668.032C138.149 668.033 140.306 668.033 142.463 668.033C166.196 668.038 189.928 668.04 213.661 668.041C213.961 668.041 214.261 668.041 214.57 668.041C216.089 668.041 217.607 668.041 219.126 668.041C231.847 668.042 244.569 668.043 257.29 668.044C263.382 668.045 269.473 668.045 275.565 668.046C275.868 668.046 276.171 668.046 276.483 668.046C291.065 668.047 305.647 668.048 320.228 668.049C320.539 668.049 320.85 668.049 321.171 668.049C340.995 668.051 360.819 668.052 380.643 668.052C382.268 668.052 383.893 668.052 385.519 668.052C388.125 668.052 390.731 668.052 393.336 668.052C393.659 668.052 393.982 668.052 394.315 668.052C394.968 668.052 395.62 668.052 396.273 668.052C400.851 668.053 405.429 668.053 410.007 668.053C411.645 668.053 413.283 668.053 414.921 668.053C445.861 668.054 476.8 668.055 507.739 668.06C508.065 668.06 508.39 668.06 508.726 668.06C518.902 668.061 529.079 668.063 539.256 668.065C549.697 668.066 560.139 668.068 570.581 668.07C570.903 668.07 571.224 668.07 571.555 668.07C591.69 668.073 611.825 668.075 631.96 668.076C632.271 668.076 632.582 668.076 632.903 668.076C646.56 668.076 660.217 668.077 673.874 668.077C679.369 668.077 684.863 668.077 690.357 668.077C691.268 668.077 692.179 668.077 693.09 668.077C707.025 668.077 720.96 668.078 734.895 668.081C735.195 668.081 735.496 668.081 735.806 668.081C740.64 668.082 745.474 668.083 750.308 668.084C764.032 668.087 777.756 668.09 791.48 668.089C791.758 668.089 792.037 668.089 792.324 668.089C798.399 668.089 804.475 668.088 810.551 668.087C812.974 668.087 815.397 668.087 817.82 668.087C818.085 668.087 818.349 668.087 818.621 668.087C827.004 668.086 835.386 668.088 843.769 668.091C852.023 668.094 860.278 668.095 868.533 668.092C869.665 668.091 870.796 668.091 871.927 668.09C872.149 668.09 872.37 668.09 872.598 668.09C876.086 668.089 879.574 668.091 883.062 668.094C886.477 668.097 889.892 668.096 893.307 668.093C895.124 668.091 896.941 668.091 898.758 668.094C900.409 668.097 902.061 668.097 903.712 668.093C904.302 668.092 904.891 668.092 905.481 668.095C913.642 668.125 920.937 666.665 928.285 663.08C928.578 662.938 928.87 662.796 929.172 662.65C939.43 657.349 947.122 647.652 950.609 636.741C952.015 632.2 952.558 627.807 952.548 623.055C952.548 622.695 952.549 622.335 952.549 621.963C952.55 620.966 952.549 619.968 952.548 618.971C952.547 617.88 952.548 616.79 952.549 615.7C952.55 613.782 952.549 611.865 952.548 609.947C952.547 607.077 952.547 604.206 952.548 601.336C952.548 596.444 952.548 591.552 952.547 586.66C952.545 581.702 952.545 576.744 952.545 571.786C952.545 571.473 952.545 571.16 952.545 570.838C952.545 569.241 952.545 567.645 952.545 566.049C952.545 554.493 952.544 542.936 952.543 531.38C952.541 519.935 952.54 508.49 952.54 497.044C952.54 496.689 952.54 496.333 952.54 495.967C952.54 492.722 952.539 489.476 952.539 486.23C952.539 478.161 952.539 470.093 952.539 462.024C952.539 461.657 952.539 461.289 952.539 460.91C952.538 443.227 952.536 425.544 952.534 407.861C952.533 401.463 952.533 395.066 952.532 388.668C952.532 388.476 952.532 388.284 952.532 388.086C952.53 369.812 952.529 351.539 952.528 333.266C952.528 332.492 952.528 331.718 952.528 330.944C952.528 323.057 952.527 315.169 952.527 307.281C952.526 291.972 952.525 276.662 952.525 261.353C952.525 260.623 952.524 259.894 952.524 259.165C952.523 226.341 952.52 193.516 952.517 160.691C952.517 160.384 952.517 160.076 952.517 159.76C952.515 144.387 952.514 129.014 952.512 113.641C953.75 113.641 954.987 113.641 956.262 113.641ZM934.63 649.525C934.321 649.861 934.321 649.861 934.005 650.204C928.029 656.539 918.602 660.568 909.935 660.826C908.356 660.855 906.776 660.85 905.196 660.847C904.582 660.847 903.967 660.848 903.352 660.85C901.662 660.852 899.971 660.851 898.281 660.85C896.435 660.848 894.59 660.851 892.744 660.852C889.497 660.855 886.25 660.856 883.002 660.855C879.5 660.854 875.997 660.854 872.495 660.856C872.272 660.856 872.05 660.857 871.821 660.857C870.687 660.857 869.552 660.858 868.418 660.858C860.133 660.863 851.848 660.865 843.562 660.865C835.164 660.865 826.766 660.867 818.367 660.87C817.832 660.87 817.297 660.87 816.761 660.871C814.602 660.871 812.443 660.872 810.284 660.873C786.539 660.882 762.793 660.886 739.047 660.888C738.747 660.888 738.447 660.888 738.137 660.888C736.618 660.888 735.099 660.889 733.58 660.889C720.85 660.89 708.121 660.892 695.392 660.895C689.295 660.896 683.199 660.897 677.103 660.898C676.799 660.898 676.496 660.898 676.184 660.898C661.591 660.9 646.998 660.903 632.406 660.905C632.094 660.905 631.783 660.905 631.462 660.905C611.625 660.907 591.787 660.909 571.95 660.91C570.324 660.91 568.697 660.91 567.071 660.91C564.463 660.91 561.856 660.911 559.248 660.911C558.925 660.911 558.602 660.911 558.269 660.911C557.616 660.911 556.963 660.911 556.31 660.911C551.729 660.911 547.149 660.911 542.568 660.911C540.929 660.912 539.29 660.912 537.65 660.912C506.693 660.913 475.736 660.916 444.779 660.925C444.453 660.926 444.127 660.926 443.792 660.926C433.609 660.929 423.427 660.932 413.245 660.935C402.797 660.939 392.349 660.942 381.901 660.945C381.58 660.945 381.258 660.945 380.926 660.945C360.778 660.951 340.63 660.955 320.481 660.957C320.17 660.957 319.859 660.957 319.538 660.957C305.87 660.958 292.202 660.959 278.535 660.959C273.036 660.959 267.537 660.959 262.039 660.96C261.127 660.96 260.215 660.96 259.304 660.96C245.36 660.96 231.417 660.962 217.473 660.967C217.173 660.968 216.872 660.968 216.562 660.968C211.726 660.97 206.89 660.972 202.054 660.974C188.323 660.98 174.592 660.985 160.862 660.984C160.583 660.984 160.304 660.984 160.017 660.984C153.936 660.983 147.856 660.982 141.775 660.981C139.35 660.98 136.924 660.98 134.499 660.979C134.234 660.979 133.97 660.979 133.697 660.979C125.312 660.977 116.926 660.981 108.54 660.988C100.28 660.994 92.0199 660.996 83.7598 660.989C82.6271 660.988 81.4944 660.987 80.3617 660.987C80.14 660.987 79.9182 660.986 79.6897 660.986C76.2014 660.984 72.7132 660.987 69.2249 660.993C65.8071 660.999 62.3894 660.999 58.9717 660.992C57.1541 660.988 55.3367 660.988 53.5192 660.995C40.9216 661.068 40.9216 661.068 28.9918 657.312C28.8138 657.227 28.6357 657.141 28.4523 657.053C19.4063 652.656 12.4434 644.695 9.14496 635.212C7.83569 631.037 7.31635 627.065 7.32349 622.712C7.32318 622.3 7.32269 621.888 7.32208 621.476C7.3208 620.34 7.32129 619.205 7.32208 618.069C7.32263 616.83 7.32154 615.591 7.32062 614.352C7.31928 612.172 7.31903 609.991 7.3194 607.81C7.32007 604.545 7.31897 601.281 7.31757 598.016C7.31531 592.452 7.31446 586.888 7.31427 581.325C7.31415 575.685 7.31342 570.044 7.31189 564.404C7.31177 563.87 7.31177 563.87 7.31159 563.326C7.31122 561.876 7.3108 560.427 7.31043 558.977C7.30604 543.031 7.30408 527.084 7.3028 511.138C7.3028 510.835 7.30274 510.835 7.30274 510.526C7.30268 509.506 7.30262 508.486 7.30256 507.466C7.30183 498.917 7.30079 490.369 7.29963 481.82C7.29908 477.727 7.29853 473.633 7.29804 469.539C7.29798 469.335 7.29798 469.132 7.29798 468.922C7.2967 459.122 7.2956 449.323 7.29457 439.524C7.29457 439.315 7.2945 439.106 7.2945 438.89C7.29316 425.568 7.29231 412.246 7.29182 398.924C7.29182 397.832 7.29182 396.739 7.29176 395.647C7.2917 393.896 7.29164 392.145 7.29158 390.394C7.29158 390.177 7.29158 389.96 7.29158 389.736C7.29152 389.298 7.29152 388.859 7.29146 388.42C7.29139 385.344 7.29127 382.268 7.29115 379.191C7.29109 378.09 7.29103 376.99 7.29097 375.889C7.29024 355.099 7.28871 334.309 7.28407 313.52C7.28407 313.301 7.28401 313.082 7.28395 312.857C7.28243 306.019 7.28084 299.181 7.27925 292.344C7.27754 285.328 7.27596 278.312 7.27437 271.296C7.27431 271.08 7.27419 270.864 7.27419 270.642C7.27114 257.111 7.26918 243.581 7.26833 230.051C7.26833 229.842 7.26827 229.633 7.26827 229.417C7.26766 220.239 7.26735 211.06 7.26729 201.881C7.26723 198.189 7.26711 194.496 7.26705 190.803C7.26705 190.191 7.26699 189.579 7.26699 188.966C7.26681 179.603 7.26595 170.239 7.26314 160.875C7.26302 160.573 7.26308 160.573 7.26296 160.264C7.26199 157.016 7.26095 153.769 7.25985 150.521C7.25558 137.21 7.25399 123.898 7.25637 110.587C7.25668 108.775 7.25692 106.964 7.25723 105.153C7.25729 104.798 7.25735 104.443 7.25741 104.077C7.2582 98.4531 7.25601 92.8292 7.25271 87.2055C7.24948 81.6765 7.24942 76.1475 7.25253 70.6185C7.2543 67.3765 7.25369 64.1346 7.2496 60.8926C7.2471 58.7388 7.24777 56.585 7.25094 54.4312C7.25265 53.2107 7.25308 51.9903 7.2496 50.7697C7.23715 46.0974 7.22598 41.5096 8.22561 36.9207C8.28921 36.6267 8.35275 36.3326 8.41824 36.0296C8.57016 35.3671 8.74728 34.7224 8.94668 34.0726C9.01773 33.8395 9.08883 33.6063 9.16208 33.3662C10.5498 29.101 12.825 25.0513 15.7245 21.6345C15.9279 21.3913 16.1313 21.1482 16.3408 20.8977C22.8105 13.4407 31.939 8.61367 41.8398 7.72445C43.679 7.62331 45.5186 7.63656 47.36 7.64608C47.9768 7.64492 48.5937 7.64333 49.2105 7.64126C50.9005 7.63705 52.5904 7.63998 54.2804 7.64406C56.1278 7.6473 57.9751 7.64382 59.8224 7.6412C63.071 7.63729 66.3194 7.63796 69.5679 7.64132C73.0706 7.64498 76.5733 7.64608 80.076 7.64413C80.4096 7.64394 80.4096 7.644 80.75 7.64382C81.8857 7.64315 83.0215 7.64242 84.1573 7.64175C92.4455 7.6368 100.734 7.6376 109.022 7.6412C117.422 7.64486 125.822 7.64596 134.222 7.64401C134.487 7.64395 134.752 7.64395 135.025 7.64389C137.454 7.64334 139.882 7.64273 142.31 7.64212C148.4 7.64059 154.489 7.63943 160.578 7.63858C160.857 7.63858 161.136 7.63858 161.424 7.63852C175.178 7.63662 188.932 7.639 202.686 7.64187C207.527 7.64291 212.369 7.64389 217.211 7.64487C217.662 7.64493 217.662 7.64499 218.123 7.64505C232.069 7.6478 246.016 7.64786 259.962 7.64725C261.179 7.64719 262.396 7.64719 263.612 7.64713C268.502 7.64694 273.392 7.6467 278.282 7.64645C292.265 7.64584 306.248 7.6456 320.231 7.64572C320.543 7.64572 320.854 7.64572 321.175 7.64572C341.339 7.64585 361.503 7.64768 381.667 7.65079C381.989 7.65085 382.311 7.65085 382.642 7.65091C393.425 7.65256 404.208 7.65439 414.99 7.65617C447.599 7.66148 480.207 7.66514 538.442 7.66179C540.081 7.66166 541.72 7.66154 543.359 7.66142C543.683 7.66142 544.008 7.66136 544.342 7.66136C545.324 7.6613 546.307 7.66124 547.289 7.66111C547.613 7.66111 547.937 7.66111 548.271 7.66105C555.45 7.66057 562.629 7.66008 569.809 7.65959C570.459 7.65953 571.109 7.65947 571.759 7.65947C591.913 7.65813 612.067 7.65782 632.221 7.6588C632.688 7.65886 632.688 7.65886 633.165 7.65892C647.446 7.65959 661.727 7.66069 676.008 7.66198C677.539 7.66216 679.069 7.66228 680.6 7.6624C680.902 7.66246 681.205 7.66246 681.517 7.66246C683.957 7.66271 686.398 7.66289 688.839 7.66314C690.359 7.66326 691.879 7.66338 693.4 7.66356C707.347 7.66485 721.294 7.66558 735.24 7.66466C735.541 7.66466 735.842 7.6646 736.152 7.6646C739.484 7.66436 742.816 7.66411 746.149 7.66387C747.355 7.66381 748.561 7.66369 749.767 7.66363C750.065 7.66357 750.362 7.66357 750.669 7.66357C764.404 7.66259 778.14 7.66216 791.875 7.66491C792.153 7.66491 792.432 7.66497 792.719 7.66503C798.798 7.66625 804.876 7.66772 810.955 7.66949C813.379 7.67016 815.803 7.67077 818.227 7.67144C818.492 7.6715 818.756 7.67156 819.029 7.67162C827.418 7.67388 835.808 7.67352 844.198 7.67156C852.458 7.66967 860.718 7.67034 868.978 7.67498C870.109 7.67559 871.241 7.6762 872.372 7.67682C872.704 7.67694 872.704 7.67694 873.043 7.67712C876.535 7.67889 880.027 7.67773 883.519 7.67535C886.935 7.67309 890.352 7.67395 893.768 7.67798C895.587 7.68005 897.406 7.68072 899.225 7.67755C900.876 7.67474 902.527 7.67596 904.178 7.6803C904.77 7.68115 905.361 7.68054 905.952 7.67834C917.217 7.63898 926.857 11.3348 934.937 19.2371C940.389 24.7213 943.652 31.6485 945.013 39.2281C945.089 39.6328 945.089 39.6328 945.166 40.0455C945.406 41.7682 945.341 43.514 945.338 45.2493C945.339 45.6622 945.339 46.0752 945.34 46.4882C945.341 47.6274 945.34 48.7667 945.339 49.9059C945.339 51.1483 945.34 52.3906 945.34 53.633C945.342 55.8203 945.342 58.0076 945.341 60.1948C945.34 63.4693 945.341 66.7438 945.342 70.0182C945.344 75.5983 945.344 81.1783 945.344 86.7584C945.344 92.4155 945.344 98.0725 945.345 103.73C945.345 104.086 945.345 104.443 945.345 104.811C945.345 106.265 945.346 107.719 945.346 109.172C945.349 124.145 945.35 139.118 945.35 154.091C945.35 155.724 945.35 157.358 945.35 158.991C945.35 159.401 945.35 159.81 945.35 160.219C945.35 169.405 945.351 178.592 945.352 187.778C945.352 189.827 945.352 191.877 945.352 193.927C945.352 194.232 945.352 194.232 945.352 194.544C945.352 195.779 945.352 197.014 945.352 198.249C945.352 198.867 945.352 199.486 945.352 200.105C945.353 209.725 945.354 219.345 945.354 228.965C945.354 229.174 945.354 229.384 945.354 229.6C945.355 242.958 945.355 256.317 945.355 269.676C945.355 270.333 945.355 270.99 945.355 271.647C945.355 276.262 945.355 280.878 945.355 285.493C945.355 286.817 945.355 288.14 945.355 289.463C945.355 290.567 945.355 291.671 945.355 292.775C945.355 313.624 945.355 334.473 945.358 355.323C945.358 355.542 945.358 355.762 945.358 355.988C945.359 362.846 945.36 369.704 945.361 376.562C945.362 383.598 945.363 390.635 945.364 397.672C945.364 397.889 945.364 398.105 945.364 398.328C945.366 411.897 945.367 425.466 945.368 439.034C945.368 439.349 945.368 439.349 945.368 439.669C945.368 448.872 945.368 458.075 945.368 467.279C945.368 470.981 945.368 474.683 945.368 478.386C945.368 479 945.368 479.614 945.368 480.227C945.368 489.618 945.368 499.008 945.37 508.399C945.37 508.601 945.37 508.804 945.37 509.012C945.37 512.27 945.371 515.528 945.372 518.786C945.374 532.135 945.375 545.484 945.373 558.833C945.373 560.649 945.373 562.465 945.372 564.28C945.372 564.636 945.372 564.992 945.372 565.359C945.371 571 945.373 576.642 945.375 582.283C945.377 587.827 945.377 593.371 945.374 598.915C945.373 602.168 945.373 605.42 945.376 608.673C945.378 610.831 945.377 612.99 945.375 615.149C945.374 616.374 945.374 617.598 945.376 618.823C945.378 619.935 945.377 621.048 945.375 622.16C945.374 622.744 945.376 623.328 945.378 623.912C945.339 633.769 941.47 642.523 934.63 649.525Z" fill="#851970"/>
<path d="M939.858 620.929C939.858 620.519 939.859 620.108 939.86 619.697C939.861 618.568 939.86 617.438 939.86 616.309C939.859 615.076 939.86 613.843 939.861 612.61C939.862 610.441 939.863 608.271 939.862 606.102C939.862 602.854 939.863 599.606 939.864 596.358C939.866 590.823 939.867 585.288 939.867 579.753C939.867 574.142 939.868 568.532 939.87 562.921C939.87 562.567 939.87 562.213 939.87 561.848C939.87 560.405 939.871 558.963 939.871 557.521C939.876 541.656 939.878 525.792 939.879 509.928C939.879 509.627 939.879 509.627 939.879 509.32C939.879 508.305 939.879 507.29 939.879 506.275C939.88 497.771 939.881 489.266 939.882 480.762C939.883 476.689 939.883 472.615 939.884 468.542C939.884 468.34 939.884 468.137 939.884 467.928C939.885 458.178 939.886 448.428 939.887 438.678C939.887 438.366 939.887 438.366 939.887 438.048C939.889 424.794 939.889 411.54 939.89 398.286C939.89 397.199 939.89 396.113 939.89 395.026C939.89 393.284 939.89 391.542 939.89 389.8C939.89 389.584 939.89 389.368 939.89 389.146C939.89 388.709 939.89 388.273 939.89 387.837C939.89 384.776 939.89 381.716 939.891 378.655C939.891 377.56 939.891 376.465 939.891 375.37C939.891 354.688 939.893 334.005 939.898 313.323C939.898 312.996 939.898 312.996 939.898 312.663C939.899 305.861 939.901 299.058 939.902 292.256C939.904 285.276 939.906 278.296 939.907 271.316C939.907 270.993 939.907 270.993 939.907 270.665C939.91 257.203 939.912 243.742 939.913 230.28C939.913 229.968 939.913 229.968 939.913 229.65C939.914 220.518 939.914 211.386 939.914 202.254C939.914 198.58 939.915 194.906 939.915 191.232C939.915 190.623 939.915 190.013 939.915 189.404C939.915 180.089 939.916 170.773 939.919 161.457C939.919 161.256 939.919 161.056 939.919 160.849C939.92 157.618 939.921 154.388 939.922 151.157C939.926 137.914 939.928 124.671 939.925 111.428C939.925 109.626 939.925 107.824 939.924 106.022C939.924 105.669 939.924 105.316 939.924 104.952C939.924 99.3572 939.926 93.7628 939.929 88.1685C939.932 82.6679 939.932 77.1674 939.929 71.6668C939.927 68.4418 939.928 65.2169 939.932 61.9919C939.935 59.8491 939.934 57.7062 939.931 55.5634C939.929 54.3493 939.929 53.1353 939.932 51.9212C939.959 41.7341 938.947 32.9385 932.322 24.8074C932.058 24.4711 932.058 24.4711 931.787 24.1281C927.004 18.3655 919.204 14.5012 911.845 13.559C909.812 13.4073 907.77 13.4428 905.733 13.4506C905.118 13.4498 904.502 13.4485 903.887 13.447C902.196 13.4437 900.504 13.4458 898.813 13.4489C896.966 13.4512 895.119 13.4484 893.273 13.4463C890.023 13.4433 886.774 13.4437 883.525 13.4461C880.02 13.4487 876.516 13.4493 873.011 13.4477C872.678 13.4476 872.678 13.4476 872.338 13.4474C871.202 13.4469 870.067 13.4463 868.932 13.4457C860.642 13.4416 852.352 13.4419 844.062 13.4443C835.659 13.4467 827.256 13.4472 818.853 13.4454C818.588 13.4453 818.323 13.4452 818.05 13.4452C815.622 13.4446 813.193 13.4441 810.765 13.4436C804.676 13.4423 798.586 13.4411 792.497 13.4402C792.218 13.4402 791.939 13.4401 791.651 13.4401C777.893 13.4381 764.136 13.4395 750.378 13.4412C749.775 13.4412 749.172 13.4413 748.569 13.4413C748.121 13.4414 748.121 13.4414 747.664 13.4415C743.725 13.4419 739.786 13.4424 735.847 13.4429C735.546 13.4429 735.245 13.4429 734.934 13.4429C720.985 13.4444 707.036 13.4441 693.086 13.4433C691.565 13.4432 690.043 13.4432 688.522 13.443C683.936 13.4428 679.35 13.4426 674.764 13.4422C660.78 13.4415 646.795 13.441 632.811 13.4407C632.499 13.4407 632.188 13.4407 631.867 13.4407C611.699 13.4403 591.531 13.4413 571.363 13.4432C571.041 13.4432 570.719 13.4432 570.387 13.4433C559.602 13.4443 548.816 13.4454 538.03 13.4465C505.414 13.4497 472.798 13.4516 414.55 13.4463C403.767 13.4452 392.985 13.4442 382.202 13.4432C381.88 13.4432 381.558 13.4431 381.227 13.443C361.069 13.4411 340.912 13.4403 320.755 13.4407C320.288 13.4407 320.288 13.4407 319.812 13.4407C305.835 13.441 291.858 13.4415 277.881 13.4424C273.297 13.4426 268.713 13.4428 264.129 13.4431C262.609 13.4432 261.088 13.4433 259.567 13.4434C245.618 13.4442 231.668 13.4444 217.718 13.4428C217.417 13.4428 217.117 13.4427 216.807 13.4427C212.87 13.4422 208.933 13.4418 204.996 13.4413C204.698 13.4413 204.399 13.4413 204.092 13.4412C203.49 13.4411 202.887 13.4411 202.285 13.441C188.546 13.4394 174.808 13.4382 161.069 13.4402C160.79 13.4403 160.512 13.4403 160.225 13.4403C154.145 13.4412 148.065 13.4423 141.985 13.4438C139.561 13.4443 137.136 13.4449 134.711 13.4453C134.314 13.4455 134.314 13.4454 133.91 13.4455C125.517 13.4473 117.125 13.4464 108.733 13.444C100.471 13.4417 92.2085 13.4419 83.9463 13.4461C82.8149 13.4466 81.6836 13.4472 80.5522 13.4477C80.3307 13.4478 80.1092 13.4479 79.8809 13.448C76.3877 13.4495 72.8945 13.4481 69.4012 13.4456C65.984 13.4431 62.5667 13.4438 59.1494 13.4476C57.33 13.4495 55.5106 13.4502 53.6911 13.4469C52.0397 13.444 50.3883 13.445 48.7369 13.4493C48.1453 13.4501 47.5537 13.4495 46.9621 13.4472C42.6418 13.4319 38.5719 13.7742 34.4532 15.1994C34.131 15.31 34.131 15.31 33.8023 15.4228C25.628 18.3416 19.4209 24.5755 15.6847 32.3331C13.7414 36.6238 12.994 41.1444 13.0194 45.8209C13.0185 46.2365 13.0172 46.6522 13.0156 47.0678C13.0122 48.2035 13.0142 49.3391 13.0172 50.4748C13.0194 51.7173 13.0166 52.9598 13.0144 54.2024C13.0113 56.3863 13.0114 58.5703 13.0136 60.7542C13.0169 64.0238 13.0151 67.2932 13.0124 70.5627C13.008 76.1353 13.0076 81.7079 13.0095 87.2805C13.0114 92.9277 13.0115 98.5749 13.0092 104.222C13.009 104.757 13.009 104.757 13.0088 105.303C13.0082 106.756 13.0076 108.209 13.007 109.661C13.0013 123.193 13 136.725 13.0014 150.257C13.0014 150.457 13.0015 150.657 13.0015 150.864C13.0015 151.675 13.0017 152.487 13.0018 153.298C13.002 155.539 13.0022 157.781 13.0025 160.022C13.0025 160.325 13.0025 160.325 13.0025 160.635C13.0034 170.014 13.0026 179.392 13.0012 188.77C13.0011 189.794 13.001 190.817 13.0009 191.84C13.0006 193.482 13.0004 195.124 13.0001 196.767C13.0001 196.97 13.0001 197.174 13.0001 197.384C13 198.414 12.9998 199.443 12.9997 200.473C12.9983 210.084 12.9973 219.695 12.9966 229.305C12.9966 229.619 12.9967 229.619 12.9966 229.94C12.9956 243.501 12.996 257.062 12.9973 270.623C12.9974 271.061 12.9974 271.498 12.9975 271.936C12.9979 276.765 12.9984 281.594 12.9989 286.423C12.999 286.641 12.999 286.859 12.999 287.083C12.9991 287.744 12.9992 288.405 12.9992 289.066C12.9993 289.393 12.9993 289.393 12.9993 289.727C12.9994 290.829 12.9995 291.931 12.9996 293.033C13.002 314.96 13.0025 336.886 12.9937 376.042C12.992 383.29 12.9902 390.538 12.9886 397.786C12.9885 398.111 12.9885 398.111 12.9884 398.442C12.9854 411.995 12.9837 425.548 12.9835 439.101C12.9835 439.31 12.9835 439.52 12.9835 439.735C12.9834 449.135 12.9837 458.535 12.9844 467.935C12.9846 471.223 12.9847 474.511 12.9849 477.798C12.985 478.616 12.985 479.434 12.9851 480.252C12.9856 489.63 12.9854 499.009 12.9827 508.387C12.9826 508.589 12.9826 508.791 12.9826 509C12.9816 512.252 12.9806 515.504 12.9796 518.757C12.9753 532.453 12.9753 546.148 12.9804 559.844C12.9808 561.293 12.9813 562.741 12.9818 564.19C12.9819 564.546 12.9821 564.901 12.9822 565.268C12.984 570.899 12.9819 576.531 12.9783 582.163C12.9748 587.699 12.9754 593.236 12.9804 598.773C12.9832 602.019 12.9829 605.266 12.9778 608.512C12.9749 610.669 12.976 612.826 12.9806 614.982C12.9831 616.204 12.9838 617.427 12.9794 618.649C12.9463 628.385 14.3978 637.179 21.2039 644.622C21.4225 644.864 21.6411 645.106 21.8663 645.355C25.6172 649.308 30.2699 651.913 35.3906 653.671C35.5888 653.74 35.787 653.809 35.9913 653.88C39.8389 655.125 43.7254 655.088 47.7209 655.078C48.3354 655.079 48.95 655.079 49.5646 655.081C51.2563 655.083 52.9481 655.082 54.6399 655.08C56.4861 655.079 58.3323 655.081 60.1786 655.082C63.4279 655.085 66.6771 655.085 69.9264 655.084C73.4312 655.082 76.9359 655.082 80.4407 655.084C80.663 655.084 80.8853 655.084 81.1143 655.084C82.2493 655.084 83.3843 655.085 84.5192 655.085C92.8088 655.089 101.098 655.09 109.388 655.089C117.791 655.089 126.194 655.089 134.597 655.091C135.133 655.091 135.669 655.092 136.205 655.092C138.364 655.092 140.524 655.093 142.684 655.093C148.773 655.095 154.862 655.096 160.95 655.098C161.229 655.098 161.508 655.098 161.796 655.098C177.668 655.101 193.539 655.101 209.411 655.101C211.837 655.101 214.264 655.101 216.69 655.101C217.298 655.101 217.906 655.101 218.515 655.101C232.16 655.102 245.806 655.103 259.452 655.104C262.497 655.105 265.542 655.105 268.587 655.105C268.889 655.105 269.191 655.105 269.503 655.105C271.338 655.106 273.172 655.106 275.007 655.106C275.926 655.106 276.845 655.106 277.764 655.106C292.055 655.108 306.346 655.109 320.637 655.11C320.948 655.11 321.259 655.11 321.58 655.11C341.424 655.112 361.267 655.112 381.111 655.112C382.086 655.112 383.062 655.112 384.038 655.112C390.894 655.112 397.749 655.112 404.605 655.112C406.571 655.112 408.536 655.112 410.502 655.112C412.142 655.112 413.781 655.112 415.421 655.112C446.391 655.112 477.362 655.112 508.332 655.118C508.658 655.118 508.984 655.118 509.32 655.118C519.509 655.12 529.697 655.122 539.885 655.124C550.339 655.126 560.793 655.128 571.247 655.13C571.569 655.13 571.891 655.13 572.222 655.13C592.379 655.133 612.536 655.136 632.692 655.136C633.004 655.136 633.315 655.136 633.636 655.136C647.306 655.137 660.977 655.137 674.647 655.137C680.147 655.137 685.647 655.137 691.146 655.137C692.058 655.137 692.97 655.137 693.882 655.137C707.831 655.137 721.781 655.138 735.73 655.141C736.031 655.141 736.332 655.141 736.642 655.141C741.482 655.142 746.322 655.144 751.162 655.145C764.901 655.148 778.639 655.151 792.378 655.15C792.657 655.15 792.936 655.15 793.223 655.15C799.303 655.149 805.384 655.149 811.464 655.147C813.889 655.147 816.314 655.146 818.739 655.146C819.004 655.146 819.268 655.146 819.541 655.146C827.933 655.144 836.325 655.146 844.717 655.151C852.979 655.155 861.242 655.155 869.505 655.151C870.636 655.15 871.768 655.149 872.9 655.149C873.122 655.149 873.343 655.149 873.571 655.149C877.064 655.147 880.557 655.149 884.049 655.153C887.467 655.157 890.885 655.156 894.303 655.152C896.122 655.149 897.941 655.149 899.76 655.153C901.412 655.157 903.064 655.156 904.716 655.15C905.307 655.149 905.899 655.15 906.49 655.153C914.806 655.194 922.562 652.792 928.861 647.218C929.058 647.062 929.255 646.907 929.457 646.747C935.33 642.025 938.877 634.002 939.689 626.631C939.87 624.731 939.861 622.836 939.858 620.929ZM927.216 644.057C921.59 648.851 914.991 651.602 907.548 651.58C907.298 651.581 907.048 651.581 906.791 651.582C905.952 651.583 905.113 651.582 904.274 651.581C903.664 651.581 903.053 651.582 902.443 651.582C900.756 651.583 899.069 651.583 897.381 651.582C895.543 651.582 893.704 651.583 891.865 651.584C888.627 651.585 885.389 651.585 882.151 651.585C878.657 651.584 875.163 651.585 871.669 651.586C871.448 651.586 871.226 651.586 870.998 651.586C869.868 651.586 868.738 651.586 867.608 651.587C859.347 651.589 851.086 651.59 842.825 651.59C834.45 651.59 826.074 651.591 817.699 651.592C817.165 651.592 816.632 651.593 816.098 651.593C813.946 651.593 811.794 651.593 809.643 651.594C785.966 651.598 762.29 651.6 738.614 651.601C738.314 651.601 738.015 651.601 737.706 651.601C736.191 651.602 734.676 651.602 733.161 651.602C720.47 651.602 707.78 651.603 695.089 651.605C689.012 651.605 682.936 651.606 676.859 651.606C676.557 651.606 676.255 651.606 675.943 651.606C661.398 651.608 646.853 651.609 632.307 651.61C631.997 651.61 631.687 651.61 631.367 651.61C611.592 651.611 591.817 651.612 572.041 651.612C570.42 651.612 568.798 651.612 567.177 651.613C564.578 651.613 561.978 651.613 559.378 651.613C559.056 651.613 558.734 651.613 558.402 651.613C557.751 651.613 557.1 651.613 556.449 651.613C551.882 651.613 547.315 651.613 542.748 651.613C541.114 651.613 539.48 651.613 537.846 651.613C506.98 651.614 476.115 651.616 445.25 651.62C444.925 651.62 444.6 651.62 444.265 651.62C434.112 651.622 423.96 651.623 413.807 651.625C403.39 651.627 392.972 651.628 382.555 651.63C382.234 651.63 381.914 651.63 381.583 651.63C361.497 651.633 341.411 651.635 321.325 651.636C321.015 651.636 320.705 651.636 320.385 651.636C306.762 651.637 293.139 651.637 279.517 651.637C274.036 651.637 268.556 651.637 263.075 651.637C262.167 651.637 261.258 651.637 260.349 651.637C246.448 651.637 232.546 651.638 218.645 651.641C218.345 651.641 218.045 651.641 217.736 651.641C212.913 651.642 208.089 651.643 203.266 651.644C189.574 651.647 175.882 651.65 162.19 651.649C161.912 651.649 161.634 651.649 161.348 651.649C155.288 651.649 149.228 651.649 143.168 651.648C140.751 651.648 138.335 651.647 135.918 651.647C135.654 651.647 135.391 651.647 135.119 651.647C126.755 651.646 118.392 651.648 110.028 651.651C101.793 651.654 93.5586 651.655 85.3237 651.652C84.1958 651.652 83.0678 651.651 81.9399 651.651C81.7191 651.651 81.4982 651.651 81.2707 651.651C77.7898 651.649 74.3088 651.651 70.8279 651.654C67.4216 651.657 64.0154 651.657 60.6091 651.653C58.796 651.652 56.9828 651.651 55.1697 651.655C53.5233 651.658 51.8769 651.657 50.2305 651.653C49.6413 651.652 49.0521 651.653 48.463 651.655C40.4252 651.685 32.5221 650.218 26.3954 644.622C26.1758 644.423 26.1758 644.423 25.9517 644.22C20.5405 639.258 17.1008 632.674 16.5892 625.298C16.5495 623.936 16.5501 622.575 16.5524 621.213C16.552 620.802 16.5515 620.39 16.551 619.979C16.5497 618.848 16.5501 617.718 16.551 616.587C16.5515 615.352 16.5504 614.118 16.5494 612.883C16.5481 610.711 16.5479 608.539 16.5483 606.367C16.5489 603.115 16.5478 599.863 16.5465 596.611C16.5442 591.069 16.5433 585.527 16.5432 579.985C16.543 574.367 16.5422 568.75 16.5407 563.132C16.5406 562.6 16.5406 562.6 16.5405 562.058C16.54 560.613 16.5397 559.169 16.5392 557.725C16.5349 541.842 16.533 525.958 16.5316 510.074C16.5316 509.874 16.5316 509.673 16.5316 509.466C16.5315 508.45 16.5314 507.433 16.5314 506.417C16.5307 497.903 16.5296 489.388 16.5285 480.874C16.528 476.796 16.5274 472.718 16.5269 468.64C16.5268 468.336 16.5269 468.336 16.5268 468.026C16.5255 458.264 16.5244 448.503 16.5234 438.742C16.5234 438.43 16.5234 438.43 16.5233 438.111C16.522 424.843 16.5211 411.574 16.5207 398.305C16.5206 397.217 16.5206 396.129 16.5206 395.041C16.5205 393.297 16.5205 391.553 16.5204 389.809C16.5204 389.593 16.5204 389.377 16.5204 389.154C16.5204 388.717 16.5203 388.281 16.5203 387.844C16.5202 384.78 16.5201 381.716 16.52 378.652C16.5199 377.556 16.5198 376.459 16.5198 375.363C16.5191 354.656 16.5176 333.949 16.513 313.242C16.513 313.024 16.5129 312.807 16.5128 312.582C16.5114 305.771 16.5097 298.96 16.5081 292.148C16.5064 285.16 16.5048 278.171 16.5032 271.182C16.5032 270.967 16.5031 270.752 16.5031 270.53C16.5 257.053 16.498 243.575 16.4971 230.098C16.4971 229.786 16.4972 229.786 16.4971 229.467C16.4965 220.325 16.4962 211.183 16.4961 202.041C16.4961 198.363 16.496 194.685 16.4959 191.007C16.4959 190.397 16.4958 189.788 16.4958 189.178C16.4956 179.851 16.4948 170.524 16.492 161.198C16.4919 160.996 16.4919 160.795 16.4918 160.588C16.4908 157.353 16.4898 154.118 16.4887 150.883C16.4844 137.625 16.4828 124.367 16.4852 111.108C16.4855 109.305 16.4857 107.501 16.486 105.697C16.4861 105.167 16.4862 105.167 16.4862 104.626C16.487 99.0237 16.4849 93.4217 16.4816 87.8198C16.4784 82.3133 16.4782 76.8067 16.4814 71.3001C16.4832 68.0707 16.4826 64.8413 16.4784 61.6119C16.4759 59.4671 16.4766 57.3224 16.4798 55.1776C16.4815 53.9618 16.4819 52.7461 16.4784 51.5302C16.4545 42.5506 17.1572 33.7825 23.5113 26.8263C23.6439 26.6799 23.7766 26.5334 23.9134 26.3825C29.0998 20.726 36.0612 17.3812 43.776 16.9867C45.5766 16.9334 47.3777 16.943 49.1789 16.9474C49.7917 16.9469 50.4043 16.946 51.0171 16.9449C52.7024 16.9426 54.3878 16.9439 56.0731 16.9458C57.9129 16.9473 59.7528 16.9453 61.5926 16.9439C64.83 16.9416 68.0673 16.9417 71.3048 16.9431C74.7966 16.9447 78.2884 16.9448 81.7802 16.9436C82.0017 16.9435 82.2232 16.9434 82.4514 16.9434C83.5824 16.943 84.7134 16.9425 85.8444 16.9421C94.1039 16.9389 102.363 16.9386 110.623 16.9397C118.995 16.9408 127.368 16.9406 135.74 16.939C136.136 16.9389 136.136 16.9389 136.54 16.9389C138.959 16.9384 141.378 16.9379 143.798 16.9374C149.865 16.9361 155.931 16.9351 161.998 16.9342C162.415 16.9342 162.415 16.9341 162.841 16.934C176.548 16.932 190.256 16.9322 203.964 16.9326C204.261 16.9326 204.558 16.9326 204.864 16.9326C206.067 16.9327 207.27 16.9328 208.473 16.9328C211.796 16.9329 215.119 16.933 218.442 16.9331C218.742 16.9331 219.042 16.9331 219.351 16.9331C232.947 16.9336 246.543 16.9328 260.139 16.9318C261.958 16.9317 263.776 16.9316 265.595 16.9314C265.895 16.9314 266.196 16.9314 266.506 16.9313C267.113 16.9313 267.721 16.9312 268.329 16.9312C269.85 16.9311 271.372 16.931 272.894 16.9309C273.196 16.9309 273.497 16.9309 273.808 16.9308C275.334 16.9307 276.86 16.9306 278.385 16.9305C292.624 16.9295 306.863 16.9286 321.101 16.928C321.412 16.928 321.722 16.928 322.042 16.928C341.812 16.9271 361.583 16.9271 381.354 16.9278C382.326 16.9278 383.298 16.9279 384.271 16.928C391.427 16.9282 398.584 16.9284 405.741 16.9287C406.393 16.9287 407.046 16.9287 407.699 16.9288C408.352 16.9288 409.005 16.9289 409.657 16.9289C409.981 16.9289 410.304 16.9289 410.637 16.9289C412.271 16.929 413.904 16.9291 415.538 16.9292C446.395 16.9303 477.252 16.9306 508.109 16.927C508.434 16.927 508.759 16.927 509.094 16.927C518.918 16.9258 528.743 16.9245 538.568 16.9233C549.31 16.9219 560.053 16.9205 570.796 16.9192C571.117 16.9191 571.438 16.9191 571.768 16.919C591.851 16.9165 611.935 16.9151 632.018 16.9149C632.328 16.9149 632.638 16.9148 632.958 16.9148C646.578 16.9147 660.199 16.9148 673.819 16.9151C678.996 16.9153 684.172 16.9154 689.348 16.9155C690.56 16.9155 691.771 16.9155 692.983 16.9156C706.882 16.9159 720.781 16.9156 734.679 16.9134C734.979 16.9133 735.279 16.9133 735.588 16.9133C740.41 16.9125 745.233 16.9117 750.055 16.9109C763.744 16.9086 777.432 16.9067 791.121 16.908C791.537 16.908 791.537 16.908 791.962 16.908C798.02 16.9086 804.078 16.9094 810.136 16.9105C812.552 16.9109 814.968 16.9113 817.384 16.9117C817.78 16.9117 817.78 16.9118 818.183 16.9119C826.544 16.9131 834.906 16.9118 843.267 16.9089C851.499 16.9061 859.732 16.9059 867.964 16.9096C869.091 16.9101 870.219 16.9105 871.346 16.911C871.567 16.9111 871.788 16.9112 872.015 16.9113C875.495 16.9126 878.976 16.9111 882.456 16.9083C885.861 16.9056 889.266 16.9061 892.671 16.9097C894.484 16.9115 896.296 16.912 898.109 16.9087C899.755 16.9056 901.4 16.9067 903.046 16.9108C903.635 16.9116 904.224 16.9109 904.814 16.9086C913.923 16.8755 921.627 19.3063 928.339 25.6006C932.652 30.1419 936.107 36.8836 936.108 43.2531C936.109 43.7741 936.109 43.7742 936.111 44.3057C936.11 44.6913 936.109 45.0768 936.109 45.4623C936.109 45.8741 936.11 46.2859 936.11 46.6977C936.111 47.8363 936.111 48.975 936.11 50.1136C936.11 51.3543 936.111 52.595 936.112 53.8357C936.113 56.0209 936.113 58.2062 936.113 60.3914C936.112 63.6628 936.113 66.9343 936.115 70.2057C936.117 75.7805 936.118 81.3552 936.118 86.9299C936.118 92.5821 936.119 98.2342 936.12 103.886C936.12 104.243 936.121 104.599 936.121 104.967C936.121 106.419 936.121 107.871 936.122 109.323C936.126 125.301 936.128 141.279 936.129 157.257C936.129 157.561 936.129 157.561 936.129 157.87C936.13 158.892 936.13 159.915 936.13 160.937C936.13 169.502 936.131 178.067 936.133 186.632C936.133 190.733 936.134 194.834 936.134 198.935C936.134 199.139 936.134 199.343 936.134 199.553C936.136 209.369 936.137 219.186 936.138 229.003C936.138 229.317 936.138 229.317 936.138 229.637C936.139 242.984 936.14 256.331 936.14 269.677C936.14 270.772 936.14 271.866 936.14 272.96C936.141 274.715 936.141 276.469 936.141 278.224C936.141 278.441 936.141 278.659 936.141 278.883C936.141 279.322 936.141 279.762 936.141 280.201C936.141 283.283 936.141 286.366 936.141 289.448C936.141 290.551 936.141 291.654 936.141 292.757C936.142 313.587 936.143 334.418 936.148 355.248C936.148 355.468 936.148 355.687 936.148 355.913C936.15 362.764 936.151 369.615 936.153 376.467C936.155 383.496 936.156 390.526 936.158 397.556C936.158 397.772 936.158 397.989 936.158 398.212C936.161 411.767 936.163 425.323 936.164 438.878C936.164 439.088 936.164 439.297 936.164 439.513C936.165 448.707 936.165 457.902 936.165 467.097C936.165 470.796 936.165 474.495 936.165 478.194C936.165 478.807 936.165 479.42 936.165 480.034C936.165 489.416 936.166 498.797 936.169 508.179C936.169 508.381 936.169 508.584 936.169 508.792C936.17 512.047 936.171 515.301 936.172 518.556C936.177 531.893 936.178 545.231 936.176 558.568C936.176 560.382 936.175 562.196 936.175 564.01C936.175 564.366 936.175 564.722 936.175 565.088C936.174 570.724 936.176 576.361 936.179 581.997C936.183 587.536 936.183 593.075 936.18 598.615C936.178 601.864 936.179 605.113 936.183 608.362C936.185 610.52 936.184 612.677 936.181 614.834C936.18 616.057 936.179 617.281 936.183 618.504C936.186 619.616 936.185 620.728 936.181 621.84C936.18 622.422 936.183 623.005 936.186 623.587C936.141 631.322 932.834 638.721 927.216 644.057Z" fill="#851970"/>
<path d="M868.601 257.965C868.601 257.745 868.601 257.524 868.601 257.296C868.602 235.699 868.602 214.102 868.6 176.526C868.599 175.029 868.599 173.531 868.599 172.034C868.598 151.063 868.596 130.093 868.581 40.0936C839.003 40.0594 809.425 40.0265 755.339 39.9692C753.998 39.9678 752.657 39.9664 751.316 39.965C729.554 39.9421 707.792 39.9198 346.612 39.6501C345.305 39.6493 343.998 39.6485 342.69 39.6477C342.367 39.6475 342.043 39.6473 341.71 39.6471C335.159 39.643 328.607 39.639 322.056 39.635C290.851 39.6157 259.647 39.5967 224.887 39.576C223.708 39.5752 222.53 39.5745 221.352 39.5738C220.916 39.5736 220.916 39.5736 220.471 39.5733C216.107 39.5707 211.744 39.5681 207.38 39.5655C195.272 39.5581 183.164 39.5509 171.055 39.5439C170.025 39.5433 168.994 39.5427 167.964 39.5421C167.585 39.5419 167.585 39.5419 167.198 39.5417C163.763 39.5397 160.327 39.5376 156.892 39.5356C151.26 39.5321 145.627 39.5288 139.995 39.5257C139.784 39.5255 139.572 39.5255 139.354 39.5254C121.025 39.5152 102.697 39.5142 84.3679 39.5167C84.359 53.6668 84.3502 67.8169 84.3414 81.9669C84.3411 82.3828 84.3412 82.3828 84.3409 82.8072C84.3223 112.72 84.3038 142.632 84.2854 172.544C84.2851 173.214 84.2846 173.884 84.2841 174.555C84.2755 188.641 84.2669 202.727 84.2583 216.814C84.254 223.897 84.2497 230.981 84.2453 238.065C84.2446 239.133 84.244 240.201 84.2433 241.269C84.2334 257.573 84.2234 273.878 84.2132 290.182C84.2128 290.701 84.2128 290.701 84.2125 291.231C84.209 296.809 84.2056 302.387 84.202 307.965C84.1919 324.178 84.1818 340.39 84.1719 356.603C84.1717 356.941 84.1715 357.28 84.1713 357.629C84.1668 365.091 84.1622 372.554 84.1577 380.016C84.1559 383.026 84.154 386.036 84.1522 389.046C84.1519 389.54 84.1519 389.54 84.1516 390.044C84.1457 399.749 84.1397 409.453 84.1335 419.158C84.1239 434.17 84.1146 449.182 84.106 464.193C84.1058 464.487 84.1056 464.78 84.1054 465.083C84.0878 495.272 84.0766 525.461 84.0795 628.47C112.745 628.56 141.412 628.641 258.732 628.818C259.073 628.818 259.415 628.818 259.766 628.818C277.699 628.829 295.632 628.837 313.565 628.844C324.446 628.848 335.326 628.853 346.207 628.858C346.795 628.859 347.383 628.859 347.971 628.859C351.521 628.861 355.071 628.863 358.621 628.864C367.431 628.869 376.241 628.873 385.051 628.877C385.251 628.877 385.452 628.877 385.658 628.878C398.496 628.884 411.333 628.889 424.171 628.895C424.374 628.895 424.577 628.895 424.786 628.895C430.957 628.898 437.127 628.901 443.297 628.903C450.116 628.906 456.936 628.909 463.755 628.912C463.96 628.912 464.165 628.912 464.376 628.912C483.862 628.921 503.348 628.93 522.834 628.939C523.867 628.94 524.9 628.94 525.934 628.941C530.059 628.943 534.184 628.945 538.308 628.947C538.614 628.947 538.614 628.947 538.926 628.947C541.188 628.948 543.449 628.949 545.711 628.95C565.753 628.96 585.794 628.969 631.121 628.99C636.46 628.993 641.798 628.995 647.136 628.998C667.633 629.007 688.129 629.016 708.625 629.025C708.963 629.025 709.301 629.025 709.65 629.025C741.168 629.039 772.686 629.049 868.293 629.047C868.332 597.817 868.37 566.587 868.435 507.673C868.437 506.291 868.438 504.909 868.44 503.527C868.462 483.637 868.483 463.748 868.517 428.21C868.517 428.001 868.518 427.793 868.518 427.578C868.538 406.159 868.556 384.739 868.601 257.965ZM865.112 73.5266C865.111 75.7734 865.11 78.0204 865.109 80.2673C865.106 84.9854 865.104 89.7035 865.101 94.4216C865.099 97.8801 865.097 101.339 865.095 104.797C865.081 131.655 865.066 158.512 865.05 185.37C865.05 185.844 865.05 185.844 865.05 186.328C865.041 200.732 865.033 215.137 865.024 229.542C865.021 235.603 865.017 241.663 865.014 247.723C865.013 248.738 865.012 249.752 865.012 250.767C865.003 266.262 864.994 281.757 864.985 297.251C864.985 297.581 864.985 297.91 864.985 298.25C864.982 303.557 864.979 308.864 864.976 314.172C864.968 329.608 864.96 345.045 864.951 360.482C864.95 360.965 864.95 360.965 864.95 361.459C864.946 368.57 864.942 375.681 864.937 382.791C864.936 385.659 864.934 388.527 864.932 391.395C864.932 391.709 864.932 392.022 864.931 392.346C864.926 401.573 864.921 410.801 864.916 420.028C864.909 434.301 864.901 448.574 864.891 462.847C864.891 463.267 864.891 463.267 864.891 463.695C864.87 493.11 864.827 522.524 864.544 625.297C839.766 625.301 814.988 625.304 668.818 625.315C666.633 625.315 664.447 625.316 662.262 625.316C631.258 625.317 600.255 625.318 545.494 625.317C545.178 625.317 544.863 625.317 544.539 625.317C513.252 625.315 481.965 625.312 320.975 625.233C320.723 625.233 320.472 625.233 320.213 625.233C296.273 625.214 272.333 625.194 231.168 625.155C229.555 625.154 227.943 625.152 226.331 625.151C204.566 625.13 182.801 625.109 87.8289 625.009C87.8218 594.42 87.8165 563.831 87.8111 508.089C87.811 506.556 87.8108 505.022 87.8107 503.489C87.8088 481.328 87.8079 459.168 87.8098 430.264C87.8098 430.06 87.8098 429.857 87.8098 429.648C87.8114 408.694 87.8146 387.741 87.8931 262.104C87.8933 261.883 87.8935 261.662 87.8937 261.434C87.9129 239.797 87.9334 218.16 87.9711 180.482C87.9727 178.978 87.9742 177.475 87.9757 175.971C87.9964 155.48 88.0175 134.989 88.1173 43.2661C114.725 43.263 141.333 43.2602 313.611 43.2483C316.099 43.2481 318.587 43.248 321.076 43.248C356.067 43.2464 391.057 43.2453 452.412 43.247C452.761 43.247 453.109 43.2471 453.469 43.2471C487.298 43.2485 521.128 43.2512 677.014 43.3304C677.341 43.3307 677.341 43.3307 677.675 43.331C700.468 43.3514 723.261 43.3749 752.76 43.4091C754.26 43.4108 755.761 43.4125 757.261 43.4143C788.571 43.4506 819.881 43.4894 865.12 43.5546C865.122 53.5452 865.118 63.5359 865.112 73.5266Z" fill="#851970"/>
<path d="M63.1258 321.517C62.3565 320.641 61.5464 319.815 60.717 318.996C60.5486 318.824 60.3802 318.653 60.2067 318.477C56.4184 314.918 51.1422 313.39 46.0414 313.454C40.372 313.845 35.5971 316.209 31.5866 320.15C31.4268 320.306 31.2669 320.462 31.1022 320.623C27.3203 324.67 25.9307 330.145 26.0278 335.556C26.226 340.207 28.2131 344.673 31.2982 348.126C31.4726 348.324 31.647 348.522 31.8266 348.726C35.5798 352.731 41.131 354.935 46.5664 355.12C52.3196 355.049 57.3758 352.878 61.5282 348.901C68.49 341.62 69.809 329.485 63.1258 321.517ZM57.8328 347.261C53.3026 350.762 48.5122 351.546 42.9522 350.888C38.6387 349.943 35.0231 347.327 32.6141 343.675C30.1937 339.699 29.0109 335.366 30.1197 330.746C31.4466 325.96 33.9038 322.133 38.2203 319.573C42.2079 317.449 46.6489 316.913 51.0967 317.752C51.9387 318.017 52.7104 318.327 53.5065 318.707C53.9081 318.891 53.9081 318.891 54.3177 319.078C58.9908 321.408 61.5698 325.182 63.2407 330.003C64.9798 336.259 62.5476 343.009 57.8328 347.261Z" fill="#851970"/>
<path fill-rule="evenodd" clip-rule="evenodd" d="M907.23 327.937C908.921 328.597 910.292 329.835 911.106 331.452C912.18 334.155 911.718 336.731 909.826 338.897C908.368 340.342 907.078 340.749 905.031 340.808C902.742 340.707 901.717 340.306 900.092 338.681C898.841 336.873 898.401 335.318 898.578 333.129C899.025 331.267 899.917 329.888 901.408 328.694C903.181 327.565 905.208 327.692 907.23 327.937ZM905.05 331.236C906.381 331.446 906.914 331.839 907.808 332.84C908.289 334.701 908.108 335.649 906.585 336.875C905.744 337.358 904.996 337.275 904.059 337.166C903.199 336.737 902.846 336.246 902.328 335.436C902.184 334.434 902.155 333.475 902.617 332.552C903.428 331.741 903.908 331.423 905.05 331.236Z" fill="#851970"/>
</svg>
