<svg width="19" height="21" viewBox="0 0 19 21" fill="none" xmlns="http://www.w3.org/2000/svg">
<g id="neurology">
<mask id="mask0_15066_15130" style="mask-type:alpha" maskUnits="userSpaceOnUse" x="0" y="0" width="19" height="21">
<rect id="Bounding box" x="0.499023" y="0.96875" width="18" height="20" fill="#D9D9D9"/>
</mask>
<g mask="url(#mask0_15066_15130)">
<path id="target" d="M9.33236 19.3014C8.17958 19.3014 7.09625 19.0827 6.08236 18.6452C5.06847 18.2077 4.18652 17.6139 3.43652 16.8639C2.68652 16.1139 2.09277 15.232 1.65527 14.2181C1.21777 13.2042 0.999023 12.1209 0.999023 10.9681C0.999023 9.81532 1.21777 8.73199 1.65527 7.7181C2.09277 6.70421 2.68652 5.82227 3.43652 5.07227C4.18652 4.32227 5.06847 3.72852 6.08236 3.29102C7.09625 2.85352 8.17958 2.63477 9.33236 2.63477C10.4851 2.63477 11.5685 2.85352 12.5824 3.29102C13.5962 3.72852 14.4782 4.32227 15.2282 5.07227C15.9782 5.82227 16.5719 6.70421 17.0094 7.7181C17.4469 8.73199 17.6657 9.81532 17.6657 10.9681C17.6657 12.1209 17.4469 13.2042 17.0094 14.2181C16.5719 15.232 15.9782 16.1139 15.2282 16.8639C14.4782 17.6139 13.5962 18.2077 12.5824 18.6452C11.5685 19.0827 10.4851 19.3014 9.33236 19.3014ZM9.33236 18.0514C11.3099 18.0514 12.9848 17.3653 14.3571 15.9929C15.7295 14.6204 16.4157 12.9455 16.4157 10.9681C16.4157 8.9906 15.7295 7.31567 14.3571 5.94331C12.9848 4.57095 11.3099 3.88477 9.33236 3.88477C7.355 3.88477 5.68006 4.57095 4.30756 5.94331C2.9352 7.31567 2.24902 8.9906 2.24902 10.9681C2.24902 12.9455 2.9352 14.6204 4.30756 15.9929C5.68006 17.3653 7.355 18.0514 9.33236 18.0514ZM9.33236 15.9681C7.94347 15.9681 6.76291 15.482 5.79069 14.5098C4.81847 13.5375 4.33236 12.357 4.33236 10.9681C4.33236 9.57921 4.81847 8.39865 5.79069 7.42643C6.76291 6.45421 7.94347 5.9681 9.33236 5.9681C10.7212 5.9681 11.9018 6.45421 12.874 7.42643C13.8462 8.39865 14.3324 9.57921 14.3324 10.9681C14.3324 12.357 13.8462 13.5375 12.874 14.5098C11.9018 15.482 10.7212 15.9681 9.33236 15.9681ZM9.33236 14.7181C10.374 14.7181 11.2594 14.3535 11.9886 13.6243C12.7178 12.8952 13.0824 12.0098 13.0824 10.9681C13.0824 9.92643 12.7178 9.04102 11.9886 8.31185C11.2594 7.58268 10.374 7.2181 9.33236 7.2181C8.29069 7.2181 7.40527 7.58268 6.67611 8.31185C5.94694 9.04102 5.58236 9.92643 5.58236 10.9681C5.58236 12.0098 5.94694 12.8952 6.67611 13.6243C7.40527 14.3535 8.29069 14.7181 9.33236 14.7181ZM9.33236 12.6348C8.87402 12.6348 8.48166 12.4716 8.15527 12.1452C7.82889 11.8188 7.66569 11.4264 7.66569 10.9681C7.66569 10.5098 7.82889 10.1174 8.15527 9.79102C8.48166 9.46463 8.87402 9.30143 9.33236 9.30143C9.79069 9.30143 10.1831 9.46463 10.5094 9.79102C10.8358 10.1174 10.999 10.5098 10.999 10.9681C10.999 11.4264 10.8358 11.8188 10.5094 12.1452C10.1831 12.4716 9.79069 12.6348 9.33236 12.6348Z" fill="white"/>
</g>
</g>
</svg>
