<svg width="49" height="48" viewBox="0 0 49 48" fill="none" xmlns="http://www.w3.org/2000/svg">
<mask id="mask0_14595_3207" style="mask-type:alpha" maskUnits="userSpaceOnUse" x="0" y="0" width="49" height="48">
<rect x="0.664062" width="48" height="48" fill="#D9D9D9"/>
</mask>
<g mask="url(#mask0_14595_3207)">
<path d="M24.6641 44C21.8974 44 19.2974 43.475 16.8641 42.425C14.4307 41.375 12.3141 39.95 10.5141 38.15C8.71406 36.35 7.28906 34.2333 6.23906 31.8C5.18906 29.3667 4.66406 26.7667 4.66406 24C4.66406 21.2333 5.18906 18.6333 6.23906 16.2C7.28906 13.7667 8.71406 11.65 10.5141 9.85C12.3141 8.05 14.4307 6.625 16.8641 5.575C19.2974 4.525 21.8974 4 24.6641 4C27.4307 4 30.0307 4.525 32.4641 5.575C34.8974 6.625 37.0141 8.05 38.8141 9.85C40.6141 11.65 42.0391 13.7667 43.0891 16.2C44.1391 18.6333 44.6641 21.2333 44.6641 24C44.6641 26.7667 44.1391 29.3667 43.0891 31.8C42.0391 34.2333 40.6141 36.35 38.8141 38.15C37.0141 39.95 34.8974 41.375 32.4641 42.425C30.0307 43.475 27.4307 44 24.6641 44ZM24.6641 41C29.4101 41 33.4299 39.3532 36.7236 36.0595C40.0172 32.7655 41.6641 28.7457 41.6641 24C41.6641 19.254 40.0172 15.2342 36.7236 11.9405C33.4299 8.64683 29.4101 7 24.6641 7C19.9184 7 15.8986 8.64683 12.6046 11.9405C9.3109 15.2342 7.66406 19.254 7.66406 24C7.66406 28.7457 9.3109 32.7655 12.6046 36.0595C15.8986 39.3532 19.9184 41 24.6641 41ZM24.6641 36C21.3307 36 18.4974 34.8333 16.1641 32.5C13.8307 30.1667 12.6641 27.3333 12.6641 24C12.6641 20.6667 13.8307 17.8333 16.1641 15.5C18.4974 13.1667 21.3307 12 24.6641 12C27.9974 12 30.8307 13.1667 33.1641 15.5C35.4974 17.8333 36.6641 20.6667 36.6641 24C36.6641 27.3333 35.4974 30.1667 33.1641 32.5C30.8307 34.8333 27.9974 36 24.6641 36ZM24.6641 33C27.1641 33 29.2891 32.125 31.0391 30.375C32.7891 28.625 33.6641 26.5 33.6641 24C33.6641 21.5 32.7891 19.375 31.0391 17.625C29.2891 15.875 27.1641 15 24.6641 15C22.1641 15 20.0391 15.875 18.2891 17.625C16.5391 19.375 15.6641 21.5 15.6641 24C15.6641 26.5 16.5391 28.625 18.2891 30.375C20.0391 32.125 22.1641 33 24.6641 33ZM24.6641 28C23.5641 28 22.6224 27.6083 21.8391 26.825C21.0557 26.0417 20.6641 25.1 20.6641 24C20.6641 22.9 21.0557 21.9583 21.8391 21.175C22.6224 20.3917 23.5641 20 24.6641 20C25.7641 20 26.7057 20.3917 27.4891 21.175C28.2724 21.9583 28.6641 22.9 28.6641 24C28.6641 25.1 28.2724 26.0417 27.4891 26.825C26.7057 27.6083 25.7641 28 24.6641 28Z" fill="#003649"/>
</g>
</svg>
