<svg width="17" height="20" viewBox="0 0 17 20" fill="none" xmlns="http://www.w3.org/2000/svg">
<g id="public">
<mask id="mask0_14858_9231" style="mask-type:alpha" maskUnits="userSpaceOnUse" x="0" y="0" width="18" height="20">
<rect id="Bounding box" x="0.0078125" width="17" height="20" fill="#D9D9D9"/>
</mask>
<g mask="url(#mask0_14858_9231)">
<path id="public_2" d="M8.34115 18.3332C7.18837 18.3332 6.10503 18.1144 5.09115 17.6769C4.07726 17.2394 3.19531 16.6457 2.44531 15.8957C1.69531 15.1457 1.10156 14.2637 0.664062 13.2498C0.226562 12.2359 0.0078125 11.1526 0.0078125 9.99984C0.0078125 8.84706 0.226562 7.76373 0.664062 6.74984C1.10156 5.73595 1.69531 4.854 2.44531 4.104C3.19531 3.354 4.07726 2.76025 5.09115 2.32275C6.10503 1.88525 7.18837 1.6665 8.34115 1.6665C9.49392 1.6665 10.5773 1.88525 11.5911 2.32275C12.605 2.76025 13.487 3.354 14.237 4.104C14.987 4.854 15.5807 5.73595 16.0182 6.74984C16.4557 7.76373 16.6745 8.84706 16.6745 9.99984C16.6745 11.1526 16.4557 12.2359 16.0182 13.2498C15.5807 14.2637 14.987 15.1457 14.237 15.8957C13.487 16.6457 12.605 17.2394 11.5911 17.6769C10.5773 18.1144 9.49392 18.3332 8.34115 18.3332ZM7.44531 17.0623V15.354C6.9592 15.354 6.54948 15.1734 6.21615 14.8123C5.88281 14.4512 5.71615 14.0276 5.71615 13.5415V12.6248L1.44531 8.354C1.37587 8.63178 1.32726 8.90609 1.29948 9.17692C1.2717 9.44775 1.25781 9.72206 1.25781 9.99984C1.25781 11.8054 1.84462 13.3818 3.01823 14.729C4.19184 16.0762 5.66753 16.854 7.44531 17.0623ZM13.5703 14.8123C13.8759 14.479 14.1432 14.1248 14.3724 13.7498C14.6016 13.3748 14.796 12.9825 14.9557 12.5728C15.1155 12.163 15.2335 11.7429 15.3099 11.3123C15.3863 10.8818 15.4245 10.4443 15.4245 9.99984C15.4245 8.52762 15.0217 7.19081 14.2161 5.98942C13.4106 4.78803 12.3342 3.90956 10.987 3.354V3.729C10.987 4.21512 10.8203 4.63873 10.487 4.99984C10.1536 5.36095 9.74392 5.5415 9.25781 5.5415H7.44531V7.354C7.44531 7.59012 7.35156 7.78456 7.16406 7.93734C6.97656 8.09012 6.76476 8.1665 6.52865 8.1665H4.79948V9.99984H10.1745C10.4106 9.99984 10.605 10.0901 10.7578 10.2707C10.9106 10.4512 10.987 10.6596 10.987 10.8957V13.5415H11.8828C12.2856 13.5415 12.6398 13.6596 12.9453 13.8957C13.2509 14.1318 13.4592 14.4373 13.5703 14.8123Z" fill="#003649"/>
</g>
</g>
</svg>
