<svg width="18" height="21" viewBox="0 0 18 21" fill="none" xmlns="http://www.w3.org/2000/svg">
<g id="public">
<mask id="mask0_15066_15196" style="mask-type:alpha" maskUnits="userSpaceOnUse" x="0" y="0" width="18" height="21">
<rect id="Bounding box" x="0.499023" y="0.96875" width="17" height="20" fill="#D9D9D9"/>
</mask>
<g mask="url(#mask0_15066_15196)">
<path id="public_2" d="M8.83236 19.3014C7.67958 19.3014 6.59625 19.0827 5.58236 18.6452C4.56847 18.2077 3.68652 17.6139 2.93652 16.8639C2.18652 16.1139 1.59277 15.232 1.15527 14.2181C0.717773 13.2042 0.499023 12.1209 0.499023 10.9681C0.499023 9.81532 0.717773 8.73199 1.15527 7.7181C1.59277 6.70421 2.18652 5.82227 2.93652 5.07227C3.68652 4.32227 4.56847 3.72852 5.58236 3.29102C6.59625 2.85352 7.67958 2.63477 8.83236 2.63477C9.98513 2.63477 11.0685 2.85352 12.0824 3.29102C13.0962 3.72852 13.9782 4.32227 14.7282 5.07227C15.4782 5.82227 16.0719 6.70421 16.5094 7.7181C16.9469 8.73199 17.1657 9.81532 17.1657 10.9681C17.1657 12.1209 16.9469 13.2042 16.5094 14.2181C16.0719 15.232 15.4782 16.1139 14.7282 16.8639C13.9782 17.6139 13.0962 18.2077 12.0824 18.6452C11.0685 19.0827 9.98513 19.3014 8.83236 19.3014ZM7.93652 18.0306V16.3223C7.45041 16.3223 7.04069 16.1417 6.70736 15.7806C6.37402 15.4195 6.20736 14.9959 6.20736 14.5098V13.5931L1.93652 9.32227C1.86708 9.60004 1.81847 9.87435 1.79069 10.1452C1.76291 10.416 1.74902 10.6903 1.74902 10.9681C1.74902 12.7737 2.33583 14.35 3.50944 15.6973C4.68305 17.0445 6.15875 17.8223 7.93652 18.0306ZM14.0615 15.7806C14.3671 15.4473 14.6344 15.0931 14.8636 14.7181C15.0928 14.3431 15.2872 13.9507 15.4469 13.541C15.6067 13.1313 15.7247 12.7112 15.8011 12.2806C15.8775 11.85 15.9157 11.4125 15.9157 10.9681C15.9157 9.49588 15.5129 8.15907 14.7074 6.95768C13.9018 5.75629 12.8254 4.87782 11.4782 4.32227V4.69727C11.4782 5.18338 11.3115 5.60699 10.9782 5.9681C10.6449 6.32921 10.2351 6.50977 9.74902 6.50977H7.93652V8.32227C7.93652 8.55838 7.84277 8.75282 7.65527 8.9056C7.46777 9.05838 7.25597 9.13477 7.01986 9.13477H5.29069V10.9681H10.6657C10.9018 10.9681 11.0962 11.0584 11.249 11.2389C11.4018 11.4195 11.4782 11.6278 11.4782 11.8639V14.5098H12.374C12.7768 14.5098 13.131 14.6278 13.4365 14.8639C13.7421 15.1 13.9504 15.4056 14.0615 15.7806Z" fill="white"/>
</g>
</g>
</svg>
