<svg width="21" height="21" viewBox="0 0 21 21" fill="none" xmlns="http://www.w3.org/2000/svg">
<g id="upload">
<mask id="mask0_14858_9492" style="mask-type:alpha" maskUnits="userSpaceOnUse" x="0" y="0" width="21" height="21">
<rect id="Bounding box" x="0.515625" y="0.394531" width="20" height="20" fill="#D9D9D9"/>
</mask>
<g mask="url(#mask0_14858_9492)">
<path id="upload_2" d="M9.8219 13.8253V6.40865L7.43294 8.7974L6.4469 7.7974L10.5163 3.72803L14.5857 7.7974L13.5996 8.7974L11.2107 6.40865V13.8253H9.8219ZM5.23857 17.0614C4.86357 17.0614 4.53829 16.9237 4.26273 16.6482C3.98732 16.3727 3.84961 16.0474 3.84961 15.6724V12.853H5.23857V15.6724H15.794V12.853H17.1829V15.6724C17.1829 16.0474 17.0452 16.3727 16.7698 16.6482C16.4943 16.9237 16.169 17.0614 15.794 17.0614H5.23857Z" fill="white"/>
</g>
</g>
</svg>
