<svg width="136" height="135" viewBox="0 0 136 135" fill="none" xmlns="http://www.w3.org/2000/svg">
<mask id="mask0_16070_19316" style="mask-type:alpha" maskUnits="userSpaceOnUse" x="0" y="0" width="136" height="135">
<rect x="0.5" width="135" height="135" fill="#D9D9D9"/>
</mask>
<g mask="url(#mask0_16070_19316)">
<path d="M29.1875 116.719C23.8438 111.562 19.6016 105.492 16.4609 98.5078C13.3203 91.5234 11.75 84 11.75 75.9375C11.75 68.1562 13.2266 60.8438 16.1797 54C19.1328 47.1562 23.1406 41.2031 28.2031 36.1406C33.2656 31.0781 39.2188 27.0703 46.0625 24.1172C52.9062 21.1641 60.2188 19.6875 68 19.6875C75.7812 19.6875 83.0938 21.1641 89.9375 24.1172C96.7812 27.0703 102.734 31.0781 107.797 36.1406C112.859 41.2031 116.867 47.1562 119.82 54C122.773 60.8438 124.25 68.1562 124.25 75.9375C124.25 84 122.68 91.5469 119.539 98.5781C116.398 105.609 112.156 111.656 106.812 116.719L98.9375 108.844C103.25 104.719 106.672 99.8203 109.203 94.1484C111.734 88.4766 113 82.4062 113 75.9375C113 63.375 108.641 52.7344 99.9219 44.0156C91.2031 35.2969 80.5625 30.9375 68 30.9375C55.4375 30.9375 44.7969 35.2969 36.0781 44.0156C27.3594 52.7344 23 63.375 23 75.9375C23 82.4062 24.2656 88.4531 26.7969 94.0781C29.3281 99.7031 32.7969 104.578 37.2031 108.703L29.1875 116.719ZM45.0781 100.828C41.7969 97.7344 39.1719 94.0547 37.2031 89.7891C35.2344 85.5234 34.25 80.9062 34.25 75.9375C34.25 66.5625 37.5312 58.5938 44.0938 52.0312C50.6562 45.4688 58.625 42.1875 68 42.1875C77.375 42.1875 85.3438 45.4688 91.9062 52.0312C98.4688 58.5938 101.75 66.5625 101.75 75.9375C101.75 80.9062 100.766 85.5469 98.7969 89.8594C96.8281 94.1719 94.2031 97.8281 90.9219 100.828L82.9062 92.8125C85.25 90.6562 87.1016 88.125 88.4609 85.2188C89.8203 82.3125 90.5 79.2188 90.5 75.9375C90.5 69.75 88.2969 64.4531 83.8906 60.0469C79.4844 55.6406 74.1875 53.4375 68 53.4375C61.8125 53.4375 56.5156 55.6406 52.1094 60.0469C47.7031 64.4531 45.5 69.75 45.5 75.9375C45.5 79.3125 46.1797 82.4297 47.5391 85.2891C48.8984 88.1484 50.75 90.6562 53.0938 92.8125L45.0781 100.828ZM68 87.1875C64.9062 87.1875 62.2578 86.0859 60.0547 83.8828C57.8516 81.6797 56.75 79.0312 56.75 75.9375C56.75 72.8438 57.8516 70.1953 60.0547 67.9922C62.2578 65.7891 64.9062 64.6875 68 64.6875C71.0938 64.6875 73.7422 65.7891 75.9453 67.9922C78.1484 70.1953 79.25 72.8438 79.25 75.9375C79.25 79.0312 78.1484 81.6797 75.9453 83.8828C73.7422 86.0859 71.0938 87.1875 68 87.1875Z" fill="#EFEFEF"/>
</g>
</svg>
