<svg width="37" height="36" viewBox="0 0 37 36" fill="none" xmlns="http://www.w3.org/2000/svg">
<g clip-path="url(#clip0_14595_3353)">
<mask id="mask0_14595_3353" style="mask-type:luminance" maskUnits="userSpaceOnUse" x="0" y="-2" width="37" height="38">
<path d="M19.625 15.75V29.25H17.375V15.75L0.5 -1.125V36H36.5V-1.125L19.625 15.75Z" fill="white"/>
</mask>
<g mask="url(#mask0_14595_3353)">
<path d="M18.5 28.125C24.0919 28.125 28.625 23.5919 28.625 18C28.625 12.4081 24.0919 7.875 18.5 7.875C12.9081 7.875 8.375 12.4081 8.375 18C8.375 23.5919 12.9081 28.125 18.5 28.125Z" fill="#003649"/>
<path d="M18.5 32.625C26.5772 32.625 33.125 26.0772 33.125 18C33.125 9.92284 26.5772 3.375 18.5 3.375C10.4228 3.375 3.875 9.92284 3.875 18C3.875 26.0772 10.4228 32.625 18.5 32.625Z" stroke="#003649" stroke-width="4"/>
</g>
<path d="M18.5 12.375C21.6066 12.375 24.125 9.8566 24.125 6.75C24.125 3.6434 21.6066 1.125 18.5 1.125C15.3934 1.125 12.875 3.6434 12.875 6.75C12.875 9.8566 15.3934 12.375 18.5 12.375Z" fill="#003649"/>
</g>
<defs>
<clipPath id="clip0_14595_3353">
<rect width="36" height="36" fill="white" transform="translate(0.5)"/>
</clipPath>
</defs>
</svg>
